<svg width="24" height="24" viewBox="0 0 24 24" fill="none" xmlns="http://www.w3.org/2000/svg">
<g clip-path="url(#clip0_1287_9696)">
<path d="M20.5331 9.24867C20.0894 9.44442 19.4913 9.45388 19.009 9.41559C18.1133 9.34438 17.2112 9.40167 16.3321 9.58752C12.7488 10.3451 12 11.9933 12 11.9933C12 11.9933 11.2512 10.3451 7.66791 9.58752C6.78877 9.40167 5.88671 9.34438 4.99098 9.41559C4.50873 9.45393 3.91065 9.44446 3.46688 9.24867C3.37416 9.20779 3.26987 9.27327 3.26987 9.37457V10.7919L12 14.2312L20.7301 10.7919V9.37462C20.7301 9.27327 20.6259 9.20779 20.5331 9.24867Z" fill="#FDF6EC"/>
<path d="M20.7302 9.37446V10.7917L19.7926 11.1611V9.53196C19.7926 9.4879 19.778 9.44993 19.7551 9.42181C20.0307 9.40165 20.3027 9.35056 20.5333 9.24884C20.6257 9.20759 20.7302 9.27321 20.7302 9.37446Z" fill="#FCEAD0"/>
<path d="M12 14.2317L2.36462 10.4358C2.21715 10.3777 2.0575 10.4864 2.0575 10.6449V11.842L12 15.9296L21.9425 11.842V10.6449C21.9425 10.4864 21.7829 10.3777 21.6354 10.4358L12 14.2317Z" fill="#6ED5A1"/>
<path d="M21.9425 10.6449V11.8418L21.0049 12.2271V10.921C21.0049 10.8362 20.9674 10.7645 20.9116 10.7208L21.6355 10.4358C21.7827 10.3777 21.9425 10.4864 21.9425 10.6449Z" fill="#46CC8D"/>
<path d="M23.5431 20.6739L0.586078 11.2356C0.474281 11.1896 0.351562 11.2718 0.351562 11.3927V12.8522C0.351562 12.9158 0.387094 12.9741 0.443625 13.0032L19.9352 23.0455C19.9729 23.0649 20.0166 23.0695 20.0575 23.0584L21.3464 22.7083C21.3824 22.6986 21.4206 22.7009 21.4551 22.715L23.4143 23.5147C23.526 23.5603 23.6484 23.4781 23.6484 23.3574V20.8311C23.6484 20.7621 23.6068 20.7001 23.5431 20.6739Z" fill="#C68D7A"/>
<path d="M23.6486 20.8307V21.7083C23.6331 21.6929 23.6148 21.6807 23.5942 21.6722L0.5868 12.213C0.474769 12.1671 0.35144 12.2491 0.35144 12.3706V11.3926C0.35144 11.2717 0.474253 11.1896 0.585862 11.2356L23.543 20.6737C23.6068 20.7 23.6486 20.7623 23.6486 20.8307Z" fill="#BC7C63"/>
<path d="M0.456891 20.6739L23.4139 11.2356C23.5257 11.1896 23.6484 11.2718 23.6484 11.3927V12.8522C23.6484 12.9158 23.6129 12.9741 23.5564 13.0032L4.06477 23.0455C4.02703 23.0649 3.98339 23.0695 3.94242 23.0584L2.65359 22.7083C2.61759 22.6986 2.57939 22.7009 2.54484 22.715L0.585656 23.5147C0.473906 23.5603 0.351562 23.4781 0.351562 23.3574V20.8311C0.351609 20.7621 0.393187 20.7001 0.456891 20.6739Z" fill="#935B44"/>
<path d="M0.351471 20.8307V21.7083C0.36694 21.6929 0.385221 21.6807 0.405846 21.6722L23.4132 12.213C23.5253 12.1671 23.6486 12.2491 23.6486 12.3706V11.3926C23.6486 11.2717 23.5258 11.1896 23.4142 11.2356L0.45694 20.6737C0.39319 20.7 0.351471 20.7623 0.351471 20.8307Z" fill="#87523E"/>
<path d="M12 17.7618C12.2589 17.7618 12.4688 17.5519 12.4688 17.293C12.4688 17.0341 12.2589 16.8242 12 16.8242C11.7411 16.8242 11.5312 17.0341 11.5312 17.293C11.5312 17.5519 11.7411 17.7618 12 17.7618Z" fill="#03060E"/>
<path d="M24 12.8532V11.3938C24 11.2195 23.9136 11.0575 23.7688 10.9606C23.6241 10.8636 23.4415 10.8451 23.2802 10.9114L22.2941 11.3169V10.6445C22.2941 10.4537 22.1999 10.2755 22.0421 10.1681C21.8843 10.0607 21.684 10.0383 21.5065 10.1083L21.0817 10.2756V9.37474C21.0817 9.20861 20.9987 9.05538 20.8598 8.96477C20.7197 8.8735 20.5446 8.85944 20.3912 8.92713C20.0825 9.06335 19.6143 9.11116 19.0369 9.06522C18.1045 8.99111 17.17 9.05116 16.2594 9.24367C13.6915 9.78653 12.5017 10.7881 12.0006 11.3791C11.8916 11.2502 11.7505 11.1021 11.5684 10.9429C10.8557 10.3197 9.87628 9.82474 8.65744 9.47181C8.47111 9.41786 8.27588 9.52516 8.22192 9.71177C8.16792 9.89828 8.27536 10.0933 8.46187 10.1473C10.7401 10.807 11.4951 11.8368 11.6484 12.0842V12.4238C9.44887 10.9675 6.73992 10.4021 6.61589 10.3768C6.42581 10.3382 6.24005 10.4607 6.20119 10.6509C6.16233 10.8411 6.285 11.0268 6.47522 11.0658C6.50606 11.0721 9.51623 11.702 11.6484 13.2821V13.7149L9.62278 12.9169L3.62147 10.5527V9.67492C4.00083 9.77917 4.46916 9.80997 5.01886 9.76624C5.66494 9.71486 6.31711 9.73319 6.95709 9.82075C7.14928 9.84724 7.32684 9.71247 7.35309 9.52005C7.37944 9.32767 7.24477 9.15035 7.05239 9.12405C6.36239 9.02969 5.65955 9.00991 4.96308 9.06522C4.38595 9.11121 3.91762 9.06335 3.60881 8.92713C3.45548 8.85944 3.28017 8.8735 3.14025 8.96477C3.00131 9.05538 2.9183 9.20861 2.9183 9.37474V10.2756L2.49352 10.1083C2.31595 10.0383 2.1157 10.0607 1.95792 10.1681C1.80014 10.2755 1.70592 10.4537 1.70592 10.6445V11.3169L0.719813 10.9114C0.558609 10.8451 0.375937 10.8635 0.231234 10.9606C0.0864375 11.0575 0 11.2195 0 11.3938V12.8532C0 13.0494 0.108328 13.2271 0.282656 13.3168L7.89286 17.2376L0.32325 20.3498C0.126844 20.4305 0 20.6198 0 20.8321V23.3585C0 23.5325 0.0862031 23.6943 0.230672 23.7914C0.318094 23.8501 0.419344 23.8801 0.521391 23.8801C0.588 23.8801 0.654938 23.8673 0.718594 23.8413L2.62092 23.0649L3.85031 23.3988C3.97641 23.4331 4.10972 23.419 4.22587 23.3592L12 19.3537L16.17 21.5022C16.3425 21.5911 16.5547 21.5233 16.6436 21.3507C16.7326 21.178 16.6647 20.966 16.4921 20.8771L12.7677 18.9583L15.2864 17.6606L23.2968 20.9539V23.088L21.588 22.3906C21.4826 22.3475 21.3641 22.3403 21.2542 22.3701L20.0335 22.7017L17.9545 21.6306C17.782 21.5417 17.5699 21.6095 17.481 21.7821C17.392 21.9548 17.4599 22.1668 17.6325 22.2557L19.7742 23.3591C19.8903 23.419 20.0238 23.4331 20.1497 23.3988L21.3792 23.0648L23.2814 23.8413C23.3451 23.8672 23.412 23.88 23.4787 23.88C23.5807 23.88 23.682 23.85 23.7693 23.7913C23.9137 23.6943 24 23.5324 24 23.3584V20.832C24 20.6197 23.8731 20.4304 23.6768 20.3497L16.1072 17.2377L23.7173 13.3169C23.8917 13.2271 24 13.0494 24 12.8532ZM12.3516 13.2821C14.4838 11.702 17.4939 11.0721 17.5248 11.0658C17.715 11.0269 17.8377 10.8413 17.7989 10.651C17.7601 10.4607 17.5743 10.3381 17.3841 10.3768C17.2601 10.4021 14.5512 10.9675 12.3516 12.4238V12.0838C12.4227 11.9682 12.6232 11.6834 13.0416 11.3495C13.5914 10.9108 14.6212 10.3088 16.4049 9.93166C17.2493 9.75306 18.1162 9.69742 18.9812 9.76619C19.5309 9.80988 19.9992 9.77913 20.3786 9.67483V10.5526L14.3773 12.9169L12.3517 13.7149V13.2821H12.3516ZM2.40909 10.8309L11.8711 14.5585C11.9539 14.5911 12.0461 14.5911 12.1289 14.5585L21.5909 10.8309V11.606L12 15.5491L2.40909 11.606V10.8309ZM0.703219 12.7425V11.665L11.0753 15.9293L8.74678 16.8866L0.703219 12.7425ZM0.590531 21.0002L0.591516 20.9998C0.591188 20.9999 0.590859 21.0001 0.590531 21.0002ZM23.2968 12.7425L3.96647 22.7017L2.74575 22.3701C2.63583 22.3402 2.51723 22.3475 2.412 22.3905L0.703172 23.088V20.9539L23.2967 11.665L23.2968 12.7425Z" fill="#03060E"/>
<path d="M13.7608 3.24228C14.0197 3.24228 14.2296 3.03239 14.2296 2.77348C14.2296 2.51458 14.0197 2.30469 13.7608 2.30469C13.5019 2.30469 13.292 2.51458 13.292 2.77348C13.292 3.03239 13.5019 3.24228 13.7608 3.24228Z" fill="#03060E"/>
<path d="M15.2852 3.23641C15.5395 3.18748 15.7059 2.9417 15.657 2.68745C15.608 2.4332 15.3623 2.26676 15.108 2.31569C14.8538 2.36463 14.6873 2.61041 14.7362 2.86466C14.7852 3.1189 15.031 3.28535 15.2852 3.23641Z" fill="#03060E"/>
<path d="M17.7356 7.9842C17.9298 7.9842 18.0873 7.8268 18.0873 7.63259V3.59966C18.0873 3.40545 17.9298 3.24805 17.7356 3.24805C17.5414 3.24805 17.384 3.40545 17.384 3.59966V7.63264C17.384 7.8268 17.5414 7.9842 17.7356 7.9842Z" fill="#03060E"/>
<path d="M6.53879 3.59966V7.63264C6.53879 7.82684 6.69619 7.98425 6.8904 7.98425C7.0846 7.98425 7.24201 7.82684 7.24201 7.63264V3.59966C7.24201 3.40545 7.0846 3.24805 6.8904 3.24805C6.69619 3.24805 6.53879 3.40545 6.53879 3.59966Z" fill="#03060E"/>
<path d="M8.96858 8.20938C9.23141 8.35465 9.57346 8.42266 9.93078 8.42266C10.5627 8.42266 11.2422 8.20971 11.6146 7.83415C11.7979 7.64936 11.9371 7.41293 12.0263 7.1426C12.4555 7.405 12.9462 7.54666 13.4311 7.54666C14.6941 7.54666 15.9053 6.77186 15.8928 5.41235C15.8871 4.79416 15.6321 4.22491 15.2273 3.92665C14.9964 3.75658 14.6062 3.58825 14.0585 3.75279C13.3207 3.97436 13.0332 4.68532 13.19 5.21697C13.2883 5.54983 13.515 5.80404 13.8461 5.95211C14.241 6.12883 14.7024 6.11838 15.0712 6.01915C14.8927 6.40793 14.4775 6.7503 13.5993 6.83538C13.1122 6.88244 12.5972 6.72344 12.1864 6.39888C12.1716 6.38725 12.1561 6.37741 12.1403 6.36846C12.1376 5.98436 12.0636 5.61771 11.9915 5.26179L11.8655 4.64041C11.827 4.4501 11.6417 4.32719 11.451 4.36563C11.2607 4.40421 11.1377 4.58974 11.1763 4.78005L11.3023 5.40143C11.3755 5.76283 11.4512 6.13657 11.4351 6.49047C11.419 6.84593 11.3054 7.14724 11.1153 7.339C10.7551 7.70215 9.75908 7.84272 9.30861 7.59386C9.10353 7.48052 8.96961 7.28393 8.95025 7.06797C8.93221 6.86599 9.01452 6.67966 9.18214 6.5433C9.33275 6.42072 9.35549 6.19929 9.23291 6.04868C9.11038 5.89807 8.88899 5.87529 8.73824 5.99791C8.38892 6.28221 8.21089 6.69504 8.24985 7.1306C8.29002 7.57961 8.55866 7.98288 8.96858 8.20938ZM15.0653 5.2765C14.8222 5.39172 14.4239 5.44033 14.1332 5.31021C13.9917 5.24693 13.9038 5.1513 13.8645 5.01799C13.7878 4.75821 14.0075 4.50232 14.2608 4.42629C14.343 4.40158 14.4197 4.38916 14.4914 4.38916C14.6108 4.38916 14.7163 4.42361 14.8102 4.4928C15.0032 4.63502 15.1398 4.91936 15.1785 5.24454C15.1402 5.24861 15.102 5.25911 15.0653 5.2765Z" fill="#03060E"/>
<path d="M5.94168 2.58204C5.99915 2.71479 6.12862 2.79415 6.26461 2.79415C6.31115 2.79415 6.35854 2.78482 6.40406 2.76513C7.00392 2.50563 7.6514 2.1693 7.67868 2.1551C7.82658 2.07818 7.90008 1.90797 7.85475 1.74757C7.80942 1.58716 7.65736 1.48043 7.49142 1.49247C7.02131 1.5259 6.7424 1.4389 6.663 1.23382C6.60225 1.07688 6.66168 0.974317 6.70247 0.927161C6.75961 0.861067 6.86897 0.801536 7.00453 0.832661C7.194 0.87588 7.38248 0.757755 7.42579 0.568474C7.46915 0.379192 7.35089 0.190567 7.16165 0.147208C6.79392 0.0630674 6.41428 0.185552 6.17072 0.467036C5.92898 0.746411 5.8679 1.12802 6.00726 1.48783C6.07476 1.66202 6.19772 1.84882 6.42019 1.98766C6.32203 2.03285 6.22242 2.07752 6.12478 2.11975C5.94656 2.19682 5.86458 2.40382 5.94168 2.58204Z" fill="#03060E"/>
</g>
<defs>
<clipPath id="clip0_1287_9696">
<rect width="24" height="24" fill="white"/>
</clipPath>
</defs>
</svg>
