<svg width="24" height="24" viewBox="0 0 24 24" fill="none" xmlns="http://www.w3.org/2000/svg">
<g clip-path="url(#clip0_33_2128)">
<path d="M20.5331 9.24805C20.0894 9.4438 19.4913 9.45327 19.009 9.41498C18.1133 9.34377 17.2112 9.40106 16.3321 9.58691C12.7488 10.3445 12 11.9927 12 11.9927C12 11.9927 11.2512 10.3445 7.66791 9.58691C6.78877 9.40106 5.8867 9.34377 4.99097 9.41498C4.50872 9.45332 3.91064 9.44385 3.46687 9.24805C3.37416 9.20718 3.26986 9.27266 3.26986 9.37396V10.7913L12 14.2306L20.7301 10.7913V9.37401C20.7301 9.27266 20.6258 9.20718 20.5331 9.24805Z" fill="#FDF6EC"/>
<path d="M20.7302 9.37385V10.7911L19.7926 11.1605V9.53135C19.7926 9.48729 19.778 9.44932 19.7551 9.4212C20.0307 9.40104 20.3026 9.34995 20.5333 9.24823C20.6257 9.20698 20.7302 9.2726 20.7302 9.37385Z" fill="#FCEAD0"/>
<path d="M12 14.2306L2.36461 10.4347C2.21714 10.3766 2.05749 10.4853 2.05749 10.6438V11.8409L12 15.9285L21.9425 11.8409V10.6438C21.9425 10.4853 21.7829 10.3766 21.6354 10.4347L12 14.2306Z" fill="#6ED5A1"/>
<path d="M21.9426 10.6438V11.8407L21.0049 12.226V10.9199C21.0049 10.8351 20.9674 10.7634 20.9116 10.7197L21.6355 10.4347C21.7827 10.3766 21.9426 10.4853 21.9426 10.6438Z" fill="#46CC8D"/>
<path d="M23.5431 20.6742L0.586078 11.2358C0.474281 11.1899 0.351562 11.2721 0.351562 11.393V12.8524C0.351562 12.916 0.387094 12.9743 0.443625 13.0035L19.9352 23.0457C19.9729 23.0652 20.0166 23.0698 20.0575 23.0587L21.3464 22.7086C21.3824 22.6988 21.4206 22.7011 21.4551 22.7152L23.4143 23.5149C23.526 23.5605 23.6484 23.4783 23.6484 23.3576V20.8313C23.6484 20.7624 23.6068 20.7003 23.5431 20.6742Z" fill="#C68D7A"/>
<path d="M23.6485 20.8311V21.7087C23.6331 21.6932 23.6148 21.681 23.5942 21.6726L0.586785 12.2134C0.474753 12.1675 0.351425 12.2495 0.351425 12.371V11.393C0.351425 11.2721 0.474238 11.19 0.585847 11.236L23.543 20.6741C23.6068 20.7003 23.6485 20.7627 23.6485 20.8311Z" fill="#BC7C63"/>
<path d="M0.456891 20.6742L23.4139 11.2358C23.5257 11.1899 23.6484 11.2721 23.6484 11.393V12.8524C23.6484 12.916 23.6129 12.9743 23.5564 13.0035L4.06477 23.0457C4.02703 23.0652 3.98339 23.0698 3.94242 23.0587L2.65359 22.7086C2.61759 22.6988 2.57939 22.7011 2.54484 22.7152L0.585656 23.5149C0.473906 23.5605 0.351562 23.4783 0.351562 23.3576V20.8313C0.351609 20.7624 0.393187 20.7003 0.456891 20.6742Z" fill="#935B44"/>
<path d="M0.351471 20.8311V21.7087C0.36694 21.6932 0.385221 21.681 0.405846 21.6726L23.4132 12.2134C23.5253 12.1675 23.6486 12.2495 23.6486 12.371V11.393C23.6486 11.2721 23.5258 11.19 23.4142 11.236L0.45694 20.6741C0.39319 20.7003 0.351471 20.7627 0.351471 20.8311Z" fill="#87523E"/>
<path d="M12 17.7618C12.2589 17.7618 12.4688 17.5519 12.4688 17.293C12.4688 17.0341 12.2589 16.8242 12 16.8242C11.7411 16.8242 11.5312 17.0341 11.5312 17.293C11.5312 17.5519 11.7411 17.7618 12 17.7618Z" fill="#03060E"/>
<path d="M24 12.8525V11.3931C24 11.2188 23.9136 11.0568 23.7688 10.9598C23.6241 10.8628 23.4415 10.8444 23.2802 10.9107L22.2941 11.3161V10.6438C22.2941 10.4529 22.1999 10.2748 22.0421 10.1674C21.8843 10.0599 21.684 10.0376 21.5065 10.1076L21.0817 10.2749V9.374C21.0817 9.20788 20.9987 9.05464 20.8598 8.96403C20.7197 8.87277 20.5446 8.85871 20.3912 8.92639C20.0825 9.06261 19.6143 9.11043 19.0369 9.06449C18.1045 8.99038 17.17 9.05043 16.2594 9.24294C13.6915 9.7858 12.5017 10.7873 12.0006 11.3784C11.8916 11.2494 11.7505 11.1014 11.5684 10.9422C10.8557 10.319 9.87628 9.824 8.65744 9.47108C8.47111 9.41713 8.27588 9.52443 8.22192 9.71104C8.16792 9.89755 8.27536 10.0926 8.46187 10.1466C10.7401 10.8062 11.4951 11.836 11.6484 12.0835V12.423C9.44887 10.9668 6.73992 10.4014 6.61589 10.3761C6.42581 10.3374 6.24005 10.46 6.20119 10.6502C6.16233 10.8404 6.285 11.0261 6.47522 11.0651C6.50606 11.0713 9.51623 11.7013 11.6484 13.2814V13.7142L9.62278 12.9162L3.62147 10.5519V9.67419C4.00083 9.77844 4.46916 9.80924 5.01886 9.7655C5.66494 9.71413 6.31711 9.73246 6.95709 9.82002C7.14928 9.8465 7.32684 9.71174 7.35309 9.51932C7.37944 9.32694 7.24477 9.14961 7.05239 9.12332C6.36239 9.02896 5.65955 9.00918 4.96308 9.06449C4.38595 9.11047 3.91762 9.06261 3.60881 8.92639C3.45548 8.85871 3.28017 8.87277 3.14025 8.96403C3.00131 9.05464 2.9183 9.20788 2.9183 9.374V10.2749L2.49352 10.1076C2.31595 10.0376 2.1157 10.0599 1.95792 10.1674C1.80014 10.2748 1.70592 10.4529 1.70592 10.6438V11.3161L0.719813 10.9107C0.558609 10.8444 0.375937 10.8628 0.231234 10.9598C0.0864375 11.0568 0 11.2188 0 11.3931V12.8525C0 13.0487 0.108328 13.2263 0.282656 13.3161L7.89286 17.2369L0.32325 20.349C0.126844 20.4298 0 20.6191 0 20.8314V23.3578C0 23.5318 0.0862031 23.6936 0.230672 23.7906C0.318094 23.8493 0.419344 23.8794 0.521391 23.8794C0.588 23.8794 0.654938 23.8666 0.718594 23.8406L2.62092 23.0642L3.85031 23.3981C3.97641 23.4324 4.10972 23.4183 4.22587 23.3585L12 19.353L16.17 21.5015C16.3425 21.5903 16.5547 21.5226 16.6436 21.35C16.7326 21.1773 16.6647 20.9653 16.4921 20.8764L12.7677 18.9576L15.2864 17.6599L23.2968 20.9532V23.0873L21.588 22.3899C21.4826 22.3468 21.3641 22.3396 21.2542 22.3694L20.0335 22.701L17.9545 21.6299C17.782 21.5409 17.5699 21.6088 17.481 21.7814C17.392 21.954 17.4599 22.1661 17.6325 22.255L19.7742 23.3584C19.8903 23.4183 20.0238 23.4323 20.1497 23.3981L21.3792 23.0641L23.2814 23.8405C23.3451 23.8665 23.412 23.8793 23.4787 23.8793C23.5807 23.8793 23.682 23.8492 23.7693 23.7906C23.9137 23.6935 24 23.5317 24 23.3577V20.8313C24 20.619 23.8731 20.4297 23.6768 20.349L16.1072 17.237L23.7173 13.3161C23.8917 13.2263 24 13.0487 24 12.8525ZM12.3516 13.2814C14.4838 11.7013 17.4939 11.0713 17.5248 11.0651C17.715 11.0262 17.8377 10.8405 17.7989 10.6503C17.7601 10.46 17.5743 10.3373 17.3841 10.3761C17.2601 10.4014 14.5512 10.9668 12.3516 12.423V12.0831C12.4227 11.9675 12.6232 11.6826 13.0416 11.3488C13.5914 10.9101 14.6212 10.308 16.4049 9.93093C17.2493 9.75233 18.1162 9.69669 18.9812 9.76546C19.5309 9.80914 19.9992 9.77839 20.3786 9.6741V10.5519L14.3773 12.9162L12.3517 13.7142V13.2814H12.3516ZM2.40909 10.8301L11.8711 14.5578C11.9539 14.5904 12.0461 14.5904 12.1289 14.5578L21.5909 10.8301V11.6053L12 15.5484L2.40909 11.6053V10.8301ZM0.703219 12.7417V11.6643L11.0753 15.9286L8.74678 16.8859L0.703219 12.7417ZM0.590531 20.9995L0.591516 20.9991C0.591188 20.9992 0.590859 20.9993 0.590531 20.9995ZM23.2968 12.7417L3.96647 22.7009L2.74575 22.3693C2.63583 22.3395 2.51723 22.3468 2.412 22.3898L0.703172 23.0872V20.9532L23.2967 11.6643L23.2968 12.7417Z" fill="#03060E"/>
<path d="M13.7608 3.24179C14.0197 3.24179 14.2296 3.03191 14.2296 2.773C14.2296 2.51409 14.0197 2.3042 13.7608 2.3042C13.5019 2.3042 13.292 2.51409 13.292 2.773C13.292 3.03191 13.5019 3.24179 13.7608 3.24179Z" fill="#03060E"/>
<path d="M15.2852 3.23507C15.5395 3.18613 15.7059 2.94036 15.657 2.68611C15.608 2.43186 15.3623 2.26542 15.108 2.31435C14.8538 2.36329 14.6873 2.60906 14.7362 2.86331C14.7852 3.11756 15.031 3.284 15.2852 3.23507Z" fill="#03060E"/>
<path d="M17.7356 7.98359C17.9298 7.98359 18.0872 7.82619 18.0872 7.63198V3.59905C18.0872 3.40484 17.9298 3.24744 17.7356 3.24744C17.5414 3.24744 17.384 3.40484 17.384 3.59905V7.63203C17.384 7.82619 17.5414 7.98359 17.7356 7.98359Z" fill="#03060E"/>
<path d="M6.53878 3.59905V7.63203C6.53878 7.82623 6.69619 7.98364 6.89039 7.98364C7.08459 7.98364 7.242 7.82623 7.242 7.63203V3.59905C7.242 3.40484 7.08459 3.24744 6.89039 3.24744C6.69619 3.24744 6.53878 3.40484 6.53878 3.59905Z" fill="#03060E"/>
<path d="M8.9686 8.20828C9.23142 8.35355 9.57347 8.42156 9.9308 8.42156C10.5627 8.42156 11.2422 8.20861 11.6146 7.83305C11.7979 7.64827 11.9371 7.41183 12.0263 7.1415C12.4555 7.40391 12.9462 7.54556 13.4311 7.54556C14.6941 7.54556 15.9053 6.77077 15.8928 5.41125C15.8872 4.79306 15.6322 4.22381 15.2273 3.92555C14.9964 3.75548 14.6062 3.58716 14.0586 3.75169C13.3207 3.97327 13.0332 4.68422 13.1901 5.21587C13.2883 5.54873 13.515 5.80294 13.8461 5.95102C14.241 6.12773 14.7024 6.11728 15.0712 6.01805C14.8928 6.40683 14.4775 6.7492 13.5993 6.83428C13.1123 6.88134 12.5972 6.72234 12.1864 6.39778C12.1717 6.38616 12.1561 6.37631 12.1403 6.36736C12.1376 5.98327 12.0636 5.61661 11.9915 5.26069L11.8655 4.63931C11.827 4.449 11.6417 4.32609 11.451 4.36453C11.2607 4.40311 11.1377 4.58864 11.1763 4.77895L11.3023 5.40033C11.3755 5.76173 11.4512 6.13547 11.4352 6.48937C11.419 6.84483 11.3054 7.14614 11.1153 7.33791C10.7551 7.70105 9.7591 7.84162 9.30863 7.59277C9.10355 7.47942 8.96963 7.28283 8.95027 7.06687C8.93222 6.86489 9.01453 6.67856 9.18216 6.5422C9.33277 6.41962 9.3555 6.19819 9.23292 6.04758C9.11039 5.89697 8.889 5.87419 8.73825 5.99681C8.38894 6.28111 8.21091 6.69394 8.24986 7.1295C8.29003 7.57852 8.55867 7.98178 8.9686 8.20828ZM15.0653 5.27541C14.8223 5.39062 14.4239 5.43923 14.1332 5.30911C13.9917 5.24583 13.9038 5.1502 13.8645 5.01689C13.7879 4.75711 14.0075 4.50122 14.2608 4.42519C14.343 4.40048 14.4197 4.38806 14.4914 4.38806C14.6108 4.38806 14.7163 4.42252 14.8102 4.4917C15.0032 4.63392 15.1398 4.91827 15.1785 5.24344C15.1403 5.24752 15.102 5.25802 15.0653 5.27541Z" fill="#03060E"/>
<path d="M5.94168 2.58167C5.99915 2.71442 6.12862 2.79378 6.26461 2.79378C6.31115 2.79378 6.35854 2.78445 6.40406 2.76476C7.00392 2.50526 7.6514 2.16894 7.67868 2.15473C7.82658 2.07781 7.90008 1.90761 7.85475 1.7472C7.80942 1.58679 7.65736 1.48006 7.49142 1.49211C7.02131 1.52553 6.7424 1.43853 6.663 1.23345C6.60225 1.07651 6.66168 0.973951 6.70247 0.926795C6.75961 0.860701 6.86897 0.80117 7.00453 0.832295C7.194 0.875514 7.38248 0.757389 7.42579 0.568107C7.46915 0.378826 7.35089 0.190201 7.16165 0.146842C6.79392 0.0627012 6.41428 0.185186 6.17072 0.46667C5.92898 0.746045 5.8679 1.12765 6.00726 1.48747C6.07476 1.66165 6.19772 1.84845 6.42019 1.98729C6.32203 2.03248 6.22242 2.07715 6.12478 2.11939C5.94656 2.19645 5.86458 2.40345 5.94168 2.58167Z" fill="#03060E"/>
</g>
<defs>
<clipPath id="clip0_33_2128">
<rect width="24" height="24" fill="white"/>
</clipPath>
</defs>
</svg>
