<svg width="40" height="30" viewBox="0 0 40 30" fill="none" xmlns="http://www.w3.org/2000/svg">
<path d="M17.2656 8.59375H22.7344V11.7187H17.2656V8.59375Z" fill="#FAF7F5"/>
<path d="M14.1406 14.8438H18.0469V17.9687H14.1406V14.8438Z" fill="#FAF7F5"/>
<path d="M10.2349 14.8438H14.1411V17.9687H10.2349V14.8438Z" fill="#FAF7F5"/>
<path d="M21.9531 14.8438H25.8594V17.9687H21.9531V14.8438Z" fill="#FAF7F5"/>
<path d="M25.8594 14.8438H29.7656V17.9687H25.8594V14.8438Z" fill="#FAF7F5"/>
<path d="M18.0469 14.8438H21.9531V17.9687H18.0469V14.8438Z" fill="#FAF7F5"/>
<path d="M10.2349 11.7188H29.7661V14.8437H10.2349V11.7188Z" fill="#9DE3D1"/>
<path d="M10.2349 5.70312H13.3599V11.7188H10.2349V5.70312Z" fill="#FAF7F5"/>
<path d="M0.780762 5.70312H3.90576V14.8438H0.780762V5.70312Z" fill="#FAF7F5"/>
<path d="M0.780762 14.8438H10.2339V25.7812H0.780762V14.8438Z" fill="#FAF7F5"/>
<path d="M29.7656 14.8438H39.2188V25.7812H29.7656V14.8438Z" fill="#FAF7F5"/>
<path d="M36.0933 5.70312H39.2183V14.8438H36.0933V5.70312Z" fill="#FAF7F5"/>
<path d="M32.9692 8.82812H36.0942V14.8438H32.9692V8.82812Z" fill="#FAF7F5"/>
<path d="M3.90625 8.82812H7.03125V14.8438H3.90625V8.82812Z" fill="#FAF7F5"/>
<path d="M26.6401 5.70312H29.7651V11.7188H26.6401V5.70312Z" fill="#FAF7F5"/>
<path d="M10.2349 17.9688H13.3599V28.9062H10.2349V17.9688Z" fill="#FAF7F5"/>
<path d="M13.3594 17.9688H26.6406V28.9062H13.3594V17.9688Z" fill="#FAF7F5"/>
<path d="M26.6401 17.9688H29.7651V28.9062H26.6401V17.9688Z" fill="#FAF7F5"/>
<path d="M0.780762 25.7812H10.2339V28.9062H0.780762V25.7812Z" fill="#BFDBFF"/>
<path d="M29.7656 25.7812H39.2188V28.9062H29.7656V25.7812Z" fill="#BFDBFF"/>
<path d="M23.5156 6.5625C23.5156 8.07266 22.7344 8.59375 22.7344 8.59375H17.2656C17.2656 8.59375 16.4844 7.82984 16.4844 6.5625C16.4844 4.66148 20 2.26562 20 2.26562C20 2.26562 23.5156 4.67445 23.5156 6.5625Z" fill="#FFDA8F"/>
<path d="M13.3599 4.7V5.70312H10.2349C10.2349 5.70312 10.2349 5.32586 10.2349 4.7C10.2349 3.76125 11.7974 2.57812 11.7974 2.57812C11.7974 2.57812 13.3599 3.76766 13.3599 4.7Z" fill="#FFDA8F"/>
<path d="M36.0938 22.6562H32.8906V19.5703C32.8906 18.6858 33.6077 17.9688 34.4922 17.9688C35.3767 17.9688 36.0938 18.6858 36.0938 19.5703V22.6562Z" fill="#CC9081"/>
<path d="M7.10938 22.6562H3.90625V19.5703C3.90625 18.6858 4.62328 17.9688 5.50781 17.9688C6.39234 17.9688 7.10938 18.6858 7.10938 19.5703V22.6562Z" fill="#CC9081"/>
<path d="M3.90576 4.7V5.70312H0.780762C0.780762 5.70312 0.780762 5.32586 0.780762 4.7C0.780762 3.76125 2.34326 2.57812 2.34326 2.57812C2.34326 2.57812 3.90576 3.76766 3.90576 4.7Z" fill="#FFDA8F"/>
<path d="M39.2183 4.7V5.70312H36.0933C36.0933 5.70312 36.0933 5.32586 36.0933 4.7C36.0933 3.76125 37.6558 2.57812 37.6558 2.57812C37.6558 2.57812 39.2183 3.76766 39.2183 4.7Z" fill="#FFDA8F"/>
<path d="M36.0942 7.825V8.82812H32.9692C32.9692 8.82812 32.9692 8.45086 32.9692 7.825C32.9692 6.88625 34.5317 5.70312 34.5317 5.70312C34.5317 5.70312 36.0942 6.89266 36.0942 7.825Z" fill="#FFDA8F"/>
<path d="M7.03125 7.825V8.82812H3.90625C3.90625 8.82812 3.90625 8.45086 3.90625 7.825C3.90625 6.88625 5.46875 5.70312 5.46875 5.70312C5.46875 5.70312 7.03125 6.89266 7.03125 7.825Z" fill="#FFDA8F"/>
<path d="M23.5156 28.9063H16.4844V24.6094C16.4844 22.6677 18.0584 21.0938 20 21.0938C21.9416 21.0938 23.5156 22.6677 23.5156 24.6094V28.9063Z" fill="#6D92AC"/>
<path d="M29.7651 4.7V5.70312H26.6401C26.6401 5.70312 26.6401 5.32586 26.6401 4.7C26.6401 3.76125 28.2026 2.57812 28.2026 2.57812C28.2026 2.57812 29.7651 3.76766 29.7651 4.7Z" fill="#FFDA8F"/>
<path d="M39.2188 21.0156C39.6502 21.0156 40 20.6658 40 20.2344C40 19.8029 39.6502 19.4531 39.2188 19.4531C38.7873 19.4531 38.4375 19.8029 38.4375 20.2344C38.4375 20.6658 38.7873 21.0156 39.2188 21.0156Z" fill="black"/>
<path d="M32.1094 19.5703V22.6562C32.1094 23.0877 32.4591 23.4375 32.8906 23.4375H36.0938C36.5252 23.4375 36.875 23.0877 36.875 22.6562V19.5703C36.875 18.2564 35.8061 17.1875 34.4922 17.1875C33.1783 17.1875 32.1094 18.2564 32.1094 19.5703ZM35.3125 19.5703V21.875H33.6719V19.5703C33.6719 19.118 34.0398 18.75 34.4922 18.75C34.9445 18.75 35.3125 19.118 35.3125 19.5703Z" fill="black"/>
<path d="M3.90625 23.4375H7.10938C7.54086 23.4375 7.89062 23.0877 7.89062 22.6562V19.5703C7.89062 18.2564 6.82172 17.1875 5.50781 17.1875C4.19391 17.1875 3.125 18.2564 3.125 19.5703V22.6562C3.125 23.0877 3.47477 23.4375 3.90625 23.4375ZM4.6875 19.5703C4.6875 19.118 5.05547 18.75 5.50781 18.75C5.96016 18.75 6.32812 19.118 6.32812 19.5703V21.875H4.6875V19.5703Z" fill="black"/>
<path d="M38.1295 1.95648C37.8505 1.74406 37.4641 1.74352 37.1847 1.95523C36.872 2.19203 35.3125 3.43688 35.3125 4.70008V5.33039C35.1883 5.22461 35.0811 5.13984 35.0045 5.08148C34.7255 4.86906 34.3391 4.86852 34.0597 5.08023C33.7471 5.31695 32.1876 6.5618 32.1876 7.825V14.0625H30.547V4.70008C30.547 3.47578 29.1152 2.29062 28.6765 1.95656C28.3974 1.74414 28.0111 1.74359 27.7316 1.95531C27.4189 2.19203 25.8594 3.43688 25.8594 4.70008V10.9375H23.5156V8.92633C23.8498 8.54711 24.2969 7.8075 24.2969 6.5625C24.2969 5.55758 23.624 4.40625 22.297 3.1407C21.7129 2.58367 21.1336 2.12906 20.7812 1.86633V0.78125C20.7812 0.349766 20.4315 0 20 0C19.5685 0 19.2188 0.349766 19.2188 0.78125V1.86523C18.866 2.12711 18.2871 2.57977 17.7035 3.13531C16.3762 4.39875 15.7031 5.5518 15.7031 6.5625C15.7031 7.68531 16.1809 8.48594 16.4844 8.88125V10.9375H14.1406V4.70008C14.1406 3.47578 12.7089 2.29062 12.2702 1.95656C11.9911 1.74414 11.6048 1.74359 11.3253 1.95531C11.0127 2.19203 9.45312 3.43688 9.45312 4.70008V14.0625H7.8125V7.82508C7.8125 6.60078 6.38078 5.41563 5.94203 5.08156C5.66297 4.86914 5.27664 4.86859 4.99719 5.08031C4.93547 5.12703 4.82477 5.21352 4.68758 5.33117V4.70008C4.68758 3.47578 3.25586 2.29062 2.81711 1.95656C2.53805 1.74414 2.15172 1.74359 1.87227 1.95531C1.55953 2.19203 0 3.43688 0 4.70008V28.9062C0 29.3377 0.349766 29.6875 0.78125 29.6875H39.2188C39.6502 29.6875 40 29.3377 40 28.9062V25.7812V23.75C40 23.3195 39.6492 22.9688 39.2188 22.9688C38.7883 22.9688 38.4375 23.3195 38.4375 23.75V25H30.5469V15.625H38.4375V16.7188C38.4375 17.1492 38.7883 17.5 39.2188 17.5C39.6492 17.5 40 17.1492 40 16.7188V4.70008C40 3.4757 38.5683 2.29062 38.1295 1.95648ZM4.6875 7.82508C4.6875 7.61562 5.0275 7.15594 5.46781 6.7325C5.9093 7.15766 6.25 7.6175 6.25 7.82508V8.04688H4.6875V7.82508ZM4.6875 9.60938H6.25V14.0625H4.6875V9.60938ZM1.5625 4.70008C1.5625 4.49063 1.9025 4.03094 2.34281 3.6075C2.7843 4.03266 3.125 4.4925 3.125 4.70008V4.92188H1.5625V4.70008ZM1.5625 6.48438H3.125V14.0625H1.5625V6.48438ZM9.45312 28.125H1.5625V26.5625H9.45312V28.125ZM9.45312 25H1.5625V15.625H9.45312V25ZM19.9994 3.2282C21.2549 4.1775 22.7344 5.65367 22.7344 6.5625C22.7344 7.23828 22.5443 7.62383 22.4092 7.8125H17.6423C17.4819 7.56711 17.2655 7.13062 17.2655 6.5625C17.2656 5.64945 18.7445 4.17469 19.9994 3.2282ZM21.9531 9.375V10.9375H18.0469V9.375H21.9531ZM11.0156 4.70008C11.0156 4.49063 11.3556 4.03094 11.7959 3.6075C12.2374 4.03266 12.5781 4.4925 12.5781 4.70008V4.92188H11.0156V4.70008ZM11.0156 6.48438H12.5781V10.9375H11.0156V6.48438ZM12.5781 28.125H11.0156V18.75H12.5781V28.125ZM13.3594 17.1875H11.0156V15.625H13.3594V17.1875ZM22.7344 28.125H17.2656V24.6094C17.2656 23.1016 18.4923 21.875 20 21.875C21.5077 21.875 22.7344 23.1016 22.7344 24.6094V28.125ZM25.8594 28.125H24.2969V24.6094C24.2969 22.2401 22.3693 20.3125 20 20.3125C17.6307 20.3125 15.7031 22.2401 15.7031 24.6094V28.125H14.1406V18.75H18.0469H21.9531H25.8594V28.125ZM14.9219 17.1875V15.625H17.2656V17.1875H14.9219ZM18.8281 17.1875V15.625H21.1719V17.1875H18.8281ZM22.7344 17.1875V15.625H25.0781V17.1875H22.7344ZM28.9844 28.125H27.4219V18.75H28.9844V28.125ZM28.9844 17.1875H26.6406V15.625H28.9844V17.1875ZM28.9844 14.0625H11.0156V12.5H28.9844V14.0625ZM28.9844 10.9375H27.4219V6.48438H28.9844V10.9375ZM28.9844 4.92188H27.4219V4.70008C27.4219 4.49063 27.7619 4.03094 28.2022 3.6075C28.6437 4.03266 28.9844 4.4925 28.9844 4.70008V4.92188ZM38.4375 26.5625V28.125H30.5469V26.5625H38.4375ZM35.3125 14.0625H33.75V9.60938H35.3125V14.0625ZM35.3125 8.04688H33.75V7.82508C33.75 7.61562 34.09 7.15594 34.5303 6.7325C34.9718 7.15766 35.3125 7.6175 35.3125 7.82508V8.04688ZM38.4375 14.0625H36.875V6.48438H38.4375V14.0625ZM38.4375 4.92188H36.875V4.70008C36.875 4.49063 37.215 4.03094 37.6553 3.6075C38.0968 4.03266 38.4375 4.4925 38.4375 4.70008V4.92188Z" fill="black"/>
</svg>
