<svg width="32" height="40" viewBox="0 0 32 40" fill="none" xmlns="http://www.w3.org/2000/svg">
<path d="M27.171 3.63209V3.18981C27.3171 3.10001 27.4203 2.94454 27.4203 2.75958C27.4203 2.54246 27.2849 2.35885 27.0933 2.28379V1.92059C27.238 1.85089 27.3399 1.7048 27.3399 1.53325C27.3399 1.35634 27.2327 1.20355 27.0799 1.13654L26.907 0L26.7341 1.13654C26.5813 1.20355 26.4741 1.355 26.4741 1.53325C26.4741 1.7048 26.5759 1.84955 26.7207 1.92059V2.28513C26.5304 2.36019 26.3937 2.5438 26.3937 2.76093C26.3937 2.94588 26.4969 3.10001 26.6429 3.18981V3.30105V3.63209C26.4513 3.72993 26.3159 3.92427 26.3159 4.15345C26.3159 4.37191 26.4419 4.55687 26.6202 4.65873V4.85842H27.1938V4.65873C27.372 4.55687 27.498 4.37191 27.498 4.15345C27.498 3.92427 27.3627 3.72993 27.171 3.63209Z" fill="#7A5739"/>
<path d="M24.3496 25.0391H29.6369V37.8867H24.3496V25.0391Z" fill="#F0D495"/>
<path d="M24.7729 17.2285H24.8922V17.3478H24.7729V17.2285Z" fill="black"/>
<path d="M29.3608 24.769H24.3496V15.3711L29.6865 15.4247L29.3608 24.769Z" fill="#F0D495"/>
<path d="M24.2871 13.7344H29.5275V14.824H24.2871V13.7344Z" fill="#F0D495"/>
<path d="M24.6157 10.1953H29.3616V13.2551H24.6157V10.1953Z" fill="#F0D495"/>
<path d="M24.481 8.64258H29.527V9.71746H24.481V8.64258Z" fill="#F0D495"/>
<path d="M25.3516 5.53711H28.5333V8.36639H25.3516V5.53711Z" fill="#F0D495"/>
<path d="M28.7443 32.6117V29.0359C28.7443 28.0522 27.9401 27.248 26.9564 27.248C25.9726 27.248 25.1685 28.0522 25.1685 29.0359V32.6117H28.7443Z" fill="#FFEEC0"/>
<path d="M28.2333 21.1419V18.7348C28.2333 18.0727 27.6918 17.5312 27.0297 17.5312C26.3676 17.5312 25.8262 18.0727 25.8262 18.7348V21.1419H28.2333Z" fill="#FFEEC0"/>
<path d="M25.6797 32.6134V29.7814C25.8512 29.3418 26.9569 28.1074 26.9569 28.1074C26.9569 28.1074 28.0627 29.3418 28.2342 29.7814L28.2141 32.6134H25.6797Z" fill="#2E0201"/>
<path d="M26.3607 13.0601L26.354 12.7184C26.4559 12.4583 27.1099 11.7266 27.1099 11.7266C27.1099 11.7266 27.7653 12.457 27.8658 12.7184L27.8605 13.0615L26.3607 13.0601Z" fill="#2E0201"/>
<path d="M28.8628 11.7266C28.8628 11.7266 29.5182 12.457 29.6187 12.7184L29.6134 13.0615H28.1123L28.1069 12.7184C28.2075 12.457 28.8628 11.7266 28.8628 11.7266Z" fill="#2E0201"/>
<path d="M25.2408 11.7266C25.2408 11.7266 25.8962 12.457 25.9967 12.7184L25.9913 13.0615H24.4902L24.4849 12.7184C24.5854 12.457 25.2408 11.7266 25.2408 11.7266Z" fill="#2E0201"/>
<path d="M27.5464 24.361V23.258C27.5464 22.9551 27.3078 22.3828 27.0183 22.3828C26.7275 22.3828 26.4902 22.9538 26.4902 23.258V24.361H27.5464Z" fill="#2E0201"/>
<path d="M25.2578 24.361H25.7859V23.258C25.7859 22.9551 25.5473 22.3828 25.2578 22.3828" fill="#2E0201"/>
<path d="M28.8703 22.3828C28.5795 22.3828 28.3423 22.9538 28.3423 23.258V24.361H28.8703" fill="#2E0201"/>
<path d="M29.1944 18.8542L28.7762 18.3047L28.5404 18.8542L28.145 18.3047L27.8877 18.8542L27.5137 18.3047L27.2336 18.8542L26.8838 18.3047L26.5809 18.8542L26.2525 18.3047L25.9269 18.8542L25.6213 18.3047L25.2742 18.8542L24.99 18.3047L24.6201 18.8542" stroke="#2E0201" stroke-width="0.15" stroke-miterlimit="10"/>
<path d="M29.2741 19.7448L28.856 19.1953L28.6214 19.7448L28.226 19.1953L27.9674 19.7448L27.5948 19.1953L27.3147 19.7448L26.9635 19.1953L26.6606 19.7448L26.3323 19.1953L26.0079 19.7448L25.7023 19.1953L25.3539 19.7448L25.0711 19.1953L24.7012 19.7448" stroke="#2E0201" stroke-width="0.15" stroke-miterlimit="10"/>
<path d="M29.317 20.6354L28.8988 20.0859L28.6629 20.6354L28.2675 20.0859L28.0102 20.6354L27.6363 20.0859L27.3562 20.6354L27.0064 20.0859L26.7035 20.6354L26.3751 20.0859L26.0494 20.6354L25.7438 20.0859L25.3967 20.6354L25.1126 20.0859L24.7427 20.6354" stroke="#2E0201" stroke-width="0.15" stroke-miterlimit="10"/>
<path d="M29.317 21.528L28.8988 20.9785L28.6629 21.528L28.2675 20.9785L28.0102 21.528L27.6363 20.9785L27.3562 21.528L27.0064 20.9785L26.7035 21.528L26.3751 20.9785L26.0494 21.528L25.7438 20.9785L25.3967 21.528L25.1126 20.9785L24.7427 21.528" stroke="#2E0201" stroke-width="0.15" stroke-miterlimit="10"/>
<path d="M30.9688 15.5428C31.0907 15.39 31.1149 15.1809 31.0291 15.0067C30.9447 14.8311 30.7664 14.7185 30.5721 14.7185H30.2531V13.5606C30.2531 13.3274 30.0936 13.1397 29.8792 13.0807V11.2205L30.8723 10.4927C31.0492 10.3627 31.1229 10.1335 31.0546 9.92579C30.9862 9.71671 30.7919 9.57598 30.5721 9.57598H30.2531V8.418C30.2531 8.13789 30.0252 7.91005 29.7451 7.91005H29.4369C29.4369 7.90066 29.4422 7.89262 29.4422 7.8819C29.4422 6.10874 28.3258 4.66797 26.9534 4.66797C25.581 4.66797 24.4645 6.11008 24.4645 7.88324C24.4645 7.89262 24.4699 7.902 24.4699 7.91139H24.1603C23.8802 7.91139 23.6523 8.13923 23.6523 8.41934V9.57732H23.4861C23.2637 9.57732 23.068 9.72073 23.0023 9.93249C22.9353 10.1443 23.013 10.3734 23.1953 10.5008L24.2353 11.2285V13.0539H24.1616C23.8815 13.0539 23.6537 13.2818 23.6537 13.5619V14.7199H23.4861C23.2905 14.7199 23.1135 14.8311 23.0291 15.008C22.9447 15.1836 22.9675 15.3927 23.0894 15.5441L24.234 16.9782V24.3563H24.1603C23.8802 24.3563 23.6523 24.5842 23.6523 24.8643V37.6329C23.6523 37.913 23.8802 38.1408 24.1603 38.1408H29.8966C30.1767 38.1408 30.4045 37.913 30.4045 37.6329V24.8643C30.4045 24.5842 30.1767 24.3563 29.8966 24.3563H29.8229V16.9782L30.9688 15.5428ZM25.4791 7.88324C25.4791 6.69175 26.1546 5.68388 26.9534 5.68388C27.7522 5.68388 28.4277 6.69175 28.4277 7.88324C28.4277 7.89262 28.433 7.902 28.433 7.91139H25.4737C25.4737 7.90066 25.4791 7.89262 25.4791 7.88324ZM24.6682 8.92596H29.2385V9.57598H24.6682V8.92596ZM28.8646 13.0526H25.2499V10.9631C25.2499 10.9497 25.2432 10.939 25.2419 10.9256C25.2405 10.9095 25.2352 10.8961 25.2325 10.8801C25.2137 10.7701 25.1682 10.671 25.0904 10.5986C25.0891 10.5973 25.0891 10.5932 25.0864 10.5919H29.0254C29.0241 10.5932 29.0241 10.5973 29.0227 10.5986C28.945 10.6723 28.8981 10.7742 28.8807 10.8868C28.878 10.9015 28.8726 10.9136 28.8726 10.9296C28.8713 10.9417 28.8659 10.9511 28.8659 10.9631V13.0526M24.6682 14.0672H29.2385V14.7172H24.6682V14.0672ZM29.39 37.1222H24.6682V25.3695H24.742H29.3149H29.3886L29.39 37.1222ZM25.2499 24.3536V16.7986C25.2499 16.7758 25.2405 16.7571 25.2365 16.7356C25.2325 16.7008 25.2271 16.6673 25.2164 16.6324C25.2043 16.5989 25.1869 16.5708 25.1695 16.5399C25.1574 16.5212 25.1534 16.4997 25.14 16.481L24.5423 15.7331H29.5173L28.9195 16.481C28.9048 16.4984 28.9008 16.5198 28.89 16.5399C28.8713 16.5694 28.8539 16.5989 28.8431 16.6324C28.8311 16.6659 28.8271 16.6994 28.823 16.7356C28.8204 16.7571 28.8096 16.7772 28.8096 16.7986V24.3536H25.2499Z" fill="#CCA86C"/>
<path d="M26.4341 7.92187V7.24237C26.4341 6.93679 26.6834 6.6875 26.9889 6.6875C27.2945 6.6875 27.5438 6.93679 27.5438 7.24237V7.92187" fill="#2E0201"/>
<path d="M14.2086 7.11027L14.8184 8.69713L15.707 7.24831L17.4051 7.15718L16.3007 5.86517L16.739 4.22202L15.1682 4.87338L13.7422 3.94727L13.8762 5.64269L12.5547 6.71355L14.2086 7.11027Z" fill="#A0A3A0"/>
<path d="M9.50698 3.87461C9.50698 3.87461 8.19219 9.57337 12.5547 11.5208L16.2887 11.9322C16.2887 11.9322 12.5024 15.3713 8.57684 11.5569C4.65123 7.74258 9.50698 2.95117 9.50698 2.95117V3.87461Z" fill="#A0A3A0"/>
<path d="M12.7946 13.8481C14.49 13.8481 16.1774 13.1525 17.3903 11.7922C17.393 11.7895 17.3957 11.7882 17.3984 11.7855L17.4011 11.7828C17.4439 11.7345 17.4775 11.6796 17.4989 11.622C17.4989 11.6206 17.4989 11.6206 17.4989 11.6193C17.5244 11.5509 17.5351 11.4786 17.5311 11.4048C17.5311 11.4008 17.5324 11.3981 17.5324 11.3941C17.5297 11.3579 17.5136 11.3244 17.5043 11.2896C17.4976 11.2641 17.4976 11.2386 17.4868 11.2145C17.4855 11.2118 17.4828 11.2105 17.4815 11.2078C17.46 11.1609 17.4265 11.122 17.3903 11.0832C17.3796 11.0711 17.3716 11.055 17.3595 11.0443C17.3555 11.0403 17.3542 11.0349 17.3488 11.0309C17.3153 11.0028 17.2751 10.988 17.2362 10.9693C17.2188 10.9612 17.2027 10.9478 17.1839 10.9411C17.1411 10.9264 17.0955 10.9223 17.0513 10.9183C17.0285 10.917 17.0084 10.9103 16.9856 10.9103C16.9333 10.913 16.8824 10.9277 16.8328 10.9465C16.8194 10.9518 16.8046 10.9505 16.7912 10.9559C14.9538 11.7908 12.7906 11.4692 11.2815 10.1303C9.17458 8.26194 8.98024 5.02791 10.8486 2.92102C10.8673 2.90092 10.874 2.87546 10.8888 2.85267C10.9102 2.81917 10.9357 2.787 10.9491 2.74947C10.9611 2.71731 10.9611 2.6838 10.9652 2.65029C10.9705 2.61679 10.9799 2.58462 10.9786 2.55111C10.9772 2.50957 10.9625 2.4707 10.9504 2.43049C10.9437 2.40637 10.9437 2.38224 10.933 2.35812C10.9317 2.35678 10.9303 2.35544 10.9303 2.3541C10.9169 2.32461 10.8914 2.30049 10.8727 2.27368C10.8526 2.24286 10.8352 2.20935 10.8083 2.18522C10.807 2.18388 10.807 2.18388 10.807 2.18254C10.7936 2.17048 10.7762 2.16646 10.7614 2.15574C10.7199 2.12625 10.6797 2.09811 10.6314 2.08068C10.6086 2.07264 10.5845 2.07398 10.5617 2.06862C10.5189 2.05924 10.4773 2.04852 10.4331 2.0512C10.3955 2.05254 10.3594 2.06728 10.3218 2.078C10.295 2.08605 10.2669 2.08471 10.2414 2.09677C10.2401 2.09811 10.2387 2.09811 10.2374 2.09945C10.2334 2.10213 10.2294 2.10481 10.2253 2.10615C9.44933 2.46534 8.7658 2.97061 8.19485 3.61528C5.94322 6.15372 6.17777 10.0498 8.71487 12.3015C9.88625 13.3375 11.3418 13.8481 12.7946 13.8481ZM8.78858 4.57088C8.13856 6.78766 8.74972 9.28187 10.5885 10.9143C11.713 11.9115 13.1391 12.4342 14.5865 12.4556C12.871 13.0962 10.8713 12.8161 9.40912 11.5188C7.38668 9.72282 7.14945 6.67508 8.78858 4.57088Z" fill="#A0A3A0"/>
<path d="M0.398926 19.8364L11.2805 18.2441L11.6249 24.2458L0.398926 24.6546V19.8364Z" fill="#1C1C1C"/>
<path d="M0.398926 27.791L11.6249 27.8446V33.9615L0.398926 33.3129V27.791Z" fill="#1C1C1C"/>
<path d="M11.625 18.3809V24.2445L22.4368 24.3477L22.6003 19.5094L11.625 18.3809Z" fill="#282828"/>
<path d="M12.0898 27.9407L22.9137 27.5762V32.7804L12.0107 34.4007L12.0898 27.9407Z" fill="#282828"/>
<path d="M0.40918 24.8071L22.9241 24.7695V27.2544L11.2907 27.8789L0.40918 27.6162V24.8071Z" fill="#FFCD00"/>
<path d="M16.2881 25.5566H17.4032V26.4345H16.2881V25.5566Z" fill="#DBB001"/>
<path d="M18.1338 25.5566H21.6814V26.4345H18.1338V25.5566Z" fill="#DBB001"/>
<path d="M12.0117 25.5566H15.5594V26.4345H12.0117V25.5566Z" fill="#DBB001"/>
<path d="M7.7334 25.5566H11.2811V26.4345H7.7334V25.5566Z" fill="#DBB001"/>
<path d="M5.8877 25.5566H7.00279V26.4345H5.8877V25.5566Z" fill="#DBB001"/>
<path d="M1.60986 25.5566H5.15752V26.4345H1.60986V25.5566Z" fill="#DBB001"/>
<path d="M0.290527 33.5059L11.8744 34.3717L22.914 33.002L22.7773 37.5856L11.2806 39.4714L0.40847 37.8992L0.290527 33.5059Z" fill="#A75D2C"/>
<path d="M23.236 35.4319V27.5739V24.4029V19.6664C23.236 19.4038 23.0403 19.1813 22.7803 19.1478L11.6964 17.6896C11.6817 17.6869 11.6656 17.6909 11.6508 17.6896C11.6428 17.6896 11.6361 17.6855 11.6281 17.6855C11.62 17.6855 11.6133 17.6896 11.6053 17.6896C11.5905 17.6909 11.5744 17.6869 11.5597 17.6896L0.455687 19.1478C0.195677 19.1813 0 19.4038 0 19.6664V24.4029V27.6718V37.7103C0 37.9676 0.187636 38.1874 0.442284 38.2276L11.5463 39.9928C11.5731 39.9968 11.5999 39.9995 11.6281 39.9995C11.6562 39.9995 11.683 39.9981 11.7098 39.9928L22.7937 38.2276C23.0484 38.1874 23.236 37.9676 23.236 37.7103V35.6409C23.2481 35.586 23.2561 35.5297 23.2494 35.4707C23.2467 35.456 23.2387 35.4453 23.236 35.4319ZM1.04674 24.9256H22.1879V27.066L11.6388 27.3917L1.04674 27.1585V24.9256ZM22.1879 32.5892L12.1521 33.7096V28.4237L22.1879 28.1141V32.5892ZM14.7978 35.9907V34.4669L18.2395 34.0822V35.5632L14.7978 35.9907ZM8.27205 35.9693L8.34175 34.5486L11.104 34.7926V36.3151L8.27205 35.9693ZM12.1521 34.7617L13.751 34.5835V36.1208L12.1521 36.3191V34.7617ZM11.104 28.4264V33.7418L1.04674 32.8559V28.2065L11.104 28.4264ZM1.04674 33.9067L3.03568 34.0822L2.97537 35.3246L1.04674 35.0901V33.9067ZM4.07974 34.1734L7.29903 34.4575L7.23068 35.8433L4.01674 35.452L4.07974 34.1734ZM8.96363 37.1085L8.89527 38.5104L5.11709 37.91L5.17875 36.6461L8.96363 37.1085ZM9.93933 38.6873L10.005 37.2358L11.104 37.3699V38.8616L9.93933 38.6873ZM12.1521 37.3726L16.4691 36.8378V38.1325C16.4691 38.1459 16.4758 38.1579 16.4771 38.1713L12.1521 38.8602V37.3726ZM17.5171 36.7078L20.077 36.3901V37.5991L17.5171 38.0065V36.7078ZM19.2876 35.4332V33.9656L22.1879 33.6426V35.0754L19.2876 35.4332ZM22.1879 23.8802H12.1521V18.806L22.1879 20.1262V23.8802ZM11.104 18.8047V23.8789H1.04674V20.1262L11.104 18.8047ZM1.04674 36.1435L4.13603 36.5201L4.07706 37.7451L1.04674 37.2626V36.1435ZM21.1251 37.4329V36.2615L22.1879 36.1301V37.264L21.1251 37.4329Z" fill="black"/>
</svg>
