<svg width="32" height="40" viewBox="0 0 32 40" fill="none" xmlns="http://www.w3.org/2000/svg">
<path d="M27.1709 3.63209V3.18981C27.317 3.10001 27.4202 2.94454 27.4202 2.75958C27.4202 2.54246 27.2848 2.35885 27.0932 2.28379V1.92059C27.2379 1.85089 27.3398 1.7048 27.3398 1.53325C27.3398 1.35634 27.2325 1.20355 27.0798 1.13654L26.9069 0L26.734 1.13654C26.5812 1.20355 26.474 1.355 26.474 1.53325C26.474 1.7048 26.5758 1.84955 26.7206 1.92059V2.28513C26.5302 2.36019 26.3935 2.5438 26.3935 2.76093C26.3935 2.94588 26.4967 3.10001 26.6428 3.18981V3.30105V3.63209C26.4512 3.72993 26.3158 3.92427 26.3158 4.15345C26.3158 4.37191 26.4418 4.55687 26.62 4.65873V4.85842H27.1937V4.65873C27.3719 4.55687 27.4979 4.37191 27.4979 4.15345C27.4979 3.92427 27.3625 3.72993 27.1709 3.63209Z" fill="#7A5739"/>
<path d="M24.3497 25.0391H29.637V37.8867H24.3497V25.0391Z" fill="#F0D495"/>
<path d="M24.7728 17.2285H24.8921V17.3478H24.7728V17.2285Z" fill="black"/>
<path d="M29.3609 24.769H24.3497V15.3711L29.6866 15.4247L29.3609 24.769Z" fill="#F0D495"/>
<path d="M24.287 13.7344H29.5274V14.824H24.287V13.7344Z" fill="#F0D495"/>
<path d="M24.6158 10.1953H29.3616V13.2551H24.6158V10.1953Z" fill="#F0D495"/>
<path d="M24.4807 8.64258H29.5267V9.71746H24.4807V8.64258Z" fill="#F0D495"/>
<path d="M25.3515 5.53711H28.5332V8.36639H25.3515V5.53711Z" fill="#F0D495"/>
<path d="M28.7441 32.6117V29.0359C28.7441 28.0522 27.94 27.248 26.9562 27.248C25.9725 27.248 25.1683 28.0522 25.1683 29.0359V32.6117H28.7441Z" fill="#FFEEC0"/>
<path d="M28.233 21.1419V18.7348C28.233 18.0727 27.6915 17.5312 27.0294 17.5312C26.3674 17.5312 25.8259 18.0727 25.8259 18.7348V21.1419H28.233Z" fill="#FFEEC0"/>
<path d="M25.6794 32.6134V29.7814C25.8509 29.3418 26.9566 28.1074 26.9566 28.1074C26.9566 28.1074 28.0623 29.3418 28.2339 29.7814L28.2138 32.6134H25.6794Z" fill="#2E0201"/>
<path d="M26.3607 13.0601L26.354 12.7184C26.4559 12.4583 27.1099 11.7266 27.1099 11.7266C27.1099 11.7266 27.7653 12.457 27.8658 12.7184L27.8604 13.0615L26.3607 13.0601Z" fill="#2E0201"/>
<path d="M28.8628 11.7266C28.8628 11.7266 29.5182 12.457 29.6187 12.7184L29.6134 13.0615H28.1123L28.1069 12.7184C28.2074 12.457 28.8628 11.7266 28.8628 11.7266Z" fill="#2E0201"/>
<path d="M25.2407 11.7266C25.2407 11.7266 25.896 12.457 25.9966 12.7184L25.9912 13.0615H24.4901L24.4848 12.7184C24.5853 12.457 25.2407 11.7266 25.2407 11.7266Z" fill="#2E0201"/>
<path d="M27.546 24.361V23.258C27.546 22.9551 27.3075 22.3828 27.018 22.3828C26.7271 22.3828 26.4899 22.9538 26.4899 23.258V24.361H27.546Z" fill="#2E0201"/>
<path d="M25.2578 24.361H25.7859V23.258C25.7859 22.9551 25.5473 22.3828 25.2578 22.3828" fill="#2E0201"/>
<path d="M28.8702 22.3828C28.5793 22.3828 28.3421 22.9538 28.3421 23.258V24.361H28.8702" fill="#2E0201"/>
<path d="M29.1941 18.8542L28.776 18.3047L28.5401 18.8542L28.1447 18.3047L27.8874 18.8542L27.5135 18.3047L27.2333 18.8542L26.8835 18.3047L26.5806 18.8542L26.2523 18.3047L25.9266 18.8542L25.621 18.3047L25.2739 18.8542L24.9898 18.3047L24.6198 18.8542" stroke="#2E0201" stroke-width="0.15" stroke-miterlimit="10"/>
<path d="M29.2742 19.7448L28.856 19.1953L28.6215 19.7448L28.2261 19.1953L27.9674 19.7448L27.5948 19.1953L27.3147 19.7448L26.9636 19.1953L26.6607 19.7448L26.3323 19.1953L26.008 19.7448L25.7024 19.1953L25.3539 19.7448L25.0711 19.1953L24.7012 19.7448" stroke="#2E0201" stroke-width="0.15" stroke-miterlimit="10"/>
<path d="M29.317 20.6354L28.8989 20.0859L28.663 20.6354L28.2676 20.0859L28.0103 20.6354L27.6363 20.0859L27.3562 20.6354L27.0064 20.0859L26.7035 20.6354L26.3752 20.0859L26.0495 20.6354L25.7439 20.0859L25.3968 20.6354L25.1126 20.0859L24.7427 20.6354" stroke="#2E0201" stroke-width="0.15" stroke-miterlimit="10"/>
<path d="M29.317 21.528L28.8989 20.9785L28.663 21.528L28.2676 20.9785L28.0103 21.528L27.6363 20.9785L27.3562 21.528L27.0064 20.9785L26.7035 21.528L26.3752 20.9785L26.0495 21.528L25.7439 20.9785L25.3968 21.528L25.1126 20.9785L24.7427 21.528" stroke="#2E0201" stroke-width="0.15" stroke-miterlimit="10"/>
<path d="M30.9687 15.5428C31.0906 15.39 31.1148 15.1809 31.029 15.0067C30.9446 14.8311 30.7663 14.7185 30.572 14.7185H30.253V13.5606C30.253 13.3274 30.0935 13.1397 29.8791 13.0807V11.2205L30.8722 10.4927C31.0491 10.3627 31.1228 10.1335 31.0545 9.92579C30.9861 9.71671 30.7918 9.57598 30.572 9.57598H30.253V8.418C30.253 8.13789 30.0251 7.91005 29.745 7.91005H29.4368C29.4368 7.90066 29.4421 7.89262 29.4421 7.8819C29.4421 6.10874 28.3257 4.66797 26.9533 4.66797C25.5809 4.66797 24.4644 6.11008 24.4644 7.88324C24.4644 7.89262 24.4698 7.902 24.4698 7.91139H24.1602C23.8801 7.91139 23.6522 8.13923 23.6522 8.41934V9.57732H23.486C23.2636 9.57732 23.0679 9.72073 23.0022 9.93249C22.9352 10.1443 23.0129 10.3734 23.1952 10.5008L24.2352 11.2285V13.0539H24.1615C23.8814 13.0539 23.6536 13.2818 23.6536 13.5619V14.7199H23.486C23.2904 14.7199 23.1134 14.8311 23.029 15.008C22.9446 15.1836 22.9674 15.3927 23.0893 15.5441L24.2339 16.9782V24.3563H24.1602C23.8801 24.3563 23.6522 24.5842 23.6522 24.8643V37.6329C23.6522 37.913 23.8801 38.1408 24.1602 38.1408H29.8965C30.1766 38.1408 30.4044 37.913 30.4044 37.6329V24.8643C30.4044 24.5842 30.1766 24.3563 29.8965 24.3563H29.8228V16.9782L30.9687 15.5428ZM25.479 7.88324C25.479 6.69175 26.1545 5.68388 26.9533 5.68388C27.7521 5.68388 28.4276 6.69175 28.4276 7.88324C28.4276 7.89262 28.4329 7.902 28.4329 7.91139H25.4736C25.4736 7.90066 25.479 7.89262 25.479 7.88324ZM24.6681 8.92596H29.2384V9.57598H24.6681V8.92596ZM28.8645 13.0526H25.2498V10.9631C25.2498 10.9497 25.2431 10.939 25.2418 10.9256C25.2404 10.9095 25.2351 10.8961 25.2324 10.8801C25.2136 10.7701 25.1681 10.671 25.0903 10.5986C25.089 10.5973 25.089 10.5932 25.0863 10.5919H29.0253C29.024 10.5932 29.024 10.5973 29.0226 10.5986C28.9449 10.6723 28.898 10.7742 28.8806 10.8868C28.8779 10.9015 28.8725 10.9136 28.8725 10.9296C28.8712 10.9417 28.8658 10.9511 28.8658 10.9631V13.0526M24.6681 14.0672H29.2384V14.7172H24.6681V14.0672ZM29.3899 37.1222H24.6681V25.3695H24.7419H29.3148H29.3885L29.3899 37.1222ZM25.2498 24.3536V16.7986C25.2498 16.7758 25.2404 16.7571 25.2364 16.7356C25.2324 16.7008 25.227 16.6673 25.2163 16.6324C25.2042 16.5989 25.1868 16.5708 25.1694 16.5399C25.1573 16.5212 25.1533 16.4997 25.1399 16.481L24.5422 15.7331H29.5172L28.9194 16.481C28.9047 16.4984 28.9007 16.5198 28.8899 16.5399C28.8712 16.5694 28.8538 16.5989 28.843 16.6324C28.831 16.6659 28.827 16.6994 28.8229 16.7356C28.8203 16.7571 28.8095 16.7772 28.8095 16.7986V24.3536H25.2498Z" fill="#CCA86C"/>
<path d="M26.4338 7.92187V7.24237C26.4338 6.93679 26.6831 6.6875 26.9887 6.6875C27.2943 6.6875 27.5435 6.93679 27.5435 7.24237V7.92187" fill="#2E0201"/>
<path d="M14.2084 7.11027L14.8182 8.69713L15.7068 7.24831L17.4049 7.15718L16.3005 5.86517L16.7388 4.22202L15.168 4.87338L13.7419 3.94727L13.876 5.64269L12.5545 6.71355L14.2084 7.11027Z" fill="#A0A3A0"/>
<path d="M9.50678 3.87461C9.50678 3.87461 8.19199 9.57337 12.5545 11.5208L16.2885 11.9322C16.2885 11.9322 12.5023 15.3713 8.57664 11.5569C4.65104 7.74258 9.50678 2.95117 9.50678 2.95117V3.87461Z" fill="#A0A3A0"/>
<path d="M12.7946 13.8481C14.49 13.8481 16.1774 13.1525 17.3903 11.7922C17.393 11.7895 17.3957 11.7882 17.3984 11.7855L17.401 11.7828C17.4439 11.7345 17.4774 11.6796 17.4989 11.622C17.4989 11.6206 17.4989 11.6206 17.4989 11.6193C17.5244 11.5509 17.5351 11.4786 17.5311 11.4048C17.5311 11.4008 17.5324 11.3981 17.5324 11.3941C17.5297 11.3579 17.5136 11.3244 17.5042 11.2896C17.4975 11.2641 17.4975 11.2386 17.4868 11.2145C17.4855 11.2118 17.4828 11.2105 17.4815 11.2078C17.46 11.1609 17.4265 11.122 17.3903 11.0832C17.3796 11.0711 17.3716 11.055 17.3595 11.0443C17.3555 11.0403 17.3541 11.0349 17.3488 11.0309C17.3153 11.0028 17.2751 10.988 17.2362 10.9693C17.2188 10.9612 17.2027 10.9478 17.1839 10.9411C17.141 10.9264 17.0955 10.9223 17.0512 10.9183C17.0285 10.917 17.0084 10.9103 16.9856 10.9103C16.9333 10.913 16.8824 10.9277 16.8328 10.9465C16.8194 10.9518 16.8046 10.9505 16.7912 10.9559C14.9537 11.7908 12.7906 11.4692 11.2814 10.1303C9.17456 8.26194 8.98022 5.02791 10.8485 2.92102C10.8673 2.90092 10.874 2.87546 10.8887 2.85267C10.9102 2.81917 10.9357 2.787 10.9491 2.74947C10.9611 2.71731 10.9611 2.6838 10.9651 2.65029C10.9705 2.61679 10.9799 2.58462 10.9785 2.55111C10.9772 2.50957 10.9625 2.4707 10.9504 2.43049C10.9437 2.40637 10.9437 2.38224 10.933 2.35812C10.9316 2.35678 10.9303 2.35544 10.9303 2.3541C10.9169 2.32461 10.8914 2.30049 10.8727 2.27368C10.8526 2.24286 10.8351 2.20935 10.8083 2.18522C10.807 2.18388 10.807 2.18388 10.807 2.18254C10.7936 2.17048 10.7762 2.16646 10.7614 2.15574C10.7199 2.12625 10.6797 2.09811 10.6314 2.08068C10.6086 2.07264 10.5845 2.07398 10.5617 2.06862C10.5188 2.05924 10.4773 2.04852 10.4331 2.0512C10.3955 2.05254 10.3593 2.06728 10.3218 2.078C10.295 2.08605 10.2669 2.08471 10.2414 2.09677C10.2401 2.09811 10.2387 2.09811 10.2374 2.09945C10.2334 2.10213 10.2293 2.10481 10.2253 2.10615C9.44931 2.46534 8.76578 2.97061 8.19483 3.61528C5.94321 6.15372 6.17775 10.0498 8.71485 12.3015C9.88624 13.3375 11.3418 13.8481 12.7946 13.8481ZM8.78857 4.57088C8.13854 6.78766 8.7497 9.28187 10.5885 10.9143C11.713 11.9115 13.139 12.4342 14.5865 12.4556C12.871 13.0962 10.8713 12.8161 9.40911 11.5188C7.38666 9.72282 7.14944 6.67508 8.78857 4.57088Z" fill="#A0A3A0"/>
<path d="M0.398762 19.8364L11.2803 18.2441L11.6247 24.2458L0.398762 24.6546V19.8364Z" fill="#1C1C1C"/>
<path d="M0.398762 27.791L11.6247 27.8446V33.9615L0.398762 33.3129V27.791Z" fill="#1C1C1C"/>
<path d="M11.6251 18.3809V24.2445L22.437 24.3477L22.6005 19.5094L11.6251 18.3809Z" fill="#282828"/>
<path d="M12.09 27.9407L22.9139 27.5762V32.7804L12.0109 34.4007L12.09 27.9407Z" fill="#282828"/>
<path d="M0.409342 24.8071L22.9243 24.7695V27.2544L11.2909 27.8789L0.409342 27.6162V24.8071Z" fill="#FFCD00"/>
<path d="M16.288 25.5566H17.4031V26.4345H16.288V25.5566Z" fill="#DBB001"/>
<path d="M18.1337 25.5566H21.6814V26.4345H18.1337V25.5566Z" fill="#DBB001"/>
<path d="M12.0115 25.5566H15.5592V26.4345H12.0115V25.5566Z" fill="#DBB001"/>
<path d="M7.73338 25.5566H11.281V26.4345H7.73338V25.5566Z" fill="#DBB001"/>
<path d="M5.88768 25.5566H7.00277V26.4345H5.88768V25.5566Z" fill="#DBB001"/>
<path d="M1.6097 25.5566H5.15735V26.4345H1.6097V25.5566Z" fill="#DBB001"/>
<path d="M0.290526 33.5059L11.8743 34.3717L22.914 33.002L22.7773 37.5856L11.2806 39.4714L0.408469 37.8992L0.290526 33.5059Z" fill="#A75D2C"/>
<path d="M23.236 35.4319V27.5739V24.4029V19.6664C23.236 19.4038 23.0403 19.1813 22.7803 19.1478L11.6964 17.6896C11.6817 17.6869 11.6656 17.6909 11.6508 17.6896C11.6428 17.6896 11.6361 17.6855 11.6281 17.6855C11.62 17.6855 11.6133 17.6896 11.6053 17.6896C11.5905 17.6909 11.5744 17.6869 11.5597 17.6896L0.455687 19.1478C0.195677 19.1813 0 19.4038 0 19.6664V24.4029V27.6718V37.7103C0 37.9676 0.187636 38.1874 0.442284 38.2276L11.5463 39.9928C11.5731 39.9968 11.5999 39.9995 11.6281 39.9995C11.6562 39.9995 11.683 39.9981 11.7098 39.9928L22.7937 38.2276C23.0484 38.1874 23.236 37.9676 23.236 37.7103V35.6409C23.2481 35.586 23.2561 35.5297 23.2494 35.4707C23.2467 35.456 23.2387 35.4453 23.236 35.4319ZM1.04674 24.9256H22.1879V27.066L11.6388 27.3917L1.04674 27.1585V24.9256ZM22.1879 32.5892L12.1521 33.7096V28.4237L22.1879 28.1141V32.5892ZM14.7978 35.9907V34.4669L18.2395 34.0822V35.5632L14.7978 35.9907ZM8.27205 35.9693L8.34175 34.5486L11.104 34.7926V36.3151L8.27205 35.9693ZM12.1521 34.7617L13.751 34.5835V36.1208L12.1521 36.3191V34.7617ZM11.104 28.4264V33.7418L1.04674 32.8559V28.2065L11.104 28.4264ZM1.04674 33.9067L3.03568 34.0822L2.97537 35.3246L1.04674 35.0901V33.9067ZM4.07974 34.1734L7.29903 34.4575L7.23068 35.8433L4.01674 35.452L4.07974 34.1734ZM8.96363 37.1085L8.89527 38.5104L5.11709 37.91L5.17875 36.6461L8.96363 37.1085ZM9.93933 38.6873L10.005 37.2358L11.104 37.3699V38.8616L9.93933 38.6873ZM12.1521 37.3726L16.4691 36.8378V38.1325C16.4691 38.1459 16.4758 38.1579 16.4771 38.1713L12.1521 38.8602V37.3726ZM17.5171 36.7078L20.077 36.3901V37.5991L17.5171 38.0065V36.7078ZM19.2876 35.4332V33.9656L22.1879 33.6426V35.0754L19.2876 35.4332ZM22.1879 23.8802H12.1521V18.806L22.1879 20.1262V23.8802ZM11.104 18.8047V23.8789H1.04674V20.1262L11.104 18.8047ZM1.04674 36.1435L4.13603 36.5201L4.07706 37.7451L1.04674 37.2626V36.1435ZM21.1251 37.4329V36.2615L22.1879 36.1301V37.264L21.1251 37.4329Z" fill="black"/>
</svg>
