<svg width="40" height="40" viewBox="0 0 40 40" fill="none" xmlns="http://www.w3.org/2000/svg">
<path d="M3.3335 20H12.6665V31.9996H3.3335V20Z" fill="#33658A"/>
<path d="M11.3328 10.666C13.5487 10.666 15.3327 12.4499 15.3327 14.6659V19.999C15.3327 20.7377 14.738 21.3323 13.9994 21.3323H1.9998C1.26115 21.3323 0.666504 20.7377 0.666504 19.999V14.6659C0.666504 12.4499 2.45043 10.666 4.66636 10.666H11.3328Z" fill="#33658A"/>
<path d="M9.99983 8.17773V10.6673C9.99983 11.7752 9.10787 12.6672 7.9999 12.6672C6.89196 12.6672 6 11.7752 6 10.6673V8.17773H9.99983Z" fill="#FDCE97"/>
<path d="M11.333 4.66602L11.3329 5.99932C11.3329 7.84594 9.84632 9.33251 7.9997 9.33251C6.15312 9.33251 4.6665 7.84594 4.6665 5.99932L4.66653 4.66602H11.333Z" fill="#FDD5A6"/>
<path d="M11.3329 4.66586V3.99928C11.3329 2.15267 9.84632 0.666016 7.9997 0.666016C6.15312 0.666016 4.66658 2.15267 4.6665 3.99928V4.66586H11.3329Z" fill="#DBE9EE"/>
<path d="M27.3325 20H36.6655V31.9996H27.3325V20Z" fill="#FF6B6B"/>
<path d="M35.3318 10.666C37.5478 10.666 39.3317 12.4499 39.3317 14.6659V19.999C39.3317 20.7377 38.737 21.3323 37.9984 21.3323H25.9988C25.2602 21.3323 24.6655 20.7377 24.6655 19.999V14.6659C24.6655 12.4499 26.4495 10.666 28.6654 10.666H35.3318Z" fill="#FF6B6B"/>
<path d="M33.9989 8.17773V10.6673C33.9989 11.7752 33.1069 12.6672 31.9989 12.6672C30.891 12.6672 29.999 11.7752 29.999 10.6673V8.17773H33.9989Z" fill="#FDCE97"/>
<path d="M35.332 4.66602L35.332 5.99932C35.3319 7.84594 33.8453 9.33251 31.9987 9.33251C30.1521 9.33251 28.6655 7.84594 28.6655 5.99932L28.6656 4.66602H35.332Z" fill="#FDD5A6"/>
<path d="M35.332 4.66586V3.99928C35.332 2.15267 33.8453 0.666016 31.9987 0.666016C30.1521 0.666016 28.6656 2.15267 28.6655 3.99928V4.66586H35.332Z" fill="#DBE9EE"/>
<path d="M12.666 28.666H27.3322V39.3323H12.666V28.666Z" fill="#DBE9EE"/>
<path d="M31.332 27.3316C31.332 28.4395 30.44 29.3315 29.3321 29.3315H10.666C9.55805 29.3315 8.66609 28.4395 8.66609 27.3316L8.66602 21.3318C8.66604 18.0079 11.342 15.332 14.6658 15.332H25.3321C28.656 15.332 31.3319 18.0079 31.3319 21.3318L31.332 27.3316Z" fill="#DBE9EE"/>
<path d="M19.3325 25.332H21.3324C22.4404 25.332 23.3324 26.2239 23.3324 27.3319C23.3324 28.4399 22.4365 29.239 21.3324 29.3319H19.3325V25.332Z" fill="#FDD5A6"/>
<path d="M22.6657 12V15.3332C22.6657 15.3332 21.9991 17.3331 19.9991 17.3331C17.9992 17.3331 17.3325 15.3332 17.3325 15.3332V12H22.6657Z" fill="#FDCE97"/>
<path d="M23.9993 7.33398L23.9992 9.33387C23.9992 11.5498 22.2153 13.3338 19.9994 13.3338C17.7834 13.3338 15.9995 11.5498 15.9995 9.33387L15.9995 7.33398H23.9993Z" fill="#FDD5A6"/>
<path d="M23.9992 6.66586C23.9992 4.44995 22.2153 2.66602 19.9994 2.66602C17.7834 2.66602 15.9995 4.44995 15.9995 6.66586V7.33251H23.9992V6.66586Z" fill="#DBE9EE"/>
<path d="M31.9989 0C29.7945 0 27.9978 1.79678 27.9977 4.00115V5.9985C27.9977 7.17815 28.5149 8.23787 29.331 8.97107V9.99835H28.6657C26.9576 9.99835 25.4575 10.9143 24.6463 12.2873C24.1527 13.0623 25.3521 13.7716 25.7934 12.9657C26.372 11.9862 27.4325 11.3317 28.6657 11.3317H29.4274C29.6715 12.2616 30.403 12.9936 31.3335 13.2365V15.3341C31.3335 16.2232 32.6681 16.2232 32.6681 15.3341V13.2353C33.5963 12.9911 34.3255 12.26 34.5691 11.3317H35.3321C37.1903 11.3317 38.6653 12.8067 38.6653 14.6648V19.998C38.6653 20.3788 38.3795 20.6647 37.9987 20.6647H33.9988C33.0973 20.6521 33.0973 22.0106 33.9988 21.998H35.9987V31.3323H30.0002C29.1112 31.3323 29.1112 32.6656 30.0002 32.6656H36.6628C37.033 32.6669 37.3334 32.3665 37.332 31.9963V21.998H37.9987C39.0951 21.998 39.9986 21.0944 39.9986 19.998V14.6648C39.9986 12.0911 37.9058 9.99835 35.3321 9.99835H34.6655V8.97107C35.4815 8.23784 35.9987 7.17815 35.9987 5.9985V4.00115C35.9987 1.79676 34.2033 0 31.9989 0ZM7.99972 0.00138406C5.79533 0.00138406 3.99986 1.79806 3.99986 4.00246V5.99981C3.99989 7.17943 4.51703 8.23915 5.33313 8.97237V9.99965H4.6665C2.09278 9.99965 0 12.0924 0 14.6662V19.9993C0 21.0957 0.903502 21.9993 1.99993 21.9993H2.66657V31.9976C2.66523 32.3678 2.96562 32.6682 3.33582 32.6668H9.99834C10.8874 32.6668 10.8874 31.3336 9.99834 31.3336H3.99986V21.9993H5.99979C6.90125 22.0119 6.90125 20.6532 5.99979 20.666H1.99993C1.61907 20.666 1.33327 20.3801 1.33327 19.9993V14.6662C1.33327 12.808 2.80834 11.333 4.6665 11.333H5.42948C5.67313 12.2613 6.4023 12.9923 7.33047 13.2365V15.3354C7.33047 16.2245 8.66505 16.2245 8.66505 15.3354V13.2378C9.59553 12.9949 10.3271 12.2629 10.5712 11.333H11.3329C12.5661 11.333 13.6266 11.9875 14.2052 12.967C14.6465 13.7729 15.8459 13.0635 15.3523 12.2887C14.5412 10.9156 13.041 9.99965 11.3329 9.99965H10.6676V8.97237C11.4837 8.23915 12.0009 7.17946 12.0009 5.99981V4.00246C12.0008 1.79809 10.2041 0.00138406 7.99972 0.00138406ZM31.9989 1.33331C33.4877 1.33331 34.6655 2.51232 34.6655 4.00115H29.331C29.3311 2.5123 30.5101 1.33331 31.9989 1.33331ZM7.99972 1.33461C9.48853 1.33461 10.6675 2.5136 10.6676 4.00246H5.33313C5.33313 2.51363 6.51092 1.33461 7.99972 1.33461ZM19.998 1.99865C17.4243 1.99865 15.3328 4.09015 15.3328 6.66385V9.33177C15.3328 10.6004 15.8424 11.7506 16.6661 12.5934V15.3354C16.6666 15.4057 16.6787 15.4758 16.7011 15.5426C16.7011 15.5426 17.3488 17.5476 19.3338 17.9292V20.6648C19.3338 21.5539 20.6671 21.5539 20.6671 20.6648V17.9279C22.6488 17.5438 23.2999 15.5426 23.2999 15.5426C23.3225 15.4758 23.3346 15.4057 23.3349 15.3354V12.5908C24.1582 11.7482 24.6681 10.5991 24.6682 9.33177V6.66385C24.6682 4.09013 22.5717 1.99865 19.998 1.99865ZM19.998 3.33196C21.8561 3.33196 23.3351 4.80572 23.3351 6.66385H16.6661C16.6661 4.80572 18.1399 3.33196 19.998 3.33196ZM29.331 5.33446H34.6655V5.9985C34.6654 7.48733 33.4877 8.66642 31.9989 8.66642C30.5101 8.66642 29.331 7.48733 29.331 5.9985V5.33446ZM5.33313 5.33584H10.6676V5.99988C10.6676 7.48871 9.48853 8.66773 7.99972 8.66773C6.51092 8.66773 5.33316 7.48871 5.33313 5.99988V5.33584ZM16.6661 7.99715H23.3351V9.33177C23.3351 11.1899 21.8561 12.6676 19.998 12.6676C18.1399 12.6676 16.6661 11.1899 16.6661 9.33177V7.99715ZM30.6643 9.76536C31.0823 9.91402 31.5308 9.99965 31.9989 9.99965C32.4669 9.99965 32.9142 9.91402 33.3322 9.76536V10.6638C33.3322 11.414 32.749 11.997 31.9989 11.997C31.2487 11.997 30.6643 11.414 30.6643 10.6638V9.76536ZM6.66643 9.76667C7.0844 9.91533 7.53166 10.001 7.99972 10.001C8.46776 10.001 8.91633 9.91533 9.3343 9.76667V10.6651C9.3343 11.4153 8.74988 11.9984 7.99972 11.9984C7.24956 11.9984 6.66643 11.4153 6.66643 10.6651V9.76667ZM22.0005 13.5439V15.1832C21.9642 15.293 21.4103 16.6636 19.998 16.6636C18.5857 16.6636 18.037 15.2933 18.0007 15.1832V13.5452C18.607 13.8345 19.2825 14.0022 19.998 14.0022C20.7151 14.0022 21.3925 13.8344 22.0005 13.5439ZM14.6661 14.6662C10.9845 14.6662 7.99972 17.651 7.99972 21.3327V27.3325C7.99972 28.7982 9.20054 29.999 10.6663 29.999H21.3326H26.6657V38.6667H13.3355V31.9977C13.3355 31.1086 12.0009 31.1086 12.0009 31.9977V39.3307C11.9995 39.699 12.2979 39.9987 12.6662 40H27.3298C27.7 40.0013 28.0004 39.7009 27.999 39.3307V29.999H29.3323C30.7981 29.999 31.9989 28.7982 31.9989 27.3325V21.3327C31.9989 17.651 29.0141 14.6662 25.3324 14.6662C24.4309 14.6536 24.4309 16.0123 25.3324 15.9995C28.2985 15.9995 30.6656 18.3666 30.6656 21.3327V27.3325C30.6656 28.0827 30.0825 28.6658 29.3323 28.6658H23.6099C23.85 28.2793 23.9992 27.831 23.9992 27.3325C23.9992 25.8667 22.7983 24.6659 21.3326 24.6659H13.3329V20.666C13.3342 20.5777 13.3179 20.4899 13.285 20.4078C13.2521 20.3258 13.2032 20.2511 13.1412 20.1882C13.0791 20.1252 13.0052 20.0752 12.9237 20.0411C12.8421 20.0069 12.7546 19.9893 12.6662 19.9893C12.5778 19.9893 12.4903 20.0069 12.4088 20.0411C12.3272 20.0752 12.2533 20.1252 12.1913 20.1882C12.1292 20.2511 12.0803 20.3258 12.0474 20.4078C12.0145 20.4899 11.9983 20.5777 11.9996 20.666V25.3325C11.9996 25.5093 12.0698 25.6789 12.1949 25.8039C12.3199 25.9289 12.4894 25.9992 12.6662 25.9992H18.6647V28.6658H10.6663C9.9161 28.6658 9.33299 28.0827 9.33299 27.3325V21.3327C9.33302 18.3666 11.7001 15.9995 14.6661 15.9995C14.7545 16.0009 14.8423 15.9846 14.9243 15.9517C15.0064 15.9188 15.0811 15.8699 15.144 15.8078C15.207 15.7458 15.257 15.6719 15.2912 15.5903C15.3253 15.5088 15.3429 15.4213 15.3429 15.3329C15.3429 15.2445 15.3253 15.157 15.2912 15.0754C15.257 14.9939 15.207 14.92 15.144 14.8579C15.0811 14.7959 15.0064 14.747 14.9243 14.7141C14.8423 14.6812 14.7545 14.6649 14.6661 14.6662ZM36.6732 15.3238C36.5843 15.3228 36.4962 15.3395 36.4139 15.373C36.3316 15.4065 36.2568 15.4562 36.194 15.519C36.1311 15.5819 36.0815 15.6567 36.048 15.7389C36.0144 15.8212 35.9977 15.9094 35.9987 15.9982V17.9956H34.0014C33.9135 17.9952 33.8264 18.0121 33.7451 18.0454C33.6637 18.0787 33.5898 18.1279 33.5275 18.1899C33.4652 18.2519 33.4158 18.3256 33.382 18.4067C33.3483 18.4879 33.3309 18.5749 33.3309 18.6628C33.3309 18.7507 33.3483 18.8378 33.382 18.919C33.4158 19.0001 33.4652 19.0738 33.5275 19.1358C33.5898 19.1978 33.6637 19.2469 33.7451 19.2803C33.8264 19.3136 33.9135 19.3305 34.0014 19.3301H36.6628C36.8396 19.3308 37.0094 19.2613 37.1349 19.1367C37.2604 19.0122 37.3313 18.8429 37.332 18.6662V15.9982C37.3341 15.8214 37.2658 15.6511 37.1423 15.5246C37.0187 15.3981 36.85 15.3259 36.6732 15.3238ZM3.32539 15.3251C3.14859 15.3272 2.97986 15.3994 2.85631 15.5259C2.73276 15.6524 2.66451 15.8227 2.66657 15.9995V18.6674C2.66727 18.8442 2.73818 19.0135 2.86368 19.138C2.98919 19.2626 3.15902 19.3321 3.33582 19.3314H5.99717C6.17363 19.3306 6.3426 19.26 6.4671 19.135C6.5916 19.0099 6.66149 18.8406 6.66149 18.6642C6.66149 18.4877 6.5916 18.3184 6.4671 18.1933C6.3426 18.0683 6.17363 17.9977 5.99717 17.9969H3.99986V15.9995C4.0009 15.9107 3.98416 15.8225 3.95063 15.7402C3.9171 15.6579 3.86746 15.5831 3.80462 15.5203C3.74178 15.4574 3.66702 15.4079 3.58472 15.3743C3.50242 15.3408 3.41425 15.3241 3.32539 15.3251ZM27.3206 19.9903C27.1445 19.9934 26.9768 20.0661 26.8541 20.1925C26.7314 20.3188 26.6637 20.4886 26.6657 20.6647V24.6659H25.3324C25.1583 24.6698 24.9926 24.7418 24.8708 24.8664C24.749 24.991 24.6808 25.1583 24.6808 25.3325C24.6808 25.5068 24.749 25.6741 24.8708 25.7987C24.9926 25.9232 25.1583 25.9952 25.3324 25.9992H27.3298C27.5066 25.9999 27.6764 25.9303 27.8019 25.8057C27.9274 25.6812 27.9983 25.512 27.999 25.3351V20.6647C28.0001 20.5755 27.9832 20.4871 27.9494 20.4045C27.9157 20.322 27.8657 20.247 27.8024 20.1841C27.7392 20.1212 27.6639 20.0717 27.5812 20.0384C27.4984 20.0051 27.4098 19.9887 27.3206 19.9903ZM19.998 25.9992H21.3326C22.0828 25.9992 22.6659 26.5823 22.6659 27.3325C22.6659 28.0787 22.0947 28.5945 21.2831 28.6658H19.998V25.9992Z" fill="black"/>
</svg>
