<svg width="24" height="24" viewBox="0 0 24 24" fill="none" xmlns="http://www.w3.org/2000/svg">
<g clip-path="url(#clip0_519_7611)">
<path d="M11.5 5.29998V3.19998C11.5 2.27498 12.5 2.27498 12.5 3.19998V5.29998C12.5 6.22498 11.5 6.22498 11.5 5.29998Z" fill="#FFDE76"/>
<path d="M21.5 4.5C20.89 4.5 21 5.385 21 2.5C21 2.36739 21.0527 2.24021 21.1465 2.14645C21.2402 2.05268 21.3674 2 21.5 2C21.6326 2 21.7598 2.05268 21.8536 2.14645C21.9473 2.24021 22 2.36739 22 2.5C22 5.385 22.11 4.5 21.5 4.5Z" fill="#FFDE76"/>
<path d="M2.50001 4.5C1.89001 4.5 2.00001 5.385 2.00001 2.5C2.00001 2.36739 2.05269 2.24021 2.14645 2.14645C2.24022 2.05268 2.3674 2 2.50001 2C2.63262 2 2.75979 2.05268 2.85356 2.14645C2.94733 2.24021 3.00001 2.36739 3.00001 2.5C3.00001 5.385 3.11001 4.5 2.50001 4.5Z" fill="#FFDE76"/>
<path d="M4 13.5H20V15.5H4V13.5Z" fill="#9DCC6B"/>
<path d="M20 13.5V14.5H6C5.73478 14.5 5.48043 14.3946 5.29289 14.2071C5.10536 14.0196 5 13.7652 5 13.5H20Z" fill="#B5E08C"/>
<path d="M4 15.5H20V23.5H4V15.5Z" fill="#DAD7E5"/>
<path d="M20 15.5V22.5H7C6.46957 22.5 5.96086 22.2893 5.58579 21.9142C5.21071 21.5391 5 21.0304 5 20.5V15.5H20Z" fill="#EDEBF2"/>
<path d="M6 11.5H18V13.5H6V11.5Z" fill="#DAD7E5"/>
<path d="M18 11.5V12.5H8C7.73478 12.5 7.48043 12.3946 7.29289 12.2071C7.10536 12.0196 7 11.7652 7 11.5H18Z" fill="#EDEBF2"/>
<path d="M1 8.5H4V23.5H1V8.5Z" fill="#DAD7E5"/>
<path d="M4 8.5C4 23.065 3.95 22.5 4 22.5C3.46957 22.5 2.96086 22.2893 2.58579 21.9142C2.21071 21.5391 2 21.0304 2 20.5V8.5H4Z" fill="#EDEBF2"/>
<path d="M0.5 6.5H4.5V8.5H0.5V6.5Z" fill="#9DCC6B"/>
<path d="M4.5 6.5V7.5H2.5C2.23478 7.5 1.98043 7.39464 1.79289 7.20711C1.60536 7.01957 1.5 6.76522 1.5 6.5H4.5Z" fill="#B5E08C"/>
<path d="M4 6.50005H1L1.815 4.46505C1.8706 4.32902 1.96543 4.21262 2.08743 4.13069C2.20942 4.04876 2.35305 4.005 2.5 4.005C2.64695 4.005 2.79058 4.04876 2.91257 4.13069C3.03457 4.21262 3.1294 4.32902 3.185 4.46505C3.905 6.27005 3.735 5.83505 4 6.50005Z" fill="#FFCC66"/>
<path d="M3.8 6.00002C2.525 6.00002 1.92 4.95502 2.3 4.03502C2.47594 3.9818 2.66542 3.99644 2.83109 4.07604C2.99677 4.15563 3.1266 4.29442 3.195 4.46502L3.8 6.00002Z" fill="#FFDE76"/>
<path d="M20 6.5H23L22.185 4.465C22.1313 4.32699 22.0372 4.20841 21.915 4.1248C21.7927 4.04119 21.6481 3.99646 21.5 3.99646C21.3519 3.99646 21.2073 4.04119 21.085 4.1248C20.9628 4.20841 20.8687 4.32699 20.815 4.465L20 6.5Z" fill="#FFCC66"/>
<path d="M23 23.5H20V8.5H23V23.5Z" fill="#DAD7E5"/>
<path d="M23.5 8.5H19.5V6.5H23.5V8.5Z" fill="#9DCC6B"/>
<path d="M17.5 9.835C17.5075 10.1586 17.4363 10.4791 17.2926 10.7691C17.1489 11.0591 16.937 11.3099 16.675 11.5H7.32501C7.06304 11.3099 6.85111 11.0591 6.70741 10.7691C6.56371 10.4791 6.49254 10.1586 6.50001 9.835C6.50001 7.415 9.84001 5.635 12 5C12 5 17.5 6.635 17.5 9.835Z" fill="#FFCC66"/>
<path d="M17.4 10.5H8.715C6.585 10.5 7.055 6.455 12 5C14.58 5.765 18.21 7.945 17.4 10.5Z" fill="#FFDE76"/>
<path d="M13.41 2.49997C13.3264 2.7398 13.1834 2.95449 12.9942 3.12391C12.805 3.29333 12.5758 3.41194 12.3283 3.46862C12.0807 3.52531 11.8228 3.5182 11.5787 3.44797C11.3347 3.37775 11.1124 3.2467 10.9328 3.06712C10.7533 2.88753 10.6222 2.66529 10.552 2.42123C10.4818 2.17716 10.4747 1.91925 10.5313 1.67169C10.588 1.42413 10.7066 1.19501 10.876 1.00581C11.0455 0.816607 11.2602 0.673523 11.5 0.589966C11.522 1.08945 11.7303 1.56258 12.0838 1.91612C12.4374 2.26965 12.9105 2.47795 13.41 2.49997Z" fill="#FFCC66"/>
<path d="M13.41 2.49997C13.3773 2.59874 13.3319 2.69285 13.275 2.77997C12.9889 2.9458 12.6561 3.01246 12.3282 2.96959C12.0004 2.92672 11.6959 2.77672 11.462 2.54291C11.2282 2.3091 11.0782 2.00459 11.0354 1.67673C10.9925 1.34887 11.0592 1.01603 11.225 0.729966C11.3103 0.671706 11.4027 0.624654 11.5 0.589966C11.522 1.08945 11.7303 1.56258 12.0838 1.91612C12.4374 2.26965 12.9105 2.47795 13.41 2.49997Z" fill="#FFDE76"/>
<path d="M14 20.06V23.5H10V20.06C10.0003 19.4714 10.1972 18.8998 10.5596 18.4359C10.922 17.9721 11.429 17.6427 12 17.5C12.5715 17.6419 13.0789 17.9711 13.4414 18.4351C13.8039 18.8991 14.0006 19.4712 14 20.06Z" fill="#7C7D7D"/>
<path d="M14 20.06V22.5H13C12.4696 22.5 11.9608 22.2893 11.5858 21.9142C11.2107 21.5391 11 21.0304 11 20.5C11 19.065 10.915 18.5 11.345 17.765C11.5497 17.6461 11.7702 17.5569 12 17.5C12.5715 17.6419 13.0789 17.9711 13.4414 18.4351C13.8039 18.8991 14.0006 19.4712 14 20.06Z" fill="#919191"/>
<path d="M7.99999 21H5.99999C5.99999 19.655 5.79999 18.645 6.99999 18C8.19499 18.595 7.99999 19.745 7.99999 21Z" fill="#9FDBF3"/>
<path d="M8.00001 20.5C6.59001 20.5 6.12501 19.115 6.81001 18.11L7.08501 18.045C8.14501 18.645 8.00001 19.7 8.00001 20.5Z" fill="#B2E5FB"/>
<path d="M16 21H18C18 19.725 18.195 18.595 17 18C15.8 18.6 16 19.74 16 21Z" fill="#9FDBF3"/>
<path d="M18 20.5C16.59 20.5 16.125 19.115 16.81 18.11L17.085 18.045C18.145 18.645 18 19.7 18 20.5Z" fill="#B2E5FB"/>
<path d="M23 8.5C23 23.065 22.95 22.5 23 22.5C22.4696 22.5 21.9609 22.2893 21.5858 21.9142C21.2107 21.5391 21 21.0304 21 20.5V8.5H23Z" fill="#EDEBF2"/>
<path d="M23.5 6.5V7.5H21.5C21.2348 7.5 20.9804 7.39464 20.7929 7.20711C20.6054 7.01957 20.5 6.76522 20.5 6.5H23.5Z" fill="#B5E08C"/>
<path d="M22.8 6.00002C21.525 6.00002 20.92 4.95502 21.3 4.03502C21.4759 3.9818 21.6654 3.99644 21.8311 4.07604C21.9968 4.15563 22.1266 4.29442 22.195 4.46502L22.8 6.00002Z" fill="#FFDE76"/>
<path d="M23.5 6.00001C23.275 6.00001 23.44 6.25501 22.65 4.28001C22.5295 3.97894 22.2963 3.73677 22 3.60501V2.50001C22 2.3674 21.9473 2.24022 21.8536 2.14646C21.7598 2.05269 21.6326 2.00001 21.5 2.00001C21.3674 2.00001 21.2402 2.05269 21.1464 2.14646C21.0527 2.24022 21 2.3674 21 2.50001V3.60501C20.7037 3.73677 20.4705 3.97894 20.35 4.28001C19.56 6.25501 19.725 6.00001 19.5 6.00001C19.3674 6.00001 19.2402 6.05269 19.1464 6.14646C19.0527 6.24022 19 6.3674 19 6.50001V8.50001C19 8.63262 19.0527 8.75979 19.1464 8.85356C19.2402 8.94733 19.3674 9.00001 19.5 9.00001V13H18.5V11.5C18.5 11.3674 18.4473 11.2402 18.3536 11.1465C18.2598 11.0527 18.1326 11 18 11C17.415 11 18 11.12 18 9.83501C18 6.77501 13.78 5.08001 12.5 4.64001V3.93001C13.805 3.59001 14.365 2.03501 13.43 1.99501C13.0571 1.97803 12.7038 1.8226 12.4394 1.55908C12.175 1.29555 12.0183 0.94289 12 0.570008C11.96 -0.464991 10 0.350008 10 2.00001C10.0014 2.44229 10.1494 2.87162 10.4208 3.22083C10.6923 3.57004 11.0718 3.81944 11.5 3.93001V4.64001C10.22 5.08001 6 6.77501 6 9.83501C6 11.13 6.59 11 6 11C5.86739 11 5.74021 11.0527 5.64645 11.1465C5.55268 11.2402 5.5 11.3674 5.5 11.5V13H4.5V9.00001C4.63261 9.00001 4.75979 8.94733 4.85355 8.85356C4.94732 8.75979 5 8.63262 5 8.50001V6.50001C5 6.3674 4.94732 6.24022 4.85355 6.14646C4.75979 6.05269 4.63261 6.00001 4.5 6.00001C4.275 6.00001 4.44 6.25501 3.65 4.28001C3.52951 3.97894 3.29631 3.73677 3 3.60501V2.50001C3 2.3674 2.94732 2.24022 2.85355 2.14646C2.75979 2.05269 2.63261 2.00001 2.5 2.00001C2.36739 2.00001 2.24021 2.05269 2.14645 2.14646C2.05268 2.24022 2 2.3674 2 2.50001V3.60501C1.70369 3.73677 1.47049 3.97894 1.35 4.28001C0.56 6.25501 0.725 6.00001 0.5 6.00001C0.367392 6.00001 0.240215 6.05269 0.146447 6.14646C0.0526784 6.24022 0 6.3674 0 6.50001L0 8.50001C0 8.63262 0.0526784 8.75979 0.146447 8.85356C0.240215 8.94733 0.367392 9.00001 0.5 9.00001V23.5C0.5 23.6326 0.552678 23.7598 0.646447 23.8536C0.740215 23.9473 0.867392 24 1 24H23C23.1326 24 23.2598 23.9473 23.3536 23.8536C23.4473 23.7598 23.5 23.6326 23.5 23.5V9.00001C23.6326 9.00001 23.7598 8.94733 23.8536 8.85356C23.9473 8.75979 24 8.63262 24 8.50001V6.50001C24 6.3674 23.9473 6.24022 23.8536 6.14646C23.7598 6.05269 23.6326 6.00001 23.5 6.00001ZM20 7.00001H23V8.00001H20V7.00001ZM21.28 4.65001C21.3002 4.60885 21.3315 4.57418 21.3704 4.54993C21.4093 4.52568 21.4542 4.51283 21.5 4.51283C21.5458 4.51283 21.5907 4.52568 21.6296 4.54993C21.6685 4.57418 21.6998 4.60885 21.72 4.65001L22.26 6.00001H20.76L21.28 4.65001ZM11.18 1.43001C11.3042 1.7445 11.4917 2.03015 11.7308 2.26924C11.9699 2.50834 12.2555 2.6958 12.57 2.82001C12.3775 2.95173 12.145 3.01201 11.9128 2.99043C11.6805 2.96885 11.4631 2.86676 11.2982 2.70183C11.1332 2.53689 11.0312 2.31949 11.0096 2.08724C10.988 1.855 11.0483 1.62251 11.18 1.43001ZM12 5.52501C12.83 5.80001 17 7.31001 17 9.83501C17.0068 10.0539 16.9655 10.2717 16.8791 10.4729C16.7927 10.6742 16.6633 10.8541 16.5 11H7.5C6.075 9.70501 7.54 7.00001 12 5.52501ZM6.5 12H17.5V13H6.5V12ZM19.5 14V15H4.5V14H19.5ZM1 7.00001H4V8.00001H1V7.00001ZM2.28 4.65001C2.30017 4.60885 2.33148 4.57418 2.37037 4.54993C2.40926 4.52568 2.45417 4.51283 2.5 4.51283C2.54583 4.51283 2.59074 4.52568 2.62963 4.54993C2.66852 4.57418 2.69983 4.60885 2.72 4.65001L3.26 6.00001H1.76L2.28 4.65001ZM1.5 9.00001H3.5V23H1.5V9.00001ZM4.5 16H19.5V23H14.5V20.06C14.5 17.98 12.5 16.86 11.88 17.015C11.2006 17.1845 10.5973 17.5762 10.166 18.128C9.7348 18.6797 9.50037 19.3597 9.5 20.06V23H4.5V16ZM10.5 23V20.06C10.4946 19.6008 10.6377 19.1522 10.908 18.781C11.1783 18.4097 11.5613 18.1358 12 18C12.4354 18.1348 12.816 18.4057 13.086 18.7729C13.356 19.1401 13.5011 19.5842 13.5 20.04V23H10.5ZM22.5 23H20.5V9.00001H22.5V23Z" fill="black"/>
<path d="M7.225 17.555C6.725 17.315 5.5 18.22 5.5 19.62V21C5.5 21.1326 5.55268 21.2598 5.64645 21.3535C5.74021 21.4473 5.86739 21.5 6 21.5H8C8.13261 21.5 8.25979 21.4473 8.35355 21.3535C8.44732 21.2598 8.5 21.1326 8.5 21C8.5 19.66 8.7 18.29 7.225 17.555ZM7.5 20.5H6.5C6.5 19.71 6.385 19.065 7 18.59C7.61 19.065 7.5 19.68 7.5 20.5Z" fill="black"/>
<path d="M16 21.5H18C18.1326 21.5 18.2598 21.4473 18.3536 21.3535C18.4473 21.2598 18.5 21.1326 18.5 21C18.5 19.66 18.7 18.29 17.225 17.555C16.725 17.315 15.5 18.22 15.5 19.62V21C15.5 21.1326 15.5527 21.2598 15.6464 21.3535C15.7402 21.4473 15.8674 21.5 16 21.5ZM17 18.59C17.61 19.09 17.5 19.68 17.5 20.5H16.5C16.5 19.71 16.385 19.065 17 18.59Z" fill="black"/>
</g>
<defs>
<clipPath id="clip0_519_7611">
<rect width="24" height="24" fill="white"/>
</clipPath>
</defs>
</svg>
