<svg width="45" height="40" viewBox="0 0 45 40" fill="none" xmlns="http://www.w3.org/2000/svg">
<path fill-rule="evenodd" clip-rule="evenodd" d="M29.9846 24.1138C30.2164 23.8528 30.3868 23.5433 30.4834 23.2078C30.58 22.8724 30.6003 22.5196 30.5428 22.1753L30.2587 20.2967C29.7577 16.9928 27.5229 14.2222 24.1817 14.2222H20.8256C17.4843 14.2222 15.2493 16.9928 14.751 20.2967L14.467 22.1753C14.4095 22.5196 14.4298 22.8724 14.5264 23.2078C14.6229 23.5433 14.7933 23.8528 15.0251 24.1138C16.8113 26.1943 28.3075 26.0652 29.9846 24.1138Z" fill="#FB4455"/>
<path fill-rule="evenodd" clip-rule="evenodd" d="M43.803 28.5163C44.0346 28.2552 44.2049 27.9456 44.3014 27.6102C44.398 27.2749 44.4184 26.9221 44.3611 26.5779L44.0771 24.6991C43.576 21.3953 41.3413 18.6221 38 18.6221H34.6438C31.3026 18.6221 29.0676 21.3953 28.5693 24.6991L28.2852 26.5779C28.2279 26.9221 28.2483 27.2749 28.3448 27.6103C28.4414 27.9456 28.6117 28.2552 28.8433 28.5163C30.6323 30.5968 42.1261 30.4676 43.803 28.5163Z" fill="#69A7FF"/>
<path fill-rule="evenodd" clip-rule="evenodd" d="M16.6094 20.2967C17.1077 16.9928 19.3431 14.2222 22.6839 14.2222H20.8256C17.4843 14.2222 15.2493 16.9928 14.751 20.2967L14.467 22.1753C14.4095 22.5196 14.4298 22.8724 14.5264 23.2078C14.6229 23.5433 14.7933 23.8528 15.0251 24.1138C15.9869 25.2351 19.7716 25.716 23.3197 25.6138C20.397 25.5291 17.6786 25.0407 16.8813 24.1138C16.6501 23.8525 16.48 23.5429 16.3835 23.2076C16.2869 22.8722 16.2664 22.5196 16.3232 22.1753L16.6094 20.2967Z" fill="#E82E41"/>
<path fill-rule="evenodd" clip-rule="evenodd" d="M30.428 24.6991C30.9263 21.3953 33.1616 18.6221 36.5026 18.6221H34.6438C31.3026 18.6221 29.0676 21.3953 28.5693 24.6991L28.2852 26.5779C28.2279 26.9221 28.2483 27.2749 28.3448 27.6103C28.4414 27.9456 28.6117 28.2552 28.8433 28.5163C29.8076 29.6375 33.5899 30.116 37.1379 30.0137C34.2153 29.9315 31.4969 29.4432 30.6996 28.5163C30.4683 28.255 30.2984 27.9454 30.2023 27.61C30.1061 27.2746 30.0862 26.922 30.1439 26.5779L30.428 24.6991Z" fill="#4C8FED"/>
<path fill-rule="evenodd" clip-rule="evenodd" d="M40.5411 14.4387C40.5377 15.5476 40.0956 16.6101 39.3112 17.394C38.5269 18.1778 37.4641 18.6194 36.3552 18.622H36.2879C35.1794 18.6188 34.1172 18.1771 33.3333 17.3932C32.5495 16.6094 32.1077 15.5472 32.1045 14.4387V7.23291H40.5411V14.4387Z" fill="#FABA7B"/>
<path d="M32.1045 7.23291H40.5411V11.8922H32.1045V7.23291Z" fill="#4D6C8F"/>
<path fill-rule="evenodd" clip-rule="evenodd" d="M36.3231 5.01807L42.9309 7.34272L36.3231 9.66738L29.7129 7.34272L36.3231 5.01807Z" fill="#3B5C82"/>
<path fill-rule="evenodd" clip-rule="evenodd" d="M26.7226 10.0362C26.7194 11.1454 26.2773 12.2082 25.493 12.9926C24.7087 13.7769 23.6459 14.219 22.5367 14.2222H22.469C21.3602 14.2184 20.298 13.7761 19.5142 12.9918C18.7304 12.2075 18.2887 11.145 18.2856 10.0362V2.83301H26.7222V10.0362H26.7226Z" fill="#FABA7B"/>
<path d="M18.2861 2.83301H26.7227V7.49234H18.2861V2.83301Z" fill="#4D6C8F"/>
<path fill-rule="evenodd" clip-rule="evenodd" d="M22.5043 0.615234L29.1121 2.93989L22.5043 5.26709L15.894 2.93989L22.5043 0.615234Z" fill="#3B5C82"/>
<path fill-rule="evenodd" clip-rule="evenodd" d="M16.1658 28.5163C16.3974 28.2552 16.5677 27.9456 16.6642 27.6102C16.7608 27.2749 16.7812 26.9221 16.7239 26.5779L16.4399 24.6991C15.9388 21.3953 13.7041 18.6221 10.3628 18.6221H7.00657C3.66537 18.6221 1.43037 21.3953 0.932074 24.6991L0.647986 26.5779C0.590254 26.9219 0.610183 27.2746 0.706315 27.61C0.802448 27.9454 0.972351 28.255 1.20359 28.5163C2.99259 30.5968 14.4889 30.4676 16.1658 28.5163Z" fill="#2EB851"/>
<path fill-rule="evenodd" clip-rule="evenodd" d="M12.904 14.4387C12.9006 15.5476 12.4585 16.6101 11.6741 17.394C10.8897 18.1778 9.82697 18.6194 8.71806 18.622H8.65126C7.54251 18.6194 6.47992 18.1778 5.69586 17.3939C4.9118 16.6099 4.47007 15.5474 4.46729 14.4387V7.23291H12.9039L12.904 14.4387Z" fill="#FABA7B"/>
<path d="M4.46777 7.23291H12.9044V11.8922H4.46777V7.23291Z" fill="#4D6C8F"/>
<path fill-rule="evenodd" clip-rule="evenodd" d="M8.68592 5.01807L15.2937 7.34272L8.68592 9.66738L2.07568 7.34272L8.68592 5.01807Z" fill="#3B5C82"/>
<path fill-rule="evenodd" clip-rule="evenodd" d="M22.5043 39.3846C27.5872 39.3846 31.7308 35.2386 31.7308 30.1557C31.7264 27.71 30.753 25.3657 29.0236 23.6363C27.2943 21.907 24.95 20.9335 22.5043 20.9292C17.4214 20.9292 13.2754 25.0727 13.2754 30.1557C13.2802 32.6019 14.254 34.9465 15.9837 36.6762C17.7135 38.4059 20.0581 39.3798 22.5043 39.3846Z" fill="#D5E3F2"/>
<path fill-rule="evenodd" clip-rule="evenodd" d="M16.8833 26.8072C18.7569 25.8279 20.6307 25.8528 22.5043 26.8072C24.3781 25.8528 26.2493 25.8279 28.123 26.8072V34.2321C26.2493 33.2504 24.3781 33.2778 22.5043 34.2321C20.6307 33.2778 18.7569 33.2504 16.8833 34.2321V26.8072Z" fill="#FFAB02"/>
<path fill-rule="evenodd" clip-rule="evenodd" d="M2.78867 24.6991C3.28969 21.3953 5.52443 18.6221 8.86572 18.6221H7.00657C3.66537 18.6221 1.43037 21.3953 0.932074 24.6991L0.647986 26.5779C0.590254 26.9219 0.610183 27.2746 0.706315 27.61C0.802448 27.9454 0.972351 28.255 1.20359 28.5163C2.16784 29.6375 5.95267 30.116 9.49823 30.0137C6.57807 29.9315 3.85971 29.4432 3.06239 28.5163C2.8313 28.2549 2.66131 27.9453 2.56477 27.61C2.46822 27.2747 2.44754 26.9221 2.50423 26.5779L2.78867 24.6991Z" fill="#1CA63E"/>
<path fill-rule="evenodd" clip-rule="evenodd" d="M5.44164 14.439V11.8926H4.46729V14.439C4.47007 15.5477 4.9118 16.6103 5.69586 17.3942C6.47992 18.1782 7.54251 18.6197 8.65126 18.6224H8.7185C8.87002 18.623 9.02143 18.6147 9.17197 18.5975C8.1484 18.4826 7.20279 17.9954 6.51505 17.2286C5.82731 16.4618 5.44544 15.469 5.44208 14.439H5.44164Z" fill="#F5AD65"/>
<path fill-rule="evenodd" clip-rule="evenodd" d="M19.2603 10.0361V7.49219H18.2861V10.0361C18.2892 11.1448 18.7308 12.2073 19.5145 12.9916C20.2982 13.7759 21.3604 14.2183 22.4691 14.2221H22.5365C22.688 14.2215 22.8393 14.2132 22.9899 14.1972C21.9663 14.0813 21.0208 13.5935 20.3332 12.8264C19.6456 12.0593 19.2636 11.0663 19.26 10.0361H19.2603Z" fill="#F5AD65"/>
<path fill-rule="evenodd" clip-rule="evenodd" d="M33.0784 14.439V11.8926H32.1045V14.439C32.1077 15.5475 32.5495 16.6097 33.3333 17.3936C34.1172 18.1774 35.1794 18.6192 36.2879 18.6224H36.3552C36.5067 18.623 36.6581 18.6147 36.8087 18.5975C35.7851 18.4826 34.8395 17.9954 34.1517 17.2286C33.464 16.4618 33.0821 15.469 33.0788 14.439H33.0784Z" fill="#F5AD65"/>
<path fill-rule="evenodd" clip-rule="evenodd" d="M14.5735 29.3461C14.713 27.7226 15.2833 26.1658 16.2254 24.8362C16.2878 24.7466 16.3525 24.6594 16.4198 24.5725C16.5516 24.3956 16.6914 24.2262 16.8359 24.0618C18.4417 22.2327 20.7064 21.114 23.1347 20.9501C22.9254 20.9377 22.7161 20.9302 22.5043 20.9302C20.2526 20.9265 18.0778 21.7492 16.3924 23.2424C16.3152 23.3122 16.2379 23.3819 16.1607 23.4542C15.8564 23.7414 15.5725 24.0495 15.311 24.3761C14.1001 25.8775 13.3931 27.7222 13.2903 29.6483C13.2804 29.8178 13.2754 29.9872 13.2754 30.1566C13.2753 31.3686 13.514 32.5686 13.9778 33.6883C14.4416 34.808 15.1214 35.8253 15.9784 36.6823C16.8354 37.5392 17.8528 38.2189 18.9725 38.6826C20.0922 39.1463 21.2923 39.3849 22.5042 39.3848C22.7161 39.3848 22.9253 39.3773 23.1346 39.3649C20.8016 39.2042 18.6165 38.1642 17.0205 36.4549C15.4246 34.7456 14.5367 32.4944 14.5361 30.1559C14.5361 29.8842 14.5486 29.6127 14.5735 29.3461Z" fill="#B7CFE8"/>
<path d="M44.9693 26.4863L44.6853 24.6074C44.4128 22.8119 43.6555 21.176 42.5521 20.0015C41.7065 19.0803 40.6008 18.4381 39.3816 18.1601C39.936 17.7111 40.383 17.144 40.6901 16.5001C40.9971 15.8562 41.1564 15.1518 41.1564 14.4385V8.61767L42.1032 8.28453V9.69416C42.1032 9.85707 42.168 10.0133 42.2831 10.1285C42.3983 10.2437 42.5546 10.3084 42.7175 10.3084C42.8804 10.3084 43.0366 10.2437 43.1518 10.1285C43.267 10.0133 43.3317 9.85707 43.3317 9.69416V7.80584C43.4135 7.73584 43.4754 7.64552 43.5112 7.54397C43.5469 7.44243 43.5553 7.33325 43.5354 7.22745C43.5155 7.12165 43.4681 7.02295 43.3979 6.94132C43.3277 6.85969 43.2372 6.79801 43.1356 6.76248L36.5275 4.43765C36.3955 4.39132 36.2518 4.39132 36.1198 4.43765L29.5092 6.76248C29.3892 6.80469 29.2853 6.8831 29.2118 6.98689C29.1383 7.09067 29.0988 7.21472 29.0988 7.34191C29.0988 7.46909 29.1383 7.59314 29.2118 7.69693C29.2853 7.80072 29.3892 7.87913 29.5092 7.92134L31.4909 8.6182V14.4385C31.4909 15.1518 31.6502 15.8561 31.9571 16.5C32.2641 17.1439 32.711 17.7111 33.2651 18.1602C32.3271 18.373 31.4525 18.8037 30.712 19.4176C30.3604 17.9346 29.6726 16.5995 28.7329 15.5994C27.887 14.6786 26.7811 14.0368 25.562 13.7592C26.1165 13.3099 26.5637 12.7424 26.8709 12.0982C27.1781 11.4539 27.3375 10.7492 27.3375 10.0355V4.21544L28.2843 3.88204V5.29123C28.2843 5.45414 28.3491 5.61037 28.4643 5.72556C28.5794 5.84076 28.7357 5.90547 28.8986 5.90547C29.0615 5.90547 29.2177 5.84076 29.3329 5.72556C29.4481 5.61037 29.5128 5.45414 29.5128 5.29123V3.40291C29.5946 3.33291 29.6565 3.24259 29.6923 3.14104C29.728 3.0395 29.7364 2.93032 29.7165 2.82452C29.6966 2.71872 29.6492 2.62003 29.579 2.53839C29.5088 2.45676 29.4183 2.39508 29.3167 2.35955L22.7082 0.0348084C22.5763 -0.0116028 22.4325 -0.0116028 22.3006 0.0348084L15.69 2.35955C15.57 2.40178 15.4661 2.48019 15.3926 2.58397C15.3192 2.68774 15.2797 2.81177 15.2797 2.93894C15.2797 3.0661 15.3192 3.19013 15.3926 3.2939C15.4661 3.39768 15.57 3.47609 15.69 3.51832L17.6719 4.21606V10.0355C17.6717 10.749 17.8309 11.4536 18.1377 12.0978C18.4445 12.7421 18.8913 13.3097 19.4454 13.7592C18.2258 14.0366 17.1195 14.6786 16.2735 15.5998C15.3339 16.6001 14.6469 17.9352 14.2958 19.4179C13.5549 18.8038 12.6796 18.3729 11.7409 18.1603C12.2951 17.7112 12.7419 17.144 13.0489 16.5002C13.3558 15.8564 13.515 15.1521 13.515 14.4388V8.61855L14.4643 8.28453V9.69416C14.4633 9.77544 14.4785 9.8561 14.5089 9.93147C14.5394 10.0068 14.5845 10.0754 14.6416 10.1332C14.6987 10.1911 14.7667 10.237 14.8417 10.2683C14.9167 10.2996 14.9972 10.3157 15.0785 10.3157C15.1598 10.3157 15.2403 10.2996 15.3153 10.2683C15.3903 10.237 15.4583 10.1911 15.5154 10.1332C15.5726 10.0754 15.6176 10.0068 15.6481 9.93147C15.6785 9.8561 15.6937 9.77544 15.6927 9.69416V7.80584C15.7745 7.73585 15.8364 7.64553 15.8722 7.54398C15.908 7.44243 15.9163 7.33325 15.8965 7.22743C15.8766 7.12162 15.8291 7.02292 15.7589 6.94129C15.6887 6.85966 15.5982 6.79798 15.4966 6.76248L8.88881 4.43765C8.7569 4.39134 8.61314 4.39134 8.48123 4.43765L1.87081 6.76248C1.75083 6.80469 1.64692 6.8831 1.5734 6.98689C1.49989 7.09067 1.46041 7.21472 1.46041 7.34191C1.46041 7.46909 1.49989 7.59314 1.5734 7.69693C1.64692 7.80072 1.75083 7.87913 1.87081 7.92134L3.85222 8.61828V14.4385C3.85223 15.1516 4.01145 15.8557 4.31826 16.4995C4.62507 17.1432 5.07174 17.7104 5.62567 18.1595C4.40624 18.4374 3.30023 19.0797 2.45463 20.0012C1.35107 21.1764 0.594348 22.8128 0.32362 24.6076L0.0395321 26.4861C-0.0318598 26.9177 -0.00632766 27.3598 0.114278 27.7803C0.234883 28.2008 0.447539 28.5892 0.736832 28.9173C1.66249 29.9936 4.21102 30.4017 6.18593 30.5544C6.95162 30.6137 7.75149 30.6423 8.55199 30.6423C9.9271 30.6472 11.3009 30.5569 12.6635 30.372C12.7195 32.9427 13.7792 35.3893 15.6159 37.1886C17.4527 38.9879 19.9206 39.997 22.4918 40C25.063 40.003 27.5333 38.9997 29.3743 37.2046C31.2152 35.4096 32.2806 32.9655 32.3425 30.395C33.648 30.5671 34.9636 30.6508 36.2804 30.6456C39.6852 30.6456 43.2302 30.1264 44.2697 28.9177C44.5594 28.5897 44.7724 28.2014 44.8934 27.7808C45.0144 27.3603 45.0403 26.9181 44.9693 26.4863ZM39.9279 11.2777H32.7193V9.05022L36.1198 10.2462C36.2518 10.2925 36.3955 10.2925 36.5275 10.2462L39.9279 9.04978V11.2777ZM36.3236 5.66823L41.081 7.34191L36.3236 9.01559L31.5644 7.34191L36.3236 5.66823ZM32.7197 14.4385V12.506H39.9284V14.4385C39.9269 15.3851 39.5501 16.2926 38.8804 16.9617C38.2108 17.6309 37.3031 18.0071 36.3564 18.0078H36.2892C35.3428 18.0069 34.4354 17.6305 33.7661 16.9614C33.0969 16.2922 32.7204 15.3849 32.7193 14.4385H32.7197ZM26.1092 6.87728H18.9005V4.64852L22.3008 5.84561C22.4328 5.89214 22.5768 5.89214 22.7088 5.84561L26.1091 4.64808L26.1092 6.87728ZM22.5043 1.2653L27.2626 2.93933L22.5043 4.61512L17.7443 2.93933L22.5043 1.2653ZM18.9005 10.0355V8.10566H26.1091V10.0355C26.108 10.9825 25.7314 11.8904 25.0617 12.56C24.3921 13.2297 23.4842 13.6063 22.5372 13.6074H22.4692C21.5226 13.6058 20.6153 13.2289 19.9463 12.5592C19.2773 11.8896 18.9012 10.982 18.9005 10.0355ZM15.3582 20.3881C15.775 17.6245 17.6273 14.8358 20.8254 14.8358H24.1818C27.3791 14.8358 29.233 17.6247 29.6519 20.3883L29.6679 20.4938C29.2151 21.0788 28.8446 21.723 28.5669 22.4086C26.8371 21.052 24.7023 20.3147 22.504 20.3147C20.3057 20.3147 18.1709 21.052 16.4412 22.4086C16.1639 21.7233 15.794 21.0792 15.3417 20.4944L15.3582 20.3881ZM12.287 11.2777H5.08087V9.05022L8.4814 10.2462C8.61332 10.2925 8.75707 10.2925 8.88899 10.2462L12.287 9.05075V11.2777ZM8.68515 5.66823L13.4425 7.34191L8.68515 9.01559L3.92597 7.34191L8.68515 5.66823ZM5.08131 14.4385V12.506H12.287V14.4385C12.2859 15.3848 11.9095 16.2921 11.2403 16.9612C10.5712 17.6303 9.6639 18.0067 8.71759 18.0078H8.65026C7.70394 18.0067 6.79669 17.6303 6.12753 16.9612C5.45838 16.2921 5.08196 15.3848 5.08087 14.4385H5.08131ZM1.66803 28.1162C1.49472 27.9218 1.3675 27.6908 1.29583 27.4404C1.22417 27.19 1.20991 26.9267 1.25412 26.67L1.5382 24.791C1.95528 22.0262 3.80757 19.2363 7.0055 19.2363H10.3618C13.0818 19.2363 14.7517 21.2704 15.4606 23.2893C13.9144 24.869 12.9468 26.9245 12.7147 29.1228C8.50206 29.7865 2.66691 29.2774 1.66803 28.1162ZM22.5043 38.7716C20.2202 38.769 18.0304 37.8605 16.4153 36.2454C14.8002 34.6303 13.8917 32.4405 13.8891 30.1563C13.8891 30.0079 13.8929 29.8604 13.9004 29.7139C13.9024 29.6951 13.9037 29.6763 13.904 29.6573C14.0017 27.9778 14.589 26.3637 15.5936 25.0141C16.5981 23.6646 17.9758 22.6388 19.5567 22.0632C21.1375 21.4877 22.8523 21.3877 24.4893 21.7755C26.1264 22.1634 27.614 23.0221 28.7686 24.2457C29.9232 25.4693 30.6943 27.0042 30.9866 28.661C31.2788 30.3178 31.0796 32.0239 30.4134 33.5687C29.7472 35.1135 28.6432 36.4295 27.2377 37.3541C25.8322 38.2787 24.1867 38.7715 22.5043 38.7716ZM43.338 28.1162C42.9932 28.5173 41.5884 29.0704 38.7643 29.3098C36.5815 29.4949 34.1551 29.4304 32.2938 29.1458C32.0662 26.939 31.0975 24.8745 29.5459 23.289C30.2567 21.2701 31.9272 19.2363 34.644 19.2363H38.0008C41.1978 19.2363 43.0518 22.0263 43.4709 24.7915L43.755 26.6705C43.7988 26.9273 43.784 27.1907 43.7118 27.441C43.6396 27.6913 43.5119 27.9221 43.3381 28.1162H43.338ZM22.5043 26.027C20.5068 25.1129 18.508 25.1656 16.5577 26.1846C16.4439 26.2441 16.3486 26.3335 16.2821 26.4433C16.2156 26.5531 16.1804 26.679 16.1804 26.8074V34.2328C16.1806 34.3536 16.2119 34.4724 16.2713 34.5775C16.3307 34.6827 16.4162 34.7709 16.5195 34.8334C16.6228 34.896 16.7406 34.9309 16.8613 34.9347C16.9821 34.9385 17.1017 34.9112 17.2089 34.8553C18.8571 33.9918 20.4849 33.9929 22.1852 34.859C22.2841 34.9093 22.3934 34.9356 22.5043 34.9356C22.6152 34.9356 22.7246 34.9093 22.8234 34.859C24.5214 33.9929 26.1484 33.9917 27.797 34.8555C27.904 34.9115 28.0238 34.9389 28.1446 34.9352C28.2654 34.9314 28.3831 34.8965 28.4865 34.834C28.5899 34.7714 28.6754 34.6832 28.7348 34.5779C28.7941 34.4726 28.8253 34.3538 28.8254 34.233V26.8074C28.8254 26.679 28.7902 26.5531 28.7237 26.4433C28.6572 26.3336 28.5619 26.2441 28.4481 26.1846C26.498 25.1653 24.4996 25.1126 22.5043 26.027ZM21.8018 33.1707C21.1179 32.9304 20.3985 32.8062 19.6736 32.8032C18.9624 32.8051 18.2566 32.9267 17.5858 33.1629V27.248C18.9834 26.6279 20.37 26.6313 21.8018 27.2541V33.1707ZM27.4207 33.1628C26.057 32.6809 24.5688 32.684 23.2071 33.1716V27.2538C24.6373 26.631 26.023 26.6278 27.4207 27.2479V33.1628Z" fill="black"/>
</svg>
