<svg width="38" height="40" viewBox="0 0 38 40" fill="none" xmlns="http://www.w3.org/2000/svg">
<path d="M17.9655 32.9427H3.17438C1.74477 32.9427 0.585938 31.7838 0.585938 30.3542V27.7656H20.4518L17.9655 32.9427Z" fill="#D3DCFB"/>
<path d="M34.2395 12.2346V23.1094V30.3544H3.17438C1.74477 30.3544 0.585938 29.1954 0.585938 27.7658V12.2346L18.707 5.76318L34.2395 12.2346Z" fill="#EBF5FC"/>
<path d="M5.13832 17.4113H3.79981C3.45465 17.4113 3.1748 17.1314 3.1748 16.7863V15.4478C3.1748 15.1026 3.45465 14.8228 3.79981 14.8228H5.13832C5.48348 14.8228 5.76332 15.1026 5.76332 15.4478V16.7863C5.76332 17.1314 5.48348 17.4113 5.13832 17.4113Z" fill="#3C58A0"/>
<path d="M10.3156 17.4113H8.97705C8.63189 17.4113 8.35205 17.1314 8.35205 16.7863V15.4478C8.35205 15.1026 8.63189 14.8228 8.97705 14.8228H10.3156C10.6607 14.8228 10.9406 15.1026 10.9406 15.4478V16.7863C10.9406 17.1314 10.6607 17.4113 10.3156 17.4113Z" fill="#3C58A0"/>
<path d="M15.4923 17.4113H14.1538C13.8087 17.4113 13.5288 17.1314 13.5288 16.7863V15.4478C13.5288 15.1026 13.8087 14.8228 14.1538 14.8228H15.4923C15.8375 14.8228 16.1173 15.1026 16.1173 15.4478V16.7863C16.1173 17.1314 15.8376 17.4113 15.4923 17.4113Z" fill="#3C58A0"/>
<path d="M20.6696 17.4113H19.3311C18.9859 17.4113 18.7061 17.1314 18.7061 16.7863V15.4478C18.7061 15.1026 18.9859 14.8228 19.3311 14.8228H20.6696C21.0147 14.8228 21.2946 15.1026 21.2946 15.4478V16.7863C21.2946 17.1314 21.0147 17.4113 20.6696 17.4113Z" fill="#3C58A0"/>
<path d="M25.8458 17.4113H24.5073C24.1622 17.4113 23.8823 17.1314 23.8823 16.7863V15.4478C23.8823 15.1026 24.1622 14.8228 24.5073 14.8228H25.8458C26.191 14.8228 26.4708 15.1026 26.4708 15.4478V16.7863C26.4708 17.1314 26.191 17.4113 25.8458 17.4113Z" fill="#3C58A0"/>
<path d="M31.0231 17.4113H29.6846C29.3394 17.4113 29.0596 17.1314 29.0596 16.7863V15.4478C29.0596 15.1026 29.3394 14.8228 29.6846 14.8228H31.0231C31.3682 14.8228 31.6481 15.1026 31.6481 15.4478V16.7863C31.6481 17.1314 31.3683 17.4113 31.0231 17.4113Z" fill="#3C58A0"/>
<path d="M5.13832 22.5885H3.79981C3.45465 22.5885 3.1748 22.3087 3.1748 21.9635V20.625C3.1748 20.2798 3.45465 20 3.79981 20H5.13832C5.48348 20 5.76332 20.2798 5.76332 20.625V21.9635C5.76332 22.3087 5.48348 22.5885 5.13832 22.5885Z" fill="#3C58A0"/>
<path d="M10.3156 22.5885H8.97705C8.63189 22.5885 8.35205 22.3087 8.35205 21.9635V20.625C8.35205 20.2798 8.63189 20 8.97705 20H10.3156C10.6607 20 10.9406 20.2798 10.9406 20.625V21.9635C10.9406 22.3087 10.6607 22.5885 10.3156 22.5885Z" fill="#3C58A0"/>
<path d="M15.4923 22.5885H14.1538C13.8087 22.5885 13.5288 22.3087 13.5288 21.9635V20.625C13.5288 20.2798 13.8087 20 14.1538 20H15.4923C15.8375 20 16.1173 20.2798 16.1173 20.625V21.9635C16.1173 22.3087 15.8376 22.5885 15.4923 22.5885Z" fill="#3C58A0"/>
<path d="M21.2946 22.5885V20.6471C21.2946 20.2897 21.0048 20 20.6475 20H19.3532C18.9957 20 18.7061 20.2898 18.7061 20.6471V21.9414C18.7061 22.2988 18.9958 22.5885 19.3532 22.5885H21.2946Z" fill="#3C58A0"/>
<path d="M5.13832 27.7653H3.79981C3.45465 27.7653 3.1748 27.4854 3.1748 27.1403V25.8018C3.1748 25.4566 3.45465 25.1768 3.79981 25.1768H5.13832C5.48348 25.1768 5.76332 25.4566 5.76332 25.8018V27.1403C5.76332 27.4854 5.48348 27.7653 5.13832 27.7653Z" fill="#3C58A0"/>
<path d="M10.3156 27.7653H8.97705C8.63189 27.7653 8.35205 27.4854 8.35205 27.1403V25.8018C8.35205 25.4566 8.63189 25.1768 8.97705 25.1768H10.3156C10.6607 25.1768 10.9406 25.4566 10.9406 25.8018V27.1403C10.9406 27.4854 10.6607 27.7653 10.3156 27.7653Z" fill="#3C58A0"/>
<path d="M15.4923 27.7653H14.1538C13.8087 27.7653 13.5288 27.4854 13.5288 27.1403V25.8018C13.5288 25.4566 13.8087 25.1768 14.1538 25.1768H15.4923C15.8375 25.1768 16.1173 25.4566 16.1173 25.8018V27.1403C16.1173 27.4854 15.8376 27.7653 15.4923 27.7653Z" fill="#3C58A0"/>
<path d="M31.0232 14.8228H29.6847C29.6037 14.8228 29.5266 14.8387 29.4556 14.8667C29.6872 14.9582 29.8514 15.1836 29.8514 15.4478V16.7863C29.8514 17.0506 29.6873 17.276 29.4556 17.3674C29.5266 17.3954 29.6038 17.4113 29.6847 17.4113H31.0232C31.3684 17.4113 31.6482 17.1315 31.6482 16.7863V15.4478C31.6482 15.1026 31.3685 14.8228 31.0232 14.8228Z" fill="#2A428C"/>
<path d="M25.8465 14.8228H24.508C24.4269 14.8228 24.3498 14.8387 24.2788 14.8667C24.5104 14.9582 24.6747 15.1836 24.6747 15.4478V16.7863C24.6747 17.0506 24.5105 17.276 24.2788 17.3674C24.3498 17.3954 24.4269 17.4113 24.508 17.4113H25.8465C26.1916 17.4113 26.4715 17.1315 26.4715 16.7863V15.4478C26.4715 15.1026 26.1916 14.8228 25.8465 14.8228Z" fill="#2A428C"/>
<path d="M20.6702 14.8228H19.3317C19.2507 14.8228 19.1736 14.8387 19.1025 14.8667C19.3342 14.9582 19.4984 15.1836 19.4984 15.4478V16.7863C19.4984 17.0506 19.3343 17.276 19.1025 17.3674C19.1736 17.3954 19.2507 17.4113 19.3317 17.4113H20.6702C21.0153 17.4113 21.2952 17.1315 21.2952 16.7863V15.4478C21.2952 15.1026 21.0153 14.8228 20.6702 14.8228Z" fill="#2A428C"/>
<path d="M15.4929 14.8228H14.1544C14.0734 14.8228 13.9963 14.8387 13.9253 14.8667C14.1569 14.9582 14.3212 15.1836 14.3212 15.4478V16.7863C14.3212 17.0506 14.157 17.276 13.9253 17.3674C13.9963 17.3954 14.0734 17.4113 14.1544 17.4113H15.4929C15.8381 17.4113 16.1179 17.1315 16.1179 16.7863V15.4478C16.1179 15.1026 15.8382 14.8228 15.4929 14.8228Z" fill="#2A428C"/>
<path d="M10.3162 14.8228H8.97768C8.89666 14.8228 8.81955 14.8387 8.74854 14.8667C8.98018 14.9582 9.14439 15.1836 9.14439 15.4478V16.7863C9.14439 17.0506 8.98025 17.276 8.74854 17.3674C8.81955 17.3954 8.89666 17.4113 8.97768 17.4113H10.3162C10.6613 17.4113 10.9412 17.1315 10.9412 16.7863V15.4478C10.9412 15.1026 10.6613 14.8228 10.3162 14.8228Z" fill="#2A428C"/>
<path d="M5.13895 14.8228H3.80043C3.71941 14.8228 3.6423 14.8387 3.57129 14.8667C3.80293 14.9582 3.96715 15.1836 3.96715 15.4478V16.7863C3.96715 17.0506 3.80301 17.276 3.57129 17.3674C3.6423 17.3954 3.71949 17.4113 3.80043 17.4113H5.13895C5.4841 17.4113 5.76395 17.1315 5.76395 16.7863V15.4478C5.76395 15.1026 5.4841 14.8228 5.13895 14.8228Z" fill="#2A428C"/>
<path d="M5.13895 20H3.80043C3.71941 20 3.6423 20.0159 3.57129 20.044C3.80293 20.1355 3.96715 20.3609 3.96715 20.6251V21.9636C3.96715 22.2278 3.80301 22.4532 3.57129 22.5446C3.6423 22.5727 3.71949 22.5886 3.80043 22.5886H5.13895C5.4841 22.5886 5.76395 22.3088 5.76395 21.9636V20.625C5.76395 20.2798 5.4841 20 5.13895 20Z" fill="#2A428C"/>
<path d="M5.13895 25.1772H3.80043C3.71941 25.1772 3.6423 25.1932 3.57129 25.2212C3.80293 25.3127 3.96715 25.5381 3.96715 25.8023V27.1408C3.96715 27.405 3.80301 27.6304 3.57129 27.7218C3.6423 27.7498 3.71949 27.7658 3.80043 27.7658H5.13895C5.4841 27.7658 5.76395 27.4859 5.76395 27.1408V25.8022C5.76395 25.457 5.4841 25.1772 5.13895 25.1772Z" fill="#2A428C"/>
<path d="M10.3162 20H8.97768C8.89666 20 8.81955 20.0159 8.74854 20.044C8.98018 20.1355 9.14439 20.3609 9.14439 20.6251V21.9636C9.14439 22.2278 8.98025 22.4532 8.74854 22.5446C8.81955 22.5727 8.89666 22.5886 8.97768 22.5886H10.3162C10.6613 22.5886 10.9412 22.3088 10.9412 21.9636V20.625C10.9412 20.2798 10.6613 20 10.3162 20Z" fill="#2A428C"/>
<path d="M10.3162 25.1772H8.97768C8.89666 25.1772 8.81955 25.1932 8.74854 25.2212C8.98018 25.3127 9.14439 25.5381 9.14439 25.8023V27.1408C9.14439 27.405 8.98025 27.6304 8.74854 27.7218C8.81955 27.7498 8.89666 27.7658 8.97768 27.7658H10.3162C10.6613 27.7658 10.9412 27.4859 10.9412 27.1408V25.8022C10.9412 25.457 10.6613 25.1772 10.3162 25.1772Z" fill="#2A428C"/>
<path d="M15.4929 20H14.1544C14.0734 20 13.9963 20.0159 13.9253 20.044C14.1569 20.1355 14.3212 20.3609 14.3212 20.6251V21.9636C14.3212 22.2278 14.157 22.4532 13.9253 22.5446C13.9963 22.5727 14.0734 22.5886 14.1544 22.5886H15.4929C15.8381 22.5886 16.1179 22.3088 16.1179 21.9636V20.625C16.1179 20.2798 15.8382 20 15.4929 20Z" fill="#2A428C"/>
<path d="M21.2952 22.5885V20.625C21.2952 20.2798 21.0153 20 20.6702 20H19.3317C19.2507 20 19.1736 20.0159 19.1025 20.044C19.3342 20.1355 19.4984 20.3609 19.4984 20.6251V21.9636C19.4984 22.2278 19.3343 22.4532 19.1025 22.5446C19.1736 22.5727 19.2507 22.5886 19.3317 22.5886H21.2952V22.5885Z" fill="#2A428C"/>
<path d="M15.4929 25.1772H14.1544C14.0734 25.1772 13.9963 25.1932 13.9253 25.2212C14.1569 25.3127 14.3212 25.5381 14.3212 25.8023V27.1408C14.3212 27.405 14.157 27.6304 13.9253 27.7218C13.9963 27.7498 14.0734 27.7658 14.1544 27.7658H15.4929C15.8381 27.7658 16.1179 27.4859 16.1179 27.1408V25.8022C16.1179 25.457 15.8382 25.1772 15.4929 25.1772Z" fill="#2A428C"/>
<path d="M32.4414 11.4854V23.1093V30.3543H34.2395V23.1093V12.2346L32.4414 11.4854Z" fill="#D3DCFB"/>
<path d="M34.2395 12.2342V5.76275C34.2395 4.33314 33.0806 3.17432 31.651 3.17432H3.17438C1.74477 3.17432 0.585938 4.33322 0.585938 5.76275V12.2342H34.2395Z" fill="#FF4155"/>
<path d="M11.5872 5.43945C11.5872 6.33297 10.8629 7.05727 9.96938 7.05727C9.07586 7.05727 8.35156 6.33289 8.35156 5.43945V2.20375C8.35156 1.31023 9.07586 0.585938 9.96938 0.585938C10.8629 0.585938 11.5872 1.31023 11.5872 2.20375V5.43945Z" fill="#EBF5FC"/>
<path d="M26.4724 5.43945C26.4724 6.33297 25.7481 7.05727 24.8546 7.05727C23.9611 7.05727 23.2368 6.33289 23.2368 5.43945V2.20375C23.2368 1.31023 23.9611 0.585938 24.8546 0.585938C25.7481 0.585938 26.4724 1.31023 26.4724 2.20375V5.43945Z" fill="#EBF5FC"/>
<path d="M24.8546 0.585938C24.5225 0.585938 24.2139 0.686328 23.957 0.857969C24.3912 1.14813 24.6773 1.64234 24.6773 2.20375V5.43945C24.6773 6.00078 24.3912 6.49508 23.957 6.78523C24.2139 6.95687 24.5224 7.05727 24.8546 7.05727C25.7481 7.05727 26.4724 6.33289 26.4724 5.43945V2.20375C26.4725 1.31023 25.7481 0.585938 24.8546 0.585938Z" fill="#D3DCFB"/>
<path d="M9.96936 0.585938C9.63725 0.585938 9.32865 0.686328 9.07178 0.857969C9.50592 1.14813 9.79201 1.64234 9.79201 2.20375V5.43945C9.79201 6.00078 9.50592 6.49508 9.07178 6.78523C9.32865 6.95687 9.63717 7.05727 9.96936 7.05727C10.8629 7.05727 11.5872 6.33289 11.5872 5.43945V2.20375C11.5872 1.31023 10.8629 0.585938 9.96936 0.585938Z" fill="#D3DCFB"/>
<path d="M31.651 3.17432H29.8535C31.283 3.17432 32.442 4.33322 32.442 5.76275V12.2342H34.2395V5.76283C34.2395 4.33322 33.0805 3.17432 31.651 3.17432Z" fill="#E80054"/>
<path d="M27.1196 39.4141C32.4807 39.4141 36.8267 35.0681 36.8267 29.707C36.8267 24.346 32.4807 20 27.1196 20C21.7586 20 17.4126 24.346 17.4126 29.707C17.4126 35.0681 21.7586 39.4141 27.1196 39.4141Z" fill="#4FABF7"/>
<path d="M27.1195 36.8254C31.0509 36.8254 34.238 33.6383 34.238 29.7069C34.238 25.7754 31.0509 22.5884 27.1195 22.5884C23.188 22.5884 20.001 25.7754 20.001 29.7069C20.001 33.6383 23.188 36.8254 27.1195 36.8254Z" fill="#EBF5FC"/>
<path d="M27.1196 20C26.8167 20 26.5171 20.0146 26.2212 20.0418C31.161 20.4952 35.0298 24.649 35.0298 29.707C35.0298 34.7651 31.161 38.9188 26.2212 39.3723C26.5171 39.3995 26.8167 39.4141 27.1196 39.4141C32.4806 39.4141 36.8267 35.068 36.8267 29.707C36.8267 24.346 32.4807 20 27.1196 20Z" fill="#1886EA"/>
<path d="M27.1195 22.5884C26.8154 22.5884 26.5157 22.6076 26.2217 22.6446C29.7293 23.086 32.4424 26.0796 32.4424 29.7068C32.4424 33.3341 29.7293 36.3277 26.2217 36.7691C26.5157 36.8061 26.8154 36.8253 27.1195 36.8253C31.0509 36.8253 34.238 33.6382 34.238 29.7067C34.238 25.7753 31.051 22.5884 27.1195 22.5884Z" fill="#D3DCFB"/>
<path d="M27.12 31.0012C27.8348 31.0012 28.4143 30.4217 28.4143 29.7069C28.4143 28.9921 27.8348 28.4126 27.12 28.4126C26.4052 28.4126 25.8257 28.9921 25.8257 29.7069C25.8257 30.4217 26.4052 31.0012 27.12 31.0012Z" fill="#FFDD40"/>
<path d="M3.80029 17.9972H5.13889C5.80662 17.9972 6.34982 17.454 6.34982 16.7863V15.4478C6.34982 14.78 5.80662 14.2368 5.13889 14.2368H3.80029C3.13256 14.2368 2.58936 14.78 2.58936 15.4478V16.7863C2.58936 17.454 3.13256 17.9972 3.80029 17.9972ZM3.76123 15.4477C3.76123 15.4261 3.77881 15.4086 3.80029 15.4086H5.13889C5.16037 15.4086 5.17795 15.4261 5.17795 15.4477V16.7862C5.17795 16.8078 5.16037 16.8253 5.13889 16.8253H3.80029C3.77881 16.8253 3.76123 16.8078 3.76123 16.7862V15.4477Z" fill="black"/>
<path d="M8.97754 17.9972H10.3161C10.9838 17.9972 11.527 17.454 11.527 16.7863V15.4478C11.527 14.78 10.9838 14.2368 10.3161 14.2368H8.97754C8.3098 14.2368 7.7666 14.78 7.7666 15.4478V16.7863C7.7666 17.454 8.3098 17.9972 8.97754 17.9972ZM8.93848 15.4477C8.93848 15.4261 8.95605 15.4086 8.97754 15.4086H10.3161C10.3375 15.4086 10.3551 15.4261 10.3551 15.4477V16.7862C10.3551 16.8078 10.3375 16.8253 10.3161 16.8253H8.97754C8.95605 16.8253 8.93848 16.8078 8.93848 16.7862V15.4477Z" fill="black"/>
<path d="M14.1543 17.9972H15.4928C16.1605 17.9972 16.7038 17.454 16.7038 16.7863V15.4478C16.7038 14.78 16.1605 14.2368 15.4928 14.2368H14.1543C13.4866 14.2368 12.9434 14.78 12.9434 15.4478V16.7863C12.9434 17.454 13.4866 17.9972 14.1543 17.9972ZM14.1152 15.4477C14.1152 15.4261 14.1328 15.4086 14.1543 15.4086H15.4928C15.5143 15.4086 15.5319 15.4261 15.5319 15.4477V16.7862C15.5319 16.8078 15.5143 16.8253 15.4928 16.8253H14.1543C14.1328 16.8253 14.1152 16.8078 14.1152 16.7862V15.4477Z" fill="black"/>
<path d="M20.6701 17.9972C21.3378 17.9972 21.881 17.454 21.881 16.7863V15.4478C21.881 14.78 21.3378 14.2368 20.6701 14.2368H19.3315C18.6638 14.2368 18.1206 14.78 18.1206 15.4478V16.7863C18.1206 17.454 18.6638 17.9972 19.3315 17.9972H20.6701ZM19.2925 16.7863V15.4478C19.2925 15.4262 19.3101 15.4087 19.3315 15.4087H20.6701C20.6915 15.4087 20.7091 15.4262 20.7091 15.4478V16.7863C20.7091 16.8078 20.6915 16.8253 20.6701 16.8253H19.3315C19.3101 16.8253 19.2925 16.8078 19.2925 16.7863Z" fill="black"/>
<path d="M25.8463 17.9972C26.5141 17.9972 27.0573 17.454 27.0573 16.7863V15.4478C27.0573 14.78 26.5141 14.2368 25.8463 14.2368H24.5078C23.8401 14.2368 23.2969 14.78 23.2969 15.4478V16.7863C23.2969 17.454 23.8401 17.9972 24.5078 17.9972H25.8463ZM24.4688 16.7863V15.4478C24.4688 15.4262 24.4863 15.4087 24.5078 15.4087H25.8463C25.8678 15.4087 25.8854 15.4262 25.8854 15.4478V16.7863C25.8854 16.8078 25.8678 16.8253 25.8463 16.8253H24.5078C24.4863 16.8253 24.4688 16.8078 24.4688 16.7863Z" fill="black"/>
<path d="M31.0236 17.9972C31.6913 17.9972 32.2345 17.454 32.2345 16.7863V15.4478C32.2345 14.78 31.6913 14.2368 31.0236 14.2368H29.6851C29.0173 14.2368 28.4741 14.78 28.4741 15.4478V16.7863C28.4741 17.454 29.0173 17.9972 29.6851 17.9972H31.0236ZM29.646 16.7863V15.4478C29.646 15.4262 29.6636 15.4087 29.6851 15.4087H31.0236C31.0451 15.4087 31.0626 15.4262 31.0626 15.4478V16.7863C31.0626 16.8078 31.0451 16.8253 31.0236 16.8253H29.6851C29.6636 16.8253 29.646 16.8078 29.646 16.7863Z" fill="black"/>
<path d="M2.58936 21.9635C2.58936 22.6312 3.13256 23.1745 3.80029 23.1745H5.13889C5.80662 23.1745 6.34982 22.6312 6.34982 21.9635V20.625C6.34982 19.9573 5.80662 19.4141 5.13889 19.4141H3.80029C3.13256 19.4141 2.58936 19.9573 2.58936 20.625V21.9635ZM3.76123 20.625C3.76123 20.6034 3.77881 20.5859 3.80029 20.5859H5.13889C5.16037 20.5859 5.17795 20.6034 5.17795 20.625V21.9635C5.17795 21.9851 5.16037 22.0026 5.13889 22.0026H3.80029C3.77881 22.0026 3.76123 21.9851 3.76123 21.9635V20.625Z" fill="black"/>
<path d="M7.7666 21.9635C7.7666 22.6312 8.3098 23.1745 8.97754 23.1745H10.3161C10.9838 23.1745 11.527 22.6312 11.527 21.9635V20.625C11.527 19.9573 10.9838 19.4141 10.3161 19.4141H8.97754C8.3098 19.4141 7.7666 19.9573 7.7666 20.625V21.9635ZM8.93848 20.625C8.93848 20.6034 8.95605 20.5859 8.97754 20.5859H10.3161C10.3375 20.5859 10.3551 20.6034 10.3551 20.625V21.9635C10.3551 21.9851 10.3375 22.0026 10.3161 22.0026H8.97754C8.95605 22.0026 8.93848 21.9851 8.93848 21.9635V20.625Z" fill="black"/>
<path d="M12.9434 21.9635C12.9434 22.6312 13.4866 23.1745 14.1543 23.1745H15.4928C16.1605 23.1745 16.7038 22.6312 16.7038 21.9635V20.625C16.7038 19.9573 16.1605 19.4141 15.4928 19.4141H14.1543C13.4866 19.4141 12.9434 19.9573 12.9434 20.625V21.9635ZM14.1152 20.625C14.1152 20.6034 14.1328 20.5859 14.1543 20.5859H15.4928C15.5143 20.5859 15.5319 20.6034 15.5319 20.625V21.9635C15.5319 21.9851 15.5143 22.0026 15.4928 22.0026H14.1543C14.1328 22.0026 14.1152 21.9851 14.1152 21.9635V20.625Z" fill="black"/>
<path d="M2.58936 27.1408C2.58936 27.8085 3.13256 28.3517 3.80029 28.3517H5.13889C5.80662 28.3517 6.34982 27.8085 6.34982 27.1408V25.8022C6.34982 25.1345 5.80662 24.5913 5.13889 24.5913H3.80029C3.13256 24.5913 2.58936 25.1345 2.58936 25.8022V27.1408ZM3.76123 25.8022C3.76123 25.7807 3.77881 25.7632 3.80029 25.7632H5.13889C5.16037 25.7632 5.17795 25.7807 5.17795 25.8022V27.1408C5.17795 27.1623 5.16037 27.1798 5.13889 27.1798H3.80029C3.77881 27.1798 3.76123 27.1623 3.76123 27.1408V25.8022Z" fill="black"/>
<path d="M7.7666 27.1408C7.7666 27.8085 8.3098 28.3517 8.97754 28.3517H10.3161C10.9838 28.3517 11.527 27.8085 11.527 27.1408V25.8022C11.527 25.1345 10.9838 24.5913 10.3161 24.5913H8.97754C8.3098 24.5913 7.7666 25.1345 7.7666 25.8022V27.1408ZM8.93848 25.8022C8.93848 25.7807 8.95605 25.7632 8.97754 25.7632H10.3161C10.3375 25.7632 10.3551 25.7807 10.3551 25.8022V27.1408C10.3551 27.1623 10.3375 27.1798 10.3161 27.1798H8.97754C8.95605 27.1798 8.93848 27.1623 8.93848 27.1408V25.8022Z" fill="black"/>
<path d="M12.9434 27.1408C12.9434 27.8085 13.4866 28.3517 14.1543 28.3517H15.4928C16.1605 28.3517 16.7038 27.8085 16.7038 27.1408V25.8022C16.7038 25.1345 16.1605 24.5913 15.4928 24.5913H14.1543C13.4866 24.5913 12.9434 25.1345 12.9434 25.8022V27.1408ZM14.1152 25.8022C14.1152 25.7807 14.1328 25.7632 14.1543 25.7632H15.4928C15.5143 25.7632 15.5319 25.7807 15.5319 25.8022V27.1408C15.5319 27.1623 15.5143 27.1798 15.4928 27.1798H14.1543C14.1328 27.1798 14.1152 27.1623 14.1152 27.1408V25.8022Z" fill="black"/>
<path d="M34.8255 22.8911V5.76297C34.8255 4.01258 33.4015 2.58859 31.651 2.58859H27.0581V2.20383C27.0581 0.988594 26.0695 0 24.8544 0C23.6392 0 22.6506 0.988594 22.6506 2.20375V2.58852H12.1732V2.20375C12.1732 0.988594 11.1846 0 9.96945 0C8.75422 0 7.76562 0.988594 7.76562 2.20375V2.58852H3.17445C1.42406 2.58852 0 4.01258 0 5.76289V14.9453C0 15.2689 0.262266 15.5312 0.585938 15.5312C0.909609 15.5312 1.17188 15.2689 1.17188 14.9453V12.8203H33.6536V21.7596C31.8751 20.2948 29.5984 19.4141 27.1198 19.4141C25.208 19.4141 23.4166 19.9386 21.881 20.8504V20.6471C21.881 19.9672 21.3279 19.4141 20.648 19.4141H19.3538C18.6738 19.4141 18.1207 19.9672 18.1207 20.6471V21.9414C18.1207 22.563 18.5834 23.0772 19.1822 23.1611C17.7114 24.9414 16.8268 27.2228 16.8268 29.707C16.8268 29.7275 16.8274 29.7477 16.8276 29.7682H3.17445C2.07023 29.7682 1.17188 28.8698 1.17188 27.7657V17.2891C1.17188 16.9655 0.909609 16.7031 0.585938 16.7031C0.262266 16.7031 0 16.9655 0 17.2891V30.3542C0 32.1046 1.42398 33.5286 3.17445 33.5286H4.59203C4.9157 33.5286 5.17797 33.2663 5.17797 32.9427C5.17797 32.6191 4.9157 32.3567 4.59203 32.3567H3.17445C2.07023 32.3567 1.17188 31.4584 1.17188 30.3542V30.2265C1.71852 30.6722 2.4157 30.9401 3.17445 30.9401H16.9009C16.9589 31.4234 17.0505 31.8963 17.1732 32.3568H6.9357C6.61203 32.3568 6.34977 32.6191 6.34977 32.9427C6.34977 33.2663 6.61203 33.5287 6.9357 33.5287H17.5628C19.0834 37.3174 22.794 40 27.1198 40C32.7953 40 37.4127 35.3826 37.4127 29.707C37.4127 27.0952 36.4344 24.7079 34.8255 22.8911ZM23.8225 2.20375C23.8225 1.63477 24.2854 1.17188 24.8544 1.17188C25.4234 1.17188 25.8862 1.63477 25.8862 2.20375V5.43945C25.8862 6.00844 25.4234 6.47141 24.8544 6.47141C24.2854 6.47141 23.8225 6.00852 23.8225 5.43945V2.20375ZM8.9375 2.20375C8.9375 1.63477 9.40047 1.17188 9.96945 1.17188C10.5384 1.17188 11.0013 1.63477 11.0013 2.20375V5.43945C11.0013 6.00844 10.5384 6.47141 9.96945 6.47141C9.40047 6.47141 8.9375 6.00852 8.9375 5.43945V2.20375ZM3.17445 3.76039H7.76562V5.17703H7.05734C6.73367 5.17703 6.47141 5.43937 6.47141 5.76297C6.47141 6.08656 6.73367 6.34891 7.05734 6.34891H7.96289C8.30992 7.11141 9.07852 7.6432 9.96945 7.6432C10.8604 7.6432 11.629 7.11148 11.9759 6.34891H12.8815C13.2052 6.34891 13.4674 6.08656 13.4674 5.76297C13.4674 5.43937 13.2052 5.17703 12.8815 5.17703H12.1732V3.76039H22.6506V5.17703H21.9423C21.6186 5.17703 21.3563 5.43937 21.3563 5.76297C21.3563 6.08656 21.6186 6.34891 21.9423 6.34891H22.8479C23.1949 7.11141 23.9635 7.6432 24.8544 7.6432C25.7452 7.6432 26.5139 7.11148 26.8609 6.34891H27.7665C28.0902 6.34891 28.3524 6.08656 28.3524 5.76297C28.3524 5.43937 28.0902 5.17703 27.7665 5.17703H27.0581V3.76039H31.651C32.7552 3.76039 33.6536 4.65875 33.6536 5.76289V9.05984H1.17195V5.76297C1.17195 4.65875 2.07031 3.76039 3.17445 3.76039ZM1.17195 11.6484V10.2318H33.6537V11.6484H1.17195ZM19.2926 20.6471C19.2926 20.6134 19.3201 20.5859 19.3538 20.5859H20.648C20.6817 20.5859 20.7091 20.6134 20.7091 20.6471V21.6603C20.5705 21.7709 20.435 21.8851 20.3023 22.0026H19.3537C19.3199 22.0026 19.2925 21.9751 19.2925 21.9414L19.2926 20.6471ZM27.1198 38.8281C22.0904 38.8281 17.9987 34.7364 17.9987 29.707C17.9987 24.6777 22.0904 20.5859 27.1198 20.5859C32.1491 20.5859 36.2409 24.6777 36.2409 29.707C36.2409 34.7364 32.1491 38.8281 27.1198 38.8281Z" fill="black"/>
<path d="M27.1199 22.0024C22.8717 22.0024 19.4155 25.4586 19.4155 29.7069C19.4155 33.9552 22.8717 37.4113 27.1199 37.4113C31.3682 37.4113 34.8244 33.9552 34.8244 29.7069C34.8244 25.4586 31.3682 22.0024 27.1199 22.0024ZM27.1199 36.2395C23.5178 36.2395 20.5874 33.309 20.5874 29.7069C20.5874 26.1048 23.5179 23.1743 27.1199 23.1743C30.7219 23.1743 33.6525 26.1048 33.6525 29.7069C33.6525 33.309 30.722 36.2395 27.1199 36.2395Z" fill="black"/>
<path d="M30.3555 29.1212H28.9061C28.7199 28.5551 28.2719 28.1071 27.7058 27.9209V25.1772C27.7058 24.8537 27.4436 24.5913 27.1199 24.5913C26.7962 24.5913 26.534 24.8537 26.534 25.1772V27.9209C25.7833 28.1678 25.2397 28.875 25.2397 29.7072C25.2397 30.744 26.0832 31.5874 27.1199 31.5874C27.9521 31.5874 28.6593 31.0437 28.9061 30.2931H30.3555C30.6792 30.2931 30.9415 30.0308 30.9415 29.7072C30.9415 29.3836 30.6792 29.1212 30.3555 29.1212ZM27.1198 30.4155C26.7293 30.4155 26.4115 30.0978 26.4115 29.7072C26.4115 29.3165 26.7293 28.9988 27.1198 28.9988C27.5104 28.9988 27.8281 29.3165 27.8281 29.7072C27.8281 30.0978 27.5104 30.4155 27.1198 30.4155Z" fill="black"/>
</svg>
