<svg width="40" height="40" viewBox="0 0 40 40" fill="none" xmlns="http://www.w3.org/2000/svg">
<path d="M34.2223 15.4131C33.4827 15.7394 32.4859 15.7552 31.6821 15.6913C30.1893 15.5727 28.6857 15.6681 27.2206 15.9779C21.2484 17.2405 20.0004 19.9876 20.0004 19.9876C20.0004 19.9876 18.7525 17.2405 12.7803 15.9779C11.315 15.6681 9.8116 15.5727 8.31871 15.6913C7.51496 15.7552 6.51816 15.7395 5.77855 15.4131C5.62402 15.345 5.4502 15.4542 5.4502 15.623V17.9852L20.0004 23.7174L34.5507 17.9852V15.6231C34.5507 15.4542 34.3768 15.345 34.2223 15.4131Z" fill="#FDF6EC"/>
<path d="M34.55 15.6228V17.9848L32.9873 18.6005V15.8853C32.9873 15.8119 32.9631 15.7486 32.9248 15.7017C33.3843 15.6681 33.8375 15.583 34.2218 15.4134C34.3758 15.3447 34.55 15.4541 34.55 15.6228Z" fill="#FCEAD0"/>
<path d="M19.9996 23.7177L3.94059 17.3912C3.6948 17.2944 3.42871 17.4755 3.42871 17.7397V19.7348L19.9996 26.5476L36.5704 19.7348V17.7397C36.5704 17.4755 36.3043 17.2944 36.0586 17.3912L19.9996 23.7177Z" fill="#6ED5A1"/>
<path d="M36.5707 17.7397V19.7345L35.008 20.3767V18.1999C35.008 18.0585 34.9455 17.939 34.8525 17.8663L36.0589 17.3912C36.3043 17.2943 36.5707 17.4756 36.5707 17.7397Z" fill="#46CC8D"/>
<path d="M39.2385 34.4572L0.976797 18.7266C0.790469 18.65 0.585938 18.787 0.585938 18.9885V21.4209C0.585938 21.527 0.645156 21.6241 0.739375 21.6727L33.2253 38.4098C33.2882 38.4422 33.3609 38.4499 33.4292 38.4313L35.5773 37.8479C35.6373 37.8316 35.7009 37.8355 35.7585 37.859L39.0238 39.1918C39.2101 39.2678 39.414 39.1308 39.414 38.9296V34.7191C39.414 34.6042 39.3447 34.5008 39.2385 34.4572Z" fill="#C68D7A"/>
<path d="M39.4145 34.7185V36.1812C39.3887 36.1554 39.3582 36.1351 39.3238 36.121L0.978203 20.3557C0.791484 20.2792 0.585938 20.4159 0.585938 20.6183V18.9884C0.585938 18.7868 0.790625 18.65 0.976641 18.7267L39.2386 34.4568C39.3449 34.5006 39.4145 34.6045 39.4145 34.7185Z" fill="#BC7C63"/>
<path d="M0.761484 34.4572L39.0232 18.7266C39.2095 18.65 39.4141 18.787 39.4141 18.9885V21.4209C39.4141 21.527 39.3548 21.6241 39.2606 21.6727L6.77461 38.4098C6.71172 38.4422 6.63898 38.4499 6.5707 38.4313L4.42266 37.8479C4.36266 37.8316 4.29898 37.8355 4.24141 37.859L0.976094 39.1918C0.789844 39.2678 0.585938 39.1308 0.585938 38.9296V34.7191C0.586016 34.6042 0.655312 34.5008 0.761484 34.4572Z" fill="#935B44"/>
<path d="M0.585938 34.7185V36.1812C0.611719 36.1554 0.642187 36.1351 0.676562 36.121L39.0222 20.3557C39.2089 20.2792 39.4145 20.4159 39.4145 20.6183V18.9884C39.4145 18.7868 39.2098 18.65 39.0238 18.7267L0.761719 34.4568C0.655469 34.5006 0.585938 34.6045 0.585938 34.7185Z" fill="#87523E"/>
<path d="M20.0001 29.6027C20.4316 29.6027 20.7814 29.2529 20.7814 28.8214C20.7814 28.3899 20.4316 28.04 20.0001 28.04C19.5686 28.04 19.2188 28.3899 19.2188 28.8214C19.2188 29.2529 19.5686 29.6027 20.0001 29.6027Z" fill="#03060E"/>
<path d="M40 21.4208V18.9883C40 18.6979 39.8559 18.4279 39.6147 18.2663C39.3735 18.1047 39.0691 18.0739 38.8004 18.1844L37.1569 18.8601V17.7396C37.1569 17.4215 36.9998 17.1246 36.7369 16.9455C36.4738 16.7665 36.1401 16.7293 35.8442 16.8458L35.1362 17.1247V15.6233C35.1362 15.3464 34.9979 15.091 34.7663 14.94C34.5328 14.7879 34.241 14.7644 33.9854 14.8772C33.4708 15.1043 32.6905 15.184 31.7282 15.1074C30.1741 14.9839 28.6166 15.084 27.0991 15.4048C22.8192 16.3096 20.8362 17.9788 20.001 18.9639C19.8194 18.749 19.5841 18.5022 19.2807 18.2369C18.0928 17.1982 16.4605 16.3733 14.4291 15.7851C14.1185 15.6951 13.7931 15.874 13.7032 16.185C13.6132 16.4958 13.7923 16.8208 14.1031 16.9108C17.9002 18.0103 19.1585 19.7266 19.414 20.139V20.705C15.7481 18.2779 11.2332 17.3355 11.0265 17.2933C10.7097 17.229 10.4001 17.4332 10.3353 17.7502C10.2705 18.0672 10.475 18.3768 10.792 18.4417C10.8434 18.4522 15.8604 19.5021 19.414 22.1355V22.8569L16.038 21.5269L6.03578 17.5865V16.1236C6.66805 16.2973 7.44859 16.3486 8.36477 16.2758C9.44156 16.1901 10.5285 16.2207 11.5952 16.3666C11.9155 16.4108 12.2114 16.1861 12.2552 15.8654C12.2991 15.5448 12.0746 15.2493 11.754 15.2054C10.604 15.0482 9.43258 15.0152 8.2718 15.1074C7.30992 15.184 6.52938 15.1043 6.01469 14.8772C5.75914 14.7644 5.46695 14.7879 5.23375 14.94C5.00219 15.091 4.86383 15.3464 4.86383 15.6233V17.1247L4.15586 16.8458C3.85992 16.7293 3.52617 16.7665 3.2632 16.9455C3.00023 17.1246 2.8432 17.4215 2.8432 17.7396V18.8601L1.19969 18.1844C0.931016 18.0739 0.626562 18.1046 0.385391 18.2663C0.144063 18.4279 0 18.6979 0 18.9883V21.4208C0 21.7477 0.180547 22.0438 0.471094 22.1933L13.1548 28.7281L0.53875 33.915C0.211406 34.0495 0 34.3651 0 34.7189V38.9295C0 39.2195 0.143672 39.4892 0.384453 39.651C0.530156 39.7488 0.698906 39.7989 0.868984 39.7989C0.98 39.7989 1.09156 39.7776 1.19766 39.7343L4.3682 38.4402L6.41719 38.9968C6.62734 39.0539 6.84953 39.0304 7.04313 38.9307L20 32.2549L26.9501 35.8357C27.2375 35.9838 27.5911 35.8708 27.7394 35.5832C27.8877 35.2954 27.7745 34.9421 27.4868 34.7939L21.2795 31.5958L25.4773 29.433L38.828 34.9219V38.4787L35.9801 37.3164C35.8044 37.2446 35.6068 37.2326 35.4237 37.2822L33.3891 37.8349L29.9242 36.0497C29.6366 35.9015 29.2832 36.0145 29.1349 36.3022C28.9866 36.59 29.0998 36.9433 29.3875 37.0915L32.957 38.9306C33.1505 39.0304 33.373 39.0538 33.5828 38.9967L35.632 38.4401L38.8023 39.7341C38.9085 39.7774 39.02 39.7987 39.1311 39.7987C39.3011 39.7987 39.47 39.7486 39.6155 39.6508C39.8563 39.4891 40 39.2194 40 38.9294V34.7187C40 34.3649 39.7885 34.0494 39.4613 33.9149L26.8453 28.7282L39.5288 22.1935C39.8195 22.0438 40 21.7477 40 21.4208ZM20.586 22.1355C24.1396 19.5021 29.1566 18.4522 29.208 18.4417C29.5249 18.3769 29.7295 18.0675 29.6648 17.7504C29.6002 17.4333 29.2905 17.2288 28.9735 17.2933C28.7668 17.3355 24.252 18.2779 20.586 20.705V20.1383C20.7045 19.9457 21.0386 19.471 21.736 18.9145C22.6523 18.1834 24.3686 17.18 27.3415 16.5515C28.7489 16.2538 30.1936 16.1611 31.6353 16.2757C32.5515 16.3485 33.332 16.2972 33.9643 16.1234V17.5864L23.9621 21.5269L20.5861 22.8569V22.1355H20.586ZM4.01516 18.0501L19.7852 24.2629C19.9231 24.3172 20.0768 24.3172 20.2148 24.2629L35.9848 18.0501V19.342L20 25.9139L4.01516 19.342V18.0501ZM1.17203 21.2361V19.4404L18.4589 26.5476L14.578 28.1431L1.17203 21.2361ZM0.984219 34.999L0.985859 34.9984C0.985313 34.9986 0.984766 34.9988 0.984219 34.999ZM38.828 21.2361L6.61078 37.8348L4.57625 37.2822C4.39305 37.2324 4.19539 37.2445 4.02 37.3162L1.17195 38.4786V34.9219L38.8279 19.4404L38.828 21.2361Z" fill="#03060E"/>
<path d="M22.9346 5.40299C23.3662 5.40299 23.716 5.05318 23.716 4.62166C23.716 4.19014 23.3662 3.84033 22.9346 3.84033C22.5031 3.84033 22.1533 4.19014 22.1533 4.62166C22.1533 5.05318 22.5031 5.40299 22.9346 5.40299Z" fill="#03060E"/>
<path d="M25.4757 5.39174C25.8994 5.31018 26.1768 4.90055 26.0953 4.47681C26.0137 4.05306 25.6041 3.77566 25.1804 3.85721C24.7566 3.93877 24.4792 4.3484 24.5608 4.77215C24.6423 5.1959 25.0519 5.4733 25.4757 5.39174Z" fill="#03060E"/>
<path d="M29.5596 13.3057C29.8833 13.3057 30.1457 13.0434 30.1457 12.7197V5.99812C30.1457 5.67445 29.8833 5.41211 29.5596 5.41211C29.236 5.41211 28.9736 5.67445 28.9736 5.99812V12.7198C28.9736 13.0434 29.236 13.3057 29.5596 13.3057Z" fill="#03060E"/>
<path d="M10.8984 5.99812V12.7198C10.8984 13.0434 11.1608 13.3058 11.4845 13.3058C11.8081 13.3058 12.0705 13.0434 12.0705 12.7198V5.99812C12.0705 5.67445 11.8081 5.41211 11.4845 5.41211C11.1608 5.41211 10.8984 5.67445 10.8984 5.99812Z" fill="#03060E"/>
<path d="M14.9479 13.6803C15.3859 13.9225 15.956 14.0358 16.5516 14.0358C17.6048 14.0358 18.7373 13.6809 19.358 13.055C19.6634 12.747 19.8955 12.3529 20.0441 11.9024C20.7595 12.3397 21.5773 12.5758 22.3855 12.5758C24.4905 12.5758 26.5091 11.2845 26.4883 9.01863C26.4788 7.98832 26.0538 7.03957 25.3791 6.54246C24.9942 6.25902 24.3439 5.97847 23.4312 6.25269C22.2014 6.62199 21.7223 7.80691 21.9837 8.693C22.1474 9.24777 22.5253 9.67144 23.077 9.91824C23.7352 10.2128 24.5042 10.1953 25.1189 10.03C24.8215 10.6779 24.1295 11.2485 22.6658 11.3903C21.854 11.4688 20.9956 11.2038 20.3109 10.6628C20.2863 10.6435 20.2605 10.6271 20.2341 10.6121C20.2296 9.97199 20.1063 9.36089 19.986 8.76769L19.7761 7.73206C19.7119 7.41488 19.4031 7.21003 19.0853 7.2741C18.7681 7.33839 18.5631 7.64761 18.6274 7.9648L18.8374 9.00042C18.9594 9.60277 19.0856 10.2257 19.0588 10.8155C19.0319 11.4079 18.8426 11.9101 18.5257 12.2297C17.9254 12.835 16.2654 13.0693 15.5146 12.6545C15.1728 12.4656 14.9496 12.1379 14.9174 11.778C14.8873 11.4414 15.0245 11.1308 15.3038 10.9035C15.5549 10.6993 15.5927 10.3302 15.3884 10.0792C15.1842 9.82816 14.8152 9.79019 14.564 9.99456C13.9818 10.4684 13.6851 11.1564 13.75 11.8824C13.817 12.6307 14.2647 13.3028 14.9479 13.6803ZM25.1091 8.79222C24.704 8.98425 24.0401 9.06527 23.5556 8.84839C23.3198 8.74292 23.1733 8.58355 23.1077 8.36136C22.98 7.92839 23.3461 7.50191 23.7682 7.37519C23.9053 7.33402 24.0331 7.31331 24.1526 7.31331C24.3516 7.31331 24.5274 7.37074 24.6839 7.48605C25.0056 7.72308 25.2333 8.19699 25.2977 8.73894C25.234 8.74574 25.1703 8.76324 25.1091 8.79222Z" fill="#03060E"/>
<path d="M9.90282 4.30274C9.9986 4.52399 10.2144 4.65626 10.441 4.65626C10.5186 4.65626 10.5976 4.64071 10.6734 4.6079C11.6732 4.1754 12.7523 3.61485 12.7978 3.59118C13.0443 3.46298 13.1668 3.1793 13.0913 2.91196C13.0157 2.64462 12.7623 2.46673 12.4857 2.4868C11.7022 2.54251 11.2373 2.39751 11.105 2.05571C11.0038 1.79415 11.1028 1.62321 11.1708 1.54462C11.266 1.43446 11.4483 1.33524 11.6742 1.38712C11.99 1.45915 12.3041 1.26227 12.3763 0.946805C12.4486 0.631336 12.2515 0.316961 11.9361 0.244696C11.3232 0.104461 10.6905 0.308602 10.2845 0.777743C9.88165 1.24337 9.77985 1.87938 10.0121 2.47907C10.1246 2.76938 10.3295 3.08071 10.7003 3.31212C10.5367 3.38743 10.3707 3.46188 10.208 3.53227C9.91094 3.66071 9.7743 4.00571 9.90282 4.30274Z" fill="#03060E"/>
</svg>
