<svg width="40" height="40" viewBox="0 0 40 40" fill="none" xmlns="http://www.w3.org/2000/svg">
<path fill-rule="evenodd" clip-rule="evenodd" d="M7.9707 0.506836H39.4925V18.5345H7.9707V0.506836Z" fill="#8BF0FF"/>
<path fill-rule="evenodd" clip-rule="evenodd" d="M11.9959 11.012H13.6336L15.653 8.35792C16.3142 7.49029 17.5636 7.3194 18.4312 7.9807C19.2988 8.63972 19.4697 9.89132 18.8084 10.759L15.7639 14.7621C15.5131 15.0928 15.1559 15.2703 14.7409 15.2703H11.9959V36.6598H3.94736V26.0927C3.58345 26.4854 3.06423 26.7339 2.48943 26.7339C1.39987 26.7339 0.507812 25.8419 0.507812 24.7501V14.8643C0.507812 12.8826 2.01898 11.2428 3.94736 11.0342L11.9959 11.012Z" fill="#EC5A6E"/>
<path fill-rule="evenodd" clip-rule="evenodd" d="M7.97072 11.0228C9.85027 11.0228 11.3837 9.48943 11.3837 7.61215C11.3837 5.73261 9.85027 4.19922 7.97072 4.19922C6.09337 4.19922 4.56006 5.73261 4.56006 7.61215C4.56006 9.48943 6.09337 11.0228 7.97072 11.0228Z" fill="#FFC7AB"/>
<path fill-rule="evenodd" clip-rule="evenodd" d="M22.1614 14.0605H32.0784C32.5999 14.0605 33.0282 14.4888 33.0282 15.0103V22.6638C33.0282 23.1875 32.5998 23.6136 32.0784 23.6136H26.3732L22.9314 27.0553V23.6136H22.1614C21.6377 23.6136 21.2095 23.1875 21.2095 22.6638V15.0103C21.2095 14.4888 21.6377 14.0605 22.1614 14.0605Z" fill="#F9D266"/>
<path fill-rule="evenodd" clip-rule="evenodd" d="M5.97998 39.4934H14.2282V36.5376C14.2282 34.9132 12.899 33.584 11.2725 33.584H8.93358C7.30923 33.584 5.98006 34.9132 5.98006 36.5376V39.4934H5.97998Z" fill="#66CC99"/>
<path fill-rule="evenodd" clip-rule="evenodd" d="M10.1031 33.5838C11.6941 33.5838 12.99 32.2878 12.99 30.699C12.99 29.1079 11.6941 27.812 10.1031 27.812C8.51416 27.812 7.21826 29.108 7.21826 30.699C7.21826 32.2879 8.51416 33.5838 10.1031 33.5838Z" fill="#FFC7AB"/>
<path fill-rule="evenodd" clip-rule="evenodd" d="M14.499 39.4934H22.7473V36.5376C22.7473 34.9132 21.418 33.584 19.7937 33.584H17.4548C15.8283 33.584 14.499 34.9132 14.499 36.5376V39.4934Z" fill="#F9D266"/>
<path fill-rule="evenodd" clip-rule="evenodd" d="M18.6243 33.5838C20.2132 33.5838 21.5091 32.2878 21.5091 30.699C21.5091 29.1079 20.2132 27.812 18.6243 27.812C17.0332 27.812 15.7373 29.108 15.7373 30.699C15.7373 32.2879 17.0332 33.5838 18.6243 33.5838Z" fill="#FFC7AB"/>
<path fill-rule="evenodd" clip-rule="evenodd" d="M22.7251 39.4934H30.9734V36.5376C30.9734 34.9132 29.6441 33.584 28.0198 33.584H25.6787C24.0543 33.584 22.7252 34.9132 22.7252 36.5376L22.7251 39.4934Z" fill="#8DB9FF"/>
<path fill-rule="evenodd" clip-rule="evenodd" d="M26.8504 33.5838C28.4392 33.5838 29.7351 32.2878 29.7351 30.699C29.7351 29.1079 28.4392 27.812 26.8504 27.812C25.2593 27.812 23.9634 29.108 23.9634 30.699C23.9634 32.2879 25.2593 33.5838 26.8504 33.5838Z" fill="#FFC7AB"/>
<path fill-rule="evenodd" clip-rule="evenodd" d="M31.2461 39.4934H39.4921V36.5376C39.4921 34.9132 38.1628 33.584 36.5385 33.584H34.1996C32.5753 33.584 31.2461 34.9132 31.2461 36.5376V39.4934Z" fill="#EC5A6E"/>
<path fill-rule="evenodd" clip-rule="evenodd" d="M35.3694 33.5838C36.9583 33.5838 38.2542 32.2878 38.2542 30.699C38.2542 29.1079 36.9583 27.812 35.3694 27.812C33.7806 27.812 32.4824 29.108 32.4824 30.699C32.4824 32.2879 33.7806 33.5838 35.3694 33.5838Z" fill="#FFC7AB"/>
<path fill-rule="evenodd" clip-rule="evenodd" d="M3.94736 22.582H0.507812V24.75C0.507812 25.8418 1.39987 26.7338 2.48943 26.7338C3.06415 26.7338 3.58345 26.4853 3.94736 26.0926V24.81V22.582Z" fill="#FFC7AB"/>
<path fill-rule="evenodd" clip-rule="evenodd" d="M14.397 10.0112L17.5924 12.3567L18.8084 10.759C19.4697 9.89132 19.2988 8.63972 18.4312 7.9807C17.5636 7.3194 16.3142 7.49029 15.6529 8.35792L14.397 10.0112Z" fill="#FFC7AB"/>
<path fill-rule="evenodd" clip-rule="evenodd" d="M11.9958 24.8101H3.94727V26.0926V36.6598H5.97992V36.5378C5.97992 34.9134 7.30916 33.5842 8.93344 33.5842H10.1029C8.50964 33.5842 7.21813 32.2927 7.21813 30.6994C7.21813 29.1039 8.50964 27.8124 10.1029 27.8124C10.8263 27.8124 11.4876 28.0787 11.9958 28.5181V24.8101H11.9958Z" fill="#506480"/>
<path fill-rule="evenodd" clip-rule="evenodd" d="M11.9959 32.8784C11.4877 33.3178 10.8265 33.5841 10.103 33.5841H11.2724C11.5232 33.5841 11.765 33.6152 11.9958 33.6751V32.8784H11.9959Z" fill="#506480"/>
<path fill-rule="evenodd" clip-rule="evenodd" d="M30.8804 14.0605H32.0787C32.6001 14.0605 33.0284 14.4888 33.0284 15.0103V22.6638C33.0284 23.1875 32.6001 23.6136 32.0787 23.6136H30.8804C31.4041 23.6136 31.8301 23.1875 31.8301 22.6638V15.0103C31.8301 14.4888 31.4041 14.0605 30.8804 14.0605Z" fill="#F0AE42"/>
<path fill-rule="evenodd" clip-rule="evenodd" d="M38.2783 0.506836H39.4922V18.5345H38.2783V0.506836Z" fill="#5DD3E3"/>
<path fill-rule="evenodd" clip-rule="evenodd" d="M38.1076 39.4934H39.4923V36.5376C39.4923 34.9132 38.1631 33.584 36.5387 33.584H35.1519C36.7784 33.584 38.1076 34.9132 38.1076 36.5376V39.4934H38.1076Z" fill="#D62F45"/>
<path fill-rule="evenodd" clip-rule="evenodd" d="M29.5864 39.4934H30.9733V36.5376C30.9733 34.9132 29.644 33.584 28.0197 33.584H26.6328C28.2572 33.584 29.5864 34.9132 29.5864 36.5376V39.4934Z" fill="#70A0ED"/>
<path fill-rule="evenodd" clip-rule="evenodd" d="M21.3603 39.4934H22.7472V36.5376C22.7472 34.9132 21.418 33.584 19.7936 33.584H18.4067C20.0311 33.584 21.3603 34.9132 21.3603 36.5376V39.4934Z" fill="#F0AE42"/>
<path fill-rule="evenodd" clip-rule="evenodd" d="M12.8414 39.4934H14.2282V36.5376C14.2282 34.9132 12.899 33.584 11.2724 33.584H9.8877C11.512 33.584 12.8413 34.9132 12.8413 36.5376L12.8414 39.4934Z" fill="#339966"/>
<path d="M34.9553 19.0854H39.4531C39.7553 19.0854 40.0002 18.8405 40.0002 18.5384V0.547009C40.0002 0.244933 39.7552 0 39.4531 0H7.99472C7.69257 0 7.44771 0.244933 7.44771 0.547009V3.72386C5.52731 3.99126 4.04386 5.64418 4.04386 7.63809C4.04386 8.76475 4.5187 9.78205 5.27784 10.5024L3.97818 10.506C3.95901 10.506 3.93998 10.5071 3.92088 10.5092C1.68565 10.751 0 12.6281 0 14.8754V24.7414C0 26.1347 1.13261 27.2683 2.52471 27.2683C2.83712 27.2683 3.14491 27.2091 3.43266 27.0974V36.6272C3.43266 36.9294 3.6776 37.1742 3.97967 37.1742H5.46117V39.453C5.46117 39.7551 5.7061 40 6.00818 40H14.2398C14.2865 40 14.3317 39.9935 14.375 39.9825C14.4182 39.9936 14.4633 40 14.5101 40H22.7196H22.7418H30.9513C30.9985 40 31.0439 39.9934 31.0875 39.9822C31.1311 39.9934 31.1766 40 31.2237 40H39.4532C39.7554 40 40.0002 39.7551 40.0002 39.453V36.5054C40.0002 34.9795 39.0167 33.6796 37.6506 33.2043C38.3346 32.5776 38.7645 31.6774 38.7645 30.6787C38.7645 28.7884 37.2275 27.2504 35.3384 27.2504C33.4482 27.2504 31.9102 28.7883 31.9102 30.6787C31.9102 31.6776 32.3404 32.5779 33.0252 33.2047C32.1906 33.4953 31.4991 34.0935 31.0875 34.8635C30.6757 34.0931 29.9837 33.4948 29.1487 33.2043C29.8327 32.5775 30.2626 31.6774 30.2626 30.6786C30.2626 28.7883 28.7256 27.2503 26.8366 27.2503C24.9463 27.2503 23.4083 28.7883 23.4083 30.6786C23.4083 31.6772 23.8383 32.5773 24.5226 33.204C23.7798 33.4623 23.1506 33.9643 22.7306 34.6143C22.3107 33.9645 21.6817 33.4626 20.9391 33.2043C21.6231 32.5775 22.053 31.6774 22.053 30.6786C22.053 28.7883 20.516 27.2503 18.627 27.2503C16.7367 27.2503 15.1987 28.7883 15.1987 30.6786C15.1987 31.6774 15.6288 32.5776 16.3135 33.2044C15.4788 33.4948 14.7869 34.0924 14.3749 34.8617C13.9628 34.0924 13.2711 33.4948 12.4362 33.2044C13.1209 32.5776 13.5511 31.6774 13.5511 30.6786C13.5511 29.7403 13.1718 28.8891 12.5589 28.2694V19.0854H19.2537C19.5558 19.0854 19.8007 18.8405 19.8007 18.5384C19.8007 18.2363 19.5557 17.9914 19.2537 17.9914H12.5589V15.8277H14.7513C15.3368 15.8277 15.8542 15.5707 16.2076 15.1047L19.2457 11.11C19.6534 10.5751 19.8277 9.91129 19.7367 9.24076C19.6456 8.57023 19.3006 7.97688 18.7657 7.57061C17.659 6.72716 16.0711 6.94235 15.2261 8.05093L13.375 10.4838H12.0102L10.7288 10.4873C11.4791 9.76781 11.9476 8.75692 11.9476 7.63801C11.9476 5.64395 10.4632 3.99102 8.5415 3.7237V1.09394H38.9059V17.9914H34.955C34.6529 17.9914 34.408 18.2363 34.408 18.5384C34.408 18.8405 34.6532 19.0854 34.9553 19.0854ZM35.3384 28.3447C36.6243 28.3447 37.6704 29.3917 37.6704 30.6788C37.6704 31.9647 36.6243 33.0108 35.3384 33.0108C34.0513 33.0108 33.0043 31.9647 33.0043 30.6788C33.0043 29.3917 34.0513 28.3447 35.3384 28.3447ZM31.7708 36.5055C31.7708 35.1818 32.8476 34.1049 34.1714 34.1049H36.5056C37.8293 34.1049 38.9062 35.1817 38.9062 36.5055V38.9061H31.7708V36.5055ZM26.8366 28.3447C28.1224 28.3447 29.1685 29.3917 29.1685 30.6788C29.1685 31.9647 28.1224 33.0108 26.8366 33.0108C25.5494 33.0108 24.5024 31.9647 24.5024 30.6788C24.5024 29.3917 25.5495 28.3447 26.8366 28.3447ZM25.6673 34.1049H28.0037C29.3274 34.1049 30.4043 35.1817 30.4043 36.5055V38.9061H23.2889V36.5055C23.2889 36.4226 23.285 36.3407 23.2793 36.2592C23.403 35.0508 24.4267 34.1049 25.6673 34.1049ZM18.627 28.3447C19.9129 28.3447 20.959 29.3917 20.959 30.6788C20.959 31.9647 19.9129 33.0108 18.627 33.0108C17.3399 33.0108 16.2929 31.9647 16.2929 30.6788C16.2929 29.3917 17.34 28.3447 18.627 28.3447ZM15.0572 36.5055C15.0572 35.1818 16.135 34.1049 17.46 34.1049H19.7942C21.0348 34.1049 22.0585 35.0508 22.1822 36.2592C22.1765 36.3406 22.1726 36.4226 22.1726 36.5055V38.9061H15.0572V36.5055ZM4.52676 26.0813V25.3483H11.465V27.5244C11.0526 27.3483 10.599 27.2505 10.123 27.2505C8.23394 27.2505 6.69703 28.7884 6.69703 30.6788C6.69703 31.6775 7.12685 32.5776 7.81093 33.2044C6.57374 33.6348 5.65131 34.7417 5.48809 36.0802H4.52684V26.0813H4.52676ZM11.2901 34.1049C12.615 34.1049 13.6929 35.1817 13.6929 36.5055V38.9061H6.55526V36.5055C6.55526 35.1818 7.63214 34.1049 8.9559 34.1049H11.2901ZM10.123 33.0108C8.83708 33.0108 7.79097 31.9647 7.79097 30.6788C7.79097 29.3916 8.83708 28.3446 10.123 28.3446C11.4101 28.3446 12.4571 29.3916 12.4571 30.6788C12.4571 31.9647 11.4101 33.0108 10.123 33.0108ZM12.012 11.5779H13.6464C13.8172 11.5779 13.9783 11.4981 14.0817 11.3622L16.0967 8.71387C16.5758 8.08529 17.4756 7.96294 18.1035 8.44138C18.4061 8.67121 18.6011 9.00741 18.6529 9.38808C18.7045 9.76867 18.6062 10.1447 18.3755 10.4473L15.3365 14.4431C15.1903 14.636 14.9934 14.7337 14.7515 14.7337H12.012C11.7099 14.7337 11.465 14.9786 11.465 15.2807V24.2542H4.52676V15.4402C4.52676 15.138 4.28183 14.8932 3.97975 14.8932C3.67767 14.8932 3.43274 15.1381 3.43274 15.4402V25.8445C3.17607 26.055 2.85505 26.1743 2.52479 26.1743C1.7359 26.1743 1.09417 25.5316 1.09417 24.7415V14.8754C1.09417 13.1972 2.34624 11.7939 4.01114 11.5999L7.99441 11.589H7.9948H7.99527L12.012 11.5779ZM10.8538 7.63809C10.8538 9.21305 9.57172 10.4945 7.99566 10.4949H7.9941C6.41914 10.4945 5.13803 9.21313 5.13803 7.63809C5.13803 6.06164 6.41953 4.77905 7.9948 4.77905C9.57125 4.77905 10.8538 6.06164 10.8538 7.63809ZM22.7164 27.5478C22.7841 27.5758 22.8551 27.5894 22.9255 27.5894C23.068 27.5894 23.208 27.5338 23.3125 27.429L26.5849 24.1546H32.0542C32.8785 24.1546 33.5492 23.484 33.5492 22.6596V15.0215C33.5492 14.1973 32.8785 13.5267 32.0542 13.5267H22.1572C21.3316 13.5267 20.66 14.1973 20.66 15.0215V22.6596C20.66 23.4839 21.3316 24.1546 22.1572 24.1546H22.3785V27.0424C22.3786 27.2637 22.5119 27.4632 22.7164 27.5478ZM22.1572 23.0606C21.9349 23.0606 21.7541 22.8808 21.7541 22.6597V15.0215C21.7541 14.8042 21.9387 14.6208 22.1572 14.6208H32.0542C32.2715 14.6208 32.4551 14.8042 32.4551 15.0215V22.6597C32.4551 22.8808 32.2753 23.0606 32.0542 23.0606H26.3582C26.2131 23.0606 26.0738 23.1183 25.9713 23.221L23.4726 25.7212V23.6077C23.4726 23.3055 23.2277 23.0606 22.9256 23.0606H22.1572V23.0606ZM23.3109 17.2163C23.3109 16.9142 23.5558 16.6693 23.8579 16.6693H30.3534C30.6555 16.6693 30.9004 16.9142 30.9004 17.2163C30.9004 17.5185 30.6554 17.7633 30.3534 17.7633H23.8579C23.5558 17.7633 23.3109 17.5185 23.3109 17.2163ZM23.3109 20.4674C23.3109 20.1652 23.5558 19.9204 23.8579 19.9204H30.3534C30.6555 19.9204 30.9004 20.1653 30.9004 20.4674C30.9004 20.7694 30.6554 21.0144 30.3534 21.0144H23.8579C23.5558 21.0144 23.3109 20.7694 23.3109 20.4674ZM24.4581 3.55438C24.4581 3.25231 24.703 3.00738 25.0051 3.00738H36.6051C36.9073 3.00738 37.1522 3.25231 37.1522 3.55438C37.1522 3.85646 36.9072 4.10139 36.6051 4.10139H25.0051C24.703 4.10139 24.4581 3.85646 24.4581 3.55438ZM24.4581 6.14328C24.4581 5.84121 24.703 5.59628 25.0051 5.59628H36.6051C36.9073 5.59628 37.1522 5.84121 37.1522 6.14328C37.1522 6.44536 36.9072 6.69029 36.6051 6.69029H25.0051C24.703 6.69029 24.4581 6.44536 24.4581 6.14328ZM24.4581 8.73218C24.4581 8.43011 24.703 8.18518 25.0051 8.18518H36.6051C36.9073 8.18518 37.1522 8.43011 37.1522 8.73218C37.1522 9.03426 36.9072 9.27919 36.6051 9.27919H25.0051C24.703 9.27912 24.4581 9.03426 24.4581 8.73218ZM36.6051 11.868H25.0051C24.7029 11.868 24.4581 11.6231 24.4581 11.321C24.4581 11.0189 24.703 10.774 25.0051 10.774H36.6051C36.9073 10.774 37.1522 11.0189 37.1522 11.321C37.1522 11.6231 36.9073 11.868 36.6051 11.868ZM20.4718 3.55438C20.4718 3.25231 20.7168 3.00738 21.0188 3.00738H22.0974C22.3995 3.00738 22.6444 3.25231 22.6444 3.55438C22.6444 3.85646 22.3994 4.10139 22.0974 4.10139H21.0188C20.7168 4.10139 20.4718 3.85646 20.4718 3.55438ZM20.4718 6.14328C20.4718 5.84121 20.7168 5.59628 21.0188 5.59628H22.0974C22.3995 5.59628 22.6444 5.84121 22.6444 6.14328C22.6444 6.44536 22.3994 6.69029 22.0974 6.69029H21.0188C20.7168 6.69029 20.4718 6.44536 20.4718 6.14328ZM20.4718 8.73218C20.4718 8.43011 20.7168 8.18518 21.0188 8.18518H22.0974C22.3995 8.18518 22.6444 8.43011 22.6444 8.73218C22.6444 9.03426 22.3994 9.27919 22.0974 9.27919H21.0188C20.7168 9.27912 20.4718 9.03426 20.4718 8.73218ZM20.4718 11.321C20.4718 11.0189 20.7168 10.774 21.0188 10.774H22.0974C22.3995 10.774 22.6444 11.0189 22.6444 11.321C22.6444 11.6231 22.3994 11.868 22.0974 11.868H21.0188C20.7168 11.868 20.4718 11.6231 20.4718 11.321Z" fill="black"/>
</svg>
