<svg width="57" height="56" viewBox="0 0 57 56" fill="none" xmlns="http://www.w3.org/2000/svg">
<path d="M28.5 0C27.9846 0 27.5667 0.4179 27.5667 0.933333V6.53333C27.5667 7.04877 27.9846 7.46667 28.5 7.46667C29.0154 7.46667 29.4333 7.04877 29.4333 6.53333V0.933333C29.4333 0.4179 29.0154 0 28.5 0Z" fill="#004D40"/>
<path d="M24.8816 2.10121L24.7192 1.18188C24.6297 0.674144 24.1457 0.334994 23.6379 0.424478C23.1302 0.513961 22.791 0.998011 22.8805 1.50574L23.0429 2.42508C23.1217 2.87074 23.5088 3.19566 23.9613 3.19601C24.0158 3.19589 24.0701 3.19123 24.1237 3.18201C24.6315 3.09276 24.9708 2.60894 24.8816 2.10121Z" fill="#004D40"/>
<path d="M20.4389 3.12402L20.1196 2.24669C20.1157 2.23526 20.1116 2.22394 20.1073 2.21262C19.9215 1.73172 19.3813 1.49244 18.9004 1.67817C18.4195 1.86391 18.1802 2.40419 18.3659 2.88509L18.6842 3.76149C18.8181 4.13062 19.1688 4.37656 19.5615 4.37656C19.6705 4.37656 19.7786 4.35754 19.8809 4.32032C20.3653 4.14404 20.6151 3.60842 20.4389 3.12402Z" fill="#004D40"/>
<path d="M12.4148 7.38132L11.8147 6.66639C11.4852 6.28991 10.9175 6.24009 10.5276 6.55357C10.1258 6.87651 10.0619 7.46392 10.3848 7.86572L10.985 8.58066C11.1622 8.79229 11.4239 8.91456 11.6999 8.91479C11.9195 8.91479 12.132 8.83744 12.3002 8.69627C12.695 8.36482 12.7463 7.77612 12.4148 7.38132Z" fill="#004D40"/>
<path d="M9.08016 10.4857L8.36523 9.88555C7.97533 9.57219 7.40763 9.62189 7.07816 9.99837C6.73866 10.3863 6.77798 10.9759 7.16589 11.3154L7.88083 11.9156C8.04871 12.0565 8.26081 12.1337 8.48003 12.134C8.75594 12.134 9.01774 12.0119 9.19508 11.8006C9.52653 11.4057 9.47496 10.817 9.08016 10.4857Z" fill="#004D40"/>
<path d="M4.26122 18.1839L3.38482 17.8656C3.37362 17.8613 3.36219 17.8571 3.35075 17.8533C2.86309 17.6863 2.33237 17.9465 2.16554 18.4342C1.99859 18.9218 2.25875 19.4525 2.74642 19.6194L3.62375 19.9386C3.72572 19.976 3.8334 19.9953 3.94202 19.9955C4.33694 19.9969 4.68997 19.7497 4.82367 19.378C4.99809 18.893 4.74632 18.3583 4.26122 18.1839Z" fill="#004D40"/>
<path d="M2.92581 22.542L2.00648 22.3796C1.49874 22.2901 1.01469 22.6292 0.92521 23.137C0.835727 23.6447 1.17488 24.1287 1.68261 24.2182L2.60194 24.3806C2.65561 24.3898 2.70986 24.3945 2.76434 24.3946C3.21783 24.3949 3.60586 24.069 3.68414 23.6223C3.77304 23.1146 3.43354 22.6309 2.92581 22.542Z" fill="#004D40"/>
<path d="M3.68309 32.3752C3.59361 31.8675 3.10956 31.5284 2.60182 31.6178L1.68249 31.7802C1.23612 31.8584 0.910506 32.246 0.910156 32.6991C0.909923 33.2145 1.32747 33.6327 1.84302 33.6329C1.89774 33.6328 1.95246 33.6281 2.00636 33.6189L2.92569 33.4565C3.43342 33.367 3.77257 32.883 3.68309 32.3752Z" fill="#004D40"/>
<path d="M4.81994 36.6189C4.64389 36.1344 4.10839 35.8842 3.62388 36.0603L2.74654 36.3795C2.37718 36.5135 2.13136 36.8646 2.13159 37.2576C2.13206 37.7731 2.55019 38.1906 3.06574 38.1901C3.17459 38.1899 3.28263 38.1707 3.38494 38.1332L4.26134 37.8149C4.74586 37.6389 4.99599 37.1034 4.81994 36.6189Z" fill="#004D40"/>
<path d="M9.19782 44.1703C8.85844 43.7824 8.26869 43.7431 7.88077 44.0825L7.16584 44.6827C6.95444 44.86 6.8324 45.1218 6.83252 45.3978C6.83264 45.9132 7.25054 46.331 7.76597 46.331C7.98519 46.3307 8.19729 46.2535 8.36517 46.1126L9.0801 45.5124C9.09025 45.5043 9.10017 45.496 9.10997 45.4874C9.49789 45.148 9.5372 44.5583 9.19782 44.1703Z" fill="#004D40"/>
<path d="M12.2992 47.2762C11.8974 46.9533 11.31 47.0172 10.987 47.419L10.3869 48.1339C10.2464 48.3017 10.1693 48.5136 10.1692 48.7324C10.1688 49.2479 10.5864 49.6661 11.1018 49.6665C11.3776 49.6665 11.6394 49.5446 11.8168 49.3333L12.4169 48.6183C12.4255 48.6085 12.4338 48.5985 12.442 48.5883C12.7649 48.1867 12.701 47.5991 12.2992 47.2762Z" fill="#004D40"/>
<path d="M19.8801 51.6794C19.3956 51.5034 18.8601 51.7535 18.6841 52.238L18.3658 53.1144C18.3286 53.2168 18.3095 53.3249 18.3096 53.4338C18.3097 53.9493 18.7277 54.3671 19.2431 54.3669C19.6353 54.3667 19.9854 54.1212 20.1195 53.7528L20.4387 52.8755C20.6148 52.391 20.3647 51.8555 19.8801 51.6794Z" fill="#004D40"/>
<path d="M24.1241 52.8171C23.6164 52.7276 23.1323 53.0667 23.0428 53.5745L22.8804 54.4938C22.7913 55.0015 23.1306 55.4855 23.6383 55.5746C23.6918 55.5846 23.7462 55.5895 23.8007 55.5895C24.2536 55.5891 24.6407 55.2637 24.7191 54.8177L24.8815 53.8983C24.971 53.3906 24.6318 52.9065 24.1241 52.8171Z" fill="#004D40"/>
<path d="M34.1196 54.4938L33.9572 53.5745C33.8678 53.0667 33.3837 52.7276 32.876 52.8171C32.3682 52.9065 32.0291 53.3906 32.1186 53.8983L32.281 54.8177C32.3594 55.2637 32.7465 55.5891 33.1994 55.5895C33.2539 55.5895 33.3082 55.5846 33.3618 55.5746H33.3619C33.8696 55.4853 34.2089 55.0015 34.1196 54.4938Z" fill="#004D40"/>
<path d="M38.6342 53.1144L38.3159 52.238C38.1399 51.7535 37.6044 51.5034 37.1198 51.6794C36.6353 51.8555 36.3852 52.391 36.5612 52.8755L36.8804 53.7528C37.0146 54.1214 37.3647 54.3667 37.7568 54.3669C37.8658 54.3669 37.974 54.3479 38.0763 54.3107C38.5607 54.1344 38.8105 53.5988 38.6342 53.1144Z" fill="#004D40"/>
<path d="M46.6133 48.1339L46.0132 47.4189C46.005 47.4088 45.9967 47.3989 45.9881 47.3891C45.6487 47.0011 45.0589 46.9618 44.671 47.3012C44.2831 47.6406 44.2438 48.2303 44.5833 48.6183L45.1834 49.3332C45.3602 49.5452 45.6223 49.6673 45.8984 49.6664C46.1172 49.6663 46.3291 49.5892 46.4969 49.4487C46.8921 49.1177 46.9443 48.529 46.6133 48.1339Z" fill="#004D40"/>
<path d="M49.8341 44.6827L49.1192 44.0825C49.1094 44.074 49.0995 44.0656 49.0893 44.0574C48.6875 43.7345 48.1001 43.7984 47.7772 44.2002C47.4542 44.602 47.5182 45.1895 47.92 45.5124L48.6349 46.1125C48.8028 46.2535 49.0149 46.3307 49.2341 46.3309C49.51 46.3309 49.7718 46.2089 49.9492 45.9976C50.2805 45.6027 50.2289 45.014 49.8341 44.6827Z" fill="#004D40"/>
<path d="M54.2535 36.3795L53.3762 36.0603C52.8917 35.8842 52.3562 36.1344 52.1801 36.6189C52.0041 37.1034 52.2542 37.6389 52.7387 37.8149L53.6151 38.1332C53.7175 38.1707 53.8254 38.1899 53.9343 38.1901C54.3273 38.1905 54.6783 37.9447 54.8125 37.5752C54.9883 37.0907 54.7381 36.5553 54.2535 36.3795Z" fill="#004D40"/>
<path d="M55.3174 31.7802L54.3981 31.6178C53.8903 31.5284 53.4063 31.8675 53.3168 32.3752C53.2273 32.883 53.5665 33.367 54.0742 33.4565L54.9935 33.6189C55.0474 33.6281 55.1022 33.6328 55.1569 33.6329C55.61 33.6327 55.9975 33.3069 56.0757 32.8606C56.1646 32.3528 55.8251 31.8691 55.3174 31.7802Z" fill="#004D40"/>
<path d="M56.0749 23.137C55.9854 22.6292 55.5014 22.2901 54.9937 22.3796L54.0743 22.542C53.6276 22.6202 53.3019 23.0083 53.302 23.4618C53.3022 23.9772 53.7203 24.3949 54.2358 24.3946C54.2903 24.3945 54.3445 24.3898 54.3982 24.3806L55.3175 24.2182C55.8253 24.1287 56.1644 23.6447 56.0749 23.137Z" fill="#004D40"/>
<path d="M54.8219 18.4001C54.6363 17.9192 54.0959 17.6799 53.615 17.8657L52.7386 18.1839C52.367 18.3175 52.1197 18.6707 52.1211 19.0656C52.123 19.581 52.5424 19.9974 53.0578 19.9955C53.1664 19.9953 53.2741 19.9761 53.3761 19.9386L54.2534 19.6194C54.2648 19.6156 54.2762 19.6114 54.2874 19.607C54.7683 19.4213 55.0076 18.881 54.8219 18.4001Z" fill="#004D40"/>
<path d="M49.9471 10.0284C49.6241 9.62657 49.0367 9.56264 48.6349 9.88557L47.92 10.4857C47.7086 10.663 47.5866 10.9248 47.5867 11.2008C47.5868 11.7162 48.0047 12.134 48.5201 12.134C48.7393 12.1337 48.9514 12.0565 49.1193 11.9156L49.8343 11.3154C50.2107 10.986 50.2606 10.4183 49.9471 10.0284Z" fill="#004D40"/>
<path d="M46.5022 6.5786C46.1142 6.23922 45.5246 6.27842 45.1851 6.66634L44.585 7.38127C44.4438 7.54938 44.3665 7.76195 44.3665 7.98152C44.3666 8.49695 44.7845 8.91485 45.2999 8.91473C45.5759 8.9145 45.8376 8.79223 46.0148 8.5806L46.615 7.86567C46.9285 7.47577 46.8786 6.90795 46.5022 6.5786Z" fill="#004D40"/>
<path d="M38.0658 1.66579C37.5781 1.49884 37.0474 1.75889 36.8806 2.24656L36.5614 3.12389C36.5241 3.22633 36.505 3.33436 36.5051 3.44333C36.5052 3.95876 36.9233 4.37654 37.4387 4.37643C37.8314 4.37643 38.1821 4.13049 38.316 3.76136L38.6343 2.88496C38.6386 2.87376 38.6427 2.86244 38.6467 2.85101C38.8135 2.36334 38.5534 1.83263 38.0658 1.66579Z" fill="#004D40"/>
<path d="M33.3621 0.424478C32.8544 0.334994 32.3703 0.674144 32.2809 1.18188L32.1185 2.10121C32.0293 2.60894 32.3686 3.09288 32.8763 3.18201C32.93 3.19123 32.9842 3.19589 33.0387 3.19601C33.4913 3.19566 33.8784 2.87074 33.9571 2.42508L34.1195 1.50574C34.209 0.998011 33.8699 0.513961 33.3621 0.424478Z" fill="#004D40"/>
<path d="M17.6408 7.32541L15.7741 4.09234C15.5158 3.65181 14.9515 3.50061 14.5076 3.75296C14.0594 4.00776 13.9028 4.57756 14.1576 5.02567L16.0242 8.25874C16.1911 8.54784 16.4996 8.72576 16.8334 8.72541C16.997 8.72529 17.1575 8.68212 17.2992 8.60034C17.7455 8.34262 17.8985 7.77177 17.6408 7.32541Z" fill="#004D40"/>
<path d="M8.75801 15.5259L5.52494 13.6592C5.08103 13.4069 4.51671 13.5581 4.25841 13.9986C3.99778 14.4433 4.14688 15.0151 4.59161 15.2757L7.82468 17.1424C7.96654 17.2243 8.12754 17.2675 8.29134 17.2675C8.62478 17.2675 8.93289 17.0896 9.09961 16.8008C9.35733 16.3544 9.20438 15.7836 8.75801 15.5259Z" fill="#004D40"/>
<path d="M9.10395 39.1918C8.8432 38.7472 8.27142 38.5981 7.82669 38.8588L4.59362 40.7255C4.30487 40.8922 4.12695 41.2003 4.12695 41.5338C4.12695 42.0492 4.54474 42.4671 5.06029 42.4671C5.2242 42.4675 5.3852 42.4243 5.52695 42.342L8.76002 40.4754C8.76364 40.4733 8.76725 40.4712 8.77087 40.4691C9.2156 40.2083 9.3647 39.6365 9.10395 39.1918Z" fill="#004D40"/>
<path d="M17.2986 47.3917C16.8505 47.1369 16.2807 47.2936 16.0259 47.7417L14.1592 50.9748C14.0775 51.1164 14.0344 51.2769 14.0342 51.4405C14.0336 51.9559 14.451 52.3743 14.9666 52.3748C15.3004 52.3751 15.6089 52.1972 15.7758 51.9081L17.6424 48.675C17.6445 48.6715 17.6465 48.6679 17.6486 48.6643C17.9034 48.2163 17.7466 47.6465 17.2986 47.3917Z" fill="#004D40"/>
<path d="M42.8406 50.9737L40.9739 47.7407C40.7156 47.3002 40.1514 47.149 39.7076 47.4014C39.2595 47.6561 39.1027 48.2259 39.3574 48.674L41.2241 51.9071C41.3909 52.1962 41.6995 52.3741 42.0333 52.3737C42.1967 52.3736 42.3574 52.3304 42.499 52.2487C42.9454 51.9909 43.0983 51.4201 42.8406 50.9737Z" fill="#004D40"/>
<path d="M52.4063 40.7251L49.1732 38.8584C48.7293 38.6061 48.1651 38.7573 47.9069 39.1977C47.6462 39.6423 47.7953 40.2142 48.2399 40.475L51.473 42.3416C51.6147 42.4239 51.7757 42.467 51.9396 42.4667C52.2731 42.4667 52.5812 42.2888 52.7479 42C53.0056 41.5537 52.8527 40.9828 52.4063 40.7251Z" fill="#004D40"/>
<path d="M52.7476 14.0093C52.4928 13.5612 51.923 13.4045 51.4749 13.6593L48.2418 15.5259C47.9531 15.6927 47.7751 16.0008 47.7751 16.3342C47.7751 16.8496 48.1929 17.2675 48.7085 17.2675C48.8723 17.2675 49.0333 17.2244 49.1751 17.1425L52.4082 15.2758C52.8487 15.0175 52.9999 14.4532 52.7476 14.0093Z" fill="#004D40"/>
<path d="M42.5031 3.75923C42.0585 3.49848 41.4866 3.64758 41.2259 4.09219L39.3592 7.32526C39.2774 7.46689 39.2344 7.62743 39.2341 7.79099C39.2335 8.30643 39.6511 8.72479 40.1665 8.72526C40.5003 8.72561 40.8089 8.54769 40.9757 8.25859L42.8424 5.02553C43.0947 4.58161 42.9436 4.01741 42.5031 3.75923Z" fill="#004D40"/>
<path d="M7.03333 27.0664H1.43333C0.9179 27.0664 0.5 27.4843 0.5 27.9997C0.5 28.5152 0.9179 28.9331 1.43333 28.9331H7.03333C7.54877 28.9331 7.96667 28.5152 7.96667 27.9997C7.96667 27.4843 7.54877 27.0664 7.03333 27.0664Z" fill="#004D40"/>
<path d="M28.5 48.5332C27.9846 48.5332 27.5667 48.9511 27.5667 49.4665V55.0665C27.5667 55.582 27.9846 55.9999 28.5 55.9999C29.0154 55.9999 29.4333 55.582 29.4333 55.0665V49.4665C29.4333 48.9511 29.0154 48.5332 28.5 48.5332Z" fill="#004D40"/>
<path d="M55.5668 27.0664H49.0334C48.518 27.0664 48.1001 27.4843 48.1001 27.9997C48.1001 28.5152 48.518 28.9331 49.0334 28.9331H55.5668C56.0822 28.9331 56.5001 28.5152 56.5001 27.9997C56.5001 27.4843 56.0822 27.0664 55.5668 27.0664Z" fill="#004D40"/>
<path d="M41.7791 14.7654C41.4147 14.4011 40.8239 14.4011 40.4594 14.7654L30.3934 24.8314C29.8255 24.5064 29.181 24.3392 28.5268 24.347C27.9108 24.3614 27.308 24.5288 26.773 24.8342L21.9841 20.0453C21.6196 19.6793 21.0275 19.6781 20.6616 20.0425C20.2956 20.407 20.2943 20.9991 20.6588 21.365L25.4094 26.1157C24.3116 27.8647 24.8395 30.1724 26.5885 31.2703C28.3374 32.3681 30.6452 31.8402 31.743 30.0911C32.5059 28.8758 32.5059 27.331 31.743 26.1157L41.7791 16.0852C42.1435 15.7207 42.1435 15.1299 41.7791 14.7654ZM29.9784 29.3783C29.2761 30.1329 28.0949 30.1752 27.3403 29.4729C27.3216 29.4555 27.3034 29.4378 27.2854 29.4197C26.5456 28.7017 26.5279 27.5199 27.2459 26.7801C27.5903 26.4253 28.0613 26.2215 28.5557 26.2137C29.0519 26.1995 29.5321 26.3899 29.8838 26.7401C30.6384 27.4424 30.6808 28.6237 29.9784 29.3783Z" fill="#004D40"/>
</svg>
