<svg width="25" height="24" viewBox="0 0 25 24" fill="none" xmlns="http://www.w3.org/2000/svg">
<path d="M12.5 0C12.2791 0 12.1 0.1791 12.1 0.4V2.8C12.1 3.0209 12.2791 3.2 12.5 3.2C12.7209 3.2 12.9 3.0209 12.9 2.8V0.4C12.9 0.1791 12.7209 0 12.5 0Z" fill="#03060E"/>
<path d="M10.9492 0.900824L10.8796 0.506824C10.8412 0.289224 10.6338 0.143874 10.4162 0.182224C10.1986 0.220574 10.0532 0.428024 10.0916 0.645624L10.1612 1.03962C10.1949 1.23062 10.3608 1.36987 10.5548 1.37002C10.5781 1.36997 10.6014 1.36797 10.6244 1.36402C10.842 1.32577 10.9874 1.11842 10.9492 0.900824Z" fill="#03060E"/>
<path d="M9.0452 1.33882L8.90839 0.962823C8.90669 0.957923 8.90494 0.953073 8.90309 0.948223C8.82349 0.742123 8.59194 0.639573 8.38584 0.719173C8.17974 0.798773 8.07719 1.03032 8.15679 1.23642L8.29319 1.61202C8.35059 1.77022 8.50089 1.87562 8.66919 1.87562C8.71589 1.87562 8.76224 1.86747 8.80609 1.85152C9.01369 1.77597 9.12075 1.54642 9.0452 1.33882Z" fill="#03060E"/>
<path d="M5.60643 3.16321L5.34923 2.85681C5.20803 2.69546 4.96473 2.67411 4.79763 2.80846C4.62543 2.94686 4.59803 3.19861 4.73643 3.37081L4.99363 3.67721C5.06958 3.76791 5.18173 3.82031 5.30003 3.82041C5.39413 3.82041 5.48523 3.78726 5.55728 3.72676C5.72648 3.58471 5.74848 3.33241 5.60643 3.16321Z" fill="#03060E"/>
<path d="M4.17721 4.49362L3.87081 4.23642C3.70371 4.10212 3.46041 4.12342 3.31921 4.28477C3.17371 4.45102 3.19056 4.70372 3.35681 4.84922L3.66321 5.10642C3.73516 5.16682 3.82606 5.19992 3.92001 5.20002C4.03826 5.20002 4.15046 5.14772 4.22646 5.05717C4.36851 4.88792 4.34641 4.63562 4.17721 4.49362Z" fill="#03060E"/>
<path d="M2.11201 7.79318L1.73641 7.65678C1.73161 7.65493 1.72671 7.65313 1.72181 7.65148C1.51281 7.57993 1.28536 7.69143 1.21386 7.90043C1.14231 8.10943 1.25381 8.33688 1.46281 8.40838L1.83881 8.54518C1.88251 8.56123 1.92866 8.56948 1.97521 8.56958C2.14446 8.57018 2.29576 8.46423 2.35306 8.30493C2.42781 8.09708 2.31991 7.86793 2.11201 7.79318Z" fill="#03060E"/>
<path d="M1.53962 9.66119L1.14562 9.59159C0.928024 9.55324 0.720574 9.69859 0.682224 9.91619C0.643874 10.1338 0.789224 10.3412 1.00682 10.3796L1.40082 10.4492C1.42382 10.4531 1.44707 10.4551 1.47042 10.4552C1.66477 10.4553 1.83107 10.3156 1.86462 10.1242C1.90272 9.90659 1.75722 9.69929 1.53962 9.66119Z" fill="#03060E"/>
<path d="M1.86418 13.8754C1.82583 13.6578 1.61838 13.5125 1.40078 13.5508L1.00678 13.6204C0.815481 13.6539 0.675931 13.82 0.675781 14.0142C0.675681 14.2351 0.854631 14.4143 1.07558 14.4144C1.09903 14.4144 1.12248 14.4124 1.14558 14.4084L1.53958 14.3388C1.75718 14.3005 1.90253 14.093 1.86418 13.8754Z" fill="#03060E"/>
<path d="M2.35137 15.6942C2.27592 15.4866 2.04642 15.3794 1.83877 15.4548L1.46277 15.5916C1.30447 15.6491 1.19912 15.7995 1.19922 15.968C1.19942 16.1889 1.37862 16.3678 1.59957 16.3676C1.64622 16.3675 1.69252 16.3593 1.73637 16.3432L2.11197 16.2068C2.31962 16.1314 2.42682 15.9019 2.35137 15.6942Z" fill="#03060E"/>
<path d="M4.22763 18.9304C4.08218 18.7642 3.82943 18.7473 3.66318 18.8928L3.35678 19.15C3.26618 19.226 3.21388 19.3382 3.21393 19.4565C3.21398 19.6774 3.39308 19.8564 3.61398 19.8564C3.70793 19.8563 3.79883 19.8232 3.87078 19.7628L4.17718 19.5056C4.18153 19.5021 4.18578 19.4986 4.18998 19.4949C4.35623 19.3494 4.37308 19.0967 4.22763 18.9304Z" fill="#03060E"/>
<path d="M5.55677 20.2616C5.38457 20.1232 5.13282 20.1506 4.99442 20.3228L4.73722 20.6292C4.67702 20.7011 4.64397 20.7919 4.64392 20.8857C4.64377 21.1066 4.82272 21.2858 5.04362 21.286C5.16182 21.286 5.27402 21.2337 5.35002 21.1432L5.60722 20.8368C5.61092 20.8326 5.61447 20.8283 5.61797 20.8239C5.75637 20.6518 5.72897 20.4 5.55677 20.2616Z" fill="#03060E"/>
<path d="M8.80579 22.1486C8.59814 22.0732 8.36864 22.1804 8.29319 22.388L8.15679 22.7636C8.14084 22.8075 8.13264 22.8538 8.13269 22.9005C8.13274 23.1214 8.31189 23.3005 8.53279 23.3004C8.70084 23.3003 8.85089 23.1951 8.90839 23.0372L9.04519 22.6612C9.12064 22.4536 9.01344 22.2241 8.80579 22.1486Z" fill="#03060E"/>
<path d="M10.6246 22.6358C10.407 22.5974 10.1996 22.7428 10.1612 22.9604L10.0916 23.3544C10.0534 23.572 10.1988 23.7794 10.4164 23.8176C10.4394 23.8219 10.4627 23.824 10.486 23.824C10.6801 23.8238 10.846 23.6843 10.8796 23.4932L10.9492 23.0992C10.9876 22.8816 10.8422 22.6741 10.6246 22.6358Z" fill="#03060E"/>
<path d="M14.9084 23.3544L14.8388 22.9604C14.8005 22.7428 14.593 22.5974 14.3754 22.6358C14.1578 22.6741 14.0125 22.8816 14.0508 23.0992L14.1204 23.4932C14.154 23.6843 14.3199 23.8238 14.514 23.824C14.5374 23.824 14.5607 23.8219 14.5836 23.8176H14.5837C14.8013 23.7793 14.9467 23.572 14.9084 23.3544Z" fill="#03060E"/>
<path d="M16.8432 22.7636L16.7068 22.388C16.6314 22.1804 16.4019 22.0732 16.1942 22.1486C15.9866 22.2241 15.8794 22.4536 15.9548 22.6612L16.0916 23.0372C16.1491 23.1952 16.2992 23.3003 16.4672 23.3004C16.5139 23.3004 16.5603 23.2923 16.6041 23.2763C16.8117 23.2008 16.9188 22.9712 16.8432 22.7636Z" fill="#03060E"/>
<path d="M20.2628 20.6292L20.0056 20.3228C20.0021 20.3185 19.9986 20.3142 19.9949 20.31C19.8494 20.1438 19.5967 20.1269 19.4304 20.2724C19.2642 20.4178 19.2473 20.6706 19.3928 20.8368L19.65 21.1432C19.7258 21.2341 19.8381 21.2864 19.9564 21.286C20.0502 21.286 20.141 21.2529 20.2129 21.1927C20.3823 21.0509 20.4047 20.7986 20.2628 20.6292Z" fill="#03060E"/>
<path d="M21.6432 19.15L21.3368 18.8928C21.3326 18.8892 21.3283 18.8856 21.324 18.8821C21.1518 18.7437 20.9 18.7711 20.7616 18.9433C20.6232 19.1155 20.6506 19.3672 20.8228 19.5056L21.1292 19.7628C21.2012 19.8232 21.2921 19.8563 21.386 19.8564C21.5043 19.8564 21.6165 19.8041 21.6925 19.7136C21.8345 19.5443 21.8124 19.292 21.6432 19.15Z" fill="#03060E"/>
<path d="M23.5372 15.5916L23.1612 15.4548C22.9536 15.3794 22.7241 15.4866 22.6486 15.6942C22.5732 15.9019 22.6804 16.1314 22.888 16.2068L23.2636 16.3432C23.3075 16.3593 23.3537 16.3675 23.4004 16.3676C23.5688 16.3678 23.7193 16.2624 23.7768 16.1041C23.8521 15.8964 23.7449 15.667 23.5372 15.5916Z" fill="#03060E"/>
<path d="M23.9932 13.6204L23.5992 13.5508C23.3816 13.5125 23.1741 13.6578 23.1358 13.8754C23.0974 14.093 23.2428 14.3005 23.4604 14.3388L23.8544 14.4084C23.8775 14.4124 23.9009 14.4144 23.9244 14.4144C24.1186 14.4143 24.2846 14.2747 24.3182 14.0834C24.3563 13.8658 24.2108 13.6585 23.9932 13.6204Z" fill="#03060E"/>
<path d="M24.3178 9.91619C24.2794 9.69859 24.072 9.55324 23.8544 9.59159L23.4604 9.66119C23.2689 9.69474 23.1293 9.86104 23.1294 10.0554C23.1295 10.2763 23.3086 10.4553 23.5296 10.4552C23.5529 10.4551 23.5762 10.4531 23.5992 10.4492L23.9932 10.3796C24.2108 10.3412 24.3561 10.1338 24.3178 9.91619Z" fill="#03060E"/>
<path d="M23.7809 7.88584C23.7013 7.67974 23.4697 7.57719 23.2636 7.65679L22.888 7.79319C22.7288 7.85044 22.6228 8.0018 22.6234 8.17105C22.6242 8.39195 22.8039 8.57039 23.0248 8.56959C23.0714 8.56949 23.1175 8.56125 23.1612 8.5452L23.5372 8.40839C23.5421 8.40674 23.547 8.40494 23.5518 8.40309C23.7579 8.32349 23.8604 8.09194 23.7809 7.88584Z" fill="#03060E"/>
<path d="M21.6915 4.29763C21.5531 4.12543 21.3014 4.09803 21.1292 4.23643L20.8228 4.49363C20.7322 4.56963 20.6799 4.68183 20.6799 4.80008C20.68 5.02098 20.8591 5.20003 21.08 5.20003C21.1739 5.19993 21.2648 5.16683 21.3368 5.10643L21.6432 4.84923C21.8045 4.70803 21.8259 4.46473 21.6915 4.29763Z" fill="#03060E"/>
<path d="M20.2152 2.81919C20.049 2.67374 19.7963 2.69054 19.6508 2.85679L19.3936 3.16319C19.3331 3.23524 19.2999 3.32634 19.2999 3.42044C19.3 3.64134 19.4791 3.82044 19.7 3.82039C19.8183 3.82029 19.9304 3.76789 20.0064 3.67719L20.2636 3.37079C20.3979 3.20369 20.3766 2.96034 20.2152 2.81919Z" fill="#03060E"/>
<path d="M16.5996 0.713928C16.3906 0.642378 16.1632 0.753829 16.0917 0.962829L15.9549 1.33883C15.9389 1.38273 15.9307 1.42903 15.9308 1.47573C15.9308 1.69663 16.11 1.87568 16.3309 1.87563C16.4992 1.87563 16.6495 1.77023 16.7069 1.61203L16.8433 1.23643C16.8451 1.23163 16.8469 1.22678 16.8486 1.22188C16.9201 1.01288 16.8086 0.785428 16.5996 0.713928Z" fill="#03060E"/>
<path d="M14.5838 0.182224C14.3662 0.143874 14.1587 0.289224 14.1204 0.506824L14.0508 0.900824C14.0126 1.11842 14.158 1.32582 14.3756 1.36402C14.3986 1.36797 14.4218 1.36997 14.4452 1.37002C14.6391 1.36987 14.805 1.23062 14.8388 1.03962L14.9084 0.645624C14.9467 0.428024 14.8014 0.220574 14.5838 0.182224Z" fill="#03060E"/>
<path d="M7.846 3.13959L7.046 1.75399C6.9353 1.56519 6.69345 1.50039 6.5032 1.60854C6.31115 1.71774 6.244 1.96194 6.3532 2.15399L7.1532 3.53959C7.2247 3.66349 7.35695 3.73974 7.5 3.73959C7.5701 3.73954 7.6389 3.72104 7.6996 3.68599C7.8909 3.57554 7.95645 3.33089 7.846 3.13959Z" fill="#03060E"/>
<path d="M4.03916 6.6536L2.65356 5.8536C2.46331 5.74545 2.22146 5.81025 2.11076 5.99905C1.99906 6.18965 2.06296 6.4347 2.25356 6.5464L3.63916 7.3464C3.69996 7.3815 3.76896 7.4 3.83916 7.4C3.98206 7.4 4.11411 7.32375 4.18556 7.2C4.29601 7.0087 4.23046 6.76405 4.03916 6.6536Z" fill="#03060E"/>
<path d="M4.18738 16.7963C4.07563 16.6057 3.83058 16.5418 3.63998 16.6536L2.25438 17.4536C2.13063 17.525 2.05438 17.6571 2.05438 17.8C2.05438 18.0209 2.23343 18.2 2.45438 18.2C2.52463 18.2001 2.59363 18.1816 2.65438 18.1464L4.03998 17.3464C4.04153 17.3455 4.04308 17.3446 4.04463 17.3437C4.23523 17.2319 4.29913 16.9869 4.18738 16.7963Z" fill="#03060E"/>
<path d="M7.69947 20.3104C7.50742 20.2012 7.26322 20.2684 7.15402 20.4604L6.35402 21.846C6.31897 21.9067 6.30052 21.9755 6.30042 22.0456C6.30017 22.2665 6.47907 22.4458 6.70002 22.446C6.84307 22.4462 6.97532 22.3699 7.04682 22.246L7.84682 20.8604C7.84772 20.8589 7.84857 20.8574 7.84947 20.8558C7.95867 20.6638 7.89147 20.4196 7.69947 20.3104Z" fill="#03060E"/>
<path d="M18.646 21.846L17.846 20.4604C17.7353 20.2717 17.4935 20.2069 17.3033 20.315C17.1112 20.4242 17.044 20.6684 17.1532 20.8604L17.9532 22.246C18.0247 22.3699 18.1569 22.4462 18.3 22.446C18.37 22.446 18.4389 22.4275 18.4996 22.3924C18.6909 22.282 18.7565 22.0373 18.646 21.846Z" fill="#03060E"/>
<path d="M22.7456 17.4536L21.36 16.6536C21.1697 16.5454 20.9279 16.6102 20.8173 16.799C20.7055 16.9895 20.7694 17.2346 20.96 17.3464L22.3456 18.1464C22.4063 18.1816 22.4753 18.2001 22.5456 18.2C22.6885 18.2 22.8205 18.1237 22.892 18C23.0024 17.8087 22.9369 17.564 22.7456 17.4536Z" fill="#03060E"/>
<path d="M22.8919 6.00362C22.7827 5.81157 22.5385 5.74442 22.3464 5.85362L20.9608 6.65363C20.8371 6.72508 20.7608 6.85712 20.7608 7.00002C20.7608 7.22092 20.9399 7.40002 21.1608 7.40002C21.231 7.40002 21.3 7.38152 21.3608 7.34642L22.7464 6.54642C22.9352 6.43572 23 6.19387 22.8919 6.00362Z" fill="#03060E"/>
<path d="M18.5014 1.61129C18.3109 1.49954 18.0658 1.56344 17.954 1.75399L17.154 3.13959C17.119 3.20029 17.1005 3.26909 17.1004 3.33919C17.1002 3.56009 17.2791 3.73939 17.5 3.73959C17.6431 3.73974 17.7753 3.66349 17.8468 3.53959L18.6468 2.15399C18.755 1.96374 18.6902 1.72194 18.5014 1.61129Z" fill="#03060E"/>
<path d="M3.3 11.6H0.9C0.6791 11.6 0.5 11.7791 0.5 12C0.5 12.2209 0.6791 12.4 0.9 12.4H3.3C3.5209 12.4 3.7 12.2209 3.7 12C3.7 11.7791 3.5209 11.6 3.3 11.6Z" fill="#03060E"/>
<path d="M12.5 20.8C12.2791 20.8 12.1 20.9791 12.1 21.2V23.6C12.1 23.8209 12.2791 24 12.5 24C12.7209 24 12.9 23.8209 12.9 23.6V21.2C12.9 20.9791 12.7209 20.8 12.5 20.8Z" fill="#03060E"/>
<path d="M24.1 11.6H21.3C21.0791 11.6 20.9 11.7791 20.9 12C20.9 12.2209 21.0791 12.4 21.3 12.4H24.1C24.3209 12.4 24.5 12.2209 24.5 12C24.5 11.7791 24.3209 11.6 24.1 11.6Z" fill="#03060E"/>
<path d="M18.1911 6.32836C18.0349 6.17221 17.7817 6.17221 17.6255 6.32836L13.3115 10.6424C13.0681 10.5031 12.7919 10.4314 12.5115 10.4348C12.2475 10.4409 11.9892 10.5127 11.7599 10.6436L9.7075 8.59116C9.5513 8.43431 9.29755 8.43376 9.1407 8.58996C8.98385 8.74616 8.9833 8.99991 9.1395 9.15676L11.1755 11.1928C10.705 11.9423 10.9312 12.9314 11.6808 13.4019C12.4303 13.8724 13.4194 13.6461 13.8899 12.8965C14.2169 12.3757 14.2169 11.7136 13.8899 11.1928L18.1911 6.89396C18.3472 6.73776 18.3472 6.48456 18.1911 6.32836ZM13.1336 12.591C12.8326 12.9144 12.3264 12.9326 12.003 12.6316C11.995 12.6241 11.9872 12.6165 11.9795 12.6088C11.6624 12.3011 11.6548 11.7946 11.9625 11.4775C12.1101 11.3255 12.312 11.2381 12.5239 11.2348C12.7365 11.2287 12.9423 11.3103 13.0931 11.4604C13.4165 11.7614 13.4346 12.2676 13.1336 12.591Z" fill="#03060E"/>
</svg>
