<svg width="64" height="64" viewBox="0 0 64 64" fill="none" xmlns="http://www.w3.org/2000/svg">
<path d="M36.7252 54.1289C23.3127 50.826 15.0843 37.156 18.4437 23.7672C20.998 13.5869 29.4774 6.42724 39.3052 5.07437C41.074 4.83087 41.2127 2.33724 39.4794 1.90874C39.3778 1.88362 39.2759 1.85899 39.1739 1.83487C22.602 -2.08813 5.86003 8.19249 1.87016 24.7364C-2.13734 41.3536 8.07678 58.0819 24.7065 62.1174C34.0298 64.3797 43.3918 62.1724 50.5354 56.8705C51.9692 55.8064 50.8743 53.5582 49.1489 54.0187C45.2128 55.0694 40.963 55.1724 36.7252 54.1289Z" fill="#F7CF77"/>
<path d="M50.5356 54.6204C43.3919 59.9223 34.0299 62.1296 24.7067 59.8673C10.8978 56.5163 1.51381 44.4134 1.02156 30.8896C0.491185 45.3014 10.1359 58.5814 24.7066 62.1171C34.0298 64.3795 43.3918 62.1721 50.5354 56.8703C51.4267 56.2088 51.3404 55.0899 50.7333 54.4484C50.6732 54.5083 50.6084 54.5661 50.5356 54.6204Z" fill="#F4C260"/>
<path d="M42.1541 14.8607H39.2293C37.9994 14.8607 37.0023 13.8637 37.0023 12.6337C37.0023 11.4039 37.9993 10.4067 39.2293 10.4067H42.1541C43.3839 10.4067 44.3811 11.4037 44.3811 12.6337C44.3811 13.8636 43.3841 14.8607 42.1541 14.8607Z" fill="#FF748F"/>
<path d="M42.1541 12.6108H39.2293C38.4103 12.6108 37.6966 12.1674 37.3097 11.5088C37.1156 11.8393 37.0023 12.2229 37.0023 12.6338C37.0023 13.8637 37.9993 14.8608 39.2293 14.8608H42.1541C43.3839 14.8608 44.3811 13.8638 44.3811 12.6338C44.3811 12.2229 44.2678 11.8393 44.0737 11.5088C43.6868 12.1673 42.9731 12.6108 42.1541 12.6108Z" fill="#FF577F"/>
<path d="M48.0889 19.7808C47.3881 14.839 42.1523 14.8608 42.1523 14.8608H39.2309C39.2309 14.8608 33.9952 14.839 33.2943 19.7808H48.0889Z" fill="#E8587B"/>
<path d="M34.0788 17.5308C33.7049 18.1343 33.4231 18.8736 33.2944 19.7808H48.0889C47.9603 18.8736 47.6784 18.1343 47.3046 17.5308H34.0788Z" fill="#DD4772"/>
<path d="M48.0907 24.2348H33.2927C32.0628 24.2348 31.0657 23.2378 31.0657 22.0078C31.0657 20.7779 32.0627 19.7808 33.2927 19.7808H48.0905C49.3204 19.7808 50.3176 20.7778 50.3176 22.0078C50.3177 23.2378 49.3206 24.2348 48.0907 24.2348Z" fill="#FF748F"/>
<path d="M48.0907 21.9848H33.2927C32.4737 21.9848 31.7599 21.5414 31.373 20.8828C31.1789 21.2133 31.0657 21.5969 31.0657 22.0078C31.0657 23.2377 32.0627 24.2348 33.2927 24.2348H48.0905C49.3204 24.2348 50.3176 23.2378 50.3176 22.0078C50.3176 21.5969 50.2043 21.2133 50.0102 20.8828C49.6234 21.5414 48.9097 21.9848 48.0907 21.9848Z" fill="#FF577F"/>
<path d="M48.0889 36.6655H33.2944C32.0635 36.6655 31.0658 37.6625 31.0658 38.8925C31.0658 40.1224 32.0635 41.1195 33.2944 41.1195H48.0889C49.3198 41.1195 50.3175 40.1225 50.3175 38.8925C50.3177 37.6626 49.3198 36.6655 48.0889 36.6655Z" fill="#FF748F"/>
<path d="M48.0889 38.8696H33.2944C32.4748 38.8696 31.7605 38.4262 31.3734 37.7676C31.1792 38.098 31.0658 38.4817 31.0658 38.8926C31.0658 40.1225 32.0635 41.1196 33.2944 41.1196H48.0889C49.3198 41.1196 50.3175 40.1226 50.3175 38.8926C50.3175 38.4817 50.2042 38.098 50.0099 37.7676C49.6229 38.4261 48.9085 38.8696 48.0889 38.8696Z" fill="#FF577F"/>
<path d="M48.0889 41.1196C46.9451 46.0615 42.1523 46.0398 42.1523 46.0398H39.2309C39.2309 46.0398 34.4382 46.0616 33.2943 41.1196H48.0889Z" fill="#E8587B"/>
<path d="M47.1421 43.3696C47.5457 42.7661 47.8789 42.0268 48.0889 41.1196H33.2944C33.5044 42.0268 33.8377 42.7661 34.2413 43.3696H47.1421Z" fill="#DD4772"/>
<path d="M33.2944 24.2344H48.0889V36.6653H33.2944V24.6674" fill="#F7CF77"/>
<path d="M33.2944 24.2344V24.6674V26.4844H48.0889V24.2344H33.2944Z" fill="#F4C260"/>
<path d="M38.1479 24.2344H43.2354V36.6653H38.1479V24.6674V24.2344Z" fill="#F9F097"/>
<path d="M38.1479 24.2344V24.6674V26.4844H43.2354V24.2344H38.1479Z" fill="#F2E586"/>
<path d="M59.19 26.8421L59.8096 28.0965C59.9729 28.4271 60.2885 28.6563 60.6538 28.7093L62.0391 28.9104C62.9586 29.0439 63.3258 30.173 62.6604 30.821L61.6579 31.7974C61.3936 32.0548 61.2731 32.4255 61.3355 32.7889L61.5721 34.1676C61.7293 35.0828 60.768 35.7805 59.9456 35.3485L58.7065 34.6975C58.3799 34.526 57.9898 34.526 57.6633 34.6975L56.4241 35.3485C55.6018 35.7805 54.6405 35.0828 54.7976 34.1676L55.0343 32.7889C55.0966 32.4255 54.9761 32.0548 54.7119 31.7974L53.7094 30.821C53.044 30.173 53.4113 29.0439 54.3306 28.9104L55.716 28.7093C56.0811 28.6563 56.3968 28.4271 56.56 28.0965L57.1796 26.8421C57.5906 26.0096 58.7788 26.0096 59.19 26.8421Z" fill="#F9F097"/>
<path d="M61.5315 33.9317L58.7064 32.4476C58.3798 32.2759 57.9897 32.2759 57.6632 32.4476L54.838 33.9317L54.7975 34.1677C54.6404 35.0828 55.6017 35.7806 56.424 35.3486L57.6632 34.6977C57.9898 34.5261 58.3799 34.5261 58.7064 34.6977L59.9455 35.3486C60.7679 35.7806 61.7292 35.0828 61.572 34.1677L61.5315 33.9317Z" fill="#F2E586"/>
<path d="M26.3228 26.6537L26.8346 27.6902C26.9695 27.9633 27.2304 28.1527 27.532 28.1964L28.6766 28.3627C29.4364 28.4729 29.7398 29.4059 29.19 29.9413L28.3618 30.7481C28.1434 30.9607 28.0439 31.2671 28.0954 31.5673L28.2909 32.7064C28.4206 33.4626 27.6265 34.0391 26.947 33.6821L25.9233 33.1442C25.6534 33.0024 25.331 33.0024 25.0613 33.1442L24.0374 33.6821C23.3579 34.0391 22.5638 33.4624 22.6935 32.7064L22.889 31.5673C22.9405 31.2671 22.8409 30.9607 22.6226 30.7481L21.7944 29.9413C21.2446 29.4058 21.548 28.4729 22.3078 28.3627L23.4524 28.1964C23.754 28.1527 24.0149 27.9633 24.1498 27.6902L24.6616 26.6537C25.0014 25.9657 25.983 25.9657 26.3228 26.6537Z" fill="#F9F097"/>
<path d="M28.1837 32.0814L25.9232 30.8939C25.6534 30.7522 25.3311 30.7522 25.0612 30.8939L22.8007 32.0814L22.6935 32.706C22.5637 33.4622 23.3579 34.0387 24.0374 33.6817L25.0612 33.1438C25.3311 33.002 25.6535 33.002 25.9232 33.1438L26.947 33.6817C27.6265 34.0387 28.4207 33.462 28.2909 32.706L28.1837 32.0814Z" fill="#F2E586"/>
<path d="M55.2751 5.27696L55.8027 6.34534C55.9419 6.62696 56.2106 6.82209 56.5216 6.86721L57.7016 7.03859C58.4847 7.15234 58.7975 8.11396 58.2307 8.66596L57.3769 9.49759C57.1519 9.71684 57.0491 10.0326 57.1022 10.3421L57.3039 11.5163C57.4376 12.2957 56.619 12.8901 55.9185 12.5221L54.8631 11.9677C54.585 11.8216 54.2526 11.8216 53.9745 11.9677L52.9191 12.5221C52.2186 12.8901 51.4 12.2957 51.5337 11.5163L51.7354 10.3421C51.7885 10.0326 51.6859 9.71684 51.4607 9.49759L50.6069 8.66596C50.0402 8.11396 50.3529 7.15234 51.136 7.03859L52.316 6.86721C52.627 6.82209 52.8959 6.62684 53.0349 6.34534L53.5626 5.27696C53.9129 4.56784 54.9249 4.56784 55.2751 5.27696Z" fill="#F9F097"/>
<path d="M57.2065 10.9485L54.8633 9.7175C54.5851 9.57138 54.2528 9.57138 53.9746 9.7175L51.6313 10.9485L51.5339 11.5163C51.4001 12.2956 52.2188 12.89 52.9193 12.522L53.9746 11.9676C54.2528 11.8215 54.5851 11.8215 54.8633 11.9676L55.9186 12.522C56.6191 12.89 57.4378 12.2956 57.304 11.5163L57.2065 10.9485Z" fill="#F2E586"/>
<path d="M48.9413 53.1551C45.0454 54.1951 40.9028 54.2316 36.961 53.2609C34.475 52.6485 32.1218 51.6541 29.9666 50.3051C29.527 50.0299 28.9473 50.1634 28.6721 50.6031C28.397 51.0429 28.5304 51.6226 28.9701 51.8979C31.2946 53.3527 33.8319 54.4251 36.5118 55.0852C40.7599 56.1315 45.2254 56.0919 49.4256 54.9704C49.9361 54.8342 50.1638 55.2126 50.2214 55.3319C50.294 55.4822 50.4189 55.8646 50.0128 56.166C44.7475 60.0745 38.4584 62.121 32.0524 62.1207C29.6748 62.1206 27.2798 61.8385 24.9168 61.265C17.103 59.3685 10.4928 54.5465 6.30377 47.6872C2.11552 40.829 0.846018 32.7506 2.72927 24.9404C3.72527 20.8101 5.54052 17.0172 8.12464 13.6671C8.44152 13.2564 8.36539 12.6664 7.95477 12.3495C7.54402 12.0326 6.95427 12.1086 6.63739 12.5194C3.89064 16.0801 1.96139 20.1109 0.903143 24.4999C-1.09773 32.7977 0.251018 41.3802 4.70077 48.6666C9.15089 55.9536 16.1731 61.0762 24.4739 63.091C26.9851 63.7005 29.5274 64.0001 32.0541 64C38.8579 63.9996 45.5405 61.8257 51.1324 57.6747C52.1476 56.921 52.4614 55.6512 51.9131 54.5152C51.371 53.3919 50.1489 52.8325 48.9413 53.1551Z" fill="black"/>
<path d="M10.5197 10.9234C14.0989 7.29125 18.5723 4.59862 23.4561 3.13637C28.4888 1.62937 33.8547 1.47362 38.9739 2.68575C39.5028 2.71037 39.8656 3.1585 39.7866 3.44737C39.7796 3.57925 39.7162 4.015 39.1932 4.087C34.1099 4.78687 29.3809 6.9565 25.5174 10.3614C21.5643 13.8451 18.7953 18.3954 17.5097 23.5204C16.3163 28.2775 16.4964 33.2544 18.0306 37.9129C19.5221 42.4417 22.2167 46.4759 25.8233 49.5795C26.2148 49.9167 26.8084 49.8746 27.1479 49.48C27.4862 49.0866 27.4417 48.4935 27.0486 48.1551C23.7008 45.2744 21.1994 41.5294 19.8148 37.325C18.3921 33.0047 18.2249 28.3892 19.3317 23.9775C20.5244 19.223 23.0928 15.0021 26.7593 11.771C30.3451 8.61112 34.7332 6.5975 39.4494 5.94825C39.5598 5.933 39.6664 5.90912 39.7712 5.88137V9.42162H39.2453C37.4972 9.42162 36.0749 10.8441 36.0749 12.5926C36.0749 13.2569 36.2806 13.8739 36.6311 14.3839C36.4757 14.4401 36.3181 14.5022 36.1593 14.5719C34.7876 15.1734 33.1001 16.4096 32.5037 18.9156C31.1386 19.269 30.1273 20.5115 30.1273 21.9859C30.1273 23.4081 31.0682 24.6145 32.3602 25.0152V35.8764C31.0682 36.2776 30.1273 37.4836 30.1273 38.9054C30.1273 40.3996 31.1669 41.6549 32.5608 41.9886C33.8028 45.9394 37.3977 47.0066 39.2258 47.0065C39.2329 47.0065 39.2402 47.0065 39.2472 47.0064H42.1698C42.1769 47.0064 42.1839 47.0065 42.1912 47.0065C44.0233 47.0065 47.6183 45.939 48.8603 41.9886C50.2542 41.6549 51.2938 40.3996 51.2938 38.9054C51.2938 37.4836 50.3529 36.2775 49.0611 35.8764V25.0152C50.3529 24.6145 51.2938 23.4081 51.2938 21.9859C51.2938 20.5115 50.2826 19.2691 48.9173 18.9156C48.3209 16.4096 46.6334 15.1734 45.2617 14.5719C45.1029 14.5022 44.9453 14.4401 44.7899 14.3839C45.1403 13.8739 45.3461 13.2569 45.3461 12.5926C45.3461 10.8441 43.9238 9.42162 42.1757 9.42162H41.6498C41.6498 9.42162 41.6498 3.59162 41.6498 3.54637C41.6684 2.136 40.7658 1.06987 39.4062 0.857247C33.9672 -0.430503 28.2654 -0.264753 22.9174 1.3365C17.7319 2.88912 12.9823 5.74825 9.18206 9.60462C8.81794 9.97412 8.82219 10.569 9.19169 10.9331C9.56094 11.2972 10.1557 11.293 10.5197 10.9234ZM42.1738 45.1276H39.2427C37.9227 45.2379 35.1611 43.8957 34.5936 42.0764H46.8247C45.4848 45.0737 42.3227 45.1269 42.1738 45.1276ZM49.4151 38.9054C49.4151 39.6179 48.8348 40.1975 48.1216 40.1975H33.2993C32.5861 40.1975 32.0057 39.6179 32.0057 38.9054C32.0057 38.1929 32.5861 37.6132 33.2993 37.6132H48.1216C48.8348 37.6131 49.4151 38.1929 49.4151 38.9054ZM34.2386 35.7344V25.1569H37.2227V35.7344H34.2386ZM39.1012 35.7344V25.1569H42.3197V35.7344H39.1012ZM44.1982 35.7344V25.1569H47.1823V35.7344H44.1982ZM46.9264 18.8149H44.0103C43.4916 18.8149 43.0711 19.2355 43.0711 19.7542C43.0711 20.2731 43.4916 20.6937 44.0103 20.6937H48.1232C48.8356 20.6937 49.4151 21.2734 49.4151 21.9859C49.4151 22.6984 48.8356 23.278 48.1232 23.278H48.1214H33.2993H33.2976C32.5852 23.278 32.0057 22.6984 32.0057 21.9859C32.0057 21.2734 32.5852 20.6937 33.2976 20.6937H40.2533C40.7721 20.6937 41.1926 20.2731 41.1926 19.7542C41.1926 19.2354 40.7721 18.8149 40.2533 18.8149H34.4943C35.5937 15.813 39.0828 15.764 39.2469 15.7636H42.1744C42.3381 15.764 45.8272 15.813 46.9264 18.8149ZM42.1756 11.3005C42.8879 11.3005 43.4674 11.8801 43.4674 12.5926C43.4674 13.3051 42.8879 13.8847 42.1756 13.8847H42.1738H39.2508H39.2452C38.5328 13.8847 37.9533 13.3051 37.9533 12.5926C37.9533 11.8801 38.5328 11.3005 39.2452 11.3005H42.1756Z" fill="black"/>
<path d="M63.3753 31.49C63.9417 30.9383 64.1418 30.1284 63.8977 29.3766C63.6535 28.6244 63.0153 28.0865 62.2326 27.9728L60.8446 27.7711C60.7847 27.7625 60.733 27.725 60.7062 27.6708L60.0855 26.4138C59.7355 25.705 59.0268 25.2646 58.2362 25.2646C57.4456 25.2646 56.737 25.7049 56.387 26.4138L55.7663 27.6706C55.7396 27.7249 55.6878 27.7624 55.6278 27.771L54.2398 27.9726C53.457 28.0864 52.819 28.6243 52.5747 29.3765C52.3306 30.1284 52.5307 30.9381 53.0971 31.4899L54.1015 32.4684C54.1446 32.5104 54.1642 32.5708 54.1541 32.63L53.917 34.0115C53.7833 34.7905 54.0973 35.563 54.7367 36.0279C55.3782 36.4944 56.2117 36.5523 56.9091 36.1854L58.1506 35.5331C58.2045 35.5049 58.2686 35.5049 58.3222 35.5331L59.5636 36.1854C60.2638 36.5533 61.0961 36.4929 61.7361 36.0279C62.3753 35.5632 62.6895 34.7905 62.5558 34.0117L62.3187 32.63C62.3086 32.5708 62.3282 32.5104 62.3715 32.4684L63.3753 31.49ZM62.0646 30.1441L61.0603 31.1225C60.574 31.5963 60.3521 32.2788 60.467 32.9479L60.7041 34.3294C60.7168 34.4036 60.6923 34.4636 60.6313 34.508C60.5698 34.5528 60.5045 34.5575 60.437 34.522L59.1956 33.8698C58.5948 33.554 57.8775 33.554 57.2767 33.8698L56.0352 34.522C55.9678 34.5575 55.9026 34.5528 55.841 34.508C55.78 34.4636 55.7555 34.4036 55.7682 34.3294L56.0053 32.9479C56.1202 32.2786 55.8983 31.5963 55.412 31.1225L54.4076 30.144C54.3536 30.0914 54.338 30.0285 54.3612 29.957C54.3845 29.8851 54.4345 29.8431 54.5096 29.8321L55.8975 29.6305C56.5692 29.533 57.1497 29.1114 57.4503 28.5028L58.0711 27.2458C58.1046 27.1779 58.1601 27.1435 58.2361 27.1435C58.3121 27.1435 58.3676 27.178 58.4011 27.2458L59.0218 28.5026C59.3223 29.1113 59.9028 29.5329 60.5747 29.6304L61.9627 29.832C62.0378 29.8429 62.0877 29.8849 62.1111 29.9568C62.1342 30.0285 62.1186 30.0915 62.0646 30.1441Z" fill="black"/>
<path d="M30.3155 28.6948C30.0944 28.0138 29.5168 27.5267 28.8079 27.4237L27.6696 27.2636L27.1568 26.2249C26.8399 25.5832 26.1984 25.1846 25.4825 25.1846C25.4824 25.1846 25.4825 25.1846 25.4824 25.1846C24.7665 25.1846 24.125 25.5833 23.808 26.2249L23.3036 27.2572L22.1568 27.4238C21.448 27.5268 20.8704 28.0138 20.6493 28.6948C20.4283 29.3756 20.6094 30.1088 21.1221 30.6083L21.9484 31.4057L21.7525 32.5473C21.6315 33.2526 21.9159 33.9521 22.4948 34.3729C23.0755 34.7952 23.8301 34.8476 24.4615 34.5156L25.4773 33.9767L26.5029 34.5156C27.1369 34.8487 27.8904 34.7939 28.4696 34.3729C29.0485 33.9522 29.3329 33.2526 29.2119 32.5473L29.0125 31.4168L29.8423 30.6084C30.3553 30.1088 30.5365 29.3757 30.3155 28.6948ZM27.7021 30.0708C27.2618 30.4998 27.0609 31.1177 27.1648 31.7237L27.3565 32.8416L26.3511 32.3134C26.0791 32.1706 25.7809 32.0991 25.4824 32.0991C25.1841 32.0991 24.8856 32.1706 24.6138 32.3134L23.6081 32.8416L23.8 31.7238C23.9039 31.1179 23.7031 30.5001 23.2628 30.0711L22.4509 29.2798L23.5735 29.1168C24.1819 29.0286 24.7074 28.6468 24.9795 28.0958L25.4825 27.0777L25.9854 28.0959C26.2575 28.6469 26.7831 29.0286 27.3913 29.1168L28.514 29.2801L27.7021 30.0708Z" fill="black"/>
<path d="M50.8445 10.1228C50.8483 10.1265 50.8501 10.1319 50.8492 10.137L50.6472 11.3137C50.5243 12.0298 50.8131 12.74 51.4008 13.1673C51.9904 13.596 52.7567 13.6493 53.3977 13.3122L54.4552 12.7565C54.4604 12.7538 54.4667 12.7538 54.4718 12.7565L55.5292 13.3122C56.1728 13.6503 56.9381 13.5948 57.5262 13.1673C58.1138 12.74 58.4026 12.0298 58.2797 11.3138L58.0778 10.1372C58.077 10.1319 58.0787 10.1265 58.0826 10.1228L58.9379 9.28942C59.4586 8.7823 59.6426 8.0378 59.4181 7.34655C59.1936 6.65505 58.6071 6.16055 57.8875 6.05592L56.7053 5.8843C56.6996 5.88355 56.6947 5.87992 56.6922 5.87505L56.1635 4.80442C55.8417 4.15292 55.1903 3.74805 54.4635 3.74805C53.7366 3.74805 53.0852 4.1528 52.7634 4.80442L52.2347 5.87505C52.2322 5.88005 52.2273 5.88355 52.2217 5.8843L51.0395 6.05592C50.3198 6.16042 49.7333 6.65492 49.5087 7.34642C49.2843 8.03767 49.4682 8.78205 49.9888 9.2893L50.8445 10.1228ZM51.3093 7.91555L52.4916 7.74392C53.1091 7.65417 53.6427 7.26667 53.919 6.7073L54.4508 5.6293C54.4542 5.62755 54.4608 5.6268 54.4661 5.6268C54.4693 5.6268 54.4721 5.62705 54.4733 5.62742C54.4735 5.62742 54.4756 5.6298 54.4788 5.63655L55.0076 6.70717C55.2838 7.26655 55.8175 7.65405 56.435 7.7438L57.6256 7.91642C57.6296 7.92042 57.6337 7.9328 57.627 7.94355L56.7716 8.77692C56.3245 9.21242 56.1206 9.8398 56.2261 10.4549L56.4299 11.639C56.4272 11.6444 56.416 11.6525 56.4027 11.6489L55.3452 11.0933C54.7931 10.8032 54.1337 10.8032 53.5815 11.0933L52.5165 11.653C52.5106 11.6522 52.4996 11.6443 52.4986 11.6315L52.7006 10.4548C52.8061 9.83967 52.6022 9.2123 52.1551 8.7768L51.2937 7.93842C51.2928 7.93292 51.297 7.92042 51.3093 7.91555Z" fill="black"/>
</svg>
