<svg width="66" height="64" viewBox="0 0 66 64" fill="none" xmlns="http://www.w3.org/2000/svg">
<path d="M55.9862 24.5869C54.7908 25.1142 53.1797 25.1398 51.8807 25.0366C49.4678 24.8448 47.0377 24.9991 44.6696 25.4998C35.017 27.5404 33 31.9804 33 31.9804C33 31.9804 30.983 27.5404 21.3304 25.4998C18.9622 24.9991 16.5322 24.8448 14.1194 25.0366C12.8203 25.1399 11.2092 25.1144 10.0138 24.5869C9.76404 24.4768 9.48309 24.6532 9.48309 24.9261V28.744L33 38.0088L56.5169 28.7441V24.9262C56.5169 24.6532 56.236 24.4768 55.9862 24.5869Z" fill="#FDF6EC"/>
<path d="M56.5171 24.9258V28.7435L53.9913 29.7386V25.3501C53.9913 25.2314 53.9521 25.1291 53.8903 25.0533C54.6329 24.999 55.3653 24.8614 55.9866 24.5874C56.2355 24.4763 56.5171 24.6531 56.5171 24.9258Z" fill="#FCEAD0"/>
<path d="M33 38.0083L7.04456 27.7829C6.64732 27.6265 6.21724 27.9193 6.21724 28.3462V31.5709L33 42.582L59.7828 31.5709V28.3462C59.7828 27.9193 59.3527 27.6265 58.9554 27.7829L33 38.0083Z" fill="#6ED5A1"/>
<path d="M59.7829 28.3468V31.5708L57.2571 32.6089V29.0906C57.2571 28.8621 57.1561 28.6689 57.0058 28.5513L58.9557 27.7835C59.3522 27.6269 59.7829 27.9198 59.7829 28.3468Z" fill="#46CC8D"/>
<path d="M64.0944 55.3662L2.25362 29.9416C1.95247 29.8177 1.62189 30.0392 1.62189 30.3649V34.2963C1.62189 34.4676 1.71761 34.6246 1.86989 34.7031L54.3755 61.7546C54.4772 61.807 54.5947 61.8194 54.7051 61.7894L58.1769 60.8465C58.2738 60.8201 58.3768 60.8264 58.4698 60.8644L63.7474 63.0186C64.0484 63.1414 64.378 62.9199 64.378 62.5948V55.7895C64.378 55.6038 64.266 55.4367 64.0944 55.3662Z" fill="#C68D7A"/>
<path d="M64.3784 55.7886V58.1526C64.3367 58.111 64.2875 58.0781 64.2319 58.0554L2.25552 32.5746C1.95373 32.4509 1.62151 32.6718 1.62151 32.999V30.3646C1.62151 30.0389 1.95234 29.8178 2.25299 29.9416L64.0941 55.3656C64.266 55.4363 64.3784 55.6043 64.3784 55.7886Z" fill="#BC7C63"/>
<path d="M1.90562 55.3662L63.7464 29.9416C64.0475 29.8177 64.3781 30.0392 64.3781 30.3649V34.2963C64.3781 34.4676 64.2824 34.6246 64.1301 34.7031L11.6244 61.7546C11.5227 61.807 11.4052 61.8194 11.2948 61.7894L7.82302 60.8465C7.72604 60.8201 7.62313 60.8264 7.53007 60.8644L2.25249 63.0186C1.95146 63.1414 1.62189 62.9199 1.62189 62.5948V55.7895C1.62202 55.6038 1.73402 55.4367 1.90562 55.3662Z" fill="#935B44"/>
<path d="M1.62164 55.7886V58.1526C1.6633 58.111 1.71255 58.0781 1.76811 58.0554L63.7445 32.5746C64.0463 32.4509 64.3785 32.6718 64.3785 32.999V30.3646C64.3785 30.0389 64.0477 29.8178 63.747 29.9416L1.90574 55.3656C1.73402 55.4363 1.62164 55.6043 1.62164 55.7886Z" fill="#87523E"/>
<path d="M33 47.5208C33.6975 47.5208 34.2628 46.9554 34.2628 46.2579C34.2628 45.5605 33.6975 44.9951 33 44.9951C32.3026 44.9951 31.7372 45.5605 31.7372 46.2579C31.7372 46.9554 32.3026 47.5208 33 47.5208Z" fill="#03060E"/>
<path d="M65.3251 34.2961V30.3647C65.3251 29.8952 65.0923 29.4589 64.7024 29.1977C64.3126 28.9364 63.8206 28.8867 63.3863 29.0653L60.7299 30.1574V28.3464C60.7299 27.8322 60.4761 27.3524 60.0511 27.0629C59.6259 26.7735 59.0865 26.7134 58.6083 26.9018L57.4641 27.3526V24.9258C57.4641 24.4783 57.2404 24.0655 56.8662 23.8215C56.4888 23.5756 56.0171 23.5377 55.604 23.7201C54.7722 24.087 53.5112 24.2158 51.9558 24.0921C49.444 23.8924 46.9267 24.0542 44.4739 24.5728C37.5566 26.0351 34.3515 28.733 33.0016 30.3251C32.7081 29.9778 32.3279 29.579 31.8374 29.1502C29.9175 27.4713 27.2792 26.138 23.9959 25.1873C23.494 25.042 22.9681 25.331 22.8228 25.8337C22.6773 26.3361 22.9667 26.8614 23.4691 27.0069C29.6061 28.7839 31.6399 31.5579 32.0529 32.2245V33.1392C26.1279 29.2165 18.8306 27.6933 18.4965 27.6251C17.9845 27.5211 17.4841 27.8511 17.3794 28.3635C17.2747 28.8759 17.6052 29.3762 18.1176 29.4811C18.2006 29.4981 26.3093 31.195 32.0529 35.4513V36.6173L26.5963 34.4677L10.4302 28.0989V25.7345C11.4521 26.0153 12.7137 26.0982 14.1945 25.9804C15.9349 25.842 17.6917 25.8914 19.4156 26.1273C19.9333 26.1986 20.4116 25.8356 20.4823 25.3173C20.5533 24.799 20.1905 24.3214 19.6723 24.2505C17.8136 23.9963 15.9203 23.9431 14.0442 24.0921C12.4896 24.2159 11.228 24.087 10.3961 23.7201C9.98312 23.5377 9.51087 23.5756 9.13395 23.8215C8.75969 24.0655 8.53606 24.4783 8.53606 24.9258V27.3526L7.3918 26.9018C6.91349 26.7134 6.37407 26.7735 5.94904 27.0629C5.52402 27.3524 5.27021 27.8322 5.27021 28.3464V30.1574L2.61387 29.0653C2.17963 28.8867 1.68755 28.9363 1.29776 29.1977C0.907708 29.4589 0.674866 29.8952 0.674866 30.3647V34.2961C0.674866 34.8245 0.966676 35.3031 1.43627 35.5448L21.9363 46.1066L1.54562 54.4899C1.01655 54.7074 0.674866 55.2174 0.674866 55.7893V62.5947C0.674866 63.0634 0.907076 63.4993 1.29624 63.7608C1.53173 63.9189 1.80448 63.9998 2.07937 63.9998C2.2588 63.9998 2.43911 63.9654 2.61059 63.8954L7.735 61.8039L11.0467 62.7034C11.3864 62.7957 11.7455 62.7577 12.0584 62.5966L33 51.8068L44.2331 57.5943C44.6977 57.8337 45.2692 57.6511 45.5088 57.1862C45.7485 56.7211 45.5656 56.15 45.1006 55.9105L35.0679 50.7416L41.8527 47.246L63.4308 56.1173V61.8661L58.8279 59.9875C58.5439 59.8714 58.2246 59.852 57.9286 59.9323L54.6403 60.8255L49.0401 57.9403C48.5753 57.7006 48.004 57.8833 47.7644 58.3484C47.5247 58.8134 47.7076 59.3845 48.1726 59.6241L53.9418 62.5965C54.2545 62.7577 54.6142 62.7956 54.9533 62.7033L58.2653 61.8036L63.3894 63.8952C63.561 63.9651 63.7412 63.9996 63.9208 63.9996C64.1955 63.9996 64.4685 63.9187 64.7038 63.7606C65.0928 63.4992 65.3251 63.0633 65.3251 62.5945V55.789C65.3251 55.2171 64.9833 54.7071 64.4544 54.4898L44.0638 46.1067L64.5636 35.545C65.0333 35.3031 65.3251 34.8245 65.3251 34.2961ZM33.9472 35.4513C39.6907 31.195 47.7994 29.4981 47.8824 29.4811C48.3947 29.3765 48.7254 28.8763 48.6209 28.3638C48.5163 27.8512 48.0158 27.5208 47.5035 27.6251C47.1694 27.6933 39.8723 29.2165 33.9472 33.1392V32.2233C34.1387 31.912 34.6786 31.1447 35.8059 30.2453C37.2869 29.0637 40.0608 27.4419 44.8657 26.426C47.1405 25.9449 49.4755 25.7951 51.8057 25.9803C53.2864 26.098 54.5479 26.0152 55.5699 25.7342V28.0987L39.4038 34.4675L33.9473 36.6172V35.4513H33.9472ZM7.16439 28.8483L32.6528 38.8897C32.8758 38.9775 33.1241 38.9775 33.3471 38.8897L58.8355 28.8483V30.9363L33 41.5581L7.16439 30.9363V28.8483ZM2.56917 33.9977V31.0953L30.5092 42.5823L24.2366 45.1611L2.56917 33.9977ZM2.26562 56.2421L2.26827 56.2411C2.26738 56.2413 2.2665 56.2417 2.26562 56.2421ZM63.4308 33.9977L11.3596 60.8254L8.07126 59.9322C7.77516 59.8517 7.4557 59.8713 7.17222 59.9872L2.56904 61.866V56.1173L63.4307 31.0953L63.4308 33.9977Z" fill="#03060E"/>
<path d="M37.7432 8.40749C38.4406 8.40749 39.006 7.8421 39.006 7.14466C39.006 6.44722 38.4406 5.88184 37.7432 5.88184C37.0458 5.88184 36.4804 6.44722 36.4804 7.14466C36.4804 7.8421 37.0458 8.40749 37.7432 8.40749Z" fill="#03060E"/>
<path d="M41.8496 8.38947C42.5345 8.25765 42.9828 7.59558 42.851 6.9107C42.7192 6.22581 42.0571 5.77746 41.3722 5.90927C40.6874 6.04109 40.239 6.70316 40.3708 7.38805C40.5026 8.07293 41.1647 8.52128 41.8496 8.38947Z" fill="#03060E"/>
<path d="M48.4504 21.1809C48.9736 21.1809 49.3976 20.7569 49.3976 20.2338V9.37C49.3976 8.84687 48.9736 8.42285 48.4504 8.42285C47.9273 8.42285 47.5033 8.84687 47.5033 9.37V20.2339C47.5033 20.7569 47.9273 21.1809 48.4504 21.1809Z" fill="#03060E"/>
<path d="M18.2888 9.37V20.2339C18.2888 20.757 18.7128 21.1811 19.2359 21.1811C19.7591 21.1811 20.1831 20.757 20.1831 20.2339V9.37C20.1831 8.84687 19.7591 8.42285 19.2359 8.42285C18.7128 8.42285 18.2888 8.84687 18.2888 9.37Z" fill="#03060E"/>
<path d="M24.8341 21.7862C25.5421 22.1775 26.4635 22.3608 27.4261 22.3608C29.1283 22.3608 30.9587 21.7871 31.9619 20.7754C32.4555 20.2777 32.8307 19.6408 33.0708 18.9126C34.2271 19.6194 35.5489 20.001 36.8552 20.001C40.2574 20.001 43.5199 17.9139 43.4864 14.2517C43.4711 12.5864 42.7842 11.053 41.6937 10.2496C41.0716 9.79145 40.0205 9.33802 38.5453 9.78122C36.5577 10.3781 35.7833 12.2932 36.2058 13.7254C36.4703 14.622 37.0812 15.3068 37.9729 15.7057C39.0367 16.1817 40.2796 16.1536 41.2731 15.8863C40.7924 16.9335 39.6739 17.8558 37.3082 18.085C35.9961 18.2118 34.6087 17.7835 33.5021 16.9092C33.4624 16.8779 33.4206 16.8513 33.3779 16.8272C33.3707 15.7926 33.1714 14.8049 32.977 13.8461L32.6377 12.1723C32.5339 11.6596 32.0349 11.3285 31.5213 11.4321C31.0086 11.536 30.6773 12.0358 30.7812 12.5484L31.1205 14.2223C31.3177 15.1958 31.5216 16.2026 31.4785 17.1559C31.4349 18.1134 31.1289 18.9251 30.6168 19.4416C29.6465 20.4199 26.9635 20.7985 25.7501 20.1282C25.1977 19.8229 24.8369 19.2933 24.7848 18.7115C24.7361 18.1675 24.9579 17.6655 25.4094 17.2982C25.8151 16.968 25.8764 16.3715 25.5462 15.9658C25.2161 15.5601 24.6197 15.4987 24.2136 15.8291C23.2727 16.5949 22.7931 17.7069 22.898 18.8802C23.0062 20.0898 23.7299 21.1761 24.8341 21.7862ZM41.2573 13.8858C40.6025 14.1961 39.5294 14.3271 38.7464 13.9765C38.3652 13.8061 38.1285 13.5485 38.0225 13.1894C37.8161 12.4896 38.4078 11.8003 39.09 11.5955C39.3116 11.5289 39.5182 11.4955 39.7113 11.4955C40.033 11.4955 40.3171 11.5883 40.57 11.7746C41.09 12.1578 41.458 12.9237 41.5621 13.7996C41.4591 13.8106 41.3562 13.8389 41.2573 13.8858Z" fill="#03060E"/>
<path d="M16.6804 6.62919C16.8352 6.98679 17.1839 7.20056 17.5502 7.20056C17.6756 7.20056 17.8033 7.17544 17.9259 7.1224C19.5418 6.42337 21.2859 5.51738 21.3594 5.47912C21.7578 5.27191 21.9558 4.81343 21.8337 4.38133C21.7116 3.94924 21.302 3.66172 20.855 3.69417C19.5886 3.7842 18.8373 3.54984 18.6234 2.99741C18.4598 2.57466 18.6199 2.29838 18.7297 2.17135C18.8836 1.99331 19.1782 1.83295 19.5434 1.91679C20.0538 2.03321 20.5615 1.71501 20.6782 1.20513C20.795 0.695256 20.4764 0.187145 19.9667 0.0703456C18.9761 -0.156309 17.9534 0.173635 17.2973 0.931886C16.6461 1.68446 16.4816 2.71242 16.857 3.68167C17.0388 4.15089 17.37 4.65408 17.9693 5.02809C17.7049 5.14981 17.4366 5.27015 17.1736 5.38392C16.6935 5.59151 16.4726 6.14911 16.6804 6.62919Z" fill="#03060E"/>
</svg>
