<svg width="66" height="64" viewBox="0 0 66 64" fill="none" xmlns="http://www.w3.org/2000/svg">
<path d="M62.3172 63.0488H3.6827C2.36109 63.0488 1.37375 61.8333 1.64472 60.5397L3.34247 51.6398C3.54443 50.6752 4.39501 49.9844 5.38045 49.9844H60.6195C61.6049 49.9844 62.4555 50.6752 62.6575 51.6398L64.3552 60.5397C64.6262 61.8332 63.6388 63.0488 62.3172 63.0488Z" fill="#8B8089"/>
<path d="M64.3552 60.5393L62.6575 51.6393C62.4554 50.6748 61.6049 49.9839 60.6195 49.9839H57.7444C58.7298 49.9839 59.5804 50.6748 59.7824 51.6393L61.4801 60.5393C61.7511 61.8328 60.7639 63.0483 59.4421 63.0483H62.3172C63.6389 63.0484 64.6262 61.8328 64.3552 60.5393Z" fill="#7B7179"/>
<path d="M25.2773 47.2003V52.4583C25.2773 54.8997 27.2562 56.8798 29.6989 56.8798H52.1561C55.4355 56.8798 58.0939 54.2214 58.0939 50.942V35.8027C58.0939 31.863 56.8012 28.0107 54.3278 24.9423C52.5468 22.7321 50.1118 20.8574 46.9764 20.8574L42.3558 20.9127V40.8782C42.3558 41.9279 41.5048 42.7789 40.455 42.7789H29.6989C27.2562 42.7788 25.2773 44.7589 25.2773 47.2003Z" fill="#ACA6D6"/>
<path d="M54.3275 24.9423C52.5465 22.7321 50.1115 20.8574 46.9762 20.8574L44.7361 20.8842C47.5671 21.117 49.7934 22.8839 51.4522 24.9423C53.9258 28.0107 55.2184 31.863 55.2184 35.8027V50.9421C55.2184 54.2215 52.5599 56.88 49.2807 56.88H52.1558C55.4351 56.88 58.0936 54.2215 58.0936 50.9421V35.8027C58.0938 31.863 56.8011 28.0107 54.3275 24.9423Z" fill="#978ECB"/>
<path d="M46.6355 38.1382L47.5142 35.7884L33.3937 30.5073C32.8618 30.3084 32.2693 30.5784 32.0704 31.1103L30.3064 35.8269L42.0601 40.2228C43.8991 40.9106 45.9476 39.9773 46.6355 38.1382Z" fill="#ACA6D6"/>
<path d="M25.818 30.1971L25.961 28.7306C25.9994 28.3383 26.473 28.1629 26.7576 28.4356L28.4642 30.0715C28.6971 30.2946 28.9767 30.4632 29.283 30.5648L31.9441 31.4481L30.3064 35.8269L26.6391 32.3808C26.0416 31.8194 25.7383 31.0129 25.818 30.1971Z" fill="#FFF3DE"/>
<path d="M39.7102 39.3439L42.06 40.2226C43.8992 40.9104 45.9477 39.9771 46.6355 38.138L49.9828 29.188C50.5619 27.6395 49.7762 25.9148 48.2277 25.3357L48.1553 25.3086C46.6069 24.7295 44.8821 25.5153 44.303 27.0637L39.7102 39.3439Z" fill="#ACA6D6"/>
<path d="M48.2277 25.3359L48.1552 25.3089C47.311 24.9931 46.4148 25.0838 45.68 25.482C47.0083 26.1678 47.6443 27.7534 47.1077 29.1883L43.7604 38.1383C43.4102 39.0745 42.7071 39.7753 41.8588 40.1477L42.06 40.223C43.8992 40.9108 45.9477 39.9775 46.6355 38.1383L49.9828 29.1883C50.562 27.6398 49.7761 25.915 48.2277 25.3359Z" fill="#978ECB"/>
<path d="M25.2773 47.1998V52.4579C25.2773 54.8992 27.2562 56.8794 29.6989 56.8794H35.9848V42.7783H29.6989C27.2562 42.7783 25.2773 44.7585 25.2773 47.1998Z" fill="#C38F86"/>
<path d="M33.1096 42.7783H35.9847V56.8795H33.1096V42.7783Z" fill="#B87D72"/>
<path d="M30.2516 56.8786H46.491V51.0315C46.491 50.4529 46.022 49.9839 45.4434 49.9839H30.2516V56.8786Z" fill="#C38F86"/>
<path d="M45.4436 49.9839H42.5685C43.1471 49.9839 43.6161 50.4529 43.6161 51.0315V56.8786H46.4912V51.0315C46.4912 50.4529 46.0221 49.9839 45.4436 49.9839Z" fill="#B87D72"/>
<path d="M49.4135 51.834H46.4912V56.8791H48.5404L50.1634 58.7692C50.306 58.9353 50.514 59.0309 50.733 59.0309H52.8178C53.3457 59.0309 53.7088 58.5003 53.5175 58.0082L51.7357 53.4229C51.3633 52.465 50.4411 51.834 49.4135 51.834Z" fill="#FFF3DE"/>
<path d="M53.5173 58.0081L51.7353 53.4228C51.3631 52.465 50.441 51.834 49.4133 51.834H46.7753C47.8029 51.834 48.7251 52.465 49.0973 53.4228L50.8793 58.0081C51.0344 58.4073 50.8247 58.8316 50.4583 58.9778C50.5449 59.0118 50.6376 59.0308 50.7327 59.0308H52.8175C53.3455 59.0308 53.7086 58.5001 53.5173 58.0081Z" fill="#FFE5C2"/>
<path d="M16.6046 17.2016C13.731 17.105 11.3902 14.764 11.2936 11.8905C11.2191 9.67703 12.4522 7.74472 14.2797 6.80458C14.5786 6.65082 14.466 6.1954 14.13 6.19629C14.1059 6.19642 14.0818 6.19654 14.0575 6.1968C9.6718 6.24741 6.07968 9.82177 6.0089 14.2073C5.93468 18.8123 9.68271 22.5604 14.2878 22.486C18.6732 22.4152 22.2475 18.8231 22.2981 14.4375C22.2984 14.4133 22.2986 14.3892 22.2986 14.3651C22.2995 14.029 21.8441 13.9165 21.6904 14.2154C20.7503 16.043 18.8179 17.2761 16.6046 17.2016Z" fill="#FFE177"/>
<path d="M11.4049 6.80492C9.57685 7.74494 8.34379 9.67699 8.41863 11.8907C8.51505 14.764 10.8556 17.1058 13.7289 17.2022C14.2934 17.2213 14.8402 17.1553 15.3565 17.0145C13.0807 16.3929 11.3757 14.334 11.2932 11.8907C11.2184 9.67699 12.4527 7.74494 14.2795 6.80492C14.5789 6.65142 14.466 6.196 14.1298 6.19727H14.0575C13.1872 6.20742 12.3487 6.35584 11.5622 6.62351C11.5381 6.69709 11.4872 6.76306 11.4049 6.80492Z" fill="#FFD15B"/>
<path d="M21.6905 14.216C21.1247 15.3158 20.1999 16.2 19.0696 16.7125C18.7554 16.856 18.4245 16.9687 18.082 17.0511C18.0875 17.0504 18.0927 17.0507 18.0984 17.0493C18.5075 16.9496 18.8528 17.3584 18.6757 17.7405C17.5743 20.1172 15.3577 21.8861 12.7102 22.3604C13.2214 22.4517 13.7492 22.4949 14.2883 22.486C18.6738 22.4162 22.2474 18.8236 22.2982 14.4381V14.3658C22.2995 14.0294 21.844 13.9166 21.6905 14.216Z" fill="#FFD15B"/>
<path d="M19.5213 59.2879H9.71427C9.19085 59.2879 8.79239 58.8182 8.87777 58.3018L9.52284 54.3981C9.59046 53.9887 9.94439 53.6885 10.3593 53.6885H19.5213C19.9895 53.6885 20.3691 54.068 20.3691 54.5363V58.44C20.3692 58.9083 19.9895 59.2879 19.5213 59.2879Z" fill="#FED2A4"/>
<path d="M19.5214 53.6885H16.6462C17.1145 53.6885 17.494 54.068 17.494 54.5363V58.44C17.494 58.9082 17.1145 59.2877 16.6462 59.2877H19.5214C19.9896 59.2877 20.3691 58.9082 20.3691 58.44V54.5363C20.3693 54.068 19.9896 53.6885 19.5214 53.6885Z" fill="#FFBD86"/>
<path d="M40.1096 21.998L40.1134 21.9992C44.4013 23.1647 48.8228 20.6334 49.9883 16.3454L50.4059 14.6878L50.7992 13.1305C51.4545 10.7199 50.0308 8.23601 47.6215 7.58066L43.8669 6.56047C41.4576 5.90512 38.9724 7.32758 38.3171 9.73814L37.9829 11.0153L36.6774 16.0048C35.9694 18.6071 37.5062 21.2912 40.1096 21.998Z" fill="#FFF3DE"/>
<path d="M47.6215 7.58102L43.8669 6.5607C42.9748 6.31802 42.0726 6.3609 41.2565 6.63263L44.7464 7.58089C47.1557 8.23624 48.5794 10.72 47.9241 13.1307L47.531 14.688L47.1133 16.3457C46.274 19.4336 43.7459 21.6103 40.7952 22.1516C44.8605 22.8898 48.8848 20.4066 49.9885 16.3457L50.4061 14.688L50.7992 13.1307C51.4546 10.7201 50.0307 8.23637 47.6215 7.58102Z" fill="#FFE5C2"/>
<path d="M37.9829 11.0158L50.4059 14.6883L50.7991 13.1309C51.4545 10.7204 50.0308 8.2365 47.6215 7.58115L43.8668 6.56096C41.4576 5.90561 38.9724 7.32807 38.3171 9.73863L37.9829 11.0158Z" fill="#5A74D1"/>
<path d="M47.6215 7.58102L43.8668 6.5607C42.9748 6.31802 42.0725 6.3609 41.2565 6.63263L44.7463 7.58089C47.1556 8.23624 48.5794 10.72 47.924 13.1307L47.7306 13.8972L50.406 14.6881L50.7991 13.1308C51.4545 10.7201 50.0306 8.23637 47.6215 7.58102Z" fill="#4F66D0"/>
<path d="M65.2888 60.3542L63.5916 51.4608C63.5904 51.4554 63.5894 51.4499 63.5883 51.4443C63.296 50.0474 62.0475 49.0335 60.6197 49.0335H59.0454V35.8022C59.0454 31.5952 57.6329 27.5262 55.0684 24.345C53.2424 22.0794 51.2101 20.6738 49.0063 20.1451C49.8749 19.1515 50.5379 17.9521 50.9066 16.5952C51.318 15.1712 51.8919 13.5008 51.9093 12.0094C51.9346 9.84675 50.664 7.83199 48.6571 6.94208C48.4061 6.83082 44.1167 5.64267 44.1167 5.64267C41.2295 4.85729 38.1784 6.62112 37.3966 9.49776L35.7594 15.7556C34.7104 19.6105 37.6822 22.8533 41.4044 23.1955V32.0983L41.2767 32.4398L33.7271 29.6165C32.9157 29.3126 31.9691 29.5891 31.4503 30.282C30.6807 30.0266 29.7861 29.8602 29.1225 29.3847C28.503 28.9407 27.9672 28.2775 27.4158 27.7489C27.0188 27.3684 26.452 27.2508 25.9364 27.4417C25.4208 27.6328 25.0674 28.0913 25.014 28.6385C24.8567 30.2513 24.6721 31.8385 25.9874 33.0745L29.6547 36.5205C29.7453 36.6061 29.8563 36.6744 29.9729 36.7183L41.3968 40.9908C41.3408 41.461 40.9403 41.827 40.4552 41.827H29.6989C26.7358 41.827 24.3251 44.2376 24.3251 47.2007V52.4588C24.3251 55.4213 26.7357 57.8314 29.6989 57.8314H48.1032L49.4409 59.3893C49.7647 59.7665 50.2354 59.9828 50.7325 59.9828H52.8174C54.109 59.9828 54.8554 58.598 54.3314 57.4775C57.0849 56.5534 59.045 53.9228 59.045 50.9405V50.9367H60.6193C61.1492 50.9367 61.6126 51.3109 61.724 51.8276L63.4207 60.7182C63.55 61.4129 63.0514 62.0976 62.3167 62.0976H3.68276C2.95484 62.0976 2.44158 61.4124 2.57871 60.7182L4.27544 51.8274C4.38682 51.3109 4.85023 50.9367 5.37999 50.9367H20.7499C21.2753 50.9367 21.7013 50.5108 21.7013 49.9852C21.7013 49.4596 21.2753 49.0338 20.7499 49.0338H5.38037C3.95258 49.0338 2.70404 50.0476 2.41189 51.4446C2.41075 51.4502 2.40961 51.4556 2.40859 51.4611L0.711355 60.3537C0.329638 62.2084 1.79485 64.0003 3.68314 64.0003H62.317C64.2053 64.0004 65.6703 62.2095 65.2888 60.3542ZM40.907 7.82564C41.7344 7.3517 42.6971 7.22852 43.6174 7.47894L47.3719 8.49926C49.2718 9.01595 50.3976 10.9816 49.8811 12.8813C49.8257 13.0848 49.7776 13.2906 49.726 13.4951L39.1367 10.3647C39.3898 9.30456 39.9381 8.38027 40.907 7.82564ZM40.3588 21.0801C38.2842 20.5169 37.033 18.322 37.5978 16.2461L38.6547 12.2064L49.2603 15.3416L49.068 16.1044C48.5697 17.9294 47.3913 19.4518 45.749 20.3921C44.1083 21.3311 42.2007 21.5771 40.3765 21.0853C40.3707 21.0835 40.3647 21.0817 40.3588 21.0801ZM26.7649 30.2897L26.8121 29.806C28.0264 30.9699 29.1227 31.5143 30.7069 32.0401L29.916 34.1547L27.2906 31.6877C26.9108 31.3308 26.7144 30.8083 26.7649 30.2897ZM26.2284 52.4587V47.2005C26.2284 45.2866 27.7853 43.7297 29.6992 43.7297H35.0336V49.0331H33.0001C32.4746 49.0331 32.0486 49.459 32.0486 49.9846C32.0486 50.5102 32.4746 50.936 33.0001 50.936H45.4437C45.4966 50.936 45.5398 50.9791 45.5398 51.0322V55.9279L29.6992 55.9285C27.7853 55.9284 26.2284 54.3718 26.2284 52.4587ZM50.8251 58.0798L49.2622 56.2596C48.8274 55.7531 48.0166 55.928 47.4425 55.928V52.7857H49.4135C50.0535 52.7857 50.6168 53.1713 50.8487 53.7677L52.5242 58.0797L50.8251 58.0798ZM57.1424 50.9402C57.1424 53.1317 55.6811 55.0606 53.6416 55.7015L52.6223 53.0785C52.1039 51.7447 50.8444 50.8829 49.4135 50.8829H47.4349C47.3582 49.8502 46.4954 49.033 45.4436 49.033H36.9364V43.7296H40.4553C41.8491 43.7296 43.0119 42.7242 43.2582 41.4008C43.2747 41.401 43.2912 41.402 43.3076 41.402C43.9435 41.402 44.5778 41.2656 45.1738 40.994C46.2693 40.4948 47.1049 39.5991 47.5265 38.4714L48.7889 35.0961C48.9729 34.604 48.7232 34.0557 48.2311 33.8718C47.7395 33.6875 47.1908 33.9374 47.0068 34.4296L45.7444 37.8049C45.5007 38.4565 45.0179 38.974 44.385 39.2623C43.7521 39.5505 43.0448 39.5751 42.3932 39.3317L31.5308 35.2691L32.9615 31.4437C32.9821 31.4015 33.0151 31.3864 33.0605 31.3987L41.5012 34.5554C41.9932 34.7398 42.5416 34.4899 42.7255 33.9976L45.194 27.3977C45.8282 25.7019 48.2937 25.6613 49.0373 27.2933C49.2633 27.7896 49.2827 28.3442 49.0917 28.8552L48.5775 30.23C48.3934 30.7222 48.6432 31.2703 49.1353 31.4543C49.6273 31.6387 50.1757 31.3886 50.3596 30.8965L50.8738 29.5218C51.2429 28.5349 51.2056 27.4632 50.7689 26.5044C50.332 25.5456 49.5479 24.8144 48.5613 24.4453C46.3585 23.6166 44.051 24.8202 43.3072 27.0109V23.1674C44.6567 23.002 45.9423 22.5317 47.0707 21.8105C49.4261 21.8432 51.6179 23.0968 53.5866 25.5395C55.8795 28.3838 57.1422 32.0286 57.1422 35.8026V50.9402H57.1424Z" fill="black"/>
<path d="M14.1512 23.4387C19.0828 23.4387 23.2145 19.2838 23.2502 14.3677C23.2519 13.7776 22.8517 13.2676 22.277 13.1277C21.7036 12.988 21.1141 13.2562 20.8445 13.7803C20.0421 15.3401 18.3893 16.3093 16.6367 16.2508C14.254 16.1706 12.3247 14.2412 12.2444 11.8586C12.1854 10.1049 13.1551 8.45331 14.7148 7.65081C15.9362 7.0226 15.3663 5.21221 14.0465 5.24557C9.16872 5.30164 5.13615 9.31519 5.05762 14.1921C5.01753 16.6793 5.96339 19.0169 7.72088 20.7744C9.4426 22.4961 11.721 23.4387 14.1512 23.4387ZM11.8807 7.52154C10.8588 8.72809 10.2877 10.2943 10.3425 11.9224C10.4562 15.3021 13.1928 18.0387 16.5725 18.1525C18.2006 18.2055 19.7668 17.6365 20.9731 16.6146C19.2928 21.575 12.7932 23.1554 9.06634 19.4288C7.67648 18.039 6.9284 16.1901 6.96011 14.2228C7.0101 11.1275 9.07408 8.47221 11.8807 7.52154Z" fill="black"/>
<path d="M21.3341 4.81184C21.867 4.81184 22.2989 4.3799 22.2989 3.84708C22.2989 3.31426 21.867 2.88232 21.3341 2.88232C20.8013 2.88232 20.3694 3.31426 20.3694 3.84708C20.3694 4.3799 20.8013 4.81184 21.3341 4.81184Z" fill="black"/>
<path d="M25.8055 9.62678C26.3383 9.62678 26.7702 9.19484 26.7702 8.66202C26.7702 8.1292 26.3383 7.69727 25.8055 7.69727C25.2726 7.69727 24.8407 8.1292 24.8407 8.66202C24.8407 9.19484 25.2726 9.62678 25.8055 9.62678Z" fill="black"/>
<path d="M26.7702 1.92951C27.303 1.92951 27.7349 1.49758 27.7349 0.964757C27.7349 0.431936 27.303 0 26.7702 0C26.2374 0 25.8054 0.431936 25.8054 0.964757C25.8054 1.49758 26.2374 1.92951 26.7702 1.92951Z" fill="black"/>
<path d="M10.3595 52.7369C9.47501 52.7369 8.72845 53.3702 8.58421 54.2429L7.93927 58.1464C7.85288 58.6687 7.9999 59.2 8.34229 59.6037C8.68469 60.0073 9.18489 60.239 9.71439 60.239H19.5214C20.5136 60.239 21.3207 59.4319 21.3207 58.4397V54.536C21.3207 53.544 20.5136 52.7368 19.5214 52.7368L10.3595 52.7369ZM19.4179 58.3362H9.83656L10.4473 54.6398H19.4178V58.3362H19.4179Z" fill="black"/>
<path d="M48.0648 42.8689C47.6931 42.4975 47.0908 42.4975 46.7192 42.8689C46.3477 43.2406 46.3477 43.8429 46.7192 44.2145L50.4542 47.9495C50.64 48.1352 50.8836 48.228 51.127 48.228C51.3705 48.228 51.6141 48.1352 51.7999 47.9495C52.1715 47.5778 52.1715 46.9754 51.7999 46.6039L48.0648 42.8689Z" fill="black"/>
</svg>
