<svg width="56" height="64" viewBox="0 0 56 64" fill="none" xmlns="http://www.w3.org/2000/svg">
<path d="M48.9787 3.443V5.92875C49.2723 5.8255 49.5877 5.76862 49.9162 5.76862C50.2447 5.76862 50.5601 5.82538 50.8537 5.92875V3.443C51.8687 3.06188 52.5943 2.08413 52.5943 0.9375C52.5943 0.419625 52.1747 0 51.6568 0C51.1389 0 50.7193 0.419625 50.7193 0.9375C50.7193 1.38038 50.3591 1.74075 49.9162 1.74075C49.4733 1.74075 49.1129 1.38038 49.1129 0.9375C49.1129 0.419625 48.6933 0 48.1754 0C47.6576 0 47.2379 0.419625 47.2379 0.9375C47.2379 2.08413 47.9636 3.06188 48.9787 3.443Z" fill="#FFD15B"/>
<path d="M5.14618 3.443V5.92875C5.43981 5.8255 5.75518 5.76862 6.08368 5.76862C6.41218 5.76862 6.72756 5.82538 7.02118 5.92875V3.443C8.03631 3.06188 8.76193 2.08413 8.76193 0.9375C8.76193 0.419625 8.34231 0 7.82443 0C7.30656 0 6.88693 0.419625 6.88693 0.9375C6.88693 1.38038 6.52656 1.74075 6.08368 1.74075C5.64081 1.74075 5.28043 1.38038 5.28043 0.9375C5.28043 0.419625 4.86081 0 4.34293 0C3.82506 0 3.40543 0.419625 3.40543 0.9375C3.40543 2.08413 4.13106 3.06188 5.14618 3.443Z" fill="#FFD15B"/>
<path d="M52.8753 10.8277V8.60317C52.8753 6.96892 51.5504 5.64404 49.9162 5.64404C48.2819 5.64404 46.957 6.96892 46.957 8.60317V10.8277H52.8753Z" fill="#F3EAE6"/>
<path d="M49.9162 5.64404C49.4414 5.64404 48.9932 5.75642 48.5956 5.95517C49.5668 6.44054 50.234 7.44367 50.234 8.60317V10.8277H52.8753V8.60317C52.8753 6.96892 51.5504 5.64404 49.9162 5.64404Z" fill="#E1D3CE"/>
<path d="M46.9571 21.4683H52.8753V32.2354H46.9571V21.4683Z" fill="#F3EAE6"/>
<path d="M50.2341 21.4683H52.8753V32.2354H50.2341V21.4683Z" fill="#E1D3CE"/>
<path d="M44.8142 14.6494V18.733C44.8142 19.0892 44.9483 19.4322 45.1897 19.6939L46.957 21.6097H52.8752L54.6425 19.6939C54.884 19.4322 55.018 19.089 55.018 18.733V14.6494H44.8142Z" fill="#F9F3F1"/>
<path d="M55.204 33.3146L52.8754 32.1011H46.9571L44.6285 33.3146C44.5031 33.38 44.404 33.4803 44.3377 33.5993L46.8399 34.6167C47.0956 34.7206 47.2609 34.9663 47.2609 35.2424V36.2067H55.1599C55.3947 36.2067 55.585 36.0163 55.585 35.7816V33.9431C55.5851 33.6788 55.4382 33.4367 55.204 33.3146Z" fill="#22B27F"/>
<path d="M47.2608 42.8916V64.0001H51.5351C52.2753 64.0001 52.8753 63.4001 52.8753 62.6599V42.8916H47.2608Z" fill="#F3EAE6"/>
<path d="M50.1936 42.8916V64.0001H51.5351C52.2752 64.0001 52.8753 63.4001 52.8753 62.6599V42.8916H50.1936Z" fill="#E1D3CE"/>
<path d="M44.8142 14.6494V18.733C44.8142 19.0892 44.9483 19.4322 45.1897 19.6939L46.9569 21.6097H52.8752L54.6424 19.6939C54.8839 19.4322 55.0179 19.089 55.0179 18.733V14.6494H44.8142Z" fill="#F9F3F1"/>
<path d="M52.3412 14.6494V18.733C52.3412 19.0892 52.2071 19.4322 51.9657 19.6939L50.1984 21.6098H52.8754L54.6427 19.6939C54.8842 19.4322 55.0182 19.089 55.0182 18.733V14.6494H52.3412Z" fill="#EFE2DD"/>
<path d="M44.6726 14.7915H55.1599C55.3948 14.7915 55.585 14.6012 55.585 14.3664V12.5279C55.585 12.2638 55.4382 12.0215 55.2039 11.8995L52.8753 10.686H46.9571L44.6284 11.8995C44.3942 12.0217 44.2473 12.2638 44.2473 12.5279V14.3664C44.2473 14.6012 44.4377 14.7915 44.6726 14.7915Z" fill="#22B27F"/>
<path d="M55.2039 11.899L52.8753 10.6855H50.2233L52.5519 11.899C52.7862 12.0212 52.933 12.2633 52.933 12.5274V14.3659C52.933 14.6007 52.7427 14.791 52.5079 14.791H55.1599C55.3947 14.791 55.585 14.6007 55.585 14.3659V12.5274C55.585 12.2633 55.4382 12.0212 55.2039 11.899Z" fill="#09A76D"/>
<path d="M9.04281 10.8277V8.60317C9.04281 6.96892 7.71793 5.64404 6.08368 5.64404C4.44943 5.64404 3.12456 6.96892 3.12456 8.60317V10.8277H9.04281Z" fill="#F3EAE6"/>
<path d="M6.08368 5.64404C5.61031 5.64404 5.16318 5.75579 4.76643 5.95342C5.73943 6.43804 6.40831 7.44229 6.40831 8.60317V10.8277H9.04268V8.60317C9.04281 6.96892 7.71793 5.64404 6.08368 5.64404Z" fill="#E1D3CE"/>
<path d="M8.73896 42.8916H3.12459V62.6599C3.12459 63.4 3.72459 64.0001 4.46484 64.0001H8.73909L8.73896 42.8916Z" fill="#F3EAE6"/>
<path d="M6.11084 42.8916H8.73897V64.0001H6.11084V42.8916Z" fill="#E1D3CE"/>
<path d="M3.12456 21.4683H9.04281V32.2354H3.12456V21.4683Z" fill="#F3EAE6"/>
<path d="M6.40846 21.4683H9.04284V32.2354H6.40846V21.4683Z" fill="#E1D3CE"/>
<path d="M0.981682 14.6494V18.733C0.981682 19.0892 1.11581 19.4322 1.35718 19.6939L3.12443 21.6097H9.04268L10.8099 19.6939C11.0514 19.4322 11.1854 19.089 11.1854 18.733V14.6494H0.981682Z" fill="#F9F3F1"/>
<path d="M8.51544 14.6494V18.733C8.51544 19.0892 8.38131 19.4322 8.13994 19.6939L6.37269 21.6098H9.04281L10.8101 19.6939C11.0516 19.4322 11.1856 19.089 11.1856 18.733V14.6494H8.51544Z" fill="#EFE2DD"/>
<path d="M0.84006 14.7915H11.3274C11.5622 14.7915 11.7526 14.6012 11.7526 14.3664V12.5279C11.7526 12.2638 11.6057 12.0215 11.3714 11.8995L9.04281 10.686H3.12456L0.795935 11.8995C0.561685 12.0217 0.41481 12.2638 0.41481 12.5279V14.3664C0.41481 14.6012 0.605185 14.7915 0.84006 14.7915Z" fill="#22B27F"/>
<path d="M11.3714 11.899L9.04281 10.6855H6.39756L8.72618 11.899C8.96043 12.0212 9.10731 12.2633 9.10731 12.5274V14.3659C9.10731 14.6007 8.91694 14.791 8.68219 14.791H11.3274C11.5622 14.791 11.7526 14.6007 11.7526 14.3659V12.5274C11.7526 12.2633 11.6056 12.0212 11.3714 11.899Z" fill="#09A76D"/>
<path d="M47.2608 36.0654V43.0258H52.8753L54.6426 41.1099C54.8841 40.8482 55.0181 40.5051 55.0181 40.1491V36.0654H47.2608Z" fill="#F9F3F1"/>
<path d="M52.3364 36.0654V40.1491C52.3364 40.5052 52.2024 40.8482 51.9609 41.1099L50.1937 43.0258H52.8754L54.6427 41.1099C54.8842 40.8482 55.0182 40.5051 55.0182 40.1491V36.0654H52.3364Z" fill="#EFE2DD"/>
<path d="M55.2039 33.3151L52.8753 32.1016H46.9571L44.6284 33.3151C44.5031 33.3804 44.4039 33.4808 44.3377 33.5998L46.8398 34.6172C47.0956 34.7211 47.2608 34.9668 47.2608 35.2429V36.2072H55.1598C55.3947 36.2072 55.5849 36.0168 55.5849 35.7821V33.9436C55.5851 33.6793 55.4382 33.4372 55.2039 33.3151Z" fill="#22B27F"/>
<path d="M55.2039 33.3151L52.8753 32.1016H50.2233L52.5519 33.3151C52.7862 33.4371 52.9331 33.6793 52.9331 33.9434V35.7819C52.9331 36.0168 52.7427 36.2071 52.5079 36.2071H55.1599C55.3948 36.2071 55.5852 36.0167 55.5852 35.7819V33.9434C55.5851 33.6793 55.4382 33.4371 55.2039 33.3151Z" fill="#09A76D"/>
<path d="M8.73893 36.0654H0.981682V40.1491C0.981682 40.5052 1.11581 40.8482 1.35718 41.1099L3.12443 43.0258H8.73893V36.0654Z" fill="#F9F3F1"/>
<path d="M6.06881 36.0654H8.73893V43.0258H6.06881V36.0654Z" fill="#EFE2DD"/>
<path d="M8.73894 35.2426C8.73894 34.9664 8.90419 34.7207 9.15993 34.6168L11.6621 33.5994C11.5958 33.4803 11.4967 33.38 11.3713 33.3146L9.04269 32.1011H3.12456L0.795935 33.3146C0.561685 33.4367 0.41481 33.6788 0.41481 33.943V35.7814C0.41481 36.0163 0.605185 36.2066 0.839935 36.2066H8.73894V35.2426Z" fill="#22B27F"/>
<path d="M11.3714 33.3151L9.04281 32.1016H6.26906L8.59768 33.3151C8.83193 33.4371 8.97881 33.6793 8.97881 33.9434V34.7271C9.03218 34.6821 9.09268 34.6444 9.16006 34.6172L11.6622 33.5998C11.5959 33.4808 11.4968 33.3804 11.3714 33.3151Z" fill="#09A76D"/>
<path d="M8.64556 41.4451L27.9999 33.576L47.3478 41.4427L47.3949 41.463V35.2428C47.3949 34.9135 47.1954 34.617 46.8903 34.493L28.2176 26.901C28.0781 26.8442 27.9218 26.8442 27.7823 26.901L9.10956 34.493C8.80444 34.617 8.60493 34.9135 8.60493 35.2428V41.4591L8.64556 41.4451Z" fill="#554E56"/>
<path d="M46.4117 52.3852C46.5164 52.3852 46.6192 52.4053 46.7172 52.4452L46.9488 52.5393C47.0622 52.5852 47.1634 52.6568 47.2456 52.7483L47.3951 52.7338V48.2844L27.9999 40.3989L27.8749 40.4497V64.0002H47.3949V53.848L47.2944 53.7737C47.1413 53.9809 46.8976 54.1047 46.6426 54.1047C46.5377 54.1047 46.4349 54.0845 46.3371 54.0447L46.1054 53.9506C45.6904 53.7818 45.4899 53.307 45.6587 52.8918C45.7838 52.5841 46.0793 52.3852 46.4117 52.3852Z" fill="#554E56"/>
<path d="M43.5509 33.6363V39.8989L47.3478 41.4427L47.3949 41.4629V35.2428C47.3949 34.9134 47.1954 34.6169 46.8903 34.4929L43.2628 33.0181C43.4421 33.1692 43.5509 33.3936 43.5509 33.6363Z" fill="#433F43"/>
<path d="M47.3949 53.8481C47.2173 54.0884 46.937 54.2298 46.6425 54.2298C46.525 54.2298 46.4055 54.2076 46.2899 54.1606L46.0583 54.0664C45.5787 53.8714 45.3478 53.3246 45.5428 52.8449C45.7378 52.3653 46.2847 52.1344 46.7643 52.3294L46.9959 52.4236C47.1612 52.4907 47.296 52.6003 47.3949 52.7339V48.2846L43.5509 46.7217V64.0002H47.3949V53.8481Z" fill="#433F43"/>
<path d="M8.64556 41.4451L27.9999 33.576V26.8584C27.9261 26.8584 27.8521 26.8726 27.7823 26.901L9.10956 34.493C8.80444 34.617 8.60493 34.9135 8.60493 35.2429V41.4591L8.64556 41.4451Z" fill="#685E68"/>
<path d="M8.60781 48.2834L8.60493 48.2821V52.7339L8.70893 52.8037C8.79768 52.6856 8.91581 52.5942 9.05093 52.5394L9.28269 52.4453C9.38081 52.4053 9.48369 52.3851 9.58844 52.3851C9.92056 52.3851 10.2161 52.5842 10.3412 52.8921C10.5099 53.3072 10.3094 53.7821 9.89443 53.9508L9.66281 54.0449C9.56494 54.0848 9.46219 54.1049 9.35731 54.1049C9.10231 54.1049 8.85856 53.9812 8.70543 53.7739L8.70368 53.7715L8.60493 53.8483V64.0002H27.9999V40.3989L8.60781 48.2834Z" fill="#685E68"/>
<path d="M36.6903 48.2337L35.5323 47.7628C35.0523 47.5674 34.5057 47.7987 34.3108 48.278C34.1157 48.7577 34.3464 49.3047 34.8261 49.4995L35.9841 49.9704C36.0998 50.0175 36.2193 50.0398 36.3368 50.0398C36.7069 50.0398 37.0577 49.819 37.2056 49.4552C37.4007 48.9757 37.1699 48.4287 36.6903 48.2337Z" fill="#FFD15B"/>
<path d="M32.6374 46.5857L32.4058 46.4916C31.926 46.2967 31.3792 46.5274 31.1843 47.0071C30.9893 47.4868 31.2202 48.0337 31.6998 48.2286L31.9314 48.3227C32.047 48.3697 32.1665 48.3919 32.284 48.3919C32.6543 48.3919 33.005 48.1712 33.1529 47.8072C33.3478 47.3274 33.117 46.7806 32.6374 46.5857Z" fill="#FFD15B"/>
<path d="M29.5111 45.3146L28.3531 44.8437C28.1958 44.7797 28.0317 44.7622 27.8749 44.7835V46.6732L28.8047 47.0512C28.9204 47.0984 29.0399 47.1206 29.1574 47.1206C29.5276 47.1206 29.8783 46.8999 30.0262 46.536C30.2213 46.0565 29.9907 45.5095 29.5111 45.3146Z" fill="#FFD15B"/>
<path d="M39.8164 49.5043L39.5847 49.4102C39.1049 49.2148 38.5581 49.4463 38.3633 49.9259C38.1683 50.4056 38.3993 50.9524 38.8791 51.1473L39.1108 51.2414C39.2263 51.2884 39.3458 51.3107 39.4632 51.3107C39.8334 51.3107 40.1843 51.0898 40.3321 50.7257C40.5272 50.2461 40.2962 49.6992 39.8164 49.5043Z" fill="#FFD15B"/>
<path d="M47.3949 52.7335C47.2959 52.5999 47.1612 52.4904 46.9959 52.4231L46.7643 52.329C46.2845 52.134 45.7377 52.3649 45.5428 52.8445C45.3478 53.3243 45.5787 53.8711 46.0583 54.066L46.2899 54.1602C46.4056 54.2072 46.525 54.2294 46.6425 54.2294C46.937 54.2294 47.2174 54.088 47.3949 53.8477V52.7335Z" fill="#FFD15B"/>
<path d="M43.8695 51.1526L42.7117 50.6818C42.2317 50.4864 41.685 50.7174 41.4902 51.197C41.295 51.6766 41.5258 52.2236 42.0054 52.4185L43.1633 52.8894C43.279 52.9365 43.3985 52.9588 43.516 52.9588C43.8862 52.9588 44.2369 52.7381 44.3848 52.3741C44.5799 51.8945 44.3492 51.3475 43.8695 51.1526Z" fill="#FFD15B"/>
<path d="M27.9999 33.4409L8.60493 41.3267V48.4193L27.9999 40.5335L47.3949 48.4193V41.3267L27.9999 33.4409Z" fill="#FFD15B"/>
<path d="M43.5509 46.8567L47.395 48.4195V41.327L43.5509 39.7642V46.8567Z" fill="#FFC344"/>
<path d="M27.9999 40.5335V33.4409L8.60493 41.3267V48.4192L27.9999 40.5335Z" fill="#FFE177"/>
<path d="M28.4074 22.0974L34.3548 10.5437C36.8036 5.787 33.3499 0.125 27.9999 0.125C22.6499 0.125 19.1963 5.787 21.6451 10.5437L27.5924 22.0974C27.7631 22.4288 28.2368 22.4288 28.4074 22.0974Z" fill="#FE646F"/>
<path d="M28 0.125C27.2928 0.125 26.6193 0.22475 25.9878 0.407375C30.1351 1.60662 32.4556 6.41562 30.3306 10.5437L25.9878 18.9801L27.5925 22.0974C27.7631 22.4288 28.2368 22.4288 28.4075 22.0974L34.3548 10.5437C36.8036 5.787 33.3501 0.125 28 0.125Z" fill="#FD4755"/>
<path d="M28 11.0305C29.7951 11.0305 31.2503 9.57529 31.2503 7.78016C31.2503 5.98503 29.7951 4.52979 28 4.52979C26.2048 4.52979 24.7496 5.98503 24.7496 7.78016C24.7496 9.57529 26.2048 11.0305 28 11.0305Z" fill="white"/>
<path d="M28 4.52979C27.5995 4.52979 27.2162 4.60266 26.862 4.73504C28.0957 5.19629 28.9743 6.38541 28.9743 7.78016C28.9743 9.17479 28.0957 10.3639 26.862 10.8253C27.2162 10.9578 27.5996 11.0305 28 11.0305C29.7951 11.0305 31.2503 9.57529 31.2503 7.78016C31.2503 5.98504 29.7951 4.52979 28 4.52979Z" fill="#F3EAE6"/>
<path d="M20.4675 47.7629L19.3095 48.2337C18.8298 48.4287 18.5991 48.9757 18.7942 49.4552C18.9422 49.8192 19.2928 50.0399 19.663 50.0399C19.7805 50.0399 19.9 50.0176 20.0157 49.9705L21.1737 49.4996C21.6533 49.3046 21.8841 48.7576 21.6889 48.2781C21.4941 47.7985 20.9476 47.5674 20.4675 47.7629Z" fill="#FFE177"/>
<path d="M23.5941 46.4913L23.3625 46.5854C22.8828 46.7804 22.652 47.3273 22.847 47.8069C22.995 48.1709 23.3456 48.3917 23.7158 48.3917C23.8332 48.3917 23.9528 48.3694 24.0685 48.3224L24.3001 48.2283C24.7797 48.0333 25.0106 47.4864 24.8156 47.0068C24.6207 46.5273 24.074 46.2958 23.5941 46.4913Z" fill="#FFE177"/>
<path d="M16.4151 49.4101L16.1833 49.5043C15.7036 49.6991 15.4726 50.246 15.6676 50.7256C15.8154 51.0899 16.1661 51.3106 16.5364 51.3106C16.6538 51.3106 16.7734 51.2884 16.8888 51.2414L17.1206 51.1472C17.6003 50.9524 17.8313 50.4055 17.6363 49.9259C17.4414 49.446 16.8946 49.215 16.4151 49.4101Z" fill="#FFE177"/>
<path d="M13.2882 50.6815L12.1303 51.1524C11.6507 51.3474 11.42 51.8944 11.6151 52.3739C11.7631 52.7379 12.1137 52.9585 12.4838 52.9585C12.6013 52.9585 12.721 52.9362 12.8366 52.8892L13.9945 52.4183C14.4741 52.2233 14.7048 51.6763 14.5097 51.1968C14.3148 50.7172 13.7678 50.4867 13.2882 50.6815Z" fill="#FFE177"/>
<path d="M28 44.7749C27.8823 44.7749 27.7626 44.7967 27.6468 44.8439L26.4888 45.3148C26.0092 45.5098 25.7785 46.0568 25.9736 46.5363C26.1216 46.9003 26.4722 47.1209 26.8423 47.1209C26.9598 47.1209 27.0793 47.0987 27.1951 47.0515L27.9998 46.7243V44.7749H28Z" fill="#FFE177"/>
<path d="M8.60495 52.7337V53.8478C8.78257 54.0882 9.06283 54.2296 9.35733 54.2296C9.4747 54.2296 9.59433 54.2073 9.70995 54.1603L9.94158 54.0662C10.4212 53.8712 10.6521 53.3243 10.4571 52.8447C10.2622 52.3652 9.71545 52.1337 9.23558 52.3292L9.00395 52.4233C8.8387 52.4905 8.70395 52.6001 8.60495 52.7337Z" fill="#FFE177"/>
<path d="M48.308 19.1689C47.7901 19.1689 47.3705 18.7493 47.3705 18.2314V17.6953C47.3705 17.1774 47.7901 16.7578 48.308 16.7578C48.8258 16.7578 49.2455 17.1774 49.2455 17.6953V18.2314C49.2455 18.7492 48.8257 19.1689 48.308 19.1689Z" fill="#FFD15B"/>
<path d="M51.5244 19.1689C51.0066 19.1689 50.5869 18.7493 50.5869 18.2314V17.6953C50.5869 17.1774 51.0066 16.7578 51.5244 16.7578C52.0423 16.7578 52.4619 17.1774 52.4619 17.6953V18.2314C52.4619 18.7492 52.0423 19.1689 51.5244 19.1689Z" fill="#FFD15B"/>
<path d="M4.47543 19.1689C3.95756 19.1689 3.53793 18.7493 3.53793 18.2314V17.6953C3.53793 17.1774 3.95756 16.7578 4.47543 16.7578C4.99331 16.7578 5.41293 17.1774 5.41293 17.6953V18.2314C5.41293 18.7492 4.99318 19.1689 4.47543 19.1689Z" fill="#FFD15B"/>
<path d="M7.69195 19.1689C7.17407 19.1689 6.75445 18.7493 6.75445 18.2314V17.6953C6.75445 17.1774 7.17407 16.7578 7.69195 16.7578C8.20982 16.7578 8.62945 17.1774 8.62945 17.6953V18.2314C8.62945 18.7492 8.20982 19.1689 7.69195 19.1689Z" fill="#FFD15B"/>
</svg>
