<svg width="50" height="50" viewBox="0 0 50 50" fill="none" xmlns="http://www.w3.org/2000/svg">
<path fill-rule="evenodd" clip-rule="evenodd" d="M22.3427 0V6.02927L24.315 23.1479C24.313 23.1486 24.311 23.1493 24.309 23.15L13.4647 9.70725L9.20133 5.44395L7.39183 7.25348L5.44392 9.20217L9.70725 13.4655L23.1663 24.1436C23.1611 24.1537 23.1558 24.1639 23.1508 24.1742L6.02927 22.3424H0V24.9015V27.6574H6.02927L23.0217 25.6996C23.0293 25.725 23.0375 25.7502 23.0462 25.7752L9.70717 36.5358L5.44383 40.7992L7.253 42.6083L9.20142 44.5574L13.4648 40.2941L24.0596 26.9399C24.0924 26.9567 24.1258 26.9727 24.1596 26.9877L22.3427 43.9706V49.9998H24.9015L27.6574 50V43.9707L25.7069 27.0416C25.7423 27.0288 25.7773 27.0149 25.8118 27.0002L36.5353 40.2931L40.7987 44.5564L42.6082 42.7469L44.5561 40.798L40.2928 36.5347L26.9014 25.9103C26.9122 25.8853 26.9223 25.8601 26.9321 25.8345L43.9708 27.6574H50.0001V25.0984V22.3426H43.9708L26.9103 24.3082C26.9053 24.2961 26.9002 24.2841 26.895 24.2722L40.2929 13.464L44.5563 9.20067L42.7472 7.39156L40.7987 5.44256L36.5353 9.70592L25.8266 23.2037C25.8245 23.2027 25.8223 23.2018 25.8203 23.2009L27.6574 6.02927V0H25.0986H22.3427Z" fill="#FFD54F"/>
</svg>
