<svg width="20" height="20" viewBox="0 0 20 20" fill="none" xmlns="http://www.w3.org/2000/svg">
<path fill-rule="evenodd" clip-rule="evenodd" d="M2.5 1.25C2.5 1.94035 1.94035 2.5 1.25 2.5C0.55965 2.5 0 1.94035 0 1.25C0 0.55965 0.55965 0 1.25 0C1.94035 0 2.5 0.55965 2.5 1.25ZM2.5 10C2.5 10.6904 1.94035 11.25 1.25 11.25C0.55965 11.25 0 10.6904 0 10C0 9.30963 0.55965 8.75 1.25 8.75C1.94035 8.75 2.5 9.30963 2.5 10ZM1.25 20C1.94035 20 2.5 19.4404 2.5 18.75C2.5 18.0596 1.94035 17.5 1.25 17.5C0.55965 17.5 0 18.0596 0 18.75C0 19.4404 0.55965 20 1.25 20ZM11.25 10C11.25 10.6904 10.6904 11.25 10 11.25C9.30963 11.25 8.75 10.6904 8.75 10C8.75 9.30963 9.30963 8.75 10 8.75C10.6904 8.75 11.25 9.30963 11.25 10ZM10 2.5C10.6904 2.5 11.25 1.94035 11.25 1.25C11.25 0.55965 10.6904 0 10 0C9.30963 0 8.75 0.55965 8.75 1.25C8.75 1.94035 9.30963 2.5 10 2.5ZM11.25 18.75C11.25 19.4404 10.6904 20 10 20C9.30963 20 8.75 19.4404 8.75 18.75C8.75 18.0596 9.30963 17.5 10 17.5C10.6904 17.5 11.25 18.0596 11.25 18.75ZM18.75 11.25C19.4404 11.25 20 10.6904 20 10C20 9.30963 19.4404 8.75 18.75 8.75C18.0596 8.75 17.5 9.30963 17.5 10C17.5 10.6904 18.0596 11.25 18.75 11.25ZM20 1.25C20 1.94035 19.4404 2.5 18.75 2.5C18.0596 2.5 17.5 1.94035 17.5 1.25C17.5 0.55965 18.0596 0 18.75 0C19.4404 0 20 0.55965 20 1.25ZM18.75 20C19.4404 20 20 19.4404 20 18.75C20 18.0596 19.4404 17.5 18.75 17.5C18.0596 17.5 17.5 18.0596 17.5 18.75C17.5 19.4404 18.0596 20 18.75 20Z" fill="#03060E"/>
</svg>
