<svg width="58" height="48" viewBox="0 0 58 48" fill="none" xmlns="http://www.w3.org/2000/svg">
<path d="M1.62623 48H57.0127C57.5225 47.9952 57.9318 47.578 57.927 47.0682C57.9261 46.9663 57.9083 46.8653 57.8743 46.7692L52.8402 33.7103C52.7109 33.3446 52.3666 33.0987 51.9786 33.0949H22.0023C22.0023 32.3379 22.0023 31.1195 21.9407 29.5625C23.0438 29.4249 24.0324 28.8138 24.6485 27.8886C25.1363 26.9861 25.2341 25.9234 24.9193 24.9469L31.2949 13.8266C32.3568 13.6037 33.3822 13.2328 34.3412 12.725C35.812 15.3097 40.883 14.6328 43.5722 13.2112C44.3845 12.9589 49.6217 11.1804 49.1847 7.83868C48.9444 5.21071 47.7619 2.75834 45.8554 0.933878C43.4799 -1.52774 38.6859 1.61082 38.1135 2.00471C37.4886 2.34318 36.9266 2.78658 36.4519 3.31557C35.2205 1.98187 33.5744 1.1036 31.781 0.823177C31.0178 0.490835 19.8729 0.269313 18.5129 0.423164H18.0636C11.2941 0.109331 6.77701 4.95252 6.30932 13.082C6.21088 14.8051 6.13696 16.276 6.09393 17.3406C5.72469 27.5502 5.56471 33.6488 5.55858 33.7103C5.55798 33.913 5.62036 34.1108 5.73707 34.2765C5.86544 34.442 6.00523 34.5982 6.15559 34.7441L0.783055 46.6953C0.575717 47.1648 0.788224 47.7135 1.25771 47.9208C1.37394 47.9721 1.49931 47.999 1.62623 48ZM21.2392 14.4174C21.8115 14.3681 22.3591 14.3373 22.8946 14.3128L21.4669 18.0052C21.4013 16.8277 21.3253 15.6317 21.2392 14.4174ZM23.0854 26.9654C22.7934 27.3524 22.3637 27.6125 21.8853 27.6916L21.7622 24.3069L23.1284 25.4085C23.3137 25.9158 23.2895 26.4761 23.0607 26.9655L23.0854 26.9654ZM44.5261 2.21385C45.3106 2.96267 45.9602 3.84131 46.4461 4.81081C46.9534 5.83236 47.2603 6.94165 47.3507 8.07859C47.5168 9.34017 45.3014 10.5771 43.7137 11.2049L39.812 3.11232C41.2952 2.25688 43.6462 1.29687 44.5261 2.21385ZM38.249 4.12161L41.9907 11.8818C39.6399 12.7988 36.569 13.1927 35.7382 11.4696C34.8581 9.65412 36.3043 5.76469 38.249 4.12161ZM18.5621 2.24462C19.2206 2.24462 29.0671 2.16457 31.4856 2.61999C32.9951 2.848 34.3659 3.6288 35.3319 4.81081C34.1565 6.65703 33.4364 9.0386 33.7196 10.9649C33.3774 11.1562 33.0239 11.3268 32.6612 11.4757L33.3135 10.3433C33.9658 9.03247 31.9042 8.38629 31.5227 9.72792L23.6455 23.4822L21.8731 22.0545L26.7963 9.34642C26.9798 8.87056 26.7429 8.33605 26.2671 8.15251C25.7912 7.96897 25.2567 8.20588 25.0732 8.68174L23.6208 12.4357C22.5561 12.4665 21.4115 12.528 20.1499 12.6634C19.6568 12.7183 19.2953 13.1532 19.3314 13.648C19.559 16.725 19.7253 19.759 19.8484 22.4729L20.0884 28.7193C20.1499 30.9348 20.1684 32.5902 20.1807 33.421C11.8912 37.1135 8.27874 34.2333 7.45407 33.3841C7.47258 31.9379 7.63869 26.1961 7.95866 17.3897C7.99556 16.3374 8.06948 14.8788 8.16792 13.1681C8.58019 6.06013 12.2481 1.97382 18.0144 2.24462H18.5621ZM15.0543 40.3443C15.0706 40.806 15.4255 41.1846 15.8851 41.2305C16.9252 41.3351 18.5191 41.4459 18.5129 41.8459C18.6482 42.5168 16.9929 42.7937 16.5067 42.8614C15.2255 42.837 13.9488 42.701 12.6911 42.4552V37.1012H12.802C13.5007 37.0892 14.1977 37.0296 14.8882 36.9227L15.0543 40.3443ZM7.66946 35.858C8.64702 36.3998 9.71449 36.7606 10.8203 36.9227V43.1876C10.8199 43.6181 11.1154 43.9924 11.5341 44.0922C13.1519 44.4538 14.8005 44.6599 16.4574 44.7076H16.6605C17.8913 44.5599 20.0391 43.8152 20.396 41.9505C20.4647 41.5616 20.3665 41.1617 20.1252 40.8489C19.5098 40.0612 17.959 39.6858 16.8389 39.5135L16.6973 36.615C18.2433 36.2145 19.7491 35.6727 21.1959 34.9964H51.3507L55.6586 46.1846H3.05392L7.66946 35.858Z" fill="#03060E"/>
</svg>
