<svg width="21" height="24" viewBox="0 0 21 24" fill="none" xmlns="http://www.w3.org/2000/svg">
<path d="M15.2352 20.2246H14.9578C14.524 17.7077 14.4542 15.1254 12.9512 13.6514C11.4788 12.2077 9.55322 11.761 8.27567 10.5925V10.0455C8.39272 9.98951 8.47432 9.87089 8.47432 9.73272C8.47432 9.59448 8.39272 9.47585 8.27567 9.41976V9.1873C8.30618 9.15233 8.32531 9.10714 8.32531 9.05715C8.32531 8.94743 8.12666 8.38152 8.12666 8.38152C8.12666 8.38152 7.92794 8.94743 7.92794 9.05715C7.92794 9.10721 7.94707 9.15246 7.97766 9.18737V9.41976C7.86054 9.47578 7.77894 9.59448 7.77894 9.73272C7.77894 9.87096 7.8606 9.98952 7.97766 10.0456V10.5925C6.7001 11.761 4.77441 12.2077 3.30211 13.6515C1.79903 15.1256 1.72915 17.7078 1.29544 20.2246H1.01793L0.541016 21.4566H15.7122L15.2352 20.2246ZM3.29238 20.1749H2.75368V19.3999H3.29238V20.1749ZM4.9935 20.1749H4.45487V19.3999H4.9935V20.1749ZM6.69468 20.1749H6.15606V19.3999H6.69468V20.1749ZM8.39601 20.1749H7.85724V19.3999H8.39601V20.1749ZM10.0971 20.1749H9.55836V19.3999H10.0971V20.1749ZM11.7982 20.1749H11.2596V19.3999H11.7982V20.1749ZM13.4994 20.1749H12.9607V19.3999H13.4994V20.1749Z" fill="white"/>
<path d="M19.3173 15.4795V14.8924L18.6758 14.3327L17.8562 15.0482L17.0364 14.3328L16.3962 14.8916V15.4795H15.353V17.4268H16.1069V22.0924H0.0117188V24H16.107H16.2412H19.6064V17.4269H20.3606V15.4796L19.3173 15.4795ZM18.5606 21.7811H17.153V19.873H17.3477V19.1221L17.8568 18.6217L18.3659 19.1221V19.873H18.5606L18.5606 21.7811Z" fill="white"/>
<path d="M17.0367 12.7232L16.3965 13.282V14.496L17.0367 13.9371L17.8565 14.6526L18.6759 13.9371L19.3175 14.4969V13.2828L18.676 12.7232L17.8565 13.4386L17.0367 12.7232Z" fill="white"/>
<path d="M15.9531 10.9688L16.3955 12.3449V12.8864L17.0357 12.3276L17.8554 13.0429L18.6749 12.3276L19.3165 12.8872V12.3446L19.7588 10.9688H19.3165V5.42942L19.7588 4.05367H18.5836V2.85387C18.5836 2.50313 18.3353 2.2104 18.005 2.14162V1.66402C18.122 1.608 18.2037 1.48937 18.2037 1.35127C18.2037 1.21303 18.122 1.0944 18.005 1.03831V0.805783C18.0356 0.77088 18.0547 0.725623 18.0547 0.675566C18.0547 0.565851 17.856 0 17.856 0C17.856 0 17.6573 0.56592 17.6573 0.675566C17.6573 0.725691 17.6765 0.77088 17.707 0.805783V1.03838C17.5899 1.0944 17.5083 1.21303 17.5083 1.35127C17.5083 1.48944 17.5899 1.608 17.707 1.66402V2.14162C17.3766 2.2104 17.1284 2.50306 17.1284 2.85387V4.05367H15.9531L16.3955 5.42976V10.9688H15.9531V10.9688ZM17.4576 6.19269H17.5678V5.76768L17.856 5.48441L18.1441 5.76768V6.19269H18.2542V7.27282H17.4575V6.19269H17.4576ZM17.4576 8.75595H17.5678V8.33115L17.856 8.04775L18.1441 8.33115V8.75595H18.2542V9.83609H17.4575V8.75595H17.4576Z" fill="white"/>
</svg>
