<svg width="44" height="48" viewBox="0 0 44 48" fill="none" xmlns="http://www.w3.org/2000/svg">
<path d="M1.4445 24.0093C1.4445 10.1136 13.9118 -0.477392 27.6096 1.71257C25.2422 2.47853 23.0199 3.67625 21.0702 5.24862C20.7668 5.49325 20.7193 5.93753 20.9639 6.24086C21.2084 6.5441 21.6527 6.5919 21.9561 6.34709C24.0221 4.68091 26.4167 3.46738 28.9648 2.78356V10.6729C27.3563 11.0007 26.1422 12.4262 26.1422 14.1301V14.6221C23.318 18.8642 23.3433 18.7477 23.3226 19.0168C23.3007 19.3082 23.2532 18.9734 26.1422 26.2621V28.9488C26.1422 29.3386 26.4581 29.6544 26.8479 29.6544H32.4931C32.8829 29.6544 33.1987 29.3386 33.1987 28.9488V26.2621C36.191 18.7182 36.2013 19.1319 35.9 18.6741C35.7075 18.3855 33.332 14.822 33.1987 14.6222V14.1302C33.1987 12.4263 31.9846 11.0008 30.3761 10.673V2.46385C30.5169 2.43741 30.6575 2.4106 30.799 2.38736C31.1234 2.3342 31.3681 2.06389 31.389 1.73581C31.41 1.40773 31.2014 1.10863 30.8863 1.01473C15.502 -3.56936 0.0332031 7.95286 0.0332031 24.0093C0.0332031 30.4132 2.52527 36.4345 7.05056 40.9638C7.32614 41.2396 7.77286 41.2397 8.04844 40.9643C8.32421 40.6888 8.3244 40.242 8.04891 39.9664C3.78999 35.7035 1.4445 30.0366 1.4445 24.0093ZM31.7874 28.2432H27.5535V26.8319H31.7874V28.2432ZM32.0153 25.4206H27.3257L25.0676 19.7754H34.2734L32.0153 25.4206ZM25.3438 18.3641L27.2255 15.5415H32.1155L33.9972 18.3641H25.3438ZM31.7874 14.1302H27.5535C27.5535 12.9629 28.5032 12.0133 29.6705 12.0133C30.8377 12.0133 31.7874 12.963 31.7874 14.1302Z" fill="#03060E"/>
<path d="M41.1848 38.7979C38.8736 39.7542 36.424 40.2392 33.9042 40.2392C23.3986 40.2392 14.8516 31.6922 14.8516 21.1866C14.8516 17.2786 16.0264 13.5231 18.2489 10.3263C18.4713 10.0063 18.3923 9.56656 18.0723 9.34414C17.7523 9.12163 17.3125 9.20066 17.0901 9.52074C14.7024 12.9551 13.4403 16.9891 13.4403 21.1866C13.4403 34.4828 25.9303 44.2504 38.8339 41.0529C31.3741 47.5302 20.6439 48.3657 12.3438 43.3378C12.0107 43.1361 11.5767 43.2423 11.3747 43.5758C11.1728 43.9091 11.2793 44.3429 11.6126 44.5449C21.4292 50.4911 34.2467 48.6433 41.9826 39.9179C42.2006 39.6719 42.22 39.3081 42.0293 39.0403C41.8387 38.7727 41.4885 38.672 41.1848 38.7979Z" fill="#03060E"/>
<path d="M19.5045 8.48503C19.8942 8.48503 20.2101 8.1691 20.2101 7.77938C20.2101 7.38966 19.8942 7.07373 19.5045 7.07373C19.1148 7.07373 18.7988 7.38966 18.7988 7.77938C18.7988 8.1691 19.1148 8.48503 19.5045 8.48503Z" fill="#03060E"/>
<path d="M9.64413 43.0619C10.0338 43.0619 10.3498 42.746 10.3498 42.3563C10.3498 41.9666 10.0338 41.6506 9.64413 41.6506C9.25441 41.6506 8.93848 41.9666 8.93848 42.3563C8.93848 42.746 9.25441 43.0619 9.64413 43.0619Z" fill="#03060E"/>
<path d="M42.3722 8.93656C40.7536 8.93656 39.4367 7.61972 39.4367 6.00106C39.4367 5.61135 39.1209 5.29541 38.7311 5.29541H38.59C38.2002 5.29541 37.8843 5.61135 37.8843 6.00106C37.8843 7.61972 36.5675 8.93656 34.9488 8.93656C34.559 8.93656 34.2432 9.2525 34.2432 9.64221V9.78334C34.2432 10.173 34.559 10.489 34.9488 10.489C36.5675 10.489 37.8843 11.8059 37.8843 13.4245C37.8843 13.8142 38.2002 14.1301 38.59 14.1301H38.7311C39.1209 14.1301 39.4367 13.8142 39.4367 13.4245C39.4367 11.8058 40.7536 10.489 42.3722 10.489C42.762 10.489 43.0779 10.173 43.0779 9.78334V9.64221C43.0779 9.2525 42.762 8.93656 42.3722 8.93656ZM38.6605 11.1642C38.299 10.5729 37.8004 10.0743 37.2091 9.71278C37.8004 9.35139 38.299 8.85264 38.6605 8.2614C39.022 8.85264 39.5207 9.35139 40.112 9.71278C39.5206 10.0743 39.022 10.5729 38.6605 11.1642Z" fill="#03060E"/>
<path d="M35.4287 29.2874C35.4287 30.9061 34.1119 32.2229 32.4932 32.2229C32.1034 32.2229 31.7876 32.5388 31.7876 32.9286V33.0697C31.7876 33.4595 32.1034 33.7754 32.4932 33.7754C34.1119 33.7754 35.4287 35.0922 35.4287 36.7109C35.4287 37.1007 35.7446 37.4165 36.1344 37.4165H36.2755C36.6653 37.4165 36.9812 37.1007 36.9812 36.7109C36.9812 35.0922 38.298 33.7754 39.9167 33.7754C40.3065 33.7754 40.6223 33.4595 40.6223 33.0697V32.9286C40.6223 32.5388 40.3065 32.2229 39.9167 32.2229C38.298 32.2229 36.9812 30.9061 36.9812 29.2874C36.9812 28.8976 36.6653 28.5818 36.2755 28.5818H36.1344C35.7447 28.5818 35.4287 28.8976 35.4287 29.2874ZM36.205 31.5477C36.5664 32.139 37.0651 32.6377 37.6564 32.9992C37.0651 33.3606 36.5664 33.8593 36.205 34.4506C35.8435 33.8593 35.3448 33.3606 34.7535 32.9992C35.3449 32.6377 35.8435 32.1391 36.205 31.5477Z" fill="#03060E"/>
<path d="M20.4968 16.2471C21.6641 16.2471 22.6138 15.2975 22.6138 14.1301C22.6138 12.9628 21.6641 12.0132 20.4968 12.0132C19.3296 12.0132 18.3799 12.9628 18.3799 14.1301C18.3799 15.2975 19.3296 16.2471 20.4968 16.2471ZM20.4968 13.4245C20.886 13.4245 21.2025 13.741 21.2025 14.1301C21.2025 14.5193 20.886 14.8358 20.4968 14.8358C20.1077 14.8358 19.7912 14.5193 19.7912 14.1301C19.7912 13.741 20.1077 13.4245 20.4968 13.4245Z" fill="#03060E"/>
<path d="M39.5496 21.1868C37.9933 21.1868 36.7271 22.453 36.7271 24.0094C36.7271 25.5657 37.9933 26.832 39.5496 26.832C41.106 26.832 42.3722 25.5657 42.3722 24.0094C42.3722 22.453 41.106 21.1868 39.5496 21.1868ZM39.5496 25.4207C38.7715 25.4207 38.1383 24.7876 38.1383 24.0094C38.1383 23.2312 38.7715 22.5981 39.5496 22.5981C40.3278 22.5981 40.9609 23.2312 40.9609 24.0094C40.9609 24.7876 40.3278 25.4207 39.5496 25.4207Z" fill="#03060E"/>
</svg>
