<svg width="47" height="48" viewBox="0 0 47 48" fill="none" xmlns="http://www.w3.org/2000/svg">
<path d="M46.729 16.3897V7.66834C46.729 7.31146 46.4965 6.99616 46.1556 6.89052L24.0358 0.0380006C23.9994 0.0264918 23.9617 0.0181319 23.9234 0.0118347C23.9153 0.0104232 23.9071 0.00922885 23.8989 0.00814311C23.8634 0.00336587 23.8274 0.000108574 23.7906 0C23.7899 0 23.7892 0 23.7885 0C23.7517 0 23.7157 0.00336587 23.6802 0.00814311C23.672 0.00922885 23.6638 0.0105318 23.6557 0.0118347C23.6173 0.0182405 23.5797 0.0264918 23.5433 0.0380006L1.42348 6.89052C1.08255 6.99616 0.850098 7.31146 0.850098 7.66834V19.4033V19.4089V43.5586C0.850098 43.9575 1.13901 44.2976 1.5327 44.3621L23.6578 47.9894C23.662 47.99 23.6662 47.9898 23.6703 47.9903C23.7093 47.9961 23.7489 48 23.7895 48C23.8297 48 23.8689 47.9961 23.9076 47.9904C23.9116 47.9899 23.9158 47.9901 23.9198 47.9895L46.045 44.4032C46.4392 44.3392 46.729 43.9987 46.729 43.5994V16.3914C46.729 16.3908 46.729 16.3903 46.729 16.3897ZM2.4787 16.2947L22.9752 11.0777V13.9849L2.4787 18.3914V16.2947ZM24.6039 11.1123L45.1004 17.0202V18.8511L24.6039 13.9987V11.1123ZM45.1004 15.3254L24.6039 9.41747V1.91893L45.1004 8.26854V15.3254ZM22.9752 1.91893V9.39716L2.4787 14.6142V8.26854L22.9752 1.91893ZM2.4787 20.0573L22.9752 15.6508V46.2271L2.4787 42.867V20.0573ZM37.8075 44.0886L28.7753 45.5527V31.9545H37.8075V44.0886ZM39.4361 43.8247V31.1402C39.4361 30.6904 39.0715 30.3259 38.6218 30.3259H27.961C27.5112 30.3259 27.1466 30.6904 27.1466 31.1402V45.8168L24.6039 46.2289V15.6724L45.1004 20.5248V42.9066L39.4361 43.8247Z" fill="#03060E"/>
</svg>
