<svg width="49" height="48" viewBox="0 0 49 48" fill="none" xmlns="http://www.w3.org/2000/svg">
<path d="M27.8898 40.32C27.8898 38.784 26.853 37.4496 25.3554 37.0752C23.4546 36.6048 22.1298 34.9056 22.1298 32.9472V31.68C22.1298 31.152 22.5618 30.72 23.0898 30.72H28.8498C29.3778 30.72 29.8098 31.152 29.8098 31.68C29.8098 32.208 29.3778 32.64 28.8498 32.64H24.0498V32.9472C24.0498 34.0224 24.7794 34.9536 25.8258 35.2224C28.1682 35.7984 29.8098 37.9008 29.8098 40.32C29.8098 42.4416 28.0914 44.16 25.9698 44.16C23.8482 44.16 22.1298 42.4416 22.1298 40.32C22.1298 39.792 22.5618 39.36 23.0898 39.36C23.6178 39.36 24.0498 39.792 24.0498 40.32C24.0498 41.376 24.9138 42.24 25.9698 42.24C27.0258 42.24 27.8898 41.376 27.8898 40.32ZM9.6498 44.16H15.4098C15.9378 44.16 16.3698 43.728 16.3698 43.2C16.3698 42.672 15.9378 42.24 15.4098 42.24H10.6098V41.9328C10.6098 40.8576 11.3394 39.9264 12.3858 39.6576C14.7282 39.0816 16.3698 36.9792 16.3698 34.56C16.3698 32.4384 14.6514 30.72 12.5298 30.72C10.4082 30.72 8.6898 32.4384 8.6898 34.56C8.6898 35.088 9.1218 35.52 9.6498 35.52C10.1778 35.52 10.6098 35.088 10.6098 34.56C10.6098 33.504 11.4738 32.64 12.5298 32.64C13.5858 32.64 14.4498 33.504 14.4498 34.56C14.4498 36.096 13.413 37.4304 11.9154 37.8048C10.0146 38.2752 8.6898 39.9744 8.6898 41.9328V43.2C8.6898 43.728 9.1218 44.16 9.6498 44.16ZM19.2498 44.16C19.7778 44.16 20.2098 43.728 20.2098 43.2V41.28C20.2098 40.752 19.7778 40.32 19.2498 40.32C18.7218 40.32 18.2898 40.752 18.2898 41.28V43.2C18.2898 43.728 18.7218 44.16 19.2498 44.16ZM32.2002 43.0656C32.6514 43.3344 33.2466 43.1904 33.5154 42.7392L39.2754 33.1392C39.5442 32.688 39.4002 32.0928 38.949 31.824C38.4978 31.5552 37.9026 31.6992 37.6338 32.1504L31.8738 41.7504C31.5954 42.2016 31.7394 42.7872 32.2002 43.0656ZM38.4498 40.32C37.9218 40.32 37.4898 40.752 37.4898 41.28C37.4898 41.808 37.9218 42.24 38.4498 42.24C38.9778 42.24 39.4098 41.808 39.4098 41.28C39.4098 40.752 38.9778 40.32 38.4498 40.32ZM32.6898 34.56C33.2178 34.56 33.6498 34.128 33.6498 33.6C33.6498 33.072 33.2178 32.64 32.6898 32.64C32.1618 32.64 31.7298 33.072 31.7298 33.6C31.7298 34.128 32.1618 34.56 32.6898 34.56ZM48.0498 23.04V47.04C48.0498 47.568 47.6178 48 47.0898 48H1.0098C0.481805 48 0.0498047 47.568 0.0498047 47.04V23.04C0.0498047 22.8384 0.107405 22.6464 0.232205 22.4832L5.0322 15.7632C5.205 15.5136 5.5026 15.36 5.8098 15.36H15.477C14.5266 13.824 13.9698 12.0192 13.9698 10.08C13.9698 4.5216 18.4914 0 24.0498 0C29.6082 0 34.1298 4.5216 34.1298 10.08C34.1298 12.0192 33.573 13.824 32.6226 15.36H42.2898C42.597 15.36 42.8946 15.5136 43.0674 15.7632L47.8674 22.4832C47.9922 22.6464 48.0498 22.8384 48.0498 23.04ZM15.8898 10.08C15.8898 14.5824 19.5474 18.24 24.0498 18.24C28.5522 18.24 32.2098 14.5824 32.2098 10.08C32.2098 5.5776 28.5522 1.92 24.0498 1.92C19.5474 1.92 15.8898 5.5776 15.8898 10.08ZM2.8722 22.08H45.2178L41.7906 17.28H31.0866C29.2722 19.056 26.7858 20.16 24.0498 20.16C21.3138 20.16 18.8274 19.056 17.013 17.28H6.2994L2.8722 22.08ZM46.1298 28.8H1.9698V46.08H46.1298V28.8ZM46.1298 24H1.9698V26.88H46.1298V24ZM17.8098 10.08C17.8098 6.6432 20.613 3.84 24.0498 3.84C27.4866 3.84 30.2898 6.6432 30.2898 10.08C30.2898 13.5168 27.4866 16.32 24.0498 16.32C20.613 16.32 17.8098 13.5168 17.8098 10.08ZM19.7298 10.08C19.7298 12.4608 21.669 14.4 24.0498 14.4C26.4306 14.4 28.3698 12.4608 28.3698 10.08C28.3698 7.6992 26.4306 5.76 24.0498 5.76C21.669 5.76 19.7298 7.6992 19.7298 10.08Z" fill="#03060E"/>
</svg>
