<svg width="28" height="48" viewBox="0 0 28 48" fill="none" xmlns="http://www.w3.org/2000/svg">
<path d="M22.1879 33.2096L26.8128 26.2286C27.5339 25.1402 27.7034 23.7558 27.266 22.5253L26.0789 19.1865C25.7532 18.2704 24.9578 17.5882 24.0027 17.4059L18.532 16.3626C18.4211 16.3414 18.3103 16.3272 18.1998 16.3183L16.4724 10.534V3.21265C16.4724 2.21664 17.2828 1.40626 18.2788 1.40626C19.2749 1.40626 20.0852 2.21664 20.0852 3.21265V14.1191C20.0852 14.5075 20.4 14.8223 20.7884 14.8223C21.1768 14.8223 21.4915 14.5075 21.4915 14.1191V3.21265C21.4915 1.44123 20.0503 0 18.2788 0C16.5072 0 15.0661 1.44123 15.0661 3.21265V8.80263C14.4146 8.40466 13.3859 8.22185 12.5133 8.48857C11.291 8.85241 10.4463 9.88414 10.2581 11.0675C9.54822 10.7395 8.75313 10.6811 7.99731 10.9065C6.83245 11.2648 5.92551 12.2426 5.72948 13.5646C5.05363 13.2641 4.27221 13.1929 3.50983 13.4202C2.33673 13.7699 1.51172 14.7342 1.28082 15.8569L0.518154 18.4372C0.18112 19.577 0.0102129 20.7589 0.0102129 21.95V24.3949C0.0102129 24.7832 0.324934 25.098 0.713343 25.098C1.10175 25.098 1.41647 24.7832 1.41647 24.3949V21.95C1.41647 20.9511 1.55373 19.9601 1.8212 19.0006L2.43273 21.0519C2.94002 22.7269 4.7255 23.7151 6.42914 23.2126C7.09749 23.0134 7.67021 22.6122 8.08046 22.0638C8.77422 23.2221 10.3006 23.9106 11.7437 23.4728C12.8791 23.1256 13.783 22.1723 14.001 20.8916C14.4104 21.0816 14.8621 21.1875 15.33 21.1892C15.6677 21.7891 16.1864 22.2931 16.852 22.6041L19.2943 23.7455L15.2618 26.1713C15.083 26.2769 13.4985 27.2369 12.9122 28.4052C12.738 28.7522 12.8782 29.1748 13.2252 29.349C13.3264 29.3999 13.4341 29.4239 13.54 29.4239C13.7976 29.4239 14.0456 29.2818 14.169 29.036C14.5097 28.3573 15.5902 27.6116 15.982 27.3791L20.0846 24.9111C20.1468 25.2314 20.427 25.4751 20.7662 25.4791H20.7749C21.1593 25.4791 21.4731 25.1698 21.4777 24.7844L21.4911 23.6757C21.4668 23.4387 21.4258 23.2051 21.0839 23.0294L17.4476 21.3299C16.4568 20.8668 16.016 19.6788 16.4652 18.6816C16.8038 18.0451 17.4155 17.6011 18.2685 17.7436L23.7393 18.787C24.2061 18.8761 24.5948 19.2094 24.754 19.6572L25.9411 22.996C26.2311 23.8119 26.1189 24.7298 25.6406 25.4516L21.0157 32.4326C20.4068 33.3517 20.0849 34.4202 20.0849 35.5225L20.0852 40.4719H3.40633C3.40924 38.4446 3.57358 35.9235 2.61264 34.0251C1.9862 32.7532 1.38507 31.2941 1.41638 29.7887V27.7277C1.41638 27.3394 1.10166 27.0246 0.71325 27.0246C0.32484 27.0246 0.0101192 27.3394 0.0101192 27.7277V29.7887C-0.0451 31.3741 0.604499 33.159 1.33266 34.6076C2.17989 36.2044 1.98892 38.7462 1.99998 40.4786C1.01175 40.5466 0.227996 41.3701 0.227996 42.3753V46.0965C0.227996 47.146 1.08188 48 2.13151 48H21.2974C22.347 48 23.201 47.1461 23.201 46.0965V42.3753C23.201 41.3912 22.4503 40.5793 21.4915 40.4818L21.4911 35.5225C21.4911 34.6976 21.7321 33.8977 22.1879 33.2096ZM7.10021 20.9932C6.8708 21.4175 6.48979 21.7272 6.02751 21.865C5.07303 22.1495 4.06512 21.6046 3.78049 20.6502L2.69664 17.0149C2.41211 16.0604 2.95708 15.0524 3.91156 14.768C4.68866 14.5002 5.89063 14.9759 6.15848 15.9828L7.24233 19.6181C7.38015 20.0805 7.32971 20.5688 7.10021 20.9932ZM12.4147 21.2535C12.1852 21.6778 11.8042 21.9875 11.342 22.1253C10.5119 22.3846 9.38613 21.9174 9.09503 20.9104L7.18421 14.5011C6.9248 13.6713 7.39214 12.5453 8.39903 12.2542C9.17575 11.9745 10.3956 12.5013 10.6434 13.4614L12.5568 19.8782C12.6947 20.3407 12.6442 20.8291 12.4147 21.2535ZM15.1828 18.1045C14.9466 18.6289 14.8556 19.1844 14.892 19.7249C14.2924 19.5682 13.7956 19.1066 13.6121 18.4959L11.7001 12.0833C11.4158 11.1284 11.9606 10.1205 12.915 9.83642C13.7449 9.57673 14.8711 10.0445 15.1624 11.0512L16.7977 16.5371C16.0985 16.8252 15.5126 17.3722 15.1828 18.1045ZM21.7947 42.3757V46.0969C21.7947 46.371 21.5717 46.5941 21.2974 46.5941H2.1316C1.85738 46.5941 1.63435 46.3711 1.63435 46.0969V42.3757C1.63435 42.1016 1.85738 41.8785 2.1316 41.8785H21.2975C21.5717 41.8785 21.7947 42.1016 21.7947 42.3757Z" fill="#03060E"/>
<path d="M4.85449 44.947C5.23904 44.947 5.55078 44.6353 5.55078 44.2507C5.55078 43.8662 5.23904 43.5544 4.85449 43.5544C4.46994 43.5544 4.1582 43.8662 4.1582 44.2507C4.1582 44.6353 4.46994 44.947 4.85449 44.947Z" fill="#03060E"/>
</svg>
