<svg width="17" height="16" viewBox="0 0 17 16" fill="none" xmlns="http://www.w3.org/2000/svg">
<path fill-rule="evenodd" clip-rule="evenodd" d="M13.633 8.81543C13.2415 11.2669 11.1158 13.1429 8.55469 13.1429C5.7164 13.1429 3.41183 10.8383 3.41183 8C3.41183 5.43886 5.28783 3.31314 7.73926 2.92171C8.00497 2.87943 8.27697 2.85714 8.55469 2.85714C11.393 2.85714 13.6975 5.16171 13.6975 8C13.6975 8.27771 13.6753 8.54972 13.633 8.81543ZM6.2844 4.70686C5.23983 5.42914 4.55469 6.63543 4.55469 8C4.55469 10.2074 6.34726 12 8.55469 12C9.91926 12 11.125 11.3154 11.8467 10.2714C11.3587 10.4651 10.8261 10.5714 10.269 10.5714C7.90383 10.5714 5.98326 8.65086 5.98326 6.28571C5.98326 5.72857 6.08955 5.19657 6.2844 4.70686ZM7.98326 0.571429C7.98326 0.256 8.23926 0 8.55469 0C8.87012 0 9.12612 0.256 9.12612 0.571429V1.71429C9.12612 2.02971 8.87012 2.28571 8.55469 2.28571C8.23926 2.28571 7.98326 2.02971 7.98326 1.71429V0.571429ZM13.4033 2.34343C13.6267 2.12 13.9884 2.12 14.2113 2.34343C14.4347 2.56629 14.4347 2.928 14.2113 3.15143L13.4033 3.95943C13.1804 4.18229 12.8181 4.18229 12.5953 3.95943C12.3724 3.73657 12.3724 3.37429 12.5953 3.15143L13.4033 2.34343ZM15.9833 7.42857C16.2987 7.42857 16.5547 7.68457 16.5547 8C16.5547 8.31543 16.2987 8.57143 15.9833 8.57143H14.8404C14.525 8.57143 14.269 8.31543 14.269 8C14.269 7.68457 14.525 7.42857 14.8404 7.42857H15.9833ZM14.2113 12.8486C14.4347 13.072 14.4347 13.4337 14.2113 13.6566C13.9884 13.88 13.6267 13.88 13.4033 13.6566L12.5953 12.8486C12.3724 12.6257 12.3724 12.2634 12.5953 12.0406C12.8181 11.8177 13.1804 11.8177 13.4033 12.0406L14.2113 12.8486ZM9.12612 15.4286C9.12612 15.744 8.87012 16 8.55469 16C8.23926 16 7.98326 15.744 7.98326 15.4286V14.2857C7.98326 13.9703 8.23926 13.7143 8.55469 13.7143C8.87012 13.7143 9.12612 13.9703 9.12612 14.2857V15.4286ZM3.70612 13.6566C3.48269 13.88 3.12097 13.88 2.89812 13.6566C2.67469 13.4337 2.67469 13.072 2.89812 12.8486L3.70612 12.0406C3.92897 11.8177 4.29126 11.8177 4.51412 12.0406C4.73697 12.2634 4.73697 12.6257 4.51412 12.8486L3.70612 13.6566ZM1.12612 8.57143C0.810688 8.57143 0.554688 8.31543 0.554688 8C0.554688 7.68457 0.810688 7.42857 1.12612 7.42857H2.26897C2.5844 7.42857 2.8404 7.68457 2.8404 8C2.8404 8.31543 2.5844 8.57143 2.26897 8.57143H1.12612ZM2.89812 3.15143C2.67469 2.928 2.67469 2.56629 2.89812 2.34343C3.12097 2.12 3.48269 2.12 3.70612 2.34343L4.51412 3.15143C4.73697 3.37429 4.73697 3.73657 4.51412 3.95943C4.29126 4.18229 3.92897 4.18229 3.70612 3.95943L2.89812 3.15143Z" fill="#FFD54F"/>
</svg>
