<svg width="17" height="16" viewBox="0 0 17 16" fill="none" xmlns="http://www.w3.org/2000/svg">
<path fill-rule="evenodd" clip-rule="evenodd" d="M13.6321 8.81543C13.2407 11.2669 11.115 13.1429 8.55383 13.1429C5.71555 13.1429 3.41098 10.8383 3.41098 8C3.41098 5.43886 5.28698 3.31314 7.7384 2.92171C8.00412 2.87943 8.27612 2.85714 8.55383 2.85714C11.3921 2.85714 13.6967 5.16171 13.6967 8C13.6967 8.27771 13.6744 8.54972 13.6321 8.81543ZM6.28355 4.70686C5.23898 5.42914 4.55383 6.63543 4.55383 8C4.55383 10.2074 6.3464 12 8.55383 12C9.9184 12 11.1241 11.3154 11.8458 10.2714C11.3578 10.4651 10.8253 10.5714 10.2681 10.5714C7.90298 10.5714 5.9824 8.65086 5.9824 6.28571C5.9824 5.72857 6.08869 5.19657 6.28355 4.70686ZM7.9824 0.571429C7.9824 0.256 8.2384 0 8.55383 0C8.86926 0 9.12526 0.256 9.12526 0.571429V1.71429C9.12526 2.02971 8.86926 2.28571 8.55383 2.28571C8.2384 2.28571 7.9824 2.02971 7.9824 1.71429V0.571429ZM13.4024 2.34343C13.6258 2.12 13.9875 2.12 14.2104 2.34343C14.4338 2.56629 14.4338 2.928 14.2104 3.15143L13.4024 3.95943C13.1795 4.18229 12.8173 4.18229 12.5944 3.95943C12.3715 3.73657 12.3715 3.37429 12.5944 3.15143L13.4024 2.34343ZM15.9824 7.42857C16.2978 7.42857 16.5538 7.68457 16.5538 8C16.5538 8.31543 16.2978 8.57143 15.9824 8.57143H14.8395C14.5241 8.57143 14.2681 8.31543 14.2681 8C14.2681 7.68457 14.5241 7.42857 14.8395 7.42857H15.9824ZM14.2104 12.8486C14.4338 13.072 14.4338 13.4337 14.2104 13.6566C13.9875 13.88 13.6258 13.88 13.4024 13.6566L12.5944 12.8486C12.3715 12.6257 12.3715 12.2634 12.5944 12.0406C12.8173 11.8177 13.1795 11.8177 13.4024 12.0406L14.2104 12.8486ZM9.12526 15.4286C9.12526 15.744 8.86926 16 8.55383 16C8.2384 16 7.9824 15.744 7.9824 15.4286V14.2857C7.9824 13.9703 8.2384 13.7143 8.55383 13.7143C8.86926 13.7143 9.12526 13.9703 9.12526 14.2857V15.4286ZM3.70526 13.6566C3.48183 13.88 3.12012 13.88 2.89726 13.6566C2.67383 13.4337 2.67383 13.072 2.89726 12.8486L3.70526 12.0406C3.92812 11.8177 4.2904 11.8177 4.51326 12.0406C4.73612 12.2634 4.73612 12.6257 4.51326 12.8486L3.70526 13.6566ZM1.12526 8.57143C0.809833 8.57143 0.553833 8.31543 0.553833 8C0.553833 7.68457 0.809833 7.42857 1.12526 7.42857H2.26812C2.58355 7.42857 2.83955 7.68457 2.83955 8C2.83955 8.31543 2.58355 8.57143 2.26812 8.57143H1.12526ZM2.89726 3.15143C2.67383 2.928 2.67383 2.56629 2.89726 2.34343C3.12012 2.12 3.48183 2.12 3.70526 2.34343L4.51326 3.15143C4.73612 3.37429 4.73612 3.73657 4.51326 3.95943C4.2904 4.18229 3.92812 4.18229 3.70526 3.95943L2.89726 3.15143Z" fill="#009688"/>
</svg>
