<svg width="12" height="14" viewBox="0 0 12 14" fill="none" xmlns="http://www.w3.org/2000/svg">
<path d="M8.14858 5.71785C8.14858 5.83863 8.04975 5.93471 7.93171 5.93471C7.81093 5.93471 7.71485 5.83863 7.71485 5.71785C7.71485 5.46255 7.67367 5.21 7.58857 4.96843C7.36073 4.30686 6.85014 3.79078 6.18857 3.5547C6.07602 3.51353 6.01837 3.39 6.0568 3.27745C6.09798 3.1649 6.22151 3.10725 6.33406 3.14843C7.11916 3.42843 7.72583 4.04059 7.9976 4.82843C8.09916 5.11392 8.14858 5.41314 8.14858 5.71785Z" fill="black"/>
<path d="M8.80082 4.55407C8.33964 3.22269 7.13728 2.28112 5.73728 2.16034C5.60277 2.14661 5.46826 2.19602 5.36669 2.28661C5.26512 2.37995 5.20747 2.51171 5.20747 2.64897V10.3764H4.60355C4.79845 10.1541 4.91649 9.86586 4.91649 9.54742V3.42034C4.91649 2.72309 4.351 2.15759 3.65374 2.15759C3.11844 2.15759 2.64903 2.49524 2.46785 2.98662C1.61138 2.93995 0.908631 3.62348 0.908631 4.46623C0.908631 4.62545 0.936082 4.78741 0.985494 4.93839C0.389805 5.21564 0 5.80859 0 6.48388C0 7.15918 0.38706 7.75212 0.985494 8.02938C0.936082 8.18036 0.908631 8.34232 0.908631 8.50154C0.908631 9.34154 1.61138 10.0278 2.46785 9.97841C2.52825 10.1376 2.61883 10.2804 2.73138 10.4012C2.39922 10.4863 2.15217 10.7882 2.15217 11.1451C2.15217 11.3647 2.24275 11.5623 2.38824 11.7023C2.24275 11.8451 2.15217 12.04 2.15217 12.2596C2.15217 12.6851 2.49805 13.0337 2.92354 13.0337H3.15413V13.0776C3.15413 13.5855 3.56864 14 4.07649 14H5.71806C6.22591 14 6.64042 13.5855 6.64042 13.0776V13.0337H6.87101C7.2965 13.0337 7.64238 12.6878 7.64238 12.2596C7.64238 12.0427 7.54905 11.8451 7.40356 11.7023C7.54905 11.5623 7.64238 11.3647 7.64238 11.1451C7.64238 10.7196 7.2965 10.3737 6.87101 10.3737H6.82983C6.86826 9.61331 7.20317 8.90507 7.76866 8.41095C8.5016 7.77134 8.93533 6.88741 8.98749 5.91839C8.99298 5.84976 8.99298 5.78388 8.99298 5.71525C8.99298 5.31996 8.92984 4.93015 8.80082 4.55407ZM2.64903 8.92978C2.45413 9.12468 2.40746 9.36899 2.39922 9.55017H2.39099C1.81452 9.55017 1.3451 9.08076 1.3451 8.50428C1.3451 8.33409 1.38628 8.16664 1.46589 8.01565C1.54275 7.88938 1.64432 7.77958 1.76236 7.68624C1.88863 7.59016 2.03962 7.51879 2.1906 7.48036C2.30589 7.45016 2.37726 7.33212 2.34707 7.21683C2.31687 7.10153 2.19883 7.03016 2.08354 7.06036C1.87491 7.11251 1.67177 7.21134 1.49883 7.3431C1.38353 7.43095 1.28197 7.53252 1.19412 7.64781C0.735689 7.44467 0.436472 6.99722 0.436472 6.48663C0.436472 5.92388 0.798826 5.43251 1.33961 5.2678C1.42471 5.24309 1.59216 5.20741 1.78707 5.26506C1.98746 5.32545 2.11099 5.44623 2.17138 5.51486C2.2153 5.56427 2.2757 5.59172 2.33883 5.59172C2.38824 5.59172 2.43766 5.57525 2.47883 5.54231C2.57217 5.46545 2.58315 5.32819 2.50628 5.2376C2.34981 5.05094 2.13844 4.91368 1.9106 4.8478C1.74863 4.80113 1.57295 4.79015 1.4055 4.81211C1.36706 4.69956 1.3451 4.58427 1.3451 4.46623C1.3451 3.88701 1.81452 3.42034 2.39099 3.42034C2.45413 3.42034 2.52001 3.42583 2.58864 3.43956H2.59138C2.70393 3.45877 2.86864 3.51093 3.02511 3.63721C3.1157 3.71132 3.19256 3.79917 3.25295 3.90348C3.29413 3.97211 3.3655 4.01054 3.43962 4.01054C3.47805 4.01054 3.51374 4.00231 3.54943 3.98035C3.65099 3.91995 3.68943 3.78544 3.62629 3.68387C3.53845 3.53564 3.42864 3.40387 3.29413 3.29681C3.17609 3.20348 3.04433 3.13211 2.90432 3.07995C3.03609 2.78897 3.32433 2.59407 3.65374 2.59407C4.10943 2.59407 4.48276 2.96465 4.48276 3.42309V9.55017C4.48276 10.0059 4.11217 10.3792 3.65374 10.3792C3.25844 10.3792 2.91531 10.0964 2.84119 9.70664C2.8357 9.6737 2.79178 9.40193 2.95648 9.23723C2.99766 9.1988 3.04707 9.16586 3.10197 9.14389C3.21452 9.10272 3.26942 8.97644 3.2255 8.86389C3.18433 8.75134 3.05805 8.69644 2.9455 8.73762C2.83295 8.77879 2.73138 8.84468 2.64903 8.92978ZM6.20669 13.0776C6.20669 13.3467 5.98708 13.5663 5.71806 13.5663H4.07649C3.80747 13.5663 3.58786 13.3467 3.58786 13.0776V13.0337H6.20669V13.0776ZM6.87101 12.6H2.92354C2.73687 12.6 2.58589 12.4463 2.58589 12.2596C2.58589 12.0729 2.73687 11.9192 2.92354 11.9192H6.87101C7.05767 11.9192 7.20866 12.0702 7.20866 12.2596C7.20866 12.4463 7.05767 12.6 6.87101 12.6ZM6.87101 10.8102C7.05767 10.8102 7.20866 10.9612 7.20866 11.1478C7.20866 11.3345 7.05767 11.4882 6.87101 11.4882H2.92354C2.73687 11.4882 2.58589 11.3372 2.58589 11.1478C2.58589 10.9612 2.73687 10.8102 2.92354 10.8102H6.87101ZM8.5565 5.89369C8.50984 6.74467 8.13101 7.52428 7.48317 8.08428C6.8216 8.66076 6.42905 9.48703 6.39061 10.3737H5.63845V2.64897C5.63845 2.62701 5.64943 2.61328 5.65767 2.60779C5.6659 2.59956 5.67689 2.59132 5.69885 2.59407C6.92865 2.70112 7.98552 3.5274 8.38905 4.69682C8.50435 5.02623 8.55925 5.36937 8.55925 5.72074C8.55925 5.77565 8.55925 5.83329 8.5565 5.89369Z" fill="black"/>
<path d="M6.20087 13.0341V13.078C6.20087 13.347 5.98126 13.5666 5.71224 13.5666H4.07066C3.80164 13.5666 3.58203 13.347 3.58203 13.078V13.0341H6.20087Z" fill="#FF826E"/>
<path d="M7.20284 12.2602C7.20284 12.4469 7.05186 12.6006 6.86519 12.6006H2.91773C2.73106 12.6006 2.58008 12.4469 2.58008 12.2602C2.58008 12.0735 2.73106 11.9198 2.91773 11.9198H6.86519C7.05186 11.9198 7.20284 12.0735 7.20284 12.2602Z" fill="#FF826E"/>
<path d="M7.20284 11.1482C7.20284 11.3349 7.05186 11.4886 6.86519 11.4886H2.91773C2.73106 11.4886 2.58008 11.3376 2.58008 11.1482C2.58008 10.9615 2.73106 10.8105 2.91773 10.8105H6.86519C7.05186 10.8105 7.20284 10.9615 7.20284 11.1482Z" fill="#FF826E"/>
<path d="M4.48379 3.42041V9.54749C4.48379 10.0032 4.1132 10.3765 3.65477 10.3765C3.25947 10.3765 2.91633 10.0938 2.84222 9.70396C2.83672 9.67102 2.7928 9.39926 2.95751 9.23455C2.99869 9.19612 3.0481 9.16318 3.103 9.14122C3.21555 9.10004 3.27045 8.97376 3.22653 8.86121C3.18535 8.74866 3.05908 8.69376 2.94653 8.73494C2.83123 8.77886 2.73241 8.842 2.65006 8.9271C2.45515 9.122 2.40849 9.36631 2.40025 9.54749H2.39202C1.81554 9.54749 1.34613 9.07808 1.34613 8.50161C1.34613 8.33141 1.38731 8.16396 1.46692 8.01298C1.54378 7.8867 1.64535 7.7769 1.76339 7.68356C1.88966 7.58748 2.04064 7.51611 2.19162 7.47768C2.30692 7.44748 2.37829 7.32944 2.3481 7.21415C2.3179 7.09885 2.19986 7.02748 2.08457 7.05768C1.87594 7.10984 1.6728 7.20866 1.49986 7.34042C1.38456 7.42827 1.28299 7.52984 1.19515 7.64513C0.736717 7.44199 0.4375 6.99454 0.4375 6.48395C0.4375 5.9212 0.799854 5.42983 1.34064 5.26512C1.42574 5.24042 1.59319 5.20473 1.78809 5.26238C1.98849 5.32277 2.11202 5.44355 2.17241 5.51218C2.21633 5.56159 2.27672 5.58905 2.33986 5.58905C2.38927 5.58905 2.43868 5.57257 2.47986 5.53963C2.57319 5.46277 2.58417 5.32551 2.50731 5.23493C2.35084 5.051 2.13947 4.91375 1.91162 4.84787C1.74966 4.8012 1.57397 4.79022 1.40652 4.81218C1.36809 4.69963 1.34613 4.58433 1.34613 4.4663C1.34613 3.88708 1.81554 3.42041 2.39202 3.42041C2.45515 3.42041 2.52104 3.4259 2.58966 3.43962H2.59241C2.70496 3.45884 2.86967 3.511 3.02614 3.63727C3.11673 3.71139 3.19359 3.79923 3.25398 3.90355C3.29516 3.97218 3.36653 4.01061 3.44065 4.01061C3.47908 4.01061 3.51477 4.00237 3.55045 3.98041C3.65202 3.92002 3.69045 3.78551 3.62732 3.68394C3.53947 3.5357 3.42967 3.40394 3.29516 3.29688C3.17712 3.20355 3.04535 3.13217 2.90535 3.08002C3.03712 2.78903 3.32535 2.59413 3.65477 2.59413C4.1132 2.59139 4.48379 2.96472 4.48379 3.42041Z" fill="#FCD770"/>
<path d="M8.39122 4.69423C7.98769 3.52482 6.93083 2.69854 5.70102 2.59148C5.6818 2.58874 5.66808 2.59697 5.65984 2.60521C5.65161 2.6107 5.64062 2.62442 5.64062 2.64638V10.3711H6.39279C6.43122 9.48445 6.82377 8.65817 7.48534 8.0817C8.13044 7.5217 8.51201 6.74209 8.55868 5.8911C8.56417 5.83071 8.56417 5.77306 8.56417 5.71541C8.56142 5.36953 8.50652 5.02365 8.39122 4.69423ZM7.93828 5.93502C7.8175 5.93502 7.72142 5.83894 7.72142 5.71816C7.72142 5.46286 7.68024 5.21031 7.59514 4.96874C7.3673 4.30717 6.85671 3.79109 6.19514 3.55501C6.08259 3.51384 6.02494 3.39031 6.06337 3.27776C6.10455 3.16521 6.22808 3.10756 6.34063 3.14874C7.12573 3.42874 7.7324 4.0409 8.00416 4.82874C8.10299 5.11424 8.1524 5.41345 8.1524 5.71816C8.1524 5.83894 8.05632 5.93502 7.93828 5.93502Z" fill="#E6E9ED"/>
<path d="M9.18102 1.68298L8.17906 2.68495C8.09396 2.77004 8.09396 2.9073 8.17906 2.9924C8.22023 3.03357 8.27788 3.05554 8.33278 3.05554C8.38769 3.05554 8.44259 3.03357 8.48651 2.9924L9.48848 1.99043C9.57357 1.90533 9.57357 1.76808 9.48848 1.68298C9.40338 1.60063 9.26612 1.60063 9.18102 1.68298Z" fill="black"/>
<path d="M11.1725 5.74824C11.1725 5.62745 11.0764 5.53137 10.9556 5.53137H9.53913C9.41834 5.53137 9.32227 5.62745 9.32227 5.74824C9.32227 5.86902 9.41834 5.9651 9.53913 5.9651H10.9556C11.0764 5.9651 11.1725 5.86902 11.1725 5.74824Z" fill="black"/>
<path d="M8.48651 8.50731C8.40141 8.42221 8.26416 8.42221 8.17906 8.50731C8.09396 8.5924 8.09396 8.72966 8.17906 8.81476L9.18102 9.81672C9.2222 9.8579 9.27985 9.87986 9.33475 9.87986C9.38965 9.87986 9.44455 9.8579 9.48848 9.81672C9.57357 9.73162 9.57357 9.59437 9.48848 9.50927L8.48651 8.50731Z" fill="black"/>
<path d="M5.64076 1.63346V0.216986C5.64076 0.0962009 5.54468 0.00012207 5.42389 0.00012207C5.30311 0.00012207 5.20703 0.0962009 5.20703 0.216986V1.63346C5.20703 1.75425 5.30311 1.85033 5.42389 1.85033C5.54193 1.85033 5.64076 1.75425 5.64076 1.63346Z" fill="black"/>
</svg>
