<svg width="67" height="52" viewBox="0 0 67 52" fill="none" xmlns="http://www.w3.org/2000/svg">
<path d="M60.9775 4.20588C64.7416 8.41176 67 13 67 20.6471C67 34.0294 57.5899 45.8824 44.4157 52L41.0281 47.0294C53.4494 40.1471 56.0843 31.3529 56.8371 25.6176C54.9551 26.7647 52.3202 27.1471 49.6854 26.7647C42.9101 26 37.6404 20.6471 37.6404 13.3824C37.6404 9.94117 39.1461 6.5 41.4045 3.82353C44.0393 1.14706 47.0506 0 50.8146 0C54.9551 0 58.7191 1.91176 60.9775 4.20588ZM23.3371 4.20588C27.1011 8.41176 29.3596 13 29.3596 20.6471C29.3596 34.0294 19.9494 45.8824 6.77528 52L3.38764 47.0294C15.809 40.1471 18.4438 31.3529 19.1966 25.6176C17.3146 26.7647 14.6798 27.1471 12.0449 26.7647C5.26966 26 0 20.6471 0 13.3824C0 9.94117 1.50562 6.5 3.76405 3.82353C6.02247 1.14706 9.41011 0 13.1742 0C17.3146 0 21.0786 1.91176 23.3371 4.20588Z" fill="#004D40"/>
</svg>
