<svg width="43" height="32" viewBox="0 0 43 32" fill="none" xmlns="http://www.w3.org/2000/svg">
<path d="M38.6765 2.58823C41.0294 5.17647 42.4412 8 42.4412 12.7059C42.4412 20.9412 36.5588 28.2353 28.3235 32L26.2059 28.9412C33.9706 24.7059 35.6176 19.2941 36.0882 15.7647C34.9117 16.4706 33.2647 16.7059 31.6176 16.4706C27.3823 16 24.0882 12.7059 24.0882 8.23529C24.0882 6.11765 25.0294 4 26.4412 2.35294C28.0882 0.705883 29.9706 0 32.3235 0C34.9117 0 37.2647 1.17647 38.6765 2.58823ZM15.147 2.58823C17.5 5.17647 18.9117 8 18.9117 12.7059C18.9117 20.9412 13.0294 28.2353 4.7941 32L2.67646 28.9412C10.4412 24.7059 12.0882 19.2941 12.5588 15.7647C11.3823 16.4706 9.73528 16.7059 8.08822 16.4706C3.85292 16 0.558807 12.7059 0.558807 8.23529C0.558807 6.11765 1.49998 4 2.91175 2.35294C4.32352 0.705883 6.44116 0 8.79411 0C11.3823 0 13.7353 1.17647 15.147 2.58823Z" fill="#374868"/>
</svg>
