<svg width="35" height="32" viewBox="0 0 35 32" fill="none" xmlns="http://www.w3.org/2000/svg">
<path d="M3.00634 0C1.40127 0 0.0919385 1.3082 0.0919385 2.91327V21.2393C0.0919385 22.8444 1.40127 24.1582 3.00634 24.1582H31.7019C33.307 24.1582 34.6152 22.8444 34.6152 21.2393V2.91327C34.6152 1.3082 33.307 0 31.7019 0H3.00634ZM3.00634 1.15094H31.7019C32.6893 1.15094 33.4643 1.92589 33.4643 2.91327V21.2393C33.4643 22.2267 32.6893 23.0061 31.7019 23.0061H3.00634C2.01897 23.0061 1.24399 22.2267 1.24399 21.2393V2.91327C1.24399 1.92589 2.01897 1.15094 3.00634 1.15094ZM17.3558 4.20127C13.0125 4.20127 9.4758 7.73346 9.4758 12.0768C9.4758 16.4201 13.0125 19.9568 17.3558 19.9568C21.6992 19.9568 25.2325 16.4201 25.2325 12.0768C25.2325 7.73346 21.6992 4.20127 17.3558 4.20127ZM17.3558 5.35222C21.0771 5.35222 24.0804 8.35548 24.0804 12.0768C24.0804 15.7981 21.0771 18.8059 17.3558 18.8059C13.6345 18.8059 10.6278 15.7981 10.6278 12.0768C10.6278 8.35548 13.6345 5.35222 17.3558 5.35222ZM14.8202 7.89684C14.7435 7.89535 14.6673 7.9092 14.596 7.93759C14.5247 7.96598 14.4599 8.00835 14.4052 8.06218C14.3505 8.116 14.3072 8.18019 14.2777 8.25101C14.2482 8.32183 14.2332 8.39785 14.2335 8.47456V15.6836C14.2331 15.7895 14.2619 15.8933 14.3168 15.9838C14.3716 16.0744 14.4503 16.148 14.5443 16.1967C14.6383 16.2454 14.7439 16.2672 14.8495 16.2598C14.9551 16.2523 15.0565 16.2159 15.1428 16.1545L20.232 12.5478C20.3069 12.4946 20.368 12.4242 20.4102 12.3426C20.4523 12.2609 20.4743 12.1704 20.4743 12.0785C20.4743 11.9867 20.4523 11.8961 20.4102 11.8145C20.368 11.7329 20.3069 11.6625 20.232 11.6093L15.1428 8.00251C15.0483 7.93564 14.9359 7.89884 14.8202 7.89684ZM15.3855 9.58728L18.9024 12.0813L15.3855 14.5698V9.58728ZM17.212 25.997C15.7728 25.997 14.5615 27.0213 14.2739 28.3775L0.576361 28.4225C0.500499 28.4225 0.425376 28.4374 0.355305 28.4665C0.285233 28.4955 0.221594 28.5382 0.168041 28.5919C0.114487 28.6456 0.072075 28.7094 0.0432384 28.7796C0.0144019 28.8497 -0.000290678 28.9249 4.35669e-06 29.0008C0.000299392 29.0766 0.0155762 29.1517 0.0449577 29.2216C0.0743391 29.2915 0.117246 29.355 0.171216 29.4083C0.225186 29.4616 0.289155 29.5038 0.35945 29.5323C0.429745 29.5608 0.504983 29.5752 0.580842 29.5745L14.2582 29.5285C14.5117 30.928 15.7424 32 17.2119 32C18.6627 32 19.8781 30.9556 20.1522 29.5824L33.843 29.5737C33.9189 29.5741 33.9941 29.5594 34.0643 29.5306C34.1344 29.5018 34.1982 29.4594 34.252 29.4059C34.3058 29.3523 34.3484 29.2887 34.3775 29.2187C34.4066 29.1486 34.4216 29.0735 34.4216 28.9977C34.4216 28.9218 34.4066 28.8467 34.3775 28.7766C34.3484 28.7066 34.3058 28.643 34.252 28.5895C34.1982 28.5359 34.1344 28.4935 34.0643 28.4647C33.9941 28.4359 33.9189 28.4213 33.843 28.4217L20.1556 28.4304C19.8897 27.0476 18.6701 25.997 17.212 25.997ZM17.212 27.0164C18.3122 27.0164 19.1912 27.8965 19.1912 28.9968C19.1912 30.0971 18.3122 30.9805 17.212 30.9805C16.1117 30.9805 15.2282 30.0971 15.2282 28.9968C15.2282 27.8965 16.1117 27.0164 17.212 27.0164Z" fill="#03060E"/>
</svg>
