<svg width="33" height="32" viewBox="0 0 33 32" fill="none" xmlns="http://www.w3.org/2000/svg">
<path d="M22.7522 26.1994C21.2797 26.1994 20.0207 25.7676 19.1248 24.8718C16.5931 22.34 17.7593 16.9182 21.898 11.9797C22.3308 11.4646 22.9676 11.1521 23.6461 11.1222C24.3318 11.0976 25.0041 11.3528 25.488 11.8367L25.9776 12.3268C26.167 12.5162 26.167 12.8235 25.9776 13.0124C25.7882 13.2018 25.4814 13.2018 25.292 13.0124L24.8024 12.5223C24.5098 12.2302 24.1045 12.0711 23.6883 12.0915C23.2749 12.1095 22.9028 12.2908 22.6409 12.6028C18.8943 17.0735 17.6774 22.0531 19.8104 24.1862C21.9402 26.3159 26.9175 25.0981 31.389 21.3547C31.703 21.091 31.8857 20.7184 31.9037 20.3055C31.9217 19.8902 31.7636 19.4835 31.4691 19.189L30.9795 18.6994C30.7901 18.51 30.7901 18.2032 30.9795 18.0138C31.1689 17.8244 31.4757 17.8244 31.6651 18.0138L32.1547 18.5034C32.6409 18.9897 32.9023 19.6615 32.8725 20.3476C32.8431 21.0252 32.5297 21.663 32.0121 22.0976C28.8232 24.7671 25.434 26.1994 22.7522 26.1994Z" fill="#03060E"/>
<path d="M30.4663 19.1979C30.0117 19.1979 29.5851 19.0199 29.266 18.6974C28.9483 18.3835 28.7707 17.9593 28.7693 17.5071C28.7679 17.053 28.945 16.625 29.2679 16.3021C29.5851 15.9815 30.0112 15.804 30.4658 15.804C30.9208 15.804 31.3474 15.9815 31.6665 16.3035C31.9876 16.625 32.1647 17.053 32.1632 17.5071C32.1623 17.9583 31.9852 18.3816 31.6651 18.6993C31.346 19.0208 30.9203 19.1979 30.4663 19.1979ZM30.4663 16.7737C30.2721 16.7737 30.0908 16.8489 29.9554 16.9858C29.8148 17.1264 29.7385 17.3101 29.739 17.5047C29.7395 17.6965 29.8152 17.8769 29.9516 18.0118C30.0908 18.1524 30.2721 18.2282 30.4663 18.2282C30.6604 18.2282 30.8417 18.1524 30.9776 18.0156L30.9814 18.0118C31.1178 17.8769 31.1931 17.6965 31.1935 17.5047C31.194 17.3101 31.1183 17.1264 30.9795 16.9877C30.8422 16.8489 30.6604 16.7737 30.4663 16.7737Z" fill="#03060E"/>
<path d="M26.4918 15.2206C26.0577 15.2206 25.6239 15.0572 25.2939 14.7305C24.9705 14.4071 24.7935 13.9805 24.7935 13.5274C24.7935 13.0743 24.9705 12.6477 25.292 12.3267C25.9559 11.6704 27.0311 11.6704 27.6921 12.3248C27.6936 12.3262 27.6945 12.3271 27.6959 12.3285C28.3503 12.9895 28.3503 14.0653 27.6959 14.7267C27.3631 15.0563 26.927 15.2206 26.4918 15.2206ZM26.4928 12.8025C26.3058 12.8025 26.1187 12.8731 25.9757 13.0142C25.8394 13.1505 25.7632 13.3333 25.7632 13.5274C25.7632 13.7215 25.8394 13.9048 25.9776 14.043C26.2617 14.3229 26.7253 14.3229 27.0103 14.0411C27.2882 13.7604 27.2887 13.2978 27.0084 13.0123C26.8664 12.8721 26.6798 12.8025 26.4928 12.8025Z" fill="#03060E"/>
<path d="M18.5268 27.3112C18.04 27.3112 17.5789 27.118 17.2266 26.7667C16.5017 26.0417 16.5017 24.8632 17.2261 24.1388L18.3374 23.0275C18.5268 22.8381 18.8336 22.8381 19.023 23.0275C19.2124 23.2169 19.2124 23.5238 19.023 23.7131L17.9117 24.8244C17.7436 24.993 17.6508 25.216 17.6508 25.4523C17.6508 25.689 17.7436 25.912 17.9117 26.0806C18.0803 26.2491 18.299 26.3415 18.5273 26.3415H18.5353C18.7773 26.3396 19.0017 26.2468 19.1688 26.0801L20.2796 24.9693C20.469 24.7799 20.7758 24.7799 20.9652 24.9693C21.1546 25.1587 21.1546 25.4655 20.9652 25.6549L19.854 26.7662C19.506 27.1137 19.041 27.3069 18.5438 27.3112C18.5382 27.3112 18.5325 27.3112 18.5268 27.3112Z" fill="#03060E"/>
<path d="M11.1093 29.9222C9.7154 29.9222 8.45688 29.4829 7.54164 28.5676C5.64486 26.6708 5.7263 23.2958 7.74523 20.1699C7.89059 19.9445 8.19078 19.8801 8.41522 20.0255C8.64059 20.1708 8.70499 20.4705 8.55963 20.6954C6.79542 23.4284 6.66143 26.3162 8.22724 27.882C10.2121 29.8668 14.249 29.0586 17.2272 26.0813C17.4166 25.8919 17.7235 25.8919 17.9128 26.0813C18.1022 26.2707 18.1022 26.5776 17.9128 26.7669C15.857 28.8228 13.3139 29.9222 11.1093 29.9222Z" fill="#03060E"/>
<path d="M10.4369 21.8708C9.48332 21.8708 8.52972 21.5076 7.80387 20.7818C6.35216 19.3301 6.35216 16.9679 7.80387 15.5162C9.25604 14.0649 11.6183 14.0654 13.0695 15.5166C13.7717 16.2188 14.1585 17.1539 14.1585 18.1492C14.1585 19.145 13.7717 20.0796 13.0695 20.7818C12.3436 21.5076 11.39 21.8708 10.4369 21.8708ZM10.4364 15.3968C9.73142 15.3968 9.0264 15.6653 8.48947 16.2018C7.41561 17.2756 7.41561 19.0223 8.48947 20.0962C9.56381 21.1705 11.3105 21.1696 12.3839 20.0962C12.9028 19.5772 13.1888 18.886 13.1888 18.1492C13.1888 17.4129 12.9028 16.7217 12.3839 16.2022C11.847 15.6653 11.1415 15.3968 10.4364 15.3968Z" fill="#03060E"/>
<path d="M10.4365 19.713C10.0189 19.713 9.62589 19.5506 9.33043 19.2552C8.72058 18.6453 8.72058 17.6529 9.33043 17.043C9.92182 16.4517 10.9531 16.4526 11.5426 17.043C12.1524 17.6529 12.1524 18.6453 11.5426 19.2552C11.2476 19.5506 10.8546 19.713 10.4365 19.713ZM10.4365 17.5549C10.2779 17.5549 10.1283 17.6164 10.016 17.7286C9.78403 17.9606 9.78403 18.3375 10.016 18.5696C10.2405 18.794 10.6325 18.7935 10.8569 18.5696C11.089 18.3375 11.089 17.9606 10.8569 17.7286C10.7447 17.6164 10.5956 17.5549 10.4365 17.5549Z" fill="#03060E"/>
<path d="M20.4034 32.0001H2.35744C1.53925 32.0001 0.873535 31.3348 0.873535 30.5166V5.00857C0.873535 4.19039 1.53925 3.52515 2.35744 3.52515H6.42988C6.69787 3.52515 6.91473 3.742 6.91473 4.00999C6.91473 4.27799 6.69787 4.49484 6.42988 4.49484H2.35744C2.07382 4.49484 1.84323 4.72543 1.84323 5.00857V30.5166C1.84323 30.795 2.07855 31.0304 2.35744 31.0304H20.4034C20.6818 31.0304 20.9171 30.795 20.9171 30.5166V25.5663C20.9171 25.2983 21.134 25.0815 21.4019 25.0815C21.6699 25.0815 21.8868 25.2983 21.8868 25.5663V30.5166C21.8868 31.3348 21.2215 32.0001 20.4034 32.0001Z" fill="#03060E"/>
<path d="M21.402 13.8817C21.1341 13.8817 20.9172 13.6648 20.9172 13.3968V5.00857C20.9172 4.72543 20.6866 4.49484 20.4035 4.49484H16.3306C16.0626 4.49484 15.8457 4.27799 15.8457 4.01C15.8457 3.742 16.0626 3.52515 16.3306 3.52515H20.4035C21.2217 3.52515 21.8869 4.19039 21.8869 5.00857V13.3968C21.8869 13.6648 21.67 13.8817 21.402 13.8817Z" fill="#03060E"/>
<path d="M15.4337 6.05256H7.32577C6.56487 6.05256 5.94556 5.43324 5.94556 4.67235V3.34801C5.94556 2.58712 6.56487 1.96828 7.32577 1.96828H8.97728C9.20266 0.847064 10.1932 0 11.3774 0C12.5639 0 13.5564 0.847064 13.7817 1.96828H15.4337C16.1946 1.96828 16.8139 2.58712 16.8139 3.34801V4.67235C16.8139 5.43324 16.1946 6.05256 15.4337 6.05256ZM7.32577 2.93797C7.09944 2.93797 6.91525 3.12169 6.91525 3.34801V4.67235C6.91525 4.89867 7.09944 5.08286 7.32577 5.08286H15.4337C15.66 5.08286 15.8442 4.89867 15.8442 4.67235V3.34801C15.8442 3.12169 15.66 2.93797 15.4337 2.93797H13.3452C13.0772 2.93797 12.8603 2.72112 12.8603 2.45312C12.8603 1.63494 12.1951 0.969697 11.3774 0.969697C10.5625 0.969697 9.89916 1.63494 9.89916 2.45312C9.89916 2.72112 9.6823 2.93797 9.41431 2.93797H7.32577Z" fill="#03060E"/>
<path d="M11.3802 8.6694H3.97679C3.7088 8.6694 3.49194 8.45255 3.49194 8.18456C3.49194 7.91656 3.7088 7.69971 3.97679 7.69971H11.3802C11.6482 7.69971 11.8651 7.91656 11.8651 8.18456C11.8651 8.45255 11.6482 8.6694 11.3802 8.6694Z" fill="#03060E"/>
<path d="M18.7841 10.8371H3.97679C3.7088 10.8371 3.49194 10.6203 3.49194 10.3523C3.49194 10.0843 3.7088 9.86743 3.97679 9.86743H18.7841C19.0521 9.86743 19.2689 10.0843 19.2689 10.3523C19.2689 10.6203 19.0521 10.8371 18.7841 10.8371Z" fill="#03060E"/>
<path d="M18.7841 13.0046H3.97679C3.7088 13.0046 3.49194 12.7878 3.49194 12.5198C3.49194 12.2518 3.7088 12.0349 3.97679 12.0349H18.7841C19.0521 12.0349 19.2689 12.2518 19.2689 12.5198C19.2689 12.7878 19.0521 13.0046 18.7841 13.0046Z" fill="#03060E"/>
</svg>
