<svg width="32" height="32" viewBox="0 0 32 32" fill="none" xmlns="http://www.w3.org/2000/svg">
<path d="M8.97568 0C8.62382 0 8.33594 0.287885 8.33594 0.639744V17.2411C8.33594 17.593 8.62382 17.8808 8.97568 17.8808H11.0165H20.9709H23.0117C23.3635 17.8808 23.6514 17.593 23.6514 17.2411V0.639744C23.6514 0.287885 23.3635 0 23.0117 0H8.97568ZM11.701 16.6014C12.0081 14.5094 13.8185 12.9036 15.9937 12.9036C18.1688 12.9036 19.9729 14.5094 20.2864 16.6014H11.701ZM13.7993 9.42982C13.7993 8.22071 14.7846 7.2355 15.9937 7.2355C17.2028 7.2355 18.188 8.22071 18.188 9.42982C18.188 10.6389 17.2028 11.6241 15.9937 11.6241C14.7846 11.6241 13.7993 10.6389 13.7993 9.42982ZM22.3719 16.6014H21.5722C21.3419 14.5734 20.0305 12.8716 18.2264 12.0912C18.9877 11.4514 19.4739 10.4982 19.4739 9.42982C19.4739 7.51059 17.9129 5.95602 16.0001 5.95602C14.0872 5.95602 12.5263 7.51699 12.5263 9.42982C12.5263 10.4982 13.0125 11.4514 13.7738 12.0912C11.9697 12.878 10.6582 14.5734 10.4279 16.6014H9.62822V1.27949H22.3847V16.6014H22.3719Z" fill="#03060E"/>
<path d="M31.3475 26.8821H30.0872V21.8026C30.0872 21.4507 29.7993 21.1628 29.4474 21.1628H28.4942V20.7214C29.4474 20.4399 30.1575 19.5699 30.1575 18.5207C30.1575 17.4587 28.7757 15.693 28.3535 15.1748C28.1103 14.8805 27.6049 14.8805 27.3618 15.1748C26.9396 15.693 25.5578 17.4587 25.5578 18.5207C25.5578 19.5635 26.2615 20.4399 27.2211 20.7214V21.1628H26.2679C25.916 21.1628 25.6281 21.4507 25.6281 21.8026V26.8821H21.5402L20.7021 24.0161C20.4718 23.2356 19.7489 22.6918 18.9364 22.6918H13.0124C12.1999 22.6918 11.477 23.2356 11.2467 24.0161L10.4086 26.8821H6.32067V21.8026C6.32067 21.4507 6.03279 21.1628 5.68093 21.1628H4.72771V20.7214C5.68093 20.4399 6.39104 19.5699 6.39104 18.5207C6.39104 17.4587 5.00919 15.693 4.58696 15.1748C4.34386 14.8805 3.83846 14.8805 3.59536 15.1748C3.17313 15.693 1.79128 17.4587 1.79128 18.5207C1.79128 19.5635 2.495 20.4399 3.45462 20.7214V21.1628H2.495C2.14314 21.1628 1.85526 21.4507 1.85526 21.8026V26.8821H0.639744C0.287885 26.8821 0 27.17 0 27.5219V31.3603C0 31.7122 0.287885 32.0001 0.639744 32.0001H31.3475C31.6993 32.0001 31.9872 31.7122 31.9872 31.3603V27.5219C31.9872 27.1636 31.6993 26.8821 31.3475 26.8821ZM26.8373 18.5207C26.8373 18.2008 27.3043 17.3947 27.8608 16.627C28.411 17.3883 28.8844 18.2008 28.8844 18.5207C28.8844 19.0836 28.4238 19.5443 27.8608 19.5443C27.2979 19.5443 26.8373 19.0836 26.8373 18.5207ZM26.9076 22.4423H28.8141V26.8821H26.9076V22.4423ZM12.475 24.3743C12.5454 24.1376 12.7629 23.9713 13.0124 23.9713H18.9364C19.1859 23.9713 19.4034 24.1376 19.4738 24.3743L20.2095 26.8757H11.7393L12.475 24.3743ZM3.07077 18.5207C3.07077 18.2008 3.53778 17.3947 4.09436 16.627C4.64454 17.3883 5.11795 18.2008 5.11795 18.5207C5.11795 19.0836 4.65734 19.5443 4.09436 19.5443C3.53139 19.5443 3.07077 19.0836 3.07077 18.5207ZM3.13474 22.4423H5.04118V26.8821H3.13474V22.4423ZM30.7077 30.7206H1.27949V28.1616H2.495H5.68093H10.8884H21.0604H26.2679H29.4538H30.7077V30.7206Z" fill="#03060E"/>
</svg>
