<svg width="32" height="45" viewBox="0 0 32 45" fill="none" xmlns="http://www.w3.org/2000/svg">
<path d="M32 19.2882V17.6874C32 13.1407 29.7554 8.89971 25.9957 6.3427L17.2303 0.381228C16.483 -0.127076 15.5171 -0.127076 14.7698 0.381228L6.00443 6.34261C5.10878 6.95173 4.28615 7.66683 3.55933 8.46786C3.31973 8.732 3.33953 9.14043 3.60367 9.38004C3.86781 9.61964 4.27616 9.59975 4.51585 9.3357C5.17413 8.61009 5.91937 7.9624 6.73081 7.41053L15.3543 1.5454V3.31543L7.55345 8.62042C4.549 10.6642 2.75529 14.0536 2.75529 17.6872V19.1913C2.75529 19.347 2.81143 19.4974 2.91354 19.6148C4.43423 21.3651 4.43423 23.906 2.91354 25.6563C2.81143 25.7737 2.75529 25.9241 2.75529 26.0798V40.6823C2.75529 41.039 3.04432 41.328 3.40101 41.328H28.5993C28.9559 41.328 29.245 41.039 29.245 40.6823V26.0798C29.245 25.9241 29.1888 25.7737 29.0867 25.6563C27.5658 23.9056 27.5657 21.3648 29.0866 19.6149C29.1887 19.4975 29.245 19.347 29.245 19.1913V17.6872C29.245 14.0537 27.4513 10.6643 24.4467 8.62033L16.6459 3.31534V1.5454L25.2696 7.41044C28.6754 9.72674 30.7087 13.5686 30.7087 17.6873V19.2881C30.7087 19.7473 30.5393 20.1881 30.2318 20.5293C29.149 21.7299 29.149 23.5407 30.2317 24.7413C30.5393 25.0825 30.7087 25.5233 30.7087 25.9826V41.8364C30.7087 42.3631 30.2802 42.7916 29.7534 42.7916H2.24682C1.72009 42.7916 1.29151 42.3631 1.29151 41.8364V25.9827C1.29151 25.5234 1.46094 25.0826 1.76847 24.7415C2.85129 23.5408 2.85129 21.73 1.76856 20.5294C1.46094 20.1882 1.29151 19.7474 1.29151 19.2882V17.6874C1.29151 15.605 1.82065 13.539 2.82167 11.7129C2.99309 11.4001 2.87858 11.0077 2.56589 10.8362C2.2531 10.6646 1.8606 10.7793 1.68927 11.092C0.584154 13.1079 0 15.3885 0 17.6873V19.2881C0 20.0673 0.287471 20.8152 0.809378 21.3942C1.44751 22.1018 1.44751 23.1689 0.809292 23.8765C0.287385 24.4554 0 25.2033 0 25.9826V41.8364C0 43.0752 1.00783 44.0831 2.24673 44.0831H29.7532C30.9921 44.0831 31.9999 43.0752 31.9999 41.8364V25.9827C31.9999 25.2034 31.7124 24.4555 31.1905 23.8765C30.5524 23.169 30.5524 22.1018 31.1906 21.3942C31.7125 20.8153 32 20.0673 32 19.2882ZM20.0726 24.0782L22.5593 25.5908C23.7205 26.2973 24.4419 27.5805 24.4419 28.9398V29.3701H15.7033V28.9398C15.7033 27.5805 16.4247 26.2973 17.5859 25.5908L20.0726 24.0782ZM27.9535 30.6617V31.7853H12.8033V30.6617H27.9535ZM11.512 21.524H7.95956V19.508C7.95956 18.8566 8.24479 18.2461 8.74319 17.8284L9.69618 17.1969L10.4472 17.8092C11.1139 18.3531 11.512 18.9881 11.512 19.5079V21.524ZM7.95973 22.8159H9.09007V25.6853C9.09007 26.042 9.37909 26.331 9.73578 26.331C10.0925 26.331 10.3815 26.042 10.3815 25.6853V22.8159H11.512V30.016V31.7853H11.1184C10.3338 31.7853 9.6954 32.4236 9.6954 33.2082V40.0366H7.95982V22.8159H7.95973ZM27.9535 40.0366H26.198V37.2936C26.198 36.9369 25.909 36.6479 25.5523 36.6479C25.1956 36.6479 24.9066 36.9369 24.9066 37.2936V40.0366H18.8257V37.2359C18.8257 36.5486 19.3849 35.9894 20.0722 35.9894C20.405 35.9894 20.718 36.1191 20.9541 36.3552C21.1893 36.5899 21.3189 36.9027 21.3189 37.2359V37.6686C21.3189 38.0253 21.6079 38.3143 21.9646 38.3143C22.3213 38.3143 22.6103 38.0253 22.6103 37.6686V37.2359C22.6103 36.5571 22.3461 35.9196 21.8667 35.4414C21.3873 34.962 20.7499 34.6979 20.0722 34.6979C18.6727 34.6979 17.5342 35.8365 17.5342 37.2359V40.0365H14.8462V37.2935C14.8462 36.9369 14.5572 36.6478 14.2005 36.6478C13.8438 36.6478 13.5548 36.9369 13.5548 37.2935V40.0365H10.9866V33.2081C10.9866 33.1356 11.0456 33.0766 11.1181 33.0766H27.9533V40.0366H27.9535ZM27.9535 17.6872V18.9577C27.1194 20.0024 26.6626 21.2987 26.6626 22.6352C26.6626 23.9717 27.1194 25.2682 27.9535 26.3133V29.3704H25.7333V28.9399C25.7333 27.1329 24.7742 25.4268 23.2304 24.4877L20.7183 22.9596V20.1118C20.7183 19.7551 20.4293 19.4661 20.0726 19.4661C19.7159 19.4661 19.4269 19.7551 19.4269 20.1118V22.9595L16.9148 24.4876C15.3709 25.4267 14.4119 27.1328 14.4119 28.9398V29.3703H12.8033V19.508C12.8033 18.2053 11.7263 17.1862 11.2632 16.8086C11.2632 16.8085 11.2632 16.8085 11.2631 16.8085L10.1437 15.8957C9.92467 15.717 9.61482 15.7017 9.379 15.8579L8.0014 16.7707C7.98366 16.7825 7.96653 16.795 7.94991 16.8085C7.1352 17.473 6.66796 18.4568 6.66796 19.508L6.66813 40.0365H4.04655V26.3132C4.88063 25.2682 5.33737 23.9718 5.33737 22.6355C5.33737 21.2991 4.88063 20.0028 4.04655 18.9577V17.6872C4.04655 14.4816 5.62906 11.4913 8.27966 9.68826L16 4.4381L23.7202 9.68817C26.3709 11.4913 27.9535 14.4817 27.9535 17.6872Z" fill="#03060E"/>
<path d="M15.7327 9.1512V9.83583H15.0481C14.6914 9.83583 14.4023 10.1249 14.4023 10.4815C14.4023 10.8382 14.6914 11.1273 15.0481 11.1273H15.7327V11.812C15.7327 12.1687 16.0217 12.4577 16.3784 12.4577C16.7351 12.4577 17.0241 12.1687 17.0241 11.812V11.1273H17.7088C18.0655 11.1273 18.3545 10.8382 18.3545 10.4815C18.3545 10.1249 18.0655 9.83583 17.7088 9.83583H17.0241V9.1512C17.0241 8.79451 16.7351 8.50549 16.3784 8.50549C16.0217 8.50549 15.7327 8.7946 15.7327 9.1512Z" fill="#03060E"/>
<path d="M16.3769 15.1034C16.0199 15.1034 15.7305 15.3928 15.7305 15.7498C15.7305 16.1069 16.0199 16.3963 16.3769 16.3963C16.7339 16.3963 17.0233 16.1069 17.0233 15.7498C17.0233 15.3928 16.734 15.1034 16.3769 15.1034Z" fill="#03060E"/>
<path d="M20.666 13.8797C21.023 13.8797 21.3124 13.5902 21.3124 13.2332C21.3124 12.8762 21.023 12.5868 20.666 12.5868C20.309 12.5868 20.0195 12.8762 20.0195 13.2332C20.0195 13.5902 20.309 13.8797 20.666 13.8797Z" fill="#03060E"/>
</svg>
