<svg width="40" height="40" viewBox="0 0 40 40" fill="none" xmlns="http://www.w3.org/2000/svg">
<g clip-path="url(#clip0_2043_14234)">
<path fill-rule="evenodd" clip-rule="evenodd" d="M18.9143 35.8807C19.1767 35.8093 19.3623 35.5767 19.3743 35.3049C19.3831 35.0721 19.2662 34.8539 19.0627 34.7365C17.7483 33.9778 17.8331 32.0263 19.2371 31.401C19.2877 31.3784 19.3339 31.3499 19.3751 31.3165V36.237C19.3949 38.0342 20.5295 39.5558 22.3076 39.9521C22.5764 40.012 22.8019 40.0482 23.0302 39.8563C23.2632 39.6615 23.2625 39.4308 23.2511 39.1623C23.1897 37.7189 22.3112 36.4723 21.043 35.9025C20.9078 35.8417 20.7682 35.7887 20.6247 35.7439V35.2924C20.6331 35.5692 20.8158 35.8075 21.0851 35.8807L36.0797 39.9637C36.2681 40.0124 36.4615 39.9807 36.6229 39.857C36.7811 39.7365 36.866 39.5587 36.8687 39.3609V37.1292C36.8672 36.9915 36.8262 36.8646 36.7432 36.7544C36.596 36.5591 36.4668 36.5529 36.2547 36.4792C35.2646 36.1354 34.4132 35.0654 34.4132 34.0157C34.4132 33.0333 35.1682 32.5768 36.0822 32.8217C36.2715 32.87 36.4705 32.8346 36.6292 32.7094C36.7836 32.5887 36.8663 32.4134 36.8687 32.2182V30.614C36.8671 30.4748 36.8254 30.3465 36.74 30.235C36.6545 30.1229 36.5423 30.0497 36.4081 30.0112L33.6051 29.248L39.5885 26.8195C39.8234 26.7242 39.9783 26.4941 39.9783 26.2406V3.12389C39.9783 2.77978 39.6977 2.49911 39.3535 2.49911H37.4934V1.87433C37.4934 1.44638 37.0784 1.15142 36.6711 1.28162L33.7448 2.25706V0.624777C33.7448 0.280668 33.4641 0 33.12 0C28.327 0 23.6887 1.67051 19.9999 4.7136C16.3112 1.67051 11.6728 0 6.8798 0C6.53569 0 6.25502 0.280668 6.25502 0.624777V2.25706L3.32871 1.28162C3.13401 1.21939 2.93264 1.24842 2.7662 1.36777C2.60279 1.48704 2.50637 1.67129 2.50637 1.87433V2.49911H0.646262C0.302152 2.49911 0.0214844 2.77978 0.0214844 3.12389V26.2406C0.0214844 26.371 0.0617994 26.4923 0.130566 26.5926C0.197508 26.6911 0.293102 26.7716 0.411322 26.8195L6.39457 29.2479L3.59136 30.0112C3.45669 30.0499 3.34475 30.123 3.25945 30.235C3.17427 30.3462 3.13234 30.4744 3.13073 30.614V32.2182C3.13306 32.4101 3.21284 32.5864 3.37017 32.7094C3.5285 32.8337 3.72289 32.8713 3.91722 32.8217C4.83124 32.5768 5.58621 33.0333 5.58621 34.0157C5.58621 35.0578 4.74721 36.1197 3.76634 36.4715C3.55978 36.5455 3.41045 36.5496 3.25617 36.7544C3.17294 36.865 3.13219 36.9919 3.13073 37.1292V39.3609C3.13336 39.5555 3.21433 39.7334 3.37647 39.8569C3.538 39.9807 3.73131 40.0124 3.91967 39.9637L18.9143 35.8807V35.8807ZM29.8985 19.6826C27.1537 20.1168 24.5213 21.1031 22.1669 22.5794C21.8754 22.7622 21.7867 23.1491 21.9695 23.4406C22.1523 23.7322 22.5392 23.8209 22.8308 23.6381C25.0424 22.2512 27.5153 21.3247 30.0938 20.9168C30.4337 20.8631 30.667 20.542 30.6132 20.2021C30.5595 19.8622 30.2384 19.6288 29.8985 19.6826ZM29.8985 16.4444C27.1537 16.8786 24.5213 17.8649 22.1669 19.3412C21.8754 19.524 21.7867 19.9109 21.9695 20.2024C22.1523 20.494 22.5392 20.5826 22.8308 20.3998C25.0424 19.013 27.5153 18.0865 30.0938 17.6786C30.4337 17.6248 30.667 17.3038 30.6132 16.9639C30.5595 16.624 30.2384 16.3906 29.8985 16.4444ZM29.8985 13.2062C27.1537 13.6404 24.5213 14.6267 22.1669 16.103C21.8754 16.2858 21.7867 16.6727 21.9695 16.9642C22.1523 17.2557 22.5392 17.3444 22.8308 17.1616C25.0424 15.7748 27.5153 14.8482 30.0938 14.4404C30.4337 14.3866 30.667 14.0655 30.6132 13.7256C30.5595 13.3857 30.2384 13.1524 29.8985 13.2062ZM29.8985 9.96792C27.1537 10.4021 24.5213 11.3884 22.1669 12.8647C21.8754 13.0475 21.7867 13.4344 21.9695 13.726C22.1523 14.0175 22.5392 14.1062 22.8308 13.9234C25.0424 12.5365 27.5153 11.61 30.0938 11.2021C30.4337 11.1484 30.667 10.8273 30.6132 10.4874C30.5595 10.1475 30.2384 9.91414 29.8985 9.96792ZM29.8985 6.72969C27.1537 7.16389 24.5212 8.15022 22.1669 9.62651C21.8754 9.80933 21.7867 10.1962 21.9695 10.4878C22.1523 10.7793 22.5392 10.868 22.8307 10.6852C25.0424 9.29832 27.5153 8.37178 30.0938 7.96389C30.4337 7.91013 30.667 7.58906 30.6132 7.24916C30.5595 6.90928 30.2384 6.67591 29.8985 6.72969ZM29.8985 3.49146C27.1537 3.92566 24.5212 4.91199 22.1669 6.38828C21.8754 6.57109 21.7867 6.95798 21.9695 7.24952C22.1523 7.54106 22.5392 7.62974 22.8307 7.44692C25.0424 6.06009 27.5153 5.13355 30.0938 4.72566C30.4337 4.6719 30.667 4.35083 30.6132 4.01093C30.5595 3.67105 30.2384 3.43768 29.8985 3.49146ZM9.90606 4.72566C12.4845 5.13355 14.9574 6.06009 17.1691 7.44692C17.4606 7.62974 17.8475 7.54106 18.0303 7.24952C18.2131 6.95798 18.1245 6.57109 17.8329 6.38828C15.4786 4.91199 12.8461 3.92566 10.1013 3.49146C9.76143 3.43769 9.44036 3.67106 9.38659 4.01093C9.33283 4.35083 9.56619 4.6719 9.90606 4.72566ZM9.90606 7.96389C12.4845 8.37178 14.9574 9.29832 17.1691 10.6852C17.4606 10.868 17.8475 10.7793 18.0303 10.4878C18.2131 10.1962 18.1245 9.80933 17.8329 9.62651C15.4786 8.15022 12.8461 7.16389 10.1013 6.72969C9.76143 6.67593 9.44036 6.90929 9.38659 7.24916C9.33283 7.58906 9.56619 7.91013 9.90606 7.96389ZM9.90606 11.2021C12.4845 11.61 14.9574 12.5365 17.1691 13.9234C17.4606 14.1062 17.8475 14.0175 18.0303 13.726C18.2131 13.4344 18.1244 13.0475 17.8329 12.8647C15.4786 11.3884 12.8461 10.4021 10.1013 9.96792C9.76143 9.91416 9.44036 10.1475 9.38659 10.4874C9.33283 10.8273 9.56619 11.1484 9.90606 11.2021ZM9.90606 14.4404C12.4845 14.8482 14.9574 15.7748 17.1691 17.1616C17.4606 17.3444 17.8475 17.2557 18.0303 16.9642C18.2131 16.6727 18.1244 16.2858 17.8329 16.103C15.4786 14.6267 12.8461 13.6404 10.1013 13.2062C9.76143 13.1524 9.44036 13.3858 9.38659 13.7256C9.33283 14.0655 9.56619 14.3866 9.90606 14.4404ZM17.8329 22.5794C15.4786 21.1031 12.8461 20.1168 10.1013 19.6826C9.76143 19.6288 9.44036 19.8622 9.38659 20.2021C9.33283 20.542 9.56619 20.8631 9.90606 20.9168C12.4845 21.3247 14.9574 22.2512 17.1691 23.6381C17.4606 23.8209 17.8475 23.7322 18.0303 23.4406C18.2131 23.1491 18.1244 22.7622 17.8329 22.5794ZM9.90606 17.6786C12.4845 18.0865 14.9574 19.013 17.1691 20.3998C17.4606 20.5826 17.8475 20.494 18.0303 20.2024C18.2131 19.9109 18.1244 19.524 17.8329 19.3412C15.4786 17.8649 12.8461 16.8786 10.1013 16.4444C9.76143 16.3906 9.44036 16.624 9.38659 16.9639C9.33283 17.3038 9.56619 17.6248 9.90606 17.6786ZM20.6247 35.2633V31.3167C20.6659 31.35 20.712 31.3786 20.7626 31.4011C22.1574 32.0226 22.2548 33.9757 20.9367 34.7365C20.748 34.8454 20.6296 35.046 20.6247 35.2633ZM23.098 33.5124L31.6955 30.023L35.6191 31.0914V31.5081C34.254 31.5067 33.1637 32.494 33.1637 34.0158C33.1637 35.5212 34.2363 36.9848 35.6191 37.5724V38.5433L22.5093 34.9735C22.8243 34.5484 23.0293 34.0462 23.098 33.5124V33.5124ZM22.9896 32.2079C22.852 31.7534 22.6126 31.3372 22.2919 30.9907L37.1017 25.037C37.3379 24.942 37.4935 24.7118 37.4935 24.4573V3.74866H38.7288V25.8199L22.9896 32.2079V32.2079ZM20.6247 30.3437V28.4026C24.1151 25.4554 28.5469 23.8325 33.12 23.8325C33.4642 23.8325 33.7448 23.5518 33.7448 23.2077V3.57419L36.2439 2.74115V24.0351L20.6247 30.3437V30.3437ZM3.75593 24.0351V2.74116L6.25504 3.5742V23.2077C6.25504 23.5518 6.53571 23.8325 6.87982 23.8325C11.456 23.8325 15.8894 25.4593 19.3752 28.4027V30.3437L3.75593 24.0351V24.0351ZM19.3752 26.8008C15.9577 24.197 11.8034 22.723 7.5046 22.5927V1.25978C11.8602 1.40035 16.0489 3.01102 19.3752 5.8197V26.8008ZM20.6247 26.8011V5.8197C23.9511 3.01087 28.1394 1.40028 32.4953 1.25978V22.5927C28.1912 22.7232 24.0406 24.1984 20.6247 26.8011ZM17.7078 30.9906C17.387 31.3371 17.1476 31.7533 17.0099 32.2077L1.27105 25.8199V3.74866H2.50638V24.4573C2.50638 24.5865 2.54595 24.7067 2.61357 24.8066C2.68098 24.9069 2.77795 24.9887 2.8981 25.037L17.7077 30.9906L17.7078 30.9906ZM16.9015 33.5123C16.9702 34.0461 17.1752 34.5484 17.4902 34.9735L4.38031 38.5433V37.5725C5.76319 36.9849 6.83578 35.5212 6.83578 34.0158C6.83578 32.494 5.74549 31.5067 4.38031 31.5081V31.0915L8.30421 30.023L16.9015 33.5123V33.5123ZM21.8447 38.4405C21.3578 38.1504 20.984 37.7022 20.7847 37.1743C21.2738 37.4652 21.6418 37.9097 21.8447 38.4405Z" fill="white"/>
</g>
<defs>
<clipPath id="clip0_2043_14234">
<rect width="40" height="40" fill="white"/>
</clipPath>
</defs>
</svg>
