<svg width="40" height="40" viewBox="0 0 40 40" fill="none" xmlns="http://www.w3.org/2000/svg">
<g clip-path="url(#clip0_2043_14255)">
<path d="M36.954 17.4074C37.282 17.4075 37.548 17.1415 37.548 16.8134V15.4885H37.8356C38.1637 15.4885 38.4297 15.2225 38.4297 14.8944V12.3976C38.4297 12.0696 38.1637 11.8036 37.8356 11.8036H37.548V7.93028C37.548 7.80778 37.5101 7.68825 37.4396 7.58809L34.5342 3.46497V0.61895C34.5342 0.293637 34.2836 0.00996517 33.9584 0.00027767C33.622 -0.00987858 33.3461 0.259887 33.3461 0.594106V3.46497L30.4408 7.58817C30.3702 7.68825 30.3323 7.80778 30.3323 7.93036V11.8036H30.0447C29.7167 11.8036 29.4507 12.0697 29.4507 12.3977V14.8944C29.4507 15.2225 29.7167 15.4885 30.0447 15.4885H30.3323V36.3152H30.0447C29.7167 36.3152 29.4507 36.5812 29.4507 36.9093V39.4061C29.4507 39.7341 29.7167 40.0001 30.0447 40.0001H37.8357C38.1637 40.0001 38.4297 39.7341 38.4297 39.4061V36.9093C38.4297 36.5813 38.1637 36.3153 37.8357 36.3153H37.5481V19.5857C37.5481 19.2577 37.2821 18.9917 36.954 18.9917C36.626 18.9917 36.36 19.2577 36.36 19.5857V36.3152H31.5205V15.4884H36.36V16.8133C36.3599 17.1414 36.6259 17.4074 36.954 17.4074ZM31.5203 8.11856H31.5204L33.9401 4.68457L36.3598 8.11856V11.8036H35.9215V10.1639C35.9215 9.98012 35.8364 9.80653 35.691 9.69411L34.3035 8.62075C34.0895 8.4552 33.7905 8.4552 33.5765 8.62075L32.189 9.69411C32.0437 9.80661 31.9585 9.98012 31.9585 10.1639V11.8036H31.5202V8.11856H31.5203ZM34.7336 10.4554V11.8036H33.1467V10.4554L33.9401 9.84168L34.7336 10.4554ZM36.954 37.5033H37.2415V38.8119H30.6387V37.5033H30.9262H36.954ZM30.6388 14.3003V12.9917H32.5527H35.3277H37.2417V14.3003H30.6388Z" fill="white"/>
<path d="M25.5573 27.9241L23.5236 26.3508C23.3095 26.1852 23.0105 26.1852 22.7965 26.3508L20.7628 27.9241C20.6174 28.0366 20.5322 28.2101 20.5322 28.3939V31.668C20.5322 31.996 20.7982 32.262 21.1263 32.262H25.1939C25.5219 32.262 25.7879 31.996 25.7879 31.668V28.3939C25.7878 28.2101 25.7027 28.0366 25.5573 27.9241ZM21.7202 31.0739V28.6854L23.1599 27.5716L24.5996 28.6854V31.0739H21.7202Z" fill="white"/>
<path d="M9.46616 27.924L7.43241 26.3507C7.21843 26.1852 6.91944 26.1852 6.70546 26.3507L4.67171 27.924C4.52632 28.0365 4.44116 28.21 4.44116 28.3938V31.6679C4.44116 31.996 4.70718 32.262 5.03522 32.262H9.10272C9.43077 32.262 9.69679 31.996 9.69679 31.6679V28.3938C9.69671 28.2099 9.61155 28.0365 9.46616 27.924ZM8.50858 31.0738H5.62921V28.6853L7.0689 27.5716L8.50858 28.6853V31.0738Z" fill="white"/>
<path d="M28.4827 25.7658L25.8451 23.1521C26.1872 22.6879 26.6883 21.8963 26.9712 20.9281C26.9781 20.9042 26.9837 20.8798 26.9877 20.8552L27.1885 19.5982C27.1931 19.5693 27.1955 19.54 27.1959 19.5107C27.204 18.7331 27.0212 17.9895 26.6517 17.2982C25.2007 14.6081 17.4452 11.0562 15.7085 10.2868V9.26291C17.6252 9.02127 19.2012 7.62275 19.6445 5.69689C19.7013 5.45057 19.5958 5.19525 19.3818 5.06072C19.1678 4.92611 18.892 4.94182 18.6946 5.09979C18.1814 5.51025 17.5628 5.72721 16.9056 5.72721C15.3244 5.72721 14.0379 4.4408 14.0379 2.85955C14.0379 2.20236 14.2548 1.58377 14.6653 1.07057C14.8233 0.873145 14.8388 0.597364 14.7044 0.38338C14.5698 0.169395 14.3144 0.0639265 14.0682 0.120645C11.9466 0.609005 10.4648 2.47182 10.4648 4.65072C10.4648 7.01322 12.2363 8.96846 14.5205 9.26119V10.2866C13.7556 10.6281 11.8702 11.4906 9.89266 12.5515C6.38422 14.4336 4.2593 16.031 3.57625 17.3003C3.20789 17.9895 3.02516 18.7331 3.0332 19.5108C3.03352 19.5401 3.03594 19.5694 3.04055 19.5984L3.24141 20.8553C3.24539 20.8799 3.25086 20.9043 3.25781 20.9282C3.54078 21.8967 4.0418 22.6881 4.38391 23.1524L1.74625 25.766C1.63367 25.8774 1.57031 26.0294 1.57031 26.1879V39.4067C1.57031 39.7348 1.83633 40.0008 2.16437 40.0008H28.0645C28.3926 40.0008 28.6586 39.7348 28.6586 39.4067V26.1878C28.6585 26.0292 28.5952 25.8774 28.4827 25.7658ZM11.6528 4.65049C11.6528 3.56057 12.1507 2.57697 12.9564 1.93854C12.886 2.23916 12.8497 2.5483 12.8497 2.8594C12.8497 5.09572 14.6691 6.91518 16.9055 6.91518C17.2166 6.91518 17.5259 6.87885 17.8264 6.80846C17.188 7.61416 16.2044 8.11205 15.1145 8.11205C13.2057 8.11213 11.6528 6.55924 11.6528 4.65049ZM18.1032 38.8127H12.1256V32.612L15.1145 29.5698L18.1032 32.612V38.8127ZM27.4705 38.8127H27.4705H19.2913V32.3689C19.2913 32.2132 19.2302 32.0637 19.121 31.9526L15.5477 28.3155C15.489 28.2556 15.4205 28.2048 15.3429 28.1731C15.1097 28.0783 14.8555 28.138 14.6907 28.3058L11.1078 31.9527C10.9987 32.0637 10.9375 32.2133 10.9375 32.369V38.8127H2.75844V26.4355L5.42648 23.7916H10.8653C11.1934 23.7916 11.4594 23.5256 11.4594 23.1975C11.4594 22.8695 11.1934 22.6035 10.8653 22.6035H5.46C5.19891 22.2718 4.68172 21.5384 4.40852 20.6296L4.22094 19.4559C4.22156 18.8885 4.35352 18.3661 4.6232 17.8617C5.74695 15.7735 12.3563 12.5331 15.112 11.3227C15.7582 11.6084 17.8286 12.5426 20.0111 13.7274C21.788 14.692 24.8777 16.5119 25.605 17.8604C25.8755 18.3663 26.0074 18.8886 26.008 19.456L25.8205 20.6297C25.5472 21.5388 25.0297 22.2724 24.769 22.6035H13.6377C13.3097 22.6035 13.0437 22.8696 13.0437 23.1976C13.0437 23.5256 13.3097 23.7917 13.6377 23.7917H24.8025L27.4705 26.4356V38.8127Z" fill="white"/>
</g>
<defs>
<clipPath id="clip0_2043_14255">
<rect width="40" height="40" fill="white"/>
</clipPath>
</defs>
</svg>
