<svg width="33" height="32" viewBox="0 0 33 32" fill="none" xmlns="http://www.w3.org/2000/svg">
<path fill-rule="evenodd" clip-rule="evenodd" d="M15.2581 28.7046C15.468 28.6475 15.6164 28.4613 15.626 28.2439C15.6331 28.0577 15.5395 27.8831 15.3768 27.7892C14.3253 27.1822 14.3931 25.621 15.5163 25.1208C15.5568 25.1027 15.5937 25.0799 15.6267 25.0532V28.9896C15.6425 30.4273 16.5502 31.6446 17.9727 31.9617C18.1877 32.0096 18.3682 32.0386 18.5507 31.885C18.7372 31.7292 18.7366 31.5447 18.7275 31.3298C18.6784 30.1751 17.9755 29.1779 16.961 28.722C16.8529 28.6734 16.7412 28.6309 16.6264 28.5951V28.234C16.6331 28.4554 16.7793 28.646 16.9947 28.7046L28.9904 31.971C29.1411 32.0099 29.2958 31.9846 29.425 31.8856C29.5515 31.7892 29.6194 31.647 29.6216 31.4887V29.7033C29.6204 29.5932 29.5876 29.4917 29.5212 29.4035C29.4034 29.2472 29.3001 29.2423 29.1304 29.1834C28.3383 28.9084 27.6572 28.0524 27.6572 27.2126C27.6572 26.4266 28.2612 26.0614 28.9924 26.2574C29.1438 26.296 29.303 26.2677 29.43 26.1675C29.5535 26.0709 29.6197 25.9307 29.6216 25.7746V24.4912C29.6203 24.3798 29.5869 24.2772 29.5186 24.188C29.4502 24.0983 29.3605 24.0397 29.2531 24.009L27.0107 23.3984L31.7974 21.4556C31.9853 21.3794 32.1093 21.1953 32.1093 20.9925V2.49911C32.1093 2.22382 31.8847 1.99929 31.6094 1.99929H30.1214V1.49947C30.1214 1.1571 29.7893 0.921139 29.4635 1.0253L27.1224 1.80565V0.499822C27.1224 0.224534 26.8979 0 26.6226 0C22.7882 0 19.0775 1.33641 16.1265 3.77088C13.1755 1.33641 9.46487 0 5.63045 0C5.35516 0 5.13063 0.224534 5.13063 0.499822V1.80565L2.78958 1.0253C2.63382 0.975512 2.47273 0.998734 2.33957 1.09422C2.20884 1.18964 2.13171 1.33704 2.13171 1.49947V1.99929H0.643621C0.368333 1.99929 0.143799 2.22382 0.143799 2.49911V20.9925C0.143799 21.0968 0.176051 21.1938 0.231064 21.2741C0.284618 21.3529 0.361093 21.4172 0.455669 21.4556L5.24226 23.3983L2.9997 24.009C2.89196 24.0399 2.80241 24.0984 2.73417 24.188C2.66603 24.2769 2.63249 24.3795 2.6312 24.4912V25.7746C2.63306 25.9281 2.69688 26.0691 2.82275 26.1675C2.94941 26.267 3.10493 26.297 3.26039 26.2574C3.9916 26.0614 4.59558 26.4266 4.59558 27.2126C4.59558 28.0462 3.92438 28.8958 3.13968 29.1772C2.97444 29.2364 2.85497 29.2397 2.73154 29.4035C2.66496 29.492 2.63237 29.5935 2.6312 29.7033V31.4887C2.6333 31.6444 2.69807 31.7867 2.82779 31.8856C2.95701 31.9846 3.11166 32.0099 3.26235 31.971L15.2581 28.7046V28.7046ZM24.0454 15.7461C21.8496 16.0935 19.7436 16.8825 17.8602 18.0635C17.6269 18.2098 17.556 18.5193 17.7022 18.7525C17.8485 18.9858 18.158 19.0567 18.3912 18.9104C20.1605 17.801 22.1389 17.0598 24.2016 16.7335C24.4735 16.6904 24.6602 16.4336 24.6172 16.1617C24.5742 15.8898 24.3173 15.7031 24.0454 15.7461ZM24.0454 13.1555C21.8496 13.5029 19.7436 14.2919 17.8602 15.473C17.6269 15.6192 17.556 15.9287 17.7022 16.1619C17.8485 16.3952 18.158 16.4661 18.3912 16.3199C20.1605 15.2104 22.1389 14.4692 24.2016 14.1429C24.4735 14.0999 24.6602 13.843 24.6172 13.5711C24.5742 13.2992 24.3173 13.1125 24.0454 13.1555ZM24.0454 10.5649C21.8496 10.9123 19.7436 11.7013 17.8602 12.8824C17.6269 13.0286 17.556 13.3381 17.7022 13.5714C17.8485 13.8046 18.158 13.8755 18.3912 13.7293C20.1605 12.6198 22.1389 11.8786 24.2016 11.5523C24.4735 11.5093 24.6602 11.2524 24.6172 10.9805C24.5742 10.7086 24.3173 10.5219 24.0454 10.5649ZM24.0454 7.97434C21.8496 8.3217 19.7436 9.11075 17.8602 10.2918C17.6269 10.438 17.556 10.7475 17.7022 10.9808C17.8485 11.214 18.158 11.2849 18.3912 11.1387C20.1605 10.0292 22.1389 9.28801 24.2016 8.9617C24.4735 8.91869 24.6602 8.66183 24.6172 8.38991C24.5742 8.11801 24.3173 7.93132 24.0454 7.97434ZM24.0454 5.38375C21.8496 5.73112 19.7436 6.52018 17.8601 7.70121C17.6269 7.84746 17.556 8.15697 17.7022 8.3902C17.8485 8.62343 18.158 8.69437 18.3912 8.54812C20.1605 7.43865 22.1389 6.69743 24.2016 6.37112C24.4735 6.3281 24.6602 6.07125 24.6172 5.79933C24.5742 5.52742 24.3173 5.34073 24.0454 5.38375ZM24.0454 2.79317C21.8496 3.14053 19.7436 3.92959 17.8601 5.11063C17.6269 5.25687 17.556 5.56638 17.7022 5.79962C17.8485 6.03284 18.158 6.10379 18.3912 5.95754C20.1605 4.84807 22.1389 4.10684 24.2016 3.78053C24.4735 3.73752 24.6602 3.48066 24.6172 3.20874C24.5742 2.93684 24.3173 2.75015 24.0454 2.79317ZM8.05146 3.78053C10.1142 4.10684 12.0926 4.84807 13.8619 5.95754C14.0951 6.10379 14.4046 6.03284 14.5509 5.79962C14.6971 5.56638 14.6262 5.25687 14.393 5.11063C12.5095 3.92959 10.4035 3.14053 8.20767 2.79317C7.93576 2.75016 7.6789 2.93685 7.63589 3.20874C7.59287 3.48066 7.77957 3.73752 8.05146 3.78053ZM8.05146 6.37112C10.1142 6.69743 12.0926 7.43865 13.8619 8.54812C14.0951 8.69437 14.4046 8.62343 14.5509 8.3902C14.6971 8.15697 14.6262 7.84746 14.393 7.70121C12.5095 6.52018 10.4035 5.73112 8.20767 5.38375C7.93576 5.34074 7.6789 5.52743 7.63589 5.79933C7.59287 6.07125 7.77957 6.3281 8.05146 6.37112ZM8.05146 8.9617C10.1142 9.28801 12.0926 10.0292 13.8619 11.1387C14.0951 11.2849 14.4046 11.214 14.5509 10.9808C14.6971 10.7475 14.6262 10.438 14.3929 10.2918C12.5095 9.11075 10.4035 8.3217 8.20767 7.97434C7.93576 7.93133 7.6789 8.11802 7.63589 8.38991C7.59287 8.66183 7.77957 8.91869 8.05146 8.9617ZM8.05146 11.5523C10.1142 11.8786 12.0926 12.6198 13.8619 13.7293C14.0951 13.8755 14.4046 13.8046 14.5509 13.5714C14.6971 13.3381 14.6262 13.0286 14.3929 12.8824C12.5095 11.7013 10.4035 10.9123 8.20767 10.5649C7.93576 10.5219 7.6789 10.7086 7.63589 10.9805C7.59287 11.2524 7.77957 11.5093 8.05146 11.5523ZM14.3929 18.0635C12.5095 16.8825 10.4035 16.0935 8.20767 15.7461C7.93576 15.7031 7.6789 15.8898 7.63589 16.1617C7.59287 16.4336 7.77957 16.6904 8.05146 16.7335C10.1142 17.0598 12.0926 17.801 13.8619 18.9104C14.0951 19.0567 14.4046 18.9858 14.5509 18.7525C14.6971 18.5193 14.6262 18.2098 14.3929 18.0635ZM8.05146 14.1429C10.1142 14.4692 12.0926 15.2104 13.8619 16.3199C14.0951 16.4661 14.4046 16.3952 14.5509 16.1619C14.6971 15.9287 14.6262 15.6192 14.3929 15.473C12.5095 14.2919 10.4035 13.5029 8.20767 13.1555C7.93576 13.1125 7.6789 13.2992 7.63589 13.5711C7.59287 13.843 7.77957 14.0999 8.05146 14.1429ZM16.6264 28.2107V25.0534C16.6593 25.08 16.6962 25.1028 16.7367 25.1209C17.8525 25.6181 17.9304 27.1806 16.876 27.7892C16.725 27.8763 16.6303 28.0368 16.6264 28.2107ZM18.605 26.8099L25.483 24.0184L28.6219 24.8732V25.2065C27.5298 25.2053 26.6575 25.9952 26.6575 27.2126C26.6575 28.4169 27.5156 29.5879 28.6219 30.0579V30.8346L18.134 27.9788C18.386 27.6388 18.55 27.237 18.605 26.8099V26.8099ZM18.5183 25.7663C18.4082 25.4027 18.2167 25.0698 17.9601 24.7926L29.808 20.0296C29.9969 19.9536 30.1214 19.7695 30.1214 19.5658V2.99893H31.1097V20.6559L18.5183 25.7663V25.7663ZM16.6264 24.2749V22.7221C19.4187 20.3643 22.9641 19.066 26.6226 19.066C26.8979 19.066 27.1225 18.8415 27.1225 18.5662V2.85935L29.1218 2.19292V19.2281L16.6264 24.2749V24.2749ZM3.13136 19.2281V2.19293L5.13065 2.85936V18.5662C5.13065 18.8415 5.35518 19.066 5.63047 19.066C9.2914 19.066 12.8382 20.3674 15.6267 22.7221V24.275L3.13136 19.2281V19.2281ZM15.6267 21.4406C12.8928 19.3576 9.56932 18.1784 6.13029 18.0742V1.00782C9.61479 1.12028 12.9657 2.40881 15.6267 4.65576V21.4406ZM16.6264 21.4409V4.65576C19.2875 2.40869 22.6382 1.12022 26.1228 1.00782V18.0742C22.6795 18.1786 19.3591 19.3587 16.6264 21.4409ZM14.2928 24.7925C14.0362 25.0697 13.8447 25.4026 13.7345 25.7662L1.14345 20.6559V2.99893H2.13172V19.5658C2.13172 19.6692 2.16337 19.7654 2.21747 19.8452C2.27139 19.9255 2.34897 19.9909 2.4451 20.0296L14.2928 24.7925L14.2928 24.7925ZM13.6478 26.8098C13.7028 27.2369 13.8668 27.6387 14.1188 27.9788L3.63086 30.8346V30.058C4.73716 29.5879 5.59524 28.417 5.59524 27.2126C5.59524 25.9952 4.723 25.2054 3.63086 25.2065V24.8732L6.76998 24.0184L13.6478 26.8098V26.8098ZM17.6024 30.7524C17.2129 30.5203 16.9138 30.1617 16.7544 29.7395C17.1457 29.9722 17.44 30.3277 17.6024 30.7524Z" fill="#03060E"/>
</svg>
