<svg width="28" height="32" viewBox="0 0 28 32" fill="none" xmlns="http://www.w3.org/2000/svg">
<path d="M13.9933 32C13.8157 32 13.6394 31.9719 13.4706 31.9168L0.823125 27.8102C0.407296 27.6729 0.126468 27.2841 0.126468 26.8463V5.15651C0.125453 4.71632 0.408988 4.32621 0.827862 4.19087L13.4706 0.081977C13.8147 -0.0286627 14.1851 -0.0273093 14.5286 0.0860371L26.8387 4.18952C27.2531 4.32756 27.5326 4.71565 27.5326 5.15245V26.8422C27.5333 27.2821 27.2501 27.6725 26.8316 27.8079L14.5286 31.9127C14.356 31.9702 14.1753 32 13.9933 32ZM13.9933 0.676792C13.8867 0.676792 13.7808 0.693371 13.6797 0.726191L1.03696 4.83441C0.897562 4.87975 0.803163 5.00967 0.803163 5.15651V26.8463C0.803163 26.9921 0.896208 27.1214 1.03459 27.1674L13.6793 31.2732C13.8857 31.3406 14.1083 31.3395 14.3144 31.2705L26.6191 27.165C26.7602 27.1207 26.8559 26.9901 26.8559 26.8422V5.15415C26.8559 5.00832 26.7629 4.87907 26.6245 4.83305L14.3144 0.728221C14.2109 0.694048 14.1023 0.676454 13.9933 0.676792Z" fill="#03060E"/>
<path d="M18.3972 30.6027C18.2111 30.6013 18.0602 30.4504 18.0588 30.2643V22.9702C18.0588 22.5331 18.3387 22.145 18.7535 22.0069L22.5819 20.7327C22.9402 20.6174 23.3242 20.8139 23.4396 21.1722C23.4606 21.2375 23.4717 21.3059 23.4724 21.3746V28.6829C23.4724 28.8284 23.3794 28.9576 23.2413 29.0036L18.5044 30.5837C18.4699 30.5959 18.4337 30.6023 18.3972 30.6027ZM22.7957 21.3736L18.967 22.6491C18.8286 22.6951 18.7355 22.8244 18.7355 22.9702V29.7947L22.7957 28.4413V21.3736Z" fill="#03060E"/>
<path d="M13.9941 9.6643C13.812 9.6643 13.631 9.6352 13.4581 9.57802L0.360352 5.32499L0.56945 4.68213L13.6699 8.93516C13.8817 9.00553 14.1105 9.0052 14.3219 8.93347L27.0874 4.68213L27.3013 5.32499L14.5402 9.57531C14.3642 9.63486 14.1798 9.66497 13.9941 9.6643Z" fill="#03060E"/>
<path d="M13.9941 13.0478C13.812 13.0478 13.631 13.0187 13.4581 12.9616L0.360352 8.70853L0.56945 8.06567L13.6699 12.3187C13.8817 12.3891 14.1105 12.3887 14.3219 12.317L27.0874 8.06567L27.3013 8.70853L14.5402 12.9589C14.3642 13.0184 14.1798 13.0485 13.9941 13.0478Z" fill="#03060E"/>
<path d="M13.9941 17.1079C13.812 17.1079 13.631 17.0788 13.4581 17.0216L0.360352 12.7686L0.56945 12.1257L13.6699 16.3788C13.8817 16.4491 14.1105 16.4488 14.3219 16.3771L27.0874 12.1257L27.3013 12.7686L14.5402 17.0189C14.3642 17.0785 14.1798 17.1086 13.9941 17.1079Z" fill="#03060E"/>
<path d="M13.992 15.7556C13.4929 15.7133 13.0033 15.5949 12.5404 15.404C12.4014 15.3587 12.307 15.2291 12.307 15.0826V13.6581C12.307 13.4714 12.4582 13.3198 12.6453 13.3198C12.6809 13.3198 12.7164 13.3256 12.7502 13.3364L13.8803 13.7052C13.953 13.7312 14.0326 13.7312 14.1053 13.7052L15.2455 13.3262C15.4228 13.2674 15.6143 13.3634 15.6732 13.5407C15.6847 13.5753 15.6905 13.6115 15.6905 13.6477V15.0755C15.6905 15.2217 15.5971 15.3512 15.4583 15.3969C14.9911 15.5918 14.4964 15.7126 13.992 15.7556ZM12.9837 14.837C13.4635 15.017 14.0603 15.1841 14.535 14.9892L15.0138 14.8309V14.1169C14.6328 14.2272 14.0664 14.5206 13.6665 14.347L12.9837 14.1244V14.837ZM9.26185 14.3213C9.22632 14.3213 9.19147 14.3156 9.15764 14.3047L6.78921 13.5367C6.64947 13.4913 6.55507 13.3614 6.55507 13.2146V11.7935C6.5571 11.6051 6.71139 11.4542 6.89985 11.4562C6.933 11.4565 6.96616 11.4619 6.99797 11.4717L9.3664 12.2398C9.5058 12.2851 9.6002 12.4151 9.6002 12.5616V13.9826C9.59918 14.1691 9.44828 14.32 9.26185 14.3213ZM7.23176 12.9679L8.9235 13.5167V12.8062L7.23176 12.2577V12.9679ZM18.7356 14.2834C18.5492 14.2821 18.3986 14.1315 18.3972 13.9451V12.521C18.3972 12.3751 18.4903 12.2459 18.6287 12.1999L20.9971 11.4119C21.1761 11.354 21.3679 11.4518 21.4258 11.6308C21.4366 11.6639 21.442 11.6981 21.4424 11.733V13.1574C21.4424 13.3029 21.349 13.4321 21.2109 13.4781L18.8425 14.2665C18.808 14.278 18.7718 14.2841 18.7356 14.2841V14.2834ZM19.0739 12.7642V13.4748L20.7657 12.9114V12.2009L19.0739 12.7642ZM3.17159 12.3454C3.13607 12.3454 3.10088 12.3399 3.06704 12.3288L0.360263 11.4491C0.220864 11.4037 0.126465 11.2738 0.126465 11.1273V9.70625C0.128495 9.51779 0.282781 9.36689 0.471241 9.36892C0.504399 9.36926 0.537557 9.37467 0.569362 9.38448L3.27614 10.2642C3.41554 10.3095 3.50994 10.4394 3.50994 10.586V12.007C3.50893 12.1934 3.35802 12.3443 3.17159 12.3454ZM0.80316 10.8813L2.83325 11.5411V10.8306L0.80316 10.1708V10.8813ZM24.8258 12.254C24.6397 12.2527 24.4888 12.1017 24.4875 11.9157V10.4946C24.4875 10.3491 24.5809 10.2199 24.7189 10.1738L27.0874 9.3855C27.2663 9.32764 27.4585 9.4261 27.516 9.60508C27.5265 9.63756 27.5319 9.67174 27.5326 9.70591V11.1317C27.5326 11.2775 27.4392 11.4071 27.3009 11.4531L24.9324 12.2381C24.8979 12.2489 24.862 12.2543 24.8258 12.254ZM25.1642 10.7385V11.447L26.8559 10.8861V10.1755L25.1642 10.7385Z" fill="#03060E"/>
</svg>
