<svg width="28" height="32" viewBox="0 0 28 32" fill="none" xmlns="http://www.w3.org/2000/svg">
<path d="M13.8668 32C13.6892 32 13.5129 31.9719 13.3441 31.9168L0.69666 27.8102C0.280831 27.6729 2.71648e-06 27.2841 2.71648e-06 26.8463V5.15651C-0.00101233 4.71632 0.282523 4.32621 0.701397 4.19087L13.3441 0.081977C13.6882 -0.0286627 14.0587 -0.0273093 14.4021 0.0860371L26.7122 4.18952C27.1267 4.32756 27.4062 4.71565 27.4062 5.15245V26.8422C27.4068 27.2821 27.1236 27.6725 26.7051 27.8079L14.4021 31.9127C14.2295 31.9702 14.0489 32 13.8668 32ZM13.8668 0.676792C13.7603 0.676792 13.6544 0.693371 13.5532 0.726191L0.910496 4.83441C0.771097 4.87975 0.676698 5.00967 0.676698 5.15651V26.8463C0.676698 26.9921 0.769744 27.1214 0.908128 27.1674L13.5529 31.2732C13.7592 31.3406 13.9819 31.3395 14.1879 31.2705L26.4926 27.165C26.6337 27.1207 26.7295 26.9901 26.7295 26.8422V5.15415C26.7295 5.00832 26.6364 4.87907 26.498 4.83305L14.1879 0.728221C14.0844 0.694048 13.9758 0.676454 13.8668 0.676792Z" fill="#03060E"/>
<path d="M18.271 30.6027C18.0849 30.6013 17.934 30.4504 17.9326 30.2643V22.9702C17.9326 22.5331 18.2124 22.145 18.6272 22.0069L22.4556 20.7327C22.814 20.6174 23.198 20.8139 23.3134 21.1722C23.3343 21.2375 23.3455 21.3059 23.3462 21.3746V28.6829C23.3462 28.8284 23.2531 28.9576 23.1151 29.0036L18.3782 30.5837C18.3437 30.5959 18.3075 30.6023 18.271 30.6027ZM22.6695 21.3736L18.8407 22.6491C18.7024 22.6951 18.6093 22.8244 18.6093 22.9702V29.7947L22.6695 28.4413V21.3736Z" fill="#03060E"/>
<path d="M13.8676 9.6643C13.6856 9.6643 13.5046 9.6352 13.3317 9.57802L0.233887 5.32499L0.442986 4.68213L13.5435 8.93516C13.7553 9.00553 13.984 9.0052 14.1955 8.93347L26.961 4.68213L27.1748 5.32499L14.4137 9.57531C14.2378 9.63486 14.0534 9.66497 13.8676 9.6643Z" fill="#03060E"/>
<path d="M13.8676 13.0481C13.6856 13.0481 13.5046 13.019 13.3317 12.9618L0.233887 8.70878L0.442986 8.06592L13.5435 12.3189C13.7553 12.3893 13.984 12.389 14.1955 12.3173L26.961 8.06592L27.1748 8.70878L14.4137 12.9591C14.2378 13.0187 14.0534 13.0488 13.8676 13.0481Z" fill="#03060E"/>
<path d="M13.8676 17.1081C13.6856 17.1081 13.5046 17.079 13.3317 17.0219L0.233887 12.7688L0.442986 12.126L13.5435 16.379C13.7553 16.4494 13.984 16.449 14.1955 16.3773L26.961 12.126L27.1748 12.7688L14.4137 17.0192C14.2378 17.0787 14.0534 17.1088 13.8676 17.1081Z" fill="#03060E"/>
<path d="M13.8655 15.7553C13.3664 15.713 12.8768 15.5946 12.414 15.4038C12.2749 15.3584 12.1805 15.2289 12.1805 15.0823V13.6579C12.1805 13.4711 12.3318 13.3196 12.5189 13.3196C12.5544 13.3196 12.5899 13.3253 12.6237 13.3361L13.7538 13.7049C13.8266 13.731 13.9061 13.731 13.9788 13.7049L15.1191 13.326C15.2964 13.2671 15.4879 13.3632 15.5467 13.5405C15.5582 13.575 15.564 13.6112 15.564 13.6474V15.0752C15.564 15.2214 15.4706 15.351 15.3319 15.3967C14.8646 15.5916 14.37 15.7124 13.8655 15.7553ZM12.8572 14.8367C13.337 15.0167 13.9338 15.1839 14.4085 14.989L14.8873 14.8306V14.1167C14.5063 14.227 13.9399 14.5204 13.54 14.3468L12.8572 14.1241V14.8367ZM9.13539 14.3211C9.09986 14.3211 9.06501 14.3153 9.03117 14.3045L6.66274 13.5364C6.523 13.4911 6.4286 13.3612 6.4286 13.2143V11.7933C6.43063 11.6048 6.58492 11.4539 6.77338 11.4559C6.80654 11.4563 6.8397 11.4617 6.8715 11.4715L9.23993 12.2396C9.37933 12.2849 9.47373 12.4148 9.47373 12.5613V13.9824C9.47272 14.1688 9.32182 14.3197 9.13539 14.3211ZM7.1053 12.9677L8.79704 13.5165V12.8059L7.1053 12.2575V12.9677ZM18.6091 14.2832C18.4227 14.2818 18.2721 14.1313 18.2708 13.9448V12.5207C18.2708 12.3749 18.3638 12.2456 18.5022 12.1996L20.8706 11.4116C21.0496 11.3538 21.2415 11.4515 21.2993 11.6305C21.3101 11.6637 21.3156 11.6979 21.3159 11.7327V13.1572C21.3159 13.3026 21.2225 13.4319 21.0845 13.4779L18.716 14.2663C18.6815 14.2778 18.6453 14.2838 18.6091 14.2838V14.2832ZM18.9475 12.764V13.4745L20.6392 12.9112V12.2006L18.9475 12.764ZM3.04513 12.3451C3.0096 12.3451 2.97441 12.3397 2.94058 12.3285L0.233798 11.4488C0.094399 11.4035 0 11.2736 0 11.1271V9.70601C0.00203009 9.51755 0.156317 9.36664 0.344776 9.36867C0.377934 9.36901 0.411092 9.37442 0.442897 9.38424L3.14968 10.2639C3.28908 10.3093 3.38348 10.4392 3.38348 10.5857V12.0068C3.38246 12.1932 3.23156 12.3441 3.04513 12.3451ZM0.676695 10.8811L2.70678 11.5409V10.8303L0.676695 10.1706V10.8811ZM24.6994 12.2538C24.5133 12.2524 24.3624 12.1015 24.361 11.9154V10.4944C24.361 10.3489 24.4544 10.2196 24.5925 10.1736L26.9609 9.38525C27.1399 9.32739 27.3321 9.42585 27.3896 9.60484C27.4001 9.63732 27.4055 9.67149 27.4062 9.70567V11.1315C27.4062 11.2773 27.3128 11.4069 27.1744 11.4529L24.806 12.2379C24.7714 12.2487 24.7356 12.2541 24.6994 12.2538ZM25.0377 10.7383V11.4468L26.7295 10.8858V10.1753L25.0377 10.7383Z" fill="#03060E"/>
</svg>
