<svg width="48" height="48" viewBox="0 0 48 48" fill="none" xmlns="http://www.w3.org/2000/svg">
<g clip-path="url(#clip0_1421_10092)">
<path fill-rule="evenodd" clip-rule="evenodd" d="M22.6978 43.0569C23.0126 42.9712 23.2353 42.692 23.2497 42.3659C23.2603 42.0865 23.12 41.8246 22.8758 41.6837C21.2986 40.7734 21.4003 38.4315 23.0851 37.6812C23.1459 37.6541 23.2013 37.6198 23.2507 37.5799V43.4844C23.2744 45.641 24.636 47.4669 26.7698 47.9425C27.0923 48.0144 27.3629 48.0578 27.6368 47.8276C27.9164 47.5938 27.9156 47.317 27.9019 46.9947C27.8283 45.2626 26.774 43.7668 25.2522 43.0829C25.09 43.01 24.9224 42.9464 24.7502 42.8926V42.3509C24.7603 42.683 24.9796 42.969 25.3027 43.0569L43.2963 47.9565C43.5223 48.0149 43.7543 47.9769 43.9481 47.8284C44.1379 47.6837 44.2398 47.4705 44.243 47.2331V44.555C44.2412 44.3898 44.1921 44.2376 44.0925 44.1053C43.9158 43.8709 43.7608 43.8635 43.5063 43.7751C42.3181 43.3625 41.2964 42.0785 41.2964 40.8189C41.2964 39.64 42.2024 39.0921 43.2992 39.386C43.5264 39.444 43.7651 39.4016 43.9557 39.2513C44.141 39.1064 44.2402 38.8961 44.243 38.6619V36.7368C44.2411 36.5697 44.1911 36.4157 44.0885 36.282C43.986 36.1475 43.8514 36.0596 43.6903 36.0135L40.3267 35.0976L47.5068 32.1834C47.7886 32.0691 47.9746 31.7929 47.9746 31.4887V3.74866C47.9746 3.33573 47.6378 2.99893 47.2248 2.99893H44.9927V2.2492C44.9927 1.73566 44.4947 1.38171 44.0059 1.53794L40.4943 2.70847V0.749733C40.4943 0.336801 40.1575 0 39.7446 0C33.993 0 28.427 2.00461 24.0005 5.65632C19.574 2.00461 14.008 0 8.25634 0C7.84341 0 7.50661 0.336801 7.50661 0.749733V2.70847L3.99504 1.53794C3.7614 1.46327 3.51976 1.4981 3.32002 1.64133C3.12393 1.78445 3.00823 2.00555 3.00823 2.2492V2.99893H0.7761C0.363169 2.99893 0.0263672 3.33573 0.0263672 3.74866V31.4887C0.0263672 31.6452 0.0747453 31.7907 0.157266 31.9111C0.237596 32.0293 0.352308 32.1259 0.494172 32.1834L7.67406 35.0975L4.31022 36.0135C4.14861 36.0598 4.01428 36.1476 3.91193 36.282C3.80971 36.4154 3.7594 36.5693 3.75746 36.7368V38.6619C3.76026 38.8921 3.85599 39.1037 4.04479 39.2513C4.23478 39.4004 4.46806 39.4455 4.70125 39.386C5.79807 39.0921 6.70404 39.64 6.70404 40.8189C6.70404 42.0693 5.69724 43.3436 4.52019 43.7658C4.27233 43.8546 4.09313 43.8596 3.90798 44.1053C3.80811 44.2379 3.75922 44.3903 3.75746 44.555V47.2331C3.76062 47.4666 3.85778 47.6801 4.05235 47.8283C4.24618 47.9769 4.47816 48.0149 4.70419 47.9564L22.6978 43.0569V43.0569ZM35.8788 23.6191C32.5851 24.1402 29.4261 25.3238 26.6009 27.0953C26.2511 27.3147 26.1447 27.7789 26.364 28.1288C26.5834 28.4786 27.0477 28.585 27.3975 28.3657C30.0515 26.7015 33.019 25.5896 36.1131 25.1002C36.521 25.0357 36.801 24.6504 36.7365 24.2425C36.672 23.8346 36.2867 23.5546 35.8788 23.6191ZM35.8788 19.7333C32.5851 20.2543 29.4261 21.4379 26.6009 23.2094C26.2511 23.4288 26.1447 23.8931 26.364 24.2429C26.5834 24.5928 27.0477 24.6992 27.3975 24.4798C30.0515 22.8156 33.019 21.7038 36.1131 21.2143C36.521 21.1498 36.801 20.7645 36.7365 20.3566C36.672 19.9488 36.2867 19.6687 35.8788 19.7333ZM35.8788 15.8474C32.5851 16.3684 29.4261 17.552 26.6009 19.3236C26.2511 19.5429 26.1447 20.0072 26.364 20.357C26.5834 20.7069 27.0477 20.8133 27.3975 20.5939C30.0515 18.9297 33.019 17.8179 36.1131 17.3284C36.521 17.2639 36.801 16.8786 36.7365 16.4707C36.672 16.0629 36.2867 15.7828 35.8788 15.8474ZM35.8788 11.9615C32.5851 12.4825 29.4261 13.6661 26.6009 15.4377C26.2511 15.6571 26.1447 16.1213 26.364 16.4712C26.5834 16.821 27.0477 16.9274 27.3975 16.708C30.0515 15.0439 33.019 13.932 36.1131 13.4426C36.521 13.378 36.801 12.9927 36.7365 12.5849C36.672 12.177 36.2867 11.897 35.8788 11.9615ZM35.8788 8.07563C32.5851 8.59667 29.4261 9.78026 26.6009 11.5518C26.251 11.7712 26.1446 12.2355 26.364 12.5853C26.5834 12.9351 27.0476 13.0416 27.3975 12.8222C30.0515 11.158 33.019 10.0461 36.1131 9.55667C36.521 9.49215 36.801 9.10687 36.7365 8.69899C36.672 8.29113 36.2867 8.0111 35.8788 8.07563ZM35.8788 4.18975C32.5851 4.71079 29.4261 5.89438 26.6009 7.66594C26.251 7.88531 26.1446 8.34958 26.364 8.69943C26.5834 9.04927 27.0476 9.15568 27.3975 8.93631C30.0515 7.2721 33.019 6.16026 36.1131 5.6708C36.521 5.60628 36.801 5.22099 36.7365 4.81312C36.672 4.40526 36.2867 4.12522 35.8788 4.18975ZM11.8879 5.6708C14.982 6.16026 17.9495 7.2721 20.6035 8.93631C20.9533 9.15568 21.4176 9.04927 21.637 8.69943C21.8564 8.34958 21.7499 7.88531 21.4001 7.66594C18.5749 5.89438 15.4159 4.71079 12.1222 4.18975C11.7143 4.12523 11.329 4.40527 11.2645 4.81312C11.2 5.22099 11.48 5.60628 11.8879 5.6708ZM11.8879 9.55667C14.982 10.0461 17.9495 11.158 20.6035 12.8222C20.9533 13.0416 21.4176 12.9351 21.637 12.5853C21.8564 12.2355 21.7499 11.7712 21.4001 11.5518C18.5749 9.78026 15.4159 8.59667 12.1222 8.07563C11.7143 8.01111 11.329 8.29115 11.2645 8.69899C11.2 9.10687 11.48 9.49215 11.8879 9.55667ZM11.8879 13.4426C14.982 13.932 17.9495 15.0439 20.6035 16.708C20.9533 16.9274 21.4176 16.821 21.637 16.4712C21.8563 16.1213 21.7499 15.6571 21.4001 15.4377C18.5749 13.6661 15.4159 12.4825 12.1222 11.9615C11.7143 11.897 11.329 12.177 11.2645 12.5849C11.2 12.9927 11.48 13.378 11.8879 13.4426ZM11.8879 17.3284C14.982 17.8179 17.9495 18.9297 20.6035 20.5939C20.9533 20.8133 21.4176 20.7069 21.637 20.357C21.8563 20.0072 21.7499 19.5429 21.4001 19.3236C18.5749 17.552 15.4159 16.3684 12.1222 15.8474C11.7143 15.7829 11.329 16.0629 11.2645 16.4707C11.2 16.8786 11.48 17.2639 11.8879 17.3284ZM21.4001 27.0953C18.5749 25.3238 15.4159 24.1402 12.1222 23.6191C11.7143 23.5546 11.329 23.8347 11.2645 24.2425C11.2 24.6504 11.48 25.0357 11.8879 25.1002C14.982 25.5896 17.9495 26.7015 20.6035 28.3657C20.9533 28.585 21.4176 28.4786 21.637 28.1288C21.8563 27.7789 21.7499 27.3147 21.4001 27.0953ZM11.8879 21.2143C14.982 21.7038 17.9495 22.8156 20.6035 24.4798C20.9533 24.6992 21.4176 24.5928 21.637 24.2429C21.8563 23.8931 21.7499 23.4288 21.4001 23.2094C18.5749 21.4379 15.4159 20.2543 12.1222 19.7333C11.7143 19.6687 11.329 19.9488 11.2645 20.3566C11.2 20.7645 11.48 21.1498 11.8879 21.2143ZM24.7502 42.316V37.5801C24.7997 37.62 24.855 37.6543 24.9157 37.6813C26.5894 38.4272 26.7063 40.7708 25.1246 41.6837C24.8982 41.8145 24.7561 42.0552 24.7502 42.316ZM27.7182 40.2149L38.0352 36.0276L42.7436 37.3097V37.8097C41.1053 37.808 39.797 38.9928 39.797 40.8189C39.797 42.6254 41.0841 44.3818 42.7436 45.0869V46.2519L27.0117 41.9682C27.3897 41.4581 27.6357 40.8554 27.7182 40.2149V40.2149ZM27.5881 38.6494C27.4229 38.1041 27.1357 37.6047 26.7508 37.1889L44.5227 30.0444C44.8061 29.9304 44.9928 29.6542 44.9928 29.3488V4.4984H46.4751V30.9839L27.5881 38.6495V38.6494ZM24.7502 36.4124V34.0832C28.9387 30.5464 34.2569 28.599 39.7446 28.599C40.1576 28.599 40.4944 28.2622 40.4944 27.8493V4.28903L43.4933 3.28938V28.8421L24.7502 36.4124V36.4124ZM4.50771 28.8421V3.28939L7.50664 4.28904V27.8493C7.50664 28.2622 7.84344 28.599 8.25637 28.599C13.7478 28.599 19.0679 30.5511 23.2508 34.0832V36.4124L4.50771 28.8421V28.8421ZM23.2508 32.1609C19.1498 29.0363 14.1646 27.2676 9.0061 27.1113V1.51174C14.2329 1.68042 19.2593 3.61322 23.2508 6.98363V32.1609ZM24.7502 32.1613V6.98363C28.742 3.61304 33.7679 1.68033 38.9949 1.51174V27.1113C33.83 27.2678 28.8493 29.0381 24.7502 32.1613ZM21.2499 37.1888C20.865 37.6046 20.5777 38.104 20.4125 38.6493L1.52585 30.9839V4.4984H3.00824V29.3488C3.00824 29.5038 3.05572 29.6481 3.13688 29.7679C3.21776 29.8882 3.33412 29.9864 3.47831 30.0444L21.2499 37.1888L21.2499 37.1888ZM20.2824 40.2148C20.3648 40.8554 20.6108 41.4581 20.9888 41.9682L5.25696 46.2519V45.0869C6.91641 44.3818 8.20352 42.6254 8.20352 40.8189C8.20352 38.9928 6.89517 37.808 5.25696 37.8097V37.3098L9.96564 36.0276L20.2824 40.2148V40.2148ZM26.2142 46.1287C25.63 45.7805 25.1813 45.2426 24.9422 44.6092C25.5292 44.9583 25.9707 45.4916 26.2142 46.1287Z" fill="#374868"/>
</g>
<defs>
<clipPath id="clip0_1421_10092">
<rect width="48" height="48" fill="white"/>
</clipPath>
</defs>
</svg>
