<svg width="42" height="48" viewBox="0 0 42 48" fill="none" xmlns="http://www.w3.org/2000/svg">
<path d="M20.8003 48C20.5338 48 20.2694 47.9579 20.0161 47.8751L1.04499 41.7154C0.421247 41.5093 4.07472e-06 40.9262 4.07472e-06 40.2694V7.73477C-0.00151849 7.07449 0.423784 6.48931 1.0521 6.2863L20.0161 0.122965C20.5323 -0.042994 21.088 -0.040964 21.6032 0.129056L40.0683 6.28428C40.69 6.49134 41.1092 7.07347 41.1092 7.72868V40.2633C41.1103 40.9231 40.6855 41.5088 40.0577 41.7118L21.6032 47.8691C21.3443 47.9553 21.0733 48 20.8003 48ZM20.8003 1.01519C20.6404 1.01519 20.4815 1.04006 20.3298 1.08929L1.36574 7.25161C1.15665 7.31962 1.01505 7.51451 1.01505 7.73477V40.2694C1.01505 40.4882 1.15462 40.682 1.36219 40.7511L20.3293 46.9098C20.6389 47.0108 20.9728 47.0093 21.2819 46.9058L39.7389 40.7475C39.9506 40.681 40.0942 40.4851 40.0942 40.2633V7.73122C40.0942 7.51248 39.9546 7.3186 39.7471 7.24958L21.2819 1.09233C21.1266 1.04107 20.9637 1.01468 20.8003 1.01519Z" fill="#4E4E4E"/>
<path d="M27.4064 45.9033C27.1273 45.9012 26.901 45.6749 26.8989 45.3957V34.4546C26.8989 33.7989 27.3186 33.2168 27.9409 33.0097L33.6835 31.0984C34.2209 30.9253 34.797 31.2202 34.97 31.7576C35.0015 31.8556 35.0183 31.9581 35.0193 32.0611V43.0236C35.0193 43.2418 34.8797 43.4357 34.6726 43.5047L27.5673 45.8748C27.5156 45.8931 27.4613 45.9028 27.4064 45.9033ZM34.0042 32.0596L28.2611 33.973C28.0535 34.042 27.914 34.2359 27.914 34.4546V44.6913L34.0042 42.6612V32.0596Z" fill="#4E4E4E"/>
<path d="M20.8012 14.4967C20.5281 14.4967 20.2566 14.453 19.9972 14.3673L0.350586 7.98773L0.664234 7.02344L20.315 13.403C20.6327 13.5085 20.9757 13.508 21.2929 13.4004L40.4412 7.02344L40.762 7.98773L21.6203 14.3632C21.3564 14.4525 21.0798 14.4977 20.8012 14.4967Z" fill="#4E4E4E"/>
<path d="M20.8012 19.5729C20.5281 19.5729 20.2566 19.5292 19.9972 19.4434L0.350586 13.0639L0.664234 12.0996L20.315 18.4792C20.6327 18.5847 20.9757 18.5842 21.2929 18.4766L40.4412 12.0996L40.762 13.0639L21.6203 19.4394C21.3564 19.5287 21.0798 19.5739 20.8012 19.5729Z" fill="#4E4E4E"/>
<path d="M20.8012 25.6608C20.5281 25.6608 20.2566 25.6171 19.9972 25.5313L0.350586 19.1518L0.664234 18.1875L20.315 24.567C20.6327 24.6726 20.9757 24.6721 21.2929 24.5645L40.4412 18.1875L40.762 19.1518L21.6203 25.5273C21.3564 25.6166 21.0798 25.6618 20.8012 25.6608Z" fill="#4E4E4E"/>
<path d="M20.7982 23.6347C20.0496 23.5713 19.3152 23.3936 18.621 23.1074C18.4124 23.0394 18.2708 22.845 18.2708 22.6252V20.4886C18.2708 20.2084 18.4976 19.981 18.7783 19.981C18.8316 19.981 18.8849 19.9897 18.9356 20.0059L20.6307 20.5591C20.7399 20.5982 20.8591 20.5982 20.9682 20.5591L22.6786 19.9907C22.9445 19.9024 23.2318 20.0465 23.3201 20.3125C23.3374 20.3642 23.346 20.4185 23.346 20.4728V22.6146C23.346 22.8338 23.2059 23.0282 22.9978 23.0967C22.2969 23.3891 21.5549 23.5702 20.7982 23.6347ZM19.2858 22.2568C20.0055 22.5268 20.9007 22.7775 21.6128 22.4852L22.3309 22.2476V21.1768C21.7595 21.3422 20.9099 21.7822 20.31 21.5219L19.2858 21.1879V22.2568ZM13.7031 21.4833C13.6498 21.4833 13.5975 21.4747 13.5468 21.4584L9.99411 20.3064C9.7845 20.2384 9.64291 20.0435 9.64291 19.8232V17.6916C9.64595 17.4089 9.87738 17.1826 10.1601 17.1856C10.2098 17.1861 10.2595 17.1942 10.3073 17.209L13.8599 18.361C14.069 18.429 14.2106 18.6239 14.2106 18.8437V20.9753C14.2091 21.2549 13.9827 21.4813 13.7031 21.4833ZM10.6579 19.4532L13.1956 20.2764V19.2106L10.6579 18.3879V19.4532ZM27.9137 21.4265C27.634 21.4244 27.4082 21.1986 27.4062 20.9189V18.7828C27.4062 18.564 27.5457 18.3702 27.7533 18.3011L31.3059 17.1191C31.5744 17.0323 31.8622 17.179 31.949 17.4475C31.9652 17.4972 31.9733 17.5485 31.9738 17.6008V19.7374C31.9738 19.9557 31.8338 20.1495 31.6267 20.2186L28.0741 21.4011C28.0223 21.4183 27.968 21.4275 27.9137 21.4275V21.4265ZM28.4212 19.1477V20.2135L30.9588 19.3685V18.3027L28.4212 19.1477ZM4.56769 18.5194C4.5144 18.5194 4.46162 18.5113 4.41087 18.4945L0.350697 17.175C0.141598 17.107 0 16.9121 0 16.6923V14.5607C0.00304513 14.278 0.234475 14.0517 0.517164 14.0547C0.566901 14.0552 0.616638 14.0633 0.664346 14.0781L4.72452 15.3976C4.93362 15.4656 5.07521 15.6605 5.07521 15.8803V18.0119C5.07369 18.2915 4.84734 18.5179 4.56769 18.5194ZM1.01504 16.3233L4.06017 17.313V16.2472L1.01504 15.2575V16.3233ZM37.0491 18.3824C36.7699 18.3803 36.5436 18.154 36.5415 17.8748V15.7432C36.5415 15.525 36.6816 15.3311 36.8887 15.2621L40.4413 14.0796C40.7098 13.9928 40.9981 14.1405 41.0844 14.409C41.1001 14.4577 41.1082 14.5089 41.1092 14.5602V16.6989C41.1092 16.9176 40.9692 17.112 40.7616 17.181L37.2089 18.3585C37.1572 18.3747 37.1034 18.3829 37.0491 18.3824ZM37.5566 16.1092V17.1719L40.0942 16.3304V15.2646L37.5566 16.1092Z" fill="#4E4E4E"/>
</svg>
