<svg width="48" height="48" viewBox="0 0 48 48" fill="none" xmlns="http://www.w3.org/2000/svg">
<path d="M32.8179 39.2963C30.6091 39.2963 28.7206 38.6486 27.3768 37.3048C23.5792 33.5072 25.3285 25.3742 31.5366 17.9664C32.1858 17.1937 33.141 16.7249 34.1588 16.6802C35.1872 16.6432 36.1957 17.0261 36.9216 17.7519L37.656 18.487C37.94 18.7711 37.94 19.2321 37.656 19.5155C37.3719 19.7995 36.9116 19.7995 36.6275 19.5155L35.8932 18.7804C35.4542 18.3421 34.8463 18.1035 34.222 18.134C33.602 18.161 33.0437 18.433 32.651 18.9011C27.031 25.6072 25.2057 33.0768 28.4052 36.2764C31.5998 39.471 39.0658 37.6443 45.7731 32.0292C46.244 31.6336 46.5182 31.0746 46.5452 30.4553C46.5721 29.8324 46.3349 29.2223 45.8932 28.7805L45.1588 28.0461C44.8747 27.762 44.8747 27.3018 45.1588 27.0177C45.4429 26.7336 45.9031 26.7336 46.1872 27.0177L46.9216 27.7521C47.651 28.4815 48.043 29.4893 47.9983 30.5185C47.9542 31.5348 47.4841 32.4915 46.7078 33.1435C41.9244 37.1479 36.8406 39.2963 32.8179 39.2963Z" fill="#4E4E4E"/>
<path d="M44.3887 28.7961C43.7069 28.7961 43.067 28.529 42.5883 28.0454C42.1117 27.5745 41.8454 26.9381 41.8433 26.2598C41.8411 25.5787 42.1068 24.9366 42.5911 24.4522C43.067 23.9714 43.7062 23.7051 44.388 23.7051C45.0705 23.7051 45.7105 23.9714 46.1892 24.4544C46.6707 24.9366 46.9363 25.5787 46.9342 26.2598C46.9328 26.9367 46.6671 27.5716 46.187 28.0482C45.7083 28.5304 45.0698 28.7961 44.3887 28.7961ZM44.3887 25.1596C44.0975 25.1596 43.8255 25.2726 43.6224 25.4778C43.4115 25.6888 43.2971 25.9643 43.2978 26.2563C43.2985 26.5439 43.4122 26.8145 43.6167 27.0169C43.8255 27.2279 44.0975 27.3415 44.3887 27.3415C44.6799 27.3415 44.9519 27.2279 45.1558 27.0226L45.1615 27.0169C45.366 26.8145 45.4789 26.5439 45.4796 26.2563C45.4803 25.9643 45.3667 25.6888 45.1586 25.4807C44.9526 25.2726 44.6799 25.1596 44.3887 25.1596Z" fill="#4E4E4E"/>
<path d="M38.4275 22.8316C37.7762 22.8316 37.1256 22.5866 36.6306 22.0965C36.1455 21.6114 35.8799 20.9715 35.8799 20.2918C35.8799 19.6121 36.1455 18.9721 36.6278 18.4906C37.6235 17.5062 39.2364 17.5062 40.2279 18.4878C40.23 18.4899 40.2314 18.4913 40.2336 18.4934C41.2151 19.4849 41.2151 21.0986 40.2336 22.0908C39.7343 22.5851 39.0802 22.8316 38.4275 22.8316ZM38.4289 19.2044C38.1483 19.2044 37.8678 19.3102 37.6533 19.5219C37.4488 19.7264 37.3344 20.0006 37.3344 20.2918C37.3344 20.583 37.4488 20.8578 37.6562 21.0652C38.0823 21.485 38.7776 21.485 39.2052 21.0624C39.6221 20.6412 39.6228 19.9473 39.2023 19.519C38.9893 19.3088 38.7094 19.2044 38.4289 19.2044Z" fill="#4E4E4E"/>
<path d="M26.4798 40.9648C25.7496 40.9648 25.0579 40.675 24.5295 40.148C23.4421 39.0606 23.4421 37.2928 24.5288 36.2062L26.1957 34.5392C26.4798 34.2551 26.94 34.2551 27.2241 34.5392C27.5082 34.8233 27.5082 35.2836 27.2241 35.5677L25.5572 37.2346C25.305 37.4874 25.1658 37.822 25.1658 38.1764C25.1658 38.5315 25.305 38.866 25.5572 39.1189C25.81 39.3717 26.1381 39.5102 26.4805 39.5102H26.4925C26.8555 39.5074 27.1921 39.3682 27.4428 39.1182L29.109 37.4519C29.3931 37.1678 29.8533 37.1678 30.1374 37.4519C30.4215 37.736 30.4215 38.1963 30.1374 38.4804L28.4705 40.1473C27.9485 40.6686 27.2511 40.9584 26.5053 40.9648C26.4968 40.9648 26.4883 40.9648 26.4798 40.9648Z" fill="#4E4E4E"/>
<path d="M15.3536 44.8819C13.2627 44.8819 11.3749 44.2228 10.002 42.8499C7.15686 40.0047 7.27902 34.9421 10.3074 30.2531C10.5255 29.915 10.9758 29.8185 11.3124 30.0365C11.6505 30.2545 11.7471 30.7041 11.529 31.0415C8.88271 35.141 8.68172 39.4727 11.0304 41.8215C14.0077 44.7988 20.0631 43.5864 24.5304 39.1205C24.8145 38.8364 25.2748 38.8364 25.5588 39.1205C25.8429 39.4046 25.8429 39.8648 25.5588 40.1489C22.475 43.2327 18.6604 44.8819 15.3536 44.8819Z" fill="#4E4E4E"/>
<path d="M14.3449 32.807C12.9146 32.807 11.4842 32.2623 10.3954 31.1735C8.21782 28.9959 8.21782 25.4525 10.3954 23.2749C12.5736 21.098 16.117 21.0987 18.2938 23.2756C19.3471 24.3289 19.9273 25.7316 19.9273 27.2245C19.9273 28.7182 19.3471 30.1202 18.2938 31.1735C17.205 32.2623 15.7746 32.807 14.3449 32.807ZM14.3442 23.0959C13.2867 23.0959 12.2292 23.4986 11.4238 24.3033C9.81299 25.9141 9.81299 28.5342 11.4238 30.145C13.0353 31.7566 15.6553 31.7551 17.2654 30.145C18.0438 29.3666 18.4728 28.3297 18.4728 27.2245C18.4728 26.1201 18.0438 25.0832 17.2654 24.304C16.46 23.4986 15.4018 23.0959 14.3442 23.0959Z" fill="#4E4E4E"/>
<path d="M14.3442 29.5663C13.7178 29.5663 13.1283 29.3227 12.6851 28.8795C11.7703 27.9647 11.7703 26.4761 12.6851 25.5613C13.5722 24.6742 15.1191 24.6756 16.0033 25.5613C16.9181 26.4761 16.9181 27.9647 16.0033 28.8795C15.5608 29.3227 14.9713 29.5663 14.3442 29.5663ZM14.3442 26.329C14.1063 26.329 13.8818 26.4214 13.7135 26.5897C13.3655 26.9377 13.3655 27.5031 13.7135 27.8511C14.0502 28.1877 14.6382 28.187 14.9749 27.8511C15.3229 27.5031 15.3229 26.9377 14.9749 26.5897C14.8066 26.4214 14.5828 26.329 14.3442 26.329Z" fill="#4E4E4E"/>
<path d="M29.2947 48.0002H2.22585C0.998579 48.0002 0 47.0023 0 45.775V7.51229C0 6.285 0.998579 5.28711 2.22585 5.28711H8.33452C8.7365 5.28711 9.06179 5.6124 9.06179 6.01439C9.06179 6.41639 8.7365 6.74168 8.33452 6.74168H2.22585C1.80043 6.74168 1.45455 7.08757 1.45455 7.51229V45.775C1.45455 46.1926 1.80753 46.5456 2.22585 46.5456H29.2947C29.7124 46.5456 30.0653 46.1926 30.0653 45.775V38.3495C30.0653 37.9475 30.3906 37.6222 30.7926 37.6222C31.1946 37.6222 31.5199 37.9475 31.5199 38.3495V45.775C31.5199 47.0023 30.522 48.0002 29.2947 48.0002Z" fill="#4E4E4E"/>
<path d="M30.7925 20.8222C30.3905 20.8222 30.0653 20.4969 30.0653 20.0949V7.51229C30.0653 7.08757 29.7194 6.74168 29.2947 6.74168H23.1853C22.7833 6.74168 22.458 6.41639 22.458 6.01439C22.458 5.6124 22.7833 5.28711 23.1853 5.28711H29.2947C30.5219 5.28711 31.5198 6.285 31.5198 7.51229V20.0949C31.5198 20.4969 31.1945 20.8222 30.7925 20.8222Z" fill="#4E4E4E"/>
<path d="M21.8402 9.07899H9.67822C8.53689 9.07899 7.60791 8.15 7.60791 7.00864V5.0221C7.60791 3.88075 8.53689 2.95246 9.67822 2.95246H12.1555C12.4936 1.27062 13.9794 0 15.7556 0C17.5355 0 19.0241 1.27062 19.3622 2.95246H21.8402C22.9815 2.95246 23.9105 3.88075 23.9105 5.0221V7.00864C23.9105 8.15 22.9815 9.07899 21.8402 9.07899ZM9.67822 4.40703C9.33873 4.40703 9.06246 4.68261 9.06246 5.0221V7.00864C9.06246 7.34814 9.33873 7.62442 9.67822 7.62442H21.8402C22.1796 7.62442 22.4559 7.34814 22.4559 7.00864V5.0221C22.4559 4.68261 22.1796 4.40703 21.8402 4.40703H18.7073C18.3054 4.40703 17.9801 4.08174 17.9801 3.67975C17.9801 2.45246 16.9822 1.45457 15.7556 1.45457C14.5333 1.45457 13.5383 2.45246 13.5383 3.67975C13.5383 4.08174 13.213 4.40703 12.811 4.40703H9.67822Z" fill="#4E4E4E"/>
<path d="M15.7601 13.0014H4.65501C4.25302 13.0014 3.92773 12.6762 3.92773 12.2742C3.92773 11.8722 4.25302 11.5469 4.65501 11.5469H15.7601C16.1621 11.5469 16.4874 11.8722 16.4874 12.2742C16.4874 12.6762 16.1621 13.0014 15.7601 13.0014Z" fill="#4E4E4E"/>
<path d="M26.8659 16.2554H4.65501C4.25302 16.2554 3.92773 15.9301 3.92773 15.5281C3.92773 15.1261 4.25302 14.8008 4.65501 14.8008H26.8659C27.2679 14.8008 27.5932 15.1261 27.5932 15.5281C27.5932 15.9301 27.2679 16.2554 26.8659 16.2554Z" fill="#4E4E4E"/>
<path d="M26.8659 19.5054H4.65501C4.25302 19.5054 3.92773 19.1801 3.92773 18.7781C3.92773 18.3761 4.25302 18.0508 4.65501 18.0508H26.8659C27.2679 18.0508 27.5932 18.3761 27.5932 18.7781C27.5932 19.1801 27.2679 19.5054 26.8659 19.5054Z" fill="#4E4E4E"/>
</svg>
