<svg width="56" height="56" viewBox="0 0 56 56" fill="none" xmlns="http://www.w3.org/2000/svg">
<g clip-path="url(#clip0_45_1538)">
<path d="M51.7357 24.3703C52.195 24.3705 52.5674 23.998 52.5674 23.5388V21.6839H52.97C53.4293 21.6839 53.8017 21.3115 53.8017 20.8522V17.3567C53.8017 16.8974 53.4293 16.525 52.97 16.525H52.5674V11.1024C52.5674 10.9309 52.5143 10.7635 52.4156 10.6233L48.348 4.85095V0.866529C48.348 0.411092 47.9971 0.0139512 47.5419 0.000388738C47.071 -0.01383 46.6846 0.363842 46.6846 0.831748V4.85095L42.6172 10.6234C42.5184 10.7635 42.4654 10.9309 42.4654 11.1025V16.5251H42.0628C41.6035 16.5251 41.2311 16.8975 41.2311 17.3568V20.8522C41.2311 21.3115 41.6035 21.6839 42.0628 21.6839H42.4654V50.8413H42.0628C41.6035 50.8413 41.2311 51.2137 41.2311 51.673V55.1685C41.2311 55.6277 41.6035 56.0002 42.0628 56.0002H52.9701C53.4294 56.0002 53.8018 55.6277 53.8018 55.1685V51.6731C53.8018 51.2138 53.4294 50.8414 52.9701 50.8414H52.5675V27.42C52.5675 26.9608 52.1951 26.5884 51.7358 26.5884C51.2765 26.5884 50.9041 26.9608 50.9041 27.42V50.8413H44.1288V21.6838H50.9041V23.5387C50.904 23.9979 51.2764 24.3703 51.7357 24.3703ZM44.1285 11.366H44.1287L47.5162 6.5584L50.9039 11.366V16.525H50.2903V14.2295C50.2903 13.9722 50.1711 13.7291 49.9675 13.5717L48.025 12.069C47.7255 11.8373 47.3069 11.8373 47.0073 12.069L45.0648 13.5717C44.8613 13.7292 44.742 13.9722 44.742 14.2295V16.525H44.1284V11.366H44.1285ZM48.6271 14.6376V16.525H46.4055V14.6376L47.5163 13.7784L48.6271 14.6376ZM51.7357 52.5047H52.1383V54.3367H42.8943V52.5047H43.2969H51.7357ZM42.8945 20.0204V18.1884H45.5739H49.4589H52.1385V20.0204H42.8945Z" fill="#374868"/>
<path d="M35.7802 39.0935L32.9329 36.8909C32.6332 36.6591 32.2147 36.6591 31.9151 36.8909L29.0678 39.0935C28.8643 39.251 28.7451 39.494 28.7451 39.7513V44.335C28.7451 44.7943 29.1175 45.1667 29.5767 45.1667H35.2714C35.7306 45.1667 36.103 44.7943 36.103 44.335V39.7513C36.1029 39.494 35.9837 39.251 35.7802 39.0935ZM30.4082 43.5033V40.1594L32.4238 38.6002L34.4393 40.1594V43.5033H30.4082Z" fill="#374868"/>
<path d="M13.2525 39.0935L10.4053 36.8909C10.1057 36.6591 9.68713 36.6591 9.38755 36.8909L6.5403 39.0935C6.33675 39.251 6.21753 39.4939 6.21753 39.7512V44.3349C6.21753 44.7942 6.58995 45.1666 7.04922 45.1666H12.7437C13.203 45.1666 13.5754 44.7942 13.5754 44.3349V39.7512C13.5753 39.4938 13.4561 39.251 13.2525 39.0935ZM11.9119 43.5032H7.8808V40.1593L9.89636 38.6001L11.9119 40.1593V43.5032Z" fill="#374868"/>
<path d="M40.6773 35.9245L36.9847 32.2653C37.4636 31.6154 38.1652 30.5072 38.5612 29.1516C38.5709 29.1182 38.5787 29.084 38.5843 29.0496L38.8655 27.2899C38.8719 27.2494 38.8753 27.2084 38.8758 27.1674C38.8871 26.0787 38.6313 25.0376 38.114 24.0699C36.0825 20.3036 25.2249 15.331 22.7935 14.2539V12.8204C25.4769 12.4821 27.6832 10.5242 28.3039 7.828C28.3833 7.48314 28.2357 7.1257 27.9361 6.93736C27.6365 6.7489 27.2503 6.77089 26.974 6.99204C26.2555 7.5667 25.3895 7.87043 24.4694 7.87043C22.2557 7.87043 20.4546 6.06947 20.4546 3.85572C20.4546 2.93565 20.7583 2.06962 21.333 1.35114C21.5542 1.07475 21.5759 0.688653 21.3877 0.389075C21.1992 0.0894971 20.8417 -0.0581591 20.497 0.0212472C17.5269 0.70495 15.4523 3.31289 15.4523 6.36336C15.4523 9.67086 17.9324 12.4082 21.1303 12.818V14.2536C20.0594 14.7317 17.4199 15.9391 14.6513 17.4244C9.73947 20.0594 6.76458 22.2957 5.80831 24.0727C5.29261 25.0376 5.03678 26.0787 5.04805 27.1675C5.04848 27.2085 5.05187 27.2495 5.05833 27.2901L5.33953 29.0498C5.34511 29.0843 5.35277 29.1184 5.3625 29.1519C5.75866 30.5077 6.46008 31.6157 6.93903 32.2657L3.24631 35.9247C3.0887 36.0808 3 36.2935 3 36.5154V55.0218C3 55.481 3.37242 55.8535 3.83169 55.8535H40.0919C40.5512 55.8535 40.9236 55.481 40.9236 55.0218V36.5152C40.9235 36.2933 40.8348 36.0807 40.6773 35.9245ZM17.1155 6.36303C17.1155 4.83714 17.8125 3.46011 18.9405 2.56629C18.842 2.98717 18.7911 3.41997 18.7911 3.8555C18.7911 6.98636 21.3382 9.53359 24.4693 9.53359C24.9049 9.53359 25.3378 9.48273 25.7585 9.38418C24.8647 10.5122 23.4877 11.2092 21.9618 11.2092C19.2895 11.2093 17.1155 9.03528 17.1155 6.36303ZM26.146 54.1901H17.7774V45.5091L21.9618 41.25L26.146 45.5091V54.1901ZM39.2603 54.1901H39.2602H27.8094V45.1688C27.8094 44.9509 27.7238 44.7415 27.571 44.586L22.5684 39.494C22.4861 39.4102 22.3903 39.339 22.2816 39.2947C21.9551 39.162 21.5993 39.2455 21.3685 39.4805L16.3525 44.5861C16.1997 44.7415 16.1141 44.951 16.1141 45.1689V54.1901H4.66337V36.862L8.39864 33.1606H16.013C16.4723 33.1606 16.8447 32.7881 16.8447 32.3289C16.8447 31.8696 16.4723 31.4972 16.013 31.4972H8.44556C8.08003 31.0329 7.35597 30.0061 6.97348 28.7338L6.71088 27.0906C6.71175 26.2962 6.89648 25.5649 7.27405 24.8588C8.8473 21.9352 18.1004 17.3987 21.9583 15.7041C22.863 16.1041 25.7616 17.412 28.8171 19.0708C31.3047 20.4212 35.6303 22.969 36.6486 24.8569C37.0272 25.5651 37.212 26.2964 37.2128 27.0907L36.9502 28.7339C36.5676 30.0066 35.8431 31.0337 35.4781 31.4973H19.8944C19.4351 31.4973 19.0627 31.8697 19.0627 32.329C19.0627 32.7882 19.4351 33.1607 19.8944 33.1607H35.5251L39.2603 36.8621V54.1901Z" fill="#374868"/>
</g>
<defs>
<clipPath id="clip0_45_1538">
<rect width="56" height="56" fill="white"/>
</clipPath>
</defs>
</svg>
