<svg width="56" height="56" viewBox="0 0 56 56" fill="none" xmlns="http://www.w3.org/2000/svg">
<g clip-path="url(#clip0_75_4110)">
<path fill-rule="evenodd" clip-rule="evenodd" d="M26.4802 50.233C26.8475 50.133 27.1073 49.8073 27.1241 49.4269C27.1364 49.1009 26.9728 48.7954 26.6879 48.631C24.8478 47.5689 24.9665 44.8368 26.9321 43.9614C27.003 43.9298 27.0676 43.8898 27.1253 43.8432V50.7318C27.153 53.2479 28.7415 55.3781 31.2308 55.9329C31.6071 56.0168 31.9228 56.0675 32.2424 55.7988C32.5686 55.5261 32.5677 55.2031 32.5517 54.8272C32.4658 52.8064 31.2358 51.0612 29.4603 50.2634C29.2711 50.1784 29.0756 50.1041 28.8747 50.0414V49.4094C28.8865 49.7969 29.1423 50.1305 29.5193 50.233L50.5118 55.9492C50.7754 56.0174 51.0462 55.973 51.2723 55.7997C51.4937 55.631 51.6125 55.3822 51.6163 55.1053V51.9808C51.6142 51.7881 51.5569 51.6105 51.4407 51.4562C51.2346 51.1827 51.0537 51.1741 50.7568 51.0709C49.3705 50.5896 48.1786 49.0916 48.1786 47.622C48.1786 46.2466 49.2356 45.6075 50.5152 45.9504C50.7802 46.018 51.0588 45.9685 51.2811 45.7932C51.4972 45.6241 51.613 45.3787 51.6163 45.1055V42.8597C51.614 42.6647 51.5557 42.485 51.4361 42.329C51.3165 42.1721 51.1594 42.0695 50.9714 42.0157L47.0473 40.9472L55.424 37.5473C55.7529 37.4139 55.9698 37.0917 55.9698 36.7369V4.37344C55.9698 3.89169 55.5768 3.49875 55.0951 3.49875H52.491V2.62406C52.491 2.02493 51.9099 1.61199 51.3397 1.79427L47.2429 3.15988V0.874688C47.2429 0.392935 46.8499 0 46.3682 0C39.6579 0 33.1643 2.33871 28 6.59904C22.8358 2.33871 16.3421 0 9.63185 0C9.1501 0 8.75716 0.392935 8.75716 0.874688V3.15988L4.66033 1.79427C4.38775 1.70715 4.10584 1.74778 3.87281 1.91488C3.64404 2.08186 3.50905 2.33981 3.50905 2.62406V3.49875H0.904901C0.423147 3.49875 0.0302124 3.89169 0.0302124 4.37344V36.7369C0.0302124 36.9194 0.0866535 37.0891 0.182927 37.2296C0.276646 37.3675 0.410477 37.4802 0.575985 37.5473L8.95253 40.9471L5.02804 42.0157C4.8395 42.0698 4.68278 42.1722 4.56337 42.329C4.44412 42.4846 4.38542 42.6641 4.38316 42.8597V45.1055C4.38642 45.3741 4.49811 45.621 4.71838 45.7932C4.94003 45.9672 5.21219 46.0198 5.48424 45.9504C6.76387 45.6075 7.82083 46.2466 7.82083 47.622C7.82083 49.0809 6.64623 50.5676 5.273 51.0601C4.98383 51.1637 4.77477 51.1695 4.55877 51.4562C4.44224 51.6109 4.38521 51.7887 4.38316 51.9808V55.1053C4.38684 55.3777 4.50019 55.6268 4.7272 55.7997C4.95333 55.973 5.22397 56.0174 5.48767 55.9492L26.4802 50.233V50.233ZM41.8581 27.5557C38.0154 28.1635 34.3299 29.5444 31.0339 31.6112C30.6257 31.8671 30.5015 32.4088 30.7575 32.8169C31.0134 33.2251 31.5551 33.3492 31.9632 33.0933C35.0595 31.1517 38.5216 29.8546 42.1314 29.2835C42.6073 29.2083 42.934 28.7588 42.8587 28.2829C42.7834 27.8071 42.3339 27.4804 41.8581 27.5557ZM41.8581 23.0221C38.0154 23.63 34.3299 25.0109 31.0339 27.0777C30.6257 27.3336 30.5015 27.8752 30.7575 28.2834C31.0134 28.6916 31.5551 28.8157 31.9632 28.5598C35.0595 26.6182 38.5216 25.3211 42.1314 24.75C42.6073 24.6748 42.934 24.2253 42.8587 23.7494C42.7834 23.2736 42.3339 22.9468 41.8581 23.0221ZM41.8581 18.4886C38.0154 19.0965 34.3299 20.4773 31.0339 22.5441C30.6257 22.8001 30.5015 23.3417 30.7575 23.7499C31.0134 24.158 31.5551 24.2822 31.9632 24.0262C35.0595 22.0847 38.5216 20.7875 42.1314 20.2165C42.6073 20.1412 42.934 19.6917 42.8587 19.2159C42.7834 18.74 42.3339 18.4133 41.8581 18.4886ZM41.8581 13.9551C38.0154 14.563 34.3299 15.9438 31.0339 18.0106C30.6257 18.2666 30.5015 18.8082 30.7575 19.2163C31.0134 19.6245 31.5551 19.7487 31.9632 19.4927C35.0595 17.5512 38.5216 16.254 42.1314 15.683C42.6073 15.6077 42.934 15.1582 42.8587 14.6824C42.7834 14.2065 42.3339 13.8798 41.8581 13.9551ZM41.8581 9.42157C38.0154 10.0295 34.3299 11.4103 31.0338 13.4771C30.6257 13.7331 30.5015 14.2747 30.7574 14.6829C31.0134 15.091 31.555 15.2152 31.9632 14.9592C35.0595 13.0176 38.5216 11.7205 42.1314 11.1495C42.6073 11.0742 42.934 10.6247 42.8587 10.1488C42.7834 9.67299 42.3339 9.34628 41.8581 9.42157ZM41.8581 4.88804C38.0154 5.49593 34.3299 6.87678 31.0338 8.94359C30.6257 9.19953 30.5015 9.74117 30.7574 10.1493C31.0134 10.5575 31.555 10.6816 31.9632 10.4257C35.0595 8.48412 38.5216 7.18697 42.1314 6.61593C42.6073 6.54066 42.934 6.09116 42.8587 5.6153C42.7834 5.13946 42.3339 4.81275 41.8581 4.88804ZM13.8686 6.61593C17.4784 7.18697 20.9406 8.48412 24.0369 10.4257C24.445 10.6816 24.9867 10.5575 25.2426 10.1493C25.4985 9.74117 25.3744 9.19953 24.9662 8.94359C21.6701 6.87678 17.9847 5.49593 14.142 4.88804C13.6661 4.81277 13.2166 5.13948 13.1414 5.6153C13.0661 6.09116 13.3928 6.54066 13.8686 6.61593ZM13.8686 11.1495C17.4784 11.7205 20.9406 13.0176 24.0369 14.9592C24.445 15.2152 24.9867 15.091 25.2426 14.6829C25.4985 14.2747 25.3744 13.7331 24.9662 13.4771C21.6701 11.4103 17.9847 10.0295 14.142 9.42157C13.6661 9.3463 13.2166 9.67301 13.1414 10.1488C13.0661 10.6247 13.3928 11.0742 13.8686 11.1495ZM13.8686 15.683C17.4784 16.254 20.9405 17.5512 24.0368 19.4927C24.445 19.7487 24.9866 19.6245 25.2426 19.2163C25.4985 18.8082 25.3743 18.2666 24.9662 18.0106C21.6701 15.9438 17.9847 14.563 14.142 13.9551C13.6661 13.8798 13.2166 14.2065 13.1414 14.6824C13.0661 15.1582 13.3928 15.6077 13.8686 15.683ZM13.8686 20.2165C17.4784 20.7875 20.9405 22.0847 24.0368 24.0262C24.445 24.2822 24.9866 24.158 25.2426 23.7499C25.4985 23.3417 25.3743 22.8001 24.9662 22.5441C21.6701 20.4773 17.9847 19.0965 14.142 18.4886C13.6661 18.4133 13.2166 18.7401 13.1414 19.2159C13.0661 19.6917 13.3928 20.1412 13.8686 20.2165ZM24.9662 31.6112C21.6701 29.5444 17.9847 28.1635 14.142 27.5557C13.6661 27.4804 13.2166 27.8071 13.1414 28.2829C13.0661 28.7588 13.3928 29.2083 13.8686 29.2835C17.4784 29.8546 20.9405 31.1517 24.0368 33.0933C24.445 33.3492 24.9866 33.2251 25.2426 32.8169C25.4985 32.4088 25.3743 31.8671 24.9662 31.6112ZM13.8686 24.75C17.4784 25.3211 20.9405 26.6182 24.0368 28.5598C24.445 28.8157 24.9866 28.6916 25.2426 28.2834C25.4985 27.8752 25.3743 27.3336 24.9662 27.0777C21.6701 25.0109 17.9847 23.63 14.142 23.0221C13.6661 22.9469 13.2166 23.2736 13.1414 23.7494C13.0661 24.2253 13.3928 24.6748 13.8686 24.75ZM28.8747 49.3686V43.8434C28.9324 43.89 28.9969 43.93 29.0677 43.9615C31.0204 44.8317 31.1568 47.566 29.3115 48.631C29.0473 48.7836 28.8815 49.0644 28.8747 49.3686ZM32.3373 46.9174L44.3738 42.0322L49.8669 43.528V44.1113C47.9557 44.1094 46.4293 45.4916 46.4293 47.6221C46.4293 49.7296 47.9309 51.7788 49.8669 52.6014V53.9606L31.5131 48.9629C31.9541 48.3678 32.2411 47.6647 32.3373 46.9174V46.9174ZM32.1856 45.091C31.9929 44.4548 31.6577 43.8721 31.2088 43.387L51.9426 35.0518C52.2732 34.9188 52.491 34.5966 52.491 34.2402V5.24813H54.2205V36.1479L32.1856 45.091V45.091ZM28.8747 42.4812V39.7637C33.7613 35.6375 39.9658 33.3655 46.3682 33.3655C46.8499 33.3655 47.2429 32.9726 47.2429 32.4908V5.00387L50.7416 3.83761V33.6491L28.8747 42.4811V42.4812ZM5.25844 33.6491V3.83763L8.7572 5.00388V32.4908C8.7572 32.9726 9.15013 33.3655 9.63188 33.3655C16.0385 33.3655 22.2454 35.643 27.1254 39.7637V42.4812L5.25844 33.6491V33.6491ZM27.1254 37.5211C22.3409 33.8757 16.5249 31.8122 10.5066 31.6298V1.76369C16.6045 1.96049 22.4686 4.21542 27.1254 8.14757V37.5211ZM28.8747 37.5215V8.14757C33.5317 4.21521 39.3953 1.96039 45.4935 1.76369V31.6298C39.4678 31.8125 33.657 33.8777 28.8747 37.5215ZM24.791 43.3869C24.342 43.872 24.0068 44.4546 23.814 45.0908L1.77961 36.1479V5.24813H3.50907V34.2402C3.50907 34.4211 3.56446 34.5894 3.65914 34.7292C3.7535 34.8696 3.88926 34.9841 4.05748 35.0518L24.791 43.3869L24.791 43.3869ZM23.6622 46.9172C23.7584 47.6646 24.0454 48.3678 24.4864 48.9629L6.13257 53.9606V52.6014C8.0686 51.7788 9.57023 49.7297 9.57023 47.6221C9.57023 45.4916 8.04382 44.1094 6.13257 44.1114V43.5281L11.626 42.0322L23.6622 46.9172V46.9172ZM30.5827 53.8168C29.9011 53.4105 29.3777 52.783 29.0987 52.044C29.7835 52.4513 30.2986 53.0735 30.5827 53.8168Z" fill="#374868"/>
</g>
<defs>
<clipPath id="clip0_75_4110">
<rect width="56" height="56" fill="white"/>
</clipPath>
</defs>
</svg>
