<svg width="32" height="32" viewBox="0 0 32 32" fill="none" xmlns="http://www.w3.org/2000/svg">
<path d="M9.26587 13.3472H8.65918C8.4003 13.3472 8.19043 13.557 8.19043 13.8159C8.19043 14.0749 8.4003 14.2847 8.65918 14.2847H9.26587C9.52474 14.2847 9.73462 14.0749 9.73462 13.8159C9.73462 13.557 9.52474 13.3472 9.26587 13.3472Z" fill="#03060E"/>
<path d="M9.26587 11.5273H8.65918C8.4003 11.5273 8.19043 11.7372 8.19043 11.9961C8.19043 12.255 8.4003 12.4648 8.65918 12.4648H9.26587C9.52474 12.4648 9.73462 12.255 9.73462 11.9961C9.73462 11.7372 9.52474 11.5273 9.26587 11.5273Z" fill="#03060E"/>
<path d="M9.26587 7.88721H8.65918C8.4003 7.88721 8.19043 8.09702 8.19043 8.35596C8.19043 8.6149 8.4003 8.82471 8.65918 8.82471H9.26587C9.52474 8.82471 9.73462 8.6149 9.73462 8.35596C9.73462 8.09708 9.52474 7.88721 9.26587 7.88721Z" fill="#03060E"/>
<path d="M9.26587 4.24707H8.65918C8.4003 4.24707 8.19043 4.45688 8.19043 4.71582C8.19043 4.97476 8.4003 5.18457 8.65918 5.18457H9.26587C9.52474 5.18457 9.73462 4.97476 9.73462 4.71582C9.73462 4.45695 9.52474 4.24707 9.26587 4.24707Z" fill="#03060E"/>
<path d="M9.26587 6.06689H8.65918C8.4003 6.06689 8.19043 6.27671 8.19043 6.53564C8.19043 6.79458 8.4003 7.0044 8.65918 7.0044H9.26587C9.52474 7.0044 9.73462 6.79458 9.73462 6.53564C9.73462 6.27677 9.52474 6.06689 9.26587 6.06689Z" fill="#03060E"/>
<path d="M12.2991 2.42676H11.6924C11.4335 2.42676 11.2236 2.63657 11.2236 2.89551C11.2236 3.15445 11.4335 3.36426 11.6924 3.36426H12.2991C12.5579 3.36426 12.7678 3.15445 12.7678 2.89551C12.7678 2.63663 12.5579 2.42676 12.2991 2.42676Z" fill="#03060E"/>
<path d="M12.2991 11.5273H11.6924C11.4335 11.5273 11.2236 11.7372 11.2236 11.9961C11.2236 12.255 11.4335 12.4648 11.6924 12.4648H12.2991C12.5579 12.4648 12.7678 12.255 12.7678 11.9961C12.7678 11.7372 12.5579 11.5273 12.2991 11.5273Z" fill="#03060E"/>
<path d="M12.2991 9.70703H11.6924C11.4335 9.70703 11.2236 9.91684 11.2236 10.1758C11.2236 10.4347 11.4335 10.6445 11.6924 10.6445H12.2991C12.5579 10.6445 12.7678 10.4347 12.7678 10.1758C12.7678 9.91684 12.5579 9.70703 12.2991 9.70703Z" fill="#03060E"/>
<path d="M16.8491 27.0254H17.4558C17.7147 27.0254 17.9246 26.8156 17.9246 26.5566C17.9246 26.2977 17.7147 26.0879 17.4558 26.0879H16.8491C16.5902 26.0879 16.3804 26.2977 16.3804 26.5566C16.3804 26.8156 16.5902 27.0254 16.8491 27.0254Z" fill="#03060E"/>
<path d="M12.2991 6.06689H11.6924C11.4335 6.06689 11.2236 6.27671 11.2236 6.53564C11.2236 6.79458 11.4335 7.0044 11.6924 7.0044H12.2991C12.5579 7.0044 12.7678 6.79458 12.7678 6.53564C12.7678 6.27677 12.5579 6.06689 12.2991 6.06689Z" fill="#03060E"/>
<path d="M31.7225 1.88191C32.1066 1.45654 32.09 0.805911 31.6848 0.400723L31.5993 0.315161C31.194 -0.0900897 30.5433 -0.106527 30.1181 0.277473L20.9581 8.54961V2.28897C20.9581 1.02691 19.9314 0.000160418 18.6693 0.000160418H16.2426C15.9837 0.000160418 15.7738 0.209973 15.7738 0.468911C15.7738 0.727849 15.9837 0.937661 16.2426 0.937661H18.6693C19.4145 0.937661 20.0206 1.54385 20.0206 2.28897V9.30636C20.0206 9.33467 20.0236 9.36229 20.0284 9.38923L13.6265 15.1706C13.0164 15.2557 12.5211 15.5376 12.1868 15.992L11.4658 16.9723C11.4656 16.9725 11.4654 16.9727 11.4652 16.973L6.90269 23.1756H6.27638V2.28897C6.27638 1.78397 6.11194 1.3166 5.83388 0.937661H14.3922C14.6511 0.937661 14.861 0.727849 14.861 0.468911C14.861 0.209973 14.6511 0.000160418 14.3922 0.000160418H5.20088H3.9875C2.72544 0.000160418 1.69869 1.02691 1.69869 2.28897V5.07973C1.69869 5.67273 2.18113 6.15517 2.77413 6.15517H5.33882V23.1756H1.55906C1.12238 23.1756 0.732063 23.4366 0.564626 23.8403C0.19 24.7439 0 25.6986 0 26.6777C0 27.7707 0.235125 28.8256 0.697688 29.8156V30.3179C0.697688 31.2454 1.45231 32 2.37981 32H11.9958C12.9233 32 13.6779 31.2454 13.6779 30.3179V29.8156C14.1405 28.8257 14.3756 27.7707 14.3756 26.6777C14.3756 25.6986 14.1856 24.7439 13.811 23.8402C13.6436 23.4365 13.2533 23.1756 12.8165 23.1756H11.4369L15.0233 20.5375C15.0233 20.5374 15.0234 20.5374 15.0235 20.5374L16.0079 19.8132C16.4624 19.4788 16.7443 18.9834 16.8294 18.3734L20.0206 14.8397V27.7697C20.0206 28.2747 20.1851 28.7421 20.4631 29.1211H15.0899C14.831 29.1211 14.6211 29.3309 14.6211 29.5898C14.6211 29.8487 14.831 30.0586 15.0899 30.0586H21.0961H22.3095C23.5715 30.0586 24.5983 29.0318 24.5983 27.7697V24.979C24.5983 24.386 24.1158 23.9036 23.5228 23.9036H20.9581V13.8016L31.7225 1.88191ZM7.73244 24.1297C7.73244 24.1241 7.73319 24.1186 7.73332 24.1131H11.0409C11.0409 24.1186 11.0417 24.1241 11.0417 24.1297V26.5564C11.0417 26.967 10.7076 27.3011 10.2971 27.3011C9.88651 27.3011 9.55245 26.967 9.55245 26.5564V25.7861C9.55245 25.6185 9.46295 25.4637 9.31782 25.38C9.17263 25.2964 8.99376 25.2966 8.84882 25.3805C8.73363 25.4472 8.60857 25.481 8.47707 25.481C8.06651 25.481 7.73244 25.1469 7.73244 24.7364V24.1297ZM2.77413 5.21766C2.69807 5.21766 2.63619 5.15579 2.63619 5.07973V2.28897C2.63619 1.54385 3.24238 0.937661 3.9875 0.937661C4.73263 0.937661 5.33882 1.54385 5.33882 2.28897V5.21766H2.77413ZM12.7404 30.3179C12.7404 30.7284 12.4064 31.0625 11.9958 31.0625H2.37981C1.96925 31.0625 1.63519 30.7284 1.63519 30.3179V30.1799H12.7404V30.3179ZM11.9792 26.5564V24.1297C11.9792 24.1241 11.9788 24.1186 11.9788 24.1131H12.8166C12.8728 24.1131 12.9233 24.1469 12.945 24.1992C13.2722 24.9885 13.4381 25.8224 13.4381 26.6777C13.4381 27.5677 13.2601 28.4291 12.9086 29.2424H1.467C1.1155 28.4291 0.937501 27.5677 0.937501 26.6777C0.937501 25.8224 1.10344 24.9885 1.43069 24.1992C1.45238 24.1469 1.50281 24.1131 1.55906 24.1131H6.79532C6.79526 24.1186 6.79488 24.1241 6.79488 24.1297V24.7364C6.79488 25.6639 7.54951 26.4185 8.47701 26.4185C8.52313 26.4185 8.56913 26.4166 8.61495 26.4127V26.5564C8.61495 27.484 9.36957 28.2386 10.2971 28.2386C11.2246 28.2386 11.9792 27.484 11.9792 26.5564ZM9.85476 23.1756H8.06651L11.8945 17.9716L14.0285 20.1055L9.85476 23.1756ZM16.0322 17.8575C15.963 17.9342 15.921 18.0316 15.9128 18.1346C15.8801 18.5467 15.7251 18.8574 15.4523 19.0581L14.7924 19.5436L12.4564 17.2076L12.9419 16.5476C13.1425 16.2749 13.4533 16.1199 13.8654 16.0872C13.9684 16.079 14.0658 16.037 14.1425 15.9679L16.4168 13.914L18.0861 15.5832L16.0322 17.8575ZM23.5228 24.8411C23.5989 24.8411 23.6608 24.903 23.6608 24.9791V27.7698C23.6608 28.5149 23.0546 29.1211 22.3095 29.1211C21.5643 29.1211 20.9581 28.5149 20.9581 27.7698V24.8411H23.5228ZM18.7153 14.8865L17.1136 13.2848L30.7465 0.973224C30.801 0.924036 30.8845 0.926036 30.9364 0.978036L31.022 1.0636C31.074 1.11554 31.076 1.19904 31.0268 1.2536L18.7153 14.8865Z" fill="#03060E"/>
<path d="M12.2991 4.24707H11.6924C11.4335 4.24707 11.2236 4.45688 11.2236 4.71582C11.2236 4.97476 11.4335 5.18457 11.6924 5.18457H12.2991C12.5579 5.18457 12.7678 4.97476 12.7678 4.71582C12.7678 4.45695 12.5579 4.24707 12.2991 4.24707Z" fill="#03060E"/>
<path d="M16.8491 25.2051H17.4558C17.7147 25.2051 17.9246 24.9953 17.9246 24.7363C17.9246 24.4774 17.7147 24.2676 17.4558 24.2676H16.8491C16.5902 24.2676 16.3804 24.4774 16.3804 24.7363C16.3804 24.9953 16.5902 25.2051 16.8491 25.2051Z" fill="#03060E"/>
<path d="M16.8491 23.3853H17.4558C17.7147 23.3853 17.9246 23.1754 17.9246 22.9165C17.9246 22.6576 17.7147 22.4478 17.4558 22.4478H16.8491C16.5902 22.4478 16.3804 22.6576 16.3804 22.9165C16.3804 23.1754 16.5902 23.3853 16.8491 23.3853Z" fill="#03060E"/>
</svg>
