<svg width="32" height="32" viewBox="0 0 32 32" fill="none" xmlns="http://www.w3.org/2000/svg">
<g clip-path="url(#clip0_297_4078)">
<path fill-rule="evenodd" clip-rule="evenodd" d="M15.1314 28.7046C15.3412 28.6475 15.4897 28.4613 15.4993 28.2439C15.5064 28.0577 15.4128 27.8831 15.2501 27.7892C14.1986 27.1822 14.2664 25.621 15.3896 25.1208C15.4301 25.1027 15.467 25.0799 15.5 25.0532V28.9896C15.5158 30.4273 16.4235 31.6446 17.846 31.9617C18.061 32.0096 18.2415 32.0386 18.424 31.885C18.6105 31.7292 18.6099 31.5447 18.6008 31.3298C18.5517 30.1751 17.8488 29.1779 16.8343 28.722C16.7262 28.6734 16.6145 28.6309 16.4996 28.5951V28.234C16.5064 28.4554 16.6525 28.646 16.868 28.7046L28.8637 31.971C29.0144 32.0099 29.1691 31.9846 29.2983 31.8856C29.4248 31.7892 29.4927 31.647 29.4948 31.4887V29.7033C29.4937 29.5932 29.4609 29.4917 29.3945 29.4035C29.2767 29.2472 29.1734 29.2423 29.0037 29.1834C28.2116 28.9084 27.5305 28.0524 27.5305 27.2126C27.5305 26.4266 28.1344 26.0614 28.8657 26.2574C29.0171 26.296 29.1763 26.2677 29.3033 26.1675C29.4268 26.0709 29.493 25.9307 29.4948 25.7746V24.4912C29.4936 24.3798 29.4602 24.2772 29.3919 24.188C29.3235 24.0983 29.2338 24.0397 29.1263 24.009L26.884 23.3984L31.6707 21.4556C31.8586 21.3794 31.9826 21.1953 31.9826 20.9925V2.49911C31.9826 2.22382 31.758 1.99929 31.4827 1.99929H29.9947V1.49947C29.9947 1.1571 29.6626 0.921139 29.3368 1.0253L26.9957 1.80565V0.499822C26.9957 0.224534 26.7712 0 26.4959 0C22.6615 0 18.9508 1.33641 15.9998 3.77088C13.0488 1.33641 9.33816 0 5.50374 0C5.22845 0 5.00392 0.224534 5.00392 0.499822V1.80565L2.66287 1.0253C2.50711 0.975512 2.34602 0.998734 2.21286 1.09422C2.08213 1.18964 2.005 1.33704 2.005 1.49947V1.99929H0.516912C0.241624 1.99929 0.0170898 2.22382 0.0170898 2.49911V20.9925C0.0170898 21.0968 0.0493419 21.1938 0.104355 21.2741C0.157909 21.3529 0.234384 21.4172 0.32896 21.4556L5.11555 23.3983L2.87299 24.009C2.76525 24.0399 2.6757 24.0984 2.60746 24.188C2.53932 24.2769 2.50578 24.3795 2.50449 24.4912V25.7746C2.50635 25.9281 2.57017 26.0691 2.69604 26.1675C2.8227 26.267 2.97822 26.297 3.13368 26.2574C3.86489 26.0614 4.46887 26.4266 4.46887 27.2126C4.46887 28.0462 3.79767 28.8958 3.01297 29.1772C2.84773 29.2364 2.72826 29.2397 2.60483 29.4035C2.53825 29.492 2.50566 29.5935 2.50449 29.7033V31.4887C2.50659 31.6444 2.57136 31.7867 2.70108 31.8856C2.8303 31.9846 2.98495 32.0099 3.13564 31.971L15.1314 28.7046V28.7046ZM23.9187 15.7461C21.7229 16.0935 19.6169 16.8825 17.7335 18.0635C17.5002 18.2098 17.4293 18.5193 17.5755 18.7525C17.7218 18.9858 18.0313 19.0567 18.2645 18.9104C20.0338 17.801 22.0122 17.0598 24.0749 16.7335C24.3468 16.6904 24.5335 16.4336 24.4905 16.1617C24.4475 15.8898 24.1906 15.7031 23.9187 15.7461ZM23.9187 13.1555C21.7229 13.5029 19.6169 14.2919 17.7335 15.473C17.5002 15.6192 17.4293 15.9287 17.5755 16.1619C17.7218 16.3952 18.0313 16.4661 18.2645 16.3199C20.0338 15.2104 22.0122 14.4692 24.0749 14.1429C24.3468 14.0999 24.5335 13.843 24.4905 13.5711C24.4475 13.2992 24.1906 13.1125 23.9187 13.1555ZM23.9187 10.5649C21.7229 10.9123 19.6169 11.7013 17.7335 12.8824C17.5002 13.0286 17.4293 13.3381 17.5755 13.5714C17.7218 13.8046 18.0313 13.8755 18.2645 13.7293C20.0338 12.6198 22.0122 11.8786 24.0749 11.5523C24.3468 11.5093 24.5335 11.2524 24.4905 10.9805C24.4475 10.7086 24.1906 10.5219 23.9187 10.5649ZM23.9187 7.97434C21.7229 8.3217 19.6169 9.11075 17.7335 10.2918C17.5002 10.438 17.4293 10.7475 17.5755 10.9808C17.7218 11.214 18.0313 11.2849 18.2645 11.1387C20.0338 10.0292 22.0122 9.28801 24.0749 8.9617C24.3468 8.91869 24.5335 8.66183 24.4905 8.38991C24.4475 8.11801 24.1906 7.93132 23.9187 7.97434ZM23.9187 5.38375C21.7229 5.73112 19.6169 6.52018 17.7334 7.70121C17.5002 7.84746 17.4293 8.15697 17.5755 8.3902C17.7218 8.62343 18.0313 8.69437 18.2645 8.54812C20.0338 7.43865 22.0122 6.69743 24.0749 6.37112C24.3468 6.3281 24.5335 6.07125 24.4905 5.79933C24.4475 5.52742 24.1906 5.34073 23.9187 5.38375ZM23.9187 2.79317C21.7229 3.14053 19.6169 3.92959 17.7334 5.11063C17.5002 5.25687 17.4293 5.56638 17.5755 5.79962C17.7218 6.03284 18.0313 6.10379 18.2645 5.95754C20.0338 4.84807 22.0122 4.10684 24.0749 3.78053C24.3468 3.73752 24.5335 3.48066 24.4905 3.20874C24.4475 2.93684 24.1906 2.75015 23.9187 2.79317ZM7.92475 3.78053C9.98751 4.10684 11.9659 4.84807 13.7352 5.95754C13.9684 6.10379 14.2779 6.03284 14.4242 5.79962C14.5704 5.56638 14.4995 5.25687 14.2662 5.11063C12.3828 3.92959 10.2768 3.14053 8.08096 2.79317C7.80905 2.75016 7.55219 2.93685 7.50918 3.20874C7.46616 3.48066 7.65286 3.73752 7.92475 3.78053ZM7.92475 6.37112C9.98751 6.69743 11.9659 7.43865 13.7352 8.54812C13.9684 8.69437 14.2779 8.62343 14.4242 8.3902C14.5704 8.15697 14.4995 7.84746 14.2662 7.70121C12.3828 6.52018 10.2768 5.73112 8.08096 5.38375C7.80905 5.34074 7.55219 5.52743 7.50918 5.79933C7.46616 6.07125 7.65286 6.3281 7.92475 6.37112ZM7.92475 8.9617C9.98751 9.28801 11.9658 10.0292 13.7352 11.1387C13.9684 11.2849 14.2779 11.214 14.4241 10.9808C14.5704 10.7475 14.4995 10.438 14.2662 10.2918C12.3827 9.11075 10.2768 8.3217 8.08096 7.97434C7.80905 7.93133 7.55219 8.11802 7.50918 8.38991C7.46616 8.66183 7.65286 8.91869 7.92475 8.9617ZM7.92475 11.5523C9.98751 11.8786 11.9658 12.6198 13.7352 13.7293C13.9684 13.8755 14.2779 13.8046 14.4241 13.5714C14.5704 13.3381 14.4995 13.0286 14.2662 12.8824C12.3827 11.7013 10.2768 10.9123 8.08096 10.5649C7.80905 10.5219 7.55219 10.7086 7.50918 10.9805C7.46616 11.2524 7.65286 11.5093 7.92475 11.5523ZM14.2662 18.0635C12.3827 16.8825 10.2768 16.0935 8.08096 15.7461C7.80905 15.7031 7.55219 15.8898 7.50918 16.1617C7.46616 16.4336 7.65286 16.6904 7.92475 16.7335C9.98751 17.0598 11.9658 17.801 13.7352 18.9104C13.9684 19.0567 14.2779 18.9858 14.4241 18.7525C14.5704 18.5193 14.4995 18.2098 14.2662 18.0635ZM7.92475 14.1429C9.98751 14.4692 11.9658 15.2104 13.7352 16.3199C13.9684 16.4661 14.2779 16.3952 14.4241 16.1619C14.5704 15.9287 14.4995 15.6192 14.2662 15.473C12.3827 14.2919 10.2768 13.5029 8.08096 13.1555C7.80905 13.1125 7.55219 13.2992 7.50918 13.5711C7.46616 13.843 7.65286 14.0999 7.92475 14.1429ZM16.4997 28.2107V25.0534C16.5326 25.08 16.5695 25.1028 16.6099 25.1209C17.7258 25.6181 17.8037 27.1806 16.7493 27.7892C16.5983 27.8763 16.5035 28.0368 16.4997 28.2107ZM18.4783 26.8099L25.3563 24.0184L28.4952 24.8732V25.2065C27.4031 25.2053 26.5308 25.9952 26.5308 27.2126C26.5308 28.4169 27.3889 29.5879 28.4952 30.0579V30.8346L18.0073 27.9788C18.2593 27.6388 18.4233 27.237 18.4783 26.8099V26.8099ZM18.3916 25.7663C18.2815 25.4027 18.09 25.0698 17.8334 24.7926L29.6813 20.0296C29.8702 19.9536 29.9947 19.7695 29.9947 19.5658V2.99893H30.9829V20.6559L18.3916 25.7663V25.7663ZM16.4997 24.2749V22.7221C19.292 20.3643 22.8374 19.066 26.4959 19.066C26.7712 19.066 26.9958 18.8415 26.9958 18.5662V2.85935L28.995 2.19292V19.2281L16.4997 24.2749V24.2749ZM3.00465 19.2281V2.19293L5.00394 2.85936V18.5662C5.00394 18.8415 5.22847 19.066 5.50376 19.066C9.16469 19.066 12.7115 20.3674 15.5 22.7221V24.275L3.00465 19.2281V19.2281ZM15.5 21.4406C12.7661 19.3576 9.44261 18.1784 6.00358 18.0742V1.00782C9.48808 1.12028 12.839 2.40881 15.5 4.65576V21.4406ZM16.4997 21.4409V4.65576C19.1608 2.40869 22.5115 1.12022 25.9961 1.00782V18.0742C22.5528 18.1786 19.2324 19.3587 16.4997 21.4409ZM14.1661 24.7925C13.9095 25.0697 13.718 25.4026 13.6078 25.7662L1.01674 20.6559V2.99893H2.00501V19.5658C2.00501 19.6692 2.03666 19.7654 2.09076 19.8452C2.14469 19.9255 2.22226 19.9909 2.31839 20.0296L14.1661 24.7925L14.1661 24.7925ZM13.5211 26.8098C13.5761 27.2369 13.7401 27.6387 13.9921 27.9788L3.50415 30.8346V30.058C4.61045 29.5879 5.46853 28.417 5.46853 27.2126C5.46853 25.9952 4.59629 25.2054 3.50415 25.2065V24.8732L6.64327 24.0184L13.5211 26.8098V26.8098ZM17.4757 30.7524C17.0861 30.5203 16.7871 30.1617 16.6277 29.7395C17.019 29.9722 17.3133 30.3277 17.4757 30.7524Z" fill="#03060E"/>
</g>
<defs>
<clipPath id="clip0_297_4078">
<rect width="32" height="32" fill="white"/>
</clipPath>
</defs>
</svg>
