<svg width="50" height="48" viewBox="0 0 50 48" fill="none" xmlns="http://www.w3.org/2000/svg">
<path d="M46.0538 29.2853C46.4571 28.6076 46.6895 27.8171 46.6895 26.9729C46.6895 26.5325 46.6252 26.1072 46.5076 25.7043C46.7141 24.4874 46.8196 23.2411 46.8196 21.9976C46.8196 16.1218 44.5314 10.5977 40.3767 6.4429C36.222 2.2881 30.6979 0 24.8221 0C21.317 0 17.9663 0.80032 14.8633 2.37885C11.9046 3.88389 9.27912 6.08249 7.27046 8.7371C7.02816 9.05736 7.09128 9.51347 7.41164 9.75578C7.7319 9.99809 8.18801 9.93496 8.43032 9.6146C10.294 7.15159 12.7262 5.10958 15.4666 3.7047L14.0516 6.48197C13.8675 6.84286 13.8286 7.25563 13.9423 7.64483L14.5169 9.60985C14.6367 10.023 14.9251 10.3738 15.3088 10.5728L16.5963 11.2389C17.0096 11.4529 17.4938 11.4744 17.9245 11.298C18.3549 11.1218 18.6846 10.7673 18.8289 10.3257L19.6953 7.67819C19.7139 7.62088 19.7714 7.58442 19.8318 7.59179L23.3173 8.00785C23.3647 8.01348 23.4061 8.04625 23.4224 8.09066L25.0651 12.5515C25.0871 12.6111 25.0627 12.6766 25.0081 12.7079L22.8558 13.618C22.4859 13.7744 22.3128 14.2012 22.4692 14.5711C22.5865 14.8486 22.8559 15.0153 23.1393 15.0153C23.2337 15.0153 23.3297 14.9967 23.4221 14.9577L25.5971 14.038C25.6075 14.0335 25.6179 14.0289 25.6282 14.0239C26.3696 13.6685 26.7141 12.8189 26.4297 12.0483L24.7868 7.58723C24.5793 7.02612 24.0818 6.63381 23.4889 6.56361L20.0043 6.14765C19.2567 6.05806 18.5447 6.5129 18.3125 7.22722L17.4466 9.87349C17.4314 9.91964 17.3985 9.94156 17.3735 9.95183C17.3483 9.96221 17.3088 9.96987 17.2648 9.94699L15.9778 9.28115C15.9466 9.26496 15.9233 9.23694 15.9134 9.2029L15.3385 7.23682C15.3294 7.20579 15.3327 7.17146 15.3475 7.14238L17.5762 2.76864C18.702 2.34249 19.8577 2.01932 21.0386 1.80028L21.0184 1.98616C20.9305 2.79598 21.4369 3.53929 22.2227 3.75357L24.9057 4.48534C24.9354 4.49339 24.9629 4.50861 24.9855 4.52946L27.0239 6.40256C27.0587 6.43456 27.0805 6.478 27.0854 6.52483L27.319 8.76764C27.3872 9.42204 27.8369 9.972 28.4646 10.1689L29.0075 10.3392C29.1705 10.3903 29.3356 10.4146 29.4983 10.4146C30.1969 10.4146 30.8478 9.96609 31.0703 9.2669L31.7828 7.02874C31.8011 6.97105 31.8463 6.9247 31.9035 6.90482L34.1858 6.11303C34.7818 5.90621 35.2013 5.38892 35.2803 4.76284L35.3321 4.35289C38.8188 6.43756 41.639 9.52559 43.3912 13.2157L39.2662 12.7605C38.6718 12.6952 38.098 12.9646 37.7695 13.4647L36.1827 15.8793C36.1659 15.905 36.1403 15.9238 36.1107 15.9323L32.8932 16.8586C32.2119 17.0547 31.7359 17.6869 31.7359 18.396V24.2891C31.182 25.0413 30.8538 25.9693 30.8538 26.9728C30.8538 27.7977 31.0837 28.5941 31.4928 29.2836C30.9882 29.5923 30.5187 29.9609 30.099 30.3791C29.6873 29.9679 29.2266 29.602 28.7226 29.2934C29.1259 28.6158 29.3584 27.8252 29.3584 26.981C29.3584 24.4798 27.3235 22.4448 24.8222 22.4448C22.6661 22.4448 20.8577 23.9575 20.3994 25.9771L18.6322 25.7957C18.1096 23.8676 16.3454 22.4449 14.2542 22.4449C13.9972 22.4449 13.7454 22.4675 13.4998 22.5088L10.865 21.2225C10.8256 21.2033 10.7989 21.1652 10.7938 21.1219L10.6543 19.913C10.6474 19.8526 10.6841 19.7945 10.7407 19.7753L12.3621 19.2245C12.398 19.2123 12.4377 19.2171 12.4711 19.2378L13.9561 20.1616C14.5954 20.5596 15.4332 20.4502 15.9484 19.9011L18.7009 16.9654C18.714 16.9514 18.7311 16.94 18.7502 16.9327C18.7571 16.93 18.7641 16.9271 18.7709 16.9243L20.4689 16.2063C20.8388 16.0499 21.0118 15.6232 20.8554 15.2533C20.699 14.8834 20.2722 14.7103 19.9024 14.8667L18.2131 15.581C17.9967 15.6668 17.7988 15.8012 17.6401 15.9704L14.8876 18.9062C14.8456 18.9509 14.7772 18.9596 14.7247 18.9269L13.2393 18.0028C12.8345 17.751 12.3441 17.6945 11.894 17.8473L10.272 18.3983C9.57262 18.6368 9.12563 19.3429 9.2093 20.0786L9.34903 21.2898C9.41215 21.829 9.74075 22.2926 10.2274 22.5298L11.6883 23.243C11.3885 23.4495 11.1147 23.6909 10.8728 23.9615C10.022 23.0094 8.7977 22.4449 7.49047 22.4449C7.39806 22.4449 7.30663 22.4485 7.21558 22.454L7.09991 20.5631C7.06655 20.017 6.74561 19.5182 6.26235 19.2616L4.60179 18.3796C4.98615 16.2263 5.70909 14.1405 6.75007 12.2204C6.94147 11.8674 6.81048 11.4259 6.45734 11.2345C6.10421 11.043 5.66294 11.1741 5.47144 11.5273C4.27862 13.7272 3.47335 16.1295 3.08754 18.6063C3.07688 18.651 3.07058 18.6961 3.06854 18.7411C2.90778 19.8166 2.82429 20.9053 2.82429 21.9975C2.82429 23.2427 2.92998 24.4907 3.13699 25.7088C3.0187 26.1128 2.95413 26.5394 2.95413 26.981C2.95413 27.8252 3.18664 28.6158 3.59 29.2935C1.38723 30.6432 0 33.0762 0 35.689V38.2323C0 39.5992 1.11205 40.7112 2.47901 40.7112H2.95471V45.922C2.95471 47.0678 3.88689 48 5.03269 48H6.14009C6.65582 48 7.12715 47.8101 7.49086 47.4978C7.85446 47.81 8.32589 48 8.84163 48H9.94912C10.2714 48 10.5877 47.9228 10.8734 47.781C11.1518 47.9198 11.4646 48 11.7963 48H12.9037C13.4195 48 13.8908 47.8101 14.2545 47.4978C14.6181 47.81 15.0895 48 15.6053 48H16.7078C17.8536 48 18.7858 47.0678 18.7858 45.922V43.1554C19.2812 43.2964 19.7825 43.4205 20.2861 43.5261V45.9219C20.2861 47.0677 21.2183 47.9999 22.3641 47.9999H23.4715C23.9872 47.9999 24.4585 47.81 24.8222 47.4977C25.1858 47.8099 25.6573 47.9999 26.173 47.9999H27.2804C28.4262 47.9999 29.3584 47.0677 29.3584 45.9219V43.5257C29.8622 43.4199 30.3633 43.2962 30.8587 43.1552V45.9138C30.8587 47.0596 31.7909 47.9918 32.9366 47.9918H34.0392C34.5549 47.9918 35.0264 47.8018 35.39 47.4896C35.7536 47.8017 36.225 47.9918 36.7407 47.9918H37.8481C38.1797 47.9918 38.4923 47.9117 38.7706 47.773C39.0561 47.915 39.3722 47.9918 39.6954 47.9918H40.8028C41.3186 47.9918 41.7899 47.8018 42.1536 47.4896C42.5172 47.8017 42.9886 47.9918 43.5044 47.9918H44.6118C45.7576 47.9918 46.6898 47.0596 46.6898 45.9138V40.7031H47.1655C48.5324 40.7031 49.6445 39.591 49.6445 38.2241V35.6808C49.6443 33.0673 48.2572 30.6347 46.0538 29.2853ZM33.8371 4.58085C33.8278 4.65425 33.7787 4.71485 33.7089 4.73909L31.4266 5.53088C30.9385 5.70027 30.5535 6.09529 30.3967 6.58756L29.6843 8.82582C29.6522 8.92685 29.5436 8.983 29.4426 8.95148L28.8999 8.78122C28.8263 8.75814 28.7735 8.69366 28.7656 8.61706L28.532 6.37415C28.4903 5.97418 28.3042 5.60408 28.0081 5.33181L25.9695 3.45871C25.7766 3.28147 25.5411 3.15134 25.2882 3.08231L22.6052 2.35054C22.5131 2.32543 22.4538 2.23836 22.464 2.14343L22.5252 1.58086C23.2821 1.49757 24.0479 1.45433 24.8221 1.45433C28.1033 1.45433 31.2065 2.22885 33.9606 3.6026L33.8371 4.58085ZM39.59 28.6821C39.8076 28.1485 39.9259 27.5698 39.9259 26.973C39.9259 26.3685 39.8061 25.7917 39.5904 25.2637C40.1596 24.4113 41.117 23.8913 42.1534 23.8913C43.8527 23.8913 45.2351 25.2738 45.2351 26.973C45.2351 28.6723 43.8527 30.0548 42.1534 30.0548C41.1185 30.0548 40.1592 29.5343 39.59 28.6821ZM33.2953 18.2564L36.5128 17.3301C36.876 17.2255 37.1903 16.994 37.3978 16.6781L38.9847 14.2634C39.0114 14.2229 39.0585 14.2012 39.1063 14.2062L44.0443 14.751C44.897 17.0058 45.3654 19.4478 45.3654 21.9975C45.3654 22.5672 45.3411 23.1375 45.2945 23.7048C44.4788 22.9205 43.3718 22.4368 42.1535 22.4368C40.8443 22.4368 39.6214 23.001 38.7711 23.9533C37.9399 23.0234 36.7323 22.4368 35.3899 22.4368C34.5921 22.4368 33.8422 22.6446 33.1901 23.0077V18.3961C33.1901 18.3317 33.2334 18.2742 33.2953 18.2564ZM24.8221 23.8994C26.5214 23.8994 27.9039 25.2819 27.9039 26.9812C27.9039 28.6804 26.5214 30.0629 24.8221 30.0629C23.1229 30.0629 21.7404 28.6804 21.7404 26.9812C21.7404 25.2819 23.1229 23.8994 24.8221 23.8994ZM19.5402 30.3837C19.1224 29.9683 18.6558 29.6014 18.1542 29.2942C18.5108 28.6953 18.733 28.0077 18.7799 27.2731L20.3084 27.4301C20.375 28.1053 20.5907 28.7372 20.9216 29.2932C20.4154 29.6031 19.9531 29.9707 19.5402 30.3837ZM17.3358 26.9812C17.3358 28.6804 15.9534 30.0629 14.2541 30.0629C12.5549 30.0629 11.1724 28.6804 11.1724 26.9812C11.1724 25.2819 12.5549 23.8994 14.2541 23.8994C15.9534 23.8994 17.3358 25.2819 17.3358 26.9812ZM10.0535 25.2716C9.8379 25.7996 9.71796 26.3765 9.71796 26.9812C9.71796 27.5857 9.83781 28.1626 10.0535 28.6905C9.48429 29.5429 8.52689 30.0629 7.49056 30.0629C5.79131 30.0629 4.40884 28.6804 4.40884 26.9812C4.40884 25.2819 5.79131 23.8994 7.49056 23.8994C8.52534 23.8994 9.48429 24.4196 10.0535 25.2716ZM5.58023 20.5461C5.6195 20.567 5.64558 20.6075 5.64839 20.6519L5.77861 22.7815C5.24397 23.0002 4.76052 23.3182 4.35037 23.7123C4.30334 23.1426 4.27901 22.5698 4.27901 21.9976C4.27901 21.3 4.31663 20.6041 4.38712 19.9124L5.58023 20.5461ZM6.14009 46.5456H5.03269C4.68886 46.5456 4.40913 46.2658 4.40913 45.922V35.6551C4.40913 35.2534 4.08353 34.9278 3.68192 34.9278C3.2803 34.9278 2.95471 35.2534 2.95471 35.6551V39.2569H2.47901C1.91402 39.2569 1.45442 38.7973 1.45442 38.2324V35.6891C1.45442 33.5086 2.65345 31.4835 4.53993 30.4224C5.33385 31.1042 6.36445 31.5174 7.49047 31.5174C7.6776 31.5174 7.8627 31.5043 8.04557 31.4818C7.22285 32.6948 6.76364 34.148 6.76364 35.6891V38.2324V45.9221C6.76364 46.2659 6.48391 46.5456 6.14009 46.5456ZM8.21807 45.9221V40.4888C8.53057 40.6312 8.87731 40.7113 9.24266 40.7113H9.71835V45.9221C9.71835 46.1393 9.75209 46.3486 9.81425 46.5457H8.84163C8.4978 46.5456 8.21807 46.2659 8.21807 45.9221ZM17.3313 45.9221C17.3313 46.2659 17.0515 46.5457 16.7077 46.5457H15.6052C15.2613 46.5457 14.9816 46.2659 14.9816 45.9221V38.6134C14.9816 38.2118 14.656 37.8862 14.2544 37.8862C13.8528 37.8862 13.5272 38.2118 13.5272 38.6134V45.9221C13.5272 46.2659 13.2475 46.5457 12.9036 46.5457H11.7963C11.4525 46.5457 11.1728 46.2659 11.1728 45.9221V35.6551C11.1728 35.2534 10.8472 34.9278 10.4456 34.9278C10.0439 34.9278 9.71835 35.2534 9.71835 35.6551V39.2569H9.24266C8.67766 39.2569 8.21807 38.7973 8.21807 38.2324V35.6891C8.21807 33.4776 9.39169 31.4911 11.3035 30.4223C12.0974 31.1041 13.1281 31.5174 14.2541 31.5174C15.3798 31.5174 16.4102 31.1043 17.2041 30.4229C17.7217 30.7142 18.1978 31.0841 18.6106 31.5138C17.7948 32.7289 17.3313 34.1779 17.3313 35.6891V38.2324V45.9221ZM18.7857 41.6391V40.4888C19.0982 40.6312 19.4449 40.7113 19.8103 40.7113H20.286V42.038C19.7811 41.9242 19.2795 41.7907 18.7857 41.6391ZM27.2803 46.5456H26.1729C25.8291 46.5456 25.5493 46.2658 25.5493 45.922V38.6134C25.5493 38.2117 25.2238 37.8861 24.8221 37.8861C24.4205 37.8861 24.0949 38.2117 24.0949 38.6134V45.922C24.0949 46.2658 23.8152 46.5456 23.4714 46.5456H22.364C22.0201 46.5456 21.7404 46.2658 21.7404 45.922V35.6551C21.7404 35.2534 21.4148 34.9278 21.0132 34.9278C20.6116 34.9278 20.286 35.2534 20.286 35.6551V39.2569H19.8103C19.2453 39.2569 18.7857 38.7973 18.7857 38.2324V35.6891C18.7857 33.5065 19.984 31.4832 21.8712 30.422C22.6651 31.104 23.6959 31.5174 24.8221 31.5174C25.9482 31.5174 26.9789 31.1041 27.7729 30.4222C29.6595 31.4833 30.8586 33.5084 30.8586 35.6891V38.2324C30.8586 38.7973 30.399 39.2569 29.834 39.2569H29.3583V35.6551C29.3583 35.2534 29.0327 34.9278 28.6311 34.9278C28.2295 34.9278 27.9039 35.2534 27.9039 35.6551V42.8447C27.8978 42.8975 27.8979 42.9518 27.9039 43.0066V45.9221C27.9039 46.2659 27.6241 46.5456 27.2803 46.5456ZM29.3583 42.0375V40.7113H29.834C30.1992 40.7113 30.5461 40.6312 30.8586 40.4888V41.6389C30.3646 41.7905 29.8633 41.9236 29.3583 42.0375ZM36.7405 46.5374C36.3967 46.5374 36.117 46.2577 36.117 45.9139V38.6052C36.117 38.2036 35.7914 37.878 35.3898 37.878C34.9882 37.878 34.6626 38.2036 34.6626 38.6052V45.9139C34.6626 46.2577 34.3828 46.5374 34.039 46.5374H32.9365C32.5926 46.5374 32.3129 46.2577 32.3129 45.9139V38.2323V35.689C32.3129 34.1772 31.8482 32.7259 31.0301 31.5095C31.4436 31.0782 31.9202 30.7073 32.4394 30.4151C32.7307 30.6663 33.0554 30.8826 33.409 31.0544C33.7704 31.2299 34.2054 31.0794 34.381 30.7183C34.5566 30.357 34.406 29.9219 34.0448 29.7463C32.9735 29.2256 32.308 28.1629 32.308 26.9729C32.308 25.2737 33.6904 23.8912 35.3897 23.8912C37.0889 23.8912 38.4714 25.2737 38.4714 26.9729C38.4714 28.1865 37.7547 29.2911 36.6455 29.787C36.2789 29.9509 36.1146 30.381 36.2785 30.7476C36.3993 31.0179 36.6647 31.1782 36.9428 31.1782C37.042 31.1782 37.1427 31.1578 37.2392 31.1146C37.6452 30.9331 38.0154 30.6961 38.3425 30.415C40.2282 31.4764 41.4261 33.5004 41.4261 35.6807V38.224C41.4261 38.7889 40.9665 39.2485 40.4015 39.2485H39.9258V35.6466C39.9258 35.245 39.6002 34.9194 39.1986 34.9194C38.797 34.9194 38.4714 35.245 38.4714 35.6466V45.9137C38.4714 46.2575 38.1917 46.5372 37.8478 46.5372H36.7405V46.5374ZM40.8026 46.5374H39.83C39.8921 46.3405 39.9259 46.1311 39.9259 45.9139V40.7032H40.4016C40.7669 40.7032 41.1137 40.6231 41.4262 40.4806V45.9139C41.4262 46.2577 41.1465 46.5374 40.8026 46.5374ZM48.1899 38.2242C48.1899 38.7891 47.7303 39.2487 47.1653 39.2487H46.6896V35.6468C46.6896 35.2452 46.364 34.9196 45.9624 34.9196C45.5607 34.9196 45.2351 35.2452 45.2351 35.6468V45.9139C45.2351 46.2577 44.9554 46.5374 44.6116 46.5374H43.5042C43.1604 46.5374 42.8806 46.2577 42.8806 45.9139V38.2242V35.6808C42.8806 34.1565 42.4087 32.6938 41.5784 31.4716C41.7678 31.4958 41.9596 31.5092 42.1534 31.5092C43.2795 31.5092 44.3102 31.0957 45.1042 30.414C46.991 31.475 48.1899 33.4997 48.1899 35.6808V38.2242Z" fill="#4E4E4E"/>
</svg>
