<svg width="48" height="56" viewBox="0 0 48 56" fill="none" xmlns="http://www.w3.org/2000/svg">
<path d="M24.267 55.9998C23.9561 55.9998 23.6476 55.9506 23.3522 55.8541L1.21916 48.6677C0.491455 48.4273 4.75384e-06 47.747 4.75384e-06 46.9808V9.02366C-0.00177157 8.25332 0.494415 7.57062 1.22745 7.33378L23.3522 0.143216C23.9543 -0.0504039 24.6027 -0.0480354 25.2037 0.150321L46.7464 7.33141C47.4717 7.57299 47.9608 8.25214 47.9608 9.01655V46.9737C47.962 47.7434 47.4664 48.4267 46.7339 48.6635L25.2037 55.847C24.9017 55.9477 24.5855 55.9998 24.267 55.9998ZM24.267 1.18414C24.0805 1.18414 23.8951 1.21316 23.7181 1.27059L1.59337 8.45997C1.34942 8.53931 1.18422 8.76668 1.18422 9.02366V46.9808C1.18422 47.236 1.34705 47.4621 1.58922 47.5427L23.7175 54.7279C24.0787 54.8457 24.4683 54.844 24.8289 54.7232L46.3621 47.5385C46.609 47.461 46.7766 47.2324 46.7766 46.9737V9.01951C46.7766 8.76431 46.6137 8.53813 46.3716 8.4576L24.8289 1.27414C24.6477 1.21434 24.4576 1.18355 24.267 1.18414Z" fill="#374868"/>
<path d="M31.9739 53.5543C31.6482 53.5519 31.3841 53.2879 31.3817 52.9622V40.1975C31.3817 39.4325 31.8714 38.7534 32.5973 38.5118L39.297 36.2819C39.9241 36.08 40.5961 36.424 40.798 37.0511C40.8348 37.1653 40.8543 37.2849 40.8555 37.4051V50.1947C40.8555 50.4493 40.6926 50.6755 40.4511 50.756L32.1616 53.5211C32.1012 53.5425 32.0378 53.5537 31.9739 53.5543ZM39.6713 37.4034L32.971 39.6356C32.7288 39.7161 32.566 39.9423 32.566 40.1975V52.1403L39.6713 49.7719V37.4034Z" fill="#374868"/>
<path d="M24.2681 16.9124C23.9495 16.9124 23.6328 16.8615 23.3302 16.7614L0.409088 9.31861L0.775011 8.1936L23.7008 15.6364C24.0715 15.7596 24.4718 15.759 24.8418 15.6334L47.1815 8.1936L47.5557 9.31861L25.2238 16.7567C24.9159 16.8609 24.5932 16.9136 24.2681 16.9124Z" fill="#374868"/>
<path d="M24.2681 22.8335C23.9495 22.8335 23.6328 22.7826 23.3302 22.6826L0.409088 15.2398L0.775011 14.1147L23.7008 21.5575C24.0715 21.6807 24.4718 21.6801 24.8418 21.5546L47.1815 14.1147L47.5557 15.2398L25.2238 22.6778C24.9159 22.782 24.5932 22.8347 24.2681 22.8335Z" fill="#374868"/>
<path d="M24.2681 29.9388C23.9495 29.9388 23.6328 29.8878 23.3302 29.7878L0.409088 22.345L0.775011 21.22L23.7008 28.6628C24.0715 28.7859 24.4718 28.7853 24.8418 28.6598L47.1815 21.22L47.5557 22.345L25.2238 29.783C24.9159 29.8873 24.5932 29.9399 24.2681 29.9388Z" fill="#374868"/>
<path d="M24.2646 27.5719C23.3912 27.4979 22.5345 27.2907 21.7245 26.9567C21.4811 26.8774 21.3159 26.6506 21.3159 26.3942V23.9015C21.3159 23.5746 21.5806 23.3093 21.908 23.3093C21.9702 23.3093 22.0324 23.3194 22.0916 23.3384L24.0692 23.9838C24.1965 24.0294 24.3357 24.0294 24.463 23.9838L26.4584 23.3206C26.7686 23.2176 27.1038 23.3857 27.2068 23.696C27.2269 23.7564 27.237 23.8197 27.237 23.8831V26.3818C27.237 26.6376 27.0736 26.8644 26.8308 26.9443C26.0131 27.2854 25.1474 27.4967 24.2646 27.5719ZM22.5001 25.9644C23.3397 26.2794 24.3842 26.5719 25.2149 26.2308L26.0528 25.9537V24.7044C25.3861 24.8974 24.3949 25.4107 23.695 25.107L22.5001 24.7174V25.9644ZM15.9869 25.062C15.9248 25.062 15.8638 25.0519 15.8046 25.033L11.6598 23.6889C11.4153 23.6095 11.2501 23.3822 11.2501 23.1252V20.6383C11.2536 20.3085 11.5236 20.0445 11.8534 20.048C11.9114 20.0486 11.9695 20.0581 12.0251 20.0753L16.1699 21.4193C16.4138 21.4987 16.579 21.726 16.579 21.9824V24.4693C16.5773 24.7955 16.3132 25.0596 15.9869 25.062ZM12.4343 22.6936L15.3948 23.654V22.4105L12.4343 21.4507V22.6936ZM32.566 24.9957C32.2397 24.9933 31.9762 24.7298 31.9738 24.4036V21.9114C31.9738 21.6562 32.1367 21.43 32.3788 21.3495L36.5236 19.9704C36.8368 19.8692 37.1726 20.0403 37.2738 20.3535C37.2928 20.4116 37.3022 20.4714 37.3028 20.5324V23.0251C37.3028 23.2797 37.1394 23.5059 36.8978 23.5865L32.7531 24.9661C32.6927 24.9862 32.6293 24.9969 32.566 24.9969V24.9957ZM33.1581 22.3371V23.5805L36.1186 22.5947V21.3512L33.1581 22.3371ZM5.32897 21.6041C5.2668 21.6041 5.20522 21.5946 5.14601 21.5751L0.409147 20.0356C0.165198 19.9562 0 19.7289 0 19.4725V16.9856C0.00355265 16.6558 0.273554 16.3917 0.603358 16.3953C0.661385 16.3959 0.719412 16.4054 0.77507 16.4225L5.51194 17.962C5.75588 18.0414 5.92108 18.2687 5.92108 18.5251V21.012C5.91931 21.3382 5.65523 21.6023 5.32897 21.6041ZM1.18422 19.042L4.73687 20.1966V18.9532L1.18422 17.7986V19.042ZM43.2239 21.4442C42.8982 21.4418 42.6342 21.1778 42.6318 20.8521V18.3652C42.6318 18.1106 42.7952 17.8845 43.0368 17.8039L47.1816 16.4243C47.4948 16.3231 47.8311 16.4954 47.9318 16.8086C47.9501 16.8654 47.9596 16.9252 47.9608 16.985V19.4802C47.9608 19.7354 47.7974 19.9622 47.5552 20.0427L43.4104 21.4164C43.35 21.4353 43.2873 21.4448 43.2239 21.4442ZM43.816 18.7922V20.032L46.7766 19.0503V17.8069L43.816 18.7922Z" fill="#374868"/>
</svg>
