<svg width="34" height="32" viewBox="0 0 34 32" fill="none" xmlns="http://www.w3.org/2000/svg">
<path d="M30.7025 19.5235C30.9714 19.0717 31.1263 18.5447 31.1263 17.982C31.1263 17.6884 31.0835 17.4048 31.005 17.1362C31.1427 16.325 31.2131 15.4941 31.2131 14.665C31.2131 10.7479 29.6876 7.06513 26.9178 4.29526C24.148 1.5254 20.4653 0 16.5481 0C14.2113 0 11.9775 0.533547 9.90888 1.5859C7.93643 2.58926 6.18608 4.05499 4.84697 5.82473C4.68544 6.03824 4.72752 6.34232 4.94109 6.50385C5.1546 6.66539 5.45867 6.62331 5.62021 6.40974C6.86267 4.76772 8.48413 3.40639 10.3111 2.4698L9.36771 4.32131C9.24502 4.56191 9.2191 4.83708 9.29486 5.09655L9.67792 6.40657C9.75782 6.682 9.95006 6.91587 10.2058 7.04852L11.0642 7.4926C11.3397 7.63526 11.6625 7.64961 11.9497 7.53197C12.2366 7.41452 12.4564 7.17819 12.5526 6.88381L13.1302 5.11879C13.1426 5.08059 13.1809 5.05628 13.2212 5.06119L15.5449 5.33857C15.5765 5.34232 15.6041 5.36417 15.6149 5.39377L16.7101 8.36765C16.7248 8.4074 16.7085 8.4511 16.6721 8.47191L15.2372 9.0787C14.9906 9.18296 14.8752 9.46745 14.9794 9.71405C15.0577 9.89906 15.2372 10.0102 15.4262 10.0102C15.4891 10.0102 15.5531 9.99783 15.6147 9.97178L17.0647 9.35866C17.0717 9.35568 17.0786 9.35258 17.0855 9.34928C17.5798 9.11231 17.8094 8.54593 17.6198 8.03222L16.5246 5.05816C16.3862 4.68408 16.0546 4.42254 15.6593 4.37574L13.3362 4.09843C12.8378 4.0387 12.3631 4.34194 12.2084 4.81815L11.631 6.58233C11.621 6.6131 11.599 6.6277 11.5823 6.63456C11.5655 6.64147 11.5392 6.64658 11.5098 6.63132L10.6519 6.18744C10.6311 6.17664 10.6155 6.15796 10.6089 6.13527L10.2257 4.82454C10.2196 4.80386 10.2218 4.78098 10.2317 4.76158L11.7175 1.84576C12.468 1.56166 13.2385 1.34621 14.0257 1.20019L14.0123 1.32411C13.9537 1.86399 14.2913 2.35953 14.8151 2.50238L16.6038 2.99023C16.6236 2.99559 16.642 3.00574 16.657 3.01964L18.016 4.26837C18.0391 4.2897 18.0536 4.31866 18.0569 4.34989L18.2127 5.8451C18.2581 6.28136 18.5579 6.648 18.9764 6.77929L19.3383 6.8928C19.447 6.92686 19.5571 6.94309 19.6655 6.94309C20.1313 6.94309 20.5652 6.64406 20.7136 6.17793L21.1885 4.68583C21.2008 4.64736 21.2309 4.61647 21.269 4.60321L22.7905 4.07536C23.1879 3.93748 23.4675 3.59262 23.5202 3.17523L23.5547 2.90193C25.8792 4.29171 27.7594 6.35039 28.9275 8.81044L26.1775 8.50701C25.7812 8.46344 25.3987 8.64308 25.1797 8.97643L24.1218 10.5862C24.1106 10.6033 24.0935 10.6159 24.0738 10.6215L21.9288 11.2391C21.4746 11.3698 21.1573 11.7913 21.1573 12.264V16.1928C20.788 16.6942 20.5692 17.3129 20.5692 17.9819C20.5692 18.5318 20.7225 19.0628 20.9952 19.5224C20.6588 19.7282 20.3458 19.9739 20.066 20.2527C19.7915 19.9786 19.4844 19.7347 19.1484 19.5289C19.4172 19.0772 19.5723 18.5502 19.5723 17.9873C19.5723 16.3198 18.2156 14.9632 16.5482 14.9632C15.1107 14.9632 13.9051 15.9717 13.5996 17.3181L12.4215 17.1972C12.0731 15.9118 10.8969 14.9633 9.50281 14.9633C9.33144 14.9633 9.16357 14.9783 8.9999 15.0059L7.24335 14.1484C7.21704 14.1356 7.19926 14.1102 7.1959 14.0813L7.10288 13.2753C7.09829 13.235 7.12273 13.1963 7.16048 13.1835L8.2414 12.8163C8.26532 12.8082 8.29182 12.8114 8.31406 12.8252L9.3041 13.4411C9.73028 13.7064 10.2888 13.6335 10.6323 13.2674L12.4672 11.3103C12.476 11.3009 12.4874 11.2934 12.5001 11.2884C12.5047 11.2866 12.5094 11.2848 12.5139 11.2829L13.6459 10.8042C13.8925 10.7 14.0079 10.4155 13.9036 10.1689C13.7994 9.92226 13.5148 9.80688 13.2683 9.91114L12.1421 10.3874C11.9978 10.4446 11.8659 10.5342 11.7601 10.647L9.92504 12.6042C9.89705 12.634 9.85148 12.6397 9.81644 12.6179L8.82621 12.0019C8.55633 11.834 8.22938 11.7963 7.92932 11.8982L6.848 12.2656C6.38175 12.4245 6.08375 12.8953 6.13954 13.3857L6.23268 14.1932C6.27477 14.5527 6.49383 14.8617 6.81827 15.0198L7.79221 15.4953C7.59234 15.633 7.4098 15.7939 7.24852 15.9743C6.68136 15.3396 5.86514 14.9633 4.99365 14.9633C4.93204 14.9633 4.87109 14.9657 4.81039 14.9694L4.73327 13.7087C4.71103 13.3447 4.49707 13.0122 4.1749 12.8411L3.06786 12.2531C3.3241 10.8175 3.80606 9.42698 4.50005 8.14696C4.62765 7.9116 4.54032 7.61729 4.3049 7.48969C4.06947 7.36203 3.77529 7.44942 3.64763 7.68484C2.85241 9.15148 2.31557 10.753 2.05836 12.4042C2.05125 12.434 2.04705 12.4641 2.04569 12.4941C1.93852 13.2111 1.88286 13.9369 1.88286 14.665C1.88286 15.4952 1.95332 16.3271 2.09133 17.1392C2.01247 17.4085 1.96942 17.6929 1.96942 17.9873C1.96942 18.5502 2.12443 19.0772 2.39333 19.529C0.924819 20.4288 0 22.0508 0 23.7927V25.4882C0 26.3994 0.741367 27.1408 1.65268 27.1408H1.9698V30.6147C1.9698 31.3785 2.59126 32 3.35513 32H4.09339C4.43722 32 4.75144 31.8734 4.9939 31.6652C5.23631 31.8733 5.55059 32 5.89442 32H6.63275C6.84761 32 7.05847 31.9485 7.2489 31.854C7.43455 31.9465 7.64309 32 7.86422 32H8.60249C8.94631 32 9.26053 31.8734 9.503 31.6652C9.7454 31.8733 10.0597 32 10.4035 32H11.1385C11.9024 32 12.5239 31.3785 12.5239 30.6147V28.7703C12.8541 28.8643 13.1883 28.947 13.5241 29.0174V30.6146C13.5241 31.3785 14.1455 31.9999 14.9094 31.9999H15.6476C15.9915 31.9999 16.3057 31.8733 16.5482 31.6652C16.7906 31.8732 17.1048 31.9999 17.4487 31.9999H18.1869C18.9508 31.9999 19.5723 31.3785 19.5723 30.6146V29.0171C19.9081 28.9466 20.2422 28.8641 20.5724 28.7701V30.6092C20.5724 31.373 21.1939 31.9945 21.9578 31.9945H22.6928C23.0366 31.9945 23.3509 31.8679 23.5933 31.6597C23.8357 31.8678 24.15 31.9945 24.4938 31.9945H25.2321C25.4532 31.9945 25.6615 31.9411 25.8471 31.8487C26.0374 31.9433 26.2481 31.9945 26.4636 31.9945H27.2019C27.5457 31.9945 27.8599 31.8679 28.1024 31.6597C28.3448 31.8678 28.6591 31.9945 29.0029 31.9945H29.7412C30.505 31.9945 31.1265 31.373 31.1265 30.6092V27.1354H31.4436C32.3549 27.1354 33.0963 26.394 33.0963 25.4827V23.7872C33.0962 22.0448 32.1715 20.4231 30.7025 19.5235ZM22.5581 3.0539C22.5519 3.10283 22.5191 3.14323 22.4726 3.15939L20.951 3.68725C20.6256 3.80018 20.369 4.06353 20.2645 4.39171L19.7895 5.88388C19.7681 5.95124 19.6957 5.98866 19.6284 5.96766L19.2666 5.85415C19.2175 5.83876 19.1823 5.79578 19.177 5.74471L19.0213 4.24943C18.9935 3.98279 18.8695 3.73605 18.6721 3.55454L17.313 2.30581C17.1844 2.18764 17.0274 2.1009 16.8588 2.05487L15.0701 1.56703C15.0087 1.55028 14.9692 1.49224 14.976 1.42895L15.0168 1.05391C15.5214 0.99838 16.0319 0.96955 16.5481 0.96955C18.7355 0.96955 20.8043 1.4859 22.6404 2.40174L22.5581 3.0539ZM26.3933 19.1214C26.5384 18.7657 26.6173 18.3799 26.6173 17.982C26.6173 17.579 26.5374 17.1944 26.3936 16.8425C26.7731 16.2742 27.4113 15.9275 28.1023 15.9275C29.2351 15.9275 30.1568 16.8492 30.1568 17.982C30.1568 19.1149 29.2351 20.0365 28.1023 20.0365C27.4124 20.0365 26.7728 19.6895 26.3933 19.1214ZM22.1969 12.1709L24.3419 11.5534C24.584 11.4837 24.7935 11.3294 24.9319 11.1188L25.9898 9.50895C26.0076 9.48193 26.039 9.46745 26.0709 9.47081L29.3628 9.83403C29.9314 11.3372 30.2436 12.9652 30.2436 14.665C30.2436 15.0448 30.2274 15.425 30.1963 15.8032C29.6525 15.2804 28.9146 14.9579 28.1023 14.9579C27.2296 14.9579 26.4142 15.334 25.8474 15.9688C25.2932 15.3489 24.4882 14.9579 23.5932 14.9579C23.0614 14.9579 22.5614 15.0964 22.1267 15.3385V12.2641C22.1267 12.2212 22.1556 12.1828 22.1969 12.1709ZM16.5481 15.933C17.6809 15.933 18.6026 16.8546 18.6026 17.9875C18.6026 19.1203 17.6809 20.0419 16.5481 20.0419C15.4153 20.0419 14.4936 19.1203 14.4936 17.9875C14.4936 16.8546 15.4153 15.933 16.5481 15.933ZM13.0268 20.2558C12.7482 19.9788 12.4372 19.7342 12.1028 19.5295C12.3405 19.1302 12.4886 18.6718 12.5199 18.1821L13.5389 18.2867C13.5833 18.7369 13.7272 19.1582 13.9477 19.5288C13.6103 19.7354 13.3021 19.9805 13.0268 20.2558ZM11.5572 17.9875C11.5572 19.1203 10.6356 20.0419 9.50274 20.0419C8.36991 20.0419 7.44826 19.1203 7.44826 17.9875C7.44826 16.8546 8.36991 15.933 9.50274 15.933C10.6356 15.933 11.5572 16.8546 11.5572 17.9875ZM6.70236 16.8478C6.5586 17.1997 6.47864 17.5844 6.47864 17.9875C6.47864 18.3905 6.55854 18.775 6.7023 19.127C6.32286 19.6953 5.68459 20.0419 4.99371 20.0419C3.86088 20.0419 2.93923 19.1203 2.93923 17.9875C2.93923 16.8546 3.86088 15.933 4.99371 15.933C5.68356 15.933 6.32286 16.2798 6.70236 16.8478ZM3.72015 13.6974C3.74633 13.7113 3.76372 13.7383 3.7656 13.7679L3.85241 15.1877C3.49598 15.3335 3.17368 15.5454 2.90025 15.8082C2.8689 15.4284 2.85267 15.0465 2.85267 14.665C2.85267 14.2 2.87775 13.7361 2.92475 13.2749L3.72015 13.6974ZM4.09339 31.0304H3.35513C3.12591 31.0304 2.93942 30.8439 2.93942 30.6147V23.77C2.93942 23.5023 2.72236 23.2852 2.45461 23.2852C2.18687 23.2852 1.9698 23.5023 1.9698 23.77V26.1713H1.65268C1.27601 26.1713 0.969615 25.8649 0.969615 25.4883V23.7927C0.969615 22.3391 1.76897 20.989 3.02662 20.2816C3.5559 20.7361 4.24297 21.0116 4.99365 21.0116C5.1184 21.0116 5.2418 21.0029 5.36371 20.9879C4.81524 21.7966 4.5091 22.7653 4.5091 23.7927V25.4883V30.6147C4.5091 30.844 4.32261 31.0304 4.09339 31.0304ZM5.47871 30.6147V26.9925C5.68705 27.0875 5.91821 27.1409 6.16177 27.1409H6.4789V30.6147C6.4789 30.7595 6.5014 30.8991 6.54283 31.0305H5.89442C5.6652 31.0304 5.47871 30.844 5.47871 30.6147ZM11.5542 30.6147C11.5542 30.844 11.3677 31.0305 11.1385 31.0305H10.4034C10.1742 31.0305 9.98774 30.844 9.98774 30.6147V25.7423C9.98774 25.4746 9.77068 25.2575 9.50294 25.2575C9.23519 25.2575 9.01813 25.4746 9.01813 25.7423V30.6147C9.01813 30.844 8.83164 31.0305 8.60242 31.0305H7.86422C7.63501 31.0305 7.44852 30.844 7.44852 30.6147V23.77C7.44852 23.5023 7.23145 23.2852 6.96371 23.2852C6.69597 23.2852 6.4789 23.5023 6.4789 23.77V26.1713H6.16177C5.78511 26.1713 5.47871 25.8649 5.47871 25.4883V23.7927C5.47871 22.3184 6.26113 20.9941 7.53565 20.2816C8.06493 20.7361 8.75207 21.0116 9.50274 21.0116C10.2532 21.0116 10.9402 20.7362 11.4694 20.2819C11.8145 20.4761 12.1319 20.7227 12.4071 21.0092C11.8632 21.8192 11.5542 22.7853 11.5542 23.7927V25.4883V30.6147ZM12.5238 27.7594V26.9925C12.7321 27.0875 12.9633 27.1409 13.2069 27.1409H13.524V28.0254C13.1874 27.9495 12.853 27.8605 12.5238 27.7594ZM18.1869 31.0304H17.4486C17.2194 31.0304 17.0329 30.8439 17.0329 30.6147V25.7422C17.0329 25.4745 16.8158 25.2574 16.5481 25.2574C16.2803 25.2574 16.0633 25.4745 16.0633 25.7422V30.6147C16.0633 30.8439 15.8768 31.0304 15.6476 31.0304H14.9093C14.6801 31.0304 14.4936 30.8439 14.4936 30.6147V23.77C14.4936 23.5023 14.2765 23.2852 14.0088 23.2852C13.7411 23.2852 13.524 23.5023 13.524 23.77V26.1713H13.2069C12.8302 26.1713 12.5238 25.8649 12.5238 25.4883V23.7927C12.5238 22.3377 13.3226 20.9888 14.5808 20.2814C15.1101 20.736 15.7973 21.0116 16.5481 21.0116C17.2988 21.0116 17.986 20.7361 18.5152 20.2815C19.773 20.9889 20.5724 22.339 20.5724 23.7927V25.4883C20.5724 25.8649 20.266 26.1713 19.8893 26.1713H19.5722V23.77C19.5722 23.5023 19.3551 23.2852 19.0874 23.2852C18.8196 23.2852 18.6026 23.5023 18.6026 23.77V28.5631C18.5985 28.5983 18.5986 28.6345 18.6026 28.6711V30.6147C18.6026 30.844 18.4161 31.0304 18.1869 31.0304ZM19.5722 28.025V27.1409H19.8893C20.1328 27.1409 20.364 27.0875 20.5724 26.9925V27.7593C20.243 27.8603 19.9088 27.9491 19.5722 28.025ZM24.4937 31.025C24.2645 31.025 24.078 30.8385 24.078 30.6093V25.7368C24.078 25.4691 23.8609 25.252 23.5932 25.252C23.3254 25.252 23.1084 25.4691 23.1084 25.7368V30.6093C23.1084 30.8385 22.9219 31.025 22.6927 31.025H21.9576C21.7284 31.025 21.5419 30.8385 21.5419 30.6093V25.4882V23.7927C21.5419 22.7848 21.2321 21.8172 20.6867 21.0063C20.9624 20.7188 21.2801 20.4715 21.6263 20.2767C21.8205 20.4442 22.037 20.5884 22.2727 20.703C22.5136 20.82 22.8036 20.7196 22.9207 20.4788C23.0377 20.238 22.9373 19.9479 22.6965 19.8309C21.9823 19.4838 21.5386 18.7753 21.5386 17.982C21.5386 16.8491 22.4603 15.9275 23.5931 15.9275C24.726 15.9275 25.6476 16.8491 25.6476 17.982C25.6476 18.791 25.1698 19.5274 24.4303 19.858C24.1859 19.9673 24.0764 20.254 24.1857 20.4984C24.2662 20.6786 24.4431 20.7854 24.6285 20.7854C24.6947 20.7854 24.7618 20.7719 24.8261 20.7431C25.0968 20.6221 25.3436 20.464 25.5617 20.2766C26.8188 20.9843 27.6174 22.3336 27.6174 23.7871V25.4826C27.6174 25.8593 27.311 26.1657 26.9343 26.1657H26.6172V23.7644C26.6172 23.4967 26.4002 23.2796 26.1324 23.2796C25.8647 23.2796 25.6476 23.4967 25.6476 23.7644V30.6091C25.6476 30.8383 25.4611 31.0248 25.2319 31.0248H24.4937V31.025ZM27.2018 31.025H26.5534C26.5947 30.8937 26.6173 30.754 26.6173 30.6093V27.1354H26.9344C27.1779 27.1354 27.4091 27.0821 27.6175 26.9871V30.6093C27.6175 30.8385 27.431 31.025 27.2018 31.025ZM32.1266 25.4828C32.1266 25.8594 31.8202 26.1658 31.4435 26.1658H31.1264V23.7645C31.1264 23.4968 30.9093 23.2797 30.6416 23.2797C30.3738 23.2797 30.1568 23.4968 30.1568 23.7645V30.6093C30.1568 30.8385 29.9703 31.025 29.7411 31.025H29.0028C28.7736 31.025 28.5871 30.8385 28.5871 30.6093V25.4828V23.7872C28.5871 22.771 28.2725 21.7958 27.719 20.981C27.8452 20.9972 27.9731 21.0061 28.1023 21.0061C28.853 21.0061 29.5402 20.7305 30.0694 20.276C31.3273 20.9834 32.1266 22.3331 32.1266 23.7872V25.4828Z" fill="#03060E"/>
</svg>
