<svg width="33" height="32" viewBox="0 0 33 32" fill="none" xmlns="http://www.w3.org/2000/svg">
<path fill-rule="evenodd" clip-rule="evenodd" d="M2.86499 23.9897C2.90406 24.2573 2.71892 24.506 2.45125 24.5451C2.18365 24.5842 1.93496 24.399 1.89583 24.1313C1.85676 23.8637 2.04197 23.6151 2.30957 23.5759C2.57724 23.5368 2.82586 23.722 2.86499 23.9897ZM31.4035 9.43728L30.0319 10.2136C29.8444 10.3198 29.6367 10.3738 29.4264 10.3738C29.3151 10.3738 29.2032 10.3587 29.093 10.3282C28.7741 10.2398 28.5092 10.0333 28.347 9.74654L28.0453 9.21339L24.9937 10.9801C25.7346 12.458 26.1254 14.1011 26.1254 15.7647C26.1254 17.3803 25.7611 18.9653 25.0655 20.406C26.1139 20.4204 26.6064 21.0456 26.7734 21.3247C27.3225 22.2414 27.0528 23.5502 26.2076 24.0705L17.3361 29.5332C16.7192 29.9129 16.0445 30.1051 15.3462 30.1052C15.0009 30.1052 14.65 30.0582 14.2972 29.9637L8.06922 28.2949L7.34099 28.7153L7.71631 29.3785C8.0521 29.9718 7.84262 30.7276 7.24935 31.0634L5.87775 31.8397C5.69022 31.946 5.4826 32 5.27221 32C5.16095 32 5.04904 31.9849 4.9388 31.9543C4.61999 31.866 4.3551 31.6594 4.19282 31.3727L0.160334 24.2477C-0.00201161 23.961 -0.0426949 23.6275 0.0457104 23.3087C0.134116 22.99 0.340631 22.725 0.627351 22.5627L1.99896 21.7864C2.28561 21.624 2.61889 21.5834 2.93796 21.6719C3.25671 21.7602 3.52161 21.9668 3.68389 22.2535L3.98559 22.7866L6.37428 21.4036C5.31987 19.7126 4.7649 17.775 4.7649 15.7648C4.7649 14.1976 5.11355 12.6411 5.77507 11.2301C5.50353 11.0379 5.34041 10.814 5.25742 10.6754C4.70833 9.75868 4.97807 8.4499 5.82324 7.92954L14.6948 2.46689C15.6163 1.89945 16.6672 1.75067 17.7336 2.03629L23.9617 3.70514L24.6899 3.28468L24.3146 2.62155C23.9788 2.02822 24.1884 1.27228 24.7816 0.936551L26.1532 0.160276C26.4399 -0.00206899 26.7734 -0.042623 27.0921 0.0456531C27.4109 0.133994 27.6758 0.340574 27.8381 0.627294L31.8706 7.75241C32.2063 8.34574 31.9968 9.10154 31.4035 9.43728ZM9.44877 10.7853C8.28206 11.4649 7.41138 11.6419 6.77175 11.5841C7.55364 13.7153 8.87584 14.4814 9.59703 14.8992C9.8348 15.0369 10.0066 15.1364 10.1313 15.265C10.1689 15.3038 10.2126 15.3448 10.2589 15.3882C10.591 15.6998 11.0458 16.1265 11.0581 17.23C11.0736 18.615 11.3224 18.7839 11.6989 19.0395C12.0856 19.3021 12.6055 19.6554 12.9858 20.7955C13.5471 20.9897 14.149 21.184 14.7686 21.3473C14.9936 20.893 15.2997 20.5312 15.5982 20.1789C16.1123 19.5724 16.5563 19.0485 16.6305 18.0705C16.6357 18.0001 16.5832 17.8991 16.4824 17.7862C15.7875 17.0073 13.5564 16.3612 13.1974 16.3391C12.9389 16.3599 12.7317 16.3841 12.5484 16.4055C12.0358 16.4653 11.697 16.5048 11.3477 16.2872C11.0496 16.1016 10.86 15.7965 10.4822 15.1889L10.3752 15.0169C10.153 14.6606 9.88375 14.1306 10.1094 13.6437C10.3514 13.1218 10.9621 13.0326 11.501 12.9539C11.8468 12.9034 12.3204 12.8343 12.3523 12.6709C12.5555 11.6309 13.2592 11.2707 13.7731 11.0078C13.8892 10.9484 13.9988 10.8924 14.0916 10.8344C14.4676 10.5996 14.9822 10.493 15.4798 10.3898C15.6151 10.3618 15.7445 10.3347 15.8667 10.3062C15.1421 9.98715 14.6842 9.2863 14.684 8.53953C14.5765 8.4663 14.4863 8.39282 14.4068 8.32772C14.2679 8.21394 14.1801 8.14232 14.054 8.10274L9.44877 10.7853ZM18.7944 12.307C19.138 11.919 19.5381 11.7623 19.8915 11.8772C20.5151 12.0796 22.1142 12.118 22.5366 12.0779C22.5457 12.0657 22.5547 12.0515 22.5636 12.0364C22.3941 12.0632 22.2216 12.0783 22.0458 12.0783C21.7361 12.0784 21.4169 12.0325 21.0891 11.9263C20.777 11.8251 20.4109 11.6927 20.0233 11.5525C19.1574 11.2395 18.1264 10.8673 17.0519 10.5986C16.9374 10.8711 16.7244 11.1496 16.312 11.2605C16.1131 11.314 15.8977 11.3586 15.6894 11.4018C15.2999 11.4825 14.8581 11.574 14.639 11.7109C14.5087 11.7923 14.374 11.8612 14.2437 11.9278C13.7516 12.1795 13.4682 12.3474 13.3664 12.8691C13.1941 13.7509 12.2651 13.8867 11.6503 13.9764C11.4741 14.0021 11.1964 14.0426 11.0681 14.0934C11.0849 14.1557 11.1303 14.275 11.252 14.4701L11.3598 14.6434C11.5961 15.0235 11.8001 15.3518 11.894 15.4102C11.9363 15.4366 12.2094 15.4049 12.4287 15.3793C12.6148 15.3576 12.8464 15.3305 13.131 15.3079C13.6446 15.2692 16.1508 15.994 17.1566 16.9962C17.5215 17.3598 17.6912 17.7476 17.6607 18.1488C17.5612 19.461 16.9371 20.1975 16.3865 20.8471C16.1714 21.1009 15.9747 21.334 15.8181 21.5859C15.8456 21.591 15.873 21.5967 15.9005 21.6016C15.9233 21.6058 15.9459 21.6114 15.9681 21.6186C16.9677 21.9427 17.546 22.9604 17.2847 23.9357C17.2494 24.0674 17.2036 24.1909 17.1483 24.3056C17.3343 24.2471 17.5152 24.166 17.6937 24.0621L21.3484 21.9335C21.2844 21.7561 21.2732 21.5565 21.3248 21.3489C21.5306 20.5211 21.5006 20.1344 21.4659 19.6867C21.4495 19.4742 21.4324 19.2543 21.4382 18.9829C21.46 17.9507 21.312 17.5755 21.1839 17.4425C21.0622 17.3161 20.8065 17.3053 20.3994 17.2984C19.9988 17.2916 19.5002 17.2831 18.9766 17.091C18.9396 17.0773 18.9042 17.0596 18.8712 17.038C16.9966 15.8089 17.7828 14.5707 18.2052 13.9055C18.3266 13.7142 18.5299 13.394 18.4906 13.3094C18.3158 12.9329 18.6059 12.5198 18.7944 12.307ZM7.26982 20.885L7.55015 20.7227C8.50763 20.1684 9.65922 19.6575 10.9418 20.0738C11.1391 20.1378 11.3581 20.2143 11.5903 20.2972C11.4391 20.112 11.281 20.0046 11.1186 19.8944C10.4909 19.4682 10.0451 19.0285 10.025 17.2415C10.0176 16.5785 9.81214 16.3858 9.55202 16.1417C9.49907 16.092 9.44424 16.0406 9.38968 15.9843C9.3539 15.9523 9.20157 15.8641 9.07919 15.7932C8.41341 15.4076 7.15081 14.6749 6.22988 12.9108C5.94568 13.8315 5.79806 14.7958 5.79806 15.7646C5.79812 17.5916 6.30634 19.3515 7.26982 20.885ZM6.81714 29.8874L2.78472 22.7624C2.74785 22.6972 2.67733 22.66 2.60585 22.66C2.57227 22.66 2.53849 22.6682 2.50782 22.6856L1.13621 23.4619C1.07338 23.4975 1.04981 23.5541 1.04135 23.5846C1.03283 23.6153 1.02392 23.6759 1.05943 23.7387L5.09185 30.8638C5.1461 30.9596 5.27292 30.9947 5.36869 30.9405L6.7403 30.1642C6.83619 30.11 6.87139 29.9832 6.81714 29.8874ZM12.849 24.7247C12.509 24.6276 12.1575 24.5272 11.7998 24.4314C11.5242 24.3576 11.3606 24.0743 11.4345 23.7987C11.5084 23.5231 11.7917 23.3597 12.0672 23.4334C12.4331 23.5314 12.7888 23.633 13.1327 23.7312C13.8531 23.937 14.5341 24.1312 15.249 24.2785C15.6402 24.3228 16.1306 24.2504 16.2866 23.6683C16.405 23.2263 16.1447 22.7772 15.679 22.6115C14.2086 22.3419 12.7944 21.8307 11.6563 21.4192C11.2606 21.2762 10.9188 21.1526 10.6231 21.0567C9.72864 20.7667 8.86661 21.1546 8.06793 21.6169L4.49452 23.6858L6.83212 27.8162L7.73794 27.2932C7.85657 27.2246 7.9976 27.206 8.12992 27.2415L14.5647 28.9657C15.3609 29.1792 16.1111 29.0741 16.7944 28.6534L25.6659 23.1907C26.0354 22.9634 26.147 22.2895 25.8871 21.8556C25.6264 21.4202 25.0561 21.3271 24.2851 21.5662C24.269 21.5721 24.2526 21.5779 24.236 21.5821C23.8932 21.6935 23.5124 21.8686 23.1021 22.1075L18.2136 24.9548C17.4461 25.4017 16.6215 25.5467 15.6927 25.3981L15.0847 25.2993M25.0922 15.7647C25.0922 14.2797 24.7477 12.813 24.0941 11.4909C23.9636 11.5593 23.8297 11.6247 23.6931 11.6858C23.6971 11.889 23.6567 12.1044 23.5706 12.3192C23.5118 12.4658 23.2873 12.9528 22.8666 13.0682C22.4757 13.1753 20.5707 13.1374 19.6741 12.8903C19.6176 12.9324 19.5463 13.0109 19.4995 13.0777C19.6257 13.5954 19.3248 14.0694 19.0773 14.4591C18.6436 15.1422 18.4222 15.4909 19.3863 16.1395C19.729 16.2533 20.0785 16.2593 20.417 16.2651C20.926 16.2738 21.5028 16.2837 21.9284 16.7258C22.3282 17.1413 22.4956 17.844 22.4711 19.0044C22.4665 19.225 22.4808 19.4104 22.496 19.6067C22.5305 20.0516 22.5653 20.5113 22.3901 21.3265L22.5821 21.2146C23.0151 20.9624 23.4071 20.7798 23.762 20.6523C24.632 19.175 25.0922 17.4897 25.0922 15.7647ZM27.5363 8.31423L25.1988 4.18391L24.2929 4.70692C24.1742 4.77543 24.0331 4.7939 23.9009 4.75851L17.4661 3.03432C16.6697 2.82089 15.9196 2.92609 15.2364 3.34674L6.36491 8.8094C5.99547 9.03677 5.88388 9.71063 6.14374 10.1445C6.24538 10.3143 6.39449 10.4315 6.58376 10.4978C6.60811 10.5035 6.63232 10.5107 6.65615 10.5201C7.17877 10.6605 7.97468 10.4482 8.92873 9.89254L13.8172 7.04517C14.5847 6.59836 15.4094 6.45339 16.338 6.60192L16.9462 6.70078C16.9498 6.70136 18.4347 7.06196 19.1822 7.27538C19.522 7.37244 19.8734 7.4728 20.231 7.56856C20.5066 7.64244 20.6702 7.92567 20.5963 8.20128C20.5344 8.43208 20.3257 8.58435 20.0976 8.58435C20.0533 8.58435 20.0083 8.5786 19.9636 8.56666C19.5978 8.46863 19.2423 8.36712 18.8984 8.26896C18.1778 8.06315 17.4967 7.86884 16.7817 7.72161C16.3902 7.67699 15.9002 7.74976 15.7443 8.33179C15.6258 8.77382 15.8861 9.22288 16.3518 9.38865C17.8223 9.65819 19.2364 10.1694 20.3745 10.5809C20.7703 10.724 21.112 10.8476 21.4078 10.9435C22.3021 11.2337 23.1643 10.8456 23.9629 10.3832L27.5363 8.31423ZM30.9714 8.26121L26.9389 1.13616C26.8847 1.04033 26.7579 1.00526 26.6621 1.05944L25.2905 1.83571C25.1947 1.88996 25.1595 2.01679 25.2138 2.11262L29.2461 9.23767C29.3004 9.33344 29.4273 9.36857 29.523 9.31439L30.8946 8.53811C30.9905 8.48394 31.0256 8.35711 30.9714 8.26121ZM29.5796 7.45497C29.3119 7.49411 29.1267 7.74279 29.1659 8.01039C29.205 8.278 29.4536 8.46321 29.7213 8.42407C29.9889 8.38494 30.1741 8.13632 30.135 7.86865C30.0958 7.60104 29.8471 7.41584 29.5796 7.45497Z" fill="#03060E"/>
</svg>
