<svg width="48" height="48" viewBox="0 0 48 48" fill="none" xmlns="http://www.w3.org/2000/svg">
<path d="M24 48C17.5875 48 11.5594 45.5063 7.03125 40.9688C2.49375 36.4406 0 30.4125 0 24C0 17.5875 2.49375 11.5594 7.03125 7.03125C11.5688 2.50313 17.5875 0 24 0C24.6281 0 25.275 0.065625 25.8938 0.121875C26.025 0.13125 26.1656 0.15 26.2969 0.159375C26.5406 0.178125 26.7188 0.384375 26.7188 0.628125C26.7188 0.871875 26.5406 1.06875 26.2969 1.09687C17.625 1.9875 10.7438 8.60625 9.55313 17.1844L8.625 17.0531C9.225 12.7219 11.3062 8.65312 14.4844 5.59688C16.6687 3.49688 19.3219 1.92188 22.1906 1.00312C10.3125 1.93125 0.9375 11.8875 0.9375 24C0.9375 36.7125 11.2875 47.0625 24 47.0625C36.1031 47.0625 46.0594 37.6875 46.9875 25.8281C44.4469 33.8813 36.9656 39.5625 28.2188 39.5625C23.4844 39.5625 18.9 37.8656 15.3187 34.7812C11.775 31.725 9.4125 27.5156 8.68125 22.9219L9.60938 22.7719C11.0719 31.9594 18.9 38.625 28.2188 38.625C37.8656 38.625 45.8812 31.3781 46.875 21.7687C46.9031 21.5344 47.1 21.3469 47.3438 21.3469C47.5875 21.3469 47.7844 21.5344 47.8125 21.7687C47.8313 21.9844 47.8594 22.2 47.8781 22.4156C47.9344 22.9219 48 23.4469 48 23.9906C48 30.4031 45.5063 36.4313 40.9688 40.9594C36.4406 45.5063 30.4125 48 24 48Z" fill="#4E4E4E"/>
<path d="M38.9062 34.2559H37.9688V26.5684H14.5312V32.8871H13.5938V26.0996C13.5938 25.8371 13.8 25.6309 14.0625 25.6309H38.4375C38.7 25.6309 38.9062 25.8371 38.9062 26.0996V34.2559Z" fill="#4E4E4E"/>
<path d="M20.1562 26.5684H16.4062C16.1438 26.5684 15.9375 26.3621 15.9375 26.0996V20.4746C15.9375 20.2121 16.1438 20.0059 16.4062 20.0059H20.1562C20.4187 20.0059 20.625 20.2121 20.625 20.4746V26.0996C20.625 26.3621 20.4187 26.5684 20.1562 26.5684ZM16.875 25.6309H19.6875V20.9434H16.875V25.6309Z" fill="#4E4E4E"/>
<path d="M20.1562 19.0684H16.4062C16.1438 19.0684 15.9375 18.8621 15.9375 18.5996V12.9746C15.9375 12.7121 16.1438 12.5059 16.4062 12.5059H20.1562C20.4187 12.5059 20.625 12.7121 20.625 12.9746V18.5996C20.625 18.8621 20.4187 19.0684 20.1562 19.0684ZM16.875 18.1309H19.6875V13.4434H16.875V18.1309Z" fill="#4E4E4E"/>
<path d="M20.8125 20.9434H15.75C15.4875 20.9434 15.2812 20.7371 15.2812 20.4746V18.5996C15.2812 18.3371 15.4875 18.1309 15.75 18.1309H20.8125C21.075 18.1309 21.2812 18.3371 21.2812 18.5996V20.4746C21.2812 20.7371 21.075 20.9434 20.8125 20.9434ZM16.2188 20.0059H20.3438V19.0684H16.2188V20.0059Z" fill="#4E4E4E"/>
<path d="M20.8125 13.4434H15.75C15.4875 13.4434 15.2812 13.2371 15.2812 12.9746V11.0996C15.2812 10.8371 15.4875 10.6309 15.75 10.6309H20.8125C21.075 10.6309 21.2812 10.8371 21.2812 11.0996V12.9746C21.2812 13.2371 21.075 13.4434 20.8125 13.4434ZM16.2188 12.5059H20.3438V11.5684H16.2188V12.5059Z" fill="#4E4E4E"/>
<path d="M20.1562 11.5684H16.4062C16.1438 11.5684 15.9375 11.3621 15.9375 11.0996C15.9375 9.80586 16.9875 8.75586 18.2812 8.75586C19.575 8.75586 20.625 9.80586 20.625 11.0996C20.625 11.3621 20.4187 11.5684 20.1562 11.5684ZM16.9594 10.6309H19.6125C19.4156 10.0871 18.9 9.69336 18.2906 9.69336C17.6813 9.69336 17.1469 10.0871 16.9594 10.6309Z" fill="#4E4E4E"/>
<path d="M17.8125 6.43945H18.75V9.25195H17.8125V6.43945Z" fill="#4E4E4E"/>
<path d="M36.0938 26.5684H22.5C22.2375 26.5684 22.0312 26.3621 22.0312 26.0996C22.0312 22.0965 25.2937 18.834 29.2969 18.834C33.3 18.834 36.5625 22.0965 36.5625 26.0996C36.5625 26.3621 36.3562 26.5684 36.0938 26.5684ZM22.9875 25.6309H35.6062C35.3625 22.359 32.625 19.7715 29.2969 19.7715C25.9688 19.7715 23.2219 22.359 22.9875 25.6309Z" fill="#4E4E4E"/>
<path d="M17.8125 15.8145H18.75V18.627H17.8125V15.8145Z" fill="#4E4E4E"/>
<path d="M17.8125 23.3145H18.75V26.127H17.8125V23.3145Z" fill="#4E4E4E"/>
<path d="M27.4219 39.0277H26.4844V33.1309C26.4844 31.584 27.75 30.3184 29.2969 30.3184C30.8438 30.3184 32.1094 31.584 32.1094 33.1309V38.7652H31.1719V33.1309C31.1719 32.0996 30.3281 31.2559 29.2969 31.2559C28.2656 31.2559 27.4219 32.0996 27.4219 33.1309V39.0277Z" fill="#4E4E4E"/>
<path d="M36.5625 37.3871H35.625V33.1309C35.625 31.584 36.8906 30.3184 38.4375 30.3184V31.2559C37.4062 31.2559 36.5625 32.0996 36.5625 33.1309V37.3871Z" fill="#4E4E4E"/>
<path d="M22.9688 38.2027H22.0312V33.1309C22.0312 32.0996 21.1875 31.2559 20.1562 31.2559C19.125 31.2559 18.2812 32.0996 18.2812 33.1309V36.0277H17.3438V33.1309C17.3438 31.584 18.6094 30.3184 20.1562 30.3184C21.7031 30.3184 22.9688 31.584 22.9688 33.1309V38.2027Z" fill="#4E4E4E"/>
<path d="M28.7812 16.5645H29.7188V19.377H28.7812V16.5645Z" fill="#4E4E4E"/>
<path d="M40.7529 16.6582C40.6591 16.6582 40.5747 16.6301 40.4904 16.5832L38.4372 15.2051L36.3841 16.5738C36.2247 16.6863 36.0091 16.677 35.8497 16.5645C35.6904 16.452 35.6247 16.2457 35.6716 16.0582L36.3372 13.677L34.3966 12.1582C34.2466 12.0363 34.181 11.8301 34.2372 11.6426C34.2935 11.4551 34.4716 11.3238 34.6685 11.3145L37.1435 11.2207L37.9966 8.90508C38.0622 8.71758 38.2404 8.5957 38.4372 8.5957C38.6341 8.5957 38.8122 8.71758 38.8779 8.90508L39.731 11.2207L42.206 11.3145C42.4029 11.3238 42.5716 11.4551 42.6372 11.6426C42.7029 11.8301 42.6372 12.0363 42.4779 12.1582L40.5372 13.6863L41.2029 16.0676C41.2591 16.2551 41.1841 16.4613 41.0247 16.5738C40.9497 16.6301 40.856 16.6582 40.7529 16.6582ZM38.4372 14.1738C38.531 14.1738 38.6154 14.202 38.6997 14.2488L39.9654 15.0926L39.5529 13.6301C39.506 13.452 39.5622 13.2551 39.7122 13.1332L40.9029 12.1957L39.3841 12.1395C39.1966 12.1301 39.0279 12.0082 38.9622 11.8301L38.4372 10.4051L37.9122 11.8301C37.8466 12.0082 37.6779 12.1301 37.4904 12.1395L35.9716 12.1957L37.1622 13.1332C37.3122 13.2551 37.3779 13.4426 37.3216 13.6301L36.9091 15.0926L38.1747 14.2488C38.2591 14.202 38.3435 14.1738 38.4372 14.1738Z" fill="#4E4E4E"/>
<path d="M12.6279 22.0957C12.5341 22.0957 12.4497 22.0676 12.3654 22.0207L10.3122 20.6426L8.25912 22.0113C8.09974 22.1238 7.88412 22.1145 7.72474 22.002C7.56537 21.8895 7.49974 21.6832 7.54662 21.4957L8.21224 19.1145L6.27162 17.5957C6.12162 17.4738 6.05599 17.2676 6.11224 17.0801C6.16849 16.8926 6.34662 16.7613 6.54349 16.752L9.01849 16.6582L9.87162 14.3426C9.93724 14.1551 10.1154 14.0332 10.3122 14.0332C10.5091 14.0332 10.6872 14.1551 10.7529 14.3426L11.606 16.6582L14.081 16.752C14.2779 16.7613 14.4466 16.8926 14.5122 17.0801C14.5779 17.2676 14.5122 17.4738 14.3529 17.5957L12.4122 19.1238L13.0779 21.5051C13.1341 21.6926 13.0591 21.8988 12.8997 22.0113C12.8247 22.0676 12.731 22.0957 12.6279 22.0957ZM10.3122 19.6113C10.406 19.6113 10.4904 19.6395 10.5747 19.6863L11.8404 20.5301L11.4279 19.0676C11.381 18.8895 11.4372 18.6926 11.5872 18.5707L12.7779 17.6332L11.2591 17.577C11.0716 17.5676 10.9029 17.4457 10.8372 17.2676L10.3122 15.8426L9.78724 17.2676C9.72162 17.4457 9.55287 17.5676 9.36537 17.577L7.84662 17.6332L9.03724 18.5707C9.18724 18.6926 9.25287 18.8801 9.19662 19.0676L8.78412 20.5301L10.0497 19.6863C10.1341 19.6395 10.2185 19.6113 10.3122 19.6113Z" fill="#4E4E4E"/>
</svg>
