<svg width="48" height="48" viewBox="0 0 48 48" fill="none" xmlns="http://www.w3.org/2000/svg">
<path d="M47.79 41.2586C48.0075 40.9286 48.0525 40.5162 47.9175 40.1562C47.4001 38.7764 46.2978 37.4042 45.1055 36.6618C45.023 36.3918 44.858 36.1444 44.603 35.9794C43.4257 35.1845 42.0534 34.6896 40.6436 34.5546C40.2462 34.5096 39.8638 34.6746 39.6088 34.967C38.0641 34.5846 37.6441 33.5947 37.5916 32.1325C39.7213 31.1651 41.3935 28.9905 42.0459 26.2759H42.0609C43.4857 26.2759 44.6405 25.1211 44.6405 23.6963C44.6405 22.519 43.8531 21.5291 42.7733 21.2142C42.9383 19.287 42.6158 17.8622 41.7835 16.9923C41.0561 16.235 40.1487 16.1 39.6013 16.1H39.5938C39.0164 14.9152 37.8466 14.4352 36.8117 14.2403V2.06218C36.8117 0.922356 35.8894 0 34.7496 0H2.06218C0.922356 0 0 0.922356 0 2.06218V34.7571C0 35.8969 0.922356 36.8192 2.06218 36.8192H25.3535C23.4863 38.319 22.279 40.6212 22.279 43.2007V47.4376C22.279 47.745 22.534 48 22.8414 48C23.1489 48 23.4038 47.745 23.4038 47.4376V43.2007C23.4038 39.3089 26.5683 36.1444 30.4602 36.1444C31.6676 36.1444 32.7699 35.3945 33.2048 34.2696C33.3548 33.8722 33.5198 33.3773 33.6697 32.4924C34.1347 32.6124 34.6146 32.6724 35.1095 32.6724C35.5744 32.6724 36.0319 32.6124 36.4743 32.5074C36.5868 33.9322 37.1042 35.387 39.0464 35.9794C38.0191 37.8016 35.372 40.8011 28.908 41.9559V41.881C28.908 41.5735 28.653 41.3185 28.3456 41.3185C28.0381 41.3185 27.7832 41.5735 27.7832 41.881V46.5752V47.4226C27.7832 47.73 28.0381 47.985 28.3456 47.985C28.653 47.985 28.908 47.73 28.908 47.4226V47.0402C38.9939 46.1553 43.5307 40.0662 44.8505 37.8391C45.8103 38.5665 46.5377 39.6763 46.8527 40.5312C46.8677 40.5612 46.8602 40.5987 46.8377 40.6287C46.6877 40.8536 46.4927 41.1386 46.2603 41.4535C45.1429 42.9383 42.7058 45.6229 38.9339 46.8902C38.6415 46.9877 38.484 47.3101 38.5815 47.6026C38.664 47.835 38.8814 47.985 39.1139 47.985C39.1739 47.985 39.2339 47.9775 39.2939 47.955C42.8408 46.7627 45.2704 44.4831 46.7702 42.6158C46.7852 42.8108 46.8077 42.9983 46.8077 43.1932V47.4301C46.8077 47.7375 47.0626 47.9925 47.3701 47.9925C47.6775 47.9925 47.9325 47.7375 47.9325 47.4301V43.1932C47.9325 42.5708 47.85 41.9559 47.7075 41.3485C47.745 41.326 47.7675 41.2885 47.79 41.2586ZM43.5157 23.6813C43.5157 24.4237 42.9608 25.0236 42.2484 25.1211C42.3084 24.6711 42.3459 24.2212 42.3534 23.7488C42.4734 23.2539 42.5633 22.7889 42.6383 22.339C43.1483 22.564 43.5157 23.0814 43.5157 23.6813ZM38.694 16.8499C38.7839 17.1198 39.0614 17.2773 39.3389 17.2248C39.3464 17.2248 40.3137 17.0598 40.9736 17.7497C41.4235 18.2222 41.836 19.182 41.6635 21.1317C41.2361 20.4043 40.6212 19.8569 39.8413 19.5494C38.364 18.9645 36.5568 19.3545 35.117 20.5468C33.6772 19.3545 31.87 18.9645 30.3927 19.5494C29.5529 19.8794 28.908 20.4943 28.4805 21.3117C28.3456 20.1119 28.4206 18.6271 29.2304 17.4423C30.2428 15.965 32.2225 15.2151 35.117 15.2151C37.1867 15.2226 38.3265 15.74 38.694 16.8499ZM25.7285 32.6424V30.7152H30.0103V32.6424H25.7285ZM20.3218 32.6424V30.7152H24.6037V32.6424H20.3218ZM17.6222 32.6424V30.7152H19.197V32.6424H17.6222ZM23.0289 27.6632H27.3107V29.5904H23.0289V27.6632ZM21.9041 29.5904H17.6222V27.6632H21.9041V29.5904ZM28.4356 29.5904V27.6632H28.6305C28.908 28.3606 29.2604 29.0055 29.6654 29.5904H28.4356ZM17.6222 26.5384V19.5944C17.6222 18.6646 16.8649 17.9072 15.935 17.9072H7.09389C6.16404 17.9072 5.40666 18.6646 5.40666 19.5944V26.5384H1.12482V10.2209H35.6869V12.0356H30.7902C30.0703 12.0356 29.4779 12.628 29.4779 13.3479V14.7802C29.4779 15.0277 29.5604 15.2526 29.6879 15.4551C29.1329 15.8375 28.6605 16.2875 28.2931 16.8199C27.3407 18.2147 27.2132 19.8794 27.3332 21.2367C26.3059 21.5891 25.586 22.5565 25.586 23.6813C25.586 25.1061 26.7483 26.2609 28.1731 26.2609H28.1806C28.2031 26.3509 28.2256 26.4484 28.2481 26.5384H17.6222ZM5.40666 29.5904H1.12482V27.6632H5.40666V29.5904ZM1.12482 30.7152H5.40666V32.6424H1.12482V30.7152ZM1.12482 7.28886H35.6869V9.10358H1.12482V7.28886ZM27.8731 23.7638C27.8731 24.2287 27.9181 24.6786 27.9781 25.1211C27.2657 25.0236 26.7108 24.4162 26.7108 23.6813C26.7108 23.1189 27.0258 22.624 27.4982 22.384C27.6332 23.0364 27.7982 23.5388 27.8731 23.7638ZM35.1095 14.0978C33.3248 14.0978 31.8475 14.3753 30.6627 14.9077C30.6252 14.8702 30.6027 14.8327 30.6027 14.7802V13.3479C30.6027 13.2429 30.6852 13.1604 30.7902 13.1604H35.6869V14.1053C35.462 14.0978 35.2595 14.0978 35.1095 14.0978ZM2.06218 1.12482H34.7496C35.267 1.12482 35.6869 1.54476 35.6869 2.06218V6.16404H1.12482V2.06218C1.12482 1.54476 1.54476 1.12482 2.06218 1.12482ZM2.06218 35.6944C1.54476 35.6944 1.12482 35.2745 1.12482 34.7571V33.7672H5.40666V35.6944H2.06218ZM6.53148 19.5944C6.53148 19.287 6.78644 19.032 7.09389 19.032H15.935C16.2425 19.032 16.4974 19.287 16.4974 19.5944V27.1008V30.1528V33.2048V35.6944H6.53148V19.5944ZM17.6222 35.6944V33.7672H21.9041V35.6944H17.6222ZM23.0289 35.6944V33.7672H27.3107V35.6494C27.2807 35.6644 27.2432 35.6794 27.2132 35.6944H23.0289ZM30.4602 35.0195C29.7628 35.0195 29.0805 35.117 28.4356 35.282V33.7672H32.1925C32.1775 33.7972 32.17 33.8347 32.155 33.8647C31.8925 34.5546 31.2101 35.0195 30.4602 35.0195ZM32.4999 32.6424H31.1426V31.1876C31.5926 31.5551 32.0875 31.8625 32.5974 32.1025C32.5599 32.305 32.5299 32.4774 32.4999 32.6424ZM31.2476 29.7703C31.2401 29.7628 31.2326 29.7554 31.2251 29.7404C30.4977 28.968 29.9203 27.9931 29.5304 26.8758C29.2004 25.9234 29.0055 24.8736 28.998 23.7638C28.998 23.7488 28.9905 23.7413 28.9905 23.7263C28.9905 23.7113 28.998 23.7038 28.998 23.6963C29.058 22.129 29.7029 21.0267 30.7977 20.5918C31.9975 20.1119 33.5348 20.5468 34.7121 21.7016C34.9295 21.9191 35.282 21.9191 35.4995 21.7016C36.6768 20.5468 38.214 20.1119 39.4138 20.5918C40.5087 21.0267 41.1461 22.129 41.2136 23.6888C41.2061 28.0231 38.469 31.5401 35.102 31.5401C33.6472 31.5476 32.305 30.8802 31.2476 29.7703ZM44.0181 37.0667C42.9533 38.9414 38.7389 45.023 28.9155 45.9228V43.0958C36.1594 41.851 39.0464 38.364 40.1262 36.3618C40.2537 36.1219 40.3512 35.9119 40.4262 35.7394C40.4487 35.6944 40.4862 35.6644 40.5312 35.6569C41.7535 35.7769 42.9458 36.2043 43.9731 36.8942C44.0256 36.9392 44.0481 37.0067 44.0181 37.0667Z" fill="#4E4E4E"/>
<path d="M9.65858 12.0352H4.24442C3.52454 12.0352 2.93213 12.6276 2.93213 13.3475V14.7797C2.93213 15.4996 3.52454 16.092 4.24442 16.092H9.65858C10.3785 16.092 10.9709 15.4996 10.9709 14.7797V13.3475C10.9709 12.6201 10.386 12.0352 9.65858 12.0352ZM9.84605 14.7797C9.84605 14.8847 9.76356 14.9672 9.65858 14.9672H4.24442C4.13944 14.9672 4.05695 14.8847 4.05695 14.7797V13.3475C4.05695 13.2425 4.13944 13.16 4.24442 13.16H9.65858C9.76356 13.16 9.84605 13.2425 9.84605 13.3475V14.7797Z" fill="#4E4E4E"/>
<path d="M16.6472 12.0352H14.0901C13.3702 12.0352 12.7778 12.6276 12.7778 13.3475V14.7797C12.7778 15.4996 13.3702 16.092 14.0901 16.092H16.6472C17.3671 16.092 17.9595 15.4996 17.9595 14.7797V13.3475C17.9595 12.6201 17.3746 12.0352 16.6472 12.0352ZM16.8347 14.7797C16.8347 14.8847 16.7522 14.9672 16.6472 14.9672H14.0901C13.9851 14.9672 13.9027 14.8847 13.9027 14.7797V13.3475C13.9027 13.2425 13.9851 13.16 14.0901 13.16H16.6472C16.7522 13.16 16.8347 13.2425 16.8347 13.3475V14.7797Z" fill="#4E4E4E"/>
<path d="M27.6634 14.7797V13.3475C27.6634 12.6276 27.0709 12.0352 26.3511 12.0352H21.0794C20.3595 12.0352 19.7671 12.6276 19.7671 13.3475V14.7797C19.7671 15.4996 20.3595 16.092 21.0794 16.092H26.3511C27.0784 16.092 27.6634 15.4996 27.6634 14.7797ZM20.8919 14.7797V13.3475C20.8919 13.2425 20.9744 13.16 21.0794 13.16H26.3511C26.456 13.16 26.5385 13.2425 26.5385 13.3475V14.7797C26.5385 14.8847 26.456 14.9672 26.3511 14.9672H21.0794C20.9744 14.9672 20.8919 14.8847 20.8919 14.7797Z" fill="#4E4E4E"/>
</svg>
