<svg width="35" height="40" viewBox="0 0 35 40" fill="none" xmlns="http://www.w3.org/2000/svg">
<path d="M17.3336 40C17.1115 40 16.8912 39.9649 16.6801 39.896L0.870826 34.7628C0.351039 34.5911 3.3956e-06 34.1051 3.3956e-06 33.5579V6.44564C-0.00126541 5.8954 0.353154 5.40776 0.876747 5.23859L16.6801 0.102471C17.1102 -0.0358284 17.5734 -0.0341366 18.0026 0.107546L33.3903 5.2369C33.9084 5.40945 34.2577 5.89456 34.2577 6.44057V33.5528C34.2585 34.1026 33.9045 34.5907 33.3814 34.7598L18.0026 39.8909C17.7869 39.9628 17.5611 40 17.3336 40ZM17.3336 0.84599C17.2003 0.84599 17.0679 0.866714 16.9415 0.907739L1.13812 6.04301C0.963871 6.09968 0.845872 6.26209 0.845872 6.44564V33.5579C0.845872 33.7401 0.962179 33.9017 1.13516 33.9592L16.9411 39.0915C17.1991 39.1757 17.4773 39.1744 17.7349 39.0882L33.1158 33.9563C33.2921 33.9009 33.4118 33.7376 33.4118 33.5528V6.44268C33.4118 6.2604 33.2955 6.09884 33.1225 6.04132L17.7349 0.910276C17.6055 0.86756 17.4697 0.845567 17.3336 0.84599Z" fill="white"/>
<path d="M22.8385 38.2537C22.6058 38.252 22.4172 38.0634 22.4155 37.8308V28.7131C22.4155 28.1667 22.7653 27.6816 23.2838 27.5091L28.0693 25.9163C28.5172 25.7721 28.9972 26.0178 29.1415 26.4657C29.1677 26.5473 29.1816 26.6327 29.1825 26.7186V35.854C29.1825 36.0358 29.0662 36.1974 28.8936 36.2549L22.9725 38.23C22.9294 38.2452 22.8841 38.2533 22.8385 38.2537ZM28.3366 26.7173L23.5507 28.3118C23.3777 28.3693 23.2614 28.5309 23.2614 28.7131V37.2437L28.3366 35.552V26.7173Z" fill="white"/>
<path d="M17.3344 12.0793C17.1068 12.0793 16.8806 12.0429 16.6645 11.9714L0.292236 6.65514L0.55361 5.85156L16.9292 11.1678C17.194 11.2558 17.4799 11.2554 17.7442 11.1657L33.7011 5.85156L33.9684 6.65514L18.017 11.968C17.7971 12.0425 17.5666 12.0801 17.3344 12.0793Z" fill="white"/>
<path d="M17.3344 16.3097C17.1068 16.3097 16.8806 16.2734 16.6645 16.2019L0.292236 10.8856L0.55361 10.082L16.9292 15.3983C17.194 15.4863 17.4799 15.4859 17.7442 15.3962L33.7011 10.082L33.9684 10.8856L18.017 16.1985C17.7971 16.2729 17.5666 16.3106 17.3344 16.3097Z" fill="white"/>
<path d="M17.3344 21.3859C17.1068 21.3859 16.8806 21.3495 16.6645 21.2781L0.292236 15.9618L0.55361 15.1582L16.9292 20.4745C17.194 20.5625 17.4799 20.562 17.7442 20.4724L33.7011 15.1582L33.9684 15.9618L18.017 21.2747C17.7971 21.3491 17.5666 21.3868 17.3344 21.3859Z" fill="white"/>
<path d="M17.3319 19.6943C16.708 19.6414 16.096 19.4934 15.5175 19.2548C15.3436 19.1982 15.2256 19.0362 15.2256 18.8531V17.0725C15.2256 16.839 15.4147 16.6496 15.6486 16.6496C15.693 16.6496 15.7374 16.6568 15.7797 16.6703L17.1923 17.1313C17.2832 17.1639 17.3826 17.1639 17.4735 17.1313L18.8988 16.6576C19.1204 16.584 19.3598 16.7041 19.4334 16.9257C19.4478 16.9689 19.455 17.0141 19.455 17.0594V18.8442C19.455 19.0269 19.3383 19.1889 19.1649 19.246C18.5808 19.4896 17.9625 19.6406 17.3319 19.6943ZM16.0715 18.546C16.6712 18.771 17.4173 18.9799 18.0107 18.7363L18.6091 18.5384V17.646C18.1329 17.7839 17.4249 18.1506 16.925 17.9336L16.0715 17.6553V18.546ZM11.4192 17.9015C11.3748 17.9015 11.3313 17.8943 11.289 17.8807L8.32843 16.9207C8.15375 16.864 8.03576 16.7016 8.03576 16.518V14.7417C8.03829 14.5061 8.23115 14.3175 8.46673 14.32C8.50817 14.3205 8.54962 14.3272 8.58938 14.3395L11.5499 15.2996C11.7242 15.3562 11.8422 15.5186 11.8422 15.7018V17.4781C11.8409 17.7111 11.6523 17.8998 11.4192 17.9015ZM8.88162 16.2097L10.9963 16.8957V16.0076L8.88162 15.322V16.2097ZM23.2614 17.8541C23.0284 17.8524 22.8402 17.6642 22.8385 17.4312V15.651C22.8385 15.4687 22.9548 15.3072 23.1278 15.2497L26.0883 14.2646C26.312 14.1923 26.5518 14.3145 26.6241 14.5383C26.6377 14.5797 26.6445 14.6224 26.6449 14.666V16.4466C26.6449 16.6284 26.5281 16.79 26.3556 16.8475L23.395 17.8329C23.3519 17.8473 23.3067 17.8549 23.2614 17.8549V17.8541ZM23.6843 15.9551V16.8433L25.799 16.1391V15.2509L23.6843 15.9551ZM3.80641 15.4315C3.762 15.4315 3.71802 15.4248 3.67572 15.4108L0.292248 14.3112C0.117999 14.2545 0 14.0921 0 13.909V12.1326C0.00253761 11.8971 0.195396 11.7084 0.43097 11.711C0.472418 11.7114 0.513865 11.7182 0.553621 11.7304L3.9371 12.83C4.11135 12.8867 4.22934 13.0491 4.22934 13.2323V15.0086C4.22808 15.2416 4.03945 15.4302 3.80641 15.4315ZM0.845869 13.6015L3.38348 14.4262V13.538L0.845869 12.7133V13.6015ZM30.8742 15.3173C30.6416 15.3156 30.453 15.127 30.4513 14.8944V13.1181C30.4513 12.9362 30.568 12.7746 30.7406 12.7171L33.7011 11.7317C33.9248 11.6594 34.1651 11.7824 34.237 12.0062C34.2501 12.0468 34.2568 12.0895 34.2577 12.1322V13.9145C34.2577 14.0967 34.141 14.2587 33.968 14.3162L31.0074 15.2974C30.9643 15.311 30.9195 15.3177 30.8742 15.3173ZM31.2972 13.423V14.3086L33.4118 13.6074V12.7192L31.2972 13.423Z" fill="white"/>
</svg>
