<svg width="56" height="57" viewBox="0 0 56 57" fill="none" xmlns="http://www.w3.org/2000/svg">
<path d="M38.2879 46.3781C35.7109 46.3781 33.5077 45.6225 31.94 44.0548C27.5094 39.6242 29.5503 30.136 36.7931 21.4937C37.5504 20.5922 38.6649 20.0453 39.8523 19.9931C41.0521 19.95 42.2287 20.3966 43.0755 21.2434L43.9323 22.101C44.2637 22.4325 44.2637 22.9702 43.9323 23.3009C43.6008 23.6323 43.0639 23.6323 42.7325 23.3009L41.8757 22.4433C41.3636 21.932 40.6543 21.6536 39.926 21.6892C39.2026 21.7207 38.5514 22.0381 38.0931 22.5841C31.5364 30.4077 29.4069 39.1221 33.1398 42.8549C36.8668 46.582 45.577 44.4508 53.4023 37.8999C53.9517 37.4384 54.2715 36.7863 54.303 36.0638C54.3345 35.3371 54.0577 34.6253 53.5424 34.1099L52.6856 33.2531C52.3541 32.9217 52.3541 32.3848 52.6856 32.0533C53.017 31.7219 53.554 31.7219 53.8854 32.0533L54.7422 32.9101C55.5931 33.7611 56.0505 34.9369 55.9983 36.1375C55.9469 37.3232 55.3984 38.4393 54.4928 39.2C48.9121 43.8716 42.981 46.3781 38.2879 46.3781Z" fill="#374868"/>
<path d="M51.7874 34.1257C50.9919 34.1257 50.2454 33.8141 49.6869 33.2498C49.1309 32.7005 48.8202 31.9581 48.8177 31.1667C48.8152 30.3721 49.1251 29.6231 49.6902 29.058C50.2454 28.497 50.9911 28.1863 51.7866 28.1863C52.5829 28.1863 53.3294 28.497 53.8879 29.0605C54.4497 29.6231 54.7596 30.3721 54.7571 31.1667C54.7554 31.9564 54.4455 32.6972 53.8854 33.2532C53.3269 33.8158 52.582 34.1257 51.7874 34.1257ZM51.7874 29.8832C51.4477 29.8832 51.1303 30.015 50.8933 30.2545C50.6472 30.5006 50.5138 30.8221 50.5147 31.1626C50.5155 31.4982 50.6481 31.8139 50.8867 32.05C51.1303 32.2961 51.4477 32.4287 51.7874 32.4287C52.1271 32.4287 52.4445 32.2961 52.6823 32.0567L52.6889 32.05C52.9276 31.8139 53.0593 31.4982 53.0601 31.1626C53.061 30.8221 52.9284 30.5006 52.6856 30.2578C52.4453 30.015 52.1271 29.8832 51.7874 29.8832Z" fill="#374868"/>
<path d="M44.8322 27.1654C44.0723 27.1654 43.3133 26.8795 42.7358 26.3078C42.1699 25.7419 41.86 24.9953 41.86 24.2023C41.86 23.4094 42.1699 22.6628 42.7325 22.101C43.8942 20.9526 45.7759 20.9526 46.9327 22.0977C46.9352 22.1002 46.9368 22.1018 46.9393 22.1043C48.0844 23.261 48.0844 25.1436 46.9393 26.3012C46.3568 26.8779 45.5937 27.1654 44.8322 27.1654ZM44.8338 22.9337C44.5065 22.9337 44.1792 23.0572 43.929 23.3041C43.6904 23.5428 43.557 23.8626 43.557 24.2023C43.557 24.5421 43.6904 24.8627 43.9323 25.1047C44.4295 25.5944 45.2407 25.5944 45.7395 25.1014C46.2259 24.61 46.2267 23.8005 45.7362 23.3008C45.4876 23.0555 45.1611 22.9337 44.8338 22.9337Z" fill="#374868"/>
<path d="M30.8934 48.3238C30.0416 48.3238 29.2346 47.9857 28.6181 47.3709C27.3495 46.1023 27.3495 44.0399 28.6173 42.7722L30.562 40.8274C30.8934 40.496 31.4304 40.496 31.7618 40.8274C32.0932 41.1589 32.0932 41.6958 31.7618 42.0272L29.8171 43.972C29.5229 44.2669 29.3605 44.6572 29.3605 45.0707C29.3605 45.485 29.5229 45.8753 29.8171 46.1702C30.1121 46.4652 30.4949 46.6268 30.8943 46.6268H30.9084C31.3318 46.6235 31.7245 46.4611 32.017 46.1694L33.9609 44.2255C34.2923 43.8941 34.8293 43.8941 35.1607 44.2255C35.4922 44.557 35.4922 45.0939 35.1607 45.4253L33.216 47.3701C32.607 47.9782 31.7933 48.3163 30.9233 48.3238C30.9133 48.3238 30.9034 48.3238 30.8934 48.3238Z" fill="#374868"/>
<path d="M17.9127 52.8934C15.4733 52.8934 13.2709 52.1244 11.6692 50.5227C8.34981 47.2034 8.49233 41.2971 12.0255 35.8267C12.2799 35.4323 12.8052 35.3196 13.1979 35.574C13.5924 35.8284 13.705 36.3529 13.4507 36.7465C10.3633 41.5291 10.1288 46.5827 12.869 49.3229C16.3425 52.7964 23.4071 51.382 28.619 46.1718C28.9504 45.8403 29.4874 45.8403 29.8188 46.1718C30.1502 46.5032 30.1502 47.0401 29.8188 47.3716C26.221 50.9693 21.7706 52.8934 17.9127 52.8934Z" fill="#374868"/>
<path d="M16.736 38.803C15.0672 38.803 13.3984 38.1675 12.1282 36.8972C9.58772 34.3568 9.58772 30.2229 12.1282 27.6824C14.6695 25.1427 18.8034 25.1436 21.343 27.6832C22.5719 28.912 23.2488 30.5485 23.2488 32.2902C23.2488 34.0328 22.5719 35.6684 21.343 36.8972C20.0728 38.1675 18.404 38.803 16.736 38.803ZM16.7352 27.4736C15.5014 27.4736 14.2676 27.9434 13.328 28.8822C11.4488 30.7615 11.4488 33.8182 13.328 35.6974C15.2081 37.5775 18.2648 37.5759 20.1432 35.6974C21.0514 34.7893 21.5519 33.5795 21.5519 32.2902C21.5519 31.0018 21.0514 29.792 20.1432 28.883C19.2036 27.9434 17.969 27.4736 16.7352 27.4736Z" fill="#374868"/>
<path d="M16.7352 35.0271C16.0044 35.0271 15.3166 34.7429 14.7996 34.2259C13.7323 33.1586 13.7323 31.4219 14.7996 30.3547C15.8345 29.3198 17.6392 29.3214 18.6708 30.3547C19.738 31.4219 19.738 33.1586 18.6708 34.2259C18.1546 34.7429 17.4668 35.0271 16.7352 35.0271ZM16.7352 31.2504C16.4576 31.2504 16.1958 31.3581 15.9994 31.5545C15.5934 31.9605 15.5934 32.6201 15.9994 33.0261C16.3921 33.4188 17.0782 33.418 17.471 33.0261C17.877 32.6201 17.877 31.9605 17.471 31.5545C17.2746 31.3581 17.0136 31.2504 16.7352 31.2504Z" fill="#374868"/>
<path d="M34.1772 56.5293H2.59683C1.16501 56.5293 0 55.3651 0 53.9333V9.29424C0 7.86242 1.16501 6.69824 2.59683 6.69824H9.7236C10.1926 6.69824 10.5721 7.07774 10.5721 7.54673C10.5721 8.01571 10.1926 8.39521 9.7236 8.39521H2.59683C2.1005 8.39521 1.69697 8.79874 1.69697 9.29424V53.9333C1.69697 54.4205 2.10878 54.8324 2.59683 54.8324H34.1772C34.6644 54.8324 35.0762 54.4205 35.0762 53.9333V45.2703C35.0762 44.8013 35.4557 44.4218 35.9247 44.4218C36.3937 44.4218 36.7732 44.8013 36.7732 45.2703V53.9333C36.7732 55.3651 35.609 56.5293 34.1772 56.5293Z" fill="#374868"/>
<path d="M35.9247 24.8222C35.4557 24.8222 35.0762 24.4427 35.0762 23.9737V9.29424C35.0762 8.79874 34.6727 8.39521 34.1772 8.39521H27.0496C26.5806 8.39521 26.2011 8.01571 26.2011 7.54673C26.2011 7.07774 26.5806 6.69824 27.0496 6.69824H34.1772C35.609 6.69824 36.7732 7.86242 36.7732 9.29424V23.9737C36.7732 24.4427 36.3937 24.8222 35.9247 24.8222Z" fill="#374868"/>
<path d="M25.4803 11.1213H11.2913C9.95978 11.1213 8.87598 10.0375 8.87598 8.70591V6.38832C8.87598 5.05676 9.95978 3.97378 11.2913 3.97378H14.1815C14.5759 2.01166 16.3093 0.529297 18.3817 0.529297C20.4581 0.529297 22.1949 2.01166 22.5893 3.97378H25.4803C26.8118 3.97378 27.8956 5.05676 27.8956 6.38832V8.70591C27.8956 10.0375 26.8118 11.1213 25.4803 11.1213ZM11.2913 5.67075C10.8953 5.67075 10.5729 5.99225 10.5729 6.38832V8.70591C10.5729 9.10198 10.8953 9.4243 11.2913 9.4243H25.4803C25.8763 9.4243 26.1987 9.10198 26.1987 8.70591V6.38832C26.1987 5.99225 25.8763 5.67075 25.4803 5.67075H21.8253C21.3563 5.67075 20.9768 5.29125 20.9768 4.82227C20.9768 3.39045 19.8126 2.22627 18.3817 2.22627C16.9556 2.22627 15.7948 3.39045 15.7948 4.82227C15.7948 5.29125 15.4153 5.67075 14.9463 5.67075H11.2913Z" fill="#374868"/>
<path d="M18.3866 15.7009H5.43064C4.96165 15.7009 4.58215 15.3214 4.58215 14.8524C4.58215 14.3834 4.96165 14.0039 5.43064 14.0039H18.3866C18.8556 14.0039 19.2351 14.3834 19.2351 14.8524C19.2351 15.3214 18.8556 15.7009 18.3866 15.7009Z" fill="#374868"/>
<path d="M31.3434 19.4943H5.43064C4.96165 19.4943 4.58215 19.1148 4.58215 18.6458C4.58215 18.1769 4.96165 17.7974 5.43064 17.7974H31.3434C31.8124 17.7974 32.1919 18.1769 32.1919 18.6458C32.1919 19.1148 31.8124 19.4943 31.3434 19.4943Z" fill="#374868"/>
<path d="M31.3434 23.2875H5.43064C4.96165 23.2875 4.58215 22.908 4.58215 22.4391C4.58215 21.9701 4.96165 21.5906 5.43064 21.5906H31.3434C31.8124 21.5906 32.1919 21.9701 32.1919 22.4391C32.1919 22.908 31.8124 23.2875 31.3434 23.2875Z" fill="#374868"/>
</svg>
