<svg width="201" height="75" viewBox="0 0 201 75" fill="none" xmlns="http://www.w3.org/2000/svg">
<mask id="mask0_1455_29363" style="mask-type:alpha" maskUnits="userSpaceOnUse" x="-1" y="0" width="202" height="75">
<path d="M198.34 29.2259C197.645 26.8321 196.409 24.6313 195.058 22.5078C195.907 22.4691 196.718 22.2375 197.568 22.1989C195.753 20.1912 193.32 18.2607 191.544 16.2529C190.965 17.2568 190.347 18.222 189.768 19.2645C191.737 24.2838 193.707 29.3031 195.29 34.4769C195.56 35.3263 195.792 36.1757 195.714 37.0637C195.637 37.9518 195.212 38.8398 194.402 39.1873C189.846 41.2722 186.873 35.9827 185.83 34.2066C185.676 34.9788 185.483 35.751 185.174 36.4846C184.826 37.1796 184.324 37.8359 183.591 38.1834C182.896 38.5309 181.969 38.4923 181.351 37.9904C180.734 37.4885 180.463 36.446 180.541 35.2491C180.116 36.7549 178.919 38.0676 177.452 38.6081C175.985 39.1487 174.247 38.9556 172.896 38.1062C171.776 37.3726 170.965 36.1757 170.077 35.1719C169.151 34.168 167.954 33.28 166.602 33.3572C164.749 33.473 163.475 35.2877 162.973 37.0637C162.201 39.7664 162.394 42.6236 163.629 45.1332C160.27 45.2105 157.104 46.8321 154.44 48.8784C151.776 50.9247 149.459 53.4344 146.911 55.5966C146.255 56.1371 145.598 56.6776 144.788 56.9093C143.977 57.1796 143.05 57.1024 142.394 56.5618C141.429 55.7124 141.583 54.1294 141.969 52.8939C142.664 50.5387 143.707 48.3765 145.058 46.3688C146.178 46.9093 147.49 47.0637 148.687 46.7549C150.849 46.2143 152.587 44.361 153.32 42.2761C154.054 40.1525 153.938 37.7973 153.282 35.6738C152.664 33.5116 151.544 31.5425 150.347 29.6506C151.12 29.612 151.853 29.3803 152.625 29.3417C151.004 27.5271 148.842 25.7896 147.22 24.0135C146.718 24.9402 146.139 25.7896 145.598 26.7162C147.375 31.2336 149.151 35.7124 150.541 40.3456C150.772 41.0792 151.004 41.89 150.927 42.6622C150.849 43.4344 150.463 44.2452 149.768 44.5927C147.375 45.7124 145.753 42.7394 145.019 40.9634C143.127 36.2529 141.853 31.2722 141.274 26.1757C139.846 26.2529 138.88 27.7587 138.842 29.1873C138.803 30.6159 139.421 31.9286 139.923 33.2413C140.541 34.9016 141.042 36.6004 141.351 38.3765C141.583 39.5734 141.699 40.8475 141.506 42.0444C141.274 43.2414 140.618 44.4383 139.575 45.056C137.722 46.1371 135.174 45.1332 134.015 43.3572C132.819 41.5811 132.741 39.2645 133.05 37.141C133.359 35.0174 134.054 32.9711 134.247 30.8475C134.324 29.9595 134.247 28.8784 133.436 28.4537C132.857 28.1062 132.046 28.3379 131.544 28.8012C131.042 29.2645 130.772 29.9209 130.541 30.5773C129.228 34.4383 129.421 38.6468 128.61 42.6236C128.301 44.2066 127.645 45.9827 126.139 46.5618C123.629 47.5271 122.278 44.2066 121.969 42.2375C121.776 40.8475 121.892 39.4576 122.085 38.1062C122.162 37.7201 121.583 37.5271 121.429 37.9132C120.386 40.1912 120.154 42.8166 120.849 45.2105C121.081 46.3301 121.467 47.4112 122.085 48.3765C122.78 49.4962 123.861 50.5773 125.174 50.5C126.718 50.4228 127.722 48.8012 128.301 47.3726C129.614 44.2838 130.579 41.0406 131.158 37.7201C130.888 40.1525 131.042 42.7394 131.66 45.0174C132.085 46.5232 132.78 48.0676 134.054 48.9942C135.676 50.1912 138.031 50.0753 139.768 49.0715C141.351 48.1834 142.51 46.639 143.282 44.9788C143.552 45.3263 143.9 45.6738 144.247 45.9441C142.432 48.2993 141.158 51.0792 140.579 54.0135C140.347 55.3263 140.27 56.7935 141.004 57.9132C142.124 59.612 144.595 59.7664 146.564 59.2645C149.537 58.4537 152.085 56.5618 154.479 54.5927C156.873 52.6622 159.266 50.6159 162.124 49.4576C164.981 48.2993 168.687 48.6468 171.158 50.5C172.008 49.3803 172.934 47.9904 172.394 46.6776C171.892 45.4035 170.27 44.9788 168.958 44.5927C167.722 44.2452 166.486 43.7047 165.598 42.778C164.71 41.8514 164.208 40.4614 164.633 39.2645C165.058 38.0676 166.564 37.2568 167.722 37.7973C168.764 38.2993 169.112 39.5734 169.768 40.5386C170.811 42.1603 172.819 43.0869 174.71 42.8166C176.602 42.5464 178.494 42.083 179.035 40.2298C179.498 42.083 181.506 43.3572 183.359 43.0097C185.212 42.6622 186.95 40.8861 186.757 38.9942C187.915 41.195 190.772 42.2375 193.205 41.6583C195.637 41.0406 197.529 38.9942 198.378 36.639C199.189 34.2452 199.035 31.6197 198.34 29.2259Z" fill="url(#paint0_linear_1455_29363)"/>
<path d="M188.88 43.666C188.224 44.6699 187.644 45.7896 187.22 46.9093C188.262 47.3726 189.266 48.1448 190.309 48.6081C191.004 47.527 191.737 46.5618 192.432 45.5193C191.505 44.9015 190 43.9749 188.88 43.666Z" fill="url(#paint1_linear_1455_29363)"/>
<path d="M82.9341 35.7894C81.9688 35.133 80.463 34.245 79.3433 33.8975C78.687 34.9013 78.1078 36.021 77.6831 37.1407C78.7256 37.604 79.7294 38.3762 80.7719 38.8395C81.5055 37.8357 82.2391 36.8704 82.9341 35.7894Z" fill="url(#paint2_linear_1455_29363)"/>
<path d="M19.4204 55.8668C20.4629 56.3301 21.4667 57.1023 22.5092 57.5657C23.2042 56.4846 23.9378 55.5193 24.6328 54.4769C23.6675 53.8205 22.1617 52.9325 21.042 52.585C20.3857 53.5888 19.8065 54.7085 19.4204 55.8668Z" fill="url(#paint3_linear_1455_29363)"/>
<path d="M25.4824 54.2447C26.5249 54.7081 27.5288 55.4803 28.5712 55.9436C29.2662 54.8625 29.9998 53.8973 30.6948 52.8548C29.7295 52.1984 28.2237 51.3104 27.104 50.9629C26.4477 52.0054 25.9071 53.0864 25.4824 54.2447Z" fill="url(#paint4_linear_1455_29363)"/>
<path d="M157.49 44.6695C157.876 44.6695 158.185 44.7467 158.571 44.7467C160 33.434 159.228 21.4263 156.1 10.461C156.834 11.5807 158.108 12.1599 159.382 12.5846C158.803 9.49578 157.915 5.17146 156.023 2.70041C155.483 2.00543 154.517 1.27184 153.706 0.885742C153.205 3.27956 151.776 5.59617 152.162 8.0286C153.822 18.4533 157.374 32.5846 157.49 44.6695Z" fill="url(#paint5_linear_1455_29363)"/>
<path d="M125.096 42.4692C126.293 31.8901 125.637 20.6546 123.011 10.4229C123.629 11.4654 124.71 12.0059 125.791 12.392C125.289 9.49626 124.556 5.48082 122.973 3.1256C122.509 2.46923 121.699 1.81286 121.042 1.42676C120.617 3.66614 119.421 5.8283 119.768 8.1063C121.158 17.8746 124.131 31.0793 124.247 42.392C124.517 42.392 124.787 42.4692 125.096 42.4692Z" fill="url(#paint6_linear_1455_29363)"/>
<path d="M70.965 46.2918C71.0422 46.4076 71.1194 46.5235 71.1967 46.6393C73.5133 44.2069 73.5133 40.6547 73.243 37.5273C72.8955 34.0138 72.4708 30.5003 72.2005 26.9868C71.9689 23.9752 71.6986 21.0022 71.3125 17.9907C71.0036 15.6354 70.965 11.7358 69.7681 9.6895C70.3859 10.732 71.4669 11.2725 72.548 11.6586C72.0461 8.76285 71.3125 4.74741 69.7295 2.3922C69.2662 1.73583 68.4554 1.07946 67.799 0.693359C67.3743 2.93274 66.1774 5.0949 66.5248 7.3729C67.4129 13.6663 68.3395 19.9984 69.1503 26.3304C69.6137 29.9212 69.9998 33.5119 70.3472 37.1412C70.5017 38.8787 70.6561 40.6161 70.7719 42.315C70.7719 43.4733 70.3472 45.1335 70.965 46.2918Z" fill="url(#paint7_linear_1455_29363)"/>
<path d="M95.7914 16.4842C95.2123 18.1444 94.9806 19.9205 95.1737 21.6579C95.2123 22.1598 95.3281 22.6618 95.5212 23.1251C95.7528 23.5884 96.1389 23.9745 96.6023 24.0903C97.1814 24.2448 97.8378 24.0131 98.2625 23.5884C98.7258 23.2023 99.0347 22.6618 99.3436 22.1212C99.5366 22.8548 100.618 23.2409 101.351 23.2023C102.123 23.1251 102.78 22.6232 103.166 22.0054C103.552 21.3876 103.707 20.6154 103.745 19.8432C103.822 18.183 103.398 16.5228 102.51 15.1328C102.085 15.7892 101.66 16.5614 101.235 17.2564C101.892 17.8741 102.394 18.9552 102.278 19.8432C102.201 20.3838 101.892 20.9629 101.351 21.0402C101.004 21.0788 100.656 20.9243 100.463 20.654C100.232 20.3838 100.116 20.0749 99.9999 19.766C99.6911 18.6463 99.7683 17.488 99.8455 16.3297C99.4594 16.7158 99.1119 17.3336 98.9961 17.8355C98.8802 18.2602 98.8803 18.8394 98.9189 19.3027C98.9575 19.766 98.9189 20.2293 98.7644 20.654C98.61 21.0788 98.2239 21.4649 97.7992 21.5421C97.2972 21.6193 96.7567 21.3104 96.4864 20.8471C96.2162 20.3838 96.1389 19.8432 96.1775 19.3027C96.2162 18.4147 96.4478 17.5652 96.8725 16.793C96.6409 16.6 96.0617 16.6772 95.7914 16.4842Z" fill="url(#paint8_linear_1455_29363)"/>
<path d="M135.251 24.6309C135.482 25.0943 135.868 25.4804 136.332 25.5962C136.911 25.7506 137.567 25.519 137.992 25.0943C138.455 24.7082 138.764 24.1676 139.073 23.6271C139.266 24.3607 140.347 24.7468 141.081 24.7082C141.853 24.6309 142.509 24.129 142.895 23.5113C143.282 22.8549 143.436 22.1213 143.475 21.3491C143.552 19.6889 143.127 18.0286 142.239 16.6387C141.814 17.295 141.39 18.0672 140.965 18.7622C141.621 19.38 142.123 20.4611 142.007 21.3491C141.93 21.8896 141.621 22.4688 141.081 22.546C140.733 22.5846 140.386 22.4302 140.193 22.1599C139.961 21.8896 139.845 21.5808 139.729 21.2719C139.421 20.1522 139.498 18.9939 139.575 17.8356C139.189 18.2217 138.841 18.8394 138.726 19.3414C138.61 19.7661 138.61 20.3452 138.648 20.8086C138.687 21.2719 138.648 21.7352 138.494 22.1599C138.34 22.5846 137.953 22.9707 137.529 23.0479C137.027 23.1252 136.486 22.8163 136.216 22.353C135.946 21.8896 135.868 21.3491 135.907 20.8086C135.946 19.9205 136.177 19.0711 136.602 18.2989C136.332 18.1059 135.753 18.1831 135.482 17.99C134.903 19.6503 134.672 21.4263 134.865 23.1638C134.942 23.6657 135.019 24.2062 135.251 24.6309Z" fill="url(#paint9_linear_1455_29363)"/>
<path d="M175.482 27.7587C175.058 26.9093 175.907 25.7124 176.641 25.1718C177.374 24.5927 178.378 24.4768 179.305 24.5155C179.884 24.5155 180.502 24.6313 180.926 24.9788C181.505 25.4421 181.66 26.2915 181.505 27.0251C181.351 27.7587 181.119 28.5695 180.733 29.1873C182.123 28.0676 183.127 26.4846 183.59 24.7857C183.783 24.0521 183.861 23.2027 183.436 22.585C183.011 21.9286 182.162 21.7355 181.39 21.6197C180.115 21.4267 178.764 21.388 177.49 21.7741C176.254 22.1602 175.096 23.0483 174.633 24.2452C174.131 25.4421 174.44 26.9865 175.482 27.7587Z" fill="url(#paint10_linear_1455_29363)"/>
<path d="M85.1351 9.11027C84.7104 8.26085 85.5598 7.06394 86.2934 6.5234C87.027 5.94425 88.0308 5.82841 88.9575 5.86702C89.5366 5.86702 90.1544 5.98286 90.5791 6.33035C91.1582 6.79367 91.3127 7.64308 91.1582 8.37667C91.0038 9.11026 90.7721 9.92108 90.386 10.5388C91.776 9.41915 92.7799 7.83614 93.2432 6.1373C93.4362 5.40371 93.5135 4.55428 93.0887 3.93652C92.664 3.28015 91.8146 3.0871 91.0424 2.97127C89.7683 2.77822 88.4169 2.73961 87.1428 3.12571C85.9073 3.51181 84.749 4.39984 84.2856 5.59675C83.8223 6.79366 84.0926 8.33807 85.1351 9.11027Z" fill="url(#paint11_linear_1455_29363)"/>
<path d="M24.2855 17.4501C23.8607 16.6007 24.7102 15.4038 25.4438 14.8632C26.1774 14.2841 27.1812 14.1683 28.1079 14.2069C28.687 14.2069 29.3048 14.3227 29.7295 14.6702C30.3086 15.1335 30.4631 15.9829 30.3086 16.7165C30.1542 17.4501 29.9225 18.2609 29.5364 18.8787C30.9264 17.759 31.9302 16.176 32.3936 14.4771C32.5866 13.7435 32.6638 12.8941 32.2391 12.2764C31.8144 11.62 30.965 11.4269 30.1928 11.3111C28.9187 11.1181 27.5673 11.0795 26.2932 11.4656C25.0577 11.8517 23.8994 12.7397 23.436 13.9366C22.9727 15.0949 23.243 16.6779 24.2855 17.4501Z" fill="url(#paint12_linear_1455_29363)"/>
<path d="M180.656 58.5307C187.915 54.052 189.846 53.0095 195.367 51.1948V50.6929C195.444 50.0365 195.405 49.2257 195.483 48.5693C189.768 50.8473 184.363 53.8589 179.421 57.4883C179.846 57.7585 180.193 58.2605 180.656 58.5307Z" fill="url(#paint13_linear_1455_29363)"/>
<path d="M158.262 61.6581C165.83 56.9477 167.876 55.9052 173.629 53.9747V53.4342C173.706 52.7392 173.668 51.9284 173.745 51.2334C167.761 53.5886 162.123 56.7546 156.95 60.577C157.452 60.8473 157.799 61.3878 158.262 61.6581Z" fill="url(#paint14_linear_1455_29363)"/>
<path d="M117.567 61.6581C125.135 56.9477 127.181 55.9052 132.934 53.9747V53.4342C133.011 52.7392 132.973 51.9284 133.05 51.2334C127.065 53.5886 121.428 56.7546 116.254 60.577C116.756 60.8473 117.104 61.3878 117.567 61.6581Z" fill="url(#paint15_linear_1455_29363)"/>
<path d="M93.8996 14.8247C101.158 10.3459 103.089 9.30344 108.61 7.48877V6.98683C108.687 6.33046 108.649 5.51965 108.726 4.86328C103.012 7.14127 97.6061 10.1529 92.6641 13.7822C93.0888 14.0911 93.4363 14.5544 93.8996 14.8247Z" fill="url(#paint16_linear_1455_29363)"/>
<path d="M70.9264 65.9438C78.1851 61.465 80.1156 60.4226 85.6369 58.6079V58.106C85.7141 57.4496 85.6755 56.6388 85.7527 55.9824C80.0384 58.2604 74.633 61.272 69.6909 64.9013C70.1156 65.1716 70.5017 65.6735 70.9264 65.9438Z" fill="url(#paint17_linear_1455_29363)"/>
<path d="M35.8683 66.6391C43.127 62.1604 45.0575 61.1179 50.5788 59.3032V58.8013C50.656 58.1449 50.6174 57.3341 50.6946 56.6777C44.9803 58.9557 39.5749 61.9673 34.6328 65.5967C35.0575 65.9055 35.4436 66.3688 35.8683 66.6391Z" fill="url(#paint18_linear_1455_29363)"/>
<path d="M44.5942 15.1717C44.015 16.8319 43.7834 18.608 43.9764 20.3454C44.015 20.8473 44.1309 21.3493 44.3239 21.8126C44.5556 22.2759 44.9417 22.662 45.405 22.7778C45.9841 22.9323 46.6405 22.7006 47.0652 22.2759C47.5285 21.8898 47.8374 21.3493 48.1463 20.8087C48.3394 21.5423 49.4204 21.9284 50.154 21.8898C50.9262 21.8126 51.5826 21.3107 51.9687 20.6929C52.3548 20.0365 52.5092 19.3029 52.5479 18.5307C52.6251 16.8705 52.2004 15.2103 51.3123 13.8203C50.8876 14.4767 50.4629 15.2489 50.0382 15.9439C50.6946 16.5616 51.1965 17.6427 51.0807 18.5307C51.0034 19.0713 50.6946 19.6504 50.154 19.7277C49.8065 19.7663 49.459 19.6118 49.266 19.3415C49.0343 19.0713 48.9185 18.7624 48.8027 18.4535C48.4938 17.3338 48.571 16.1755 48.6482 15.0172C48.2621 15.4033 47.9146 16.0211 47.7988 16.523C47.683 16.9477 47.683 17.5269 47.7216 17.9902C47.7602 18.4535 47.7216 18.9168 47.5672 19.3415C47.4127 19.7663 47.0266 20.1524 46.6019 20.2296C46.1 20.3068 45.5594 19.9979 45.2892 19.5346C45.0189 19.0713 44.9417 18.5307 44.9803 17.9902C45.0189 17.1022 45.2506 16.2527 45.6753 15.4805C45.4436 15.2875 44.8644 15.3647 44.5942 15.1717Z" fill="url(#paint19_linear_1455_29363)"/>
<path d="M56.1774 3.12548V2.62355C56.2546 1.96718 56.216 1.15637 56.2932 0.5C50.5789 2.77799 45.1735 5.78958 40.2314 9.41892C40.6562 9.68919 41.0423 10.1911 41.467 10.4614C48.7257 5.98263 50.6562 4.97877 56.1774 3.12548Z" fill="url(#paint20_linear_1455_29363)"/>
<path d="M139.15 16.0988C140 11.8903 138.455 6.9482 137.529 2.77832C136.872 3.55052 136.216 4.36133 135.56 5.13354C136.988 8.76288 138.339 13.01 138.648 16.9096C138.88 16.7938 139.073 16.4077 139.15 16.0988Z" fill="url(#paint21_linear_1455_29363)"/>
<path d="M82.7026 14.0519C83.552 9.84341 82.0076 4.90133 81.0809 0.731445C80.4246 1.50365 79.7682 2.31445 79.1118 3.08665C80.5404 6.716 81.8917 10.9631 82.2006 14.8627C82.4323 14.7083 82.6253 14.3222 82.7026 14.0519Z" fill="url(#paint22_linear_1455_29363)"/>
<path d="M114.942 9.65051C115.56 10.693 116.641 11.2335 117.722 11.6196C117.22 8.72387 116.486 4.70843 114.903 2.35321C114.44 1.69684 113.629 1.04047 112.973 0.654367C112.548 2.89375 111.351 5.05591 111.699 7.33391C112.432 12.3532 113.359 17.3725 114.17 22.3532C114.672 25.442 115.212 28.4922 115.598 31.6196C115.907 33.9748 116.409 36.5231 115.791 38.8783C115.058 41.6968 112.278 43.2798 110 44.8242C106.988 46.8706 103.938 48.9169 100.926 50.9633C86.409 59.8822 92.9341 42.9324 93.5905 41.3107C93.7449 40.9633 93.8994 40.6158 94.0924 40.2297C95.8685 41.6582 97.8762 43.2412 99.6137 44.6312C100.386 42.3532 98.1465 40.3841 96.6793 38.8783C100.347 37.2567 106.757 34.1293 110.424 32.5076C111.081 31.0791 111.892 29.5733 112.548 28.1447C105.984 27.4111 99.4592 26.6003 92.8955 25.8667C90.6175 25.5965 87.9534 25.4806 86.3318 27.1409C84.7874 28.8011 85.0191 31.581 86.3704 33.3957C86.6021 33.7046 86.7951 33.9748 87.0654 34.2837C88.1465 35.5965 89.382 36.6775 90.8878 37.4497L91.2353 37.7586C87.4901 40.5771 84.2469 43.0096 80.5017 45.8281C78.6484 47.2181 76.7951 48.6853 74.8646 50.0366C72.355 51.7741 70.27 53.9748 67.1812 54.6698C65.9457 54.9401 64.5171 54.9787 63.3588 54.3995C63.2044 54.2837 63.0113 54.1679 62.7411 54.0134C62.5094 53.8204 62.2778 53.5887 62.0461 53.3571C61.0036 51.9285 60.9264 48.9941 61.0036 46.6775C61.1581 45.7895 61.1967 45.1331 61.1967 44.6312C62.0075 43.859 62.7411 42.971 63.2816 41.9285C64.0924 40.3841 64.3627 38.6853 64.3241 36.9478C64.0152 27.8744 63.7449 19.8436 61.1581 9.57329C61.7758 10.6158 62.8569 11.1563 63.938 11.5424C63.4361 8.64665 62.7025 4.63121 61.1194 2.27599C60.6561 1.61962 59.8453 0.963249 59.1889 0.577148C58.7642 2.81653 57.5673 4.97869 57.9148 7.25669C59.189 16.2142 61.8144 28.1061 62.3164 38.7239C62.2005 38.9941 62.0847 39.2258 61.9689 39.4575C60.6947 41.7354 58.4554 43.2799 56.2546 44.747C53.243 46.7934 50.1928 48.8397 47.1812 50.886C32.6639 59.8049 39.189 42.8551 39.8453 41.2335C40.1928 40.4613 40.5403 39.7277 40.9264 38.9555C41.7372 38.6853 42.5094 38.3764 43.3202 38.0675C47.6446 36.2914 52.3936 36.33 55.9071 33.2412C57.4129 31.9285 57.9148 30.1524 57.8376 28.1447C53.7835 28.415 49.6523 27.6042 45.9843 25.8667C43.6677 24.7856 41.1967 23.2412 38.7256 23.8976C36.216 24.554 34.7102 27.2181 34.4785 29.8049C35.3666 30.6158 36.2932 31.4266 37.4129 31.8127C38.5326 32.1988 39.9225 31.8899 40.6947 30.9632C40.3086 30.4613 39.9225 29.9594 39.5364 29.4575C39.4978 29.3802 39.4206 29.3416 39.3434 29.2644C39.5751 28.9169 39.8453 28.6466 40.1928 28.4536C40.9264 28.0289 41.8531 27.9903 42.7025 28.1061C43.5519 28.2605 44.3627 28.5694 45.1735 28.8397C47.1812 29.4961 50.3473 30.4999 52.4322 30.693C49.4592 31.9285 45.1349 32.7007 42.1619 33.9748C40.1542 34.8243 37.799 35.6737 35.8299 34.7084C34.3627 33.9748 33.5519 32.4304 32.6639 31.0791C31.7758 29.7277 30.5017 28.3378 28.8801 28.3378C27.4129 28.3378 26.1774 29.4575 25.4052 30.693C23.243 34.2837 23.6291 38.9555 24.5944 43.0096C21.4283 43.3571 18.6484 45.2104 16.216 47.2181C13.7835 49.2644 11.5056 51.5424 8.68702 53.0096C7.64455 53.5501 6.37042 54.0134 5.25073 53.5501C4.28548 53.164 3.66772 52.1602 3.51328 51.1563C3.35884 50.1524 3.5905 49.0714 3.89938 48.1061C4.71019 45.5192 6.2932 43.2412 8.18509 41.3107C8.03065 40.9633 7.87621 40.5385 7.49011 40.5385C4.20826 43.2799 1.96887 47.2953 1.42833 51.5424C1.15806 53.4729 1.31251 55.6737 2.70247 57.0636C3.5905 57.9517 4.82602 58.3764 6.10015 58.4536C8.88007 58.5694 11.4283 56.9864 13.4747 55.1331C15.521 53.2799 17.2971 51.0791 19.5751 49.5347C22.2005 47.7586 25.2121 46.9478 28.1465 48.415C30.2314 49.4575 32.0075 50.3841 33.243 47.6814C33.7836 46.5231 34.5944 45.3262 34.7102 44.0907C32.8955 41.8513 29.189 41.8513 27.6446 39.4188C26.6021 37.7586 27.1812 35.3262 28.8415 34.3223C29.6909 33.7818 30.8878 33.666 31.6986 34.2451C32.6639 34.9401 32.8183 36.2528 33.3974 37.2567C34.3241 38.8397 36.2932 39.6119 38.1465 39.5347C38.687 39.5347 39.2276 39.4575 39.7295 39.3416C37.992 43.3957 36.6407 47.72 35.6368 52.0057C35.3666 53.164 35.1349 54.3609 35.2507 55.5578C35.4052 56.7548 35.9843 57.9517 37.0268 58.5308C38.8801 59.5733 41.1195 58.3764 42.8955 57.2181C47.7218 54.0521 52.548 50.8474 57.3357 47.6814C58.2623 47.0636 59.189 46.4459 60.077 45.7509C59.2662 48.5308 58.7256 51.7355 58.9959 53.9748C59.4592 57.6428 62.6253 61.2335 66.2932 60.8474C68.3395 60.6158 70.077 59.2644 71.66 57.9903C78.7642 52.2374 85.9071 46.4845 93.0113 40.7316C91.5442 44.3995 90.3859 48.2219 89.4978 52.0443C89.2276 53.2026 88.9959 54.3995 89.1117 55.5965C89.2662 56.7934 89.8453 57.9903 90.8878 58.5694C92.7411 59.6119 94.9805 58.415 96.7565 57.2567C101.583 54.0907 106.409 50.886 111.197 47.72C113.552 46.137 116.023 44.4768 117.336 41.9671C118.146 40.4227 118.417 38.7239 118.378 36.9864C117.838 27.9517 117.567 19.8822 114.942 9.65051ZM88.3395 30.5385C88.494 29.8822 89.3434 29.8049 89.9998 29.8436C94.7102 30.1138 99.4978 30.6544 104.17 31.4652C100.772 33.0096 97.4129 34.554 94.0152 36.137C92.355 34.747 90.6947 33.2799 89.0345 31.8899C88.6484 31.5424 88.1851 31.0791 88.3395 30.5385Z" fill="url(#paint23_linear_1455_29363)"/>
<path opacity="0.4" d="M163.629 45.1328C162.162 45.1714 160.772 45.4803 159.421 45.9822L160.888 49.9591C161.274 49.766 161.699 49.573 162.124 49.4185C163.977 48.6849 166.139 48.5691 168.108 49.071C165.56 47.9899 163.629 45.1328 163.629 45.1328Z" fill="url(#paint24_linear_1455_29363)"/>
<path opacity="0.4" d="M143.282 44.9398C142.394 43.0093 141.815 40.8471 141.506 39.3027C141.621 40.1908 141.66 41.1174 141.506 42.0054C141.274 43.2023 140.618 44.3993 139.575 45.017C138.842 45.4417 138.031 45.5576 137.22 45.4031L137.027 47.2564L137.645 49.7274C138.378 49.6116 139.112 49.38 139.768 48.9939C141.351 48.1444 142.471 46.6 143.282 44.9398Z" fill="url(#paint25_linear_1455_29363)"/>
<path opacity="0.4" d="M94.0537 36.0984C94.0537 36.0984 95.907 38.1448 96.6406 38.8783C97.4514 38.5309 98.378 38.1061 99.3819 37.6428L96.9881 34.7471C95.9842 35.2104 95.019 35.6737 94.0537 36.0984Z" fill="url(#paint26_linear_1455_29363)"/>
<path opacity="0.4" d="M91.1966 37.7969C90.1542 38.5691 89.1503 39.3413 88.1851 40.0749L89.8453 43.1637C90.8105 42.3915 91.8144 41.5807 92.7797 40.8085L93.3588 40.0749L91.1966 37.7969Z" fill="url(#paint27_linear_1455_29363)"/>
<path opacity="0.4" d="M60.9653 46.7163C61.1197 45.8282 61.1583 45.1719 61.1583 44.6699L59.807 45.8282C59.0348 48.4923 58.4942 51.5039 58.6873 53.7047L61.39 52.0831C60.9267 50.5773 60.888 48.4923 60.9653 46.7163Z" fill="url(#paint28_linear_1455_29363)"/>
<path opacity="0.4" d="M24.4015 43.125C22.0462 43.3567 19.9227 44.4377 17.9922 45.8277L19.4594 49.5729C22.0462 47.874 25.0192 47.1018 27.8764 48.5304C28.1466 48.6848 28.4555 48.8007 28.7258 48.9551C25.2509 47.2563 24.4015 43.125 24.4015 43.125Z" fill="url(#paint29_linear_1455_29363)"/>
<path d="M45.3284 74.7471H44.0156V69.4189H45.2898V74.7471H45.3284Z" fill="url(#paint30_linear_1455_29363)"/>
<path d="M52.1237 74.7471H50.8496L48.9577 71.4267V74.7471H47.6836V69.4189H48.9577L50.8496 72.7394V69.4189H52.1237V74.7471Z" fill="url(#paint31_linear_1455_29363)"/>
<path d="M61.9695 70.4228H60.3864V74.7471H59.1123V70.4228H57.5293V69.4189H61.9695V70.4228Z" fill="url(#paint32_linear_1455_29363)"/>
<path d="M68.4558 74.7471H67.1817V72.5077H65.2898V74.7471H64.0156V69.4189H65.2898V71.5425H67.1817V69.4189H68.4558V74.7471Z" fill="url(#paint33_linear_1455_29363)"/>
<path d="M74.0929 72.5082H72.0852V73.7823H74.479V74.7862H70.811V69.458H74.479V70.4619H72.0852V71.5816H74.0929V72.5082Z" fill="url(#paint34_linear_1455_29363)"/>
<path d="M84.2859 74.7471H83.0117L81.1198 71.4267V74.7471H79.8457V69.4189H81.1198L83.0117 72.7394V69.4189H84.2859V74.7471Z" fill="url(#paint35_linear_1455_29363)"/>
<path d="M89.614 73.7433H87.838L87.5291 74.7471H86.1777L88.1468 69.4189H89.3438L91.3129 74.7471H89.9229L89.614 73.7433ZM88.1468 72.778H89.3051L88.726 70.9247L88.1468 72.778Z" fill="url(#paint36_linear_1455_29363)"/>
<path d="M94.8653 69.4189L96.0622 73.1255L97.2591 69.4189H98.9579V74.7471H97.6838V73.5116L97.7996 70.9633L96.5255 74.7471H95.6761L94.402 70.9633L94.5178 73.5116V74.7471H93.2437V69.4189H94.8653Z" fill="url(#paint37_linear_1455_29363)"/>
<path d="M104.518 72.5082H102.51V73.7823H104.904V74.7862H101.236V69.458H104.904V70.4619H102.51V71.5816H104.518V72.5082Z" fill="url(#paint38_linear_1455_29363)"/>
<path d="M114.788 72.1989C114.788 72.7009 114.711 73.1642 114.518 73.5889C114.325 73.975 114.054 74.2839 113.707 74.5156C113.359 74.7472 112.935 74.8244 112.51 74.8244C112.085 74.8244 111.661 74.7086 111.313 74.5156C110.966 74.3225 110.695 74.0136 110.502 73.6275C110.309 73.2414 110.193 72.7781 110.193 72.2762V71.9673C110.193 71.4267 110.271 71.002 110.464 70.5773C110.657 70.1912 110.927 69.8823 111.274 69.6507C111.622 69.419 112.047 69.3418 112.51 69.3418C112.973 69.3418 113.359 69.4576 113.707 69.6507C114.054 69.8437 114.325 70.1526 114.518 70.5773C114.711 71.002 114.827 71.4267 114.827 71.9287V72.1989H114.788ZM113.475 71.9673C113.475 71.4267 113.398 71.0406 113.205 70.7704C113.012 70.5001 112.78 70.3457 112.433 70.3457C111.776 70.3457 111.467 70.8476 111.429 71.7742V72.1603C111.429 72.7009 111.506 73.087 111.699 73.3573C111.854 73.6275 112.124 73.782 112.471 73.782C112.78 73.782 113.051 73.6275 113.205 73.3573C113.359 73.087 113.475 72.7009 113.475 72.1603V71.9673Z" fill="url(#paint39_linear_1455_29363)"/>
<path d="M120.309 72.6236H118.224V74.7471H116.95V69.4189H120.502V70.4228H118.224V71.6583H120.309V72.6236Z" fill="url(#paint40_linear_1455_29363)"/>
<path d="M128.919 73.7433H127.143L126.834 74.7471H125.483L127.452 69.4189H128.649L130.618 74.7471H129.228L128.919 73.7433ZM127.452 72.778H128.61L128.031 70.9247L127.452 72.778Z" fill="url(#paint41_linear_1455_29363)"/>
<path d="M133.784 73.7823H136.023V74.7862H132.51V69.458H133.784V73.7823Z" fill="url(#paint42_linear_1455_29363)"/>
<path d="M139.305 73.7823H141.545V74.7862H138.031V69.458H139.305V73.7823Z" fill="url(#paint43_linear_1455_29363)"/>
<path d="M146.602 73.7433H144.826L144.517 74.7471H143.166L145.135 69.4189H146.332L148.301 74.7471H146.911L146.602 73.7433ZM145.174 72.778H146.332L145.753 70.9247L145.174 72.778Z" fill="url(#paint44_linear_1455_29363)"/>
<path d="M154.634 74.7471H153.359V72.5077H151.467V74.7471H150.193V69.4189H151.467V71.5425H153.359V69.4189H154.634V74.7471Z" fill="url(#paint45_linear_1455_29363)"/>
<path d="M34.6332 72.1602H0V72.9324H34.6332V72.1602Z" fill="url(#paint46_linear_1455_29363)" stroke="url(#paint47_linear_1455_29363)" stroke-width="2" stroke-miterlimit="10"/>
<path d="M200 72.1602H165.367V72.9324H200V72.1602Z" fill="url(#paint48_linear_1455_29363)" stroke="url(#paint49_linear_1455_29363)" stroke-width="2" stroke-miterlimit="10"/>
</mask>
<g mask="url(#mask0_1455_29363)">
<rect y="0.5" width="202.162" height="74.3243" fill="#FFD54F"/>
</g>
<defs>
<linearGradient id="paint0_linear_1455_29363" x1="8.98288" y1="55.5041" x2="201.296" y2="34.1937" gradientUnits="userSpaceOnUse">
<stop stop-color="#BFA150"/>
<stop offset="0.32" stop-color="#E9C562"/>
<stop offset="0.5477" stop-color="#F0D794"/>
<stop offset="1" stop-color="#E9C562"/>
</linearGradient>
<linearGradient id="paint1_linear_1455_29363" x1="10.1501" y1="66.0352" x2="202.463" y2="44.7248" gradientUnits="userSpaceOnUse">
<stop stop-color="#BFA150"/>
<stop offset="0.32" stop-color="#E9C562"/>
<stop offset="0.5477" stop-color="#F0D794"/>
<stop offset="1" stop-color="#E9C562"/>
</linearGradient>
<linearGradient id="paint2_linear_1455_29363" x1="7.75598" y1="44.4294" x2="200.069" y2="23.1191" gradientUnits="userSpaceOnUse">
<stop stop-color="#BFA150"/>
<stop offset="0.32" stop-color="#E9C562"/>
<stop offset="0.5477" stop-color="#F0D794"/>
<stop offset="1" stop-color="#E9C562"/>
</linearGradient>
<linearGradient id="paint3_linear_1455_29363" x1="9.09103" y1="56.4826" x2="201.404" y2="35.1722" gradientUnits="userSpaceOnUse">
<stop stop-color="#BFA150"/>
<stop offset="0.32" stop-color="#E9C562"/>
<stop offset="0.5477" stop-color="#F0D794"/>
<stop offset="1" stop-color="#E9C562"/>
</linearGradient>
<linearGradient id="paint4_linear_1455_29363" x1="8.98922" y1="55.5611" x2="201.302" y2="34.2507" gradientUnits="userSpaceOnUse">
<stop stop-color="#BFA150"/>
<stop offset="0.32" stop-color="#E9C562"/>
<stop offset="0.5477" stop-color="#F0D794"/>
<stop offset="1" stop-color="#E9C562"/>
</linearGradient>
<linearGradient id="paint5_linear_1455_29363" x1="7.19143" y1="39.336" x2="199.505" y2="18.0256" gradientUnits="userSpaceOnUse">
<stop stop-color="#BFA150"/>
<stop offset="0.32" stop-color="#E9C562"/>
<stop offset="0.5477" stop-color="#F0D794"/>
<stop offset="1" stop-color="#E9C562"/>
</linearGradient>
<linearGradient id="paint6_linear_1455_29363" x1="6.69611" y1="34.8622" x2="199.009" y2="13.552" gradientUnits="userSpaceOnUse">
<stop stop-color="#BFA150"/>
<stop offset="0.32" stop-color="#E9C562"/>
<stop offset="0.5477" stop-color="#F0D794"/>
<stop offset="1" stop-color="#E9C562"/>
</linearGradient>
<linearGradient id="paint7_linear_1455_29363" x1="6.22076" y1="30.6545" x2="198.558" y2="9.34145" gradientUnits="userSpaceOnUse">
<stop stop-color="#BFA150"/>
<stop offset="0.32" stop-color="#E9C562"/>
<stop offset="0.5477" stop-color="#F0D794"/>
<stop offset="1" stop-color="#E9C562"/>
</linearGradient>
<linearGradient id="paint8_linear_1455_29363" x1="2.18769" y1="30.4601" x2="194.501" y2="9.14968" gradientUnits="userSpaceOnUse">
<stop stop-color="#BFA150"/>
<stop offset="0.32" stop-color="#E9C562"/>
<stop offset="0.5477" stop-color="#F0D794"/>
<stop offset="1" stop-color="#E9C562"/>
</linearGradient>
<linearGradient id="paint9_linear_1455_29363" x1="6.80458" y1="35.848" x2="199.118" y2="14.5376" gradientUnits="userSpaceOnUse">
<stop stop-color="#BFA150"/>
<stop offset="0.32" stop-color="#E9C562"/>
<stop offset="0.5477" stop-color="#F0D794"/>
<stop offset="1" stop-color="#E9C562"/>
</linearGradient>
<linearGradient id="paint10_linear_1455_29363" x1="7.75162" y1="44.3956" x2="200.065" y2="23.0852" gradientUnits="userSpaceOnUse">
<stop stop-color="#BFA150"/>
<stop offset="0.32" stop-color="#E9C562"/>
<stop offset="0.5477" stop-color="#F0D794"/>
<stop offset="1" stop-color="#E9C562"/>
</linearGradient>
<linearGradient id="paint11_linear_1455_29363" x1="4.61422" y1="16.0799" x2="196.928" y2="-5.23052" gradientUnits="userSpaceOnUse">
<stop stop-color="#BFA150"/>
<stop offset="0.32" stop-color="#E9C562"/>
<stop offset="0.5477" stop-color="#F0D794"/>
<stop offset="1" stop-color="#E9C562"/>
</linearGradient>
<linearGradient id="paint12_linear_1455_29363" x1="4.78747" y1="17.644" x2="197.1" y2="-3.66637" gradientUnits="userSpaceOnUse">
<stop stop-color="#BFA150"/>
<stop offset="0.32" stop-color="#E9C562"/>
<stop offset="0.5477" stop-color="#F0D794"/>
<stop offset="1" stop-color="#E9C562"/>
</linearGradient>
<linearGradient id="paint13_linear_1455_29363" x1="10.9425" y1="73.1839" x2="203.256" y2="51.8735" gradientUnits="userSpaceOnUse">
<stop stop-color="#BFA150"/>
<stop offset="0.32" stop-color="#E9C562"/>
<stop offset="0.5477" stop-color="#F0D794"/>
<stop offset="1" stop-color="#E9C562"/>
</linearGradient>
<linearGradient id="paint14_linear_1455_29363" x1="-18.9284" y1="76.9537" x2="181.881" y2="54.7018" gradientUnits="userSpaceOnUse">
<stop stop-color="#BFA150"/>
<stop offset="0.32" stop-color="#E9C562"/>
<stop offset="0.5477" stop-color="#F0D794"/>
<stop offset="1" stop-color="#E9C562"/>
</linearGradient>
<linearGradient id="paint15_linear_1455_29363" x1="-59.6266" y1="76.9537" x2="141.183" y2="54.7018" gradientUnits="userSpaceOnUse">
<stop stop-color="#BFA150"/>
<stop offset="0.32" stop-color="#E9C562"/>
<stop offset="0.5477" stop-color="#F0D794"/>
<stop offset="1" stop-color="#E9C562"/>
</linearGradient>
<linearGradient id="paint16_linear_1455_29363" x1="6.52829" y1="20.3582" x2="198.841" y2="-0.952126" gradientUnits="userSpaceOnUse">
<stop stop-color="#BFA150"/>
<stop offset="0.32" stop-color="#E9C562"/>
<stop offset="0.5477" stop-color="#F0D794"/>
<stop offset="1" stop-color="#E9C562"/>
</linearGradient>
<linearGradient id="paint17_linear_1455_29363" x1="-16.4295" y1="71.4688" x2="175.883" y2="50.1584" gradientUnits="userSpaceOnUse">
<stop stop-color="#BFA150"/>
<stop offset="0.32" stop-color="#E9C562"/>
<stop offset="0.5477" stop-color="#F0D794"/>
<stop offset="1" stop-color="#E9C562"/>
</linearGradient>
<linearGradient id="paint18_linear_1455_29363" x1="-51.4893" y1="72.17" x2="140.823" y2="50.8597" gradientUnits="userSpaceOnUse">
<stop stop-color="#BFA150"/>
<stop offset="0.32" stop-color="#E9C562"/>
<stop offset="0.5477" stop-color="#F0D794"/>
<stop offset="1" stop-color="#E9C562"/>
</linearGradient>
<linearGradient id="paint19_linear_1455_29363" x1="5.39361" y1="23.1142" x2="197.706" y2="1.80388" gradientUnits="userSpaceOnUse">
<stop stop-color="#BFA150"/>
<stop offset="0.32" stop-color="#E9C562"/>
<stop offset="0.5477" stop-color="#F0D794"/>
<stop offset="1" stop-color="#E9C562"/>
</linearGradient>
<linearGradient id="paint20_linear_1455_29363" x1="8.52276" y1="9.96417" x2="200.837" y2="-11.3463" gradientUnits="userSpaceOnUse">
<stop stop-color="#BFA150"/>
<stop offset="0.32" stop-color="#E9C562"/>
<stop offset="0.5477" stop-color="#F0D794"/>
<stop offset="1" stop-color="#E9C562"/>
</linearGradient>
<linearGradient id="paint21_linear_1455_29363" x1="5.55171" y1="24.5402" x2="197.864" y2="3.22992" gradientUnits="userSpaceOnUse">
<stop stop-color="#BFA150"/>
<stop offset="0.32" stop-color="#E9C562"/>
<stop offset="0.5477" stop-color="#F0D794"/>
<stop offset="1" stop-color="#E9C562"/>
</linearGradient>
<linearGradient id="paint22_linear_1455_29363" x1="-50.894" y1="22.4646" x2="141.419" y2="1.15426" gradientUnits="userSpaceOnUse">
<stop stop-color="#BFA150"/>
<stop offset="0.32" stop-color="#E9C562"/>
<stop offset="0.5477" stop-color="#F0D794"/>
<stop offset="1" stop-color="#E9C562"/>
</linearGradient>
<linearGradient id="paint23_linear_1455_29363" x1="6.98343" y1="37.4605" x2="199.296" y2="16.1502" gradientUnits="userSpaceOnUse">
<stop stop-color="#BFA150"/>
<stop offset="0.32" stop-color="#E9C562"/>
<stop offset="0.5477" stop-color="#F0D794"/>
<stop offset="1" stop-color="#E9C562"/>
</linearGradient>
<linearGradient id="paint24_linear_1455_29363" x1="167.778" y1="44.6759" x2="160.521" y2="49.8325" gradientUnits="userSpaceOnUse">
<stop stop-color="#BFA150"/>
<stop offset="1" stop-color="white"/>
</linearGradient>
<linearGradient id="paint25_linear_1455_29363" x1="136.776" y1="48.083" x2="144.702" y2="40.3481" gradientUnits="userSpaceOnUse">
<stop stop-color="white"/>
<stop offset="1" stop-color="#BFA150"/>
</linearGradient>
<linearGradient id="paint26_linear_1455_29363" x1="97.694" y1="36.245" x2="94.8032" y2="38.0884" gradientUnits="userSpaceOnUse">
<stop stop-color="white"/>
<stop offset="1" stop-color="#BFA150"/>
</linearGradient>
<linearGradient id="paint27_linear_1455_29363" x1="88.8879" y1="41.7111" x2="92.9435" y2="38.4502" gradientUnits="userSpaceOnUse">
<stop stop-color="white"/>
<stop offset="1" stop-color="#BFA150"/>
</linearGradient>
<linearGradient id="paint28_linear_1455_29363" x1="60.0337" y1="53.1207" x2="60.1101" y2="45.4002" gradientUnits="userSpaceOnUse">
<stop stop-color="white"/>
<stop offset="1" stop-color="#BFA150"/>
</linearGradient>
<linearGradient id="paint29_linear_1455_29363" x1="19.5688" y1="48.6703" x2="26.0663" y2="45.9948" gradientUnits="userSpaceOnUse">
<stop stop-color="white"/>
<stop offset="1" stop-color="#BFA150"/>
</linearGradient>
<linearGradient id="paint30_linear_1455_29363" x1="43.5408" y1="72.5677" x2="159.903" y2="72.5677" gradientUnits="userSpaceOnUse">
<stop stop-color="#BFA150"/>
<stop offset="0.32" stop-color="#E9C562"/>
<stop offset="0.5477" stop-color="#F0D794"/>
<stop offset="1" stop-color="#E9C562"/>
</linearGradient>
<linearGradient id="paint31_linear_1455_29363" x1="43.5408" y1="72.5677" x2="159.904" y2="72.5677" gradientUnits="userSpaceOnUse">
<stop stop-color="#BFA150"/>
<stop offset="0.32" stop-color="#E9C562"/>
<stop offset="0.5477" stop-color="#F0D794"/>
<stop offset="1" stop-color="#E9C562"/>
</linearGradient>
<linearGradient id="paint32_linear_1455_29363" x1="43.5409" y1="72.5677" x2="159.904" y2="72.5677" gradientUnits="userSpaceOnUse">
<stop stop-color="#BFA150"/>
<stop offset="0.32" stop-color="#E9C562"/>
<stop offset="0.5477" stop-color="#F0D794"/>
<stop offset="1" stop-color="#E9C562"/>
</linearGradient>
<linearGradient id="paint33_linear_1455_29363" x1="43.5408" y1="72.5677" x2="159.904" y2="72.5677" gradientUnits="userSpaceOnUse">
<stop stop-color="#BFA150"/>
<stop offset="0.32" stop-color="#E9C562"/>
<stop offset="0.5477" stop-color="#F0D794"/>
<stop offset="1" stop-color="#E9C562"/>
</linearGradient>
<linearGradient id="paint34_linear_1455_29363" x1="43.5408" y1="72.5682" x2="159.904" y2="72.5682" gradientUnits="userSpaceOnUse">
<stop stop-color="#BFA150"/>
<stop offset="0.32" stop-color="#E9C562"/>
<stop offset="0.5477" stop-color="#F0D794"/>
<stop offset="1" stop-color="#E9C562"/>
</linearGradient>
<linearGradient id="paint35_linear_1455_29363" x1="43.5407" y1="72.5677" x2="159.904" y2="72.5677" gradientUnits="userSpaceOnUse">
<stop stop-color="#BFA150"/>
<stop offset="0.32" stop-color="#E9C562"/>
<stop offset="0.5477" stop-color="#F0D794"/>
<stop offset="1" stop-color="#E9C562"/>
</linearGradient>
<linearGradient id="paint36_linear_1455_29363" x1="43.5407" y1="72.5677" x2="159.904" y2="72.5677" gradientUnits="userSpaceOnUse">
<stop stop-color="#BFA150"/>
<stop offset="0.32" stop-color="#E9C562"/>
<stop offset="0.5477" stop-color="#F0D794"/>
<stop offset="1" stop-color="#E9C562"/>
</linearGradient>
<linearGradient id="paint37_linear_1455_29363" x1="43.541" y1="72.5677" x2="159.904" y2="72.5677" gradientUnits="userSpaceOnUse">
<stop stop-color="#BFA150"/>
<stop offset="0.32" stop-color="#E9C562"/>
<stop offset="0.5477" stop-color="#F0D794"/>
<stop offset="1" stop-color="#E9C562"/>
</linearGradient>
<linearGradient id="paint38_linear_1455_29363" x1="43.5409" y1="72.5682" x2="159.904" y2="72.5682" gradientUnits="userSpaceOnUse">
<stop stop-color="#BFA150"/>
<stop offset="0.32" stop-color="#E9C562"/>
<stop offset="0.5477" stop-color="#F0D794"/>
<stop offset="1" stop-color="#E9C562"/>
</linearGradient>
<linearGradient id="paint39_linear_1455_29363" x1="43.5409" y1="72.5678" x2="159.904" y2="72.5678" gradientUnits="userSpaceOnUse">
<stop stop-color="#BFA150"/>
<stop offset="0.32" stop-color="#E9C562"/>
<stop offset="0.5477" stop-color="#F0D794"/>
<stop offset="1" stop-color="#E9C562"/>
</linearGradient>
<linearGradient id="paint40_linear_1455_29363" x1="43.5409" y1="72.5677" x2="159.904" y2="72.5677" gradientUnits="userSpaceOnUse">
<stop stop-color="#BFA150"/>
<stop offset="0.32" stop-color="#E9C562"/>
<stop offset="0.5477" stop-color="#F0D794"/>
<stop offset="1" stop-color="#E9C562"/>
</linearGradient>
<linearGradient id="paint41_linear_1455_29363" x1="43.5409" y1="72.5677" x2="159.904" y2="72.5677" gradientUnits="userSpaceOnUse">
<stop stop-color="#BFA150"/>
<stop offset="0.32" stop-color="#E9C562"/>
<stop offset="0.5477" stop-color="#F0D794"/>
<stop offset="1" stop-color="#E9C562"/>
</linearGradient>
<linearGradient id="paint42_linear_1455_29363" x1="43.5409" y1="72.5682" x2="159.904" y2="72.5682" gradientUnits="userSpaceOnUse">
<stop stop-color="#BFA150"/>
<stop offset="0.32" stop-color="#E9C562"/>
<stop offset="0.5477" stop-color="#F0D794"/>
<stop offset="1" stop-color="#E9C562"/>
</linearGradient>
<linearGradient id="paint43_linear_1455_29363" x1="43.5409" y1="72.5682" x2="159.904" y2="72.5682" gradientUnits="userSpaceOnUse">
<stop stop-color="#BFA150"/>
<stop offset="0.32" stop-color="#E9C562"/>
<stop offset="0.5477" stop-color="#F0D794"/>
<stop offset="1" stop-color="#E9C562"/>
</linearGradient>
<linearGradient id="paint44_linear_1455_29363" x1="43.5404" y1="72.5677" x2="159.903" y2="72.5677" gradientUnits="userSpaceOnUse">
<stop stop-color="#BFA150"/>
<stop offset="0.32" stop-color="#E9C562"/>
<stop offset="0.5477" stop-color="#F0D794"/>
<stop offset="1" stop-color="#E9C562"/>
</linearGradient>
<linearGradient id="paint45_linear_1455_29363" x1="43.5409" y1="72.5677" x2="159.904" y2="72.5677" gradientUnits="userSpaceOnUse">
<stop stop-color="#BFA150"/>
<stop offset="0.32" stop-color="#E9C562"/>
<stop offset="0.5477" stop-color="#F0D794"/>
<stop offset="1" stop-color="#E9C562"/>
</linearGradient>
<linearGradient id="paint46_linear_1455_29363" x1="-0.00451737" y1="72.5325" x2="34.6291" y2="72.5325" gradientUnits="userSpaceOnUse">
<stop stop-color="#BFA150"/>
<stop offset="0.32" stop-color="#E9C562"/>
<stop offset="0.5477" stop-color="#F0D794"/>
<stop offset="1" stop-color="#E9C562"/>
</linearGradient>
<linearGradient id="paint47_linear_1455_29363" x1="-0.390618" y1="72.5325" x2="35.0152" y2="72.5325" gradientUnits="userSpaceOnUse">
<stop stop-color="#BFA150"/>
<stop offset="0.32" stop-color="#E9C562"/>
<stop offset="0.5477" stop-color="#F0D794"/>
<stop offset="1" stop-color="#E9C562"/>
</linearGradient>
<linearGradient id="paint48_linear_1455_29363" x1="165.371" y1="72.5325" x2="200.004" y2="72.5325" gradientUnits="userSpaceOnUse">
<stop stop-color="#BFA150"/>
<stop offset="0.32" stop-color="#E9C562"/>
<stop offset="0.5477" stop-color="#F0D794"/>
<stop offset="1" stop-color="#E9C562"/>
</linearGradient>
<linearGradient id="paint49_linear_1455_29363" x1="164.985" y1="72.5325" x2="200.391" y2="72.5325" gradientUnits="userSpaceOnUse">
<stop stop-color="#BFA150"/>
<stop offset="0.32" stop-color="#E9C562"/>
<stop offset="0.5477" stop-color="#F0D794"/>
<stop offset="1" stop-color="#E9C562"/>
</linearGradient>
</defs>
</svg>
