<svg width="14" height="16" viewBox="0 0 14 16" fill="none" xmlns="http://www.w3.org/2000/svg">
<path d="M0.202466 15.5951H0.887465V14.7076L1.22997 14.4551H10.04L10.385 14.7126V15.5951H10.565L10.575 14.8901L10.875 14.7076L11.2425 14.9251C11.2575 14.9351 11.275 14.9401 11.2925 14.9401C11.31 14.9401 11.3275 14.9351 11.345 14.9251L11.71 14.7076L12.075 14.9251C12.09 14.9351 12.11 14.9401 12.1275 14.9401C12.145 14.9401 12.165 14.9351 12.18 14.9251L12.545 14.7076L12.8575 14.9126V15.5951H13.7625C13.875 15.5951 13.965 15.6851 13.965 15.7976C13.965 15.9101 13.875 16.0001 13.7625 16.0001H0.202466C0.0899658 16.0001 -3.43323e-05 15.9101 -3.43323e-05 15.7976C-3.43323e-05 15.6876 0.0924664 15.5951 0.202466 15.5951ZM9.09247 15.5951H9.70747V15.1776C9.70747 14.9876 9.56997 14.8326 9.39997 14.8326C9.22997 14.8326 9.09247 14.9876 9.09247 15.1776V15.5951ZM7.57997 15.5951H8.19747V15.1776C8.19747 14.9876 8.05997 14.8326 7.88997 14.8326C7.71997 14.8326 7.58247 14.9876 7.58247 15.1776V15.5951H7.57997ZM6.06747 15.5951H6.68497V15.1776C6.68497 14.9876 6.54747 14.8326 6.37747 14.8326C6.20747 14.8326 6.06997 14.9876 6.06997 15.1776V15.5951H6.06747ZM4.55497 15.5951H5.17247V15.1776C5.17247 14.9876 5.03497 14.8326 4.86497 14.8326C4.69497 14.8326 4.55747 14.9876 4.55747 15.1776V15.5951H4.55497ZM3.04247 15.5951H3.65997V15.1776C3.65997 14.9876 3.52247 14.8326 3.35247 14.8326C3.18247 14.8326 3.04497 14.9876 3.04497 15.1776V15.5951H3.04247ZM1.53247 15.5951H2.14997V15.1776C2.14997 14.9876 2.01247 14.8326 1.84247 14.8326C1.67247 14.8326 1.53497 14.9876 1.53497 15.1776V15.5951H1.53247Z" fill="#FFD54F"/>
<path d="M5.62003 7.48219C5.54253 7.48219 5.46753 7.47719 5.39003 7.46469L5.32253 7.43469C5.32253 7.43469 5.37503 7.33219 5.38253 7.32219C5.43003 7.23219 5.48253 7.14719 5.54503 7.06469V6.27469C5.54503 6.22219 5.58753 6.17969 5.64003 6.17969C5.69253 6.17969 5.73503 6.22219 5.73503 6.27469V7.06719C5.79753 7.14969 5.85003 7.23719 5.89253 7.31719L5.96753 7.44219L5.88503 7.45719C5.79503 7.47469 5.70753 7.48219 5.62003 7.48219Z" fill="#FFD54F"/>
<path d="M1.55491 12.2275C1.54991 9.5825 3.86741 8.3125 4.85741 7.77L4.89741 7.7475C5.03241 7.6725 5.12491 7.62 5.18991 7.5775L5.20741 7.565L5.22991 7.57C5.37241 7.605 5.49991 7.6225 5.62491 7.6225C5.75241 7.6225 5.88991 7.605 6.03491 7.5675L6.05741 7.5625L6.07491 7.575C6.14491 7.62 6.24741 7.68 6.41741 7.77C7.40741 8.3125 9.72241 9.58 9.71491 12.2225L9.72241 12.98H1.54741L1.55491 12.2275Z" fill="#FFD54F"/>
<path d="M11.2375 14.1566C11.2525 14.1666 11.2725 14.1716 11.29 14.1716C11.3075 14.1716 11.325 14.1666 11.3425 14.1591L11.7075 13.9391L12.07 14.1591C12.085 14.1691 12.105 14.1741 12.1225 14.1741C12.14 14.1741 12.16 14.1691 12.175 14.1616L12.54 13.9416L12.8575 14.1391V14.6616L12.5925 14.5041C12.5775 14.4941 12.5575 14.4891 12.54 14.4891C12.5225 14.4891 12.505 14.4941 12.49 14.5016L12.1225 14.7216L11.76 14.5016C11.745 14.4916 11.725 14.4866 11.7075 14.4866C11.69 14.4866 11.67 14.4916 11.655 14.4991L11.29 14.7191L10.9275 14.4991C10.9125 14.4891 10.8925 14.4841 10.875 14.4841C10.8575 14.4841 10.84 14.4891 10.8225 14.4966L10.56 14.6566V14.6116L10.5725 14.1141L10.8725 13.9316L11.2375 14.1566Z" fill="#FFD54F"/>
<path d="M10.56 13.8455L10.5725 13.3505L10.8725 13.168L11.24 13.3855C11.255 13.3955 11.2725 13.4005 11.29 13.4005C11.3075 13.4005 11.325 13.3955 11.3425 13.3855L11.7075 13.168L12.0725 13.3855C12.0875 13.3955 12.1075 13.4005 12.125 13.4005C12.1425 13.4005 12.1625 13.3955 12.1775 13.3855L12.5425 13.168L12.8575 13.3705V13.893L12.5925 13.733C12.5775 13.723 12.56 13.718 12.5425 13.718C12.525 13.718 12.505 13.723 12.49 13.733L12.1225 13.953L11.76 13.733C11.745 13.723 11.725 13.718 11.7075 13.718C11.69 13.718 11.67 13.723 11.655 13.7305L11.29 13.9505L10.9275 13.7305C10.9125 13.7205 10.8925 13.7155 10.875 13.7155C10.8575 13.7155 10.84 13.7205 10.8225 13.728L10.56 13.8855V13.8455Z" fill="#FFD54F"/>
<path d="M10.56 13.0745L10.5725 12.577L10.8725 12.3945L11.2375 12.6145C11.2525 12.6245 11.2725 12.6295 11.29 12.6295C11.3075 12.6295 11.325 12.6245 11.3425 12.617L11.7075 12.397L12.07 12.617C12.085 12.627 12.105 12.632 12.1225 12.632C12.14 12.632 12.16 12.627 12.175 12.6195L12.54 12.3995L12.8575 12.597V13.1195L12.5925 12.962C12.5775 12.952 12.5575 12.947 12.54 12.947C12.5225 12.947 12.505 12.952 12.49 12.962L12.1225 13.1795L11.7575 12.962C11.7425 12.952 11.7225 12.947 11.705 12.947C11.6875 12.947 11.6675 12.952 11.6525 12.962L11.29 13.1795L10.925 12.962C10.91 12.952 10.8925 12.947 10.8725 12.947C10.855 12.947 10.8375 12.952 10.82 12.962L10.5575 13.1195V13.0745H10.56Z" fill="#FFD54F"/>
<path d="M10.56 12.305L10.5725 11.8075L10.8725 11.625L11.2375 11.845C11.2525 11.855 11.2725 11.86 11.29 11.86C11.3075 11.86 11.325 11.855 11.3425 11.8475L11.7075 11.6275L12.07 11.8475C12.085 11.8575 12.105 11.8625 12.1225 11.8625C12.14 11.8625 12.16 11.8575 12.175 11.85L12.54 11.625L12.8575 11.8275V12.35L12.5925 12.19C12.5775 12.18 12.5575 12.175 12.54 12.175C12.5225 12.175 12.505 12.18 12.49 12.1875L12.1225 12.4075L11.76 12.1875C11.745 12.1775 11.725 12.1725 11.7075 12.1725C11.69 12.1725 11.67 12.1775 11.655 12.185L11.29 12.405L10.9275 12.185C10.9125 12.175 10.8925 12.17 10.875 12.17C10.8575 12.17 10.84 12.175 10.8225 12.1825L10.56 12.3425V12.305Z" fill="#FFD54F"/>
<path d="M10.56 10.9727H12.8575V11.5802L12.5925 11.4202C12.5775 11.4102 12.5575 11.4052 12.54 11.4052C12.5225 11.4052 12.505 11.4102 12.49 11.4202L12.1225 11.6377L11.7575 11.4202C11.7425 11.4102 11.7225 11.4052 11.705 11.4052C11.6875 11.4052 11.6675 11.4102 11.6525 11.4202L11.2875 11.6377L10.9225 11.4202C10.9075 11.4102 10.89 11.4052 10.87 11.4052C10.8525 11.4052 10.835 11.4102 10.8175 11.4202L10.555 11.5777V10.9727H10.56Z" fill="#FFD54F"/>
<path d="M10.2324 10.3555H13.1824L13.1349 10.433L12.8849 10.7955H10.4999L10.2324 10.3555Z" fill="#FFD54F"/>
<path d="M10.1775 9.57242H10.855V6.84992L10.8775 6.84742C11.1525 6.81242 11.4325 6.79492 11.71 6.79492C11.9875 6.79492 12.2675 6.81242 12.545 6.84742L12.565 6.84992V9.56992H13.24V10.1999H10.175V9.57242H10.1775Z" fill="#FFD54F"/>
<path d="M11.7075 3.215C11.39 3.215 11.0725 3.245 10.7575 3.305L10.6975 3.3175V3.0575L10.7175 3.0325L10.7375 3.0275C10.885 2.9975 11.0325 2.9775 11.1825 2.9625V1.8425C11.1825 1.705 11.2375 1.57 11.3375 1.4675C11.3875 1.42 11.445 1.3825 11.5075 1.355V1.0475C11.5075 0.994999 11.53 0.942499 11.5675 0.904999C11.5825 0.889999 11.6025 0.879999 11.62 0.869999V0.0874999C11.62 0.04 11.66 0 11.7075 0C11.755 0 11.795 0.04 11.795 0.0874999V0.867499C11.8625 0.899999 11.9075 0.967499 11.9075 1.045V1.355C12.1 1.4375 12.2325 1.625 12.2325 1.8425V2.9625C12.385 2.98 12.54 3 12.6975 3.0325L12.7175 3.0375V3.32L12.6575 3.3075C12.345 3.245 12.025 3.215 11.7075 3.215Z" fill="#FFD54F"/>
<path d="M11.7075 3.36719C12.0025 3.36719 12.3 3.39469 12.5925 3.44469L12.6675 3.45719L12.51 3.70469L12.485 3.71719L12.47 3.71469C12.205 3.68219 11.9475 3.66719 11.7075 3.66719C11.465 3.66719 11.215 3.68219 10.93 3.71719L10.915 3.71969L10.745 3.45969L10.82 3.44719C11.115 3.39219 11.4125 3.36719 11.7075 3.36719Z" fill="#FFD54F"/>
<path d="M11.7076 6.0957C11.3351 6.0957 10.9626 6.1307 10.5951 6.2032L10.5351 6.2157V5.8882L10.5551 5.8632L10.5751 5.8582C10.7076 5.8307 10.8451 5.8157 10.9801 5.7982V3.8907L11.0026 3.8882C11.2351 3.8607 11.4726 3.8457 11.7101 3.8457C11.9451 3.8457 12.1826 3.8607 12.4176 3.8882L12.4401 3.8907V5.7932C12.5801 5.8107 12.7201 5.8332 12.8651 5.8607L12.8826 5.8682V6.2157L12.8226 6.2032C12.4551 6.1332 12.0776 6.0957 11.7076 6.0957Z" fill="#FFD54F"/>
<path d="M11.7075 6.25C12.0575 6.25 12.41 6.2825 12.7575 6.3475L12.8325 6.36L12.6375 6.665L12.6125 6.6775L12.5975 6.675C12.3025 6.6375 12.005 6.6175 11.71 6.6175C11.415 6.6175 11.1175 6.6375 10.8225 6.675L10.79 6.68L10.5825 6.3625L10.6575 6.3475C11.005 6.2825 11.3575 6.25 11.7075 6.25Z" fill="#FFD54F"/>
<path d="M9.06754 13.811C9.06754 13.6385 8.93004 13.4985 8.76254 13.4985C8.59504 13.4985 8.45754 13.6385 8.45754 13.811V14.276H7.57004V13.811C7.57004 13.6385 7.43254 13.4985 7.26504 13.4985C7.09754 13.4985 6.96004 13.6385 6.96004 13.811V14.276H6.07504V13.811C6.07504 13.6385 5.93754 13.4985 5.77004 13.4985C5.60254 13.4985 5.46504 13.6385 5.46504 13.811V14.276H4.58004V13.811C4.58004 13.6385 4.44254 13.4985 4.27504 13.4985C4.10754 13.4985 3.97004 13.6385 3.97004 13.811V14.276H3.08254V13.811C3.08254 13.6385 2.94754 13.4985 2.78004 13.4985C2.61254 13.4985 2.47504 13.6385 2.47504 13.811V14.276H1.29004V13.4335L1.50754 13.166H9.76504L9.98254 13.4335V14.276H9.06504V13.811H9.06754Z" fill="#FFD54F"/>
</svg>
