<svg width="14" height="16" viewBox="0 0 14 16" fill="none" xmlns="http://www.w3.org/2000/svg">
<path d="M0.220166 15.5951H0.905166V14.7076L1.24767 14.4551H10.0577L10.4027 14.7126V15.5951H10.5827L10.5927 14.8901L10.8927 14.7076L11.2602 14.9251C11.2752 14.9351 11.2927 14.9401 11.3102 14.9401C11.3277 14.9401 11.3452 14.9351 11.3627 14.9251L11.7277 14.7076L12.0927 14.9251C12.1077 14.9351 12.1277 14.9401 12.1452 14.9401C12.1627 14.9401 12.1827 14.9351 12.1977 14.9251L12.5627 14.7076L12.8752 14.9126V15.5951H13.7802C13.8927 15.5951 13.9827 15.6851 13.9827 15.7976C13.9827 15.9101 13.8927 16.0001 13.7802 16.0001H0.220166C0.107666 16.0001 0.0176659 15.9101 0.0176659 15.7976C0.0176659 15.6876 0.110167 15.5951 0.220166 15.5951ZM9.11017 15.5951H9.72517V15.1776C9.72517 14.9876 9.58767 14.8326 9.41767 14.8326C9.24767 14.8326 9.11017 14.9876 9.11017 15.1776V15.5951ZM7.59767 15.5951H8.21517V15.1776C8.21517 14.9876 8.07767 14.8326 7.90767 14.8326C7.73767 14.8326 7.60017 14.9876 7.60017 15.1776V15.5951H7.59767ZM6.08517 15.5951H6.70267V15.1776C6.70267 14.9876 6.56517 14.8326 6.39517 14.8326C6.22517 14.8326 6.08767 14.9876 6.08767 15.1776V15.5951H6.08517ZM4.57267 15.5951H5.19017V15.1776C5.19017 14.9876 5.05267 14.8326 4.88267 14.8326C4.71267 14.8326 4.57517 14.9876 4.57517 15.1776V15.5951H4.57267ZM3.06017 15.5951H3.67767V15.1776C3.67767 14.9876 3.54017 14.8326 3.37017 14.8326C3.20017 14.8326 3.06267 14.9876 3.06267 15.1776V15.5951H3.06017ZM1.55017 15.5951H2.16767V15.1776C2.16767 14.9876 2.03017 14.8326 1.86017 14.8326C1.69017 14.8326 1.55267 14.9876 1.55267 15.1776V15.5951H1.55017Z" fill="#004D40"/>
<path d="M5.63785 7.48219C5.56035 7.48219 5.48535 7.47719 5.40785 7.46469L5.34035 7.43469C5.34035 7.43469 5.39285 7.33219 5.40035 7.32219C5.44785 7.23219 5.50035 7.14719 5.56285 7.06469V6.27469C5.56285 6.22219 5.60535 6.17969 5.65785 6.17969C5.71035 6.17969 5.75285 6.22219 5.75285 6.27469V7.06719C5.81535 7.14969 5.86785 7.23719 5.91035 7.31719L5.98535 7.44219L5.90285 7.45719C5.81285 7.47469 5.72535 7.48219 5.63785 7.48219Z" fill="#004D40"/>
<path d="M1.57273 12.2275C1.56773 9.5825 3.88523 8.3125 4.87523 7.77L4.91523 7.7475C5.05023 7.6725 5.14274 7.62 5.20774 7.5775L5.22523 7.565L5.24774 7.57C5.39023 7.605 5.51773 7.6225 5.64273 7.6225C5.77023 7.6225 5.90773 7.605 6.05273 7.5675L6.07523 7.5625L6.09273 7.575C6.16273 7.62 6.26523 7.68 6.43524 7.77C7.42524 8.3125 9.74023 9.58 9.73273 12.2225L9.74023 12.98H1.56523L1.57273 12.2275Z" fill="#004D40"/>
<path d="M11.2552 14.1566C11.2702 14.1666 11.2902 14.1716 11.3077 14.1716C11.3252 14.1716 11.3427 14.1666 11.3602 14.1591L11.7252 13.9391L12.0877 14.1591C12.1027 14.1691 12.1227 14.1741 12.1402 14.1741C12.1577 14.1741 12.1777 14.1691 12.1927 14.1616L12.5577 13.9416L12.8752 14.1391V14.6616L12.6102 14.5041C12.5952 14.4941 12.5752 14.4891 12.5577 14.4891C12.5402 14.4891 12.5227 14.4941 12.5077 14.5016L12.1402 14.7216L11.7777 14.5016C11.7627 14.4916 11.7427 14.4866 11.7252 14.4866C11.7077 14.4866 11.6877 14.4916 11.6727 14.4991L11.3077 14.7191L10.9452 14.4991C10.9302 14.4891 10.9102 14.4841 10.8927 14.4841C10.8752 14.4841 10.8577 14.4891 10.8402 14.4966L10.5777 14.6566V14.6116L10.5902 14.1141L10.8902 13.9316L11.2552 14.1566Z" fill="#004D40"/>
<path d="M10.5777 13.8455L10.5902 13.3505L10.8902 13.168L11.2577 13.3855C11.2727 13.3955 11.2902 13.4005 11.3077 13.4005C11.3252 13.4005 11.3427 13.3955 11.3602 13.3855L11.7252 13.168L12.0902 13.3855C12.1052 13.3955 12.1252 13.4005 12.1427 13.4005C12.1602 13.4005 12.1802 13.3955 12.1952 13.3855L12.5602 13.168L12.8752 13.3705V13.893L12.6102 13.733C12.5952 13.723 12.5777 13.718 12.5602 13.718C12.5427 13.718 12.5227 13.723 12.5077 13.733L12.1402 13.953L11.7777 13.733C11.7627 13.723 11.7427 13.718 11.7252 13.718C11.7077 13.718 11.6877 13.723 11.6727 13.7305L11.3077 13.9505L10.9452 13.7305C10.9302 13.7205 10.9102 13.7155 10.8927 13.7155C10.8752 13.7155 10.8577 13.7205 10.8402 13.728L10.5777 13.8855V13.8455Z" fill="#004D40"/>
<path d="M10.5777 13.0745L10.5902 12.577L10.8902 12.3945L11.2552 12.6145C11.2702 12.6245 11.2902 12.6295 11.3077 12.6295C11.3252 12.6295 11.3427 12.6245 11.3602 12.617L11.7252 12.397L12.0877 12.617C12.1027 12.627 12.1227 12.632 12.1402 12.632C12.1577 12.632 12.1777 12.627 12.1927 12.6195L12.5577 12.3995L12.8752 12.597V13.1195L12.6102 12.962C12.5952 12.952 12.5752 12.947 12.5577 12.947C12.5402 12.947 12.5227 12.952 12.5077 12.962L12.1402 13.1795L11.7752 12.962C11.7602 12.952 11.7402 12.947 11.7227 12.947C11.7052 12.947 11.6852 12.952 11.6702 12.962L11.3077 13.1795L10.9427 12.962C10.9277 12.952 10.9102 12.947 10.8902 12.947C10.8727 12.947 10.8552 12.952 10.8377 12.962L10.5752 13.1195V13.0745H10.5777Z" fill="#004D40"/>
<path d="M10.5777 12.305L10.5902 11.8075L10.8902 11.625L11.2552 11.845C11.2702 11.855 11.2902 11.86 11.3077 11.86C11.3252 11.86 11.3427 11.855 11.3602 11.8475L11.7252 11.6275L12.0877 11.8475C12.1027 11.8575 12.1227 11.8625 12.1402 11.8625C12.1577 11.8625 12.1777 11.8575 12.1927 11.85L12.5577 11.625L12.8752 11.8275V12.35L12.6102 12.19C12.5952 12.18 12.5752 12.175 12.5577 12.175C12.5402 12.175 12.5227 12.18 12.5077 12.1875L12.1402 12.4075L11.7777 12.1875C11.7627 12.1775 11.7427 12.1725 11.7252 12.1725C11.7077 12.1725 11.6877 12.1775 11.6727 12.185L11.3077 12.405L10.9452 12.185C10.9302 12.175 10.9102 12.17 10.8927 12.17C10.8752 12.17 10.8577 12.175 10.8402 12.1825L10.5777 12.3425V12.305Z" fill="#004D40"/>
<path d="M10.5777 10.9727H12.8752V11.5802L12.6102 11.4202C12.5952 11.4102 12.5752 11.4052 12.5577 11.4052C12.5402 11.4052 12.5227 11.4102 12.5077 11.4202L12.1402 11.6377L11.7752 11.4202C11.7602 11.4102 11.7402 11.4052 11.7227 11.4052C11.7052 11.4052 11.6852 11.4102 11.6702 11.4202L11.3052 11.6377L10.9402 11.4202C10.9252 11.4102 10.9077 11.4052 10.8877 11.4052C10.8702 11.4052 10.8527 11.4102 10.8352 11.4202L10.5727 11.5777V10.9727H10.5777Z" fill="#004D40"/>
<path d="M10.2502 10.3555H13.2002L13.1527 10.433L12.9027 10.7955H10.5177L10.2502 10.3555Z" fill="#004D40"/>
<path d="M10.1953 9.57242H10.8728V6.84992L10.8953 6.84742C11.1703 6.81242 11.4503 6.79492 11.7278 6.79492C12.0053 6.79492 12.2853 6.81242 12.5628 6.84742L12.5828 6.84992V9.56992H13.2578V10.1999H10.1928V9.57242H10.1953Z" fill="#004D40"/>
<path d="M11.7254 3.215C11.4079 3.215 11.0904 3.245 10.7754 3.305L10.7154 3.3175V3.0575L10.7354 3.0325L10.7554 3.0275C10.9029 2.9975 11.0504 2.9775 11.2004 2.9625V1.8425C11.2004 1.705 11.2554 1.57 11.3554 1.4675C11.4054 1.42 11.4629 1.3825 11.5254 1.355V1.0475C11.5254 0.994999 11.5479 0.942499 11.5854 0.904999C11.6004 0.889999 11.6204 0.879999 11.6379 0.869999V0.0874999C11.6379 0.04 11.6779 0 11.7254 0C11.7729 0 11.8129 0.04 11.8129 0.0874999V0.867499C11.8804 0.899999 11.9254 0.967499 11.9254 1.045V1.355C12.1179 1.4375 12.2504 1.625 12.2504 1.8425V2.9625C12.4029 2.98 12.5579 3 12.7154 3.0325L12.7354 3.0375V3.32L12.6754 3.3075C12.3629 3.245 12.0429 3.215 11.7254 3.215Z" fill="#004D40"/>
<path d="M11.7251 3.36719C12.0201 3.36719 12.3176 3.39469 12.6101 3.44469L12.6851 3.45719L12.5276 3.70469L12.5026 3.71719L12.4876 3.71469C12.2226 3.68219 11.9651 3.66719 11.7251 3.66719C11.4826 3.66719 11.2326 3.68219 10.9476 3.71719L10.9326 3.71969L10.7626 3.45969L10.8376 3.44719C11.1326 3.39219 11.4301 3.36719 11.7251 3.36719Z" fill="#004D40"/>
<path d="M11.7254 6.0957C11.3529 6.0957 10.9804 6.1307 10.6129 6.2032L10.5529 6.2157V5.8882L10.5729 5.8632L10.5929 5.8582C10.7254 5.8307 10.8629 5.8157 10.9979 5.7982V3.8907L11.0204 3.8882C11.2529 3.8607 11.4904 3.8457 11.7279 3.8457C11.9629 3.8457 12.2004 3.8607 12.4354 3.8882L12.4579 3.8907V5.7932C12.5979 5.8107 12.7379 5.8332 12.8829 5.8607L12.9004 5.8682V6.2157L12.8404 6.2032C12.4729 6.1332 12.0954 6.0957 11.7254 6.0957Z" fill="#004D40"/>
<path d="M11.7251 6.25C12.0751 6.25 12.4276 6.2825 12.7751 6.3475L12.8501 6.36L12.6551 6.665L12.6301 6.6775L12.6151 6.675C12.3201 6.6375 12.0226 6.6175 11.7276 6.6175C11.4326 6.6175 11.1351 6.6375 10.8401 6.675L10.8076 6.68L10.6001 6.3625L10.6751 6.3475C11.0226 6.2825 11.3751 6.25 11.7251 6.25Z" fill="#004D40"/>
<path d="M9.08524 13.811C9.08524 13.6385 8.94774 13.4985 8.78024 13.4985C8.61274 13.4985 8.47524 13.6385 8.47524 13.811V14.276H7.58774V13.811C7.58774 13.6385 7.45024 13.4985 7.28274 13.4985C7.11524 13.4985 6.97774 13.6385 6.97774 13.811V14.276H6.09274V13.811C6.09274 13.6385 5.95524 13.4985 5.78774 13.4985C5.62024 13.4985 5.48274 13.6385 5.48274 13.811V14.276H4.59774V13.811C4.59774 13.6385 4.46024 13.4985 4.29274 13.4985C4.12524 13.4985 3.98774 13.6385 3.98774 13.811V14.276H3.10024V13.811C3.10024 13.6385 2.96524 13.4985 2.79774 13.4985C2.63024 13.4985 2.49274 13.6385 2.49274 13.811V14.276H1.30774V13.4335L1.52524 13.166H9.78274L10.0002 13.4335V14.276H9.08274V13.811H9.08524Z" fill="#004D40"/>
</svg>
