<svg width="14" height="16" viewBox="0 0 14 16" fill="none" xmlns="http://www.w3.org/2000/svg">
<path d="M0.202588 15.5951H0.887588V14.7076L1.23009 14.4551H10.0401L10.3851 14.7126V15.5951H10.5651L10.5751 14.8901L10.8751 14.7076L11.2426 14.9251C11.2576 14.9351 11.2751 14.9401 11.2926 14.9401C11.3101 14.9401 11.3276 14.9351 11.3451 14.9251L11.7101 14.7076L12.0751 14.9251C12.0901 14.9351 12.1101 14.9401 12.1276 14.9401C12.1451 14.9401 12.1651 14.9351 12.1801 14.9251L12.5451 14.7076L12.8576 14.9126V15.5951H13.7626C13.8751 15.5951 13.9651 15.6851 13.9651 15.7976C13.9651 15.9101 13.8751 16.0001 13.7626 16.0001H0.202588C0.0900879 16.0001 8.7738e-05 15.9101 8.7738e-05 15.7976C8.7738e-05 15.6876 0.0925884 15.5951 0.202588 15.5951ZM9.09259 15.5951H9.70759V15.1776C9.70759 14.9876 9.57009 14.8326 9.40009 14.8326C9.23009 14.8326 9.09259 14.9876 9.09259 15.1776V15.5951ZM7.58009 15.5951H8.19759V15.1776C8.19759 14.9876 8.06009 14.8326 7.89009 14.8326C7.72009 14.8326 7.58259 14.9876 7.58259 15.1776V15.5951H7.58009ZM6.06759 15.5951H6.68509V15.1776C6.68509 14.9876 6.54759 14.8326 6.37759 14.8326C6.20759 14.8326 6.07009 14.9876 6.07009 15.1776V15.5951H6.06759ZM4.55509 15.5951H5.17259V15.1776C5.17259 14.9876 5.03509 14.8326 4.86509 14.8326C4.69509 14.8326 4.55759 14.9876 4.55759 15.1776V15.5951H4.55509ZM3.04259 15.5951H3.66009V15.1776C3.66009 14.9876 3.52259 14.8326 3.35259 14.8326C3.18259 14.8326 3.04509 14.9876 3.04509 15.1776V15.5951H3.04259ZM1.53259 15.5951H2.15009V15.1776C2.15009 14.9876 2.01259 14.8326 1.84259 14.8326C1.67259 14.8326 1.53509 14.9876 1.53509 15.1776V15.5951H1.53259Z" fill="#374868"/>
<path d="M5.62027 7.48219C5.54277 7.48219 5.46777 7.47719 5.39027 7.46469L5.32277 7.43469C5.32277 7.43469 5.37527 7.33219 5.38277 7.32219C5.43027 7.23219 5.48277 7.14719 5.54527 7.06469V6.27469C5.54527 6.22219 5.58777 6.17969 5.64027 6.17969C5.69277 6.17969 5.73527 6.22219 5.73527 6.27469V7.06719C5.79777 7.14969 5.85027 7.23719 5.89277 7.31719L5.96777 7.44219L5.88527 7.45719C5.79527 7.47469 5.70777 7.48219 5.62027 7.48219Z" fill="#374868"/>
<path d="M1.55516 12.2275C1.55016 9.5825 3.86766 8.3125 4.85766 7.77L4.89766 7.7475C5.03266 7.6725 5.12516 7.62 5.19016 7.5775L5.20766 7.565L5.23016 7.57C5.37266 7.605 5.50016 7.6225 5.62516 7.6225C5.75266 7.6225 5.89016 7.605 6.03516 7.5675L6.05766 7.5625L6.07516 7.575C6.14516 7.62 6.24766 7.68 6.41766 7.77C7.40766 8.3125 9.72266 9.58 9.71516 12.2225L9.72266 12.98H1.54766L1.55516 12.2275Z" fill="#374868"/>
<path d="M11.2377 14.1566C11.2527 14.1666 11.2727 14.1716 11.2902 14.1716C11.3077 14.1716 11.3252 14.1666 11.3427 14.1591L11.7077 13.9391L12.0702 14.1591C12.0852 14.1691 12.1052 14.1741 12.1227 14.1741C12.1402 14.1741 12.1602 14.1691 12.1752 14.1616L12.5402 13.9416L12.8577 14.1391V14.6616L12.5927 14.5041C12.5777 14.4941 12.5577 14.4891 12.5402 14.4891C12.5227 14.4891 12.5052 14.4941 12.4902 14.5016L12.1227 14.7216L11.7602 14.5016C11.7452 14.4916 11.7252 14.4866 11.7077 14.4866C11.6902 14.4866 11.6702 14.4916 11.6552 14.4991L11.2902 14.7191L10.9277 14.4991C10.9127 14.4891 10.8927 14.4841 10.8752 14.4841C10.8577 14.4841 10.8402 14.4891 10.8227 14.4966L10.5602 14.6566V14.6116L10.5727 14.1141L10.8727 13.9316L11.2377 14.1566Z" fill="#374868"/>
<path d="M10.5602 13.8455L10.5727 13.3505L10.8727 13.168L11.2402 13.3855C11.2552 13.3955 11.2727 13.4005 11.2902 13.4005C11.3077 13.4005 11.3252 13.3955 11.3427 13.3855L11.7077 13.168L12.0727 13.3855C12.0877 13.3955 12.1077 13.4005 12.1252 13.4005C12.1427 13.4005 12.1627 13.3955 12.1777 13.3855L12.5427 13.168L12.8577 13.3705V13.893L12.5927 13.733C12.5777 13.723 12.5602 13.718 12.5427 13.718C12.5252 13.718 12.5052 13.723 12.4902 13.733L12.1227 13.953L11.7602 13.733C11.7452 13.723 11.7252 13.718 11.7077 13.718C11.6902 13.718 11.6702 13.723 11.6552 13.7305L11.2902 13.9505L10.9277 13.7305C10.9127 13.7205 10.8927 13.7155 10.8752 13.7155C10.8577 13.7155 10.8402 13.7205 10.8227 13.728L10.5602 13.8855V13.8455Z" fill="#374868"/>
<path d="M10.5602 13.0745L10.5727 12.577L10.8727 12.3945L11.2377 12.6145C11.2527 12.6245 11.2727 12.6295 11.2902 12.6295C11.3077 12.6295 11.3252 12.6245 11.3427 12.617L11.7077 12.397L12.0702 12.617C12.0852 12.627 12.1052 12.632 12.1227 12.632C12.1402 12.632 12.1602 12.627 12.1752 12.6195L12.5402 12.3995L12.8577 12.597V13.1195L12.5927 12.962C12.5777 12.952 12.5577 12.947 12.5402 12.947C12.5227 12.947 12.5052 12.952 12.4902 12.962L12.1227 13.1795L11.7577 12.962C11.7427 12.952 11.7227 12.947 11.7052 12.947C11.6877 12.947 11.6677 12.952 11.6527 12.962L11.2902 13.1795L10.9252 12.962C10.9102 12.952 10.8927 12.947 10.8727 12.947C10.8552 12.947 10.8377 12.952 10.8202 12.962L10.5577 13.1195V13.0745H10.5602Z" fill="#374868"/>
<path d="M10.5602 12.305L10.5727 11.8075L10.8727 11.625L11.2377 11.845C11.2527 11.855 11.2727 11.86 11.2902 11.86C11.3077 11.86 11.3252 11.855 11.3427 11.8475L11.7077 11.6275L12.0702 11.8475C12.0852 11.8575 12.1052 11.8625 12.1227 11.8625C12.1402 11.8625 12.1602 11.8575 12.1752 11.85L12.5402 11.625L12.8577 11.8275V12.35L12.5927 12.19C12.5777 12.18 12.5577 12.175 12.5402 12.175C12.5227 12.175 12.5052 12.18 12.4902 12.1875L12.1227 12.4075L11.7602 12.1875C11.7452 12.1775 11.7252 12.1725 11.7077 12.1725C11.6902 12.1725 11.6702 12.1775 11.6552 12.185L11.2902 12.405L10.9277 12.185C10.9127 12.175 10.8927 12.17 10.8752 12.17C10.8577 12.17 10.8402 12.175 10.8227 12.1825L10.5602 12.3425V12.305Z" fill="#374868"/>
<path d="M10.5602 10.9727H12.8577V11.5802L12.5927 11.4202C12.5777 11.4102 12.5577 11.4052 12.5402 11.4052C12.5227 11.4052 12.5052 11.4102 12.4902 11.4202L12.1227 11.6377L11.7577 11.4202C11.7427 11.4102 11.7227 11.4052 11.7052 11.4052C11.6877 11.4052 11.6677 11.4102 11.6527 11.4202L11.2877 11.6377L10.9227 11.4202C10.9077 11.4102 10.8902 11.4052 10.8702 11.4052C10.8527 11.4052 10.8352 11.4102 10.8177 11.4202L10.5552 11.5777V10.9727H10.5602Z" fill="#374868"/>
<path d="M10.2326 10.3555H13.1826L13.1351 10.433L12.8851 10.7955H10.5001L10.2326 10.3555Z" fill="#374868"/>
<path d="M10.1777 9.57242H10.8552V6.84992L10.8777 6.84742C11.1527 6.81242 11.4327 6.79492 11.7102 6.79492C11.9877 6.79492 12.2677 6.81242 12.5452 6.84742L12.5652 6.84992V9.56992H13.2402V10.1999H10.1752V9.57242H10.1777Z" fill="#374868"/>
<path d="M11.7078 3.215C11.3903 3.215 11.0728 3.245 10.7578 3.305L10.6978 3.3175V3.0575L10.7178 3.0325L10.7378 3.0275C10.8853 2.9975 11.0328 2.9775 11.1828 2.9625V1.8425C11.1828 1.705 11.2378 1.57 11.3378 1.4675C11.3878 1.42 11.4453 1.3825 11.5078 1.355V1.0475C11.5078 0.994999 11.5303 0.942499 11.5678 0.904999C11.5828 0.889999 11.6028 0.879999 11.6203 0.869999V0.0874999C11.6203 0.04 11.6603 0 11.7078 0C11.7553 0 11.7953 0.04 11.7953 0.0874999V0.867499C11.8628 0.899999 11.9078 0.967499 11.9078 1.045V1.355C12.1003 1.4375 12.2328 1.625 12.2328 1.8425V2.9625C12.3853 2.98 12.5403 3 12.6978 3.0325L12.7178 3.0375V3.32L12.6578 3.3075C12.3453 3.245 12.0253 3.215 11.7078 3.215Z" fill="#374868"/>
<path d="M11.7075 3.36719C12.0025 3.36719 12.3 3.39469 12.5925 3.44469L12.6675 3.45719L12.51 3.70469L12.485 3.71719L12.47 3.71469C12.205 3.68219 11.9475 3.66719 11.7075 3.66719C11.465 3.66719 11.215 3.68219 10.93 3.71719L10.915 3.71969L10.745 3.45969L10.82 3.44719C11.115 3.39219 11.4125 3.36719 11.7075 3.36719Z" fill="#374868"/>
<path d="M11.7078 6.0957C11.3353 6.0957 10.9628 6.1307 10.5953 6.2032L10.5353 6.2157V5.8882L10.5553 5.8632L10.5753 5.8582C10.7078 5.8307 10.8453 5.8157 10.9803 5.7982V3.8907L11.0028 3.8882C11.2353 3.8607 11.4728 3.8457 11.7103 3.8457C11.9453 3.8457 12.1828 3.8607 12.4178 3.8882L12.4403 3.8907V5.7932C12.5803 5.8107 12.7203 5.8332 12.8653 5.8607L12.8828 5.8682V6.2157L12.8228 6.2032C12.4553 6.1332 12.0778 6.0957 11.7078 6.0957Z" fill="#374868"/>
<path d="M11.7075 6.25C12.0575 6.25 12.41 6.2825 12.7575 6.3475L12.8325 6.36L12.6375 6.665L12.6125 6.6775L12.5975 6.675C12.3025 6.6375 12.005 6.6175 11.71 6.6175C11.415 6.6175 11.1175 6.6375 10.8225 6.675L10.79 6.68L10.5825 6.3625L10.6575 6.3475C11.005 6.2825 11.3575 6.25 11.7075 6.25Z" fill="#374868"/>
<path d="M9.06767 13.811C9.06767 13.6385 8.93017 13.4985 8.76267 13.4985C8.59517 13.4985 8.45767 13.6385 8.45767 13.811V14.276H7.57017V13.811C7.57017 13.6385 7.43267 13.4985 7.26517 13.4985C7.09767 13.4985 6.96017 13.6385 6.96017 13.811V14.276H6.07517V13.811C6.07517 13.6385 5.93767 13.4985 5.77017 13.4985C5.60267 13.4985 5.46517 13.6385 5.46517 13.811V14.276H4.58017V13.811C4.58017 13.6385 4.44267 13.4985 4.27517 13.4985C4.10767 13.4985 3.97017 13.6385 3.97017 13.811V14.276H3.08267V13.811C3.08267 13.6385 2.94767 13.4985 2.78017 13.4985C2.61267 13.4985 2.47517 13.6385 2.47517 13.811V14.276H1.29017V13.4335L1.50767 13.166H9.76517L9.98267 13.4335V14.276H9.06517V13.811H9.06767Z" fill="#374868"/>
</svg>
