<svg width="386" height="24" viewBox="0 0 386 24" fill="none" xmlns="http://www.w3.org/2000/svg">
<path d="M205.172 14.8216C204.113 14.4577 200.182 13.1585 197.543 10.8686C196.191 9.7741 195.186 8.53103 194.598 7.55373C194.013 6.57548 193.776 5.88776 193.776 5.88776C193.776 5.88776 193.639 6.57739 193.697 7.68043C193.758 8.77775 194.101 10.2942 194.961 11.8125C195.792 13.3337 197.106 14.8502 198.537 15.978C199.947 17.1172 201.393 17.8935 202.125 18.1754C205.263 19.3042 207.215 15.5531 205.172 14.8216Z" fill="#03060E"/>
<path d="M191.118 7.04608C191.118 7.04608 190.83 7.62046 190.19 8.40535C189.546 9.18929 188.486 10.1513 187.144 10.9315C184.487 12.5936 180.989 13.1556 180.093 13.3195C178.383 13.6586 179.017 17.623 182.101 17.0029C182.813 16.8429 184.268 16.3114 185.722 15.4388C187.194 14.5806 188.595 13.3538 189.523 12.0869C190.479 10.8238 190.931 9.52648 191.07 8.58537C191.206 7.63856 191.118 7.04608 191.118 7.04608Z" fill="#03060E"/>
<path d="M194.22 16.881C193.22 14.5483 192.649 12.2889 192.649 12.2889C192.649 12.2889 191.74 14.4949 191.279 17.0144C190.766 19.5243 190.779 22.3267 191.053 23.1401C191.594 24.7918 197.304 23.806 196.825 22.3486C196.582 21.6113 195.173 19.2281 194.22 16.881Z" fill="#03060E"/>
<path d="M384.174 5.30008C381.374 5.30008 379.038 6.48885 378.315 6.89844C373.629 6.80604 368.943 6.72698 364.258 6.63267L343.387 6.3974C329.474 6.2631 315.56 6.26976 301.647 6.20404C287.733 6.27453 273.82 6.26118 259.906 6.40025C250.906 6.48693 241.905 6.6079 232.905 6.76126C232.954 6.23832 232.939 5.71729 232.786 5.22007C231.74 2.04813 228.104 0.576461 225.76 0.180207C223.287 -0.253196 221.062 0.160213 219.583 0.731733C218.063 1.31087 217.148 2.091 216.661 2.76348C215.709 4.17133 216.383 4.99242 217.044 5.08767C217.776 5.21722 218.626 4.83239 219.787 4.47614C220.906 4.12656 222.636 3.68077 224.261 3.96844C225.032 4.07322 226.743 4.7095 227.269 6.0059C227.368 6.25928 227.393 6.55457 227.35 6.867C224.288 6.92701 221.227 6.96797 218.164 7.04418C221.197 7.11943 224.228 7.15942 227.261 7.21943C227.159 7.52805 226.997 7.84716 226.713 8.17102C226.037 8.95877 224.78 9.74365 223.244 10.1485C220.043 11.0391 215.407 10.4781 211.21 8.99115C210.932 8.89685 210.657 8.77778 210.381 8.67777C210.819 8.49774 211.251 8.28246 211.636 7.98337C212.671 7.2061 213.134 5.91922 212.598 4.65711C212.327 4.02939 211.815 3.39787 210.997 2.89684C210.173 2.38914 209.107 2.08432 208.026 1.89381C205.852 1.5528 203.639 1.40326 201.231 1.33372C198.842 1.28229 196.32 1.38422 193.773 1.7538C193.254 1.82619 192.739 1.92144 192.225 2.01955C191.71 1.92144 191.196 1.82619 190.677 1.7538C188.132 1.38422 185.608 1.28229 183.22 1.33372C180.814 1.40326 178.601 1.5528 176.427 1.89381C175.346 2.08432 174.28 2.38914 173.456 2.89684C172.639 3.39787 172.126 4.02939 171.855 4.65711C171.319 5.92017 171.78 7.2061 172.816 7.98337C173.202 8.28246 173.633 8.49774 174.072 8.67777C173.795 8.77778 173.52 8.8978 173.242 8.99115C169.046 10.4781 164.409 11.04 161.209 10.1485C159.673 9.74365 158.417 8.95877 157.741 8.17102C157.471 7.86431 157.316 7.56331 157.212 7.26993C160.699 7.20801 164.184 7.13943 167.671 7.04418C164.148 6.94702 160.624 6.87844 157.101 6.81652C157.068 6.52409 157.091 6.24595 157.185 6.00686C157.711 4.71046 159.422 4.07416 160.193 3.96938C161.818 3.68172 163.547 4.12751 164.667 4.47709C165.828 4.83239 166.678 5.21721 167.41 5.08861C168.073 4.99336 168.746 4.17228 167.795 2.76443C167.307 2.09099 166.394 1.31182 164.872 0.732678C163.393 0.161158 161.167 -0.251285 158.695 0.181166C156.352 0.576468 152.716 2.04909 151.67 5.22102C151.521 5.70491 151.502 6.20975 151.543 6.7184C149.963 6.69078 148.382 6.66507 146.801 6.63363L125.931 6.39835C112.017 6.26404 98.1037 6.27071 84.1902 6.20498C70.2767 6.27547 56.3631 6.26214 42.4482 6.40121C30.8679 6.51361 19.2891 6.66983 7.70886 6.91082C7.00946 6.51266 4.65471 5.30008 1.82844 5.30008C-1.54531 5.30008 0.782208 6.08116 0.785075 7.04418C0.759277 7.04513 0.733457 7.04513 0.707659 7.04608C0.733457 7.04703 0.759277 7.04703 0.785075 7.04798C0.782208 8.01195 -1.54531 8.79207 1.82844 8.79207C4.65471 8.79207 7.00946 7.5795 7.70886 7.18134C19.2891 7.42233 30.8679 7.57949 42.4482 7.69189C56.3617 7.83096 70.2752 7.81764 84.1902 7.88812C98.1037 7.8224 112.017 7.82906 125.931 7.69476L146.801 7.45947C148.418 7.42708 150.036 7.40042 151.652 7.3728C151.879 8.31867 152.385 9.25404 153.212 10.0685C154.664 11.5096 156.832 12.667 159.531 13.2633C164.958 14.4292 170.7 13.1661 175.203 11.3334C179.803 9.48932 183.656 7.09466 187.844 5.33628C189.241 4.71333 190.72 4.24563 192.225 3.84366C193.73 4.24563 195.21 4.71333 196.606 5.33628C200.794 7.09561 204.646 9.48932 209.247 11.3334C213.75 13.1661 219.491 14.4282 224.919 13.2633C227.618 12.667 229.786 11.5096 231.238 10.0685C232.079 9.24166 232.587 8.29009 232.806 7.32898C241.838 7.48329 250.87 7.60426 259.902 7.69189C273.816 7.83096 287.729 7.81764 301.643 7.88812C315.556 7.8224 329.47 7.82906 343.383 7.69476L364.253 7.45947C368.939 7.36517 373.625 7.28612 378.31 7.19372C379.034 7.60331 381.369 8.79207 384.169 8.79207C387.546 8.79207 385.213 8.01005 385.213 7.04608C385.213 6.08212 387.549 5.30008 384.174 5.30008ZM186.362 3.64362C182.118 5.16863 178.33 7.09656 174.475 8.52822C174.029 8.3301 173.6 8.08625 173.245 7.76238C172.411 7.03179 172.156 5.89542 172.733 4.84573C173.288 3.76079 174.76 2.97209 176.732 2.78158C178.694 2.57298 180.968 2.52535 183.214 2.57583C184.875 2.61107 186.549 2.78254 188.215 3.02448C187.587 3.21785 186.968 3.42454 186.362 3.64362ZM196.239 3.02352C197.903 2.78158 199.579 2.61013 201.24 2.57488C203.486 2.5244 205.76 2.57298 207.722 2.78064C209.694 2.97114 211.166 3.75983 211.721 4.84477C212.298 5.89446 212.043 7.03083 211.209 7.76143C210.854 8.08529 210.425 8.32914 209.979 8.52726C206.124 7.0956 202.336 5.16768 198.092 3.64268C197.486 3.42455 196.867 3.21784 196.239 3.02352Z" fill="#03060E"/>
</svg>
