<svg width="142" height="33" viewBox="0 0 142 33" fill="none" xmlns="http://www.w3.org/2000/svg">
<path d="M140.869 30.7156C140.37 30.334 138.272 29.0553 137.275 28.224C136.279 27.395 134.4 25.7925 133.134 26.1493C133.134 26.1493 132.858 24.2518 130.478 24.2518C130.478 24.2518 127.795 24.1631 127.544 27.098C127.544 27.098 124.378 27.5455 122.707 28.0468C121.24 28.4901 119.361 28.6718 119.361 28.6718C119.361 28.6718 120.285 27.989 120.136 27.1289C120.024 26.5062 120.523 26.2689 120.523 26.2689C120.523 26.2689 121.591 25.9327 121.7 24.8087C121.749 24.3013 121.662 23.301 120.831 22.8061C121.445 22.2801 121.661 21.4551 121.496 20.6487C121.22 19.2854 119.93 18.5408 118.701 18.7327C118.701 18.7327 118.715 17.3916 117.351 16.8801C116.854 16.6882 115.67 16.3747 114.659 17.5184C114.659 17.5184 114.31 16.3624 112.64 16.5104C111.493 16.6135 110.926 17.6236 111.147 18.8565C111.147 18.8565 109.793 18.7719 109.255 20.2609C108.69 21.8139 110.151 22.7647 110.151 22.7647C110.151 22.7647 109.435 23.3608 109.628 24.5179C109.628 24.5179 105.148 23.2433 100.777 19.9475C100.89 19.9785 101.002 19.9886 101.109 20.0072C101.661 20.0504 102.23 19.9805 102.749 19.7783C103.096 19.6421 103.418 19.4401 103.681 19.1555C103.941 18.8646 104.283 18.3779 104.376 17.9758C104.47 17.569 104.508 17.0858 104.37 16.6821C104.283 16.4284 104.098 16.1737 103.891 16.0328C103.212 15.5621 102.162 15.8761 101.995 16.779C101.814 17.7978 102.698 18.1839 103.506 18.0396C103.746 17.9985 103.653 18.2315 103.654 18.2315C103.687 18.2315 103.431 18.6977 103.155 18.8852C102.768 19.1471 102.312 19.3039 101.855 19.3431C100.63 19.4483 99.5899 18.7717 98.4977 18.3201C96.5653 17.5225 94.5934 16.8532 92.5965 16.2825C90.5496 15.6972 88.4605 15.3063 86.3501 15.1197C83.9282 14.9077 81.4795 14.7021 79.0462 14.7021C78.0213 14.7021 72.9355 14.2854 71.5261 11.9141C71.5261 11.9141 72.6297 10.7261 72.6297 9.27062C72.6297 8.6802 72.6297 7.1396 71.3001 6.33264V6.04288C71.3001 6.04288 71.9895 5.62614 71.7991 4.25985C71.727 3.74115 71.3568 -0.333814 70.9992 0.0219745C70.6416 -0.333814 70.2734 3.74115 70.1993 4.25985C70.0089 5.62614 70.6973 6.04288 70.6973 6.04288V6.33264C69.3687 7.1396 69.3687 8.6802 69.3687 9.27062C69.3687 10.7262 70.4713 11.9141 70.4713 11.9141C69.0628 14.2855 63.976 14.7021 62.9521 14.7021C60.5187 14.7021 58.0699 14.9077 55.6481 15.1197C53.5378 15.3063 51.4487 15.6972 49.4008 16.2825C47.4039 16.8532 45.4331 17.5225 43.4985 18.3201C42.4093 18.7719 41.369 19.4483 40.1365 19.3431C39.6874 19.3039 39.2318 19.1471 38.8434 18.8852C38.5674 18.6975 38.3119 18.2315 38.3444 18.2315C38.3473 18.2315 38.253 17.9985 38.4925 18.0396C39.3019 18.1839 40.1866 17.7978 40.0038 16.779C39.8385 15.8761 38.7867 15.5621 38.1088 16.0328C37.904 16.1736 37.7146 16.4283 37.628 16.6821C37.4907 17.0858 37.5281 17.569 37.6232 17.9758C37.7155 18.3779 38.0578 18.8648 38.3212 19.1555C38.5808 19.4401 38.9009 19.6423 39.2479 19.7783C39.7671 19.9805 40.3372 20.0506 40.8891 20.0072C40.9986 19.9886 41.1084 19.9783 41.2217 19.9475C36.8502 23.2434 32.3699 24.5179 32.3699 24.5179C32.5621 23.3608 31.847 22.7647 31.847 22.7647C31.847 22.7647 33.3054 21.8139 32.745 20.2609C32.2046 18.7719 30.8519 18.8565 30.8519 18.8565C31.0721 17.6236 30.5078 16.6135 29.3616 16.5104C27.6878 16.3624 27.3388 17.5184 27.3388 17.5184C26.3284 16.3747 25.1478 16.6882 24.6458 16.8801C23.2835 17.3914 23.3027 18.7327 23.3027 18.7327C22.0682 18.5408 20.7781 19.2855 20.5021 20.6487C20.3377 21.4551 20.555 22.2801 21.1665 22.8061C20.3367 23.301 20.2494 24.3013 20.2983 24.8087C20.4118 25.9327 21.4751 26.2689 21.4751 26.2689C21.4751 26.2689 21.9741 26.5062 21.8616 27.1289C21.7136 27.989 22.6403 28.6718 22.6403 28.6718C22.6403 28.6718 20.7588 28.4903 19.2917 28.0468C17.6198 27.5455 14.4547 27.098 14.4547 27.098C14.2047 24.1631 11.5206 24.2518 11.5206 24.2518C9.14203 24.2518 8.86788 26.1493 8.86788 26.1493C7.59784 25.7925 5.71731 27.395 4.72329 28.224C3.72628 29.0553 1.62946 30.334 1.12947 30.7156C-0.58666 32.0211 0.574732 31.9634 0.574732 31.9634C1.14583 31.5385 1.74864 31.1446 2.35913 30.7837C3.0437 30.3814 3.74834 30.0103 4.45607 29.6658C6.82692 28.5273 9.3276 27.8219 11.9292 27.826C13.6051 27.826 15.2731 28.0673 16.9325 28.3025C17.7093 28.4158 18.5015 28.5107 19.2649 28.7005C19.2649 28.7005 18.1803 29.4843 18.3266 30.6867C18.4353 31.6065 18.8774 32.4088 20.9281 32.5284C20.9281 32.5284 20.3128 30.334 22.0838 29.707C22.7491 29.4761 23.5259 29.4225 24.1307 29.5895C26.8102 30.334 29.0849 30.5693 31.5827 30.2846C32.3941 30.1918 33.2278 30.0824 34.0085 29.8557C35.7563 29.3421 37.4763 28.6656 39.1194 27.8427C39.1194 27.8427 38.4367 29.9258 39.0597 31.0127C39.2867 31.4005 40.2635 31.8646 41.0509 31.1014C41.5537 30.625 41.5325 29.6308 40.8336 29.3504C40.1654 29.0905 39.5405 29.9444 39.5876 29.0554C39.6212 28.4552 39.7673 27.8426 40.1779 27.4074C40.6317 26.9351 41.2498 26.6546 41.8191 26.3679C42.6497 25.9472 43.4641 25.4832 44.2909 25.048C44.4408 24.9676 44.5908 24.8831 44.7428 24.8087C44.8101 25.3387 44.539 26.5949 46.8877 26.7454C46.8877 26.7454 46.233 25.3387 47.501 23.9734C48.7068 22.676 50.3537 22.2223 51.9775 21.7914C51.9775 21.7914 51.6728 22.5586 52.0334 23.4228C52.0334 23.4228 53.6889 21.7914 56.3146 21.3459C56.7559 21.2696 57.8355 21.1086 59.8594 21.4615C59.8594 21.4615 56.6251 21.6738 51.9833 26.3309C50.8575 27.457 49.4241 27.5147 49.4241 27.5147C49.9221 28.1664 51.2872 28.5211 52.838 28.1066C52.838 28.1066 53.7581 30.4765 55.1541 30.7486C55.6224 30.8352 56.5481 30.73 56.7577 29.707C56.9423 28.8202 56.2097 28.317 55.6252 28.317C55.0464 28.317 54.6177 28.6801 54.5503 29.1151C54.4964 29.4225 54.4936 29.5606 54.3013 29.4142C54.1061 29.2616 52.8379 27.5744 54.4936 25.2026C54.8819 24.6436 59.1383 20.1001 63.9751 23.0391C63.9213 23.004 63.7281 23.0823 63.676 23.0947C63.4204 23.171 63.157 23.2659 62.9118 23.3814C62.2666 23.7094 61.6368 24.3219 61.4215 25.0664C61.1465 25.9883 61.5426 27.1681 62.5512 27.2568C63.2107 27.3145 63.7096 26.7598 63.7818 26.3555C63.8885 25.7719 63.6694 25.0067 63.0377 24.9035C61.8262 24.7077 63.6165 22.9484 65.6355 23.9239C66.5679 24.3796 68.9514 26.0914 69.8927 28.552C69.8927 28.552 68.8168 29.2924 68.9514 30.8082C69.0427 31.8003 69.7677 32.7346 70.9993 32.7346C72.231 32.7346 72.9548 31.8004 73.0462 30.8082C73.1817 29.2924 72.106 28.552 72.106 28.552C73.0462 26.0914 75.4306 24.3796 76.3642 23.9239C78.3822 22.9483 80.1714 24.7077 78.961 24.9035C78.3293 25.0067 78.112 25.7718 78.2169 26.3555C78.291 26.7598 78.7879 27.3146 79.4514 27.2568C80.4561 27.1681 80.8541 25.9885 80.5801 25.0664C80.3618 24.3219 79.731 23.7094 79.0899 23.3814C78.8418 23.2658 78.5784 23.171 78.3227 23.0947C78.2707 23.0823 78.0804 23.004 78.0237 23.0391C82.8596 20.1001 87.1159 24.6436 87.5052 25.2026C89.1657 27.5744 87.8917 29.2616 87.6975 29.4142C87.5052 29.5606 87.5024 29.4224 87.4485 29.1151C87.3802 28.6799 86.9523 28.317 86.3736 28.317C85.7891 28.317 85.0564 28.8203 85.241 29.707C85.4506 30.73 86.3764 30.8352 86.8447 30.7486C88.2435 30.4763 89.1656 28.1066 89.1656 28.1066C90.7162 28.5212 92.0768 28.1664 92.5738 27.5147C92.5738 27.5147 91.1403 27.457 90.0154 26.3309C85.3727 21.6738 82.1394 21.4615 82.1394 21.4615C84.1623 21.1088 85.2429 21.2696 85.6842 21.3459C88.3098 21.7914 89.9674 23.4228 89.9674 23.4228C90.3288 22.5586 90.0213 21.7914 90.0213 21.7914C91.6451 22.2225 93.2901 22.676 94.4996 23.9734C95.7658 25.3387 95.1092 26.7454 95.1092 26.7454C97.4589 26.5947 97.1878 25.3387 97.2559 24.8087C97.4078 24.8829 97.5578 24.9676 97.7069 25.048C98.5338 25.4832 99.3491 25.9472 100.181 26.3679C100.748 26.6546 101.367 26.9351 101.822 27.4074C102.231 27.8426 102.379 28.4552 102.412 29.0554C102.46 29.9444 101.835 29.0905 101.165 29.3504C100.467 29.6308 100.447 30.625 100.948 31.1014C101.736 31.8646 102.712 31.4005 102.939 31.0127C103.564 29.9258 102.879 27.8427 102.879 27.8427C104.522 28.6657 106.245 29.3421 107.99 29.8557C108.77 30.0825 109.604 30.1918 110.418 30.2846C112.913 30.5693 115.189 30.3341 117.87 29.5895C118.472 29.4224 119.25 29.4761 119.915 29.707C121.685 30.3341 121.071 32.5284 121.071 32.5284C123.121 32.4088 123.564 31.6065 123.677 30.6867C123.818 29.4843 122.733 28.7005 122.733 28.7005C123.501 28.5107 124.288 28.4159 125.066 28.3025C126.725 28.0673 128.394 27.826 130.07 27.826C132.67 27.8219 135.172 28.5273 137.543 29.6658C138.253 30.0103 138.954 30.3814 139.641 30.7837C140.252 31.1447 140.853 31.5385 141.428 31.9634C141.428 31.9634 142.585 32.0211 140.869 30.7156ZM47.8954 20.2568C49.9192 19.4029 52.0352 18.7554 54.1965 18.4811C55.4156 18.3388 56.6721 18.3058 57.9048 18.4151C60.1007 18.6192 62.2591 19.3618 64.1924 20.496C64.7414 20.8178 65.276 21.1726 65.7855 21.5561C66.9344 22.4182 68.041 23.3731 68.9476 24.5177C69.3967 25.0849 69.7802 25.7284 70.0541 26.4112C70.1753 26.7308 70.2839 27.0587 70.3714 27.3908C70.457 27.7208 70.4416 28.158 70.5569 28.4613C70.5569 28.4613 68.7899 23.7795 62.2627 21.4901C62.2627 21.4901 58.2026 19.6257 51.3112 21.3767C48.1875 22.1666 45.185 23.7155 42.3565 25.3077C41.3797 25.8564 40.3942 26.3947 39.3818 26.867C37.1888 27.8984 34.8833 28.913 32.5143 29.3667C30.4097 29.7669 26.1757 29.8246 24.8825 27.6075C24.8825 27.6075 24.0817 28.6861 23.051 28.224C22.3492 27.9085 21.9972 26.8237 22.7472 25.9327C22.7472 25.9327 21.3704 26.0009 20.9522 24.9035C20.8128 24.5467 20.7801 23.1216 22.5877 22.9484C22.2627 22.9752 20.6321 21.8739 21.2215 20.5518C21.8358 19.1493 23.5788 19.0916 24.4528 20.0879C24.4528 20.0879 22.9732 18.1842 24.9595 17.4015C25.3334 17.2567 26.7332 17.0742 27.3389 18.9164C27.3389 18.9164 27.6572 17.1531 28.9994 17.1618C29.83 17.169 30.7328 17.9656 30.0752 19.7146C30.0752 19.7146 31.6885 18.9761 32.2047 20.5746C32.4057 21.1913 32.2047 21.9337 31.0722 22.6226C31.0722 22.6226 32.174 23.6579 31.5962 24.7551C31.5962 24.7551 28.135 25.5719 28.834 24.1322C29.2215 23.3341 28.7676 21.8059 27.2526 21.6428C25.3749 21.4387 24.3807 23.8064 25.1538 25.1407C25.5201 25.7678 26.4824 27.2176 29.4917 27.395C31.0405 27.4878 34.0315 26.832 35.1391 26.3844C36.2466 25.943 39.0597 24.755 43.4621 22.4141C44.914 21.6407 46.3888 20.8982 47.8954 20.2568ZM45.4803 19.8526C45.4803 20.4178 45.0486 20.8735 44.5247 20.8735C43.9988 20.8735 43.5739 20.4178 43.5739 19.8526C43.5739 19.2835 43.9988 18.8297 44.5247 18.8297C45.0486 18.8297 45.4803 19.2834 45.4803 19.8526ZM94.2533 18.7637C93.6081 18.5286 92.4891 18.3285 91.8237 18.2088C88.7953 17.6453 85.5044 17.3575 82.4682 17.9551C80.3771 18.3718 78.2168 19.3411 76.4294 20.5826C74.0644 22.2243 71.2445 25.0211 70.9993 27.8095C70.7542 25.021 67.9342 22.2243 65.5682 20.5826C63.782 19.341 61.6236 18.3717 59.5305 17.9551C56.4942 17.3575 53.2033 17.6453 50.1758 18.2088C49.5057 18.3285 48.3934 18.5284 47.7453 18.7637C47.8674 18.7203 48.0635 18.4563 48.1761 18.3759C48.6472 18.0438 49.1499 17.7721 49.6586 17.5163C51.0998 16.7862 52.6284 16.3294 54.208 16.055C55.1069 15.8978 56.0251 15.7483 56.9337 15.6492C59.5535 15.3692 62.1552 15.5343 64.7703 15.2125C66.5517 14.9896 68.4727 14.555 69.9629 13.4285C70.3523 13.1325 70.7542 12.7123 70.9993 12.2714C71.2445 12.7123 71.6455 13.1325 72.0357 13.4285C73.5259 14.555 75.4469 14.9898 77.2285 15.2125C79.8435 15.5342 82.4441 15.3692 85.065 15.6492C85.9782 15.7483 86.8918 15.8978 87.7955 16.055C89.3654 16.3294 90.898 16.7862 92.3401 17.5163C92.8477 17.7721 93.3514 18.0438 93.8226 18.3759C93.9369 18.4562 94.1312 18.7202 94.2533 18.7637ZM98.4249 19.8526C98.4249 20.4178 98 20.8735 97.4741 20.8735C96.9502 20.8735 96.5185 20.4178 96.5185 19.8526C96.5185 19.2835 96.9502 18.8297 97.4741 18.8297C98 18.8297 98.4249 19.2834 98.4249 19.8526ZM118.947 28.224C117.917 28.686 117.122 27.6075 117.122 27.6075C115.823 29.8246 111.59 29.7669 109.484 29.3667C107.115 28.913 104.812 27.8982 102.617 26.867C101.602 26.3947 100.619 25.8564 99.642 25.3077C96.8134 23.7155 93.8158 22.1666 90.6825 21.3767C83.7987 19.6257 79.7348 21.4901 79.7348 21.4901C73.2078 23.7794 71.4416 28.4613 71.4416 28.4613C71.5569 28.158 71.5415 27.7208 71.6272 27.3908C71.7146 27.0587 71.8223 26.7308 71.9434 26.4112C72.2175 25.7284 72.6011 25.085 73.0509 24.5177C73.9575 23.3731 75.069 22.4182 76.213 21.5561C76.7225 21.1724 77.2572 20.8178 77.811 20.496C79.7396 19.3617 81.897 18.6191 84.0967 18.4151C85.3264 18.3058 86.583 18.3388 87.801 18.4811C89.9633 18.7555 92.0794 19.403 94.0983 20.2568C95.6097 20.8983 97.0845 21.6408 98.5363 22.4142C102.939 24.7551 105.752 25.9431 106.859 26.3845C107.971 26.8321 110.958 27.4879 112.507 27.3951C115.515 27.2178 116.477 25.7678 116.845 25.1409C117.618 23.8065 116.624 21.4388 114.745 21.6429C113.232 21.8059 112.778 23.3342 113.164 24.1324C113.859 25.572 110.403 24.7552 110.403 24.7552C109.824 23.658 110.926 22.6227 110.926 22.6227C109.793 21.9338 109.593 21.1914 109.793 20.5747C110.309 18.9763 111.923 19.7147 111.923 19.7147C111.265 17.9658 112.169 17.1691 112.998 17.1619C114.341 17.1531 114.659 18.9166 114.659 18.9166C115.263 17.0743 116.665 17.2568 117.039 17.4016C119.029 18.1843 117.546 20.088 117.546 20.088C118.419 19.0917 120.165 19.1496 120.777 20.5519C121.366 21.874 119.736 22.9753 119.416 22.9485C121.218 23.1217 121.186 24.5469 121.046 24.9036C120.628 26.0009 119.25 25.9328 119.25 25.9328C120.001 26.8237 119.655 27.9085 118.947 28.224Z" fill="#374868"/>
<path d="M71.6714 18.6356C71.8223 20.2485 72.6993 21.1973 72.6993 21.1973C71.7041 22.3832 70.9995 23.8062 70.9995 23.8062C70.9995 23.8062 70.2949 22.3831 69.2987 21.1973C69.2987 21.1973 70.1756 20.2485 70.3323 18.6356C69.0506 19.2833 68.0806 20.1288 68.0806 20.1288C65.7856 18.0271 61.3372 17.0439 61.3372 17.0439C61.3372 17.0439 65.8414 17.4513 68.5142 16.2927C68.5142 16.2927 69.2602 17.2724 70.3515 18.184C70.3525 17.4013 70.1842 16.4912 69.6851 15.4724L70.9994 14.4103L72.3136 15.4724C71.8138 16.4912 71.6444 17.4013 71.6464 18.184C72.7405 17.2724 73.4885 16.2927 73.4885 16.2927C76.1575 17.4513 80.6618 17.0439 80.6618 17.0439C80.6618 17.0439 76.2132 18.0273 73.9174 20.1288C73.9174 20.1288 72.9492 19.2833 71.6714 18.6356Z" fill="#374868"/>
</svg>
