<svg width="432" height="26" viewBox="0 0 432 26" fill="none" xmlns="http://www.w3.org/2000/svg">
<path d="M229.623 16.295C228.438 15.913 224.038 14.549 221.085 12.145C219.571 10.996 218.447 9.69101 217.789 8.66501C217.134 7.63801 216.868 6.91602 216.868 6.91602C216.868 6.91602 216.716 7.64002 216.78 8.79802C216.849 9.95002 217.232 11.542 218.195 13.136C219.125 14.733 220.596 16.325 222.197 17.509C223.775 18.705 225.393 19.52 226.213 19.816C229.724 21.001 231.909 17.063 229.623 16.295Z" fill="white"/>
<path d="M213.894 8.13184C213.894 8.13184 213.572 8.73484 212.855 9.55884C212.135 10.3818 210.948 11.3918 209.446 12.2108C206.473 13.9558 202.557 14.5458 201.555 14.7178C199.641 15.0738 200.35 19.2358 203.802 18.5848C204.599 18.4168 206.227 17.8588 207.855 16.9428C209.503 16.0418 211.07 14.7538 212.109 13.4238C213.179 12.0978 213.684 10.7358 213.84 9.74783C213.992 8.75383 213.894 8.13184 213.894 8.13184Z" fill="white"/>
<path d="M217.365 18.4567C216.246 16.0077 215.607 13.6357 215.607 13.6357C215.607 13.6357 214.591 15.9517 214.074 18.5967C213.5 21.2317 213.514 24.1737 213.821 25.0277C214.427 26.7617 220.817 25.7267 220.281 24.1967C220.009 23.4227 218.432 20.9207 217.365 18.4567Z" fill="white"/>
<path d="M429.956 6.29856C426.823 6.29856 424.209 7.54657 423.399 7.97657C418.155 7.87957 412.91 7.79656 407.667 7.69756L384.309 7.45057C368.738 7.30957 353.166 7.31657 337.594 7.24757C322.023 7.32157 306.451 7.30756 290.88 7.45356C280.807 7.54456 270.733 7.67156 260.66 7.83256C260.715 7.28356 260.699 6.73656 260.527 6.21456C259.356 2.88456 255.287 1.33956 252.664 0.923562C249.896 0.468562 247.407 0.902572 245.751 1.50257C244.049 2.11057 243.026 2.92957 242.481 3.63557C241.416 5.11357 242.169 5.97557 242.909 6.07557C243.729 6.21157 244.68 5.80757 245.979 5.43357C247.232 5.06657 249.168 4.59857 250.987 4.90057C251.85 5.01057 253.765 5.67856 254.353 7.03956C254.464 7.30556 254.491 7.61557 254.443 7.94357C251.017 8.00657 247.591 8.04957 244.163 8.12957C247.557 8.20857 250.95 8.25056 254.344 8.31356C254.23 8.63756 254.049 8.97257 253.731 9.31257C252.974 10.1396 251.567 10.9636 249.848 11.3886C246.266 12.3236 241.077 11.7346 236.381 10.1736C236.069 10.0746 235.761 9.94957 235.452 9.84457C235.943 9.65557 236.426 9.42956 236.857 9.11556C238.015 8.29956 238.533 6.94856 237.933 5.62356C237.63 4.96456 237.058 4.30157 236.142 3.77557C235.219 3.24257 234.026 2.92256 232.817 2.72256C230.383 2.36456 227.907 2.20756 225.212 2.13456C222.538 2.08056 219.715 2.18757 216.865 2.57557C216.284 2.65157 215.708 2.75156 215.133 2.85456C214.557 2.75156 213.981 2.65157 213.4 2.57557C210.551 2.18757 207.727 2.08056 205.055 2.13456C202.361 2.20756 199.885 2.36456 197.452 2.72256C196.242 2.92256 195.049 3.24257 194.127 3.77557C193.212 4.30157 192.638 4.96456 192.335 5.62356C191.735 6.94956 192.251 8.29956 193.411 9.11556C193.843 9.42956 194.325 9.65557 194.816 9.84457C194.507 9.94957 194.199 10.0756 193.888 10.1736C189.191 11.7346 184.002 12.3246 180.42 11.3886C178.701 10.9636 177.296 10.1396 176.539 9.31257C176.237 8.99057 176.064 8.67457 175.947 8.36657C179.849 8.30157 183.75 8.22957 187.653 8.12957C183.71 8.02757 179.766 7.95557 175.823 7.89057C175.786 7.58357 175.812 7.29157 175.916 7.04057C176.505 5.67957 178.42 5.01156 179.283 4.90156C181.102 4.59956 183.037 5.06756 184.291 5.43456C185.59 5.80756 186.541 6.21156 187.361 6.07656C188.102 5.97656 188.856 5.11456 187.791 3.63656C187.245 2.92956 186.224 2.11156 184.52 1.50356C182.865 0.903563 180.374 0.470569 177.607 0.924569C174.984 1.33957 170.915 2.88557 169.744 6.21557C169.577 6.72357 169.557 7.25356 169.603 7.78756C167.834 7.75856 166.065 7.73157 164.295 7.69857L140.938 7.45156C125.366 7.31056 109.795 7.31756 94.2232 7.24856C78.6516 7.32256 63.08 7.30857 47.5068 7.45457C34.5465 7.57257 21.5878 7.73657 8.62753 7.98957C7.84478 7.57157 5.20942 6.29856 2.04634 6.29856C-1.72947 6.29856 0.875425 7.11857 0.878633 8.12957C0.849761 8.13057 0.820863 8.13057 0.791991 8.13157C0.820863 8.13257 0.849761 8.13257 0.878633 8.13357C0.875425 9.14557 -1.72947 9.96456 2.04634 9.96456C5.20942 9.96456 7.84478 8.69157 8.62753 8.27357C21.5878 8.52657 34.5465 8.69156 47.5068 8.80956C63.0784 8.95556 78.65 8.94157 94.2232 9.01557C109.795 8.94657 125.366 8.95357 140.938 8.81257L164.295 8.56556C166.105 8.53156 167.916 8.50357 169.725 8.47457C169.978 9.46757 170.545 10.4496 171.47 11.3046C173.095 12.8176 175.522 14.0326 178.542 14.6586C184.616 15.8826 191.042 14.5566 196.082 12.6326C201.231 10.6966 205.542 8.18257 210.229 6.33657C211.793 5.68257 213.448 5.19157 215.133 4.76957C216.817 5.19157 218.474 5.68257 220.036 6.33657C224.723 8.18357 229.034 10.6966 234.183 12.6326C239.223 14.5566 245.648 15.8816 251.723 14.6586C254.743 14.0326 257.17 12.8176 258.795 11.3046C259.736 10.4366 260.304 9.43757 260.55 8.42857C270.658 8.59057 280.766 8.71756 290.875 8.80956C306.446 8.95556 322.018 8.94157 337.59 9.01557C353.161 8.94657 368.733 8.95357 384.304 8.81257L407.662 8.56556C412.905 8.46656 418.15 8.38357 423.394 8.28657C424.204 8.71657 426.817 9.96456 429.951 9.96456C433.73 9.96456 431.119 9.14357 431.119 8.13157C431.119 7.11957 433.733 6.29856 429.956 6.29856ZM208.571 4.55956C203.821 6.16056 199.582 8.18457 195.267 9.68757C194.768 9.47957 194.289 9.22357 193.891 8.88357C192.957 8.11657 192.672 6.92357 193.318 5.82157C193.939 4.68257 195.586 3.85456 197.793 3.65456C199.989 3.43556 202.535 3.38556 205.048 3.43856C206.907 3.47556 208.781 3.65557 210.644 3.90957C209.942 4.11257 209.249 4.32956 208.571 4.55956ZM219.625 3.90856C221.488 3.65456 223.363 3.47457 225.222 3.43757C227.735 3.38457 230.281 3.43557 232.477 3.65357C234.684 3.85357 236.331 4.68156 236.952 5.82056C237.598 6.92256 237.313 8.11556 236.379 8.88256C235.981 9.22256 235.502 9.47856 235.003 9.68656C230.688 8.18356 226.449 6.15957 221.699 4.55857C221.021 4.32957 220.328 4.11256 219.625 3.90856Z" fill="white"/>
</svg>
