<svg width="15" height="16" viewBox="0 0 15 16" fill="none" xmlns="http://www.w3.org/2000/svg">
<path d="M0.719922 15.5951H1.40492V14.7076L1.74742 14.4551H10.5574L10.9024 14.7126V15.5951H11.0824L11.0924 14.8901L11.3924 14.7076L11.7599 14.9251C11.7749 14.9351 11.7924 14.9401 11.8099 14.9401C11.8274 14.9401 11.8449 14.9351 11.8624 14.9251L12.2274 14.7076L12.5924 14.9251C12.6074 14.9351 12.6274 14.9401 12.6449 14.9401C12.6624 14.9401 12.6824 14.9351 12.6974 14.9251L13.0624 14.7076L13.3749 14.9126V15.5951H14.2799C14.3924 15.5951 14.4824 15.6851 14.4824 15.7976C14.4824 15.9101 14.3924 16.0001 14.2799 16.0001H0.719922C0.607422 16.0001 0.517422 15.9101 0.517422 15.7976C0.517422 15.6876 0.609922 15.5951 0.719922 15.5951ZM9.60992 15.5951H10.2249V15.1776C10.2249 14.9876 10.0874 14.8326 9.91742 14.8326C9.74742 14.8326 9.60992 14.9876 9.60992 15.1776V15.5951ZM8.09742 15.5951H8.71492V15.1776C8.71492 14.9876 8.57742 14.8326 8.40742 14.8326C8.23742 14.8326 8.09992 14.9876 8.09992 15.1776V15.5951H8.09742ZM6.58492 15.5951H7.20242V15.1776C7.20242 14.9876 7.06492 14.8326 6.89492 14.8326C6.72492 14.8326 6.58742 14.9876 6.58742 15.1776V15.5951H6.58492ZM5.07242 15.5951H5.68992V15.1776C5.68992 14.9876 5.55242 14.8326 5.38242 14.8326C5.21242 14.8326 5.07492 14.9876 5.07492 15.1776V15.5951H5.07242ZM3.55992 15.5951H4.17742V15.1776C4.17742 14.9876 4.03992 14.8326 3.86992 14.8326C3.69992 14.8326 3.56242 14.9876 3.56242 15.1776V15.5951H3.55992ZM2.04992 15.5951H2.66742V15.1776C2.66742 14.9876 2.52992 14.8326 2.35992 14.8326C2.18992 14.8326 2.05242 14.9876 2.05242 15.1776V15.5951H2.04992Z" fill="#03060E"/>
<path d="M6.13785 7.48219C6.06035 7.48219 5.98535 7.47719 5.90785 7.46469L5.84035 7.43469C5.84035 7.43469 5.89285 7.33219 5.90035 7.32219C5.94785 7.23219 6.00035 7.14719 6.06285 7.06469V6.27469C6.06285 6.22219 6.10535 6.17969 6.15785 6.17969C6.21035 6.17969 6.25285 6.22219 6.25285 6.27469V7.06719C6.31535 7.14969 6.36785 7.23719 6.41035 7.31719L6.48535 7.44219L6.40285 7.45719C6.31285 7.47469 6.22535 7.48219 6.13785 7.48219Z" fill="#03060E"/>
<path d="M2.07273 12.2275C2.06773 9.5825 4.38523 8.3125 5.37523 7.77L5.41523 7.7475C5.55023 7.6725 5.64274 7.62 5.70774 7.5775L5.72523 7.565L5.74774 7.57C5.89023 7.605 6.01773 7.6225 6.14273 7.6225C6.27023 7.6225 6.40773 7.605 6.55273 7.5675L6.57523 7.5625L6.59273 7.575C6.66273 7.62 6.76523 7.68 6.93524 7.77C7.92524 8.3125 10.2402 9.58 10.2327 12.2225L10.2402 12.98H2.06523L2.07273 12.2275Z" fill="#03060E"/>
<path d="M11.755 14.1566C11.77 14.1666 11.79 14.1716 11.8075 14.1716C11.825 14.1716 11.8425 14.1666 11.86 14.1591L12.225 13.9391L12.5875 14.1591C12.6025 14.1691 12.6225 14.1741 12.64 14.1741C12.6575 14.1741 12.6775 14.1691 12.6925 14.1616L13.0575 13.9416L13.375 14.1391V14.6616L13.11 14.5041C13.095 14.4941 13.075 14.4891 13.0575 14.4891C13.04 14.4891 13.0225 14.4941 13.0075 14.5016L12.64 14.7216L12.2775 14.5016C12.2625 14.4916 12.2425 14.4866 12.225 14.4866C12.2075 14.4866 12.1875 14.4916 12.1725 14.4991L11.8075 14.7191L11.445 14.4991C11.43 14.4891 11.41 14.4841 11.3925 14.4841C11.375 14.4841 11.3575 14.4891 11.34 14.4966L11.0775 14.6566V14.6116L11.09 14.1141L11.39 13.9316L11.755 14.1566Z" fill="#03060E"/>
<path d="M11.0775 13.8455L11.09 13.3505L11.39 13.168L11.7575 13.3855C11.7725 13.3955 11.79 13.4005 11.8075 13.4005C11.825 13.4005 11.8425 13.3955 11.86 13.3855L12.225 13.168L12.59 13.3855C12.605 13.3955 12.625 13.4005 12.6425 13.4005C12.66 13.4005 12.68 13.3955 12.695 13.3855L13.06 13.168L13.375 13.3705V13.893L13.11 13.733C13.095 13.723 13.0775 13.718 13.06 13.718C13.0425 13.718 13.0225 13.723 13.0075 13.733L12.64 13.953L12.2775 13.733C12.2625 13.723 12.2425 13.718 12.225 13.718C12.2075 13.718 12.1875 13.723 12.1725 13.7305L11.8075 13.9505L11.445 13.7305C11.43 13.7205 11.41 13.7155 11.3925 13.7155C11.375 13.7155 11.3575 13.7205 11.34 13.728L11.0775 13.8855V13.8455Z" fill="#03060E"/>
<path d="M11.0775 13.0745L11.09 12.577L11.39 12.3945L11.755 12.6145C11.77 12.6245 11.79 12.6295 11.8075 12.6295C11.825 12.6295 11.8425 12.6245 11.86 12.617L12.225 12.397L12.5875 12.617C12.6025 12.627 12.6225 12.632 12.64 12.632C12.6575 12.632 12.6775 12.627 12.6925 12.6195L13.0575 12.3995L13.375 12.597V13.1195L13.11 12.962C13.095 12.952 13.075 12.947 13.0575 12.947C13.04 12.947 13.0225 12.952 13.0075 12.962L12.64 13.1795L12.275 12.962C12.26 12.952 12.24 12.947 12.2225 12.947C12.205 12.947 12.185 12.952 12.17 12.962L11.8075 13.1795L11.4425 12.962C11.4275 12.952 11.41 12.947 11.39 12.947C11.3725 12.947 11.355 12.952 11.3375 12.962L11.075 13.1195V13.0745H11.0775Z" fill="#03060E"/>
<path d="M11.0775 12.305L11.09 11.8075L11.39 11.625L11.755 11.845C11.77 11.855 11.79 11.86 11.8075 11.86C11.825 11.86 11.8425 11.855 11.86 11.8475L12.225 11.6275L12.5875 11.8475C12.6025 11.8575 12.6225 11.8625 12.64 11.8625C12.6575 11.8625 12.6775 11.8575 12.6925 11.85L13.0575 11.625L13.375 11.8275V12.35L13.11 12.19C13.095 12.18 13.075 12.175 13.0575 12.175C13.04 12.175 13.0225 12.18 13.0075 12.1875L12.64 12.4075L12.2775 12.1875C12.2625 12.1775 12.2425 12.1725 12.225 12.1725C12.2075 12.1725 12.1875 12.1775 12.1725 12.185L11.8075 12.405L11.445 12.185C11.43 12.175 11.41 12.17 11.3925 12.17C11.375 12.17 11.3575 12.175 11.34 12.1825L11.0775 12.3425V12.305Z" fill="#03060E"/>
<path d="M11.0775 10.9727H13.375V11.5802L13.11 11.4202C13.095 11.4102 13.075 11.4052 13.0575 11.4052C13.04 11.4052 13.0225 11.4102 13.0075 11.4202L12.64 11.6377L12.275 11.4202C12.26 11.4102 12.24 11.4052 12.2225 11.4052C12.205 11.4052 12.185 11.4102 12.17 11.4202L11.805 11.6377L11.44 11.4202C11.425 11.4102 11.4075 11.4052 11.3875 11.4052C11.37 11.4052 11.3525 11.4102 11.335 11.4202L11.0725 11.5777V10.9727H11.0775Z" fill="#03060E"/>
<path d="M10.7502 10.3555H13.7002L13.6527 10.433L13.4027 10.7955H11.0177L10.7502 10.3555Z" fill="#03060E"/>
<path d="M10.6953 9.57242H11.3728V6.84992L11.3953 6.84742C11.6703 6.81242 11.9503 6.79492 12.2278 6.79492C12.5053 6.79492 12.7853 6.81242 13.0628 6.84742L13.0828 6.84992V9.56992H13.7578V10.1999H10.6928V9.57242H10.6953Z" fill="#03060E"/>
<path d="M12.2254 3.215C11.9079 3.215 11.5904 3.245 11.2754 3.305L11.2154 3.3175V3.0575L11.2354 3.0325L11.2554 3.0275C11.4029 2.9975 11.5504 2.9775 11.7004 2.9625V1.8425C11.7004 1.705 11.7554 1.57 11.8554 1.4675C11.9054 1.42 11.9629 1.3825 12.0254 1.355V1.0475C12.0254 0.994999 12.0479 0.942499 12.0854 0.904999C12.1004 0.889999 12.1204 0.879999 12.1379 0.869999V0.0874999C12.1379 0.04 12.1779 0 12.2254 0C12.2729 0 12.3129 0.04 12.3129 0.0874999V0.867499C12.3804 0.899999 12.4254 0.967499 12.4254 1.045V1.355C12.6179 1.4375 12.7504 1.625 12.7504 1.8425V2.9625C12.9029 2.98 13.0579 3 13.2154 3.0325L13.2354 3.0375V3.32L13.1754 3.3075C12.8629 3.245 12.5429 3.215 12.2254 3.215Z" fill="#03060E"/>
<path d="M12.2246 3.36719C12.5196 3.36719 12.8171 3.39469 13.1096 3.44469L13.1846 3.45719L13.0271 3.70469L13.0021 3.71719L12.9871 3.71469C12.7221 3.68219 12.4646 3.66719 12.2246 3.66719C11.9821 3.66719 11.7321 3.68219 11.4471 3.71719L11.4321 3.71969L11.2621 3.45969L11.3371 3.44719C11.6321 3.39219 11.9296 3.36719 12.2246 3.36719Z" fill="#03060E"/>
<path d="M12.2254 6.0957C11.8529 6.0957 11.4804 6.1307 11.1129 6.2032L11.0529 6.2157V5.8882L11.0729 5.8632L11.0929 5.8582C11.2254 5.8307 11.3629 5.8157 11.4979 5.7982V3.8907L11.5204 3.8882C11.7529 3.8607 11.9904 3.8457 12.2279 3.8457C12.4629 3.8457 12.7004 3.8607 12.9354 3.8882L12.9579 3.8907V5.7932C13.0979 5.8107 13.2379 5.8332 13.3829 5.8607L13.4004 5.8682V6.2157L13.3404 6.2032C12.9729 6.1332 12.5954 6.0957 12.2254 6.0957Z" fill="#03060E"/>
<path d="M12.2246 6.25C12.5746 6.25 12.9271 6.2825 13.2746 6.3475L13.3496 6.36L13.1546 6.665L13.1296 6.6775L13.1146 6.675C12.8196 6.6375 12.5221 6.6175 12.2271 6.6175C11.9321 6.6175 11.6346 6.6375 11.3396 6.675L11.3071 6.68L11.0996 6.3625L11.1746 6.3475C11.5221 6.2825 11.8746 6.25 12.2246 6.25Z" fill="#03060E"/>
<path d="M9.585 13.811C9.585 13.6385 9.4475 13.4985 9.28 13.4985C9.1125 13.4985 8.975 13.6385 8.975 13.811V14.276H8.0875V13.811C8.0875 13.6385 7.95 13.4985 7.7825 13.4985C7.615 13.4985 7.4775 13.6385 7.4775 13.811V14.276H6.5925V13.811C6.5925 13.6385 6.455 13.4985 6.2875 13.4985C6.12 13.4985 5.9825 13.6385 5.9825 13.811V14.276H5.0975V13.811C5.0975 13.6385 4.96 13.4985 4.7925 13.4985C4.625 13.4985 4.4875 13.6385 4.4875 13.811V14.276H3.6V13.811C3.6 13.6385 3.465 13.4985 3.2975 13.4985C3.13 13.4985 2.9925 13.6385 2.9925 13.811V14.276H1.8075V13.4335L2.025 13.166H10.2825L10.5 13.4335V14.276H9.5825V13.811H9.585Z" fill="#03060E"/>
</svg>
