<svg width="136" height="11" viewBox="0 0 136 11" fill="none" xmlns="http://www.w3.org/2000/svg">
<path d="M72.2904 6.79386C71.9172 6.62709 70.5321 6.03161 69.6025 4.98208C69.1258 4.48045 68.7718 3.91071 68.5648 3.46279C68.3588 3.01442 68.2749 2.69922 68.2749 2.69922C68.2749 2.69922 68.227 3.0153 68.2472 3.52086C68.2689 4.02379 68.3896 4.71882 68.6925 5.41472C68.9854 6.11193 69.4485 6.80696 69.9524 7.32387C70.4493 7.84601 70.9588 8.20182 71.2168 8.33105C72.3222 8.84839 73.01 7.12915 72.2904 6.79386Z" fill="#374868"/>
<path d="M67.3375 3.23047C67.3375 3.23047 67.236 3.49372 67.0103 3.85346C66.7836 4.21277 66.4099 4.6537 65.9373 5.01126C65.0011 5.77309 63.7685 6.03067 63.4529 6.10576C62.8504 6.26118 63.0736 8.07821 64.1603 7.794C64.4113 7.72065 64.9238 7.47704 65.4363 7.07714C65.9549 6.68378 66.4483 6.12147 66.7755 5.54083C67.1123 4.96193 67.2714 4.36731 67.3204 3.93597C67.3683 3.50202 67.3375 3.23047 67.3375 3.23047Z" fill="#374868"/>
<path d="M68.432 7.73755C68.0795 6.66837 67.8785 5.63281 67.8785 5.63281C67.8785 5.63281 67.5584 6.64392 67.3958 7.79867C67.215 8.94904 67.2196 10.2334 67.316 10.6063C67.5069 11.3633 69.5186 10.9115 69.35 10.2435C69.2641 9.90558 68.7678 8.81327 68.432 7.73755Z" fill="#374868"/>
<path d="M135.356 2.42919C134.37 2.42919 133.547 2.97404 133.292 3.16177C131.641 3.11942 129.99 3.08318 128.34 3.03996L120.986 2.93213C116.084 2.87057 111.182 2.87363 106.28 2.8435C101.378 2.87581 96.4754 2.86969 91.5732 2.93344C88.4021 2.97316 85.2309 3.02861 82.0597 3.0989C82.0769 2.85922 82.0718 2.62041 82.0178 2.39252C81.6492 0.93872 80.3681 0.26421 79.5425 0.0825943C78.6709 -0.116048 77.8872 0.0734306 77.3661 0.335376C76.8304 0.600814 76.5082 0.958368 76.3365 1.26659C76.0012 1.91185 76.2385 2.28818 76.4713 2.33184C76.7293 2.39121 77.0288 2.21484 77.4378 2.05156C77.8322 1.89133 78.4417 1.68701 79.0143 1.81886C79.286 1.86688 79.8889 2.15851 80.0742 2.75269C80.1091 2.86882 80.1177 3.00416 80.1025 3.14736C79.0239 3.17486 77.9453 3.19364 76.8662 3.22856C77.9347 3.26305 79.0027 3.28139 80.0712 3.30889C80.0353 3.45034 79.9783 3.5966 79.8783 3.74503C79.64 4.10608 79.1971 4.46582 78.6558 4.65136C77.5282 5.05956 75.8946 4.80242 74.4161 4.12092C74.3181 4.0777 74.2212 4.02313 74.1237 3.97729C74.2783 3.89478 74.4303 3.79611 74.5661 3.65903C74.9307 3.30278 75.0938 2.71296 74.9049 2.1345C74.8095 1.8468 74.6292 1.55735 74.3409 1.32771C74.0505 1.09502 73.6748 0.955308 73.2941 0.867993C72.5281 0.711699 71.7484 0.643157 70.9001 0.611287C70.0583 0.587712 69.1696 0.63443 68.2722 0.803821C68.0894 0.837001 67.9082 0.880655 67.7269 0.925622C67.5456 0.880655 67.3643 0.837001 67.1815 0.803821C66.2847 0.63443 65.3955 0.587712 64.5542 0.611287C63.7064 0.643157 62.9267 0.711699 62.1607 0.867993C61.78 0.955308 61.4043 1.09502 61.1139 1.32771C60.8261 1.55735 60.6453 1.8468 60.5499 2.1345C60.361 2.7134 60.5236 3.30278 60.8887 3.65903C61.0245 3.79611 61.1765 3.89478 61.3311 3.97729C61.2336 4.02313 61.1367 4.07814 61.0387 4.12092C59.5602 4.80242 57.9266 5.06 56.799 4.65136C56.2577 4.46582 55.8153 4.10608 55.577 3.74503C55.4821 3.60446 55.4276 3.4665 55.3907 3.33203C56.6193 3.30366 57.8473 3.27222 59.0759 3.22856C57.8347 3.18403 56.593 3.1526 55.3518 3.12422C55.3402 2.9902 55.3483 2.86271 55.3811 2.75313C55.5664 2.15895 56.1693 1.86732 56.441 1.81929C57.0136 1.68745 57.6226 1.89177 58.0175 2.05199C58.4265 2.21483 58.7259 2.39121 58.984 2.33227C59.2173 2.28861 59.4546 1.91228 59.1193 1.26702C58.9476 0.958365 58.626 0.601247 58.0897 0.335809C57.5686 0.0738636 56.7844 -0.115172 55.9133 0.083034C55.0877 0.264213 53.8066 0.93916 53.438 2.39296C53.3855 2.61474 53.3789 2.84612 53.3936 3.07925C52.8366 3.06659 52.2796 3.05481 51.7226 3.0404L44.3694 2.93256C39.4672 2.87101 34.565 2.87406 29.6629 2.84394C24.7607 2.87624 19.8585 2.87013 14.9558 2.93387C10.8757 2.98539 6.79617 3.05699 2.71607 3.16744C2.46965 2.98496 1.64 2.42919 0.644217 2.42919C-0.544463 2.42919 0.275597 2.78719 0.276607 3.22856C0.267517 3.229 0.25842 3.229 0.249331 3.22944C0.25842 3.22987 0.267517 3.22987 0.276607 3.23031C0.275597 3.67213 -0.544463 4.02968 0.644217 4.02968C1.64 4.02968 2.46965 3.47392 2.71607 3.29143C6.79617 3.40188 10.8757 3.47392 14.9558 3.52543C19.858 3.58917 24.7602 3.58307 29.6629 3.61537C34.565 3.58525 39.4672 3.5883 44.3694 3.52675L51.7226 3.41891C52.2922 3.40406 52.8623 3.39184 53.4319 3.37918C53.5117 3.8127 53.69 4.24142 53.9813 4.61469C54.4929 5.27523 55.2569 5.80567 56.2077 6.07897C58.12 6.61333 60.1429 6.03443 61.7295 5.19446C63.3504 4.34925 64.7077 3.2517 66.1832 2.44578C66.6756 2.16026 67.1967 1.9459 67.7269 1.76167C68.2571 1.9459 68.7787 2.16026 69.2706 2.44578C70.7461 3.25214 72.1034 4.34925 73.7243 5.19446C75.3109 6.03443 77.3338 6.6129 79.2461 6.07897C80.1969 5.80567 80.9609 5.27523 81.4725 4.61469C81.7689 4.23574 81.9476 3.7996 82.0249 3.3591C85.2072 3.42982 88.3894 3.48527 91.5717 3.52543C96.4739 3.58917 101.376 3.58307 106.278 3.61537C111.18 3.58525 116.083 3.5883 120.985 3.52675L128.338 3.41891C129.989 3.37569 131.64 3.33945 133.291 3.29711C133.546 3.48483 134.368 4.02968 135.355 4.02968C136.545 4.02968 135.723 3.67125 135.723 3.22944C135.723 2.78762 136.546 2.42919 135.356 2.42919ZM65.6611 1.66999C64.1659 2.36894 62.8313 3.25258 61.4729 3.90875C61.3159 3.81794 61.1649 3.70618 61.0397 3.55774C60.7458 3.22289 60.6559 2.70205 60.8594 2.22095C61.0548 1.72369 61.5734 1.3622 62.2683 1.27488C62.9596 1.17927 63.7609 1.15744 64.5522 1.18058C65.1374 1.19674 65.7272 1.27532 66.314 1.38621C66.0928 1.47484 65.8747 1.56957 65.6611 1.66999ZM69.1413 1.38577C69.7275 1.27488 70.3179 1.1963 70.9031 1.18015C71.6944 1.15701 72.4958 1.17928 73.1871 1.27445C73.8819 1.36177 74.4005 1.72325 74.5959 2.22051C74.7994 2.70162 74.7095 3.22245 74.4156 3.5573C74.2904 3.70574 74.1394 3.8175 73.9824 3.90831C72.624 3.25214 71.2894 2.36851 69.7942 1.66955C69.5806 1.56958 69.3625 1.47484 69.1413 1.38577Z" fill="#374868"/>
</svg>
