<svg width="435" height="24" viewBox="0 0 435 24" fill="none" xmlns="http://www.w3.org/2000/svg">
<path d="M231.182 14.8216C229.992 14.4578 225.573 13.1585 222.607 10.8686C221.086 9.77416 219.957 8.53109 219.297 7.55379C218.639 6.57554 218.372 5.88782 218.372 5.88782C218.372 5.88782 218.219 6.57746 218.283 7.68049C218.352 8.77781 218.737 10.2942 219.704 11.8126C220.638 13.3338 222.116 14.8502 223.723 15.978C225.309 17.1172 226.934 17.8936 227.757 18.1755C231.284 19.3043 233.478 15.5532 231.182 14.8216Z" fill="#FFD54F"/>
<path d="M215.385 7.04614C215.385 7.04614 215.061 7.62052 214.341 8.40541C213.618 9.18935 212.426 10.1514 210.918 10.9315C207.931 12.5937 203.999 13.1557 202.992 13.3195C201.07 13.6586 201.782 17.6231 205.249 17.003C206.049 16.843 207.684 16.3114 209.32 15.4389C210.974 14.5807 212.548 13.3538 213.592 12.0869C214.667 10.8239 215.174 9.52654 215.33 8.58544C215.483 7.63862 215.385 7.04614 215.385 7.04614Z" fill="#FFD54F"/>
<path d="M218.871 16.881C217.747 14.5482 217.106 12.2888 217.106 12.2888C217.106 12.2888 216.084 14.4949 215.565 17.0143C214.989 19.5243 215.003 22.3266 215.311 23.1401C215.92 24.7918 222.338 23.8059 221.8 22.3485C221.526 21.6113 219.942 19.228 218.871 16.881Z" fill="#FFD54F"/>
<path d="M432.387 5.30008C429.24 5.30008 426.614 6.48885 425.801 6.89844C420.535 6.80604 415.267 6.72698 410 6.63267L386.541 6.3974C370.902 6.2631 355.263 6.26976 339.623 6.20404C323.984 6.27453 308.345 6.26118 292.705 6.40025C282.588 6.48693 272.471 6.6079 262.355 6.76126C262.409 6.23832 262.393 5.71729 262.221 5.22007C261.045 2.04813 256.958 0.576461 254.324 0.180207C251.543 -0.253196 249.043 0.160213 247.381 0.731733C245.671 1.31087 244.644 2.091 244.096 2.76348C243.026 4.17133 243.783 4.99242 244.526 5.08767C245.349 5.21722 246.304 4.83239 247.609 4.47614C248.867 4.12656 250.812 3.68077 252.639 3.96844C253.505 4.07322 255.429 4.7095 256.02 6.0059C256.131 6.25928 256.159 6.55457 256.11 6.867C252.669 6.92701 249.228 6.96797 245.786 7.04418C249.195 7.11943 252.602 7.15942 256.011 7.21943C255.896 7.52805 255.714 7.84716 255.395 8.17102C254.635 8.95877 253.222 9.74365 251.495 10.1485C247.898 11.0391 242.686 10.4781 237.969 8.99115C237.657 8.89685 237.347 8.77778 237.036 8.67777C237.529 8.49774 238.014 8.28246 238.448 7.98337C239.611 7.2061 240.131 5.91922 239.529 4.65711C239.224 4.02939 238.649 3.39787 237.729 2.89684C236.803 2.38914 235.604 2.08432 234.39 1.89381C231.946 1.5528 229.459 1.40326 226.752 1.33372C224.067 1.28229 221.231 1.38422 218.368 1.7538C217.785 1.82619 217.207 1.92144 216.629 2.01955C216.05 1.92144 215.472 1.82619 214.889 1.7538C212.028 1.38422 209.191 1.28229 206.507 1.33372C203.802 1.40326 201.315 1.5528 198.871 1.89381C197.656 2.08432 196.458 2.38914 195.531 2.89684C194.613 3.39787 194.036 4.02939 193.732 4.65711C193.129 5.92017 193.648 7.2061 194.813 7.98337C195.246 8.28246 195.731 8.49774 196.224 8.67777C195.913 8.77778 195.604 8.8978 195.291 8.99115C190.574 10.4781 185.363 11.04 181.766 10.1485C180.039 9.74365 178.627 8.95877 177.867 8.17102C177.564 7.86431 177.39 7.56331 177.273 7.26993C181.192 7.20801 185.11 7.13943 189.029 7.04418C185.07 6.94702 181.108 6.87844 177.149 6.81652C177.111 6.52409 177.137 6.24595 177.242 6.00686C177.833 4.71046 179.757 4.07416 180.623 3.96938C182.45 3.68172 184.393 4.12751 185.653 4.47709C186.958 4.83239 187.913 5.21721 188.736 5.08861C189.481 4.99336 190.238 4.17228 189.168 2.76443C188.62 2.09099 187.594 1.31182 185.883 0.732678C184.221 0.161158 181.719 -0.251285 178.94 0.181166C176.306 0.576468 172.219 2.04909 171.043 5.22102C170.875 5.70491 170.854 6.20975 170.901 6.7184C169.124 6.69078 167.347 6.66507 165.57 6.63363L142.111 6.39835C126.472 6.26404 110.833 6.27071 95.1934 6.20498C79.5541 6.27547 63.9147 6.26214 48.2738 6.40121C35.2571 6.51361 22.242 6.66983 9.22537 6.91082C8.43921 6.51266 5.79238 5.30008 2.61554 5.30008C-1.17669 5.30008 1.43954 6.08116 1.44276 7.04418C1.41376 7.04513 1.38474 7.04513 1.35574 7.04608C1.38474 7.04703 1.41376 7.04703 1.44276 7.04798C1.43954 8.01195 -1.17669 8.79207 2.61554 8.79207C5.79238 8.79207 8.43921 7.5795 9.22537 7.18134C22.242 7.42233 35.2571 7.57949 48.2738 7.69189C63.9131 7.83096 79.5524 7.81764 95.1934 7.88812C110.833 7.8224 126.472 7.82906 142.111 7.69476L165.57 7.45947C167.388 7.42708 169.206 7.40042 171.024 7.3728C171.278 8.31867 171.847 9.25404 172.776 10.0685C174.408 11.5096 176.846 12.667 179.879 13.2633C185.98 14.4292 192.433 13.1661 197.495 11.3334C202.666 9.48932 206.997 7.09466 211.704 5.33628C213.275 4.71333 214.937 4.24563 216.629 3.84366C218.32 4.24563 219.984 4.71333 221.553 5.33628C226.261 7.09561 230.591 9.48932 235.762 11.3334C240.824 13.1661 247.277 14.4282 253.378 13.2633C256.412 12.667 258.849 11.5096 260.481 10.0685C261.427 9.24166 261.997 8.29009 262.243 7.32898C272.396 7.48329 282.548 7.60426 292.7 7.69189C308.34 7.83096 323.979 7.81764 339.619 7.88812C355.258 7.8224 370.897 7.82906 386.537 7.69476L409.996 7.45947C415.262 7.36517 420.53 7.28612 425.796 7.19372C426.61 7.60331 429.234 8.79207 432.382 8.79207C436.177 8.79207 433.554 8.01005 433.554 7.04608C433.554 6.08212 436.18 5.30008 432.387 5.30008ZM210.038 3.64362C205.268 5.16863 201.01 7.09656 196.677 8.52822C196.176 8.3301 195.694 8.08625 195.295 7.76238C194.357 7.03179 194.07 5.89542 194.719 4.84573C195.343 3.76079 196.997 2.97209 199.214 2.78158C201.42 2.57298 203.976 2.52535 206.5 2.57583C208.368 2.61107 210.249 2.78254 212.121 3.02448C211.416 3.21785 210.72 3.42454 210.038 3.64362ZM221.141 3.02352C223.011 2.78158 224.895 2.61013 226.762 2.57488C229.286 2.5244 231.843 2.57298 234.048 2.78064C236.265 2.97114 237.919 3.75983 238.543 4.84477C239.192 5.89446 238.905 7.03083 237.968 7.76143C237.568 8.08529 237.086 8.32914 236.585 8.52726C232.252 7.0956 227.994 5.16768 223.224 3.64268C222.543 3.42455 221.847 3.21784 221.141 3.02352Z" fill="#FFD54F"/>
</svg>
