<svg width="532" height="26" viewBox="0 0 532 26" fill="none" xmlns="http://www.w3.org/2000/svg">
<path d="M282.777 16.295C281.317 15.913 275.899 14.549 272.262 12.145C270.398 10.996 269.013 9.69101 268.203 8.66501C267.397 7.63801 267.069 6.91602 267.069 6.91602C267.069 6.91602 266.881 7.64002 266.96 8.79802C267.045 9.95002 267.518 11.542 268.703 13.136C269.848 14.733 271.66 16.325 273.631 17.509C275.575 18.705 277.568 19.52 278.577 19.816C282.901 21.001 285.591 17.063 282.777 16.295Z" fill="#03060E"/>
<path d="M263.407 8.13184C263.407 8.13184 263.01 8.73484 262.127 9.55884C261.24 10.3818 259.778 11.3918 257.929 12.2108C254.267 13.9558 249.445 14.5458 248.211 14.7178C245.854 15.0738 246.727 19.2358 250.978 18.5848C251.96 18.4168 253.965 17.8588 255.97 16.9428C257.998 16.0418 259.928 14.7538 261.208 13.4238C262.526 12.0978 263.148 10.7358 263.34 9.74783C263.527 8.75383 263.407 8.13184 263.407 8.13184Z" fill="#03060E"/>
<path d="M267.682 18.4567C266.303 16.0077 265.517 13.6357 265.517 13.6357C265.517 13.6357 264.264 15.9517 263.628 18.5967C262.921 21.2317 262.939 24.1737 263.316 25.0277C264.063 26.7617 271.932 25.7267 271.273 24.1967C270.937 23.4227 268.995 20.9207 267.682 18.4567Z" fill="#03060E"/>
<path d="M529.483 6.29856C525.625 6.29856 522.405 7.54657 521.408 7.97657C514.95 7.87957 508.491 7.79656 502.034 7.69756L473.27 7.45057C454.094 7.30957 434.917 7.31657 415.741 7.24757C396.565 7.32157 377.389 7.30756 358.213 7.45356C345.808 7.54456 333.403 7.67156 320.998 7.83256C321.066 7.28356 321.046 6.73656 320.834 6.21456C319.392 2.88456 314.381 1.33956 311.152 0.923562C307.742 0.468562 304.677 0.902572 302.638 1.50257C300.542 2.11057 299.282 2.92957 298.61 3.63557C297.299 5.11357 298.227 5.97557 299.138 6.07557C300.147 6.21157 301.319 5.80757 302.918 5.43357C304.461 5.06657 306.845 4.59857 309.085 4.90057C310.148 5.01057 312.507 5.67856 313.232 7.03956C313.368 7.30556 313.401 7.61557 313.342 7.94357C309.123 8.00657 304.904 8.04957 300.683 8.12957C304.862 8.20857 309.04 8.25056 313.22 8.31356C313.079 8.63756 312.856 8.97257 312.465 9.31257C311.533 10.1396 309.801 10.9636 307.683 11.3886C303.272 12.3236 296.882 11.7346 291.098 10.1736C290.715 10.0746 290.336 9.94957 289.955 9.84457C290.559 9.65557 291.154 9.42956 291.685 9.11556C293.111 8.29956 293.749 6.94856 293.01 5.62356C292.637 4.96456 291.932 4.30157 290.804 3.77557C289.668 3.24257 288.199 2.92256 286.709 2.72256C283.713 2.36456 280.663 2.20756 277.344 2.13456C274.052 2.08056 270.575 2.18757 267.065 2.57557C266.35 2.65157 265.641 2.75156 264.932 2.85456C264.223 2.75156 263.513 2.65157 262.798 2.57557C259.29 2.18757 255.812 2.08056 252.521 2.13456C249.204 2.20756 246.155 2.36456 243.158 2.72256C241.669 2.92256 240.199 3.24257 239.063 3.77557C237.937 4.30157 237.23 4.96456 236.857 5.62356C236.118 6.94956 236.754 8.29956 238.182 9.11556C238.714 9.42956 239.308 9.65557 239.913 9.84457C239.531 9.94957 239.152 10.0756 238.769 10.1736C232.985 11.7346 226.595 12.3246 222.184 11.3886C220.067 10.9636 218.336 10.1396 217.404 9.31257C217.033 8.99057 216.82 8.67457 216.675 8.36657C221.481 8.30157 226.285 8.22957 231.091 8.12957C226.236 8.02757 221.378 7.95557 216.523 7.89057C216.478 7.58357 216.509 7.29157 216.638 7.04057C217.363 5.67957 219.721 5.01156 220.784 4.90156C223.024 4.59956 225.406 5.06756 226.951 5.43456C228.551 5.80756 229.722 6.21156 230.731 6.07656C231.644 5.97656 232.572 5.11456 231.261 3.63656C230.589 2.92956 229.331 2.11156 227.233 1.50356C225.195 0.903563 222.127 0.470569 218.72 0.924569C215.49 1.33957 210.479 2.88557 209.037 6.21557C208.831 6.72357 208.806 7.25356 208.863 7.78756C206.684 7.75856 204.505 7.73157 202.327 7.69857L173.563 7.45156C154.386 7.31056 135.21 7.31756 116.034 7.24856C96.858 7.32256 77.6818 7.30857 58.5037 7.45457C42.5434 7.57257 26.585 7.73657 10.6246 7.98957C9.6607 7.57157 6.4153 6.29856 2.52003 6.29856C-2.12981 6.29856 1.07807 7.11857 1.08202 8.12957C1.04646 8.13057 1.01088 8.13057 0.975323 8.13157C1.01088 8.13257 1.04646 8.13257 1.08202 8.13357C1.07807 9.14557 -2.12981 9.96456 2.52003 9.96456C6.4153 9.96456 9.6607 8.69157 10.6246 8.27357C26.585 8.52657 42.5434 8.69156 58.5037 8.80956C77.6799 8.95556 96.856 8.94157 116.034 9.01557C135.21 8.94657 154.386 8.95357 173.563 8.81257L202.327 8.56556C204.555 8.53156 206.785 8.50357 209.013 8.47457C209.325 9.46757 210.023 10.4496 211.162 11.3046C213.163 12.8176 216.152 14.0326 219.871 14.6586C227.352 15.8826 235.265 14.5566 241.471 12.6326C247.812 10.6966 253.121 8.18257 258.893 6.33657C260.819 5.68257 262.858 5.19157 264.932 4.76957C267.006 5.19157 269.046 5.68257 270.97 6.33657C276.742 8.18357 282.051 10.6966 288.392 12.6326C294.599 14.5566 302.512 15.8816 309.992 14.6586C313.711 14.0326 316.7 12.8176 318.701 11.3046C319.861 10.4366 320.56 9.43757 320.862 8.42857C333.31 8.59057 345.759 8.71756 358.207 8.80956C377.383 8.95556 396.559 8.94157 415.735 9.01557C434.911 8.94657 454.088 8.95357 473.264 8.81257L502.028 8.56556C508.485 8.46656 514.945 8.38357 521.402 8.28657C522.399 8.71657 525.617 9.96456 529.477 9.96456C534.131 9.96456 530.915 9.14357 530.915 8.13157C530.915 7.11957 534.134 6.29856 529.483 6.29856ZM256.851 4.55956C251.002 6.16056 245.781 8.18457 240.468 9.68757C239.853 9.47957 239.263 9.22357 238.773 8.88357C237.623 8.11657 237.272 6.92357 238.068 5.82157C238.832 4.68257 240.861 3.85456 243.579 3.65456C246.283 3.43556 249.418 3.38556 252.513 3.43856C254.802 3.47556 257.109 3.65557 259.405 3.90957C258.54 4.11257 257.686 4.32956 256.851 4.55956ZM270.464 3.90856C272.758 3.65456 275.067 3.47457 277.356 3.43757C280.452 3.38457 283.586 3.43557 286.291 3.65357C289.009 3.85357 291.037 4.68156 291.802 5.82056C292.598 6.92256 292.246 8.11556 291.096 8.88256C290.607 9.22256 290.016 9.47856 289.402 9.68656C284.088 8.18356 278.867 6.15957 273.019 4.55857C272.183 4.32957 271.33 4.11256 270.464 3.90856Z" fill="#03060E"/>
</svg>
