<svg width="187" height="60" viewBox="0 0 187 60" fill="none" xmlns="http://www.w3.org/2000/svg">
<path fill-rule="evenodd" clip-rule="evenodd" d="M15.014 30.1018H17.0118C9.64591 24.4618 23.9289 17.6262 26.2532 13.7256C28.5635 17.6257 42.8465 24.4618 35.4807 30.1018H37.4784V48.5026C35.5895 48.5026 33.7006 48.3261 31.8524 47.9862V42.2921C32.0969 40.3351 27.1909 38.2558 26.2532 36.9786C25.3562 38.2017 20.8443 40.1452 20.6406 42.0207C20.6406 42.1023 20.6406 42.1838 20.6406 42.2653V43.5429C18.5613 42.1703 16.6589 40.5393 15.0145 38.6504V30.1018H15.014Z" fill="#004D40"/>
<path fill-rule="evenodd" clip-rule="evenodd" d="M44.3142 13.6986V47.7689C43.5534 47.9319 42.7921 48.0815 42.0178 48.1903V43.4474H40.2238V48.3941C39.4898 48.4483 38.7563 48.489 38.0223 48.5029V13.6991H36.9488V11.8101H37.0711C35.3178 8.80654 40.3192 5.35469 41.1755 3.33008C42.0178 5.35517 47.0192 8.80702 45.2659 11.8101H45.3882V13.6991L44.3142 13.6986ZM40.2238 16.6614H42.0178V21.6081H40.2238V16.6614ZM40.2238 30.0609H42.0178V35.0076H40.2238V30.0609Z" fill="#004D40"/>
<path fill-rule="evenodd" clip-rule="evenodd" d="M27.0548 10.0977C27.1636 10.0977 27.272 10.1111 27.3808 10.125C26.375 10.288 25.6276 11.0762 25.6276 12.0278C25.6276 13.0878 26.5926 13.9575 27.7749 13.9575C28.0467 13.9575 28.3047 13.9168 28.5357 13.8353C28.1551 14.202 27.6253 14.4197 27.0543 14.4197C25.8721 14.4197 24.8936 13.4546 24.8936 12.2589C24.894 11.0623 25.8725 10.0977 27.0548 10.0977Z" fill="#004D40"/>
<path fill-rule="evenodd" clip-rule="evenodd" d="M41.9362 0C42.045 0 42.1399 0.0134235 42.2487 0.0273268C41.2568 0.190331 40.4955 0.978506 40.4955 1.93016C40.4955 2.99017 41.4606 3.85985 42.6428 3.85985C42.9147 3.85985 43.1731 3.8191 43.4176 3.73759C43.0235 4.10435 42.5071 4.32201 41.9362 4.32201C40.7405 4.32201 39.7754 3.35693 39.7754 2.16124C39.7754 0.96508 40.74 0 41.9362 0Z" fill="#004D40"/>
<path fill-rule="evenodd" clip-rule="evenodd" d="M60.1601 42.3062C55.0772 52.7841 44.3276 60.0004 31.9066 60.0004C14.5658 60.0004 0.5 45.9345 0.5 28.5937C0.5 17.1782 6.60212 7.18934 15.7074 1.68555C9.79557 6.91751 6.12653 14.2561 6.12653 22.3833C6.12653 38.27 20.1785 51.1396 37.5193 51.1396C46.4207 51.1396 54.4525 47.7559 60.1601 42.3062Z" fill="#FFD54F"/>
<path d="M75.5522 33.5L75.5862 33.16H75.6202C76.4362 33.16 77.0935 32.9107 77.5922 32.412C78.0908 31.9133 78.3402 31.256 78.3402 30.44V8.476H77.3542C76.2435 8.476 75.1555 8.65733 74.0902 9.02C73.0248 9.36 72.1068 9.99467 71.3362 10.924C70.5655 11.8307 70.0442 13.1453 69.7722 14.868H69.4322L70.3842 8H91.5662L92.5522 14.868H92.2122C91.9402 13.168 91.4075 11.8533 90.6142 10.924C89.8435 9.99467 88.9142 9.36 87.8262 9.02C86.7608 8.65733 85.6502 8.476 84.4942 8.476H83.6102V30.44C83.6102 31.256 83.8595 31.9133 84.3582 32.412C84.8568 32.9107 85.5142 33.16 86.3302 33.16L86.3642 33.5H75.5522ZM101.132 33.976C99.7489 33.976 98.6382 33.602 97.7996 32.854C96.9609 32.106 96.5416 31.12 96.5416 29.896C96.5416 29.3747 96.6322 28.8873 96.8136 28.434C96.9949 27.958 97.3349 27.4933 97.8336 27.04C98.3549 26.5867 99.0689 26.122 99.9756 25.646C100.882 25.1473 102.084 24.626 103.58 24.082L106.742 22.926V20.376C106.742 19.084 106.538 18.064 106.13 17.316C105.722 16.5453 105.155 16.16 104.43 16.16C103.568 16.1827 102.832 16.7493 102.22 17.86C101.63 18.9707 101.234 20.512 101.03 22.484L97.3576 20.376C97.7429 19.4467 98.3322 18.6307 99.1256 17.928C99.9189 17.2253 100.826 16.6813 101.846 16.296C102.888 15.9107 103.976 15.718 105.11 15.718C107.036 15.718 108.6 16.262 109.802 17.35C111.026 18.4153 111.638 19.8773 111.638 21.736V29.93C111.638 31.2447 112.08 31.902 112.964 31.902C113.485 31.902 113.995 31.6187 114.494 31.052L114.766 31.29C114.176 32.0833 113.462 32.7293 112.624 33.228C111.785 33.7267 110.969 33.976 110.176 33.976C109.314 33.976 108.566 33.6813 107.932 33.092C107.32 32.5027 106.934 31.7207 106.776 30.746C105.665 31.8793 104.69 32.7067 103.852 33.228C103.036 33.7267 102.129 33.976 101.132 33.976ZM103.682 31.868C104.18 31.868 104.656 31.7433 105.11 31.494C105.586 31.2447 106.118 30.8367 106.708 30.27L106.742 23.368L105.382 23.878C104.226 24.3087 103.342 24.7507 102.73 25.204C102.118 25.6347 101.687 26.122 101.438 26.666C101.211 27.21 101.098 27.8333 101.098 28.536C101.098 29.5107 101.336 30.3153 101.812 30.95C102.31 31.562 102.934 31.868 103.682 31.868ZM122.959 34.044L116.227 18.404C116 17.86 115.694 17.4293 115.309 17.112C114.923 16.772 114.402 16.5907 113.745 16.568V16.228H123.299V16.568C122.505 16.6587 121.984 17.01 121.735 17.622C121.485 18.234 121.565 19.0047 121.973 19.934L125.475 28.128L128.127 21.974L126.733 18.404C126.529 17.8827 126.257 17.452 125.917 17.112C125.577 16.772 125.112 16.5907 124.523 16.568V16.228H133.091V16.568C132.365 16.6587 131.889 17.01 131.663 17.622C131.459 18.234 131.538 19.0047 131.901 19.934L135.029 28.128L138.157 20.138C138.27 19.8433 138.349 19.5713 138.395 19.322C138.44 19.0727 138.463 18.8347 138.463 18.608C138.463 18.0413 138.315 17.5767 138.021 17.214C137.726 16.8513 137.295 16.636 136.729 16.568V16.228H141.557V16.568C141.035 16.704 140.525 17.044 140.027 17.588C139.528 18.132 139.086 18.88 138.701 19.832L133.091 34.044H132.819L128.331 22.552L123.299 34.044H122.959ZM144.859 33.976V11.06C144.859 10.244 144.598 9.58667 144.077 9.088C143.578 8.58933 142.921 8.34 142.105 8.34V8H145.573C146.91 8 147.828 7.87533 148.327 7.626C148.825 7.37667 149.188 7.07067 149.415 6.708H149.755V19.084C150.276 18.064 151.001 17.248 151.931 16.636C152.883 16.024 153.925 15.718 155.059 15.718C156.396 15.718 157.586 16.1147 158.629 16.908C159.671 17.7013 160.487 18.778 161.077 20.138C161.689 21.498 161.995 23.0507 161.995 24.796C161.995 26.6093 161.655 28.2073 160.975 29.59C160.317 30.9727 159.388 32.0493 158.187 32.82C156.985 33.5907 155.58 33.976 153.971 33.976C151.273 33.976 149.46 32.854 148.531 30.61L145.199 33.976H144.859ZM152.985 33.398C154.186 33.398 155.093 32.65 155.705 31.154C156.317 29.658 156.623 27.4593 156.623 24.558C156.623 22.0193 156.385 20.138 155.909 18.914C155.433 17.69 154.685 17.078 153.665 17.078C152.758 17.078 151.953 17.4067 151.251 18.064C150.571 18.7213 150.072 19.458 149.755 20.274V28.808C149.845 30.2133 150.174 31.3353 150.741 32.174C151.307 32.99 152.055 33.398 152.985 33.398ZM170.817 33.976C169.434 33.976 168.324 33.602 167.485 32.854C166.646 32.106 166.227 31.12 166.227 29.896C166.227 29.3747 166.318 28.8873 166.499 28.434C166.68 27.958 167.02 27.4933 167.519 27.04C168.04 26.5867 168.754 26.122 169.661 25.646C170.568 25.1473 171.769 24.626 173.265 24.082L176.427 22.926V20.376C176.427 19.084 176.223 18.064 175.815 17.316C175.407 16.5453 174.84 16.16 174.115 16.16C173.254 16.1827 172.517 16.7493 171.905 17.86C171.316 18.9707 170.919 20.512 170.715 22.484L167.043 20.376C167.428 19.4467 168.018 18.6307 168.811 17.928C169.604 17.2253 170.511 16.6813 171.531 16.296C172.574 15.9107 173.662 15.718 174.795 15.718C176.722 15.718 178.286 16.262 179.487 17.35C180.711 18.4153 181.323 19.8773 181.323 21.736V29.93C181.323 31.2447 181.765 31.902 182.649 31.902C183.17 31.902 183.68 31.6187 184.179 31.052L184.451 31.29C183.862 32.0833 183.148 32.7293 182.309 33.228C181.47 33.7267 180.654 33.976 179.861 33.976C179 33.976 178.252 33.6813 177.617 33.092C177.005 32.5027 176.62 31.7207 176.461 30.746C175.35 31.8793 174.376 32.7067 173.537 33.228C172.721 33.7267 171.814 33.976 170.817 33.976ZM173.367 31.868C173.866 31.868 174.342 31.7433 174.795 31.494C175.271 31.2447 175.804 30.8367 176.393 30.27L176.427 23.368L175.067 23.878C173.911 24.3087 173.027 24.7507 172.415 25.204C171.803 25.6347 171.372 26.122 171.123 26.666C170.896 27.21 170.783 27.8333 170.783 28.536C170.783 29.5107 171.021 30.3153 171.497 30.95C171.996 31.562 172.619 31.868 173.367 31.868Z" fill="#03060E"/>
<path d="M71.6432 43.309C73.0472 43.309 73.6972 44.219 73.6972 45.597V46.416H72.7352V45.545C72.7352 44.726 72.4102 44.232 71.6692 44.232C70.9412 44.232 70.6032 44.726 70.6032 45.545V50.355C70.6032 51.174 70.9412 51.668 71.6692 51.668C72.4102 51.668 72.7352 51.174 72.7352 50.355V49.172H73.6972V50.303C73.6972 51.681 73.0472 52.591 71.6432 52.591C70.2522 52.591 69.6022 51.681 69.6022 50.303V45.597C69.6022 44.219 70.2522 43.309 71.6432 43.309ZM75.8406 45.597C75.8406 44.206 76.5296 43.309 77.9206 43.309C79.3246 43.309 80.0136 44.206 80.0136 45.597V50.303C80.0136 51.681 79.3246 52.591 77.9206 52.591C76.5296 52.591 75.8406 51.681 75.8406 50.303V45.597ZM76.8416 50.355C76.8416 51.187 77.1926 51.668 77.9206 51.668C78.6616 51.668 78.9996 51.187 78.9996 50.355V45.545C78.9996 44.726 78.6616 44.232 77.9206 44.232C77.1926 44.232 76.8416 44.726 76.8416 45.545V50.355ZM85.6254 52.487H84.6504L83.1424 45.246V52.5H82.2584V43.4H83.6754L85.1704 50.667L86.6134 43.4H88.0304V52.5H87.0684V45.181L85.6254 52.487ZM92.3651 43.4C93.7951 43.4 94.4061 44.245 94.4061 45.623V46.715C94.4061 48.158 93.7301 48.912 92.2871 48.912H91.3901V52.5H90.3761V43.4H92.3651ZM92.2871 48.002C93.0411 48.002 93.4051 47.651 93.4051 46.78V45.571C93.4051 44.739 93.1061 44.323 92.3651 44.323H91.3901V48.002H92.2871ZM96.5003 52.5V43.4H97.5143V51.577H100.114V52.5H96.5003ZM105.417 47.43V48.34H103.194V51.577H105.924V52.5H102.18V43.4H105.924V44.323H103.194V47.43H105.417ZM109.478 52.5V44.323H107.801V43.4H112.156V44.323H110.479V52.5H109.478ZM117.386 47.43V48.34H115.163V51.577H117.893V52.5H114.149V43.4H117.893V44.323H115.163V47.43H117.386ZM125.415 43.309C126.819 43.309 127.469 44.219 127.469 45.597V46.416H126.507V45.545C126.507 44.726 126.182 44.232 125.441 44.232C124.713 44.232 124.375 44.726 124.375 45.545V50.355C124.375 51.174 124.713 51.668 125.441 51.668C126.182 51.668 126.507 51.174 126.507 50.355V49.172H127.469V50.303C127.469 51.681 126.819 52.591 125.415 52.591C124.024 52.591 123.374 51.681 123.374 50.303V45.597C123.374 44.219 124.024 43.309 125.415 43.309ZM129.613 45.597C129.613 44.206 130.302 43.309 131.693 43.309C133.097 43.309 133.786 44.206 133.786 45.597V50.303C133.786 51.681 133.097 52.591 131.693 52.591C130.302 52.591 129.613 51.681 129.613 50.303V45.597ZM130.614 50.355C130.614 51.187 130.965 51.668 131.693 51.668C132.434 51.668 132.772 51.187 132.772 50.355V45.545C132.772 44.726 132.434 44.232 131.693 44.232C130.965 44.232 130.614 44.726 130.614 45.545V50.355ZM138.176 43.4C139.593 43.4 140.243 44.258 140.243 45.662V50.251C140.243 51.642 139.593 52.5 138.176 52.5H136.044V43.4H138.176ZM138.163 51.577C138.891 51.577 139.242 51.122 139.242 50.29V45.61C139.242 44.778 138.891 44.323 138.15 44.323H137.058V51.577H138.163ZM145.735 47.43V48.34H143.512V51.577H146.242V52.5H142.498V43.4H146.242V44.323H143.512V47.43H145.735ZM151.723 45.597C151.723 44.206 152.412 43.309 153.803 43.309C155.207 43.309 155.896 44.206 155.896 45.597V50.303C155.896 51.681 155.207 52.591 153.803 52.591C152.412 52.591 151.723 51.681 151.723 50.303V45.597ZM152.724 50.355C152.724 51.187 153.075 51.668 153.803 51.668C154.544 51.668 154.882 51.187 154.882 50.355V45.545C154.882 44.726 154.544 44.232 153.803 44.232C153.075 44.232 152.724 44.726 152.724 45.545V50.355ZM161.261 47.638V48.561H159.168V52.5H158.154V43.4H161.768V44.323H159.168V47.638H161.261ZM167.19 52.5V43.4H168.204V51.577H170.804V52.5H167.19ZM173.884 43.4V52.5H172.87V43.4H173.884ZM179.334 47.638V48.561H177.241V52.5H176.227V43.4H179.841V44.323H177.241V47.638H179.334ZM185.182 47.43V48.34H182.959V51.577H185.689V52.5H181.945V43.4H185.689V44.323H182.959V47.43H185.182Z" fill="#03060E"/>
</svg>
