<svg width="190" height="60" viewBox="0 0 190 60" fill="none" xmlns="http://www.w3.org/2000/svg">
<path fill-rule="evenodd" clip-rule="evenodd" d="M15.014 30.1018H17.0118C9.64593 24.4618 23.9289 17.6262 26.2532 13.7256C28.5635 17.6257 42.8466 24.4618 35.4807 30.1018H37.4785V48.5026C35.5895 48.5026 33.7006 48.3261 31.8524 47.9862V42.2921C32.0969 40.3351 27.191 38.2558 26.2532 36.9786C25.3562 38.2017 20.8443 40.1452 20.6406 42.0207C20.6406 42.1023 20.6406 42.1838 20.6406 42.2653V43.5429C18.5613 42.1703 16.659 40.5393 15.0145 38.6504V30.1018H15.014Z" fill="white"/>
<path fill-rule="evenodd" clip-rule="evenodd" d="M44.3142 13.6986V47.7689C43.5533 47.9319 42.792 48.0815 42.0177 48.1903V43.4474H40.2237V48.3941C39.4897 48.4483 38.7562 48.489 38.0222 48.5029V13.6991H36.9488V11.8101H37.071C35.3178 8.80654 40.3191 5.35469 41.1754 3.33008C42.0177 5.35517 47.0191 8.80702 45.2658 11.8101H45.3881V13.6991L44.3142 13.6986ZM40.2237 16.6614H42.0177V21.6081H40.2237V16.6614ZM40.2237 30.0609H42.0177V35.0076H40.2237V30.0609Z" fill="white"/>
<path fill-rule="evenodd" clip-rule="evenodd" d="M27.0548 10.0977C27.1637 10.0977 27.272 10.1111 27.3808 10.125C26.375 10.288 25.6276 11.0762 25.6276 12.0278C25.6276 13.0878 26.5927 13.9575 27.7749 13.9575C28.0468 13.9575 28.3047 13.9168 28.5358 13.8353C28.1551 14.202 27.6253 14.4197 27.0544 14.4197C25.8721 14.4197 24.8936 13.4546 24.8936 12.2589C24.8941 11.0623 25.8726 10.0977 27.0548 10.0977Z" fill="white"/>
<path fill-rule="evenodd" clip-rule="evenodd" d="M41.9362 0C42.045 0 42.14 0.0134235 42.2488 0.0273268C41.2569 0.190331 40.4955 0.978506 40.4955 1.93016C40.4955 2.99017 41.4606 3.85985 42.6429 3.85985C42.9147 3.85985 43.1731 3.8191 43.4176 3.73759C43.0236 4.10435 42.5072 4.32201 41.9362 4.32201C40.7405 4.32201 39.7755 3.35693 39.7755 2.16124C39.7755 0.96508 40.74 0 41.9362 0Z" fill="white"/>
<path fill-rule="evenodd" clip-rule="evenodd" d="M60.1601 42.3062C55.0772 52.7841 44.3276 60.0004 31.9066 60.0004C14.5658 60.0004 0.5 45.9345 0.5 28.5937C0.5 17.1782 6.60212 7.18934 15.7074 1.68555C9.79557 6.91751 6.12653 14.2561 6.12653 22.3833C6.12653 38.27 20.1785 51.1396 37.5193 51.1396C46.4207 51.1396 54.4525 47.7559 60.1601 42.3062Z" fill="#FFD54F"/>
<path d="M75.5521 33.5L75.5861 33.16H75.6201C76.4361 33.16 77.0934 32.9107 77.5921 32.412C78.0908 31.9133 78.3401 31.256 78.3401 30.44V8.476H77.3541C76.2434 8.476 75.1554 8.65733 74.0901 9.02C73.0248 9.36 72.1068 9.99467 71.3361 10.924C70.5654 11.8307 70.0441 13.1453 69.7721 14.868H69.4321L70.3841 8H91.5661L92.5521 14.868H92.2121C91.9401 13.168 91.4074 11.8533 90.6141 10.924C89.8434 9.99467 88.9141 9.36 87.8261 9.02C86.7608 8.65733 85.6501 8.476 84.4941 8.476H83.6101V30.44C83.6101 31.256 83.8594 31.9133 84.3581 32.412C84.8568 32.9107 85.5141 33.16 86.3301 33.16L86.3641 33.5H75.5521ZM101.132 33.976C99.7488 33.976 98.6382 33.602 97.7995 32.854C96.9608 32.106 96.5415 31.12 96.5415 29.896C96.5415 29.3747 96.6322 28.8873 96.8135 28.434C96.9948 27.958 97.3348 27.4933 97.8335 27.04C98.3548 26.5867 99.0688 26.122 99.9755 25.646C100.882 25.1473 102.084 24.626 103.58 24.082L106.742 22.926V20.376C106.742 19.084 106.538 18.064 106.13 17.316C105.722 16.5453 105.155 16.16 104.43 16.16C103.568 16.1827 102.832 16.7493 102.22 17.86C101.63 18.9707 101.234 20.512 101.03 22.484L97.3575 20.376C97.7428 19.4467 98.3322 18.6307 99.1255 17.928C99.9188 17.2253 100.826 16.6813 101.846 16.296C102.888 15.9107 103.976 15.718 105.11 15.718C107.036 15.718 108.6 16.262 109.802 17.35C111.026 18.4153 111.638 19.8773 111.638 21.736V29.93C111.638 31.2447 112.08 31.902 112.964 31.902C113.485 31.902 113.995 31.6187 114.494 31.052L114.766 31.29C114.176 32.0833 113.462 32.7293 112.624 33.228C111.785 33.7267 110.969 33.976 110.176 33.976C109.314 33.976 108.566 33.6813 107.932 33.092C107.32 32.5027 106.934 31.7207 106.776 30.746C105.665 31.8793 104.69 32.7067 103.852 33.228C103.036 33.7267 102.129 33.976 101.132 33.976ZM103.682 31.868C104.18 31.868 104.656 31.7433 105.11 31.494C105.586 31.2447 106.118 30.8367 106.708 30.27L106.742 23.368L105.382 23.878C104.226 24.3087 103.342 24.7507 102.73 25.204C102.118 25.6347 101.687 26.122 101.438 26.666C101.211 27.21 101.098 27.8333 101.098 28.536C101.098 29.5107 101.336 30.3153 101.812 30.95C102.31 31.562 102.934 31.868 103.682 31.868ZM122.959 34.044L116.227 18.404C116 17.86 115.694 17.4293 115.309 17.112C114.923 16.772 114.402 16.5907 113.745 16.568V16.228H123.299V16.568C122.505 16.6587 121.984 17.01 121.735 17.622C121.485 18.234 121.565 19.0047 121.973 19.934L125.475 28.128L128.127 21.974L126.733 18.404C126.529 17.8827 126.257 17.452 125.917 17.112C125.577 16.772 125.112 16.5907 124.523 16.568V16.228H133.091V16.568C132.365 16.6587 131.889 17.01 131.663 17.622C131.459 18.234 131.538 19.0047 131.901 19.934L135.029 28.128L138.157 20.138C138.27 19.8433 138.349 19.5713 138.395 19.322C138.44 19.0727 138.463 18.8347 138.463 18.608C138.463 18.0413 138.315 17.5767 138.021 17.214C137.726 16.8513 137.295 16.636 136.729 16.568V16.228H141.557V16.568C141.035 16.704 140.525 17.044 140.027 17.588C139.528 18.132 139.086 18.88 138.701 19.832L133.091 34.044H132.819L128.331 22.552L123.299 34.044H122.959ZM144.859 33.976V11.06C144.859 10.244 144.598 9.58667 144.077 9.088C143.578 8.58933 142.921 8.34 142.105 8.34V8H145.573C146.91 8 147.828 7.87533 148.327 7.626C148.825 7.37667 149.188 7.07067 149.415 6.708H149.755V19.084C150.276 18.064 151.001 17.248 151.931 16.636C152.883 16.024 153.925 15.718 155.059 15.718C156.396 15.718 157.586 16.1147 158.629 16.908C159.671 17.7013 160.487 18.778 161.077 20.138C161.689 21.498 161.995 23.0507 161.995 24.796C161.995 26.6093 161.655 28.2073 160.975 29.59C160.317 30.9727 159.388 32.0493 158.187 32.82C156.985 33.5907 155.58 33.976 153.971 33.976C151.273 33.976 149.46 32.854 148.531 30.61L145.199 33.976H144.859ZM152.985 33.398C154.186 33.398 155.093 32.65 155.705 31.154C156.317 29.658 156.623 27.4593 156.623 24.558C156.623 22.0193 156.385 20.138 155.909 18.914C155.433 17.69 154.685 17.078 153.665 17.078C152.758 17.078 151.953 17.4067 151.251 18.064C150.571 18.7213 150.072 19.458 149.755 20.274V28.808C149.845 30.2133 150.174 31.3353 150.741 32.174C151.307 32.99 152.055 33.398 152.985 33.398ZM170.817 33.976C169.434 33.976 168.324 33.602 167.485 32.854C166.646 32.106 166.227 31.12 166.227 29.896C166.227 29.3747 166.318 28.8873 166.499 28.434C166.68 27.958 167.02 27.4933 167.519 27.04C168.04 26.5867 168.754 26.122 169.661 25.646C170.568 25.1473 171.769 24.626 173.265 24.082L176.427 22.926V20.376C176.427 19.084 176.223 18.064 175.815 17.316C175.407 16.5453 174.84 16.16 174.115 16.16C173.254 16.1827 172.517 16.7493 171.905 17.86C171.316 18.9707 170.919 20.512 170.715 22.484L167.043 20.376C167.428 19.4467 168.018 18.6307 168.811 17.928C169.604 17.2253 170.511 16.6813 171.531 16.296C172.574 15.9107 173.662 15.718 174.795 15.718C176.722 15.718 178.286 16.262 179.487 17.35C180.711 18.4153 181.323 19.8773 181.323 21.736V29.93C181.323 31.2447 181.765 31.902 182.649 31.902C183.17 31.902 183.68 31.6187 184.179 31.052L184.451 31.29C183.862 32.0833 183.148 32.7293 182.309 33.228C181.47 33.7267 180.654 33.976 179.861 33.976C179 33.976 178.252 33.6813 177.617 33.092C177.005 32.5027 176.62 31.7207 176.461 30.746C175.35 31.8793 174.376 32.7067 173.537 33.228C172.721 33.7267 171.814 33.976 170.817 33.976ZM173.367 31.868C173.866 31.868 174.342 31.7433 174.795 31.494C175.271 31.2447 175.804 30.8367 176.393 30.27L176.427 23.368L175.067 23.878C173.911 24.3087 173.027 24.7507 172.415 25.204C171.803 25.6347 171.372 26.122 171.123 26.666C170.896 27.21 170.783 27.8333 170.783 28.536C170.783 29.5107 171.021 30.3153 171.497 30.95C171.996 31.562 172.619 31.868 173.367 31.868Z" fill="white"/>
<path d="M71.7081 52.63C71.0234 52.63 70.4991 52.435 70.1351 52.045C69.7798 51.655 69.6021 51.1047 69.6021 50.394V45.506C69.6021 44.7953 69.7798 44.245 70.1351 43.855C70.4991 43.465 71.0234 43.27 71.7081 43.27C72.3928 43.27 72.9128 43.465 73.2681 43.855C73.6321 44.245 73.8141 44.7953 73.8141 45.506V46.468H72.4621V45.415C72.4621 44.8517 72.2238 44.57 71.7471 44.57C71.2704 44.57 71.0321 44.8517 71.0321 45.415V50.498C71.0321 51.0527 71.2704 51.33 71.7471 51.33C72.2238 51.33 72.4621 51.0527 72.4621 50.498V49.107H73.8141V50.394C73.8141 51.1047 73.6321 51.655 73.2681 52.045C72.9128 52.435 72.3928 52.63 71.7081 52.63ZM78.062 52.63C77.36 52.63 76.8227 52.4307 76.45 52.032C76.0774 51.6333 75.891 51.07 75.891 50.342V45.558C75.891 44.83 76.0774 44.2667 76.45 43.868C76.8227 43.4693 77.36 43.27 78.062 43.27C78.764 43.27 79.3014 43.4693 79.674 43.868C80.0467 44.2667 80.233 44.83 80.233 45.558V50.342C80.233 51.07 80.0467 51.6333 79.674 52.032C79.3014 52.4307 78.764 52.63 78.062 52.63ZM78.062 51.33C78.556 51.33 78.803 51.031 78.803 50.433V45.467C78.803 44.869 78.556 44.57 78.062 44.57C77.568 44.57 77.321 44.869 77.321 45.467V50.433C77.321 51.031 77.568 51.33 78.062 51.33ZM82.5001 43.4H84.5411L85.4511 49.913H85.4771L86.3871 43.4H88.4281V52.5H87.0761V45.61H87.0501L86.0101 52.5H84.8141L83.7741 45.61H83.7481V52.5H82.5001V43.4ZM90.7952 43.4H92.9012C93.6119 43.4 94.1449 43.5907 94.5002 43.972C94.8556 44.3533 95.0332 44.9123 95.0332 45.649V46.546C95.0332 47.2827 94.8556 47.8417 94.5002 48.223C94.1449 48.6043 93.6119 48.795 92.9012 48.795H92.2252V52.5H90.7952V43.4ZM92.9012 47.495C93.1352 47.495 93.3086 47.43 93.4212 47.3C93.5426 47.17 93.6032 46.949 93.6032 46.637V45.558C93.6032 45.246 93.5426 45.025 93.4212 44.895C93.3086 44.765 93.1352 44.7 92.9012 44.7H92.2252V47.495H92.9012ZM97.1099 43.4H98.5399V51.2H100.893V52.5H97.1099V43.4ZM102.879 43.4H106.779V44.7H104.309V47.105H106.272V48.405H104.309V51.2H106.779V52.5H102.879V43.4ZM110.019 44.7H108.524V43.4H112.944V44.7H111.449V52.5H110.019V44.7ZM114.937 43.4H118.837V44.7H116.367V47.105H118.33V48.405H116.367V51.2H118.837V52.5H114.937V43.4ZM126.356 52.63C125.672 52.63 125.147 52.435 124.783 52.045C124.428 51.655 124.25 51.1047 124.25 50.394V45.506C124.25 44.7953 124.428 44.245 124.783 43.855C125.147 43.465 125.672 43.27 126.356 43.27C127.041 43.27 127.561 43.465 127.916 43.855C128.28 44.245 128.462 44.7953 128.462 45.506V46.468H127.11V45.415C127.11 44.8517 126.872 44.57 126.395 44.57C125.919 44.57 125.68 44.8517 125.68 45.415V50.498C125.68 51.0527 125.919 51.33 126.395 51.33C126.872 51.33 127.11 51.0527 127.11 50.498V49.107H128.462V50.394C128.462 51.1047 128.28 51.655 127.916 52.045C127.561 52.435 127.041 52.63 126.356 52.63ZM132.71 52.63C132.008 52.63 131.471 52.4307 131.098 52.032C130.726 51.6333 130.539 51.07 130.539 50.342V45.558C130.539 44.83 130.726 44.2667 131.098 43.868C131.471 43.4693 132.008 43.27 132.71 43.27C133.412 43.27 133.95 43.4693 134.322 43.868C134.695 44.2667 134.881 44.83 134.881 45.558V50.342C134.881 51.07 134.695 51.6333 134.322 52.032C133.95 52.4307 133.412 52.63 132.71 52.63ZM132.71 51.33C133.204 51.33 133.451 51.031 133.451 50.433V45.467C133.451 44.869 133.204 44.57 132.71 44.57C132.216 44.57 131.969 44.869 131.969 45.467V50.433C131.969 51.031 132.216 51.33 132.71 51.33ZM137.148 43.4H139.332C140.043 43.4 140.576 43.5907 140.931 43.972C141.287 44.3533 141.464 44.9123 141.464 45.649V50.251C141.464 50.9877 141.287 51.5467 140.931 51.928C140.576 52.3093 140.043 52.5 139.332 52.5H137.148V43.4ZM139.306 51.2C139.54 51.2 139.718 51.1307 139.839 50.992C139.969 50.8533 140.034 50.628 140.034 50.316V45.584C140.034 45.272 139.969 45.0467 139.839 44.908C139.718 44.7693 139.54 44.7 139.306 44.7H138.578V51.2H139.306ZM143.73 43.4H147.63V44.7H145.16V47.105H147.123V48.405H145.16V51.2H147.63V52.5H143.73V43.4ZM155.201 52.63C154.499 52.63 153.962 52.4307 153.589 52.032C153.217 51.6333 153.03 51.07 153.03 50.342V45.558C153.03 44.83 153.217 44.2667 153.589 43.868C153.962 43.4693 154.499 43.27 155.201 43.27C155.903 43.27 156.441 43.4693 156.813 43.868C157.186 44.2667 157.372 44.83 157.372 45.558V50.342C157.372 51.07 157.186 51.6333 156.813 52.032C156.441 52.4307 155.903 52.63 155.201 52.63ZM155.201 51.33C155.695 51.33 155.942 51.031 155.942 50.433V45.467C155.942 44.869 155.695 44.57 155.201 44.57C154.707 44.57 154.46 44.869 154.46 45.467V50.433C154.46 51.031 154.707 51.33 155.201 51.33ZM159.639 43.4H163.422V44.7H161.069V47.235H162.915V48.535H161.069V52.5H159.639V43.4ZM168.79 43.4H170.22V51.2H172.573V52.5H168.79V43.4ZM174.559 43.4H175.989V52.5H174.559V43.4ZM178.36 43.4H182.143V44.7H179.79V47.235H181.636V48.535H179.79V52.5H178.36V43.4ZM184.129 43.4H188.029V44.7H185.559V47.105H187.522V48.405H185.559V51.2H188.029V52.5H184.129V43.4Z" fill="white"/>
</svg>
