<svg width="189" height="60" viewBox="0 0 189 60" fill="none" xmlns="http://www.w3.org/2000/svg">
<path fill-rule="evenodd" clip-rule="evenodd" d="M14.5143 30.1018H16.512C9.14616 24.4618 23.4292 17.6262 25.7534 13.7256C28.0638 17.6257 42.3468 24.4618 34.9809 30.1018H36.9787V48.5026C35.0897 48.5026 33.2008 48.3261 31.3526 47.9862V42.2921C31.5971 40.3351 26.6912 38.2558 25.7534 36.9786C24.8564 38.2017 20.3446 40.1452 20.1408 42.0207C20.1408 42.1023 20.1408 42.1838 20.1408 42.2653V43.5429C18.0615 42.1703 16.1592 40.5393 14.5148 38.6504V30.1018H14.5143Z" fill="#374868"/>
<path fill-rule="evenodd" clip-rule="evenodd" d="M43.8142 13.6986V47.7689C43.0534 47.9319 42.2921 48.0815 41.5178 48.1903V43.4474H39.7238V48.3941C38.9898 48.4483 38.2563 48.489 37.5223 48.5029V13.6991H36.4488V11.8101H36.5711C34.8178 8.80654 39.8192 5.35469 40.6755 3.33008C41.5178 5.35517 46.5192 8.80702 44.7659 11.8101H44.8882V13.6991L43.8142 13.6986ZM39.7238 16.6614H41.5178V21.6081H39.7238V16.6614ZM39.7238 30.0609H41.5178V35.0076H39.7238V30.0609Z" fill="#374868"/>
<path fill-rule="evenodd" clip-rule="evenodd" d="M26.5548 10.0977C26.6636 10.0977 26.772 10.1111 26.8808 10.125C25.875 10.288 25.1276 11.0762 25.1276 12.0278C25.1276 13.0878 26.0926 13.9575 27.2749 13.9575C27.5467 13.9575 27.8047 13.9168 28.0357 13.8353C27.6551 14.202 27.1253 14.4197 26.5543 14.4197C25.3721 14.4197 24.3936 13.4546 24.3936 12.2589C24.394 11.0623 25.3725 10.0977 26.5548 10.0977Z" fill="#374868"/>
<path fill-rule="evenodd" clip-rule="evenodd" d="M41.4362 0C41.545 0 41.6399 0.0134235 41.7487 0.0273268C40.7568 0.190331 39.9955 0.978506 39.9955 1.93016C39.9955 2.99017 40.9606 3.85985 42.1428 3.85985C42.4147 3.85985 42.6731 3.8191 42.9176 3.73759C42.5235 4.10435 42.0071 4.32201 41.4362 4.32201C40.2405 4.32201 39.2754 3.35693 39.2754 2.16124C39.2754 0.96508 40.24 0 41.4362 0Z" fill="#374868"/>
<path fill-rule="evenodd" clip-rule="evenodd" d="M59.6601 42.3062C54.5772 52.7841 43.8276 60.0004 31.4066 60.0004C14.0658 60.0004 0 45.9345 0 28.5937C0 17.1782 6.10212 7.18934 15.2074 1.68555C9.29557 6.91751 5.62653 14.2561 5.62653 22.3833C5.62653 38.27 19.6785 51.1396 37.0193 51.1396C45.9207 51.1396 53.9525 47.7559 59.6601 42.3062Z" fill="#FFD54F"/>
<path d="M75.0522 33.5L75.0862 33.16H75.1202C75.9362 33.16 76.5935 32.9107 77.0922 32.412C77.5908 31.9133 77.8402 31.256 77.8402 30.44V8.476H76.8542C75.7435 8.476 74.6555 8.65733 73.5902 9.02C72.5248 9.36 71.6068 9.99467 70.8362 10.924C70.0655 11.8307 69.5442 13.1453 69.2722 14.868H68.9322L69.8842 8H91.0662L92.0522 14.868H91.7122C91.4402 13.168 90.9075 11.8533 90.1142 10.924C89.3435 9.99467 88.4142 9.36 87.3262 9.02C86.2608 8.65733 85.1502 8.476 83.9942 8.476H83.1102V30.44C83.1102 31.256 83.3595 31.9133 83.8582 32.412C84.3568 32.9107 85.0142 33.16 85.8302 33.16L85.8642 33.5H75.0522ZM100.632 33.976C99.2489 33.976 98.1382 33.602 97.2996 32.854C96.4609 32.106 96.0416 31.12 96.0416 29.896C96.0416 29.3747 96.1322 28.8873 96.3136 28.434C96.4949 27.958 96.8349 27.4933 97.3336 27.04C97.8549 26.5867 98.5689 26.122 99.4756 25.646C100.382 25.1473 101.584 24.626 103.08 24.082L106.242 22.926V20.376C106.242 19.084 106.038 18.064 105.63 17.316C105.222 16.5453 104.655 16.16 103.93 16.16C103.068 16.1827 102.332 16.7493 101.72 17.86C101.13 18.9707 100.734 20.512 100.53 22.484L96.8576 20.376C97.2429 19.4467 97.8322 18.6307 98.6256 17.928C99.4189 17.2253 100.326 16.6813 101.346 16.296C102.388 15.9107 103.476 15.718 104.61 15.718C106.536 15.718 108.1 16.262 109.302 17.35C110.526 18.4153 111.138 19.8773 111.138 21.736V29.93C111.138 31.2447 111.58 31.902 112.464 31.902C112.985 31.902 113.495 31.6187 113.994 31.052L114.266 31.29C113.676 32.0833 112.962 32.7293 112.124 33.228C111.285 33.7267 110.469 33.976 109.676 33.976C108.814 33.976 108.066 33.6813 107.432 33.092C106.82 32.5027 106.434 31.7207 106.276 30.746C105.165 31.8793 104.19 32.7067 103.352 33.228C102.536 33.7267 101.629 33.976 100.632 33.976ZM103.182 31.868C103.68 31.868 104.156 31.7433 104.61 31.494C105.086 31.2447 105.618 30.8367 106.208 30.27L106.242 23.368L104.882 23.878C103.726 24.3087 102.842 24.7507 102.23 25.204C101.618 25.6347 101.187 26.122 100.938 26.666C100.711 27.21 100.598 27.8333 100.598 28.536C100.598 29.5107 100.836 30.3153 101.312 30.95C101.81 31.562 102.434 31.868 103.182 31.868ZM122.459 34.044L115.727 18.404C115.5 17.86 115.194 17.4293 114.809 17.112C114.423 16.772 113.902 16.5907 113.245 16.568V16.228H122.799V16.568C122.005 16.6587 121.484 17.01 121.235 17.622C120.985 18.234 121.065 19.0047 121.473 19.934L124.975 28.128L127.627 21.974L126.233 18.404C126.029 17.8827 125.757 17.452 125.417 17.112C125.077 16.772 124.612 16.5907 124.023 16.568V16.228H132.591V16.568C131.865 16.6587 131.389 17.01 131.163 17.622C130.959 18.234 131.038 19.0047 131.401 19.934L134.529 28.128L137.657 20.138C137.77 19.8433 137.849 19.5713 137.895 19.322C137.94 19.0727 137.963 18.8347 137.963 18.608C137.963 18.0413 137.815 17.5767 137.521 17.214C137.226 16.8513 136.795 16.636 136.229 16.568V16.228H141.057V16.568C140.535 16.704 140.025 17.044 139.527 17.588C139.028 18.132 138.586 18.88 138.201 19.832L132.591 34.044H132.319L127.831 22.552L122.799 34.044H122.459ZM144.359 33.976V11.06C144.359 10.244 144.098 9.58667 143.577 9.088C143.078 8.58933 142.421 8.34 141.605 8.34V8H145.073C146.41 8 147.328 7.87533 147.827 7.626C148.325 7.37667 148.688 7.07067 148.915 6.708H149.255V19.084C149.776 18.064 150.501 17.248 151.431 16.636C152.383 16.024 153.425 15.718 154.559 15.718C155.896 15.718 157.086 16.1147 158.129 16.908C159.171 17.7013 159.987 18.778 160.577 20.138C161.189 21.498 161.495 23.0507 161.495 24.796C161.495 26.6093 161.155 28.2073 160.475 29.59C159.817 30.9727 158.888 32.0493 157.687 32.82C156.485 33.5907 155.08 33.976 153.471 33.976C150.773 33.976 148.96 32.854 148.031 30.61L144.699 33.976H144.359ZM152.485 33.398C153.686 33.398 154.593 32.65 155.205 31.154C155.817 29.658 156.123 27.4593 156.123 24.558C156.123 22.0193 155.885 20.138 155.409 18.914C154.933 17.69 154.185 17.078 153.165 17.078C152.258 17.078 151.453 17.4067 150.751 18.064C150.071 18.7213 149.572 19.458 149.255 20.274V28.808C149.345 30.2133 149.674 31.3353 150.241 32.174C150.807 32.99 151.555 33.398 152.485 33.398ZM170.317 33.976C168.934 33.976 167.824 33.602 166.985 32.854C166.146 32.106 165.727 31.12 165.727 29.896C165.727 29.3747 165.818 28.8873 165.999 28.434C166.18 27.958 166.52 27.4933 167.019 27.04C167.54 26.5867 168.254 26.122 169.161 25.646C170.068 25.1473 171.269 24.626 172.765 24.082L175.927 22.926V20.376C175.927 19.084 175.723 18.064 175.315 17.316C174.907 16.5453 174.34 16.16 173.615 16.16C172.754 16.1827 172.017 16.7493 171.405 17.86C170.816 18.9707 170.419 20.512 170.215 22.484L166.543 20.376C166.928 19.4467 167.518 18.6307 168.311 17.928C169.104 17.2253 170.011 16.6813 171.031 16.296C172.074 15.9107 173.162 15.718 174.295 15.718C176.222 15.718 177.786 16.262 178.987 17.35C180.211 18.4153 180.823 19.8773 180.823 21.736V29.93C180.823 31.2447 181.265 31.902 182.149 31.902C182.67 31.902 183.18 31.6187 183.679 31.052L183.951 31.29C183.362 32.0833 182.648 32.7293 181.809 33.228C180.97 33.7267 180.154 33.976 179.361 33.976C178.5 33.976 177.752 33.6813 177.117 33.092C176.505 32.5027 176.12 31.7207 175.961 30.746C174.85 31.8793 173.876 32.7067 173.037 33.228C172.221 33.7267 171.314 33.976 170.317 33.976ZM172.867 31.868C173.366 31.868 173.842 31.7433 174.295 31.494C174.771 31.2447 175.304 30.8367 175.893 30.27L175.927 23.368L174.567 23.878C173.411 24.3087 172.527 24.7507 171.915 25.204C171.303 25.6347 170.872 26.122 170.623 26.666C170.396 27.21 170.283 27.8333 170.283 28.536C170.283 29.5107 170.521 30.3153 170.997 30.95C171.496 31.562 172.119 31.868 172.867 31.868Z" fill="#374868"/>
<path d="M71.2082 52.63C70.5235 52.63 69.9992 52.435 69.6352 52.045C69.2798 51.655 69.1022 51.1047 69.1022 50.394V45.506C69.1022 44.7953 69.2798 44.245 69.6352 43.855C69.9992 43.465 70.5235 43.27 71.2082 43.27C71.8928 43.27 72.4128 43.465 72.7682 43.855C73.1322 44.245 73.3142 44.7953 73.3142 45.506V46.468H71.9622V45.415C71.9622 44.8517 71.7238 44.57 71.2472 44.57C70.7705 44.57 70.5322 44.8517 70.5322 45.415V50.498C70.5322 51.0527 70.7705 51.33 71.2472 51.33C71.7238 51.33 71.9622 51.0527 71.9622 50.498V49.107H73.3142V50.394C73.3142 51.1047 73.1322 51.655 72.7682 52.045C72.4128 52.435 71.8928 52.63 71.2082 52.63ZM77.5621 52.63C76.8601 52.63 76.3228 52.4307 75.9501 52.032C75.5774 51.6333 75.3911 51.07 75.3911 50.342V45.558C75.3911 44.83 75.5774 44.2667 75.9501 43.868C76.3228 43.4693 76.8601 43.27 77.5621 43.27C78.2641 43.27 78.8014 43.4693 79.1741 43.868C79.5468 44.2667 79.7331 44.83 79.7331 45.558V50.342C79.7331 51.07 79.5468 51.6333 79.1741 52.032C78.8014 52.4307 78.2641 52.63 77.5621 52.63ZM77.5621 51.33C78.0561 51.33 78.3031 51.031 78.3031 50.433V45.467C78.3031 44.869 78.0561 44.57 77.5621 44.57C77.0681 44.57 76.8211 44.869 76.8211 45.467V50.433C76.8211 51.031 77.0681 51.33 77.5621 51.33ZM82.0002 43.4H84.0412L84.9512 49.913H84.9772L85.8872 43.4H87.9282V52.5H86.5762V45.61H86.5502L85.5102 52.5H84.3142L83.2742 45.61H83.2482V52.5H82.0002V43.4ZM90.2953 43.4H92.4013C93.112 43.4 93.645 43.5907 94.0003 43.972C94.3556 44.3533 94.5333 44.9123 94.5333 45.649V46.546C94.5333 47.2827 94.3556 47.8417 94.0003 48.223C93.645 48.6043 93.112 48.795 92.4013 48.795H91.7253V52.5H90.2953V43.4ZM92.4013 47.495C92.6353 47.495 92.8086 47.43 92.9213 47.3C93.0426 47.17 93.1033 46.949 93.1033 46.637V45.558C93.1033 45.246 93.0426 45.025 92.9213 44.895C92.8086 44.765 92.6353 44.7 92.4013 44.7H91.7253V47.495H92.4013ZM96.61 43.4H98.04V51.2H100.393V52.5H96.61V43.4ZM102.379 43.4H106.279V44.7H103.809V47.105H105.772V48.405H103.809V51.2H106.279V52.5H102.379V43.4ZM109.519 44.7H108.024V43.4H112.444V44.7H110.949V52.5H109.519V44.7ZM114.437 43.4H118.337V44.7H115.867V47.105H117.83V48.405H115.867V51.2H118.337V52.5H114.437V43.4ZM125.856 52.63C125.172 52.63 124.647 52.435 124.283 52.045C123.928 51.655 123.75 51.1047 123.75 50.394V45.506C123.75 44.7953 123.928 44.245 124.283 43.855C124.647 43.465 125.172 43.27 125.856 43.27C126.541 43.27 127.061 43.465 127.416 43.855C127.78 44.245 127.962 44.7953 127.962 45.506V46.468H126.61V45.415C126.61 44.8517 126.372 44.57 125.895 44.57C125.419 44.57 125.18 44.8517 125.18 45.415V50.498C125.18 51.0527 125.419 51.33 125.895 51.33C126.372 51.33 126.61 51.0527 126.61 50.498V49.107H127.962V50.394C127.962 51.1047 127.78 51.655 127.416 52.045C127.061 52.435 126.541 52.63 125.856 52.63ZM132.21 52.63C131.508 52.63 130.971 52.4307 130.598 52.032C130.226 51.6333 130.039 51.07 130.039 50.342V45.558C130.039 44.83 130.226 44.2667 130.598 43.868C130.971 43.4693 131.508 43.27 132.21 43.27C132.912 43.27 133.45 43.4693 133.822 43.868C134.195 44.2667 134.381 44.83 134.381 45.558V50.342C134.381 51.07 134.195 51.6333 133.822 52.032C133.45 52.4307 132.912 52.63 132.21 52.63ZM132.21 51.33C132.704 51.33 132.951 51.031 132.951 50.433V45.467C132.951 44.869 132.704 44.57 132.21 44.57C131.716 44.57 131.469 44.869 131.469 45.467V50.433C131.469 51.031 131.716 51.33 132.21 51.33ZM136.648 43.4H138.832C139.543 43.4 140.076 43.5907 140.431 43.972C140.787 44.3533 140.964 44.9123 140.964 45.649V50.251C140.964 50.9877 140.787 51.5467 140.431 51.928C140.076 52.3093 139.543 52.5 138.832 52.5H136.648V43.4ZM138.806 51.2C139.04 51.2 139.218 51.1307 139.339 50.992C139.469 50.8533 139.534 50.628 139.534 50.316V45.584C139.534 45.272 139.469 45.0467 139.339 44.908C139.218 44.7693 139.04 44.7 138.806 44.7H138.078V51.2H138.806ZM143.23 43.4H147.13V44.7H144.66V47.105H146.623V48.405H144.66V51.2H147.13V52.5H143.23V43.4ZM154.701 52.63C153.999 52.63 153.462 52.4307 153.089 52.032C152.717 51.6333 152.53 51.07 152.53 50.342V45.558C152.53 44.83 152.717 44.2667 153.089 43.868C153.462 43.4693 153.999 43.27 154.701 43.27C155.403 43.27 155.941 43.4693 156.313 43.868C156.686 44.2667 156.872 44.83 156.872 45.558V50.342C156.872 51.07 156.686 51.6333 156.313 52.032C155.941 52.4307 155.403 52.63 154.701 52.63ZM154.701 51.33C155.195 51.33 155.442 51.031 155.442 50.433V45.467C155.442 44.869 155.195 44.57 154.701 44.57C154.207 44.57 153.96 44.869 153.96 45.467V50.433C153.96 51.031 154.207 51.33 154.701 51.33ZM159.139 43.4H162.922V44.7H160.569V47.235H162.415V48.535H160.569V52.5H159.139V43.4ZM168.29 43.4H169.72V51.2H172.073V52.5H168.29V43.4ZM174.059 43.4H175.489V52.5H174.059V43.4ZM177.86 43.4H181.643V44.7H179.29V47.235H181.136V48.535H179.29V52.5H177.86V43.4ZM183.629 43.4H187.529V44.7H185.059V47.105H187.022V48.405H185.059V51.2H187.529V52.5H183.629V43.4Z" fill="#374868"/>
</svg>
