<svg width="57" height="57" viewBox="0 0 57 57" fill="none" xmlns="http://www.w3.org/2000/svg">
<path fill-rule="evenodd" clip-rule="evenodd" d="M14.0012 28.5502H15.8658C8.991 23.2862 22.3218 16.9062 24.4911 13.2656C26.6474 16.9058 39.9783 23.2862 33.1034 28.5502H34.968V45.7245C33.205 45.7245 31.442 45.5598 29.717 45.2425V39.928C29.9453 38.1014 25.3664 36.1607 24.4911 34.9687C23.6539 36.1102 19.4428 37.9242 19.2527 39.6747C19.2527 39.7508 19.2527 39.8269 19.2527 39.9029V41.0954C17.312 39.8143 15.5365 38.292 14.0017 36.529V28.5502H14.0012Z" fill="white"/>
<path fill-rule="evenodd" clip-rule="evenodd" d="M41.348 13.2418V45.0411C40.6378 45.1933 39.9273 45.3329 39.2046 45.4344V41.0076H37.5302V45.6246C36.8452 45.6752 36.1605 45.7132 35.4755 45.7262V13.2423H34.4736V11.4793H34.5877C32.9513 8.67587 37.6193 5.45411 38.4184 3.56445C39.2046 5.45456 43.8726 8.67632 42.2362 11.4793H42.3503V13.2423L41.348 13.2418ZM37.5302 16.0072H39.2046V20.6242H37.5302V16.0072ZM37.5302 28.5135H39.2046V33.1304H37.5302V28.5135Z" fill="white"/>
<path fill-rule="evenodd" clip-rule="evenodd" d="M25.2393 9.88086C25.3409 9.88086 25.442 9.89339 25.5436 9.90636C24.6048 10.0585 23.9072 10.7941 23.9072 11.6824C23.9072 12.6717 24.808 13.4834 25.9114 13.4834C26.1651 13.4834 26.4059 13.4454 26.6215 13.3693C26.2663 13.7116 25.7718 13.9148 25.2389 13.9148C24.1354 13.9148 23.2222 13.014 23.2222 11.898C23.2226 10.7812 24.1359 9.88086 25.2393 9.88086Z" fill="white"/>
<path fill-rule="evenodd" clip-rule="evenodd" d="M39.1285 0.455078C39.2301 0.455078 39.3187 0.467607 39.4203 0.480583C38.4945 0.632722 37.7839 1.36836 37.7839 2.25658C37.7839 3.24593 38.6846 4.05764 39.7881 4.05764C40.0418 4.05764 40.283 4.0196 40.5112 3.94353C40.1434 4.28585 39.6615 4.489 39.1285 4.489C38.0126 4.489 37.1118 3.58824 37.1118 2.47226C37.1118 1.35583 38.0121 0.455078 39.1285 0.455078Z" fill="white"/>
<path fill-rule="evenodd" clip-rule="evenodd" d="M56.1376 39.9404C51.3936 49.7198 41.3606 56.4551 29.7677 56.4551C13.583 56.4551 0.454834 43.3268 0.454834 27.1419C0.454834 16.4873 6.15015 7.16427 14.6484 2.02734C9.1307 6.91056 5.70626 13.7599 5.70626 21.3454C5.70626 36.1731 18.8214 48.185 35.0061 48.185C43.3142 48.185 50.8105 45.0267 56.1376 39.9404Z" fill="#FFD54F"/>
</svg>
