<svg width="40" height="40" viewBox="0 0 40 40" fill="none" xmlns="http://www.w3.org/2000/svg">
<path fill-rule="evenodd" clip-rule="evenodd" d="M9.67594 20.0681H11.0078C6.09719 16.3081 15.6192 11.751 17.1687 9.15063C18.7089 11.7507 28.231 16.3081 23.3204 20.0681H24.6522V32.3353C23.3929 32.3353 22.1336 32.2177 20.9015 31.9911V28.195C21.0645 26.8903 17.7939 25.5041 17.1687 24.6527C16.5707 25.468 13.5628 26.7637 13.427 28.0141C13.427 28.0684 13.427 28.1227 13.427 28.1771V29.0289C12.0408 28.1138 10.7725 27.0265 9.67626 25.7672V20.0681H9.67594Z" fill="#374868"/>
<path fill-rule="evenodd" clip-rule="evenodd" d="M29.2094 9.13238V31.8459C28.7022 31.9546 28.1946 32.0543 27.6785 32.1269V28.9649H26.4825V32.2627C25.9931 32.2988 25.5041 32.326 25.0148 32.3353V9.1327H24.2991V7.87341H24.3807C23.2118 5.87101 26.5461 3.56977 27.1169 2.22003C27.6785 3.57009 31.0127 5.87133 29.8439 7.87341H29.9254V9.1327L29.2094 9.13238ZM26.4825 11.1076H27.6785V14.4054H26.4825V11.1076ZM26.4825 20.0406H27.6785V23.3384H26.4825V20.0406Z" fill="#374868"/>
<path fill-rule="evenodd" clip-rule="evenodd" d="M17.7033 6.73175C17.7758 6.73175 17.8481 6.7407 17.9206 6.74997C17.2501 6.85864 16.7518 7.38409 16.7518 8.01853C16.7518 8.7252 17.3952 9.30498 18.1833 9.30498C18.3646 9.30498 18.5365 9.27782 18.6906 9.22348C18.4368 9.46799 18.0836 9.61309 17.703 9.61309C16.9148 9.61309 16.2625 8.96971 16.2625 8.17258C16.2628 7.37482 16.9151 6.73175 17.7033 6.73175Z" fill="#374868"/>
<path fill-rule="evenodd" clip-rule="evenodd" d="M27.6241 0C27.6967 0 27.7599 0.00894901 27.8325 0.0182179C27.1712 0.126887 26.6637 0.652337 26.6637 1.28678C26.6637 1.99345 27.307 2.57323 28.0952 2.57323C28.2764 2.57323 28.4487 2.54606 28.6117 2.49173C28.349 2.73624 28.0048 2.88134 27.6241 2.88134C26.827 2.88134 26.1836 2.23795 26.1836 1.44083C26.1836 0.643387 26.8267 0 27.6241 0Z" fill="#374868"/>
<path fill-rule="evenodd" clip-rule="evenodd" d="M39.7734 28.2039C36.3848 35.1892 29.2184 40 20.9378 40C9.37723 40 0 30.6228 0 19.0623C0 11.4519 4.06808 4.79267 10.1382 1.12347C6.19704 4.61145 3.75102 9.50382 3.75102 14.922C3.75102 25.5131 13.119 34.0929 24.6795 34.0929C30.6138 34.0929 35.9684 31.837 39.7734 28.2039Z" fill="#FFD54F"/>
</svg>
