<svg width="60" height="60" viewBox="0 0 60 60" fill="none" xmlns="http://www.w3.org/2000/svg">
<path fill-rule="evenodd" clip-rule="evenodd" d="M14.5072 30.1028H16.505C9.13908 24.4628 23.4221 17.6272 25.7463 13.7266C28.0567 17.6267 42.3397 24.4628 34.9738 30.1028H36.9716V48.5035C35.0827 48.5035 33.1937 48.3271 31.3455 47.9872V42.2931C31.5901 40.3361 26.6841 38.2568 25.7463 36.9796C24.8493 38.2026 20.3375 40.1462 20.1337 42.0217C20.1337 42.1032 20.1337 42.1847 20.1337 42.2662V43.5439C18.0545 42.1713 16.1521 40.5403 14.5077 38.6514V30.1028H14.5072Z" fill="#374868"/>
<path fill-rule="evenodd" clip-rule="evenodd" d="M43.8073 13.6986V47.7689C43.0464 47.9319 42.2851 48.0815 41.5108 48.1903V43.4474H39.7168V48.3941C38.9828 48.4483 38.2493 48.489 37.5153 48.5029V13.6991H36.4419V11.8101H36.5641C34.8109 8.80654 39.8122 5.35469 40.6685 3.33008C41.5108 5.35517 46.5122 8.80702 44.7589 11.8101H44.8812V13.6991L43.8073 13.6986ZM39.7168 16.6614H41.5108V21.6081H39.7168V16.6614ZM39.7168 30.0609H41.5108V35.0076H39.7168V30.0609Z" fill="#374868"/>
<path fill-rule="evenodd" clip-rule="evenodd" d="M26.548 10.0977C26.6568 10.0977 26.7651 10.1111 26.874 10.125C25.8681 10.288 25.1207 11.0762 25.1207 12.0278C25.1207 13.0878 26.0858 13.9575 27.2681 13.9575C27.5399 13.9575 27.7978 13.9168 28.0289 13.8353C27.6482 14.202 27.1185 14.4197 26.5475 14.4197C25.3652 14.4197 24.3867 13.4546 24.3867 12.2589C24.3872 11.0623 25.3657 10.0977 26.548 10.0977Z" fill="#374868"/>
<path fill-rule="evenodd" clip-rule="evenodd" d="M41.4294 0C41.5383 0 41.6332 0.0134235 41.742 0.0273268C40.7501 0.190331 39.9888 0.978506 39.9888 1.93016C39.9888 2.99017 40.9538 3.85985 42.1361 3.85985C42.4079 3.85985 42.6664 3.8191 42.9109 3.73759C42.5168 4.10435 42.0004 4.32201 41.4294 4.32201C40.2338 4.32201 39.2687 3.35693 39.2687 2.16124C39.2687 0.96508 40.2333 0 41.4294 0Z" fill="#374868"/>
<path fill-rule="evenodd" clip-rule="evenodd" d="M59.6533 42.3062C54.5704 52.7841 43.8207 60.0004 31.3998 60.0004C14.059 60.0004 -0.00683594 45.9345 -0.00683594 28.5937C-0.00683594 17.1782 6.09528 7.18934 15.2005 1.68555C9.28873 6.91751 5.61969 14.2561 5.61969 22.3833C5.61969 38.27 19.6716 51.1396 37.0124 51.1396C45.9139 51.1396 53.9457 47.7559 59.6533 42.3062Z" fill="#FFD54F"/>
</svg>
