<svg width="75" height="80" viewBox="0 0 75 80" fill="none" xmlns="http://www.w3.org/2000/svg">
<path d="M35.9258 39.796L40.1819 39.5L36.1163 39.5051C36.1237 39.5074 36.1313 39.5092 36.1388 39.5116C36.1211 39.6446 36.0367 39.7335 35.9258 39.796Z" fill="#326653"/>
<path d="M58.9426 38.6873C58.4797 39.4539 57.7722 39.9351 57.0207 40.3451C56.6959 40.5242 56.5941 40.7277 56.5956 41.0555C56.5972 41.6871 56.5866 42.3201 56.5896 42.9516C56.5896 43.2719 56.5046 43.4996 56.1281 43.4967C54.5372 43.4815 52.9447 43.4709 51.3538 43.4527C51.2947 43.4527 51.2354 43.3904 51.1216 43.3282C51.4115 43.1476 51.6514 42.9806 51.9064 42.8439C52.7914 42.3703 53.2589 41.6477 53.2043 40.6366C53.18 40.21 53.3182 39.9489 53.684 39.7045C57.0618 37.4516 56.8765 33.3665 55.0624 30.5262C54.0863 28.7714 52.5804 27.5143 51.0518 26.2848C48.2038 23.9925 44.9658 22.148 41.9023 20.1639C40.9474 19.5445 40.038 18.8478 39.2427 18.0295C38.4411 17.2037 37.9173 16.1972 37.1947 15.3349C37.0581 15.6158 36.9215 15.8997 36.7287 16.1486C36.5617 16.3657 36.3658 16.5569 36.1716 16.7483C34.2634 18.6216 32.3537 20.2899 30.0963 21.7382C27.9208 23.1347 25.6528 24.3948 23.5761 25.9417C20.9605 27.8894 18.401 30.4944 18.0261 33.8949C17.9092 34.9484 19.0129 40.532 21.041 39.3843C21.4372 39.1597 21.041 38.8606 20.9468 38.6086C20.2682 36.7808 19.9205 34.8969 20.2105 32.9614C20.4247 31.5329 21.0121 30.1833 22.1597 29.2633C22.1551 29.8645 21.721 30.3032 21.51 30.8285C21.2823 31.3948 21.1336 32.0035 21.0319 32.6062C20.836 33.7797 20.8557 34.991 21.088 36.1584C21.1837 36.6365 21.3127 37.2575 21.5146 37.8253C21.5283 37.8177 21.5405 37.8116 21.5542 37.804C21.542 37.8131 21.5299 37.8222 21.5177 37.8314C21.668 38.2549 21.8592 38.6482 22.1082 38.9274C22.4831 39.3509 23.0995 39.4846 23.687 39.5225L25.0365 39.5209L36.1169 39.5057C36.1246 39.5088 36.1321 39.5103 36.1397 39.5133C36.1214 39.6454 36.0364 39.7349 35.9255 39.7971L26.3511 40.4635L25.4692 40.5243C25.0001 40.5562 24.5324 40.588 24.0649 40.6215C23.6095 40.6549 23.154 40.6867 22.7002 40.7217C22.3039 40.752 21.5054 40.6958 21.2868 41.1255C21.0728 41.543 21.4857 42.1927 21.7787 42.463C22.0974 42.7575 22.4997 42.9411 22.9035 43.1021C23.2572 43.2433 23.0872 43.471 22.7897 43.4725C21.2731 43.4801 19.7581 43.4786 18.243 43.4771C18.0912 43.4771 17.9349 43.4756 17.856 43.3071C17.645 42.6148 17.7786 41.9059 17.771 41.2061C17.7664 40.7492 17.645 40.4547 17.22 40.239C15.2799 39.2492 14.5785 37.5277 14.4054 35.4738C13.8438 28.8004 20.493 23.9091 25.3113 20.5055C27.549 18.9253 29.987 17.6439 32.1456 15.9514C34.1267 14.3999 35.5643 12.4204 36.4949 10.078C36.6027 9.80627 36.6695 9.60134 36.6832 9.44336H37.3481C37.4619 10.1067 38.2482 11.0495 38.4487 11.4305C38.8207 12.135 39.2761 12.8044 39.7724 13.4283C41.8597 16.0531 44.8639 17.7473 47.5996 19.6084C50.4536 21.55 53.2848 23.569 55.7092 26.0419C57.2424 27.6055 58.6831 29.2906 59.4102 31.3916C60.2618 33.8522 60.3681 36.3327 58.9426 38.6873Z" fill="white"/>
<path fill-rule="evenodd" clip-rule="evenodd" d="M39.28 0.766483C39.6089 0.971788 39.9127 1.21739 40.1769 1.4832C38.3324 0.432625 35.9906 0.975375 34.884 2.74829C33.7522 4.5615 34.3504 6.98425 36.2173 8.14969C37.4748 8.93471 38.9657 8.95824 40.1695 8.34334C38.6183 9.8163 36.1588 10.0953 34.2145 8.88162C31.9026 7.43847 31.1674 4.45982 32.5658 2.21962C33.9642 -0.0206996 36.968 -0.676667 39.28 0.766483Z" fill="white"/>
<path fill-rule="evenodd" clip-rule="evenodd" d="M38.3637 1.53711L39.0821 3.67458H41.397L39.5154 4.99506L40.2338 7.13255L38.3637 5.80247L36.4935 7.13255L37.2119 4.99506L35.3418 3.67458H37.6567L38.3637 1.53711Z" fill="#FFD54F"/>
<path d="M73.7911 50.2707C72.6941 50.0132 71.5811 49.9286 70.5128 50.3793C67.9636 51.455 65.4283 52.5632 62.8822 53.6459C59.2679 55.1828 55.6436 56.6961 52.0332 58.2422C47.4507 60.2047 42.8772 62.1882 38.3023 64.1684C37.8976 64.3436 37.5255 64.298 37.1342 64.134C31.8368 61.9144 26.5443 59.6828 21.2365 57.4883C15.7187 55.2069 10.1815 52.9722 4.66215 50.6941C3.49633 50.2129 2.33638 49.8847 1.06694 50.1575C0.525731 50.2739 0.0211031 50.3779 0.000764395 51.0985C-0.0180393 51.7671 0.310702 52.0664 0.917792 52.2899C3.28092 53.1599 5.6301 54.0696 7.92338 55.1148C10.0513 55.813 12.0808 56.7609 14.1548 57.5946C17.6349 58.9935 21.0848 60.4674 24.5493 61.9053C27.6845 63.2065 30.8224 64.5017 33.9694 65.8037C33.8566 66.1399 33.6206 66.2478 33.3558 66.3658C32.4143 66.7853 31.4817 67.2254 30.5541 67.6749C29.8175 68.0318 29.7947 68.1704 30.2918 68.8516C30.8101 69.5619 30.709 69.8886 29.8842 70.1626C28.2567 70.703 26.7173 71.457 25.1371 72.1122C24.0276 72.5722 23.0559 73.3254 21.8726 73.622C21.7098 73.7359 21.5578 73.8716 21.3823 73.9605C19.8198 74.752 18.3022 75.6357 16.9397 76.725C15.0234 78.2569 12.9819 78.8807 10.6016 78.0605C10.46 78.0118 10.296 77.9479 10.1764 78.0798C10.0244 78.2473 10.1452 78.4183 10.2376 78.56C10.6092 79.1289 11.1086 79.5248 11.7775 79.7078C13.0435 80.0545 14.3082 80.0822 15.6015 79.8446C17.8195 79.4369 19.6804 78.2789 21.5036 77.0655C24.6425 74.9763 27.9301 73.2124 31.5396 72.0679C33.2863 71.514 35.0752 71.0135 36.4645 69.7007C36.5978 69.4901 36.731 69.2797 36.8643 69.0692C36.8028 68.8035 36.7994 68.4976 36.4062 68.485C36.2545 68.4801 36.0702 68.4402 36.0693 68.2584C36.0684 68.087 36.2745 68.0685 36.3928 67.9826C37.6176 67.0936 38.7279 67.5673 39.829 68.224C39.7932 68.4034 39.6809 68.448 39.5576 68.4855C38.9065 68.6829 38.8362 68.8719 39.2532 69.3832C39.6055 69.815 40.0268 70.1673 40.5076 70.4602C42.0468 71.3983 43.7886 71.8334 45.4654 72.3989C48.2745 73.3464 50.8277 74.755 53.3153 76.3247C55.2866 77.5685 57.1847 78.9589 59.486 79.5799C61.0618 80.0607 62.6376 80.1782 64.2138 79.5821C64.214 79.582 64.2143 79.582 64.2145 79.582L64.217 79.5832C64.4146 79.5262 64.6121 79.4691 64.8097 79.4121C65.3857 79.0576 65.7882 78.591 65.8506 77.8636C62.7951 78.5554 62.4991 78.5478 60.4198 77.7338C60.287 77.6616 60.1436 77.6036 60.0227 77.515C55.6706 74.3183 50.872 71.9781 45.8321 70.0971C45.1535 69.8438 45.0849 69.5047 45.5436 68.8777C46.0858 68.1367 46.0947 68.0817 45.2727 67.6751C44.2583 67.1734 43.2163 66.7277 42.1871 66.2559C42.0266 66.1823 41.8341 66.1105 41.8063 65.9192C41.7694 65.6635 42.0261 65.6905 42.169 65.626C43.1771 65.171 44.1849 64.7151 45.2005 64.277C48.2738 62.9512 51.3469 61.6249 54.4273 60.3157C56.1604 59.5792 57.8553 58.749 59.6461 58.1514C59.8165 58.0455 59.9764 57.9147 60.1587 57.8372C62.9135 56.6665 65.6673 55.4935 68.4295 54.3408C70.1942 53.6044 71.9683 52.89 73.7469 52.1878C74.2608 51.9849 74.4017 51.6075 74.4087 51.1184C74.4151 50.6802 74.1941 50.3654 73.7911 50.2707Z" fill="white"/>
<path d="M38.0082 61.8153L67.0995 49.5189C67.0995 49.5189 64.8731 42.2321 38.0082 59.5382C38.0082 59.5382 16.4865 44.3574 7.13574 49.0635L37.1176 61.8153H38.0082Z" fill="#FFD54F"/>
<path d="M38.2566 49.3672H37.3457V59.9937H38.2566V49.3672Z" fill="#FFD54F"/>
<path d="M11.9932 48.0013C12.9817 47.5041 14.0196 47.1062 15.0727 46.7591C16.1269 46.413 17.2032 46.1323 18.2916 45.904C20.47 45.4582 22.704 45.2429 24.9385 45.305C27.1728 45.3589 29.405 45.7033 31.56 46.3242C33.7167 46.9434 35.7829 47.8665 37.7093 49.0147L37.4967 48.9556C37.6991 48.9535 37.9014 48.9545 38.1039 48.9561L37.8476 49.0457C38.0955 48.8571 38.3242 48.7089 38.5674 48.5546C38.8086 48.4051 39.0522 48.2612 39.2996 48.1258C39.7933 47.8531 40.2977 47.6035 40.8118 47.3777C41.8373 46.9203 42.8962 46.5447 43.9755 46.2503C45.0541 45.9531 46.1504 45.7275 47.2544 45.5642C48.359 45.4029 49.4726 45.3234 50.585 45.2901L51.4195 45.2773L52.2535 45.2927L52.6702 45.3022L53.0864 45.3262L53.9178 45.3801L54.7463 45.4623L55.1603 45.5044L55.5725 45.5604L56.3964 45.6726C56.6701 45.7165 56.9428 45.766 57.2154 45.8146C59.3954 46.2086 61.5365 46.7879 63.6076 47.5457C61.4828 46.9567 59.3293 46.4883 57.1545 46.206L56.3393 46.1012L55.5216 46.0227L55.1131 45.9834L54.7035 45.9581L53.8847 45.9094C52.792 45.8788 51.6994 45.855 50.6103 45.9237C49.5216 45.9856 48.4378 46.1019 47.3634 46.272C46.2903 46.4497 45.2283 46.6875 44.1876 46.9936C43.148 47.3023 42.1245 47.6644 41.1404 48.1118C40.6469 48.3317 40.1641 48.5742 39.6951 48.8369C39.4598 48.9672 39.2298 49.1052 39.0034 49.2471C38.782 49.3886 38.5502 49.5435 38.3604 49.6895L38.2453 49.7782L38.104 49.7792C37.9017 49.7808 37.6993 49.7818 37.4968 49.7797L37.3802 49.7786L37.2842 49.7206C36.3527 49.1584 35.3877 48.6524 34.3956 48.2066C33.4012 47.7658 32.3799 47.3864 31.3396 47.0674C29.2588 46.4254 27.0932 46.0673 24.9127 45.9411C22.731 45.8269 20.5316 45.9478 18.3633 46.2959C17.2778 46.4642 16.2017 46.6967 15.1363 46.9745C14.6038 47.1142 14.0747 47.2689 13.55 47.4386C13.0251 47.6072 12.5029 47.7877 11.9932 48.0013Z" fill="#FFD54F"/>
<path d="M54.9394 72.8398L47.6374 69.5697C47.4709 69.4952 47.3957 69.2979 47.4702 69.1314L47.5497 68.9538C47.6242 68.7873 47.8215 68.7121 47.988 68.7866L55.29 72.0567C55.4565 72.1313 55.5318 72.3285 55.4572 72.495L55.3777 72.6726C55.3032 72.8391 55.1059 72.9143 54.9394 72.8398Z" fill="#FFD54F"/>
<path d="M28.5402 69.497L21.303 72.9079C21.138 72.9857 20.9392 72.9143 20.8614 72.7493L20.7785 72.5734C20.7008 72.4084 20.7722 72.2096 20.9372 72.1318L28.1744 68.7209C28.3394 68.6432 28.5382 68.7145 28.616 68.8795L28.6989 69.0554C28.7766 69.2206 28.7053 69.4192 28.5402 69.497Z" fill="#FFD54F"/>
</svg>
