<svg width="77" height="87" viewBox="0 0 77 87" fill="none" xmlns="http://www.w3.org/2000/svg">
<path d="M27.6352 8.44524L27.8902 7.69109C27.6929 7.45373 27.6065 7.12913 27.7132 6.81376C27.8384 6.44354 28.1751 6.20851 28.5452 6.19104L28.7546 5.57173C28.548 5.36943 28.4585 5.06159 28.5574 4.76908C28.6594 4.46742 28.9304 4.26872 29.2295 4.24255L30.1797 2.40431L29.8191 4.44194C30.041 4.6443 30.1365 4.96437 30.0337 5.26831C29.9348 5.56083 29.6777 5.74891 29.3899 5.78657L29.1797 6.40817C29.4609 6.64589 29.5882 7.0378 29.463 7.40802C29.3563 7.72339 29.0915 7.92669 28.7906 7.99557L28.7265 8.18525L28.5356 8.74972C28.806 9.02706 28.9247 9.43648 28.7926 9.82727C28.6666 10.1998 28.3451 10.4425 27.9825 10.5134L27.8673 10.8539L26.8892 10.5231L27.0043 10.1826C26.7591 9.90617 26.651 9.51816 26.7769 9.14565C26.9091 8.75487 27.252 8.50155 27.6352 8.44524Z" fill="#7A5739"/>
<path d="M20.1025 46.5762L11.0869 43.5274L3.67885 65.4344L12.6945 68.4831L20.1025 46.5762Z" fill="#F0D495"/>
<path d="M23.8848 33.0117L23.6814 32.9429L23.6126 33.1463L23.816 33.2151L23.8848 33.0117Z" fill="black"/>
<path d="M11.714 43.2239L20.2588 46.1134L25.6777 30.0889L16.5467 27.103L11.714 43.2239Z" fill="#F0D495"/>
<path d="M26.7285 27.333L17.7929 24.3113L17.1646 26.1693L26.1002 29.191L26.7285 27.333Z" fill="#F0D495"/>
<path d="M28.208 21.1104L20.1157 18.3738L18.3514 23.5912L26.4437 26.3277L28.208 21.1104Z" fill="#F0D495"/>
<path d="M29.333 18.542L20.7288 15.6324L20.109 17.4652L28.7132 20.3748L29.333 18.542Z" fill="#F0D495"/>
<path d="M29.6387 12.7451L24.2133 10.9105L22.5819 15.7347L28.0073 17.5694L29.6387 12.7451Z" fill="#F0D495"/>
<path d="M8.24262 56.954L10.3045 50.8569C10.8717 49.1794 12.7066 48.2719 14.384 48.8392C16.0614 49.4064 16.9689 51.2413 16.4017 52.9187L14.3399 59.0159L8.24262 56.954Z" fill="#FFEEC0"/>
<path d="M15.7287 37.6876L17.1166 33.5832C17.4984 32.4542 18.7339 31.8432 19.8628 32.225C20.9918 32.6067 21.6028 33.8422 21.2211 34.9711L19.8331 39.0756L15.7287 37.6876Z" fill="#FFEEC0"/>
<path d="M13.4682 58.7203L15.1012 53.8915C15.0621 53.043 13.8885 50.3006 13.8885 50.3006C13.8885 50.3006 11.2913 51.7678 10.7453 52.4185L9.1467 57.2589L13.4682 58.7203Z" fill="#2E0201"/>
<path d="M23.581 24.9868L23.7895 24.4079C23.7657 23.9058 23.0724 22.2809 23.0724 22.2809C23.0724 22.2809 21.5337 23.1485 21.2116 23.5362L21.0229 24.1243L23.581 24.9868Z" fill="#2E0201"/>
<path d="M20.0831 21.2702C20.0831 21.2702 18.5444 22.1378 18.2224 22.5255L18.0337 23.1136L20.5932 23.9791L20.8002 23.3972C20.7795 22.8936 20.0831 21.2702 20.0831 21.2702Z" fill="#2E0201"/>
<path d="M26.2599 23.3591C26.2599 23.3591 24.7212 24.2266 24.3991 24.6143L24.2104 25.2024L26.77 26.068L26.977 25.486C26.9563 24.9825 26.2599 23.3591 26.2599 23.3591Z" fill="#2E0201"/>
<path d="M15.0439 43.5727L15.6799 41.6919C15.8545 41.1754 16.5913 40.3372 17.0849 40.5041C17.5809 40.6718 17.6561 41.7821 17.4807 42.3009L16.8447 44.1817L15.0439 43.5727Z" fill="#2E0201"/>
<path d="M18.9453 44.8926L18.0449 44.5882L18.6809 42.7073C18.8555 42.1909 19.5923 41.3526 20.0859 41.5195" fill="#2E0201"/>
<path d="M13.9267 39.4367C14.4226 39.6044 14.4979 40.7147 14.3225 41.2335L13.6865 43.1143L12.7861 42.8098" fill="#2E0201"/>
<path d="M15.4078 33.2359L16.4376 32.54L16.523 33.613L17.514 32.904L17.6359 33.9894L18.5904 33.268L18.7512 34.3665L19.6645 33.6312L19.8641 34.7429L20.7409 33.9952L20.9794 35.12L21.8173 34.3592L22.0923 35.4964L22.8937 34.7232L23.2076 35.8735" stroke="#2E0201" stroke-width="0.15" stroke-miterlimit="10"/>
<path d="M14.7587 34.7074L15.7885 34.0115L15.8716 35.0837L16.8626 34.3747L16.9869 35.4609L17.939 34.7387L18.0998 35.8372L19.0154 35.1027L19.2151 36.2144L20.0918 35.4667L20.328 36.5907L21.1659 35.8299L21.4432 36.9678L22.2423 36.1939L22.5562 37.3442" stroke="#2E0201" stroke-width="0.15" stroke-miterlimit="10"/>
<path d="M14.1724 36.2007L15.2023 35.5049L15.2876 36.5779L16.2787 35.8689L16.4006 36.9542L17.355 36.2329L17.5158 37.3314L18.4291 36.5961L18.6288 37.7077L19.5055 36.9601L19.744 38.0849L20.5819 37.3241L20.857 38.4612L21.6583 37.6881L21.9722 38.8383" stroke="#2E0201" stroke-width="0.15" stroke-miterlimit="10"/>
<path d="M13.6578 37.7212L14.6876 37.0254L14.773 38.0984L15.764 37.3894L15.8859 38.4747L16.8404 37.7534L17.0012 38.8519L17.9145 38.1166L18.1141 39.2282L18.9909 38.4806L19.2294 39.6054L20.0673 38.8446L20.3423 39.9817L21.1437 39.2086L21.4576 40.3588" stroke="#2E0201" stroke-width="0.15" stroke-miterlimit="10"/>
<path d="M14.2924 26.5655C14.1726 26.2347 14.252 25.8643 14.4987 25.6166C14.7439 25.3659 15.1128 25.2768 15.4442 25.3888L15.9881 25.5728L16.6558 23.5982C16.7902 23.2006 17.1704 22.9726 17.5701 22.9957L18.6427 19.8237L17.3689 18.0102C17.1422 17.6865 17.1487 17.2532 17.385 16.9384C17.6221 16.6213 18.0346 16.4934 18.4094 16.6201L18.9533 16.804L19.621 14.8295C19.7825 14.3519 20.3024 14.0948 20.7801 14.2563L21.3057 14.4341C21.3111 14.4181 21.3066 14.4013 21.3128 14.383C22.3352 11.3595 25.0696 9.54656 27.4098 10.3379C29.75 11.1293 30.8221 14.232 29.7997 17.2555C29.7943 17.2715 29.7797 17.2844 29.7743 17.3004L30.3022 17.4789C30.7799 17.6404 31.037 18.1603 30.8755 18.6379L30.2078 20.6124L30.4912 20.7082C30.8705 20.8365 31.1215 21.1939 31.1114 21.5928C31.1035 21.9926 30.8388 22.3385 30.4546 22.4505L28.2616 23.0917L27.209 26.2043L27.3347 26.2468C27.8123 26.4083 28.0695 26.9282 27.9079 27.4059L27.2402 29.3804L27.5259 29.477C27.8596 29.5898 28.0971 29.8815 28.1391 30.2318C28.1818 30.5799 28.0224 30.9233 27.7271 31.1112L24.9485 32.8965L20.6942 45.4771L20.8199 45.5196C21.2976 45.6811 21.5547 46.201 21.3932 46.6786L14.0307 68.4507C13.8692 68.9283 13.3493 69.1854 12.8717 69.0239L3.09048 65.7163C2.61284 65.5548 2.35572 65.0349 2.51723 64.5573L9.87972 42.7852C10.0412 42.3075 10.5611 42.0504 11.0388 42.2119L11.1644 42.2544L15.4187 29.6738L14.2924 26.5655ZM28.0697 16.6705C28.7567 14.6388 28.1861 12.5308 26.824 12.0702C25.462 11.6096 23.729 12.9386 23.042 14.9703C23.0366 14.9863 23.022 14.9992 23.0166 15.0152L28.0626 16.7215C28.0688 16.7033 28.0643 16.6865 28.0697 16.6705ZM28.8511 18.916L21.0581 16.2807L20.6833 17.3891L28.4763 20.0243L28.8511 18.916ZM19.3163 23.5328L25.4798 25.617L26.6846 22.0542C26.6923 22.0314 26.7099 22.017 26.7199 21.9949C26.7315 21.9682 26.7484 21.9485 26.7622 21.9226C26.8576 21.746 26.9925 21.6032 27.1667 21.5246C27.1698 21.5231 27.1721 21.5162 27.1775 21.5155L20.4609 19.2442C20.4624 19.2473 20.4601 19.2541 20.4616 19.2572C20.5516 19.4277 20.5729 19.6284 20.5377 19.8304C20.5338 19.8571 20.536 19.8808 20.5267 19.9082C20.522 19.9295 20.5257 19.9486 20.5188 19.9692L19.314 23.532M25.8866 27.6824L18.0936 25.0471L17.7188 26.1555L25.5118 28.7908L25.8866 27.6824ZM4.54166 64.2716L12.5929 66.9942L19.3696 46.9544L19.2439 46.9119L11.4463 44.275L11.3207 44.2325L4.54166 64.2716ZM18.9635 44.8867L23.3198 32.0044C23.3329 31.9656 23.3598 31.939 23.379 31.9048C23.4059 31.8477 23.4344 31.7936 23.4728 31.7404C23.5127 31.6902 23.5586 31.6523 23.6061 31.6097C23.6375 31.5847 23.6567 31.5505 23.6904 31.5262L25.1408 30.5957L16.6577 27.727L17.2457 29.3469C17.2608 29.3851 17.2553 29.424 17.262 29.4644C17.277 29.5255 17.2897 29.5858 17.2887 29.6492C17.2899 29.7132 17.2775 29.7727 17.2635 29.8367C17.2557 29.8748 17.2624 29.9153 17.25 29.9519L12.8937 42.8341L18.9635 44.8867Z" fill="#CCA86C"/>
<path d="M26.4201 16.1839L26.8119 15.0252C26.9881 14.5042 26.7068 13.9354 26.1857 13.7592C25.6647 13.583 25.0958 13.8643 24.9196 14.3853L24.5278 15.544" fill="#2E0201"/>
<path d="M47.7321 21.8537L45.7773 24.2079L45.0975 21.2251L42.2545 20.0906L44.8826 18.5243L45.0828 15.4698L47.3856 17.4862L50.3512 16.7294L49.1451 19.543L50.7809 22.1309L47.7321 21.8537Z" fill="#A0A3A0"/>
<path d="M57.6152 19.0453C57.6152 19.0453 56.5712 29.5205 48.0096 30.3255L41.4054 28.8741C41.4054 28.8741 45.8784 36.9214 54.7715 32.6809C63.6647 28.4405 58.1477 17.4707 58.1477 17.4707L57.6152 19.0453Z" fill="#A0A3A0"/>
<path d="M46.2576 34.1576C43.3667 33.18 40.8906 31.021 39.6067 28.002C39.6037 27.9959 39.5999 27.9921 39.5969 27.986L39.5939 27.9798C39.5486 27.8728 39.5231 27.7598 39.5198 27.6492C39.5206 27.6469 39.5206 27.6469 39.5213 27.6446C39.5173 27.5134 39.5408 27.3838 39.5901 27.2604C39.5924 27.2536 39.5917 27.2482 39.594 27.2414C39.6195 27.1812 39.6662 27.1334 39.7023 27.0793C39.7284 27.0398 39.7431 26.9964 39.7753 26.9614C39.7791 26.9576 39.7845 26.9569 39.7883 26.9531C39.8519 26.8855 39.9314 26.8385 40.0156 26.7931C40.0408 26.7787 40.0638 26.7559 40.0905 26.7446C40.0997 26.7401 40.1051 26.7317 40.1165 26.7279C40.1899 26.6993 40.267 26.6973 40.3441 26.6877C40.3784 26.6841 40.4136 26.6705 40.4494 26.6699C40.5311 26.6695 40.6111 26.6889 40.6888 26.7075C40.7284 26.7184 40.7666 26.7185 40.8054 26.7317C40.893 26.7664 40.9713 26.8209 41.0451 26.8815C41.0648 26.8984 41.0908 26.9046 41.1105 26.9214C43.7622 29.4047 47.6362 30.1035 50.9815 28.6907C55.6514 26.7199 57.8475 21.3175 55.8766 16.6477C55.8562 16.6026 55.8595 16.5553 55.8475 16.5079C55.8302 16.4385 55.8053 16.3689 55.8041 16.2972C55.8021 16.2354 55.8214 16.1783 55.8339 16.1188C55.8441 16.0586 55.8466 15.9983 55.8682 15.942C55.8945 15.8719 55.942 15.8141 55.9858 15.7525C56.0111 15.7153 56.025 15.6741 56.0572 15.6392C56.0603 15.6377 56.0633 15.6361 56.0641 15.6339C56.1039 15.5913 56.1613 15.5649 56.2087 15.53C56.2608 15.489 56.3098 15.4419 56.3694 15.4162C56.3725 15.4147 56.3725 15.4147 56.3733 15.4124C56.4031 15.3996 56.4351 15.4028 56.4664 15.393C56.5543 15.3667 56.6391 15.3419 56.7314 15.34C56.7749 15.3394 56.8152 15.3556 56.8572 15.3596C56.9357 15.3683 57.0127 15.374 57.0866 15.4041C57.1498 15.428 57.203 15.474 57.2608 15.5139C57.3019 15.5431 57.3507 15.5571 57.3871 15.5923C57.3886 15.5954 57.3909 15.5961 57.3924 15.5992C57.3977 15.6061 57.4031 15.613 57.4091 15.6176C58.5252 16.6775 59.3994 17.9332 60.0012 19.3616C62.3769 24.9883 59.7304 31.4965 54.106 33.8728C51.5112 34.9639 48.7349 34.9954 46.2576 34.1576ZM58.4378 20.6487C58.268 24.8034 55.7877 28.704 51.711 30.4272C49.2186 31.479 46.4856 31.548 44.0051 30.75C46.5609 32.8315 50.1321 33.5069 53.3735 32.1379C57.8576 30.2418 60.0195 25.1818 58.4378 20.6487Z" fill="#A0A3A0"/>
<path d="M63.9423 51.5128L46.3058 42.5234L42.2579 52.5584L61.164 59.7285L63.9423 51.5128Z" fill="#1C1C1C"/>
<path d="M59.3555 65.0762L40.1827 58.6945L36.6556 69.1247L56.1715 74.4916L59.3555 65.0762Z" fill="#1C1C1C"/>
<path d="M45.6387 42.5605L42.2577 52.5587L23.7624 46.5005L26.2734 38.1562L45.6387 42.5605Z" fill="#282828"/>
<path d="M39.3347 58.5907L21.0886 51.7278L18.0878 60.6017L35.7446 69.6514L39.3347 58.5907Z" fill="#282828"/>
<path d="M61.0575 59.9839L22.6879 46.9375L21.2552 51.1744L40.7317 58.9474L59.4377 64.7739L61.0575 59.9839Z" fill="#FFCD00"/>
<path d="M33.5518 52.1025L31.6504 51.4596L31.1442 52.9564L33.0456 53.5994L33.5518 52.1025Z" fill="#DBB001"/>
<path d="M30.4053 51.0381L24.356 48.9925L23.8498 50.4893L29.8991 52.535L30.4053 51.0381Z" fill="#DBB001"/>
<path d="M40.8438 54.5684L34.7945 52.5227L34.2883 54.0196L40.3376 56.0652L40.8438 54.5684Z" fill="#DBB001"/>
<path d="M48.1387 57.0352L42.0894 54.9895L41.5832 56.4864L47.6325 58.532L48.1387 57.0352Z" fill="#DBB001"/>
<path d="M51.2861 58.0996L49.3847 57.4566L48.8786 58.9535L50.7799 59.5965L51.2861 58.0996Z" fill="#DBB001"/>
<path d="M58.5811 60.5664L52.5318 58.5208L52.0256 60.0176L58.0749 62.0633L58.5811 60.5664Z" fill="#DBB001"/>
<path d="M56.2456 74.8837L35.9943 69.6806L17.9599 60.9794L15.55 68.8739L34.0662 78.7185L53.5112 82.3069L56.2456 74.8837Z" fill="#A75D2C"/>
<path d="M16.008 64.9406L20.5389 51.5419L22.3674 46.1348L25.0985 38.0586C25.2499 37.6107 25.7119 37.3441 26.1745 37.4369L45.915 41.3416C45.9417 41.3456 45.9668 41.3617 45.9927 41.3679C46.0064 41.3726 46.0201 41.3696 46.0339 41.3742C46.0476 41.3788 46.0567 41.3896 46.0704 41.3942C46.0947 41.405 46.1245 41.4074 46.1481 41.4205L64.2412 50.3096C64.6652 50.5167 64.8706 51.0089 64.7191 51.4568L61.988 59.533L60.1032 65.1069L54.3149 82.2238C54.1665 82.6626 53.7198 82.9292 53.2624 82.8509L33.3107 79.4579C33.2627 79.4493 33.2155 79.4384 33.1675 79.4222C33.1195 79.406 33.0745 79.3882 33.0319 79.3636L15.1501 69.9628C14.739 69.7474 14.5458 69.2644 14.6942 68.8256L15.8874 65.2971C15.8985 65.1964 15.9173 65.0958 15.9627 64.9991C15.9758 64.9755 15.9957 64.9619 16.008 64.9406ZM59.9018 59.8207L23.8531 47.6304L22.6189 51.2801L40.4189 57.9182L58.6143 63.6281L59.9018 59.8207ZM19.4342 60.6978L35.9007 68.3951L38.9486 59.3819L22.0146 53.0672L19.4342 60.6978ZM30.0741 70.7592L30.9528 68.1608L25.3059 65.5203L24.4519 68.0456L30.0741 70.7592ZM41.2137 74.4854L41.9141 72.0228L37.0634 70.846L36.1855 73.4421L41.2137 74.4854ZM35.294 70.1891L32.6704 68.9632L31.784 71.5844L34.396 72.8446L35.294 70.1891ZM40.7342 59.9908L37.6692 69.0543L55.3291 73.3429L58.01 65.4152L40.7342 59.9908ZM54.7233 75.1346L51.2306 74.2871L50.6171 76.4403L54.0409 77.1525L54.7233 75.1346ZM49.3978 73.8405L43.7446 72.4687L43.0621 74.8711L48.7679 76.057L49.3978 73.8405ZM39.3776 76.0292L38.6858 78.459L45.4744 79.6137L46.098 77.4231L39.3776 76.0292ZM36.8035 78.1586L37.5285 75.6458L35.5773 75.2406L34.7171 77.7842L36.8035 78.1586ZM33.7886 74.6408L26.7359 71.2398L25.9894 73.4474C25.9817 73.4702 25.9633 73.487 25.9533 73.509L32.9308 77.1775L33.7886 74.6408ZM25.0237 70.4138L20.8419 68.3961L20.1449 70.4574L24.2749 72.6282L25.0237 70.4138ZM22.7398 67.2196L23.586 64.7172L18.8268 62.4941L18.0007 64.937L22.7398 67.2196ZM24.4559 45.8479L41.5684 51.6347L44.4942 42.9825L26.6205 39.4468L24.4559 45.8479ZM46.2821 43.5846L43.3563 52.2368L60.5054 58.0359L62.6692 51.6371L46.2821 43.5846ZM53.4335 78.9487L47.9486 77.8096L47.3428 79.9323L52.7882 80.857L53.4335 78.9487ZM18.4536 69.5697L19.129 67.5724L17.3925 66.7356L16.7387 68.6689L18.4536 69.5697Z" fill="black"/>
</svg>
