<svg width="88" height="88" viewBox="0 0 88 88" fill="none" xmlns="http://www.w3.org/2000/svg">
<g clip-path="url(#clip0_1544_20340)">
<path d="M58.1898 25.1726C57.5189 26.2547 56.2375 27.1621 55.1361 27.7943C53.0904 28.9684 51.2214 30.4302 49.5929 32.1364C42.9548 39.0911 43.7772 43.7716 43.7772 43.7716C43.7772 43.7716 39.7111 41.3118 30.8263 44.9848C28.6464 45.8859 26.6076 47.0995 24.773 48.5821C23.7854 49.3803 22.4759 50.2467 21.2243 50.4807C20.9629 50.5296 20.8341 50.8261 20.9843 51.0455L23.0861 54.1154L47.0959 48.6189L60.9051 28.2232L58.8033 25.1533C58.653 24.9338 58.33 24.9466 58.1898 25.1726Z" fill="#FDF6EC"/>
<path d="M58.8033 25.152L60.905 28.2217L59.4219 30.4123L57.006 26.8836C56.9406 26.7881 56.8528 26.7274 56.7614 26.7006C57.3286 26.2481 57.8418 25.7342 58.1905 25.1719C58.3294 24.9455 58.6532 24.9327 58.8033 25.152Z" fill="#FCEAD0"/>
<path d="M47.0968 48.6197L20.5974 54.6863C20.1919 54.7792 20.0073 55.2514 20.2423 55.5947L22.0175 58.1876L49.6146 52.2974L65.0884 28.6995L63.3132 26.1066C63.0782 25.7633 62.5712 25.7646 62.3379 26.1091L47.0968 48.6197Z" fill="#6ED5A1"/>
<path d="M63.3132 26.107L65.088 28.6993L63.6286 30.9245L61.6918 28.0955C61.5659 27.9118 61.3784 27.812 61.1928 27.8002L62.338 26.1094C62.5706 25.7652 63.0782 25.7637 63.3132 26.107Z" fill="#46CC8D"/>
<path d="M81.6522 45.457L17.931 59.0572C17.6206 59.1234 17.4767 59.4835 17.656 59.7453L19.8203 62.9065C19.9146 63.0443 20.078 63.1178 20.2436 63.0971L77.3543 55.944C77.4649 55.9302 77.5662 55.8754 77.6385 55.7906L79.911 53.1211C79.9744 53.0465 80.0606 52.9949 80.1564 52.9743L85.5859 51.8011C85.8955 51.7341 86.0386 51.3746 85.8596 51.1132L82.1132 45.6412C82.0111 45.4919 81.829 45.4191 81.6522 45.457Z" fill="#C68D7A"/>
<path d="M82.1134 45.6401L83.4148 47.5409C83.3584 47.5304 83.3007 47.5311 83.2435 47.5434L19.3823 61.1731C19.0715 61.2398 18.926 61.6003 19.1061 61.8634L17.6559 59.7451C17.4765 59.4832 17.6208 59.1233 17.9308 59.0574L81.652 45.4564C81.8291 45.4187 82.0119 45.4918 82.1134 45.6401Z" fill="#BC7C63"/>
<path d="M31.6475 79.6922L67.376 25.2051C67.55 24.9397 67.9377 24.9358 68.117 25.1977L70.2812 28.3589C70.3756 28.4966 70.385 28.6755 70.3058 28.8225L42.979 79.4787C42.9261 79.5768 42.8384 79.6515 42.7332 79.6882L39.4225 80.8412C39.33 80.8733 39.2507 80.9351 39.1968 81.0169L36.1391 85.6543C35.9647 85.9188 35.5777 85.9222 35.3987 85.6607L31.6524 80.1887C31.5503 80.0394 31.5483 79.8433 31.6475 79.6922Z" fill="#935B44"/>
<path d="M31.6519 80.188L32.9533 82.0889C32.9639 82.0325 32.9854 81.9789 33.0176 81.9301L68.8242 27.3232C68.9987 27.0576 69.3875 27.0523 69.5676 27.3154L68.1174 25.1972C67.938 24.9352 67.5503 24.9396 67.3767 25.2047L31.6475 79.6915C31.5483 79.8429 31.5504 80.0398 31.6519 80.188Z" fill="#87523E"/>
<path d="M52.3316 56.2653C52.8924 55.8814 53.0357 55.1155 52.6518 54.5547C52.2679 53.9939 51.502 53.8505 50.9412 54.2345C50.3804 54.6184 50.237 55.3843 50.621 55.9451C51.0049 56.5059 51.7708 56.6493 52.3316 56.2653Z" fill="#03060E"/>
<path d="M71.0447 27.8394L68.8804 24.6782C68.622 24.3007 68.1946 24.0781 67.7372 24.0827C67.28 24.0872 66.857 24.318 66.6061 24.7008L65.0714 27.0413L64.0744 25.585C63.7914 25.1716 63.3231 24.9255 62.8221 24.9268C62.3209 24.9281 61.854 25.1767 61.5733 25.5914L60.9013 26.5838L59.5654 24.6325C59.319 24.2727 58.912 24.0639 58.4767 24.0737C58.0379 24.0837 57.6378 24.3129 57.406 24.687C56.9392 25.4399 55.9961 26.2377 54.6773 26.9944C52.5478 28.2167 50.6127 29.7325 48.9259 31.4998C44.1689 36.4836 43.0769 40.4174 42.868 42.4407C42.4407 42.323 41.9155 42.2116 41.2851 42.1368C38.8171 41.8438 35.9617 42.2241 32.7983 43.2672C32.3147 43.4266 32.051 43.9485 32.2108 44.4327C32.3705 44.9168 32.8923 45.1799 33.3764 45.0202C39.2893 43.0706 42.4517 44.1815 43.1507 44.4902L43.6543 45.2257C36.7306 45.3333 30.0245 48.1257 29.7183 48.2548C29.2494 48.453 29.0287 48.9939 29.2266 49.4635C29.4245 49.9332 29.9656 50.1535 30.4354 49.9558C30.5115 49.9237 37.9657 46.8243 44.9271 47.0848L45.569 48.0224L39.9981 49.2978L23.4932 53.0763L22.1916 51.1751C23.1679 50.8383 24.228 50.2105 25.3538 49.3006C26.677 48.2313 28.1168 47.3038 29.6328 46.5444C30.0884 46.3168 30.2731 45.7616 30.0446 45.3059C29.8164 44.8501 29.2618 44.6658 28.8061 44.8941C27.1716 45.7129 25.6199 46.7123 24.1934 47.865C23.0115 48.8204 21.9262 49.4112 21.0553 49.5741C20.6228 49.6549 20.2639 49.9453 20.0962 50.3505C19.9296 50.7528 19.977 51.2078 20.2234 51.5676L21.5594 53.519L20.3911 53.7864C19.9028 53.8982 19.5022 54.2435 19.3197 54.7102C19.1373 55.1769 19.1974 55.7024 19.4804 56.1159L20.4774 57.5721L17.7403 58.1563C17.2928 58.2517 16.9244 58.5625 16.7549 58.9873C16.5851 59.412 16.638 59.891 16.8965 60.2685L19.0607 63.4297C19.3517 63.8546 19.8497 64.0788 20.3604 64.0146L42.6584 61.2217L30.8777 79.1878C30.572 79.6539 30.578 80.2521 30.8929 80.7119L34.6393 86.184C34.8973 86.5609 35.324 86.7836 35.7809 86.7796C36.0573 86.7771 36.3211 86.692 36.5422 86.5407C36.6864 86.4419 36.8124 86.3149 36.9118 86.1643L39.8808 81.6615L43.0389 80.5617C43.3628 80.4489 43.6307 80.2207 43.7936 79.9189L54.6925 59.7146L66.9108 58.1842C67.4161 58.121 67.7752 57.6596 67.7119 57.1538C67.6486 56.6479 67.1872 56.2894 66.6814 56.3528L55.7688 57.7196L59.2999 51.1738L81.5342 46.4282L84.699 51.0507L79.9637 52.0741C79.6714 52.1371 79.4039 52.2972 79.2102 52.5248L77.0578 55.0532L70.9665 55.8162C70.4608 55.8793 70.1021 56.3407 70.1654 56.8466C70.2287 57.3525 70.6901 57.7111 71.1959 57.6476L77.4711 56.8617C77.8113 56.8192 78.1213 56.6517 78.3432 56.3908L80.511 53.8441L85.7827 52.705C85.9592 52.6668 86.123 52.5953 86.2674 52.4965C86.4883 52.3452 86.6633 52.1298 86.7654 51.8732C86.9343 51.4489 86.8812 50.9705 86.6231 50.5935L82.8767 45.1214C82.5618 44.6616 82.0062 44.4396 81.4613 44.5561L60.4507 49.0406L71.1199 29.2628C71.3644 28.8097 71.3356 28.2643 71.0447 27.8394ZM46.4503 46.042C48.7254 39.4578 54.3112 33.6294 54.3687 33.5701C54.723 33.2039 54.7136 32.6197 54.3474 32.2651C53.9812 31.9106 53.3968 31.9204 53.0423 32.2863C52.8112 32.525 47.7822 37.7669 45.1774 44.1829L44.6733 43.4465C44.6559 43.0907 44.6677 42.1765 45.0789 40.8328C45.6192 39.0673 46.9569 36.2362 50.2612 32.7743C51.8254 31.1352 53.6204 29.7292 55.5961 28.5954C56.8515 27.8748 57.8202 27.1138 58.4873 26.3253L59.789 28.2265L50.2963 42.2471L47.0922 46.9794L46.4504 46.042L46.4503 46.042ZM21.2798 55.4767L47.3023 49.5193C47.53 49.4672 47.7297 49.3305 47.8606 49.137L62.8274 27.0315L63.9769 28.7104L49.0505 51.4738L22.4293 57.1556L21.2798 55.4767ZM20.4197 62.1469L18.8218 59.8131L47.6115 53.6685L43.9875 59.1952L20.4197 62.1469ZM32.4212 80.2003L32.4228 80.198C32.4222 80.1987 32.4217 80.1995 32.4212 80.2003ZM69.3573 28.6423L42.2566 78.8794L39.1208 79.9714C38.8385 80.0697 38.5924 80.2613 38.4282 80.5106L35.7612 84.5553L32.5965 79.9329L67.7593 26.3086L69.3573 28.6423Z" fill="#03060E"/>
<path d="M34.6138 22.2048C35.1746 21.8208 35.318 21.055 34.934 20.4942C34.5501 19.9334 33.7842 19.79 33.2234 20.1739C32.6626 20.5579 32.5193 21.3238 32.9032 21.8846C33.2871 22.4454 34.053 22.5887 34.6138 22.2048Z" fill="#03060E"/>
<path d="M37.9074 19.9331C38.3855 19.45 38.3816 18.6709 37.8986 18.1927C37.4155 17.7146 36.6364 17.7186 36.1582 18.2016C35.6801 18.6846 35.684 19.4638 36.1671 19.9419C36.6501 20.4201 37.4293 20.4161 37.9074 19.9331Z" fill="#03060E"/>
<path d="M50.2557 26.5828C50.6763 26.2948 50.7838 25.7204 50.4958 25.2998L44.5153 16.5645C44.2273 16.1438 43.6529 16.0363 43.2323 16.3243C42.8116 16.6123 42.7041 17.1866 42.9921 17.6073L48.9727 26.3427C49.2607 26.7633 49.835 26.8708 50.2557 26.5828Z" fill="#03060E"/>
<path d="M19.5009 33.6893L25.4815 42.4248C25.7695 42.8454 26.3439 42.9529 26.7645 42.6649C27.1852 42.3769 27.2927 41.8026 27.0047 41.3819L21.0241 32.6465C20.7361 32.2259 20.1617 32.1183 19.7411 32.4063C19.3204 32.6943 19.2129 33.2687 19.5009 33.6893Z" fill="#03060E"/>
<path d="M31.6 40.0707C32.3847 39.9955 33.2264 39.6356 34.0004 39.1057C35.3691 38.1686 36.5251 36.6997 36.7749 35.334C36.8977 34.662 36.8488 33.9434 36.641 33.2256C37.9598 33.1575 39.2327 32.7367 40.2831 32.0176C43.0187 30.1446 44.4931 26.6704 42.45 23.7441C41.521 22.4136 40.1245 21.5587 38.8054 21.513C38.053 21.4871 36.9582 21.7011 36.016 22.8696C34.7464 24.4437 35.178 26.41 36.3061 27.329C37.0125 27.9043 37.8806 28.1186 38.8172 27.9485C39.9347 27.7456 40.9186 27.0387 41.5703 26.2769C41.7603 27.3836 41.3686 28.7409 39.5926 30.2275C38.6074 31.0518 37.256 31.4712 35.8848 31.3774C35.8357 31.374 35.7875 31.3757 35.7399 31.3798C35.1646 30.5518 34.4605 29.8674 33.7764 29.2035L32.5822 28.0443C32.2165 27.6893 31.633 27.6978 31.277 28.0638C30.9219 28.4296 30.9307 29.0138 31.2964 29.3688L32.4907 30.528C33.1852 31.2022 33.9034 31.8994 34.3935 32.6898C34.8856 33.4837 35.0864 34.3047 34.959 35.002C34.7173 36.3227 32.7685 38.1042 31.4237 38.2332C30.8114 38.2918 30.2298 38.0646 29.8677 37.6256C29.529 37.2148 29.431 36.6892 29.5919 36.1452C29.7363 35.6564 29.4572 35.143 28.9683 34.9986C28.4796 34.8541 27.9663 35.133 27.8216 35.6222C27.4866 36.756 27.7132 37.9142 28.4434 38.7998C29.1963 39.7128 30.3762 40.1879 31.6 40.0707ZM40.4563 24.677C40.1006 25.2871 39.3099 25.9831 38.4873 26.1323C38.0869 26.205 37.7548 26.1283 37.4719 25.8978C36.9206 25.4488 37.017 24.5688 37.4528 24.0285C37.5943 23.853 37.742 23.7124 37.8973 23.6061C38.156 23.429 38.4355 23.3472 38.7415 23.3579C39.3705 23.3797 40.088 23.793 40.654 24.44C40.5772 24.5055 40.51 24.5849 40.4563 24.677Z" fill="#03060E"/>
<path d="M16.6985 32.3714C17.0199 32.5737 17.418 32.5536 17.7125 32.3519C17.8133 32.2829 17.9022 32.1924 17.9716 32.0823C18.886 30.6307 19.7897 28.942 19.8278 28.8708C20.034 28.4849 19.9408 28.0072 19.6048 27.727C19.2687 27.4468 18.7811 27.4411 18.4395 27.7132C17.4708 28.4828 16.7377 28.7079 16.2616 28.3815C15.8973 28.1316 15.8739 27.8214 15.8923 27.6587C15.9181 27.4308 16.0667 27.1397 16.4065 27.0061C16.8809 26.8188 17.114 26.2834 16.9271 25.8092C16.7404 25.3349 16.2045 25.1017 15.7303 25.2884C14.809 25.6515 14.1684 26.4798 14.0582 27.4507C13.9489 28.4143 14.3825 29.3314 15.218 29.9041C15.6225 30.1813 16.1658 30.4036 16.8536 30.3744C16.708 30.6178 16.5584 30.8623 16.4096 31.0986C16.1378 31.5298 16.2672 32.0997 16.6985 32.3714Z" fill="#03060E"/>
</g>
<defs>
<clipPath id="clip0_1544_20340">
<rect width="63" height="63" fill="white" transform="translate(0 35.5898) rotate(-34.3971)"/>
</clipPath>
</defs>
</svg>
