<svg width="80" height="79" viewBox="0 0 80 79" fill="none" xmlns="http://www.w3.org/2000/svg">
<path d="M13.804 49.6855L38.8691 42.7763L45.2469 65.9133L20.1818 72.8226L13.804 49.6855Z" fill="#FFE7D4"/>
<path d="M51.2718 23.7993C50.2089 24.0923 49.1052 23.4656 48.8122 22.4027C48.5193 21.3398 49.146 20.2361 50.2089 19.9431L52.1369 19.4116C53.1998 19.1186 54.3035 19.7453 54.5965 20.8082C54.8895 21.8711 54.2628 22.9748 53.1999 23.2678L51.2718 23.7993Z" fill="#F7A284"/>
<path d="M11.777 46.0962L11.5551 45.2913C10.5599 41.6808 11.8441 37.8837 14.8271 35.6189C17.2604 33.7711 19.4429 31.6085 21.3113 29.1921L21.5533 28.8792L21.9214 29.0239C24.764 30.1417 27.7463 30.8806 30.7827 31.2207C34.5048 31.6372 37.5531 34.24 38.5484 37.8505L38.7703 38.6554L11.777 46.0962Z" fill="#FFBD99"/>
<path d="M20.4537 43.7046L20.4033 43.5219C19.0653 38.6678 19.4733 33.4671 21.5533 28.8783C25.6906 31.7533 28.7057 36.0104 30.0438 40.8645L30.0941 41.0472L20.4537 43.7046Z" fill="#F7A284"/>
<path d="M61.7093 16.6531C60.5985 15.0123 58.9501 13.7689 57.0693 13.1528L56.5912 12.9949L56.9857 12.5336C58.2355 11.0627 58.9902 9.19236 59.1098 7.26712L59.1198 7.10839C60.2351 8.79147 61.8972 10.0696 63.7939 10.6995L64.3057 10.8694L64.0169 11.1962C62.6633 12.7312 61.8672 14.7051 61.7773 16.7529L61.7093 16.6531Z" fill="#99CFFF"/>
<path d="M9.65093 31.0046C8.5402 29.3639 6.89172 28.1205 5.01096 27.5044L4.53286 27.3465L4.92739 26.8852C6.17714 25.4143 6.93186 23.5439 7.0515 21.6187L7.06143 21.4599C8.17673 23.143 9.83883 24.4211 11.7356 25.0511L12.2474 25.221L11.9586 25.5477C10.6049 27.0828 9.80887 29.0567 9.71895 31.1044L9.65093 31.0046Z" fill="#99CFFF"/>
<path d="M12.8399 49.9516C11.777 50.2446 10.6734 49.6179 10.3804 48.555C10.0874 47.4921 10.7141 46.3885 11.777 46.0955L38.7702 38.6547C39.8331 38.3617 40.9368 38.9884 41.2298 40.0513C41.5228 41.1142 40.8961 42.2179 39.8332 42.5109L12.8399 49.9516Z" fill="#F9D5C2"/>
<path d="M27.8942 70.6969L24.9261 59.9295C23.9703 56.4622 24.9182 52.6909 27.3996 50.0873C30.8644 51.0518 33.6108 53.8048 34.5666 57.2721L37.5346 68.0395L27.8942 70.6969Z" fill="#FFBD99"/>
<path d="M41.3905 66.9755L38.2016 55.407C37.3558 52.3388 38.0207 49.1136 39.9342 46.6402L45.2467 65.9126L41.3905 66.9755Z" fill="#FFBD99"/>
<path d="M20.1815 72.8232L14.869 53.5508C17.7795 54.6944 20.003 57.1235 20.8488 60.1917L24.0377 71.7602L20.1815 72.8232Z" fill="#FFBD99"/>
<path d="M53.8302 29.3171C55.4275 28.8768 56.3654 27.225 55.9251 25.6278C55.4848 24.0305 53.833 23.0926 52.2358 23.5329C50.6385 23.9731 49.7006 25.6249 50.1409 27.2222C50.5812 28.8195 52.2329 29.7574 53.8302 29.3171Z" fill="#FFBD99"/>
<path d="M64.7301 57.1814C56.7014 59.3945 48.3852 54.7217 46.1918 46.7645C43.9984 38.8074 48.7458 30.5335 56.7744 28.3203C59.2825 27.629 61.9353 27.5916 64.4454 28.2125C60.6149 31.026 58.8848 35.9762 60.1403 40.5309C61.8277 46.6522 68.2248 50.2465 74.3997 48.5444L74.669 48.4702C72.8667 52.7616 69.2434 55.9373 64.7301 57.1814Z" fill="#FFDE83"/>
<path d="M58.6756 62.0945C57.5649 60.4537 55.9164 59.2104 54.0356 58.5942L53.5575 58.4363L53.9521 57.9751C55.2018 56.5041 55.9565 54.6338 56.0762 52.7085L56.0861 52.5498C57.2014 54.2329 58.8635 55.511 60.7602 56.1409L61.272 56.3108L60.9832 56.6376C59.6296 58.1726 58.8335 60.1465 58.7436 62.1943L58.6756 62.0945Z" fill="#99CFFF"/>
<path d="M20.2807 76.9458C19.2178 77.2388 18.1141 76.6121 17.8212 75.5492C17.5282 74.4863 18.1549 73.3826 19.2178 73.0896L46.211 65.6488C47.2739 65.3558 48.3776 65.9825 48.6706 67.0454C48.9636 68.1083 48.3369 69.212 47.274 69.505L20.2807 76.9458Z" fill="#F9D5C2"/>
<path d="M21.5532 28.8799C23.6829 28.2928 24.9334 26.0904 24.3464 23.9607C23.7593 21.831 21.5569 20.5804 19.4272 21.1675C17.2975 21.7546 16.047 23.9569 16.634 26.0866C17.2211 28.2164 19.4235 29.4669 21.5532 28.8799Z" fill="#FFDE83"/>
<path d="M56.2788 13.9466L56.7579 14.1042C58.4304 14.6521 59.8938 15.757 60.883 17.2176L60.951 17.3174C61.1924 17.6712 61.6307 17.832 62.0431 17.7183L62.0516 17.716C62.4657 17.5978 62.7577 17.2276 62.7761 16.7981C62.8561 14.979 63.5626 13.2242 64.7675 11.8588L65.0554 11.5323C65.2768 11.2809 65.3575 10.9344 65.2704 10.611C65.183 10.2866 64.9387 10.0288 64.6206 9.922L64.1088 9.75209C62.4239 9.19241 60.9543 8.06891 59.9448 6.54913C59.704 6.19716 59.2668 6.03707 58.8551 6.14954C58.4446 6.26269 58.1491 6.62374 58.1217 7.04967L58.1121 7.20626C58.0054 8.91725 57.3352 10.5799 56.2246 11.8869L55.8313 12.3488C55.6154 12.6018 55.5393 12.947 55.6297 13.2675C55.7201 13.588 55.9633 13.8421 56.2788 13.9466ZM59.7518 9.41338C60.5947 10.2112 61.5724 10.8625 62.6377 11.3276C61.9605 12.274 61.4543 13.3333 61.1411 14.4499C60.2982 13.652 59.3185 13.0013 58.2524 12.5364C58.9289 11.5912 59.4374 10.5292 59.7518 9.41338Z" fill="#3F3C36"/>
<path d="M4.22046 28.2962L4.69951 28.4538C6.37204 29.0017 7.83547 30.1067 8.8246 31.5672L8.89262 31.667C9.13401 32.0208 9.57237 32.1816 9.98473 32.0679L9.9932 32.0656C10.4073 31.9474 10.6993 31.5772 10.7177 31.1477C10.7977 29.3286 11.5043 27.5738 12.7092 26.2085L12.997 25.8819C13.2184 25.6305 13.2992 25.284 13.2121 24.9606C13.1247 24.6362 12.8804 24.3784 12.5622 24.2716L12.0504 24.1017C10.3655 23.542 8.89597 22.4185 7.88647 20.8987C7.64561 20.5468 7.20844 20.3867 6.79676 20.4992C6.38629 20.6123 6.09075 20.9733 6.06331 21.3993L6.0538 21.5559C5.94702 23.2669 5.27688 24.9295 4.16629 26.2365L3.77296 26.6985C3.55704 26.9515 3.48098 27.2966 3.57135 27.6171C3.66173 27.9376 3.90498 28.1917 4.22046 28.2962ZM7.69342 23.763C8.53633 24.5608 9.51409 25.2121 10.5793 25.6772C9.90216 26.6236 9.39594 27.683 9.08276 28.7995C8.23984 28.0016 7.2602 27.3509 6.19404 26.886C6.8705 25.9408 7.37903 24.8788 7.69342 23.763Z" fill="#3F3C36"/>
<path d="M40.0989 43.4754C41.6938 43.0358 42.6335 41.3809 42.1938 39.786C41.8479 38.5309 40.7473 37.6936 39.5175 37.603L39.5124 37.5845C38.4076 33.5767 35.0245 30.6893 30.8936 30.2265C28.5072 29.9595 26.1598 29.426 23.885 28.6614C25.1985 27.4311 25.8209 25.5459 25.3105 23.6941C24.6689 21.3664 22.4733 19.8765 20.1524 20.0342L18.2654 13.1885C18.1185 12.6556 17.5685 12.3433 17.0356 12.4902C16.5027 12.6371 16.1904 13.1871 16.3373 13.72L18.2244 20.5657C16.1505 21.6194 15.0284 24.0239 15.67 26.3515C16.1805 28.2034 17.681 29.5033 19.4393 29.8869C17.8776 31.7091 16.135 33.37 14.2225 34.822C10.9121 37.336 9.48631 41.549 10.5911 45.5568L10.5962 45.5753C9.58648 46.2832 9.07036 47.5661 9.41634 48.8213C9.85596 50.4161 11.5109 51.3558 13.1057 50.9162L18.952 72.1251C17.3572 72.5648 16.4175 74.2197 16.8571 75.8145C17.2967 77.4093 18.9517 78.349 20.5465 77.9094L47.5397 70.4686C49.1345 70.029 50.0742 68.3741 49.6346 66.7793C49.195 65.1845 47.5401 64.2448 45.9453 64.6844L40.0989 43.4754ZM37.5386 37.9574L30.7578 39.8265C29.7578 36.6524 28.0699 33.7527 25.8348 31.3226C27.4246 31.7268 29.0392 32.0317 30.6717 32.2144C33.9296 32.5785 36.6083 34.8254 37.5386 37.9574ZM28.849 40.3527L21.1668 42.4703C20.234 38.4729 20.5215 34.2718 21.984 30.4418C25.2024 32.9815 27.6018 36.442 28.849 40.3527ZM19.693 22.1306C21.2878 21.691 22.9428 22.6307 23.3824 24.2255C23.8218 25.8198 22.8831 27.4737 21.2893 27.9142L21.2856 27.9152C19.6912 28.3536 18.0376 27.4142 17.5981 25.82C17.1585 24.2252 18.0982 22.5703 19.693 22.1306ZM15.4316 36.4154C16.7399 35.4221 17.9703 34.333 19.1284 33.1712C18.4541 36.4033 18.4903 39.7583 19.2579 42.9965L12.4772 44.8656C11.6712 41.6994 12.8204 38.3973 15.4316 36.4154ZM11.3444 48.2898C11.1978 47.7579 11.5108 47.2066 12.0427 47.06L39.036 39.6192C39.5679 39.4726 40.1191 39.7856 40.2658 40.3175C40.4124 40.8494 40.0994 41.4007 39.5675 41.5473L12.5742 48.9881C12.0423 49.1347 11.4911 48.8217 11.3444 48.2898ZM38.1708 44.0069L38.8456 46.4547C36.9812 49.122 36.3693 52.5234 37.2378 55.6743L40.161 66.2788L38.2329 66.8103L35.5306 57.007C34.4822 53.2035 31.4695 50.1826 27.6678 49.1246C27.3125 49.026 26.9302 49.1314 26.6755 49.3981C23.953 52.2546 22.9136 56.3924 23.9621 60.1959L26.6644 69.9992L24.7363 70.5307L21.8131 59.9262C20.9446 56.7752 18.6765 54.1686 15.7086 52.8326L15.0338 50.3847L38.1708 44.0069ZM36.3048 67.3418L28.5925 69.4677L25.8902 59.6644C25.0818 56.7318 25.782 53.5576 27.7159 51.2355C30.5664 52.2387 32.7941 54.6059 33.6025 57.5385L36.3048 67.3418ZM16.4549 55.5401C18.1059 56.7301 19.3357 58.4646 19.885 60.4577L22.8082 71.0622L20.8801 71.5937L16.4549 55.5401ZM47.7065 67.3108C47.8532 67.8427 47.5402 68.3939 47.0082 68.5405L20.015 75.9813C19.4831 76.1279 18.9318 75.8149 18.7852 75.283C18.6386 74.7511 18.9516 74.1999 19.4835 74.0532L46.4767 66.6125C47.0087 66.4658 47.5599 66.7788 47.7065 67.3108ZM42.0891 65.7473L39.1659 55.1428C38.6165 53.1498 38.7839 51.0301 39.5919 49.1623L44.0172 65.2159L42.0891 65.7473Z" fill="#3F3C36"/>
<path d="M74.403 47.5044L74.1328 47.5789C68.4879 49.1349 62.6416 45.8558 61.1017 40.2692C59.9367 36.0431 61.4823 31.6249 65.039 29.0125C65.3523 28.7823 65.5031 28.3923 65.4274 28.011C65.352 27.6306 65.0627 27.3274 64.6857 27.2349C62.1483 26.6114 59.4766 26.6247 56.9273 27.2546C57.0581 26.6459 57.0658 26.0031 56.8892 25.3624C56.6101 24.3497 55.9574 23.5446 55.127 23.0324C55.6115 22.3276 55.8051 21.4294 55.5605 20.5422C55.1209 18.9474 53.466 18.0077 51.8712 18.4473L48.1508 4.95069C48.0039 4.41782 47.4539 4.1055 46.921 4.25238C46.3881 4.39927 46.0758 4.94931 46.2227 5.48217L49.9431 18.9788C48.3483 19.4184 47.4086 21.0733 47.8482 22.6681C48.0927 23.5553 48.7192 24.2275 49.4964 24.5845C49.0457 25.4498 48.8977 26.4756 49.1769 27.4884C49.4834 28.6003 50.2375 29.4635 51.1868 29.9597C46.0132 33.7929 43.4293 40.5051 45.2281 47.0304C46.2415 50.7068 48.5479 53.896 51.7225 56.0123C52.1844 56.3175 52.8036 56.1934 53.1096 55.7343C53.4156 55.2751 53.291 54.6541 52.8316 54.3472C50.0569 52.4985 48.0416 49.7112 47.1561 46.4989C45.1091 39.0728 49.5416 31.3506 57.0364 29.2847C58.7282 28.8183 60.4892 28.6692 62.2195 28.8385C59.2195 31.9822 58.0019 36.5501 59.1736 40.8007C60.841 46.8495 66.7419 50.6282 72.8447 49.8698C70.9957 52.9666 68.0264 55.2367 64.4611 56.2195C64.394 56.237 64.34 56.2539 64.1789 56.2872L63.7807 56.397C63.2478 56.5438 62.9355 57.0939 63.0824 57.6267C63.2293 58.1596 63.7793 58.4719 64.3122 58.325L64.6159 58.2363C64.7485 58.2139 64.8646 58.1829 64.9926 58.1476C69.8091 56.8199 73.672 53.4333 75.5909 48.8555C75.7386 48.5018 75.6722 48.0956 75.4196 47.8077C75.1672 47.5207 74.7721 47.4027 74.403 47.5044ZM54.9612 25.8939C55.2542 26.9568 54.6275 28.0605 53.5646 28.3535C52.5017 28.6465 51.398 28.0198 51.105 26.9569C50.812 25.894 51.4387 24.7903 52.5016 24.4973C53.5645 24.2043 54.6682 24.831 54.9612 25.8939ZM50.4746 20.9069L52.4027 20.3754C52.9346 20.2288 53.4858 20.5418 53.6324 21.0737C53.7791 21.6056 53.4661 22.1569 52.9341 22.3035L51.0061 22.835C50.4741 22.9816 49.9229 22.6686 49.7763 22.1367C49.6296 21.6047 49.9427 21.0535 50.4746 20.9069Z" fill="#3F3C36"/>
<path d="M61.5868 55.3615L61.075 55.1915C59.3901 54.6319 57.9205 53.5084 56.911 51.9886C56.6701 51.6366 56.233 51.4765 55.8213 51.589C55.4108 51.7021 55.1153 52.0632 55.0878 52.4891L55.0783 52.6457C54.9716 54.3567 54.3014 56.0194 53.1908 57.3263L52.7975 57.7883C52.5816 58.0413 52.5055 58.3864 52.5959 58.7069C52.6863 59.0275 52.9295 59.2815 53.245 59.386L53.724 59.5437C55.3966 60.0916 56.86 61.1965 57.8491 62.6571L57.9172 62.7568C58.1585 63.1107 58.5969 63.2715 59.0093 63.1578L59.0177 63.1554C59.4319 63.0372 59.7239 62.667 59.7422 62.2375C59.8223 60.4184 60.5288 58.6637 61.7337 57.2983L62.0215 56.9718C62.243 56.7203 62.3237 56.3739 62.2366 56.0505C62.1492 55.7261 61.9049 55.4683 61.5868 55.3615ZM58.1073 59.8893C57.2644 59.0915 56.2847 58.4407 55.2186 57.9759C55.895 57.0307 56.4036 55.9687 56.718 54.8528C57.5609 55.6507 58.5386 56.302 59.6038 56.7671C58.9267 57.7135 58.4205 58.7728 58.1073 59.8893Z" fill="#3F3C36"/>
</svg>
