<svg width="87" height="87" viewBox="0 0 87 87" fill="none" xmlns="http://www.w3.org/2000/svg">
<g clip-path="url(#clip0_1432_9684)">
<path d="M37.8736 25.204L35.7976 19.7214C34.8832 17.3064 32.2724 18.295 33.1868 20.7099L35.2628 26.1926C36.1772 28.6075 38.788 27.619 37.8736 25.204Z" fill="#FFDE76"/>
<path d="M10.9749 33.0035C12.5675 32.4005 13.1552 34.8197 10.3032 27.2876C10.1721 26.9414 9.90886 26.6615 9.57136 26.5094C9.23385 26.3572 8.84975 26.3454 8.50354 26.4765C8.15733 26.6076 7.87737 26.8709 7.72526 27.2084C7.57314 27.5459 7.56133 27.93 7.69243 28.2762C10.5444 35.8083 9.38235 33.6065 10.9749 33.0035Z" fill="#FFDE76"/>
<path d="M60.5799 14.2203C62.1725 13.6172 62.7602 16.0365 59.9082 8.50443C59.7771 8.15822 59.5138 7.87827 59.1763 7.72616C58.8388 7.57404 58.4547 7.56223 58.1085 7.69332C57.7623 7.82442 57.4824 8.08767 57.3302 8.42517C57.1781 8.76267 57.1663 9.14678 57.2974 9.49299C60.1494 17.0251 58.9873 14.8233 60.5799 14.2203Z" fill="#FFDE76"/>
<path d="M65.561 39.1992L23.7886 55.0161L25.7657 60.2377L67.5381 44.4208L65.561 39.1992Z" fill="#9DCC6B"/>
<path d="M23.7885 55.0178L24.7771 57.6286L61.328 43.7888C62.0204 43.5266 62.5803 43.0001 62.8845 42.3251C63.1888 41.6501 63.2124 40.8819 62.9502 40.1895L23.7885 55.0178Z" fill="#B5E08C"/>
<path d="M67.5381 44.4219L25.7656 60.2388L33.6741 81.125L75.4465 65.3081L67.5381 44.4219Z" fill="#DAD7E5"/>
<path d="M25.7656 60.2385L32.6855 78.5139L66.6256 65.6627C68.0104 65.1383 69.1302 64.0853 69.7387 62.7353C70.3472 61.3853 70.3944 59.8489 69.87 58.464L64.9272 45.4102L25.7656 60.2385Z" fill="#EDEBF2"/>
<path d="M58.3623 35.9551L27.033 47.8178L29.0101 53.0393L60.3394 41.1766L58.3623 35.9551Z" fill="#DAD7E5"/>
<path d="M27.0329 47.8175L28.0215 50.4283L54.1292 40.5427C54.8217 40.2805 55.3816 39.754 55.6858 39.079C55.99 38.404 56.0136 37.6358 55.7515 36.9434L27.0329 47.8175Z" fill="#EDEBF2"/>
<path d="M68.4507 23.1797L60.6184 26.1454L75.4467 65.307L83.279 62.3413L68.4507 23.1797Z" fill="#DAD7E5"/>
<path d="M60.6183 26.147C75.0166 64.173 74.5886 62.6485 74.4581 62.6979C75.8429 62.1736 76.9627 61.1205 77.5712 59.7705C78.1796 58.4205 78.2269 56.8841 77.7025 55.4993L65.8398 24.1699L60.6183 26.147Z" fill="#EDEBF2"/>
<path d="M67.7788 17.4648L57.3357 21.4191L59.3128 26.6406L69.7559 22.6864L67.7788 17.4648Z" fill="#9DCC6B"/>
<path d="M57.3356 21.4188L58.3242 24.0296L63.5457 22.0525C64.2382 21.7903 64.7981 21.2638 65.1023 20.5888C65.4065 19.9138 65.4302 19.1455 65.168 18.4531L57.3356 21.4188Z" fill="#B5E08C"/>
<path d="M58.642 20.9269L66.4743 17.9613L62.3348 13.454C62.0552 13.1538 61.6925 12.9437 61.293 12.8504C60.8935 12.7571 60.4753 12.7848 60.0916 12.9301C59.708 13.0754 59.3763 13.3316 59.1388 13.6661C58.9013 14.0006 58.7687 14.3982 58.758 14.8083C58.6626 20.2325 58.6764 18.9288 58.642 20.9269Z" fill="#FFCC66"/>
<path d="M58.6695 19.4234C61.9982 18.163 62.5447 14.8367 60.6431 12.8104C60.1312 12.8454 59.651 13.0709 59.2971 13.4425C58.9433 13.8141 58.7415 14.3048 58.7316 14.8178L58.6695 19.4234Z" fill="#FFDE76"/>
<path d="M16.8699 36.7452L9.03758 39.7108L9.15365 33.5922C9.15738 33.1788 9.2859 32.7762 9.52236 32.4371C9.75883 32.098 10.0922 31.8382 10.4789 31.6918C10.8655 31.5454 11.2873 31.5192 11.6891 31.6167C12.0909 31.7141 12.4538 31.9307 12.7304 32.2379L16.8699 36.7452Z" fill="#FFCC66"/>
<path d="M25.8418 84.0898L33.6741 81.1242L18.8458 41.9625L11.0135 44.9282L25.8418 84.0898Z" fill="#DAD7E5"/>
<path d="M9.70801 45.4238L20.1511 41.4696L18.174 36.248L7.7309 40.2023L9.70801 45.4238Z" fill="#9DCC6B"/>
<path d="M26.6925 42.9763C26.9929 43.8284 27.4956 44.595 28.1574 45.2101C28.8193 45.8251 29.6205 46.2704 30.4924 46.5077L54.9031 37.2647C55.3992 36.5095 55.7046 35.6452 55.7931 34.746C55.8815 33.8468 55.7505 32.9395 55.4111 32.1022C53.0188 25.7841 42.5392 24.4387 36.2721 24.9161C36.2721 24.9161 23.5292 34.6218 26.6925 42.9763Z" fill="#FFCC66"/>
<path d="M27.6109 44.6137L50.2855 36.0281C55.8464 33.9225 50.6207 23.8265 36.272 24.9162C30.2925 29.4639 22.9704 38.7439 27.6109 44.6137Z" fill="#FFDE76"/>
<path d="M30.121 19.7877C30.5762 20.3312 31.162 20.7503 31.8235 21.0056C32.4849 21.2609 33.2003 21.344 33.9027 21.2473C34.6051 21.1505 35.2714 20.877 35.8392 20.4524C36.407 20.0278 36.8576 19.466 37.149 18.8196C37.4403 18.1732 37.5627 17.4634 37.5048 16.7568C37.4469 16.0502 37.2104 15.3698 36.8177 14.7795C36.425 14.1892 35.8889 13.7083 35.2595 13.3818C34.6301 13.0553 33.9282 12.894 33.2194 12.9129C33.6557 14.2388 33.5796 15.6799 33.0061 16.9524C32.4326 18.2249 31.4033 19.2364 30.121 19.7877Z" fill="#FFCC66"/>
<path d="M30.1213 19.788C30.3044 20.0135 30.5159 20.2143 30.7505 20.3855C31.6613 20.5357 32.5962 20.3807 33.4098 19.9446C34.2234 19.5086 34.8701 18.816 35.2494 17.9744C35.6287 17.1329 35.7193 16.1896 35.5071 15.2912C35.2949 14.3929 34.7918 13.5898 34.0761 13.0069C33.7958 12.9391 33.508 12.9076 33.2197 12.9132C33.656 14.239 33.5799 15.6802 33.0064 16.9527C32.4329 18.2252 31.4036 19.2367 30.1213 19.788Z" fill="#FFDE76"/>
<path d="M45.9382 66.212L49.3388 75.1931L59.7819 71.2389L56.3813 62.2578C55.7987 60.7214 54.7194 59.4237 53.3148 58.571C51.9102 57.7182 50.2609 57.3594 48.629 57.5513C47.2773 58.4867 46.2779 59.8479 45.7902 61.4177C45.3024 62.9874 45.3545 64.6753 45.9382 66.212Z" fill="#7C7D7D"/>
<path d="M45.9379 66.2126L48.35 72.5829L50.9607 71.5944C52.3456 71.07 53.4654 70.017 54.0738 68.667C54.6823 67.317 54.7295 65.7806 54.2052 64.3957C52.7866 60.6493 52.45 59.0901 50.6008 57.5963C49.9488 57.4882 49.2849 57.4733 48.6287 57.5519C47.277 58.4873 46.2776 59.8485 45.7899 61.4183C45.3021 62.9881 45.3542 64.676 45.9379 66.2126Z" fill="#919191"/>
<path d="M62.5318 62.7359L67.7533 60.7588C66.4237 57.2473 65.9475 54.4127 62.1769 53.915C59.6452 56.6497 61.2912 59.4593 62.5318 62.7359Z" fill="#9FDBF3"/>
<path d="M62.0377 61.4291C65.7189 60.0352 65.5637 55.9596 62.7818 54.013L61.9996 54.1151C59.8253 56.7294 61.2468 59.3405 62.0377 61.4291Z" fill="#B2E5FB"/>
<path d="M41.6459 70.6435L36.4244 72.6206C35.164 69.2919 33.5378 66.5345 36.0695 63.7997C39.7955 64.1799 40.4003 67.3539 41.6459 70.6435Z" fill="#9FDBF3"/>
<path d="M35.9297 71.3158C39.6109 69.9219 39.4558 65.8463 36.6739 63.8997L35.8917 64.0018C33.7174 66.6162 35.1389 69.2272 35.9297 71.3158Z" fill="#B2E5FB"/>
<path d="M11.0133 44.9283C25.4116 82.9543 24.9836 81.4297 24.8531 81.4792C26.2379 80.9548 27.3578 79.9018 27.9662 78.5518C28.5747 77.2018 28.6219 75.6653 28.0975 74.2805L16.2349 42.9512L11.0133 44.9283Z" fill="#EDEBF2"/>
<path d="M7.73066 40.202L8.71921 42.8128L13.9408 40.8357C14.6332 40.5735 15.1931 40.047 15.4973 39.372C15.8016 38.697 15.8252 37.9287 15.563 37.2363L7.73066 40.202Z" fill="#B5E08C"/>
<path d="M9.06451 38.2047C12.3933 36.9443 12.9397 33.6179 11.0382 31.5917C10.5262 31.6266 10.046 31.8522 9.69216 32.2238C9.33831 32.5953 9.13653 33.086 9.1266 33.599L9.06451 38.2047Z" fill="#FFDE76"/>
<path d="M7.23742 38.8984C7.82485 38.6759 7.64615 39.5048 7.75627 33.5675C7.77322 32.6624 8.14266 31.7996 8.78599 31.1627L7.69364 28.2778C7.56255 27.9316 7.57436 27.5475 7.72647 27.21C7.87858 26.8725 8.15854 26.6092 8.50475 26.4781C8.85096 26.347 9.23507 26.3589 9.57257 26.511C9.91008 26.6631 10.1733 26.943 10.3044 27.2892L11.3968 30.1742C12.3006 30.2252 13.1489 30.627 13.7611 31.2939C17.776 35.6692 17.0931 35.1666 17.6805 34.9441C18.0267 34.813 18.4109 34.8248 18.7484 34.977C19.0859 35.1291 19.3491 35.409 19.4802 35.7552L21.4573 40.9768C21.5884 41.323 21.5766 41.7071 21.4245 42.0446C21.2724 42.3821 20.9924 42.6454 20.6462 42.7765L24.6004 53.2196L27.2112 52.231L25.7284 48.3148C25.5973 47.9686 25.6091 47.5845 25.7612 47.247C25.9133 46.9095 26.1933 46.6463 26.5395 46.5152C28.0668 45.9369 26.6581 46.8285 25.3878 43.4736C22.3628 35.4846 31.7047 26.8877 34.6115 24.4736L33.9097 22.6199C30.1665 23.0223 27.1672 19.5162 29.5688 18.4874C30.5257 18.0744 31.2942 17.3195 31.7241 16.37C32.154 15.4206 32.2144 14.345 31.8935 13.3534C30.9748 10.6117 36.8976 10.802 38.5287 15.1097C38.9622 16.2658 39.0002 17.533 38.6368 18.7131C38.2734 19.8931 37.5292 20.9194 36.5204 21.6314L37.2223 23.485C40.9991 23.3684 53.6922 23.622 56.7171 31.6109C57.9973 34.9919 56.3284 35.2358 57.8688 34.6525C58.215 34.5214 58.5991 34.5332 58.9366 34.6853C59.2741 34.8374 59.5374 35.1174 59.6685 35.4636L61.1513 39.3798L63.7621 38.3912L59.8079 27.9481C59.4617 28.0792 59.0775 28.0674 58.74 27.9153C58.4025 27.7632 58.1393 27.4832 58.0082 27.137L56.0311 21.9154C55.9 21.5692 55.9118 21.1851 56.0639 20.8476C56.216 20.5101 56.496 20.2469 56.8422 20.1158C57.4296 19.8934 57.2509 20.7222 57.361 14.785C57.378 13.8798 57.7474 13.0171 58.3908 12.3801L57.2984 9.49523C57.1673 9.14902 57.1791 8.76491 57.3312 8.42741C57.4834 8.08991 57.7633 7.82665 58.1095 7.69556C58.4557 7.56447 58.8398 7.57628 59.1773 7.72839C59.5148 7.88051 59.7781 8.16046 59.9092 8.50667L61.0015 11.3916C61.9054 11.4427 62.7536 11.8444 63.3658 12.5113C67.3807 16.8866 66.6979 16.384 67.2853 16.1616C67.6315 16.0305 68.0156 16.0423 68.3531 16.1944C68.6906 16.3465 68.9539 16.6265 69.085 16.9727L71.0621 22.1942C71.1932 22.5404 71.1814 22.9245 71.0293 23.262C70.8771 23.5995 70.5972 23.8628 70.251 23.9939L84.585 61.8502C84.7161 62.1964 84.7043 62.5805 84.5522 62.918C84.4001 63.2555 84.1201 63.5187 83.7739 63.6498L26.3368 85.3981C25.9906 85.5292 25.6065 85.5173 25.269 85.3652C24.9315 85.2131 24.6682 84.9332 24.5372 84.587L10.2031 46.7307C9.85688 46.8618 9.47277 46.85 9.13527 46.6979C8.79776 46.5457 8.53451 46.2658 8.40342 45.9196L6.42631 40.698C6.29522 40.3518 6.30703 39.9677 6.45914 39.6302C6.61125 39.2927 6.89121 39.0294 7.23742 38.8984ZM17.3637 38.0492L9.53136 41.0149L10.5199 43.6256L18.3523 40.66L17.3637 38.0492ZM11.6988 33.1792C11.6055 33.0917 11.4894 33.0321 11.3639 33.0073C11.2384 32.9824 11.1085 32.9932 10.9888 33.0385C10.8692 33.0839 10.7646 33.1618 10.687 33.2636C10.6095 33.3653 10.562 33.4868 10.5501 33.6142L10.4748 37.6725L14.391 36.1897L11.6988 33.1792ZM34.8845 14.7881C34.8711 15.732 34.6641 16.663 34.2762 17.5236C33.8883 18.3842 33.3279 19.156 32.6296 19.7912C33.2624 19.9448 33.929 19.8723 34.514 19.5864C35.099 19.3004 35.5657 18.819 35.8332 18.2254C36.1008 17.6317 36.1524 16.9632 35.9791 16.3355C35.8059 15.7078 35.4187 15.1604 34.8845 14.7881ZM36.7918 26.2898C34.8967 27.8283 25.5025 35.8929 27.9986 42.4851C28.1973 43.0633 28.5203 43.591 28.9448 44.031C29.3693 44.4711 29.885 44.8129 30.4556 45.0323L53.9526 36.1353C56.3928 31.3457 49.894 25.7318 36.7918 26.2898ZM57.552 37.7576L28.8334 48.6317L29.822 51.2425L58.5405 40.3683L57.552 37.7576ZM25.589 55.8303L26.5775 58.4411L65.7392 43.6128L64.7506 41.002L25.589 55.8303ZM66.9685 19.2666L59.1361 22.2323L60.1247 24.8431L67.957 21.8774L66.9685 19.2666ZM61.3036 14.3966C61.2102 14.3091 61.0942 14.2496 60.9687 14.2247C60.8432 14.1998 60.7132 14.2107 60.5936 14.256C60.4739 14.3013 60.3694 14.3792 60.2918 14.481C60.2143 14.5828 60.1668 14.7042 60.1548 14.8316L60.0796 18.89L63.9957 17.4071L61.3036 14.3966ZM67.6402 24.9824L62.4186 26.9596L76.2584 63.5104L81.48 61.5333L67.6402 24.9824ZM66.7278 46.2236L27.5661 61.0519L34.486 79.3273L47.5399 74.3846L44.6335 66.7089C42.5773 61.2785 46.6917 56.3773 48.4636 56.169C50.405 55.9399 52.3673 56.3663 54.0386 57.3804C55.7099 58.3945 56.9942 59.9382 57.6874 61.7661L60.5938 69.4418L73.6476 64.499L66.7278 46.2236ZM57.983 70.4303L55.0766 62.7546C54.6369 61.5504 53.8198 60.5206 52.7471 59.8186C51.6744 59.1166 50.4036 58.7801 49.124 58.8593C48.1206 59.6416 47.3946 60.7252 47.0527 61.9508C46.7108 63.1764 46.771 64.4793 47.2245 65.6681L50.1507 73.396L57.983 70.4303ZM26.6537 82.293L31.8752 80.3159L18.0354 43.765L12.8139 45.7421L26.6537 82.293Z" fill="black"/>
<path d="M61.1507 52.9777C62.2188 51.8568 66.3117 53.0086 67.6957 56.6637L69.0599 60.2666C69.191 60.6128 69.1791 60.9969 69.027 61.3344C68.8749 61.6719 68.595 61.9351 68.2487 62.0662L63.0272 64.0433C62.681 64.1744 62.2969 64.1626 61.9594 64.0105C61.6219 63.8584 61.3586 63.5784 61.2275 63.2322C59.9029 59.7338 58.0264 56.3547 61.1507 52.9777ZM63.344 60.9383L65.9548 59.9497C65.1738 57.8872 64.8365 56.0896 62.7613 55.4574C61.6383 57.3006 62.5334 58.7974 63.344 60.9383Z" fill="black"/>
<path d="M42.1408 71.951L36.9193 73.9281C36.5731 74.0592 36.189 74.0474 35.8515 73.8953C35.514 73.7432 35.2507 73.4632 35.1196 73.117C33.795 69.6185 31.9185 66.2395 35.0428 62.8624C36.1109 61.7416 40.2038 62.8934 41.5877 66.5484L42.9519 70.1513C43.083 70.4975 43.0712 70.8816 42.9191 71.2191C42.767 71.5566 42.487 71.8199 42.1408 71.951ZM36.6534 65.3422C35.5551 67.2506 36.4255 68.6822 37.2361 70.823L39.8469 69.8345C39.0659 67.772 38.7286 65.9743 36.6534 65.3422Z" fill="black"/>
</g>
<defs>
<clipPath id="clip0_1432_9684">
<rect width="67" height="67" fill="white" transform="matrix(-0.935204 0.35411 0.35411 0.935204 62.6587 0)"/>
</clipPath>
</defs>
</svg>
