<svg width="74" height="74" viewBox="0 0 74 74" fill="none" xmlns="http://www.w3.org/2000/svg">
<path d="M23.5409 37.911L22.9553 38.4149L18.161 57.587L18.3788 58.5541C19.8531 59.8881 21.4667 61.0855 23.2043 62.1216L23.7858 61.4445L29.1286 40.079L28.9221 39.2565L23.541 37.9109L23.5409 37.911Z" fill="#B5DCFF"/>
<path d="M28.9224 39.2565L26.3892 38.623L20.8948 60.5946C21.6382 61.1354 22.4076 61.646 23.2046 62.1213L23.7862 61.4442L29.129 40.0789L28.9224 39.2565Z" fill="#8BCAFF"/>
<path d="M49.3542 44.3657L43.973 43.02L43.4415 43.5775L37.9519 65.5299L38.1177 66.435C40.0875 66.4863 42.0351 66.3457 43.9376 66.026L44.4045 65.5955L49.5014 45.2133L49.3542 44.3657Z" fill="#B5DCFF"/>
<path d="M46.6482 43.689L43.973 43.02L43.4415 43.5775L37.9519 65.5299L38.1177 66.435C39.0765 66.46 40.0298 66.4386 40.9753 66.3742L46.6482 43.689Z" fill="#8BCAFF"/>
<path d="M32.4418 5.94311C31.9474 6.05006 31.4566 6.1696 30.9695 6.30057C25.2517 9.57656 6.61563 22.3579 16.0316 45.4207L16.1531 45.4511L19.6093 31.6303L19.2364 30.8289C19.261 28.708 19.5299 26.5552 20.0678 24.4047C21.9466 16.8915 26.7427 10.8775 32.9457 7.26655C33.6513 6.85572 33.2398 5.77056 32.4418 5.94311Z" fill="#FFC365"/>
<path d="M9.21225 28.4309C6.97758 37.3667 8.9219 46.3649 13.8078 53.3667L14.331 52.738L16.2344 45.1265C5.4023 18.5956 32.4416 5.9444 32.4416 5.9444C21.4151 8.32908 12.1343 16.7465 9.21225 28.4309Z" fill="#FFA90F"/>
<path d="M62.2023 54.6542C60.7866 56.0657 56.4453 59.9468 50.8143 60.7697L50.0436 63.8518L50.2492 64.2516C54.8653 62.4001 58.9976 59.441 62.2401 55.6153C62.5164 55.2893 62.4386 54.8948 62.2023 54.6542Z" fill="#FFC365"/>
<path d="M61.3102 54.5478C58.4022 56.3448 55.1631 57.6023 51.7567 58.225L51.2971 58.8412L50.7942 60.8521C56.5592 60.0966 60.9829 56.0259 62.2653 54.7261C62.0597 54.457 61.6756 54.322 61.3102 54.5478Z" fill="#FFA90F"/>
<path d="M23.0389 39.9168L22.7 39.4339L20.5352 38.8926L16.268 55.9565L16.3583 56.5421C16.9993 57.241 17.6722 57.913 18.3787 58.5523L23.0389 39.9168Z" fill="#DBEDFF"/>
<path d="M20.7579 38.9493L18.011 38.2624L17.5162 38.5367L13.8079 53.3658C14.5845 54.4789 15.4378 55.5395 16.3583 56.5431L20.7579 38.9493Z" fill="#B5DCFF"/>
<path d="M42.8751 44.878L32.0693 42.1758L26.6412 63.8824C26.712 63.9133 26.7823 63.9447 26.8534 63.9752L27.4253 63.7605L33.5092 65.4607L34.0981 66.0616C35.4434 66.2761 36.7857 66.3997 38.1178 66.4344L43.3365 45.5652L42.8751 44.878Z" fill="#DBEDFF"/>
<path d="M32.2961 42.233L28.9402 41.3938L28.2853 41.8019L23.2042 62.121C24.3665 62.8141 25.5849 63.4343 26.8533 63.9756L26.8595 63.9733L32.2961 42.233Z" fill="#B5DCFF"/>
<path d="M54.0107 47.2646L49.2839 46.0826L48.8521 46.3728L43.9376 66.0255C46.1117 65.6602 48.2271 65.0622 50.2494 64.2509L54.3748 47.7538L54.0107 47.2646Z" fill="#DBEDFF"/>
<path d="M22.0238 34.444L21.5706 34.7525L20.4415 39.2679L23.0389 39.9175L24.2673 35.005L22.0238 34.444Z" fill="#B5DCFF"/>
<path d="M17.5162 38.5375L20.6643 39.3247L21.8675 34.5131L21.7693 34.3814L18.7446 33.625L17.5162 38.5375Z" fill="#8BCAFF"/>
<path d="M50.0806 41.4609L55.6033 42.842L54.3748 47.7545L48.8521 46.3734L50.0806 41.4609Z" fill="#B5DCFF"/>
<path d="M33.8105 34.3184L33.9678 34.5852L31.9349 42.7146L43.3365 45.5657L45.4229 37.2222L33.8105 34.3184Z" fill="#B5DCFF"/>
<path d="M28.2856 41.8025L32.1618 42.7718L34.1947 34.6425L34.0375 34.3756L30.3721 33.459L28.2856 41.8025Z" fill="#8BCAFF"/>
<path d="M35.9838 50.7577L35.3946 50.6104L32.4853 53.101L29.7264 64.1335L29.9469 65.1013C30.4472 65.254 30.9533 65.3961 31.4667 65.5245C32.3439 65.7439 33.2217 65.9212 34.0982 66.0608L36.7669 55.389C37.1796 53.7385 36.8472 52.0773 35.9838 50.7577Z" fill="#938493"/>
<path d="M32.5348 54.7526C33.0034 52.8784 34.3262 51.444 35.9838 50.7577C35.6714 50.2803 35.2901 49.8472 34.8486 49.4759C34.5949 49.2627 34.2575 49.1783 33.9332 49.247C31.8097 49.6974 30.0196 51.3134 29.4575 53.5612L26.8535 63.9743C27.8536 64.4011 28.8857 64.7773 29.9468 65.1013L32.5346 54.7525L32.5348 54.7526Z" fill="#7B6C79"/>
<path d="M47.5004 32.1714C47.0516 30.7961 46.1117 29.247 44.2474 27.826C43.3636 27.1524 42.7199 26.5096 42.2518 25.9215L41.7223 25.7891L35.8609 27.2963L33.2893 30.1087L32.6085 32.8314L34.0814 34.6126L37.8441 35.5536L45.3695 37.4354C47.2513 36.4196 48.1638 34.2044 47.5004 32.1714Z" fill="#938493"/>
<path d="M34.6787 28.9662C35.722 27.9641 37.2805 27.0397 39.5941 26.6635C40.691 26.4852 41.5614 26.2211 42.2513 25.9225C41.89 25.4686 41.6332 25.0471 41.4517 24.669C41.3667 24.4919 41.2106 24.3593 41.02 24.3117L40.3333 24.1399C40.1427 24.0923 39.9425 24.1359 39.7842 24.252C39.008 24.8215 37.775 25.4065 35.8316 25.7225C33.5179 26.0987 31.9594 27.023 30.9161 28.0252C29.3738 29.5066 29.1361 31.8906 30.3184 33.6725L34.0811 34.6134C32.8987 32.8316 33.1364 30.4476 34.6787 28.9662Z" fill="#7B6C79"/>
<path d="M56.6506 40.6504C56.4974 40.028 56.1537 39.3343 55.4436 38.715C54.8471 38.195 54.5458 37.7065 54.3965 37.3159C54.3661 37.2362 54.3068 37.1781 54.2325 37.1596L53.9649 37.0926C53.8906 37.0741 53.811 37.0974 53.7466 37.1534C53.431 37.4277 52.9352 37.7169 52.1642 37.895C51.2463 38.107 50.6165 38.5574 50.1883 39.0344C49.5553 39.7397 49.5918 40.8788 50.0271 41.6751L52.7884 42.3656L55.5498 43.0561C56.3087 42.5586 56.8771 41.5706 56.6506 40.6504Z" fill="#938493"/>
<path d="M18.8523 31.1985C19.2806 30.7214 19.9104 30.2712 20.8283 30.0591C21.5993 29.881 22.0951 29.5917 22.4107 29.3175C22.475 29.2615 22.5547 29.2381 22.629 29.2567L22.8966 29.3236C22.9709 29.3422 23.0301 29.4003 23.0606 29.48C23.2099 29.8705 23.5112 30.3591 24.1076 30.8791C24.8177 31.4982 25.1614 32.192 25.3147 32.8145C25.5412 33.7347 24.9728 34.7226 24.2139 35.2202L21.4526 34.5297L18.6911 33.8392C18.2558 33.043 18.2194 31.9037 18.8523 31.1985Z" fill="#938493"/>
<path d="M53.336 39.8217C53.7641 39.3446 54.394 38.8944 55.3119 38.6822C55.3373 38.6764 55.3614 38.6701 55.3862 38.664C54.8278 38.1632 54.5404 37.6936 54.396 37.3159C54.3656 37.2362 54.3063 37.1781 54.232 37.1596L53.9644 37.0926C53.8901 37.0741 53.8105 37.0974 53.7461 37.1534C53.4305 37.4277 52.9348 37.7169 52.1637 37.895C51.2459 38.107 50.616 38.5572 50.1878 39.0344C49.5548 39.7397 49.5913 40.8788 50.0266 41.6751L52.7879 42.3656L53.1747 42.4623C52.7395 41.6662 52.7029 40.5269 53.336 39.8217Z" fill="#7B6C79"/>
<path d="M22 31.9857C22.4283 31.5087 23.0581 31.0584 23.976 30.8463C24.0013 30.8405 24.0254 30.8342 24.0502 30.8281C23.492 30.3273 23.2045 29.8577 23.0601 29.48C23.0296 29.4003 22.9704 29.3422 22.8961 29.3236L22.6285 29.2567C22.5542 29.2381 22.4746 29.2615 22.4102 29.3175C22.0946 29.5917 21.5988 29.881 20.8278 30.0591C19.9099 30.2711 19.2801 30.7213 18.8518 31.1985C18.2189 31.9037 18.2554 33.0429 18.6906 33.8392L21.452 34.5297L21.8387 34.6264C21.4036 33.8303 21.3671 32.691 22 31.9857Z" fill="#7B6C79"/>
<path d="M62.8387 54.1011C62.3139 53.4917 61.47 53.3613 60.7859 53.784C58.328 55.3029 55.6754 56.4016 52.8842 57.0611L53.53 54.4786C53.6475 54.0087 53.3619 53.5326 52.8919 53.415C52.4219 53.2975 51.9458 53.5832 51.8283 54.0531L49.4454 63.5824C48.0197 64.1296 46.5502 64.5669 45.0587 64.8885L49.4272 47.4191L53.2483 48.3746L52.8212 50.0825C52.7037 50.5524 52.9893 51.0286 53.4593 51.1461C53.9293 51.2637 54.4054 50.978 54.5229 50.5081C54.7043 49.7828 56.0847 44.2627 56.262 43.5537C58.1969 41.9541 57.6894 39.5469 55.9568 38.0362C55.2175 37.3916 55.2044 37.0078 55.0296 36.7491L55.4481 35.0756C55.5656 34.6057 55.28 34.1295 54.81 34.012C54.34 33.8945 53.8639 34.1802 53.7464 34.6501L53.3279 36.3235C53.0521 36.4692 52.8595 36.8017 51.904 37.0226C49.651 37.5429 48.0865 39.4319 49.0375 41.747L48.6532 43.284L44.9737 42.3639L46.0685 37.9858C48.0987 36.6876 49.0225 34.1855 48.271 31.8826C47.6769 30.0622 46.4808 28.457 44.7158 27.1117C43.4885 26.1763 42.6351 25.2208 42.1795 24.272C42.0591 24.0209 41.8767 23.8125 41.6544 23.6614L42.0584 22.0461C42.9738 22.1255 43.8702 21.805 44.5282 21.1584C44.8737 20.819 44.8785 20.2636 44.539 19.9182C44.1998 19.5728 43.6443 19.5679 43.2987 19.9073C43.0005 20.2004 42.5914 20.3421 42.1765 20.2964C41.8104 20.2559 41.48 20.0747 41.2488 19.7863C41.0177 19.4979 40.913 19.1369 40.9535 18.7696C40.994 18.4026 41.1751 18.0732 41.4631 17.8423C41.841 17.5393 41.9017 16.9873 41.5988 16.6094C41.2958 16.2316 40.7438 16.1708 40.3658 16.4737C39.7124 16.9975 39.3021 17.7444 39.21 18.5769C39.1179 19.4098 39.3558 20.2288 39.8797 20.8828C40.0375 21.0798 40.216 21.254 40.4104 21.4047L39.9526 23.2356C39.6856 23.2643 39.4265 23.3622 39.2022 23.527C38.3534 24.1498 37.1507 24.5912 35.6276 24.8388C33.437 25.195 31.6262 26.0482 30.2452 27.3747C28.4982 29.0527 28.1355 31.695 29.3156 33.7962L28.2208 38.1743L24.5412 37.2542L24.9256 35.717C25.7513 35.0345 26.4137 33.8489 26.1028 32.5863C25.5893 30.5 24.2407 30.258 23.8164 29.1486C23.7842 29.0643 23.7424 28.9854 23.6932 28.9125L24.1116 27.239C24.2292 26.7691 23.9436 26.2929 23.4736 26.1754C23.0036 26.0579 22.5275 26.3436 22.41 26.8135L21.9915 28.4869C21.7151 28.6329 21.5232 28.9652 20.5674 29.186C20.4106 29.2222 20.2594 29.2672 20.1108 29.3161C20.219 27.7301 20.4677 26.1495 20.8552 24.5997C21.0024 24.0111 21.1775 23.4036 21.3757 22.7942C21.5256 22.3336 21.2736 21.8387 20.813 21.6889C20.3506 21.5389 19.8574 21.7911 19.7076 22.2517C19.497 22.8996 19.3106 23.5463 19.1536 24.1742C18.6415 26.2219 18.3557 28.3205 18.3029 30.4182C17.3516 31.369 17.1968 32.6817 17.7011 33.911L13.3825 51.1807C3.19302 34.2844 11.9848 11.9325 31.58 7.01323C27.1848 9.7816 23.6528 13.6675 21.3284 18.3044C21.1113 18.7374 21.2864 19.2644 21.7194 19.4815C22.1523 19.6987 22.6794 19.5234 22.8965 19.0905C25.2177 14.4598 28.8234 10.6274 33.3239 8.00741C34.8913 7.09504 33.9646 4.68612 32.1935 5.06892C26.5358 6.29247 21.3236 9.05109 17.1208 13.0464C-0.74366 30.0277 7.08216 60.3311 31.1909 66.359C42.8317 69.27 55.0959 65.3088 62.8465 56.1645C63.3629 55.5549 63.3597 54.7064 62.8387 54.1011ZM17.83 56.8636C16.687 55.7205 15.6364 54.4837 14.6936 53.1706L18.0914 39.583L21.9124 40.5385L17.83 56.8636ZM22.3379 38.8369L18.5169 37.8814L19.2662 34.8848L23.0873 35.8404L22.3379 38.8369ZM23.9412 34.2458L19.2641 33.0762C19.1344 32.6459 19.1429 32.0997 19.442 31.7665C20.3644 30.7374 21.1976 31.075 22.4391 30.3148C23.1753 31.5677 24.0692 31.6625 24.4 33.0063C24.5038 33.4279 24.2725 33.9127 23.9412 34.2458ZM22.5831 60.7213C21.432 59.9701 20.331 59.137 19.2956 58.2334C19.5384 57.2625 23.9829 39.4892 24.1161 38.9564L27.7957 39.8766L22.5831 60.7213ZM33.3821 65.0404C32.833 64.9378 32.2545 64.8169 31.6164 64.6573C30.3308 64.3358 29.0588 63.9258 27.8253 63.4357L30.2455 53.7576C30.7116 51.8936 32.1703 50.4878 34.0524 50.0887C34.1125 50.076 34.1741 50.0915 34.2212 50.1309L34.2213 50.131C35.6939 51.3689 36.3191 53.2958 35.853 55.1598L33.3822 65.0404L33.3821 65.0404ZM37.3766 65.5138C36.6238 65.4763 35.8714 65.409 35.1217 65.3141L37.5546 55.5854C38.1847 53.0656 37.3398 50.4612 35.3499 48.7883C34.8862 48.3985 34.2805 48.2471 33.6883 48.3728C31.1452 48.9121 29.1738 50.8123 28.5437 53.332L26.1935 62.7302C25.4999 62.4054 24.8187 62.0546 24.1521 61.6767L28.8606 42.8479L42.2098 46.1861L37.3766 65.5138ZM42.6354 44.4844L29.2863 41.1463C29.4515 40.4853 30.6909 35.5294 30.8936 34.7187L44.2427 38.0569L42.6354 44.4844ZM45.1684 36.4803L30.8189 32.892C30.0588 31.4906 30.3067 29.7484 31.4606 28.6403C32.5802 27.565 34.0768 26.8687 35.9094 26.5708C37.6645 26.2855 39.0939 25.7569 40.1607 24.9992L40.6412 25.1193C41.2255 26.2898 42.2381 27.4291 43.6524 28.5071C45.129 29.6325 46.1219 30.9514 46.6034 32.427C47.0999 33.9478 46.4986 35.6017 45.1684 36.4803ZM43.1645 65.2326C41.8464 65.4276 40.5108 65.5334 39.176 65.5485C39.4907 64.2899 44.2473 45.2689 44.5481 44.0658L48.2276 44.9859L43.1645 65.2326ZM53.6739 46.673L49.8527 45.7174C50.463 43.2769 49.6337 46.5933 50.6021 42.7209L54.4232 43.6765L53.6739 46.673ZM50.7779 39.6023C51.1682 39.1675 51.6798 38.8747 52.2988 38.7317C52.8629 38.6013 53.357 38.4067 53.775 38.1508C54.0231 38.5732 54.3676 38.9775 54.8041 39.3582C55.2827 39.7756 55.5963 40.2748 55.736 40.8422C55.8398 41.264 55.6083 41.7489 55.2772 42.0818L50.5995 40.9121C50.4638 40.4623 50.4878 39.9256 50.7779 39.6023ZM51.4696 62.7181L52.4088 58.9624C55.3773 58.3589 58.2069 57.2947 60.8398 55.792C58.2122 58.6833 55.012 61.0474 51.4696 62.7181Z" fill="black"/>
<path d="M32.5918 40.3009C33.0618 40.4185 33.5378 40.1327 33.6554 39.6629L34.0499 38.085C34.1674 37.6151 33.8819 37.1389 33.4119 37.0214C32.9419 36.9038 32.4658 37.1895 32.3483 37.6594L31.9537 39.2373C31.8362 39.7072 32.1218 40.1834 32.5918 40.3009Z" fill="black"/>
<path d="M36.3545 41.2423C36.8245 41.3599 37.3005 41.0741 37.418 40.6043L37.8126 39.0264C37.9301 38.5565 37.6446 38.0803 37.1746 37.9628C36.7046 37.8452 36.2285 38.1309 36.111 38.6008L35.7164 40.1787C35.599 40.6486 35.8846 41.1248 36.3545 41.2423Z" fill="black"/>
<path d="M40.1171 42.1818C40.5871 42.2993 41.0632 42.0136 41.1807 41.5437L41.5753 39.9658C41.6928 39.4959 41.4073 39.0198 40.9373 38.9022C40.4673 38.7847 39.9912 39.0704 39.8737 39.5403L39.4791 41.1182C39.3616 41.5881 39.6473 42.0643 40.1171 42.1818Z" fill="black"/>
</svg>
