<svg width="158" height="165" viewBox="0 0 158 165" fill="none" xmlns="http://www.w3.org/2000/svg">
<g opacity="0.5">
<path fill-rule="evenodd" clip-rule="evenodd" d="M78.6567 63.6614C78.6567 63.0516 78.8082 62.5433 79.0011 62.5433C79.194 62.5433 79.3457 63.0514 79.3457 63.6614C79.3457 64.0298 79.2905 64.3729 79.1941 64.5634L79.015 67.7905C79.9935 66.3294 83.3698 61.6285 80.5585 60.4977C80.5585 60.3834 80.5722 60.2563 80.5722 60.1293C80.5722 59.9641 80.5584 59.5831 80.5447 59.0367H77.4439C77.4301 59.5829 77.4301 59.9641 77.4301 60.1293C77.4301 60.2564 77.4301 60.3834 77.4439 60.4977C74.6325 61.6285 78.0088 66.3294 78.9873 67.7905L78.7943 64.5634C78.7118 64.3729 78.6567 64.0298 78.6567 63.6614ZM77.4853 57.7026C77.6783 51.8455 78.2845 32.0762 79.0012 32.0762C79.7178 32.0762 80.3104 51.8454 80.5034 57.7026H77.4853Z" fill="black"/>
<path d="M106.894 67.2441C106.894 67.2441 119.407 45.6326 100.417 38.4541C81.4402 31.263 79.001 19.625 79.001 19.625C79.5522 24.1226 78.1191 41.9734 96.8337 46.4965C115.534 51.0068 106.894 67.2441 106.894 67.2441Z" fill="#0C4A7C"/>
<path d="M51.1082 67.2441C51.1082 67.2441 38.595 45.6326 57.5715 38.4541C76.548 31.263 79.0011 19.625 79.0011 19.625C78.4498 24.1226 79.8831 41.9734 61.1683 46.4965C42.4537 51.0068 51.1082 67.2441 51.1082 67.2441Z" fill="#0C4A7C"/>
<path d="M67.6317 70.7501C63.5388 66.8751 57.916 64.4351 51.687 64.3047C52.0591 65.5441 52.4175 66.4053 52.5414 66.6793C57.7369 67.0055 62.4224 69.1322 65.8952 72.4072C68.1277 74.5208 69.8504 77.1173 70.8839 80.0008H73.4748C72.3586 76.4649 70.3327 73.2943 67.6317 70.7501Z" fill="black"/>
<path d="M106.301 64.7148C100.086 64.842 94.4635 67.2178 90.3568 70.9912C87.6695 73.4687 85.6436 76.556 84.5137 79.9991H87.1183C88.1518 77.1913 89.8745 74.6629 92.107 72.6046C95.5661 69.4157 100.252 67.3446 105.461 67.0271C105.571 66.7604 105.929 65.922 106.301 64.7148Z" fill="black"/>
<path d="M106.591 57.8809C98.1154 57.8809 90.4531 61.0444 84.8994 66.1647C80.8478 69.9 77.9262 74.6644 76.6445 80.0006H83.0114C84.169 76.2399 86.3465 72.8857 89.268 70.1922C93.7056 66.1139 99.8244 63.5855 106.591 63.5855C106.605 63.5855 106.618 63.5855 106.618 63.5855C107.032 61.9846 107.363 60.0026 107.294 57.9063C107.266 57.9063 107.238 57.8937 107.211 57.8937C106.632 57.8937 106.756 57.8809 106.591 57.8809Z" fill="black"/>
<path d="M50.695 57.9063C50.6398 60.0026 50.9705 61.9846 51.3703 63.5855C51.384 63.5855 51.3978 63.5855 51.4117 63.5855C58.1782 63.5855 64.297 66.1137 68.7345 70.1922C71.5871 72.835 73.7509 76.1256 74.9222 79.7973C75.5975 77.0912 76.6587 74.5373 78.0643 72.1614C76.7137 69.9635 75.0324 67.9433 73.1031 66.1647C67.5493 61.0444 59.8732 57.8809 51.4117 57.8809C51.2463 57.8809 51.3703 57.8935 50.7916 57.8935C50.7639 57.8937 50.7364 57.9063 50.695 57.9063Z" fill="black"/>
</g>
<path fill-rule="evenodd" clip-rule="evenodd" d="M78.6567 62.2775C78.6567 61.6159 78.8082 61.0647 79.0011 61.0647C79.194 61.0647 79.3457 61.6159 79.3457 62.2775C79.3457 62.6771 79.2905 63.0492 79.1941 63.2559L79.015 66.7564C79.9935 65.1715 83.3698 60.0726 80.5585 58.8461C80.5585 58.722 80.5722 58.5843 80.5722 58.4465C80.5722 58.2673 80.5584 57.8538 80.5447 57.2614H77.4439C77.4301 57.854 77.4301 58.2673 77.4301 58.4465C77.4301 58.5843 77.4301 58.7221 77.4439 58.8461C74.6325 60.0726 78.0088 65.1717 78.9873 66.7564L78.7943 63.2559C78.7118 63.0492 78.6567 62.6771 78.6567 62.2775ZM77.4853 55.814C77.6783 49.461 78.2845 28.0176 79.0012 28.0176C79.7178 28.0176 80.3104 49.461 80.5034 55.814H77.4853Z" fill="#374868"/>
<path fill-rule="evenodd" clip-rule="evenodd" d="M79.0899 0C79.5945 0 80.099 0.0617653 80.574 0.173054C77.8138 0.284343 75.6027 2.49718 75.6027 5.21695C75.6027 7.99848 77.9325 10.2608 80.7965 10.2608C82.7257 10.2608 84.3878 9.25952 85.2929 7.75128C84.5955 10.4463 82.0727 12.4489 79.0899 12.4489C75.5433 12.4489 72.6792 9.6674 72.6792 6.23066C72.6792 2.79391 75.5433 0 79.0899 0ZM81.3753 0.61807L82.3101 3.3996H85.3227L82.874 5.11804L83.8089 7.89957L81.3753 6.16889L78.9417 7.89957L79.8765 5.11804L77.4429 3.3996H80.4554L81.3753 0.61807Z" fill="#F9AB3E"/>
<path d="M106.894 66.1633C106.894 66.1633 119.407 42.7217 100.417 34.9353C81.4402 27.1352 79.001 14.5117 79.001 14.5117C79.5522 19.3903 78.1191 38.7526 96.8337 43.6588C115.534 48.5511 106.894 66.1633 106.894 66.1633Z" fill="#374868"/>
<path d="M51.1082 66.1633C51.1082 66.1633 38.595 42.7217 57.5715 34.9353C76.548 27.1352 79.0011 14.5117 79.0011 14.5117C78.4498 19.3903 79.8831 38.7526 61.1683 43.6588C42.4537 48.5511 51.1082 66.1633 51.1082 66.1633Z" fill="#374868"/>
<path d="M67.6317 70.2297C63.5388 66.1368 57.916 63.5597 51.687 63.4219C52.0591 64.7311 52.4175 65.6406 52.5414 65.9301C57.7369 66.2745 62.4224 68.5209 65.8952 71.98C68.1277 74.2125 69.8504 76.9549 70.8839 80.0006H73.4748C72.3586 76.2659 70.3327 72.9172 67.6317 70.2297Z" fill="#0C4A7C"/>
<path d="M106.301 63.4219C100.086 63.5597 94.4635 66.1367 90.3568 70.2297C87.6695 72.917 85.6436 76.2659 84.5137 80.0006H87.1183C88.1518 76.9549 89.8745 74.2125 92.107 71.98C95.5661 68.5209 100.252 66.2747 105.461 65.9301C105.571 65.6406 105.929 64.7311 106.301 63.4219Z" fill="#0C4A7C"/>
<path d="M106.591 56.0078C98.1154 56.0078 90.4531 59.4393 84.8994 64.993C80.8478 69.0447 77.9262 74.2125 76.6445 80.0007H83.0114C84.169 75.9215 86.3465 72.2832 89.268 69.3616C93.7056 64.9379 99.8244 62.1954 106.591 62.1954C106.605 62.1954 106.618 62.1954 106.618 62.1954C107.032 60.459 107.363 58.3091 107.294 56.0353C107.266 56.0353 107.238 56.0216 107.211 56.0216C106.632 56.0216 106.756 56.0078 106.591 56.0078Z" fill="#374868"/>
<path d="M50.695 56.0353C50.6398 58.3092 50.9705 60.4591 51.3703 62.1954C51.384 62.1954 51.3978 62.1954 51.4117 62.1954C58.1782 62.1954 64.297 64.9379 68.7345 69.3616C71.5871 72.2281 73.7509 75.7974 74.9222 79.7801C75.5975 76.8448 76.6587 74.0747 78.0643 71.4977C76.7137 69.1136 75.0324 66.9224 73.1031 64.993C67.5493 59.4393 59.8732 56.0078 51.4117 56.0078C51.2463 56.0078 51.3703 56.0216 50.7916 56.0216C50.7639 56.0216 50.7364 56.0353 50.695 56.0353Z" fill="#374868"/>
<path d="M11.2074 116.344C11.1278 115.599 10.7926 115.02 10.2017 114.605C9.61648 114.19 8.85511 113.983 7.91761 113.983C7.25852 113.983 6.69318 114.082 6.22159 114.281C5.75 114.48 5.3892 114.75 5.1392 115.091C4.8892 115.432 4.76136 115.821 4.75568 116.259C4.75568 116.622 4.83807 116.937 5.00284 117.205C5.1733 117.472 5.40341 117.699 5.69318 117.886C5.98295 118.068 6.30398 118.222 6.65625 118.347C7.00852 118.472 7.36364 118.577 7.72159 118.662L9.35795 119.071C10.017 119.224 10.6506 119.432 11.2585 119.693C11.8722 119.955 12.4205 120.284 12.9034 120.682C13.392 121.08 13.7784 121.56 14.0625 122.122C14.3466 122.685 14.4886 123.344 14.4886 124.099C14.4886 125.122 14.2273 126.023 13.7045 126.801C13.1818 127.574 12.4261 128.179 11.4375 128.616C10.4545 129.048 9.2642 129.264 7.86648 129.264C6.50852 129.264 5.32955 129.054 4.32955 128.634C3.33523 128.213 2.55682 127.599 1.99432 126.793C1.4375 125.986 1.13636 125.003 1.09091 123.844H4.2017C4.24716 124.452 4.43466 124.957 4.7642 125.361C5.09375 125.764 5.52273 126.065 6.05114 126.264C6.58523 126.463 7.18182 126.562 7.84091 126.562C8.52841 126.562 9.13068 126.46 9.64773 126.256C10.1705 126.045 10.5795 125.756 10.875 125.386C11.1705 125.011 11.321 124.574 11.3267 124.074C11.321 123.619 11.1875 123.244 10.9261 122.949C10.6648 122.648 10.2983 122.398 9.8267 122.199C9.3608 121.994 8.81534 121.812 8.19034 121.653L6.20455 121.142C4.76705 120.773 3.63068 120.213 2.79545 119.463C1.96591 118.707 1.55114 117.705 1.55114 116.455C1.55114 115.426 1.82955 114.526 2.38636 113.753C2.94886 112.98 3.71307 112.381 4.67898 111.955C5.64489 111.523 6.73864 111.307 7.96023 111.307C9.19886 111.307 10.2841 111.523 11.2159 111.955C12.1534 112.381 12.8892 112.974 13.4233 113.736C13.9574 114.491 14.233 115.361 14.25 116.344H11.2074ZM20.2564 121.33V129H17.1712V111.545H20.1882V118.134H20.3416C20.6484 117.395 21.1229 116.812 21.7649 116.386C22.4126 115.955 23.2365 115.739 24.2365 115.739C25.1456 115.739 25.9382 115.929 26.6143 116.31C27.2905 116.69 27.8132 117.247 28.1825 117.98C28.5575 118.713 28.745 119.608 28.745 120.665V129H25.6598V121.142C25.6598 120.261 25.4325 119.577 24.978 119.088C24.5291 118.594 23.8984 118.347 23.0859 118.347C22.5405 118.347 22.0518 118.466 21.62 118.705C21.1939 118.937 20.8587 119.276 20.6143 119.719C20.3757 120.162 20.2564 120.699 20.2564 121.33ZM35.657 129.264C34.8274 129.264 34.0803 129.116 33.4155 128.821C32.7564 128.52 32.2337 128.077 31.8473 127.491C31.4666 126.906 31.2763 126.185 31.2763 125.327C31.2763 124.588 31.4126 123.977 31.6854 123.494C31.9581 123.011 32.3303 122.625 32.8018 122.335C33.2734 122.045 33.8047 121.827 34.3956 121.679C34.9922 121.526 35.6087 121.415 36.245 121.347C37.0121 121.267 37.6342 121.196 38.1115 121.134C38.5888 121.065 38.9354 120.963 39.1513 120.827C39.3729 120.685 39.4837 120.466 39.4837 120.17V120.119C39.4837 119.477 39.2933 118.98 38.9126 118.628C38.532 118.276 37.9837 118.099 37.2678 118.099C36.5121 118.099 35.9126 118.264 35.4695 118.594C35.032 118.923 34.7365 119.312 34.5831 119.761L31.7024 119.352C31.9297 118.557 32.3047 117.892 32.8274 117.358C33.3501 116.818 33.9893 116.415 34.745 116.148C35.5007 115.875 36.3359 115.739 37.2507 115.739C37.8814 115.739 38.5092 115.812 39.1342 115.96C39.7592 116.108 40.3303 116.352 40.8473 116.693C41.3643 117.028 41.7791 117.486 42.0916 118.065C42.4098 118.645 42.5689 119.369 42.5689 120.239V129H39.603V127.202H39.5007C39.3132 127.565 39.049 127.906 38.7081 128.224C38.3729 128.537 37.9496 128.79 37.4382 128.983C36.9325 129.17 36.3388 129.264 35.657 129.264ZM36.4581 126.997C37.0774 126.997 37.6143 126.875 38.0689 126.631C38.5234 126.381 38.8729 126.051 39.1172 125.642C39.3672 125.233 39.4922 124.787 39.4922 124.304V122.761C39.3956 122.841 39.2308 122.915 38.9979 122.983C38.7706 123.051 38.5149 123.111 38.2308 123.162C37.9467 123.213 37.6655 123.259 37.3871 123.298C37.1087 123.338 36.8672 123.372 36.6626 123.401C36.2024 123.463 35.7905 123.565 35.4268 123.707C35.0632 123.849 34.7763 124.048 34.5661 124.304C34.3558 124.554 34.2507 124.878 34.2507 125.276C34.2507 125.844 34.4581 126.273 34.8729 126.562C35.2876 126.852 35.8161 126.997 36.4581 126.997ZM48.7564 121.33V129H45.6712V111.545H48.6882V118.134H48.8416C49.1484 117.395 49.6229 116.812 50.2649 116.386C50.9126 115.955 51.7365 115.739 52.7365 115.739C53.6456 115.739 54.4382 115.929 55.1143 116.31C55.7905 116.69 56.3132 117.247 56.6825 117.98C57.0575 118.713 57.245 119.608 57.245 120.665V129H54.1598V121.142C54.1598 120.261 53.9325 119.577 53.478 119.088C53.0291 118.594 52.3984 118.347 51.5859 118.347C51.0405 118.347 50.5518 118.466 50.12 118.705C49.6939 118.937 49.3587 119.276 49.1143 119.719C48.8757 120.162 48.7564 120.699 48.7564 121.33ZM64.157 129.264C63.3274 129.264 62.5803 129.116 61.9155 128.821C61.2564 128.52 60.7337 128.077 60.3473 127.491C59.9666 126.906 59.7763 126.185 59.7763 125.327C59.7763 124.588 59.9126 123.977 60.1854 123.494C60.4581 123.011 60.8303 122.625 61.3018 122.335C61.7734 122.045 62.3047 121.827 62.8956 121.679C63.4922 121.526 64.1087 121.415 64.745 121.347C65.5121 121.267 66.1342 121.196 66.6115 121.134C67.0888 121.065 67.4354 120.963 67.6513 120.827C67.8729 120.685 67.9837 120.466 67.9837 120.17V120.119C67.9837 119.477 67.7933 118.98 67.4126 118.628C67.032 118.276 66.4837 118.099 65.7678 118.099C65.0121 118.099 64.4126 118.264 63.9695 118.594C63.532 118.923 63.2365 119.312 63.0831 119.761L60.2024 119.352C60.4297 118.557 60.8047 117.892 61.3274 117.358C61.8501 116.818 62.4893 116.415 63.245 116.148C64.0007 115.875 64.8359 115.739 65.7507 115.739C66.3814 115.739 67.0092 115.812 67.6342 115.96C68.2592 116.108 68.8303 116.352 69.3473 116.693C69.8643 117.028 70.2791 117.486 70.5916 118.065C70.9098 118.645 71.0689 119.369 71.0689 120.239V129H68.103V127.202H68.0007C67.8132 127.565 67.549 127.906 67.2081 128.224C66.8729 128.537 66.4496 128.79 65.9382 128.983C65.4325 129.17 64.8388 129.264 64.157 129.264ZM64.9581 126.997C65.5774 126.997 66.1143 126.875 66.5689 126.631C67.0234 126.381 67.3729 126.051 67.6172 125.642C67.8672 125.233 67.9922 124.787 67.9922 124.304V122.761C67.8956 122.841 67.7308 122.915 67.4979 122.983C67.2706 123.051 67.0149 123.111 66.7308 123.162C66.4467 123.213 66.1655 123.259 65.8871 123.298C65.6087 123.338 65.3672 123.372 65.1626 123.401C64.7024 123.463 64.2905 123.565 63.9268 123.707C63.5632 123.849 63.2763 124.048 63.0661 124.304C62.8558 124.554 62.7507 124.878 62.7507 125.276C62.7507 125.844 62.9581 126.273 63.3729 126.562C63.7876 126.852 64.3161 126.997 64.9581 126.997ZM74.1712 129V115.909H77.1626V118.091H77.299C77.5376 117.335 77.9467 116.753 78.5263 116.344C79.1115 115.929 79.7791 115.722 80.5291 115.722C80.6996 115.722 80.8899 115.73 81.1001 115.747C81.3161 115.759 81.495 115.778 81.6371 115.807V118.645C81.5064 118.599 81.299 118.56 81.0149 118.526C80.7365 118.486 80.4666 118.466 80.2053 118.466C79.6428 118.466 79.1371 118.588 78.6882 118.832C78.245 119.071 77.8956 119.403 77.6399 119.83C77.3842 120.256 77.2564 120.747 77.2564 121.304V129H74.1712ZM87.2195 129.264C86.3899 129.264 85.6428 129.116 84.978 128.821C84.3189 128.52 83.7962 128.077 83.4098 127.491C83.0291 126.906 82.8388 126.185 82.8388 125.327C82.8388 124.588 82.9751 123.977 83.2479 123.494C83.5206 123.011 83.8928 122.625 84.3643 122.335C84.8359 122.045 85.3672 121.827 85.9581 121.679C86.5547 121.526 87.1712 121.415 87.8075 121.347C88.5746 121.267 89.1967 121.196 89.674 121.134C90.1513 121.065 90.4979 120.963 90.7138 120.827C90.9354 120.685 91.0462 120.466 91.0462 120.17V120.119C91.0462 119.477 90.8558 118.98 90.4751 118.628C90.0945 118.276 89.5462 118.099 88.8303 118.099C88.0746 118.099 87.4751 118.264 87.032 118.594C86.5945 118.923 86.299 119.312 86.1456 119.761L83.2649 119.352C83.4922 118.557 83.8672 117.892 84.3899 117.358C84.9126 116.818 85.5518 116.415 86.3075 116.148C87.0632 115.875 87.8984 115.739 88.8132 115.739C89.4439 115.739 90.0717 115.812 90.6967 115.96C91.3217 116.108 91.8928 116.352 92.4098 116.693C92.9268 117.028 93.3416 117.486 93.6541 118.065C93.9723 118.645 94.1314 119.369 94.1314 120.239V129H91.1655V127.202H91.0632C90.8757 127.565 90.6115 127.906 90.2706 128.224C89.9354 128.537 89.5121 128.79 89.0007 128.983C88.495 129.17 87.9013 129.264 87.2195 129.264ZM88.0206 126.997C88.6399 126.997 89.1768 126.875 89.6314 126.631C90.0859 126.381 90.4354 126.051 90.6797 125.642C90.9297 125.233 91.0547 124.787 91.0547 124.304V122.761C90.9581 122.841 90.7933 122.915 90.5604 122.983C90.3331 123.051 90.0774 123.111 89.7933 123.162C89.5092 123.213 89.228 123.259 88.9496 123.298C88.6712 123.338 88.4297 123.372 88.2251 123.401C87.7649 123.463 87.353 123.565 86.9893 123.707C86.6257 123.849 86.3388 124.048 86.1286 124.304C85.9183 124.554 85.8132 124.878 85.8132 125.276C85.8132 125.844 86.0206 126.273 86.4354 126.562C86.8501 126.852 87.3786 126.997 88.0206 126.997ZM114.326 111.545H117.488V122.949C117.488 124.199 117.192 125.298 116.602 126.247C116.016 127.196 115.192 127.937 114.13 128.472C113.067 129 111.826 129.264 110.406 129.264C108.979 129.264 107.735 129 106.673 128.472C105.61 127.937 104.786 127.196 104.201 126.247C103.616 125.298 103.323 124.199 103.323 122.949V111.545H106.485V122.685C106.485 123.412 106.644 124.06 106.962 124.628C107.286 125.196 107.741 125.642 108.326 125.966C108.911 126.284 109.604 126.443 110.406 126.443C111.207 126.443 111.9 126.284 112.485 125.966C113.076 125.642 113.531 125.196 113.849 124.628C114.167 124.06 114.326 123.412 114.326 122.685V111.545ZM127.325 115.909V118.295H119.8V115.909H127.325ZM121.658 112.773H124.743V125.062C124.743 125.477 124.805 125.795 124.93 126.017C125.061 126.233 125.232 126.381 125.442 126.46C125.652 126.54 125.885 126.58 126.141 126.58C126.334 126.58 126.51 126.565 126.669 126.537C126.834 126.509 126.959 126.483 127.044 126.46L127.564 128.872C127.399 128.929 127.163 128.991 126.857 129.06C126.555 129.128 126.186 129.168 125.749 129.179C124.976 129.202 124.28 129.085 123.661 128.83C123.041 128.568 122.55 128.165 122.186 127.619C121.828 127.074 121.652 126.392 121.658 125.574V112.773ZM133.272 121.33V129H130.187V111.545H133.204V118.134H133.357C133.664 117.395 134.138 116.812 134.781 116.386C135.428 115.955 136.252 115.739 137.252 115.739C138.161 115.739 138.954 115.929 139.63 116.31C140.306 116.69 140.829 117.247 141.198 117.98C141.573 118.713 141.761 119.608 141.761 120.665V129H138.675V121.142C138.675 120.261 138.448 119.577 137.994 119.088C137.545 118.594 136.914 118.347 136.102 118.347C135.556 118.347 135.067 118.466 134.636 118.705C134.21 118.937 133.874 119.276 133.63 119.719C133.391 120.162 133.272 120.699 133.272 121.33ZM148.673 129.264C147.843 129.264 147.096 129.116 146.431 128.821C145.772 128.52 145.249 128.077 144.863 127.491C144.482 126.906 144.292 126.185 144.292 125.327C144.292 124.588 144.428 123.977 144.701 123.494C144.974 123.011 145.346 122.625 145.817 122.335C146.289 122.045 146.82 121.827 147.411 121.679C148.008 121.526 148.624 121.415 149.261 121.347C150.028 121.267 150.65 121.196 151.127 121.134C151.604 121.065 151.951 120.963 152.167 120.827C152.388 120.685 152.499 120.466 152.499 120.17V120.119C152.499 119.477 152.309 118.98 151.928 118.628C151.548 118.276 150.999 118.099 150.283 118.099C149.528 118.099 148.928 118.264 148.485 118.594C148.048 118.923 147.752 119.312 147.599 119.761L144.718 119.352C144.945 118.557 145.32 117.892 145.843 117.358C146.366 116.818 147.005 116.415 147.761 116.148C148.516 115.875 149.352 115.739 150.266 115.739C150.897 115.739 151.525 115.812 152.15 115.96C152.775 116.108 153.346 116.352 153.863 116.693C154.38 117.028 154.795 117.486 155.107 118.065C155.425 118.645 155.585 119.369 155.585 120.239V129H152.619V127.202H152.516C152.329 127.565 152.065 127.906 151.724 128.224C151.388 128.537 150.965 128.79 150.454 128.983C149.948 129.17 149.354 129.264 148.673 129.264ZM149.474 126.997C150.093 126.997 150.63 126.875 151.085 126.631C151.539 126.381 151.888 126.051 152.133 125.642C152.383 125.233 152.508 124.787 152.508 124.304V122.761C152.411 122.841 152.246 122.915 152.013 122.983C151.786 123.051 151.531 123.111 151.246 123.162C150.962 123.213 150.681 123.259 150.403 123.298C150.124 123.338 149.883 123.372 149.678 123.401C149.218 123.463 148.806 123.565 148.442 123.707C148.079 123.849 147.792 124.048 147.582 124.304C147.371 124.554 147.266 124.878 147.266 125.276C147.266 125.844 147.474 126.273 147.888 126.562C148.303 126.852 148.832 126.997 149.474 126.997Z" fill="#03060E"/>
<path d="M5.21927 149.865L7.49022 156.008C7.73442 156.695 7.98862 157.51 8.1588 158.129H8.21132C8.3967 157.517 8.62658 156.721 8.87469 155.966L10.931 149.865H12.9362L10.0922 157.268C8.74575 160.842 7.81974 162.661 6.53296 163.787C5.59827 164.595 4.67703 164.917 4.21533 165L3.74558 163.42C4.22052 163.271 4.83484 162.975 5.40139 162.497C5.91084 162.084 6.54338 161.352 6.98207 160.392C7.07758 160.193 7.12837 160.053 7.12837 159.936C7.12837 159.83 7.09755 159.68 6.99683 159.451L3.16406 149.866H5.21927V149.865Z" fill="#666666"/>
<path d="M24.0643 154.962C24.0643 158.81 21.3942 160.494 18.8959 160.494C16.0773 160.494 13.8999 158.44 13.8999 155.141C13.8999 151.663 16.1863 149.629 19.0607 149.629C22.0489 149.629 24.0643 151.796 24.0643 154.962ZM15.8238 155.083C15.8238 157.362 17.1301 159.078 18.9741 159.078C20.7866 159.078 22.1411 157.385 22.1411 155.026C22.1411 153.268 21.255 151.045 19.0084 151.045C16.7884 151.045 15.8238 153.112 15.8238 155.083Z" fill="#666666"/>
<path d="M35.1449 157.413C35.1449 158.503 35.1805 159.436 35.2309 160.258H33.561L33.4603 158.558H33.4077C32.9287 159.394 31.8301 160.494 29.9674 160.494C28.3414 160.494 26.3882 159.582 26.3882 155.939V149.865H28.2686V155.607C28.2686 157.587 28.8858 158.935 30.5917 158.935C31.8579 158.935 32.7431 158.048 33.0925 157.2C33.1902 156.928 33.2643 156.59 33.2643 156.231V149.865H35.1447L35.1449 157.413Z" fill="#666666"/>
<path d="M38.291 153.102C38.291 151.875 38.2604 150.829 38.2051 149.865H39.8618L39.9338 151.904H40.0011C40.4863 150.509 41.6324 149.629 42.8951 149.629C43.0998 149.629 43.2482 149.642 43.4208 149.682V151.46C43.2278 151.419 43.0375 151.405 42.7778 151.405C41.4457 151.405 40.5045 152.409 40.2479 153.823C40.1991 154.088 40.1715 154.398 40.1715 154.705V160.258H38.291V153.102Z" fill="#666666"/>
<path d="M52.1462 146.873V149.865H54.8619V151.297H52.1462V156.898C52.1462 158.193 52.5189 158.924 53.5756 158.924C54.0655 158.924 54.4219 158.864 54.6707 158.787L54.7571 160.223C54.39 160.368 53.8029 160.483 53.0685 160.483C52.1998 160.483 51.4783 160.197 51.0285 159.683C50.5078 159.109 50.2948 158.193 50.2948 156.972V151.296H48.6851V149.865H50.2948V147.361L52.1462 146.873Z" fill="#666666"/>
<path d="M62.753 160.258L62.5862 158.945H62.5298C61.9589 159.756 60.8384 160.494 59.3502 160.494C57.2507 160.494 56.1758 159.004 56.1758 157.512C56.1758 154.995 58.4068 153.612 62.4215 153.641V153.42C62.4215 152.575 62.184 151.011 60.0552 151.022C59.0882 151.022 58.0769 151.311 57.3477 151.797L56.9188 150.54C57.7797 149.985 59.0376 149.629 60.3491 149.629C63.5257 149.629 64.3004 151.801 64.3004 153.883V157.771C64.3004 158.659 64.3408 159.544 64.4574 160.258H62.753ZM62.4588 154.951C60.4136 154.908 58.0719 155.275 58.0719 157.285C58.0719 158.525 58.8881 159.094 59.8364 159.094C61.2048 159.094 62.0679 158.232 62.3692 157.354C62.4347 157.153 62.4588 156.939 62.4588 156.759V154.951Z" fill="#666666"/>
<path d="M76.3163 149.865C76.2642 150.599 76.2288 151.443 76.2288 152.709V158.744C76.2288 161.149 75.7378 162.591 74.7448 163.502C73.7239 164.438 72.27 164.749 70.9587 164.749C69.7014 164.749 68.3334 164.455 67.4892 163.894L67.9631 162.44C68.6564 162.873 69.7253 163.272 71.0227 163.272C72.9518 163.272 74.3697 162.262 74.3697 159.63V158.472H74.3267C73.7588 159.448 72.6259 160.222 71.024 160.222C68.4328 160.222 66.5928 158.019 66.5928 155.139C66.5928 151.615 68.8852 149.629 71.2851 149.629C73.0892 149.629 74.0647 150.557 74.5275 151.422H74.5705L74.6488 149.865L76.3163 149.865ZM74.3501 153.953C74.3501 153.643 74.3225 153.361 74.2455 153.107C73.8971 152.006 72.9841 151.096 71.591 151.096C69.7878 151.096 68.4954 152.621 68.4954 155.036C68.4954 157.07 69.5451 158.78 71.5721 158.78C72.7453 158.78 73.7966 158.039 74.2014 156.831C74.3019 156.526 74.3504 156.156 74.3504 155.826V153.953H74.3501Z" fill="#666666"/>
<path d="M79.3604 145H81.2408V160.257H79.3604V145Z" fill="#666666"/>
<path d="M86.5432 146.926C86.545 147.569 86.0921 148.101 85.3411 148.101C84.6573 148.101 84.1985 147.569 84.2002 146.926C84.1985 146.277 84.683 145.75 85.3754 145.75C86.0809 145.75 86.5384 146.266 86.5432 146.926ZM84.4314 160.257V149.864H86.3118V160.257H84.4314Z" fill="#666666"/>
<path d="M89.46 152.672C89.46 151.588 89.4246 150.727 89.374 149.865H91.0439L91.1481 151.574H91.2007C91.7116 150.598 92.9207 149.629 94.6371 149.629C96.0647 149.629 98.2996 150.488 98.2996 154.058V160.258H96.4192V154.266C96.4192 152.586 95.786 151.179 94.0169 151.179C92.7763 151.179 91.8091 152.06 91.4702 153.118C91.3919 153.349 91.3402 153.684 91.3402 153.995V160.258H89.4598L89.46 152.672Z" fill="#666666"/>
<path d="M102.444 155.403C102.481 157.958 104.102 159.011 106 159.011C107.353 159.011 108.18 158.768 108.879 158.479L109.21 159.821C108.549 160.123 107.394 160.483 105.743 160.483C102.549 160.483 100.629 158.356 100.629 155.238C100.629 152.089 102.484 149.629 105.519 149.629C108.909 149.629 109.796 152.604 109.796 154.517C109.796 154.914 109.773 155.198 109.731 155.403L102.444 155.403ZM107.976 154.043C107.995 152.852 107.488 150.983 105.369 150.983C103.439 150.983 102.618 152.727 102.467 154.043H107.976Z" fill="#666666"/>
<path d="M116.708 145H118.588V151.488H118.631C118.944 150.957 119.413 150.481 119.99 150.153C120.541 149.827 121.209 149.629 121.925 149.629C123.327 149.629 125.548 150.483 125.548 154.069V160.258H123.667V154.275C123.667 152.598 123.034 151.189 121.265 151.189C120.028 151.189 119.076 152.053 118.715 153.076C118.617 153.34 118.588 153.626 118.588 153.976V160.257H116.708L116.708 145Z" fill="#666666"/>
<path d="M129.692 155.403C129.729 157.958 131.35 159.011 133.249 159.011C134.601 159.011 135.428 158.768 136.127 158.479L136.458 159.821C135.797 160.123 134.642 160.483 132.991 160.483C129.797 160.483 127.877 158.356 127.877 155.238C127.877 152.089 129.732 149.629 132.767 149.629C136.157 149.629 137.044 152.604 137.044 154.517C137.044 154.914 137.021 155.198 136.98 155.403L129.692 155.403ZM135.224 154.043C135.242 152.852 134.736 150.983 132.617 150.983C130.687 150.983 129.866 152.727 129.715 154.043H135.224Z" fill="#666666"/>
<path d="M139.396 153.102C139.396 151.875 139.365 150.829 139.31 149.865H140.967L141.039 151.904H141.106C141.591 150.509 142.737 149.629 144 149.629C144.205 149.629 144.353 149.642 144.526 149.682V151.46C144.333 151.419 144.142 151.405 143.883 151.405C142.551 151.405 141.609 152.409 141.353 153.823C141.304 154.088 141.276 154.398 141.276 154.705V160.258H139.396V153.102Z" fill="#666666"/>
<path d="M147.484 155.403C147.521 157.958 149.143 159.011 151.041 159.011C152.393 159.011 153.221 158.768 153.92 158.479L154.251 159.821C153.59 160.123 152.434 160.483 150.783 160.483C147.59 160.483 145.669 158.356 145.669 155.238C145.669 152.089 147.525 149.629 150.559 149.629C153.95 149.629 154.836 152.604 154.836 154.517C154.836 154.914 154.814 155.198 154.772 155.403L147.484 155.403ZM153.016 154.043C153.035 152.852 152.529 150.983 150.409 150.983C148.48 150.983 147.658 152.727 147.507 154.043H153.016Z" fill="#666666"/>
</svg>
