<svg width="153" height="165" viewBox="0 0 153 165" fill="none" xmlns="http://www.w3.org/2000/svg">
<path d="M82.5268 56.4142C83.3008 54.3447 83.9411 52.4685 84.7091 50.646C85.109 49.6971 85.0523 49.0719 84.3095 48.2614C81.3324 45.0128 79.2049 41.2542 77.9874 37.001C77.8795 36.6237 77.7614 36.2492 77.4916 35.8458C77.4553 36.0912 77.3876 36.3364 77.3871 36.5818C77.3797 41.1462 77.3648 45.7109 77.4053 50.275C77.4091 50.6994 77.677 51.221 77.9898 51.5252C79.1307 52.6346 79.2656 54.115 78.2326 55.1741C77.2673 56.164 75.7109 56.1539 74.742 55.1516C73.7079 54.0819 73.8438 52.6291 75.0335 51.5204C75.2934 51.2781 75.582 50.8941 75.5841 50.5736C75.6154 45.7559 75.6014 40.9378 75.5917 36.1199C75.5916 36.0345 75.5133 35.9492 75.4776 35.8763C74.7227 37.7905 74.1743 39.8057 73.1745 41.5643C71.8058 43.9717 70.1519 46.2274 68.4946 48.4547C67.9824 49.1431 67.8794 49.6258 68.1843 50.3822C68.9533 52.2903 69.6474 54.2287 70.4294 56.3087C68.7699 55.4685 67.2627 54.6762 65.7304 53.9356C62.0137 52.1391 58.0885 51.0461 53.9892 50.6079C53.345 50.539 53.0682 50.2983 52.85 49.7149C50.8535 44.3767 52.3023 38.8006 56.7538 34.718C59.6673 32.0458 63.1224 30.2108 66.5327 28.2991C69.1245 26.8461 71.7114 25.3798 73.6972 23.0892C75.1036 21.4669 75.9991 19.6076 76.3773 17.4211C71.1937 16.1228 68.247 12.9935 68.6935 7.49079C69.0039 3.66327 71.8374 0.754982 75.4878 0C70.2507 3.42099 70.6745 8.83841 73.1656 11.867C76.3569 15.7468 80.9423 15.6693 85.7383 11.5092C83.9452 15.5311 80.9944 17.359 76.7927 17.3578C77.0877 19.6429 78.0321 21.5094 79.4627 23.1438C81.8297 25.848 84.9915 27.4283 88.049 29.1485C91.5278 31.1057 94.9938 33.0979 97.6406 36.1653C101.118 40.1947 101.819 44.7837 100.077 49.7631C99.9594 50.1002 99.4871 50.502 99.1408 50.5426C92.7137 51.2959 87.6054 53.4275 82.5268 56.4142Z" fill="#374868"/>
<path d="M85.7068 57.4861C86.9014 57.0288 88.0691 56.4727 89.297 56.1368C91.2459 55.6038 93.2318 55.203 95.2089 54.7777C95.9435 54.6196 96.3294 54.8565 96.3346 55.7346C96.3486 58.0737 96.3853 58.0651 98.7322 57.6521C99.7648 57.4704 100.803 57.3212 101.842 57.176C102.417 57.0956 102.829 57.2082 102.827 57.9475C102.809 63.2004 102.811 68.4535 102.802 73.7064C102.801 73.8061 102.731 73.9058 102.646 74.1326C102.177 74.0475 101.685 73.9984 101.215 73.8669C93.9991 71.8444 87.3163 73.2633 81.0294 77.049C79.6393 77.886 78.3965 78.9649 77.0413 79.8655C76.7814 80.0382 76.2154 80.0466 75.9562 79.8772C73.9605 78.5743 72.1079 77.015 70.0134 75.9097C67.133 74.3896 64.0306 73.3368 60.7343 73.0976C57.6557 72.8742 54.5896 72.9031 51.6118 73.911C51.2161 74.045 50.7742 74.0425 50.2306 74.121C50.208 73.6896 50.1741 73.3421 50.174 72.9945C50.1732 68.1399 50.1755 63.2853 50.1808 58.4307C50.1823 57.1211 50.3166 57.0073 51.6368 57.2288C53.0268 57.4621 54.4166 57.6989 55.8003 57.9657C56.4108 58.0834 56.7028 57.9076 56.6781 57.2642C56.6627 56.8664 56.6767 56.4673 56.6784 56.0689C56.684 54.7198 56.7567 54.6037 58.1009 54.7985C61.3758 55.273 64.5422 56.1311 67.4921 57.6792C67.6056 57.7388 67.7104 57.8152 67.9344 57.9563C65.8685 57.5949 63.9654 57.2288 62.0514 56.9343C58.7058 56.4195 58.7032 56.4379 58.7067 59.7162C58.708 61.0566 58.7227 62.3973 58.7029 63.7375C58.6921 64.4649 58.9253 64.8089 59.7282 64.6972C65.6221 63.8774 70.8972 65.5106 75.7096 68.8416C76.3323 69.2726 76.7171 69.2537 77.3183 68.8371C82.1213 65.5085 87.3766 63.8534 93.2661 64.6928C93.9823 64.7948 94.2786 64.5414 94.2755 63.8332C94.2667 61.8046 94.2607 59.7757 94.2819 57.7473C94.29 56.9722 93.9104 56.6969 93.2027 56.7835C91.1967 57.029 89.1909 57.2772 87.1885 57.5497C86.7373 57.6111 86.3001 57.7754 85.8564 57.8923C85.8064 57.7567 85.7567 57.6215 85.7068 57.4861ZM76.4937 71.9952C75.9595 71.6 75.5555 71.298 75.1483 71.0002C72.8577 69.3247 70.41 67.9693 67.6509 67.2107C64.3978 66.3163 61.1546 66.2745 57.8988 67.1811C57.0486 67.418 56.6252 67.1674 56.6633 66.1712C56.7284 64.4707 56.6684 62.7657 56.6841 61.0628C56.6897 60.4506 56.4725 60.0292 55.8249 60.0959C54.9099 60.1901 53.8751 59.5721 53.0989 60.5171C53.0407 60.5878 53.0553 60.7276 53.0552 60.8355C53.0524 63.8066 53.0362 66.778 53.0826 69.7485C53.0863 69.9823 53.494 70.3191 53.7776 70.4102C54.0985 70.5134 54.4939 70.4136 54.8523 70.3671C62.4655 69.3779 69.2245 71.6102 75.4069 75.8942C76.2427 76.4734 76.7699 76.4889 77.5849 75.901C80.2952 73.9456 83.2562 72.4609 86.4462 71.4279C90.4501 70.1312 94.5292 69.8393 98.6762 70.4372C99.6324 70.5751 99.982 70.3097 99.9586 69.3134C99.9049 67.032 99.9706 64.7479 99.9389 62.4656C99.9032 59.9009 100.547 59.9832 97.2763 60.0643C96.6071 60.081 96.2921 60.364 96.3051 61.061C96.3293 62.3649 96.3087 63.6698 96.3076 64.9742C96.3068 65.7461 96.3074 66.5181 96.3074 67.4868C88.7004 65.1436 82.3306 67.3486 76.4937 71.9952Z" fill="#F9AB3E"/>
<path fill-rule="evenodd" clip-rule="evenodd" d="M78.7229 1.88672L79.9236 5.45925H83.7928L80.6479 7.66648L81.8488 11.2391L78.7229 9.01612L75.5969 11.2391L76.7977 7.66648L73.6719 5.45925H77.5411L78.7229 1.88672Z" fill="#CE9E32"/>
<path d="M29.6619 117.435H26.4744C26.3835 116.912 26.2159 116.449 25.9716 116.045C25.7273 115.636 25.4233 115.29 25.0597 115.006C24.696 114.722 24.2813 114.509 23.8153 114.366C23.3551 114.219 22.858 114.145 22.3239 114.145C21.375 114.145 20.5341 114.384 19.8011 114.861C19.0682 115.332 18.4943 116.026 18.0795 116.94C17.6648 117.849 17.4574 118.96 17.4574 120.273C17.4574 121.608 17.6648 122.733 18.0795 123.648C18.5 124.557 19.0739 125.244 19.8011 125.71C20.5341 126.17 21.3722 126.401 22.3153 126.401C22.8381 126.401 23.3267 126.332 23.7812 126.196C24.2415 126.054 24.6534 125.847 25.017 125.574C25.3864 125.301 25.696 124.966 25.946 124.568C26.2017 124.17 26.3778 123.716 26.4744 123.205L29.6619 123.222C29.5426 124.051 29.2841 124.83 28.8864 125.557C28.4943 126.284 27.9801 126.926 27.3438 127.483C26.7074 128.034 25.9631 128.466 25.1108 128.778C24.2585 129.085 23.3125 129.239 22.2727 129.239C20.7386 129.239 19.3693 128.884 18.1648 128.173C16.9602 127.463 16.0114 126.438 15.3182 125.097C14.625 123.756 14.2784 122.148 14.2784 120.273C14.2784 118.392 14.6278 116.784 15.3267 115.449C16.0256 114.108 16.9773 113.082 18.1818 112.372C19.3864 111.662 20.75 111.307 22.2727 111.307C23.2443 111.307 24.1477 111.443 24.983 111.716C25.8182 111.989 26.5625 112.389 27.2159 112.918C27.8693 113.44 28.4063 114.082 28.8267 114.844C29.2528 115.599 29.5313 116.463 29.6619 117.435ZM36.1882 129.264C35.3587 129.264 34.6115 129.116 33.9467 128.821C33.2876 128.52 32.7649 128.077 32.3786 127.491C31.9979 126.906 31.8075 126.185 31.8075 125.327C31.8075 124.588 31.9439 123.977 32.2166 123.494C32.4893 123.011 32.8615 122.625 33.3331 122.335C33.8047 122.045 34.3359 121.827 34.9268 121.679C35.5234 121.526 36.1399 121.415 36.7763 121.347C37.5433 121.267 38.1655 121.196 38.6428 121.134C39.12 121.065 39.4666 120.963 39.6825 120.827C39.9041 120.685 40.0149 120.466 40.0149 120.17V120.119C40.0149 119.477 39.8246 118.98 39.4439 118.628C39.0632 118.276 38.5149 118.099 37.799 118.099C37.0433 118.099 36.4439 118.264 36.0007 118.594C35.5632 118.923 35.2678 119.312 35.1143 119.761L32.2337 119.352C32.4609 118.557 32.8359 117.892 33.3587 117.358C33.8814 116.818 34.5206 116.415 35.2763 116.148C36.032 115.875 36.8672 115.739 37.782 115.739C38.4126 115.739 39.0405 115.812 39.6655 115.96C40.2905 116.108 40.8615 116.352 41.3786 116.693C41.8956 117.028 42.3104 117.486 42.6229 118.065C42.9411 118.645 43.1001 119.369 43.1001 120.239V129H40.1342V127.202H40.032C39.8445 127.565 39.5803 127.906 39.2393 128.224C38.9041 128.537 38.4808 128.79 37.9695 128.983C37.4638 129.17 36.87 129.264 36.1882 129.264ZM36.9893 126.997C37.6087 126.997 38.1456 126.875 38.6001 126.631C39.0547 126.381 39.4041 126.051 39.6484 125.642C39.8984 125.233 40.0234 124.787 40.0234 124.304V122.761C39.9268 122.841 39.7621 122.915 39.5291 122.983C39.3018 123.051 39.0462 123.111 38.7621 123.162C38.478 123.213 38.1967 123.259 37.9183 123.298C37.6399 123.338 37.3984 123.372 37.1939 123.401C36.7337 123.463 36.3217 123.565 35.9581 123.707C35.5945 123.849 35.3075 124.048 35.0973 124.304C34.8871 124.554 34.782 124.878 34.782 125.276C34.782 125.844 34.9893 126.273 35.4041 126.562C35.8189 126.852 36.3473 126.997 36.9893 126.997ZM46.2024 129V115.909H49.1513V118.134H49.3047C49.5774 117.384 50.0291 116.798 50.6598 116.378C51.2905 115.952 52.0433 115.739 52.9183 115.739C53.8047 115.739 54.5518 115.955 55.1598 116.386C55.7734 116.812 56.2053 117.395 56.4553 118.134H56.5916C56.8814 117.406 57.37 116.827 58.0575 116.395C58.7507 115.957 59.5717 115.739 60.5206 115.739C61.7251 115.739 62.7081 116.119 63.4695 116.881C64.2308 117.642 64.6115 118.753 64.6115 120.213V129H61.5178V120.69C61.5178 119.878 61.3018 119.284 60.87 118.909C60.4382 118.528 59.9098 118.338 59.2848 118.338C58.5405 118.338 57.9581 118.571 57.5376 119.037C57.1229 119.497 56.9155 120.097 56.9155 120.835V129H53.8899V120.562C53.8899 119.886 53.6854 119.347 53.2763 118.943C52.8729 118.54 52.3445 118.338 51.6911 118.338C51.2479 118.338 50.8445 118.452 50.4808 118.679C50.1172 118.901 49.8274 119.216 49.6115 119.625C49.3956 120.028 49.2876 120.5 49.2876 121.04V129H46.2024ZM73.5369 129.256C72.2244 129.256 71.0909 128.983 70.1364 128.438C69.1875 127.886 68.4574 127.108 67.946 126.102C67.4347 125.091 67.179 123.901 67.179 122.531C67.179 121.185 67.4347 120.003 67.946 118.986C68.4631 117.963 69.1847 117.168 70.1108 116.599C71.0369 116.026 72.125 115.739 73.375 115.739C74.1818 115.739 74.9432 115.869 75.6591 116.131C76.3807 116.386 77.017 116.784 77.5682 117.324C78.125 117.864 78.5625 118.551 78.8807 119.386C79.1989 120.216 79.358 121.205 79.358 122.352V123.298H68.6278V121.219H76.4006C76.3949 120.628 76.267 120.102 76.017 119.642C75.767 119.176 75.4176 118.81 74.9688 118.543C74.5256 118.276 74.0085 118.142 73.4176 118.142C72.7869 118.142 72.233 118.295 71.7557 118.602C71.2784 118.903 70.9063 119.301 70.6392 119.795C70.3778 120.284 70.2443 120.821 70.2386 121.406V123.222C70.2386 123.983 70.3778 124.636 70.6562 125.182C70.9347 125.722 71.3239 126.136 71.8239 126.426C72.3239 126.71 72.9091 126.852 73.5795 126.852C74.0284 126.852 74.4347 126.79 74.7983 126.665C75.1619 126.534 75.4773 126.344 75.7443 126.094C76.0114 125.844 76.2131 125.534 76.3494 125.165L79.2301 125.489C79.0483 126.25 78.7017 126.915 78.1903 127.483C77.6847 128.045 77.0369 128.483 76.2472 128.795C75.4574 129.102 74.554 129.256 73.5369 129.256ZM85.0533 111.545V129H81.968V111.545H85.0533ZM94.3153 129V111.545H105.497V114.196H97.4773V118.935H104.73V121.585H97.4773V129H94.3153ZM112.991 129.256C111.712 129.256 110.604 128.974 109.667 128.412C108.729 127.849 108.002 127.062 107.485 126.051C106.974 125.04 106.718 123.858 106.718 122.506C106.718 121.153 106.974 119.969 107.485 118.952C108.002 117.935 108.729 117.145 109.667 116.582C110.604 116.02 111.712 115.739 112.991 115.739C114.269 115.739 115.377 116.02 116.315 116.582C117.252 117.145 117.977 117.935 118.488 118.952C119.005 119.969 119.263 121.153 119.263 122.506C119.263 123.858 119.005 125.04 118.488 126.051C117.977 127.062 117.252 127.849 116.315 128.412C115.377 128.974 114.269 129.256 112.991 129.256ZM113.008 126.784C113.701 126.784 114.281 126.594 114.746 126.213C115.212 125.827 115.559 125.31 115.786 124.662C116.019 124.014 116.136 123.293 116.136 122.497C116.136 121.696 116.019 120.972 115.786 120.324C115.559 119.67 115.212 119.151 114.746 118.764C114.281 118.378 113.701 118.185 113.008 118.185C112.298 118.185 111.707 118.378 111.235 118.764C110.769 119.151 110.42 119.67 110.187 120.324C109.96 120.972 109.846 121.696 109.846 122.497C109.846 123.293 109.96 124.014 110.187 124.662C110.42 125.31 110.769 125.827 111.235 126.213C111.707 126.594 112.298 126.784 113.008 126.784ZM121.882 129V115.909H124.874V118.091H125.01C125.249 117.335 125.658 116.753 126.237 116.344C126.822 115.929 127.49 115.722 128.24 115.722C128.411 115.722 128.601 115.73 128.811 115.747C129.027 115.759 129.206 115.778 129.348 115.807V118.645C129.217 118.599 129.01 118.56 128.726 118.526C128.447 118.486 128.178 118.466 127.916 118.466C127.354 118.466 126.848 118.588 126.399 118.832C125.956 119.071 125.607 119.403 125.351 119.83C125.095 120.256 124.967 120.747 124.967 121.304V129H121.882ZM138.638 115.909V118.295H131.112V115.909H138.638ZM132.97 112.773H136.055V125.062C136.055 125.477 136.118 125.795 136.243 126.017C136.374 126.233 136.544 126.381 136.754 126.46C136.964 126.54 137.197 126.58 137.453 126.58C137.646 126.58 137.822 126.565 137.982 126.537C138.146 126.509 138.271 126.483 138.357 126.46L138.876 128.872C138.712 128.929 138.476 128.991 138.169 129.06C137.868 129.128 137.499 129.168 137.061 129.179C136.288 129.202 135.592 129.085 134.973 128.83C134.354 128.568 133.862 128.165 133.499 127.619C133.141 127.074 132.964 126.392 132.97 125.574V112.773Z" fill="#03060E"/>
<path d="M2.71927 149.865L4.99022 156.008C5.23442 156.695 5.48862 157.51 5.6588 158.129H5.71132C5.8967 157.517 6.12658 156.721 6.37469 155.966L8.43098 149.865H10.4362L7.59223 157.268C6.24575 160.842 5.31974 162.661 4.03296 163.787C3.09827 164.595 2.17703 164.917 1.71533 165L1.24558 163.42C1.72052 163.271 2.33484 162.975 2.90139 162.497C3.41084 162.084 4.04338 161.352 4.48207 160.392C4.57758 160.193 4.62837 160.053 4.62837 159.936C4.62837 159.83 4.59755 159.68 4.49683 159.451L0.664062 149.866H2.71927V149.865Z" fill="#666666"/>
<path d="M21.5643 154.962C21.5643 158.81 18.8942 160.494 16.3959 160.494C13.5773 160.494 11.3999 158.44 11.3999 155.141C11.3999 151.663 13.6863 149.629 16.5607 149.629C19.5489 149.629 21.5643 151.796 21.5643 154.962ZM13.3238 155.083C13.3238 157.362 14.6301 159.078 16.4741 159.078C18.2866 159.078 19.6411 157.385 19.6411 155.026C19.6411 153.268 18.755 151.045 16.5084 151.045C14.2884 151.045 13.3238 153.112 13.3238 155.083Z" fill="#666666"/>
<path d="M32.6449 157.413C32.6449 158.503 32.6805 159.436 32.7309 160.258H31.061L30.9603 158.558H30.9077C30.4287 159.394 29.3301 160.494 27.4674 160.494C25.8414 160.494 23.8882 159.582 23.8882 155.939V149.865H25.7686V155.607C25.7686 157.587 26.3858 158.935 28.0917 158.935C29.3579 158.935 30.2431 158.048 30.5925 157.2C30.6902 156.928 30.7643 156.59 30.7643 156.231V149.865H32.6447L32.6449 157.413Z" fill="#666666"/>
<path d="M35.791 153.102C35.791 151.875 35.7604 150.829 35.7051 149.865H37.3618L37.4338 151.904H37.5011C37.9863 150.509 39.1324 149.629 40.3951 149.629C40.5998 149.629 40.7482 149.642 40.9208 149.682V151.46C40.7278 151.419 40.5375 151.405 40.2778 151.405C38.9457 151.405 38.0045 152.409 37.7479 153.823C37.6991 154.088 37.6715 154.398 37.6715 154.705V160.258H35.791V153.102Z" fill="#666666"/>
<path d="M49.6462 146.873V149.865H52.3619V151.297H49.6462V156.898C49.6462 158.193 50.0189 158.924 51.0756 158.924C51.5655 158.924 51.9219 158.864 52.1707 158.787L52.2571 160.223C51.89 160.368 51.3029 160.483 50.5685 160.483C49.6998 160.483 48.9783 160.197 48.5285 159.683C48.0078 159.109 47.7948 158.193 47.7948 156.972V151.296H46.1851V149.865H47.7948V147.361L49.6462 146.873Z" fill="#666666"/>
<path d="M60.253 160.258L60.0862 158.945H60.0298C59.4589 159.756 58.3384 160.494 56.8502 160.494C54.7507 160.494 53.6758 159.004 53.6758 157.512C53.6758 154.995 55.9068 153.612 59.9215 153.641V153.42C59.9215 152.575 59.684 151.011 57.5552 151.022C56.5882 151.022 55.5769 151.311 54.8477 151.797L54.4188 150.54C55.2797 149.985 56.5376 149.629 57.8491 149.629C61.0257 149.629 61.8004 151.801 61.8004 153.883V157.771C61.8004 158.659 61.8408 159.544 61.9574 160.258H60.253ZM59.9588 154.951C57.9136 154.908 55.5719 155.275 55.5719 157.285C55.5719 158.525 56.3881 159.094 57.3364 159.094C58.7048 159.094 59.5679 158.232 59.8692 157.354C59.9347 157.153 59.9588 156.939 59.9588 156.759V154.951Z" fill="#666666"/>
<path d="M73.8163 149.865C73.7642 150.599 73.7288 151.443 73.7288 152.709V158.744C73.7288 161.149 73.2378 162.591 72.2448 163.502C71.2239 164.438 69.77 164.749 68.4587 164.749C67.2014 164.749 65.8334 164.455 64.9892 163.894L65.4631 162.44C66.1564 162.873 67.2253 163.272 68.5227 163.272C70.4518 163.272 71.8697 162.262 71.8697 159.63V158.472H71.8267C71.2588 159.448 70.1259 160.222 68.524 160.222C65.9328 160.222 64.0928 158.019 64.0928 155.139C64.0928 151.615 66.3852 149.629 68.7851 149.629C70.5892 149.629 71.5647 150.557 72.0275 151.422H72.0705L72.1488 149.865L73.8163 149.865ZM71.8501 153.953C71.8501 153.643 71.8225 153.361 71.7455 153.107C71.3971 152.006 70.4841 151.096 69.091 151.096C67.2878 151.096 65.9954 152.621 65.9954 155.036C65.9954 157.07 67.0451 158.78 69.0721 158.78C70.2453 158.78 71.2966 158.039 71.7014 156.831C71.8019 156.526 71.8504 156.156 71.8504 155.826V153.953H71.8501Z" fill="#666666"/>
<path d="M76.8604 145H78.7408V160.257H76.8604V145Z" fill="#666666"/>
<path d="M84.0432 146.926C84.045 147.569 83.5921 148.101 82.8411 148.101C82.1573 148.101 81.6985 147.569 81.7002 146.926C81.6985 146.277 82.183 145.75 82.8754 145.75C83.5809 145.75 84.0384 146.266 84.0432 146.926ZM81.9314 160.257V149.864H83.8118V160.257H81.9314Z" fill="#666666"/>
<path d="M86.96 152.672C86.96 151.588 86.9246 150.727 86.874 149.865H88.5439L88.6481 151.574H88.7007C89.2116 150.598 90.4207 149.629 92.1371 149.629C93.5647 149.629 95.7996 150.488 95.7996 154.058V160.258H93.9192V154.266C93.9192 152.586 93.286 151.179 91.5169 151.179C90.2763 151.179 89.3091 152.06 88.9702 153.118C88.8919 153.349 88.8402 153.684 88.8402 153.995V160.258H86.9598L86.96 152.672Z" fill="#666666"/>
<path d="M99.9438 155.403C99.981 157.958 101.602 159.011 103.5 159.011C104.853 159.011 105.68 158.768 106.379 158.479L106.71 159.821C106.049 160.123 104.894 160.483 103.243 160.483C100.049 160.483 98.1289 158.356 98.1289 155.238C98.1289 152.089 99.9842 149.629 103.019 149.629C106.409 149.629 107.296 152.604 107.296 154.517C107.296 154.914 107.273 155.198 107.231 155.403L99.9438 155.403ZM105.476 154.043C105.495 152.852 104.988 150.983 102.869 150.983C100.939 150.983 100.118 152.727 99.967 154.043H105.476Z" fill="#666666"/>
<path d="M114.208 145H116.088V151.488H116.131C116.444 150.957 116.913 150.481 117.49 150.153C118.041 149.827 118.709 149.629 119.425 149.629C120.827 149.629 123.048 150.483 123.048 154.069V160.258H121.167V154.275C121.167 152.598 120.534 151.189 118.765 151.189C117.528 151.189 116.576 152.053 116.215 153.076C116.117 153.34 116.088 153.626 116.088 153.976V160.257H114.208L114.208 145Z" fill="#666666"/>
<path d="M127.192 155.403C127.229 157.958 128.85 159.011 130.749 159.011C132.101 159.011 132.928 158.768 133.627 158.479L133.958 159.821C133.297 160.123 132.142 160.483 130.491 160.483C127.297 160.483 125.377 158.356 125.377 155.238C125.377 152.089 127.232 149.629 130.267 149.629C133.657 149.629 134.544 152.604 134.544 154.517C134.544 154.914 134.521 155.198 134.48 155.403L127.192 155.403ZM132.724 154.043C132.742 152.852 132.236 150.983 130.117 150.983C128.187 150.983 127.366 152.727 127.215 154.043H132.724Z" fill="#666666"/>
<path d="M136.896 153.102C136.896 151.875 136.865 150.829 136.81 149.865H138.467L138.539 151.904H138.606C139.091 150.509 140.237 149.629 141.5 149.629C141.705 149.629 141.853 149.642 142.026 149.682V151.46C141.833 151.419 141.642 151.405 141.383 151.405C140.051 151.405 139.109 152.409 138.853 153.823C138.804 154.088 138.776 154.398 138.776 154.705V160.258H136.896V153.102Z" fill="#666666"/>
<path d="M144.984 155.403C145.021 157.958 146.643 159.011 148.541 159.011C149.893 159.011 150.721 158.768 151.42 158.479L151.751 159.821C151.09 160.123 149.934 160.483 148.283 160.483C145.09 160.483 143.169 158.356 143.169 155.238C143.169 152.089 145.025 149.629 148.059 149.629C151.45 149.629 152.336 152.604 152.336 154.517C152.336 154.914 152.314 155.198 152.272 155.403L144.984 155.403ZM150.516 154.043C150.535 152.852 150.029 150.983 147.909 150.983C145.98 150.983 145.158 152.727 145.007 154.043H150.516Z" fill="#666666"/>
</svg>
