<svg width="158" height="165" viewBox="0 0 158 165" fill="none" xmlns="http://www.w3.org/2000/svg">
<path d="M78.4684 0.0292109L78.6815 0L78.7261 0.0554317C78.0955 0.667897 77.5348 1.23325 77.2744 2.09513C76.9874 3.04477 77.1086 4.02318 77.5751 4.89347C78.0178 5.7191 78.8552 6.35038 79.7445 6.62729L79.8363 6.65523C80.292 6.80314 80.8929 6.81411 81.3639 6.72047C82.4257 6.50963 83.2983 5.83146 83.775 4.86426C83.9079 4.59463 83.9651 4.24707 84.1223 4.00192C84.1801 4.09337 84.1844 4.07675 84.1994 4.16486C84.3885 5.27454 83.9946 6.3183 83.362 7.20789C82.7459 7.97867 82.0107 8.58869 81.0569 8.89229C79.9334 9.24979 78.5929 9.09136 77.5544 8.55165C76.3945 7.94888 75.5967 6.88966 75.2124 5.65479C74.8803 4.58783 75.0702 3.35125 75.5832 2.37689C76.235 1.13831 77.1419 0.440046 78.4684 0.0292109Z" fill="#FFD54F"/>
<path d="M41.0444 66.7676C41.4571 67.191 41.8158 67.6795 42.2079 68.1247C42.7896 68.785 43.4138 69.4106 44.0542 70.0136C44.9334 70.8413 45.9119 71.5825 46.8741 72.3106C50.5555 75.0963 54.6398 77.3425 59.0271 78.8063C60.4182 79.2706 61.8462 79.533 63.2512 79.9317C63.0155 79.9933 62.7451 79.9702 62.5011 79.9718L61.1308 79.9725L56.482 79.9661L41.4207 79.9921C42.8195 79.1132 44.229 78.2179 45.7344 77.5315C46.6231 77.1265 47.5252 76.8313 48.4601 76.5574C46.3749 74.8189 44.5017 72.7455 43.0273 70.46C42.2666 69.2811 41.6381 68.0371 41.0444 66.7676Z" fill="#374868"/>
<path d="M116.301 66.6562C116.011 67.7776 115.667 68.8882 115.142 69.9248C113.802 72.5721 111.475 74.6806 109.125 76.4279C109.758 76.6112 110.408 76.7627 111.026 76.9902C112.972 77.7059 114.726 78.8574 116.445 79.9945L101.434 79.9868L94.1577 80.0008C98.9958 78.7689 103.538 76.8971 107.838 74.3639C110.269 72.9317 112.562 71.3518 114.467 69.2472C115.17 68.471 115.733 67.5324 116.301 66.6562Z" fill="#374868"/>
<path d="M64.9897 61.8359L92.617 61.8697L92.6123 64.0813L91.3863 64.0883L91.3581 75.5477C89.6439 77.1811 87.4797 78.337 85.6721 79.8622L85.6801 71.2489C85.6379 69.3298 84.1865 67.6853 82.6261 66.7329C81.8903 66.2838 81.0756 65.9582 80.3575 65.4838C79.8166 65.1264 79.37 64.6846 78.9186 64.2247C78.1707 64.8947 77.3469 65.4546 76.4787 65.9569C75.5153 66.5143 74.5186 66.9727 73.7262 67.7763C72.9009 68.6132 72.3031 69.7371 72.041 70.8833C71.7622 72.1023 71.8812 73.4677 71.8854 74.7143L71.9119 79.7183L66.3054 75.2516L66.3406 64.0797L64.9844 64.0842L64.9897 61.8359Z" fill="#FFD54F"/>
<path d="M78.7036 42.1187L78.8552 42.0625C79.1209 42.1568 79.3765 42.4285 79.5754 42.6252C79.8858 42.932 80.2404 43.299 80.4042 43.7067C80.5012 43.9483 80.4692 44.2462 80.4702 44.5044L80.4729 46.0736C80.4834 46.5114 80.6136 46.8672 80.91 47.1896C81.4186 47.7427 82.185 48.1011 82.8181 48.4966C84.4748 49.5317 86.3623 50.5776 87.7746 51.9232C90.1346 54.1716 91.0181 56.9562 91.1007 60.1435L78.941 60.1124L66.4561 60.1052L66.4697 59.0786C66.6975 55.6859 68.3195 52.8863 71.0654 50.8937C71.8231 50.3437 72.6631 49.8897 73.468 49.4116L75.3137 48.2853C75.7061 48.0447 76.1423 47.8124 76.4864 47.505C76.8239 47.2034 77.1362 46.7993 77.2553 46.3564C77.3183 46.1224 77.2927 45.8459 77.2939 45.603C77.2968 45.0256 77.2456 44.4028 77.3002 43.8315C77.358 43.2283 78.2714 42.4888 78.7036 42.1187Z" fill="#FFD54F"/>
<path d="M78.9166 9.24414C79.0392 9.77855 79.0751 10.3427 79.1815 10.8849C79.4432 12.2163 79.9383 13.5392 80.5978 14.7246C81.9516 17.1577 84.048 19.0708 86.1907 20.8056C88.3271 22.5354 90.6105 24.0945 92.9535 25.531C100.505 30.1606 109.109 34.234 113.761 42.1637C114.702 43.7688 115.493 45.4864 115.997 47.2816C117.52 52.7114 116.889 58.7456 114.106 63.6707C113.497 64.7498 112.844 65.8407 112.08 66.8186C108.625 71.2409 103.507 74.302 98.2895 76.2124C97.0317 76.673 95.7418 77.0344 94.4527 77.3923C94.8626 77.0142 95.6221 76.7571 96.1176 76.4904L98.2237 75.265C103.291 72.2305 108.163 68.4515 110.513 62.8502C111.913 59.5129 112.227 56.0406 111.637 52.4841C109.886 41.9253 99.5365 35.8191 91.2672 30.5894C88.2902 28.7066 85.3548 26.7871 82.7563 24.3937C82.0652 23.7572 81.3662 23.1194 80.7856 22.3769C80.0572 21.4453 79.4682 20.3959 79.0224 19.3022C78.9929 19.2107 78.9605 19.1353 78.9123 19.0521C78.7573 19.1349 78.3715 20.139 78.2584 20.3538C78.0919 20.67 77.9062 20.9755 77.7118 21.2753C76.8262 22.6419 75.6082 23.9166 74.3772 24.9745C72.0303 26.9916 69.3946 28.6908 66.7817 30.3376C61.8549 33.4431 56.8023 36.3975 52.6484 40.5393C50.5958 42.5861 48.8026 44.8887 47.5746 47.5291C45.4559 52.0841 45.0894 57.3303 46.8344 62.0769C49.4891 69.2975 55.9439 74.216 62.724 77.3367C62.5628 77.3404 62.4036 77.3011 62.246 77.2688C61.0502 77.0236 59.9021 76.6252 58.7611 76.1982C53.1613 74.1028 47.8381 70.2375 44.5308 65.2014C43.6885 63.9186 42.9474 62.6207 42.3676 61.1963C40.8145 57.3808 40.4703 53.0582 41.3221 49.0307C42.1194 45.2616 44.0159 41.851 46.5062 38.9464C52.3806 32.0947 60.6272 28.2168 68.0626 23.389C69.6033 22.3887 71.0365 21.2737 72.4244 20.0713C74.7673 18.0413 76.8272 15.8803 77.9697 12.9379C78.4349 11.7396 78.6514 10.4953 78.9166 9.24414Z" fill="#FFD54F"/>
<path d="M78.8548 24.2207C79.9797 27.8858 82.9059 30.9471 85.6063 33.5521L91.0418 38.3888C94.7834 41.4817 98.8149 44.4292 101.494 48.5661C103.635 51.8726 104.126 55.6638 103.313 59.4862C102.403 63.7632 100.034 67.6663 97.0599 70.8238C95.8461 72.1125 94.4827 73.3469 92.9938 74.3114L92.9785 65.5807L94.3881 65.5934L94.39 61.6027C94.3897 61.2081 94.4764 60.5175 94.3563 60.16L92.6468 60.1559L92.6478 59.6666C92.6336 56.0928 91.123 52.8468 88.4948 50.4419C87.6395 49.6592 86.6807 49.0098 85.6846 48.4206L82.9917 46.8144C82.6456 46.5887 82.2307 46.3449 81.9581 46.0296C81.8487 45.903 81.89 45.711 81.8874 45.5464C81.8784 44.9488 81.935 44.2677 81.8358 43.6818C81.7886 43.4025 81.6602 43.1179 81.5272 42.8694C81.0781 42.0295 80.2987 41.3639 79.6298 40.7027L78.8821 30.6792L78.8303 30.4555L78.316 37.5157L78.1562 39.6574C78.1325 39.9455 78.1466 40.2649 78.0981 40.5474C78.064 40.7454 77.8874 40.8645 77.7523 41.0045C77.3805 41.3893 76.9711 41.7638 76.6356 42.18C76.3175 42.5745 76.0258 43.087 75.9032 43.5814C75.8299 43.8767 75.8494 44.1988 75.8471 44.5017L75.844 46.0473C74.9756 46.8349 73.8602 47.354 72.8463 47.9327C71.2779 48.8279 69.8279 49.8024 68.5318 51.0679C66.7747 52.7834 65.5612 55.0602 65.1319 57.476C64.9726 58.3732 64.9505 59.2507 64.9415 60.1585L63.9507 60.1628C63.8766 60.1649 63.6726 60.1504 63.6121 60.1736C63.5516 60.1967 63.5159 60.2604 63.4678 60.3037C63.3037 60.8204 63.3888 61.5727 63.3875 62.1203L63.3834 65.6337L64.7665 65.6389L64.7597 74.1201C61.1074 71.4659 57.6779 67.7894 55.7656 63.6763C54.9449 61.9113 54.4268 60.1855 54.1861 58.2554C53.9668 56.497 54.0344 54.7374 54.4667 53.0146C55.5941 48.5224 58.8725 44.9611 62.2245 41.944C63.453 40.8381 64.8386 39.9097 66.1271 38.8791L71.0769 34.622C74.2984 31.6529 77.3193 28.3972 78.8548 24.2207Z" fill="#374868"/>
<path d="M11.5433 116.344C11.4638 115.599 11.1286 115.02 10.5376 114.605C9.95242 114.19 9.19105 113.983 8.25355 113.983C7.59446 113.983 7.02912 114.082 6.55753 114.281C6.08594 114.48 5.72514 114.75 5.47514 115.091C5.22514 115.432 5.0973 115.821 5.09162 116.259C5.09162 116.622 5.17401 116.937 5.33878 117.205C5.50923 117.472 5.73935 117.699 6.02912 117.886C6.31889 118.068 6.63991 118.222 6.99219 118.347C7.34446 118.472 7.69957 118.577 8.05753 118.662L9.69389 119.071C10.353 119.224 10.9865 119.432 11.5945 119.693C12.2081 119.955 12.7564 120.284 13.2393 120.682C13.728 121.08 14.1143 121.56 14.3984 122.122C14.6825 122.685 14.8246 123.344 14.8246 124.099C14.8246 125.122 14.5632 126.023 14.0405 126.801C13.5178 127.574 12.7621 128.179 11.7734 128.616C10.7905 129.048 9.60014 129.264 8.20242 129.264C6.84446 129.264 5.66548 129.054 4.66548 128.634C3.67116 128.213 2.89276 127.599 2.33026 126.793C1.77344 125.986 1.4723 125.003 1.42685 123.844H4.53764C4.5831 124.452 4.7706 124.957 5.10014 125.361C5.42969 125.764 5.85866 126.065 6.38707 126.264C6.92116 126.463 7.51776 126.562 8.17685 126.562C8.86435 126.562 9.46662 126.46 9.98367 126.256C10.5064 126.045 10.9155 125.756 11.2109 125.386C11.5064 125.011 11.657 124.574 11.6626 124.074C11.657 123.619 11.5234 123.244 11.2621 122.949C11.0007 122.648 10.6342 122.398 10.1626 122.199C9.69673 121.994 9.15128 121.812 8.52628 121.653L6.54048 121.142C5.10298 120.773 3.96662 120.213 3.13139 119.463C2.30185 118.707 1.88707 117.705 1.88707 116.455C1.88707 115.426 2.16548 114.526 2.7223 113.753C3.2848 112.98 4.04901 112.381 5.01491 111.955C5.98082 111.523 7.07457 111.307 8.29617 111.307C9.5348 111.307 10.62 111.523 11.5518 111.955C12.4893 112.381 13.2251 112.974 13.7592 113.736C14.2933 114.491 14.5689 115.361 14.5859 116.344H11.5433ZM21.2741 129.264C20.4446 129.264 19.6974 129.116 19.0327 128.821C18.3736 128.52 17.8509 128.077 17.4645 127.491C17.0838 126.906 16.8935 126.185 16.8935 125.327C16.8935 124.588 17.0298 123.977 17.3026 123.494C17.5753 123.011 17.9474 122.625 18.419 122.335C18.8906 122.045 19.4219 121.827 20.0128 121.679C20.6094 121.526 21.2259 121.415 21.8622 121.347C22.6293 121.267 23.2514 121.196 23.7287 121.134C24.206 121.065 24.5526 120.963 24.7685 120.827C24.9901 120.685 25.1009 120.466 25.1009 120.17V120.119C25.1009 119.477 24.9105 118.98 24.5298 118.628C24.1491 118.276 23.6009 118.099 22.8849 118.099C22.1293 118.099 21.5298 118.264 21.0866 118.594C20.6491 118.923 20.3537 119.312 20.2003 119.761L17.3196 119.352C17.5469 118.557 17.9219 117.892 18.4446 117.358C18.9673 116.818 19.6065 116.415 20.3622 116.148C21.1179 115.875 21.9531 115.739 22.8679 115.739C23.4986 115.739 24.1264 115.812 24.7514 115.96C25.3764 116.108 25.9474 116.352 26.4645 116.693C26.9815 117.028 27.3963 117.486 27.7088 118.065C28.027 118.645 28.1861 119.369 28.1861 120.239V129H25.2202V127.202H25.1179C24.9304 127.565 24.6662 127.906 24.3253 128.224C23.9901 128.537 23.5668 128.79 23.0554 128.983C22.5497 129.17 21.956 129.264 21.2741 129.264ZM22.0753 126.997C22.6946 126.997 23.2315 126.875 23.6861 126.631C24.1406 126.381 24.4901 126.051 24.7344 125.642C24.9844 125.233 25.1094 124.787 25.1094 124.304V122.761C25.0128 122.841 24.848 122.915 24.6151 122.983C24.3878 123.051 24.1321 123.111 23.848 123.162C23.5639 123.213 23.2827 123.259 23.0043 123.298C22.7259 123.338 22.4844 123.372 22.2798 123.401C21.8196 123.463 21.4077 123.565 21.044 123.707C20.6804 123.849 20.3935 124.048 20.1832 124.304C19.973 124.554 19.8679 124.878 19.8679 125.276C19.8679 125.844 20.0753 126.273 20.4901 126.562C20.9048 126.852 21.4332 126.997 22.0753 126.997ZM39.6321 123.494V115.909H42.7173V129H39.7259V126.673H39.5895C39.294 127.406 38.8082 128.006 38.1321 128.472C37.4616 128.937 36.6349 129.17 35.652 129.17C34.794 129.17 34.0355 128.98 33.3764 128.599C32.723 128.213 32.2116 127.653 31.8423 126.92C31.473 126.182 31.2884 125.29 31.2884 124.244V115.909H34.3736V123.767C34.3736 124.597 34.6009 125.256 35.0554 125.744C35.5099 126.233 36.1065 126.477 36.8452 126.477C37.2997 126.477 37.7401 126.366 38.1662 126.145C38.5923 125.923 38.9418 125.594 39.2145 125.156C39.4929 124.713 39.6321 124.159 39.6321 123.494ZM50.7479 129.23C49.7195 129.23 48.799 128.966 47.9865 128.438C47.174 127.909 46.532 127.142 46.0604 126.136C45.5888 125.131 45.353 123.909 45.353 122.472C45.353 121.017 45.5916 119.79 46.0689 118.79C46.5518 117.784 47.2024 117.026 48.0206 116.514C48.8388 115.997 49.7507 115.739 50.7564 115.739C51.5234 115.739 52.1541 115.869 52.6484 116.131C53.1428 116.386 53.5348 116.696 53.8246 117.06C54.1143 117.418 54.3388 117.756 54.4979 118.074H54.6257V111.545H57.7195V129H54.6854V126.938H54.4979C54.3388 127.256 54.1087 127.594 53.8075 127.952C53.5064 128.304 53.1087 128.605 52.6143 128.855C52.12 129.105 51.4979 129.23 50.7479 129.23ZM51.6087 126.699C52.2621 126.699 52.8189 126.523 53.2791 126.17C53.7393 125.812 54.0888 125.315 54.3274 124.679C54.5661 124.043 54.6854 123.301 54.6854 122.455C54.6854 121.608 54.5661 120.872 54.3274 120.247C54.0945 119.622 53.7479 119.136 53.2876 118.79C52.8331 118.443 52.2734 118.27 51.6087 118.27C50.9212 118.27 50.3473 118.449 49.8871 118.807C49.4268 119.165 49.0803 119.659 48.8473 120.29C48.6143 120.92 48.4979 121.642 48.4979 122.455C48.4979 123.273 48.6143 124.003 48.8473 124.645C49.0859 125.281 49.4354 125.784 49.8956 126.153C50.3615 126.517 50.9325 126.699 51.6087 126.699ZM61.0071 129V115.909H64.0923V129H61.0071ZM62.5582 114.051C62.0696 114.051 61.6491 113.889 61.2969 113.565C60.9446 113.236 60.7685 112.841 60.7685 112.381C60.7685 111.915 60.9446 111.52 61.2969 111.196C61.6491 110.866 62.0696 110.702 62.5582 110.702C63.0526 110.702 63.473 110.866 63.8196 111.196C64.1719 111.52 64.348 111.915 64.348 112.381C64.348 112.841 64.1719 113.236 63.8196 113.565C63.473 113.889 63.0526 114.051 62.5582 114.051ZM71.032 129.264C70.2024 129.264 69.4553 129.116 68.7905 128.821C68.1314 128.52 67.6087 128.077 67.2223 127.491C66.8416 126.906 66.6513 126.185 66.6513 125.327C66.6513 124.588 66.7876 123.977 67.0604 123.494C67.3331 123.011 67.7053 122.625 68.1768 122.335C68.6484 122.045 69.1797 121.827 69.7706 121.679C70.3672 121.526 70.9837 121.415 71.62 121.347C72.3871 121.267 73.0092 121.196 73.4865 121.134C73.9638 121.065 74.3104 120.963 74.5263 120.827C74.7479 120.685 74.8587 120.466 74.8587 120.17V120.119C74.8587 119.477 74.6683 118.98 74.2876 118.628C73.907 118.276 73.3587 118.099 72.6428 118.099C71.8871 118.099 71.2876 118.264 70.8445 118.594C70.407 118.923 70.1115 119.312 69.9581 119.761L67.0774 119.352C67.3047 118.557 67.6797 117.892 68.2024 117.358C68.7251 116.818 69.3643 116.415 70.12 116.148C70.8757 115.875 71.7109 115.739 72.6257 115.739C73.2564 115.739 73.8842 115.812 74.5092 115.96C75.1342 116.108 75.7053 116.352 76.2223 116.693C76.7393 117.028 77.1541 117.486 77.4666 118.065C77.7848 118.645 77.9439 119.369 77.9439 120.239V129H74.978V127.202H74.8757C74.6882 127.565 74.424 127.906 74.0831 128.224C73.7479 128.537 73.3246 128.79 72.8132 128.983C72.3075 129.17 71.7138 129.264 71.032 129.264ZM71.8331 126.997C72.4524 126.997 72.9893 126.875 73.4439 126.631C73.8984 126.381 74.2479 126.051 74.4922 125.642C74.7422 125.233 74.8672 124.787 74.8672 124.304V122.761C74.7706 122.841 74.6058 122.915 74.3729 122.983C74.1456 123.051 73.8899 123.111 73.6058 123.162C73.3217 123.213 73.0405 123.259 72.7621 123.298C72.4837 123.338 72.2422 123.372 72.0376 123.401C71.5774 123.463 71.1655 123.565 70.8018 123.707C70.4382 123.849 70.1513 124.048 69.9411 124.304C69.7308 124.554 69.6257 124.878 69.6257 125.276C69.6257 125.844 69.8331 126.273 70.2479 126.562C70.6626 126.852 71.1911 126.997 71.8331 126.997ZM86.3686 114.196V111.545H100.295V114.196H94.8999V129H91.7635V114.196H86.3686ZM101.484 129V115.909H104.475V118.091H104.612C104.85 117.335 105.259 116.753 105.839 116.344C106.424 115.929 107.092 115.722 107.842 115.722C108.012 115.722 108.202 115.73 108.413 115.747C108.629 115.759 108.808 115.778 108.95 115.807V118.645C108.819 118.599 108.612 118.56 108.327 118.526C108.049 118.486 107.779 118.466 107.518 118.466C106.955 118.466 106.45 118.588 106.001 118.832C105.558 119.071 105.208 119.403 104.952 119.83C104.697 120.256 104.569 120.747 104.569 121.304V129H101.484ZM114.532 129.264C113.702 129.264 112.955 129.116 112.29 128.821C111.631 128.52 111.109 128.077 110.722 127.491C110.342 126.906 110.151 126.185 110.151 125.327C110.151 124.588 110.288 123.977 110.56 123.494C110.833 123.011 111.205 122.625 111.677 122.335C112.148 122.045 112.68 121.827 113.271 121.679C113.867 121.526 114.484 121.415 115.12 121.347C115.887 121.267 116.509 121.196 116.987 121.134C117.464 121.065 117.81 120.963 118.026 120.827C118.248 120.685 118.359 120.466 118.359 120.17V120.119C118.359 119.477 118.168 118.98 117.788 118.628C117.407 118.276 116.859 118.099 116.143 118.099C115.387 118.099 114.788 118.264 114.344 118.594C113.907 118.923 113.612 119.312 113.458 119.761L110.577 119.352C110.805 118.557 111.18 117.892 111.702 117.358C112.225 116.818 112.864 116.415 113.62 116.148C114.376 115.875 115.211 115.739 116.126 115.739C116.756 115.739 117.384 115.812 118.009 115.96C118.634 116.108 119.205 116.352 119.722 116.693C120.239 117.028 120.654 117.486 120.967 118.065C121.285 118.645 121.444 119.369 121.444 120.239V129H118.478V127.202H118.376C118.188 127.565 117.924 127.906 117.583 128.224C117.248 128.537 116.825 128.79 116.313 128.983C115.808 129.17 115.214 129.264 114.532 129.264ZM115.333 126.997C115.952 126.997 116.489 126.875 116.944 126.631C117.398 126.381 117.748 126.051 117.992 125.642C118.242 125.233 118.367 124.787 118.367 124.304V122.761C118.271 122.841 118.106 122.915 117.873 122.983C117.646 123.051 117.39 123.111 117.106 123.162C116.822 123.213 116.54 123.259 116.262 123.298C115.984 123.338 115.742 123.372 115.538 123.401C115.077 123.463 114.665 123.565 114.302 123.707C113.938 123.849 113.651 124.048 113.441 124.304C113.231 124.554 113.126 124.878 113.126 125.276C113.126 125.844 113.333 126.273 113.748 126.562C114.163 126.852 114.691 126.997 115.333 126.997ZM135.771 115.909L131.109 129H127.7L123.038 115.909H126.327L129.336 125.634H129.472L132.489 115.909H135.771ZM143.256 129.256C141.943 129.256 140.81 128.983 139.855 128.438C138.906 127.886 138.176 127.108 137.665 126.102C137.153 125.091 136.898 123.901 136.898 122.531C136.898 121.185 137.153 120.003 137.665 118.986C138.182 117.963 138.903 117.168 139.83 116.599C140.756 116.026 141.844 115.739 143.094 115.739C143.901 115.739 144.662 115.869 145.378 116.131C146.099 116.386 146.736 116.784 147.287 117.324C147.844 117.864 148.281 118.551 148.599 119.386C148.918 120.216 149.077 121.205 149.077 122.352V123.298H138.347V121.219H146.119C146.114 120.628 145.986 120.102 145.736 119.642C145.486 119.176 145.136 118.81 144.688 118.543C144.244 118.276 143.727 118.142 143.136 118.142C142.506 118.142 141.952 118.295 141.474 118.602C140.997 118.903 140.625 119.301 140.358 119.795C140.097 120.284 139.963 120.821 139.957 121.406V123.222C139.957 123.983 140.097 124.636 140.375 125.182C140.653 125.722 141.043 126.136 141.543 126.426C142.043 126.71 142.628 126.852 143.298 126.852C143.747 126.852 144.153 126.79 144.517 126.665C144.881 126.534 145.196 126.344 145.463 126.094C145.73 125.844 145.932 125.534 146.068 125.165L148.949 125.489C148.767 126.25 148.42 126.915 147.909 127.483C147.403 128.045 146.756 128.483 145.966 128.795C145.176 129.102 144.273 129.256 143.256 129.256ZM154.772 111.545V129H151.687V111.545H154.772Z" fill="#03060E"/>
<path d="M5.05521 149.865L7.32615 156.008C7.57035 156.695 7.82456 157.51 7.99474 158.129H8.04726C8.23263 157.517 8.46252 156.721 8.71063 155.966L10.7669 149.865H12.7722L9.92816 157.268C8.58169 160.842 7.65568 162.661 6.3689 163.787C5.43421 164.595 4.51297 164.917 4.05126 165L3.58152 163.42C4.05646 163.271 4.67078 162.975 5.23732 162.497C5.74678 162.084 6.37931 161.352 6.81801 160.392C6.91352 160.193 6.9643 160.053 6.9643 159.936C6.9643 159.83 6.93349 159.68 6.83277 159.451L3 149.866H5.05521V149.865Z" fill="#666666"/>
<path d="M23.9003 154.962C23.9003 158.81 21.2301 160.494 18.7319 160.494C15.9132 160.494 13.7358 158.44 13.7358 155.141C13.7358 151.663 16.0222 149.629 18.8966 149.629C21.8848 149.629 23.9003 151.796 23.9003 154.962ZM15.6597 155.083C15.6597 157.362 16.966 159.078 18.81 159.078C20.6225 159.078 21.977 157.385 21.977 155.026C21.977 153.268 21.091 151.045 18.8443 151.045C16.6244 151.045 15.6597 153.112 15.6597 155.083Z" fill="#666666"/>
<path d="M34.9809 157.413C34.9809 158.503 35.0165 159.436 35.0668 160.258H33.3969L33.2962 158.558H33.2437C32.7646 159.394 31.666 160.494 29.8034 160.494C28.1773 160.494 26.2241 159.582 26.2241 155.939V149.865H28.1046V155.607C28.1046 157.587 28.7217 158.935 30.4276 158.935C31.6938 158.935 32.579 158.048 32.9285 157.2C33.0262 156.928 33.1002 156.59 33.1002 156.231V149.865H34.9806L34.9809 157.413Z" fill="#666666"/>
<path d="M38.127 153.102C38.127 151.875 38.0964 150.829 38.041 149.865H39.6977L39.7697 151.904H39.837C40.3222 150.509 41.4683 149.629 42.731 149.629C42.9357 149.629 43.0842 149.642 43.2567 149.682V151.46C43.0638 151.419 42.8734 151.405 42.6138 151.405C41.2816 151.405 40.3404 152.409 40.0838 153.823C40.035 154.088 40.0075 154.398 40.0075 154.705V160.258H38.127V153.102Z" fill="#666666"/>
<path d="M51.9821 146.873V149.865H54.6979V151.297H51.9821V156.898C51.9821 158.193 52.3549 158.924 53.4115 158.924C53.9015 158.924 54.2579 158.864 54.5066 158.787L54.593 160.223C54.226 160.368 53.6388 160.483 52.9045 160.483C52.0358 160.483 51.3142 160.197 50.8645 159.683C50.3437 159.109 50.1308 158.193 50.1308 156.972V151.296H48.521V149.865H50.1308V147.361L51.9821 146.873Z" fill="#666666"/>
<path d="M62.5889 160.258L62.4222 158.945H62.3658C61.7949 159.756 60.6743 160.494 59.1861 160.494C57.0866 160.494 56.0117 159.004 56.0117 157.512C56.0117 154.995 58.2428 153.612 62.2574 153.641V153.42C62.2574 152.575 62.02 151.011 59.8912 151.022C58.9241 151.022 57.9128 151.311 57.1837 151.797L56.7548 150.54C57.6157 149.985 58.8736 149.629 60.1851 149.629C63.3617 149.629 64.1364 151.801 64.1364 153.883V157.771C64.1364 158.659 64.1767 159.544 64.2933 160.258H62.5889ZM62.2948 154.951C60.2496 154.908 57.9078 155.275 57.9078 157.285C57.9078 158.525 58.724 159.094 59.6724 159.094C61.0408 159.094 61.9038 158.232 62.2051 157.354C62.2707 157.153 62.2948 156.939 62.2948 156.759V154.951Z" fill="#666666"/>
<path d="M76.1523 149.865C76.1002 150.599 76.0648 151.443 76.0648 152.709V158.744C76.0648 161.149 75.5738 162.591 74.5807 163.502C73.5598 164.438 72.1059 164.749 70.7946 164.749C69.5374 164.749 68.1694 164.455 67.3252 163.894L67.7991 162.44C68.4924 162.873 69.5612 163.272 70.8586 163.272C72.7877 163.272 74.2056 162.262 74.2056 159.63V158.472H74.1626C73.5948 159.448 72.4619 160.222 70.8599 160.222C68.2688 160.222 66.4287 158.019 66.4287 155.139C66.4287 151.615 68.7212 149.629 71.1211 149.629C72.9251 149.629 73.9006 150.557 74.3634 151.422H74.4064L74.4848 149.865L76.1523 149.865ZM74.186 153.953C74.186 153.643 74.1585 153.361 74.0814 153.107C73.733 152.006 72.82 151.096 71.4269 151.096C69.6237 151.096 68.3313 152.621 68.3313 155.036C68.3313 157.07 69.381 158.78 71.408 158.78C72.5813 158.78 73.6326 158.039 74.0374 156.831C74.1379 156.526 74.1863 156.156 74.1863 155.826V153.953H74.186Z" fill="#666666"/>
<path d="M79.1963 145H81.0768V160.257H79.1963V145Z" fill="#666666"/>
<path d="M86.3792 146.926C86.3809 147.569 85.9281 148.101 85.177 148.101C84.4933 148.101 84.0344 147.569 84.0361 146.926C84.0344 146.277 84.5189 145.75 85.2114 145.75C85.9168 145.75 86.3744 146.266 86.3792 146.926ZM84.2673 160.257V149.864H86.1478V160.257H84.2673Z" fill="#666666"/>
<path d="M89.2959 152.672C89.2959 151.588 89.2605 150.727 89.21 149.865H90.8798L90.984 151.574H91.0366C91.5476 150.598 92.7567 149.629 94.473 149.629C95.9007 149.629 98.1356 150.488 98.1356 154.058V160.258H96.2551V154.266C96.2551 152.586 95.6219 151.179 93.8528 151.179C92.6123 151.179 91.645 152.06 91.3062 153.118C91.2278 153.349 91.1761 153.684 91.1761 153.995V160.258H89.2957L89.2959 152.672Z" fill="#666666"/>
<path d="M102.28 155.403C102.317 157.958 103.938 159.011 105.836 159.011C107.189 159.011 108.016 158.768 108.715 158.479L109.046 159.821C108.385 160.123 107.23 160.483 105.579 160.483C102.385 160.483 100.465 158.356 100.465 155.238C100.465 152.089 102.32 149.629 105.355 149.629C108.745 149.629 109.632 152.604 109.632 154.517C109.632 154.914 109.609 155.198 109.567 155.403L102.28 155.403ZM107.812 154.043C107.83 152.852 107.324 150.983 105.205 150.983C103.275 150.983 102.454 152.727 102.303 154.043H107.812Z" fill="#666666"/>
<path d="M116.543 145H118.423V151.488H118.466C118.78 150.957 119.249 150.481 119.825 150.153C120.376 149.827 121.044 149.629 121.761 149.629C123.162 149.629 125.383 150.483 125.383 154.069V160.258H123.503V154.275C123.503 152.598 122.869 151.189 121.1 151.189C119.864 151.189 118.912 152.053 118.55 153.076C118.453 153.34 118.424 153.626 118.424 153.976V160.257H116.543L116.543 145Z" fill="#666666"/>
<path d="M129.528 155.403C129.565 157.958 131.186 159.011 133.084 159.011C134.437 159.011 135.264 158.768 135.963 158.479L136.294 159.821C135.633 160.123 134.478 160.483 132.827 160.483C129.633 160.483 127.713 158.356 127.713 155.238C127.713 152.089 129.568 149.629 132.603 149.629C135.993 149.629 136.88 152.604 136.88 154.517C136.88 154.914 136.857 155.198 136.815 155.403L129.528 155.403ZM135.06 154.043C135.078 152.852 134.572 150.983 132.453 150.983C130.523 150.983 129.701 152.727 129.551 154.043H135.06Z" fill="#666666"/>
<path d="M139.232 153.102C139.232 151.875 139.202 150.829 139.146 149.865H140.803L140.875 151.904H140.943C141.428 150.509 142.574 149.629 143.837 149.629C144.041 149.629 144.19 149.642 144.362 149.682V151.46C144.169 151.419 143.979 151.405 143.719 151.405C142.387 151.405 141.446 152.409 141.189 153.823C141.141 154.088 141.113 154.398 141.113 154.705V160.258H139.232V153.102Z" fill="#666666"/>
<path d="M147.32 155.403C147.357 157.958 148.978 159.011 150.876 159.011C152.229 159.011 153.056 158.768 153.755 158.479L154.086 159.821C153.425 160.123 152.27 160.483 150.619 160.483C147.425 160.483 145.505 158.356 145.505 155.238C145.505 152.089 147.36 149.629 150.395 149.629C153.785 149.629 154.672 152.604 154.672 154.517C154.672 154.914 154.649 155.198 154.607 155.403L147.32 155.403ZM152.852 154.043C152.87 152.852 152.364 150.983 150.245 150.983C148.315 150.983 147.493 152.727 147.343 154.043H152.852Z" fill="#666666"/>
</svg>
