<svg width="152" height="165" viewBox="0 0 152 165" fill="none" xmlns="http://www.w3.org/2000/svg">
<path d="M74.5576 39.796L78.8138 39.5L74.7481 39.5051C74.7555 39.5074 74.7632 39.5092 74.7706 39.5116C74.753 39.6446 74.6685 39.7335 74.5576 39.796Z" fill="#326653"/>
<path d="M97.5745 38.6873C97.1116 39.4539 96.4041 39.9351 95.6525 40.3451C95.3278 40.5242 95.2259 40.7277 95.2275 41.0555C95.229 41.6871 95.2184 42.3201 95.2215 42.9516C95.2215 43.2719 95.1364 43.4996 94.7599 43.4967C93.169 43.4815 91.5765 43.4709 89.9856 43.4527C89.9265 43.4527 89.8673 43.3904 89.7534 43.3282C90.0433 43.1476 90.2833 42.9805 90.5382 42.8439C91.4232 42.3703 91.8908 41.6477 91.8362 40.6366C91.8119 40.21 91.95 39.9489 92.3158 39.7045C95.6936 37.4516 95.5084 33.3665 93.6943 30.5262C92.7181 28.7714 91.2122 27.5143 89.6836 26.2848C86.8357 23.9925 83.5976 22.148 80.5341 20.1639C79.5792 19.5445 78.6699 18.8478 77.8745 18.0295C77.073 17.2037 76.5492 16.1972 75.8266 15.3349C75.6899 15.6158 75.5533 15.8997 75.3606 16.1486C75.1935 16.3657 74.9977 16.5569 74.8035 16.7483C72.8952 18.6216 70.9856 20.2899 68.7281 21.7382C66.5526 23.1347 64.2847 24.3948 62.208 25.9417C59.5923 27.8894 57.0329 30.4944 56.6579 33.8949C56.541 34.9484 57.6447 40.532 59.6728 39.3843C60.0691 39.1597 59.6728 38.8606 59.5787 38.6086C58.9001 36.7808 58.5524 34.8969 58.8424 32.9614C59.0565 31.5329 59.6439 30.1833 60.7916 29.2633C60.7869 29.8645 60.3528 30.3032 60.1419 30.8285C59.9142 31.3948 59.7654 32.0035 59.6637 32.6062C59.4679 33.7797 59.4876 34.991 59.7199 36.1584C59.8156 36.6365 59.9445 37.2575 60.1465 37.8253C60.1602 37.8177 60.1723 37.8116 60.186 37.804C60.1738 37.8131 60.1617 37.8222 60.1495 37.8314C60.2998 38.2549 60.4911 38.6482 60.74 38.9274C61.1149 39.3509 61.7314 39.4846 62.3189 39.5225L63.6684 39.5209L74.7487 39.5057C74.7564 39.5088 74.764 39.5103 74.7715 39.5133C74.7532 39.6454 74.6683 39.7349 74.5574 39.7971L64.983 40.4635L64.101 40.5243C63.6319 40.5562 63.1643 40.588 62.6967 40.6215C62.2414 40.6549 61.7858 40.6867 61.332 40.7217C60.9357 40.752 60.1373 40.6958 59.9187 41.1255C59.7047 41.543 60.1176 42.1927 60.4105 42.463C60.7293 42.7575 61.1316 42.9411 61.5354 43.1021C61.8891 43.2433 61.7191 43.471 61.4215 43.4725C59.905 43.4801 58.3899 43.4786 56.8749 43.4771C56.723 43.4771 56.5667 43.4756 56.4878 43.3071C56.2769 42.6148 56.4104 41.9059 56.4029 41.2061C56.3983 40.7492 56.2769 40.4547 55.8518 40.239C53.9117 39.2492 53.2103 37.5277 53.0373 35.4738C52.4756 28.8004 59.1248 23.9091 63.9431 20.5055C66.1808 18.9253 68.6189 17.6439 70.7775 15.9514C72.7585 14.3999 74.1961 12.4204 75.1267 10.078C75.2346 9.80627 75.3013 9.60134 75.315 9.44336H75.9799C76.0938 10.1067 76.8801 11.0495 77.0805 11.4305C77.4525 12.135 77.9079 12.8044 78.4042 13.4283C80.4915 16.0531 83.4958 17.7473 86.2314 19.6084C89.0855 21.55 91.9166 23.569 94.341 26.0419C95.8742 27.6055 97.3149 29.2906 98.042 31.3916C98.8937 33.8522 99 36.3327 97.5745 38.6873Z" fill="#374868"/>
<path fill-rule="evenodd" clip-rule="evenodd" d="M77.9118 0.766483C78.2407 0.971788 78.5445 1.21739 78.8088 1.4832C76.9642 0.432625 74.6225 0.975375 73.5159 2.74829C72.3841 4.5615 72.9822 6.98425 74.8491 8.14969C76.1067 8.93471 77.5975 8.95824 78.8014 8.34334C77.2501 9.8163 74.7907 10.0953 72.8464 8.88162C70.5344 7.43847 69.7993 4.45982 71.1976 2.21962C72.596 -0.0206996 75.5999 -0.676667 77.9118 0.766483Z" fill="#374868"/>
<path fill-rule="evenodd" clip-rule="evenodd" d="M76.9955 1.53711L77.7139 3.67458H80.0288L78.1473 4.99506L78.8657 7.13255L76.9955 5.80247L75.1254 7.13255L75.8438 4.99506L73.9736 3.67458H76.2885L76.9955 1.53711Z" fill="#CE9E32"/>
<path d="M112.423 50.2707C111.326 50.0132 110.213 49.9286 109.145 50.3793C106.595 51.455 104.06 52.5632 101.514 53.6459C97.8997 55.1828 94.2755 56.6961 90.6651 58.2422C86.0826 60.2047 81.5091 62.1882 76.9342 64.1684C76.5294 64.3436 76.1573 64.298 75.766 64.134C70.4686 61.9144 65.1761 59.6828 59.8683 57.4883C54.3506 55.2069 48.8133 52.9722 43.294 50.6941C42.1282 50.2129 40.9682 49.8847 39.6988 50.1575C39.1576 50.2739 38.6529 50.3779 38.6326 51.0985C38.6138 51.7671 38.9425 52.0664 39.5496 52.2899C41.9128 53.1599 44.2619 54.0696 46.5552 55.1148C48.6831 55.813 50.7126 56.7609 52.7867 57.5946C56.2667 58.9935 59.7166 60.4674 63.1811 61.9053C66.3163 63.2065 69.4543 64.5017 72.6012 65.8037C72.4884 66.1399 72.2524 66.2478 71.9876 66.3658C71.0462 66.7853 70.1135 67.2254 69.1859 67.6749C68.4493 68.0318 68.4266 68.1704 68.9237 68.8516C69.442 69.5619 69.3408 69.8886 68.516 70.1626C66.8885 70.703 65.3492 71.457 63.7689 72.1122C62.6595 72.5722 61.6877 73.3254 60.5045 73.622C60.3416 73.7359 60.1897 73.8716 60.0142 73.9605C58.4517 74.752 56.9341 75.6357 55.5715 76.725C53.6552 78.2569 51.6138 78.8807 49.2334 78.0605C49.0918 78.0118 48.9278 77.9479 48.8082 78.0798C48.6562 78.2473 48.777 78.4183 48.8695 78.56C49.2411 79.1289 49.7405 79.5248 50.4093 79.7078C51.6753 80.0545 52.94 80.0822 54.2334 79.8446C56.4513 79.4369 58.3122 78.2789 60.1354 77.0655C63.2744 74.9763 66.5619 73.2124 70.1715 72.0679C71.9182 71.514 73.7071 71.0135 75.0964 69.7007C75.2297 69.4901 75.3628 69.2797 75.4961 69.0692C75.4346 68.8035 75.4313 68.4976 75.0381 68.485C74.8863 68.4801 74.702 68.4402 74.7011 68.2584C74.7002 68.087 74.9063 68.0685 75.0246 67.9826C76.2494 67.0936 77.3597 67.5673 78.4608 68.224C78.425 68.4034 78.3127 68.448 78.1894 68.4855C77.5383 68.6829 77.4681 68.8719 77.8851 69.3832C78.2374 69.815 78.6586 70.1673 79.1394 70.4602C80.6786 71.3983 82.4205 71.8334 84.0972 72.3989C86.9064 73.3464 89.4596 74.755 91.9472 76.3247C93.9185 77.5685 95.8165 78.9589 98.1178 79.5799C99.6936 80.0607 101.269 80.1782 102.846 79.5821C102.846 79.582 102.846 79.582 102.846 79.582L102.849 79.5832C103.046 79.5262 103.244 79.4691 103.442 79.4121C104.018 79.0576 104.42 78.591 104.482 77.8636C101.427 78.5554 101.131 78.5478 99.0516 77.7338C98.9188 77.6616 98.7755 77.6036 98.6546 77.515C94.3025 74.3183 89.5038 71.9781 84.4639 70.0971C83.7853 69.8438 83.7168 69.5047 84.1755 68.8777C84.7176 68.1367 84.7266 68.0817 83.9046 67.6751C82.8902 67.1735 81.8482 66.7277 80.819 66.2559C80.6584 66.1823 80.4659 66.1105 80.4382 65.9192C80.4012 65.6635 80.6579 65.6905 80.8008 65.626C81.8089 65.171 82.8168 64.7151 83.8323 64.277C86.9056 62.9512 89.9788 61.6249 93.0591 60.3157C94.7923 59.5792 96.4872 58.749 98.278 58.1514C98.4484 58.0455 98.6083 57.9147 98.7905 57.8372C101.545 56.6665 104.299 55.4935 107.061 54.3408C108.826 53.6044 110.6 52.89 112.379 52.1878C112.893 51.9849 113.034 51.6075 113.041 51.1184C113.047 50.6802 112.826 50.3654 112.423 50.2707Z" fill="#374868"/>
<path d="M76.64 61.8153L105.731 49.5189C105.731 49.5189 103.505 42.2321 76.64 59.5382C76.64 59.5382 55.1184 44.3574 45.7676 49.0635L75.7495 61.8153H76.64Z" fill="#C09834"/>
<path d="M76.8884 49.3672H75.9775V59.9937H76.8884V49.3672Z" fill="#C09834"/>
<path d="M50.625 48.0013C51.6135 47.5041 52.6514 47.1062 53.7046 46.7591C54.7587 46.413 55.835 46.1323 56.9235 45.904C59.1019 45.4582 61.3358 45.2429 63.5704 45.305C65.8047 45.3589 68.0368 45.7033 70.1918 46.3242C72.3485 46.9434 74.4147 47.8665 76.3411 49.0147L76.1285 48.9556C76.3309 48.9535 76.5333 48.9545 76.7358 48.9561L76.4794 49.0457C76.7273 48.8571 76.956 48.7089 77.1992 48.5546C77.4404 48.4051 77.684 48.2612 77.9314 48.1258C78.4251 47.8531 78.9295 47.6035 79.4436 47.3777C80.4691 46.9203 81.528 46.5447 82.6074 46.2503C83.686 45.9531 84.7822 45.7275 85.8862 45.5642C86.9908 45.4029 88.1044 45.3234 89.2168 45.2901L90.0513 45.2773L90.8853 45.2927L91.3021 45.3022L91.7182 45.3262L92.5496 45.3801L93.3782 45.4623L93.7921 45.5044L94.2044 45.5604L95.0283 45.6726C95.3019 45.7165 95.5746 45.766 95.8472 45.8146C98.0273 46.2086 100.168 46.7879 102.239 47.5457C100.115 46.9567 97.9611 46.4883 95.7863 46.206L94.9711 46.1012L94.1535 46.0227L93.7449 45.9834L93.3353 45.9581L92.5165 45.9094C91.4239 45.8788 90.3312 45.855 89.2421 45.9237C88.1534 45.9856 87.0696 46.1019 85.9952 46.272C84.9221 46.4497 83.8602 46.6875 82.8194 46.9936C81.7799 47.3023 80.7563 47.6644 79.7722 48.1118C79.2787 48.3317 78.796 48.5742 78.3269 48.8369C78.0917 48.9672 77.8617 49.1052 77.6353 49.2471C77.4138 49.3886 77.1821 49.5435 76.9922 49.6895L76.8771 49.7782L76.7359 49.7792C76.5335 49.7808 76.3312 49.7818 76.1287 49.7797L76.012 49.7786L75.9161 49.7206C74.9846 49.1584 74.0196 48.6524 73.0275 48.2066C72.033 47.7658 71.0118 47.3864 69.9714 47.0674C67.8906 46.4254 65.725 46.0673 63.5445 45.9411C61.3628 45.8269 59.1634 45.9478 56.9951 46.2959C55.9096 46.4642 54.8336 46.6967 53.7682 46.9745C53.2356 47.1142 52.7066 47.2689 52.1819 47.4386C51.6569 47.6072 51.1347 47.7877 50.625 48.0013Z" fill="#B5A00C"/>
<path d="M93.5712 72.8398L86.2693 69.5697C86.1027 69.4952 86.0275 69.2979 86.1021 69.1314L86.1815 68.9538C86.2561 68.7873 86.4533 68.7121 86.6199 68.7866L93.9218 72.0567C94.0884 72.1313 94.1636 72.3285 94.089 72.495L94.0096 72.6726C93.935 72.8391 93.7378 72.9143 93.5712 72.8398Z" fill="#C09834"/>
<path d="M67.1721 69.497L59.9348 72.9079C59.7698 72.9857 59.571 72.9143 59.4933 72.7493L59.4104 72.5734C59.3326 72.4084 59.404 72.2096 59.569 72.1318L66.8062 68.7209C66.9713 68.6432 67.17 68.7145 67.2478 68.8795L67.3307 69.0554C67.4085 69.2206 67.3371 69.4192 67.1721 69.497Z" fill="#C09834"/>
<path d="M16.0575 129V111.545H27.2393V114.196H19.2195V118.935H26.4723V121.585H19.2195V129H16.0575ZM33.0689 111.545V129H29.9837V111.545H33.0689ZM38.1591 133.909C37.7386 133.909 37.3494 133.875 36.9915 133.807C36.6392 133.744 36.358 133.67 36.1477 133.585L36.8636 131.182C37.3125 131.313 37.7131 131.375 38.0653 131.369C38.4176 131.364 38.7273 131.253 38.9943 131.037C39.267 130.827 39.4972 130.474 39.6847 129.98L39.9489 129.273L35.2017 115.909H38.4744L41.4915 125.795H41.6278L44.6534 115.909H47.9347L42.6932 130.585C42.4489 131.278 42.125 131.872 41.7216 132.366C41.3182 132.866 40.8239 133.247 40.2386 133.509C39.6591 133.776 38.9659 133.909 38.1591 133.909ZM50.0696 129V115.909H53.1548V129H50.0696ZM51.6207 114.051C51.1321 114.051 50.7116 113.889 50.3594 113.565C50.0071 113.236 49.831 112.841 49.831 112.381C49.831 111.915 50.0071 111.52 50.3594 111.196C50.7116 110.866 51.1321 110.702 51.6207 110.702C52.1151 110.702 52.5355 110.866 52.8821 111.196C53.2344 111.52 53.4105 111.915 53.4105 112.381C53.4105 112.841 53.2344 113.236 52.8821 113.565C52.5355 113.889 52.1151 114.051 51.6207 114.051ZM59.4126 121.33V129H56.3274V115.909H59.2763V118.134H59.4297C59.7308 117.401 60.2109 116.818 60.87 116.386C61.5348 115.955 62.3558 115.739 63.3331 115.739C64.2365 115.739 65.0234 115.932 65.6939 116.318C66.37 116.705 66.8928 117.264 67.2621 117.997C67.6371 118.73 67.8217 119.619 67.8161 120.665V129H64.7308V121.142C64.7308 120.267 64.5036 119.582 64.049 119.088C63.6001 118.594 62.978 118.347 62.1825 118.347C61.6428 118.347 61.1626 118.466 60.7422 118.705C60.3274 118.937 60.0007 119.276 59.7621 119.719C59.5291 120.162 59.4126 120.699 59.4126 121.33ZM76.6456 134.182C75.5376 134.182 74.5859 134.031 73.7905 133.73C72.995 133.435 72.3558 133.037 71.8729 132.537C71.3899 132.037 71.0547 131.483 70.8672 130.875L73.6456 130.202C73.7706 130.457 73.9524 130.71 74.1911 130.96C74.4297 131.216 74.7507 131.426 75.1541 131.591C75.5632 131.761 76.0774 131.847 76.6967 131.847C77.5717 131.847 78.2962 131.634 78.87 131.207C79.4439 130.787 79.7308 130.094 79.7308 129.128V126.648H79.5774C79.4183 126.966 79.1854 127.293 78.8786 127.628C78.5774 127.963 78.1768 128.244 77.6768 128.472C77.1825 128.699 76.5604 128.812 75.8104 128.812C74.8047 128.812 73.8928 128.577 73.0746 128.105C72.2621 127.628 71.6143 126.918 71.1314 125.974C70.6541 125.026 70.4155 123.838 70.4155 122.412C70.4155 120.974 70.6541 119.761 71.1314 118.773C71.6143 117.778 72.2649 117.026 73.0831 116.514C73.9013 115.997 74.8132 115.739 75.8189 115.739C76.5859 115.739 77.2166 115.869 77.7109 116.131C78.2109 116.386 78.6087 116.696 78.9041 117.06C79.1996 117.418 79.424 117.756 79.5774 118.074H79.7479V115.909H82.7905V129.213C82.7905 130.332 82.5234 131.259 81.9893 131.991C81.4553 132.724 80.7251 133.273 79.799 133.636C78.8729 134 77.8217 134.182 76.6456 134.182ZM76.6712 126.392C77.3246 126.392 77.8814 126.233 78.3416 125.915C78.8018 125.597 79.1513 125.139 79.3899 124.543C79.6286 123.946 79.7479 123.23 79.7479 122.395C79.7479 121.571 79.6286 120.849 79.3899 120.23C79.157 119.611 78.8104 119.131 78.3501 118.79C77.8956 118.443 77.3359 118.27 76.6712 118.27C75.9837 118.27 75.4098 118.449 74.9496 118.807C74.4893 119.165 74.1428 119.656 73.9098 120.281C73.6768 120.901 73.5604 121.605 73.5604 122.395C73.5604 123.196 73.6768 123.898 73.9098 124.5C74.1484 125.097 74.4979 125.562 74.9581 125.898C75.424 126.227 75.995 126.392 76.6712 126.392ZM92.0419 129V111.545H98.7237C99.9851 111.545 101.033 111.744 101.869 112.142C102.71 112.534 103.337 113.071 103.752 113.753C104.173 114.435 104.383 115.207 104.383 116.071C104.383 116.781 104.246 117.389 103.974 117.895C103.701 118.395 103.335 118.801 102.874 119.114C102.414 119.426 101.9 119.651 101.332 119.787V119.957C101.951 119.991 102.545 120.182 103.113 120.528C103.687 120.869 104.156 121.352 104.519 121.977C104.883 122.602 105.065 123.358 105.065 124.244C105.065 125.148 104.846 125.96 104.408 126.682C103.971 127.398 103.312 127.963 102.431 128.378C101.55 128.793 100.442 129 99.1072 129H92.0419ZM95.2038 126.358H98.6044C99.7521 126.358 100.579 126.139 101.085 125.702C101.596 125.259 101.852 124.69 101.852 123.997C101.852 123.48 101.724 123.014 101.468 122.599C101.212 122.179 100.849 121.849 100.377 121.611C99.9055 121.366 99.343 121.244 98.6896 121.244H95.2038V126.358ZM95.2038 118.969H98.3317C98.8771 118.969 99.3686 118.869 99.8061 118.67C100.244 118.466 100.587 118.179 100.837 117.81C101.093 117.435 101.221 116.991 101.221 116.48C101.221 115.804 100.982 115.247 100.505 114.81C100.033 114.372 99.3317 114.153 98.3999 114.153H95.2038V118.969ZM107.679 129V115.909H110.764V129H107.679ZM109.23 114.051C108.741 114.051 108.321 113.889 107.969 113.565C107.616 113.236 107.44 112.841 107.44 112.381C107.44 111.915 107.616 111.52 107.969 111.196C108.321 110.866 108.741 110.702 109.23 110.702C109.724 110.702 110.145 110.866 110.491 111.196C110.844 111.52 111.02 111.915 111.02 112.381C111.02 112.841 110.844 113.236 110.491 113.565C110.145 113.889 109.724 114.051 109.23 114.051ZM113.937 129V115.909H116.928V118.091H117.065C117.303 117.335 117.712 116.753 118.292 116.344C118.877 115.929 119.545 115.722 120.295 115.722C120.465 115.722 120.656 115.73 120.866 115.747C121.082 115.759 121.261 115.778 121.403 115.807V118.645C121.272 118.599 121.065 118.56 120.781 118.526C120.502 118.486 120.232 118.466 119.971 118.466C119.408 118.466 118.903 118.588 118.454 118.832C118.011 119.071 117.661 119.403 117.406 119.83C117.15 120.256 117.022 120.747 117.022 121.304V129H113.937ZM127.771 129.23C126.743 129.23 125.822 128.966 125.01 128.438C124.197 127.909 123.555 127.142 123.084 126.136C122.612 125.131 122.376 123.909 122.376 122.472C122.376 121.017 122.615 119.79 123.092 118.79C123.575 117.784 124.226 117.026 125.044 116.514C125.862 115.997 126.774 115.739 127.78 115.739C128.547 115.739 129.178 115.869 129.672 116.131C130.166 116.386 130.558 116.696 130.848 117.06C131.138 117.418 131.362 117.756 131.521 118.074H131.649V111.545H134.743V129H131.709V126.938H131.521C131.362 127.256 131.132 127.594 130.831 127.952C130.53 128.304 130.132 128.605 129.638 128.855C129.143 129.105 128.521 129.23 127.771 129.23ZM128.632 126.699C129.286 126.699 129.842 126.523 130.303 126.17C130.763 125.812 131.112 125.315 131.351 124.679C131.589 124.043 131.709 123.301 131.709 122.455C131.709 121.608 131.589 120.872 131.351 120.247C131.118 119.622 130.771 119.136 130.311 118.79C129.857 118.443 129.297 118.27 128.632 118.27C127.945 118.27 127.371 118.449 126.911 118.807C126.45 119.165 126.104 119.659 125.871 120.29C125.638 120.92 125.521 121.642 125.521 122.455C125.521 123.273 125.638 124.003 125.871 124.645C126.109 125.281 126.459 125.784 126.919 126.153C127.385 126.517 127.956 126.699 128.632 126.699Z" fill="#03060E"/>
<path d="M2.05521 149.865L4.32615 156.008C4.57035 156.695 4.82456 157.51 4.99474 158.129H5.04726C5.23263 157.517 5.46252 156.721 5.71063 155.966L7.76692 149.865H9.77217L6.92816 157.268C5.58169 160.842 4.65568 162.661 3.3689 163.787C2.43421 164.595 1.51297 164.917 1.05126 165L0.581516 163.42C1.05646 163.271 1.67078 162.975 2.23732 162.497C2.74678 162.084 3.37931 161.352 3.81801 160.392C3.91352 160.193 3.9643 160.053 3.9643 159.936C3.9643 159.83 3.93349 159.68 3.83277 159.451L0 149.866H2.05521V149.865Z" fill="#666666"/>
<path d="M20.9008 154.962C20.9008 158.81 18.2306 160.494 15.7324 160.494C12.9137 160.494 10.7363 158.44 10.7363 155.141C10.7363 151.663 13.0227 149.629 15.8971 149.629C18.8853 149.629 20.9008 151.796 20.9008 154.962ZM12.6602 155.083C12.6602 157.362 13.9665 159.078 15.8105 159.078C17.623 159.078 18.9775 157.385 18.9775 155.026C18.9775 153.268 18.0915 151.045 15.8448 151.045C13.6248 151.045 12.6602 153.112 12.6602 155.083Z" fill="#666666"/>
<path d="M31.9813 157.413C31.9813 158.503 32.0169 159.436 32.0673 160.258H30.3974L30.2967 158.558H30.2442C29.7651 159.394 28.6665 160.494 26.8038 160.494C25.1778 160.494 23.2246 159.582 23.2246 155.939V149.865H25.1051V155.607C25.1051 157.587 25.7222 158.935 27.4281 158.935C28.6943 158.935 29.5795 158.048 29.929 157.2C30.0267 156.928 30.1007 156.59 30.1007 156.231V149.865H31.9811L31.9813 157.413Z" fill="#666666"/>
<path d="M35.127 153.102C35.127 151.875 35.0964 150.829 35.041 149.865H36.6977L36.7697 151.904H36.837C37.3222 150.509 38.4683 149.629 39.731 149.629C39.9357 149.629 40.0842 149.642 40.2567 149.682V151.46C40.0638 151.419 39.8734 151.405 39.6138 151.405C38.2816 151.405 37.3404 152.409 37.0838 153.823C37.035 154.088 37.0075 154.398 37.0075 154.705V160.258H35.127V153.102Z" fill="#666666"/>
<path d="M48.9816 146.873V149.865H51.6974V151.297H48.9816V156.898C48.9816 158.193 49.3544 158.924 50.4111 158.924C50.901 158.924 51.2574 158.864 51.5062 158.787L51.5926 160.223C51.2255 160.368 50.6383 160.483 49.904 160.483C49.0353 160.483 48.3137 160.197 47.864 159.683C47.3432 159.109 47.1303 158.193 47.1303 156.972V151.296H45.5205V149.865H47.1303V147.361L48.9816 146.873Z" fill="#666666"/>
<path d="M59.5889 160.258L59.4222 158.945H59.3658C58.7949 159.756 57.6743 160.494 56.1861 160.494C54.0866 160.494 53.0117 159.004 53.0117 157.512C53.0117 154.995 55.2428 153.612 59.2574 153.641V153.42C59.2574 152.575 59.02 151.011 56.8912 151.022C55.9241 151.022 54.9128 151.311 54.1837 151.797L53.7548 150.54C54.6157 149.985 55.8736 149.629 57.1851 149.629C60.3617 149.629 61.1364 151.801 61.1364 153.883V157.771C61.1364 158.659 61.1767 159.544 61.2933 160.258H59.5889ZM59.2948 154.951C57.2496 154.908 54.9078 155.275 54.9078 157.285C54.9078 158.525 55.724 159.094 56.6724 159.094C58.0408 159.094 58.9038 158.232 59.2051 157.354C59.2707 157.153 59.2948 156.939 59.2948 156.759V154.951Z" fill="#666666"/>
<path d="M73.1523 149.865C73.1002 150.599 73.0648 151.443 73.0648 152.709V158.744C73.0648 161.149 72.5738 162.591 71.5807 163.502C70.5598 164.438 69.1059 164.749 67.7946 164.749C66.5374 164.749 65.1694 164.455 64.3252 163.894L64.7991 162.44C65.4924 162.873 66.5612 163.272 67.8586 163.272C69.7877 163.272 71.2056 162.262 71.2056 159.63V158.472H71.1626C70.5948 159.448 69.4619 160.222 67.8599 160.222C65.2688 160.222 63.4287 158.019 63.4287 155.139C63.4287 151.615 65.7212 149.629 68.1211 149.629C69.9251 149.629 70.9006 150.557 71.3634 151.422H71.4064L71.4848 149.865L73.1523 149.865ZM71.186 153.953C71.186 153.643 71.1585 153.361 71.0814 153.107C70.733 152.006 69.82 151.096 68.4269 151.096C66.6237 151.096 65.3313 152.621 65.3313 155.036C65.3313 157.07 66.381 158.78 68.408 158.78C69.5813 158.78 70.6326 158.039 71.0374 156.831C71.1379 156.526 71.1863 156.156 71.1863 155.826V153.953H71.186Z" fill="#666666"/>
<path d="M76.1963 145H78.0768V160.257H76.1963V145Z" fill="#666666"/>
<path d="M83.3792 146.926C83.3809 147.569 82.9281 148.101 82.177 148.101C81.4933 148.101 81.0344 147.569 81.0361 146.926C81.0344 146.277 81.5189 145.75 82.2114 145.75C82.9168 145.75 83.3744 146.266 83.3792 146.926ZM81.2673 160.257V149.864H83.1478V160.257H81.2673Z" fill="#666666"/>
<path d="M86.2959 152.672C86.2959 151.588 86.2605 150.727 86.21 149.865H87.8798L87.984 151.574H88.0366C88.5476 150.598 89.7567 149.629 91.473 149.629C92.9007 149.629 95.1356 150.488 95.1356 154.058V160.258H93.2551V154.266C93.2551 152.586 92.6219 151.179 90.8528 151.179C89.6123 151.179 88.645 152.06 88.3062 153.118C88.2278 153.349 88.1761 153.684 88.1761 153.995V160.258H86.2957L86.2959 152.672Z" fill="#666666"/>
<path d="M99.2798 155.403C99.3169 157.958 100.938 159.011 102.836 159.011C104.189 159.011 105.016 158.768 105.715 158.479L106.046 159.821C105.385 160.123 104.23 160.483 102.579 160.483C99.3853 160.483 97.4648 158.356 97.4648 155.238C97.4648 152.089 99.3201 149.629 102.355 149.629C105.745 149.629 106.632 152.604 106.632 154.517C106.632 154.914 106.609 155.198 106.567 155.403L99.2798 155.403ZM104.812 154.043C104.83 152.852 104.324 150.983 102.205 150.983C100.275 150.983 99.4536 152.727 99.303 154.043H104.812Z" fill="#666666"/>
<path d="M113.543 145H115.423V151.488H115.466C115.78 150.957 116.249 150.481 116.825 150.153C117.376 149.827 118.044 149.629 118.761 149.629C120.162 149.629 122.383 150.483 122.383 154.069V160.258H120.503V154.275C120.503 152.598 119.869 151.189 118.1 151.189C116.864 151.189 115.912 152.053 115.55 153.076C115.453 153.34 115.424 153.626 115.424 153.976V160.257H113.543L113.543 145Z" fill="#666666"/>
<path d="M126.528 155.403C126.565 157.958 128.186 159.011 130.084 159.011C131.437 159.011 132.264 158.768 132.963 158.479L133.294 159.821C132.633 160.123 131.478 160.483 129.827 160.483C126.633 160.483 124.713 158.356 124.713 155.238C124.713 152.089 126.568 149.629 129.603 149.629C132.993 149.629 133.88 152.604 133.88 154.517C133.88 154.914 133.857 155.198 133.815 155.403L126.528 155.403ZM132.06 154.043C132.078 152.852 131.572 150.983 129.453 150.983C127.523 150.983 126.701 152.727 126.551 154.043H132.06Z" fill="#666666"/>
<path d="M136.232 153.102C136.232 151.875 136.202 150.829 136.146 149.865H137.803L137.875 151.904H137.943C138.428 150.509 139.574 149.629 140.837 149.629C141.041 149.629 141.19 149.642 141.362 149.682V151.46C141.169 151.419 140.979 151.405 140.719 151.405C139.387 151.405 138.446 152.409 138.189 153.823C138.141 154.088 138.113 154.398 138.113 154.705V160.258H136.232V153.102Z" fill="#666666"/>
<path d="M144.32 155.403C144.357 157.958 145.978 159.011 147.876 159.011C149.229 159.011 150.056 158.768 150.755 158.479L151.086 159.821C150.425 160.123 149.27 160.483 147.619 160.483C144.425 160.483 142.505 158.356 142.505 155.238C142.505 152.089 144.36 149.629 147.395 149.629C150.785 149.629 151.672 152.604 151.672 154.517C151.672 154.914 151.649 155.198 151.607 155.403L144.32 155.403ZM149.852 154.043C149.87 152.852 149.364 150.983 147.245 150.983C145.315 150.983 144.493 152.727 144.343 154.043H149.852Z" fill="#666666"/>
</svg>
