<svg width="153" height="165" viewBox="0 0 153 165" fill="none" xmlns="http://www.w3.org/2000/svg">
<path fill-rule="evenodd" clip-rule="evenodd" d="M72.9383 0.0578862L76.3197 2.49368L79.7959 0L78.3928 4.00978L81.7742 6.44557L77.5332 6.46297L76.1576 10.4747L74.9339 6.49114L70.7031 6.52285L74.1792 4.02917L72.9383 0.0578862Z" fill="#FFD54F"/>
<path fill-rule="evenodd" clip-rule="evenodd" d="M82.9116 49.0076C82.9116 45.365 82.9116 42.4633 82.9116 38.8204H69.761C69.761 42.4633 69.761 45.365 69.761 49.0076C72.2307 51.2301 74.1446 54.379 75.256 57.7131C75.0089 57.8982 74.8237 58.1453 74.8237 58.516C74.8237 59.0713 75.256 59.5037 75.7498 59.5037V57.5278V47.4641C75.1323 47.279 74.6385 46.7231 74.6385 45.8587C74.6385 45.0564 75.3794 44.192 76.3672 44.192C77.2933 44.192 78.0343 45.0564 78.0343 45.8587C78.0343 46.7231 77.5403 47.279 76.9229 47.4641V57.5278V59.5037C77.4169 59.5037 77.8488 59.0714 77.8488 58.516C77.8488 58.1453 77.6639 57.8982 77.4168 57.7131C78.5282 54.379 80.4421 51.2301 82.9116 49.0076ZM107.731 44.9328C95.0745 48.5751 81.9238 57.2188 76.3054 68.3323C70.7487 57.2188 57.598 48.5751 44.9413 44.9328V31.7818H63.3399L76.3054 18.7546L89.3325 31.7818H107.731V44.9328ZM76.3054 71.0489C84.8255 59.3798 101.31 51.1067 116.437 49.7485L114.214 47.526V25.2991H92.0493L76.3054 9.61719L60.6234 25.2991H38.4586V47.5258L36.2358 49.7484C51.3622 51.1067 67.9087 59.5036 76.3054 71.0489ZM67.8469 34.8688H84.8254V37.7708H67.8469V34.8688Z" fill="#FFD54F"/>
<path fill-rule="evenodd" clip-rule="evenodd" d="M81.6151 74.6293V77.9012C81.6151 79.0744 80.6275 80.0006 79.4543 80.0006H73.2184C72.0454 80.0006 71.0575 79.0746 71.0575 77.9012V74.6293C61.179 65.8621 47.8432 59.8735 35.6802 59.441L31.9139 63.2071L38.4587 78.8894L22.7764 63.2071L33.087 52.8965C49.51 53.4524 69.2671 63.3306 76.3054 77.284C83.4056 63.3307 103.163 53.4524 119.585 52.8965L129.896 63.2071L114.214 78.8894L120.759 63.2071L116.993 59.441C104.83 59.8733 91.4937 65.8621 81.6151 74.6293Z" fill="#374868"/>
<path d="M2.29048 114.196V111.545H16.2166V114.196H10.8217V129H7.68537V114.196H2.29048ZM25.3274 123.494V115.909H28.4126V129H25.4212V126.673H25.2848C24.9893 127.406 24.5036 128.006 23.8274 128.472C23.157 128.937 22.3303 129.17 21.3473 129.17C20.4893 129.17 19.7308 128.98 19.0717 128.599C18.4183 128.213 17.907 127.653 17.5376 126.92C17.1683 126.182 16.9837 125.29 16.9837 124.244V115.909H20.0689V123.767C20.0689 124.597 20.2962 125.256 20.7507 125.744C21.2053 126.233 21.8018 126.477 22.5405 126.477C22.995 126.477 23.4354 126.366 23.8615 126.145C24.2876 125.923 24.6371 125.594 24.9098 125.156C25.1882 124.713 25.3274 124.159 25.3274 123.494ZM31.5852 129V115.909H34.5767V118.091H34.7131C34.9517 117.335 35.3608 116.753 35.9403 116.344C36.5256 115.929 37.1932 115.722 37.9432 115.722C38.1136 115.722 38.304 115.73 38.5142 115.747C38.7301 115.759 38.9091 115.778 39.0511 115.807V118.645C38.9205 118.599 38.7131 118.56 38.429 118.526C38.1506 118.486 37.8807 118.466 37.6193 118.466C37.0568 118.466 36.5511 118.588 36.1023 118.832C35.6591 119.071 35.3097 119.403 35.054 119.83C34.7983 120.256 34.6705 120.747 34.6705 121.304V129H31.5852ZM43.9134 124.892L43.9048 121.168H44.3991L49.1037 115.909H52.7088L46.9219 122.352H46.2827L43.9134 124.892ZM41.1009 129V111.545H44.1861V129H41.1009ZM49.3168 129L45.0554 123.043L47.1349 120.869L53.0071 129H49.3168ZM60.0213 129.256C58.7088 129.256 57.5753 128.983 56.6207 128.438C55.6719 127.886 54.9418 127.108 54.4304 126.102C53.919 125.091 53.6634 123.901 53.6634 122.531C53.6634 121.185 53.919 120.003 54.4304 118.986C54.9474 117.963 55.669 117.168 56.5952 116.599C57.5213 116.026 58.6094 115.739 59.8594 115.739C60.6662 115.739 61.4276 115.869 62.1435 116.131C62.8651 116.386 63.5014 116.784 64.0526 117.324C64.6094 117.864 65.0469 118.551 65.3651 119.386C65.6832 120.216 65.8423 121.205 65.8423 122.352V123.298H55.1122V121.219H62.8849C62.8793 120.628 62.7514 120.102 62.5014 119.642C62.2514 119.176 61.902 118.81 61.4531 118.543C61.0099 118.276 60.4929 118.142 59.902 118.142C59.2713 118.142 58.7173 118.295 58.2401 118.602C57.7628 118.903 57.3906 119.301 57.1236 119.795C56.8622 120.284 56.7287 120.821 56.723 121.406V123.222C56.723 123.983 56.8622 124.636 57.1406 125.182C57.419 125.722 57.8082 126.136 58.3082 126.426C58.8082 126.71 59.3935 126.852 60.0639 126.852C60.5128 126.852 60.919 126.79 61.2827 126.665C61.6463 126.534 61.9616 126.344 62.2287 126.094C62.4957 125.844 62.6974 125.534 62.8338 125.165L65.7145 125.489C65.5327 126.25 65.1861 126.915 64.6747 127.483C64.169 128.045 63.5213 128.483 62.7315 128.795C61.9418 129.102 61.0384 129.256 60.0213 129.256ZM69.995 133.909C69.5746 133.909 69.1854 133.875 68.8274 133.807C68.4751 133.744 68.1939 133.67 67.9837 133.585L68.6996 131.182C69.1484 131.313 69.549 131.375 69.9013 131.369C70.2536 131.364 70.5632 131.253 70.8303 131.037C71.103 130.827 71.3331 130.474 71.5206 129.98L71.7848 129.273L67.0376 115.909H70.3104L73.3274 125.795H73.4638L76.4893 115.909H79.7706L74.5291 130.585C74.2848 131.278 73.9609 131.872 73.5575 132.366C73.1541 132.866 72.6598 133.247 72.0746 133.509C71.495 133.776 70.8018 133.909 69.995 133.909ZM80.4545 114.196V111.545H94.3807V114.196H88.9858V129H85.8494V114.196H80.4545ZM95.5696 129V115.909H98.5611V118.091H98.6974C98.9361 117.335 99.3452 116.753 99.9247 116.344C100.51 115.929 101.178 115.722 101.928 115.722C102.098 115.722 102.288 115.73 102.499 115.747C102.714 115.759 102.893 115.778 103.036 115.807V118.645C102.905 118.599 102.697 118.56 102.413 118.526C102.135 118.486 101.865 118.466 101.604 118.466C101.041 118.466 100.536 118.588 100.087 118.832C99.6435 119.071 99.294 119.403 99.0384 119.83C98.7827 120.256 98.6548 120.747 98.6548 121.304V129H95.5696ZM108.618 129.264C107.788 129.264 107.041 129.116 106.376 128.821C105.717 128.52 105.195 128.077 104.808 127.491C104.428 126.906 104.237 126.185 104.237 125.327C104.237 124.588 104.374 123.977 104.646 123.494C104.919 123.011 105.291 122.625 105.763 122.335C106.234 122.045 106.766 121.827 107.357 121.679C107.953 121.526 108.57 121.415 109.206 121.347C109.973 121.267 110.595 121.196 111.072 121.134C111.55 121.065 111.896 120.963 112.112 120.827C112.334 120.685 112.445 120.466 112.445 120.17V120.119C112.445 119.477 112.254 118.98 111.874 118.628C111.493 118.276 110.945 118.099 110.229 118.099C109.473 118.099 108.874 118.264 108.43 118.594C107.993 118.923 107.697 119.312 107.544 119.761L104.663 119.352C104.891 118.557 105.266 117.892 105.788 117.358C106.311 116.818 106.95 116.415 107.706 116.148C108.462 115.875 109.297 115.739 110.212 115.739C110.842 115.739 111.47 115.812 112.095 115.96C112.72 116.108 113.291 116.352 113.808 116.693C114.325 117.028 114.74 117.486 115.053 118.065C115.371 118.645 115.53 119.369 115.53 120.239V129H112.564V127.202H112.462C112.274 127.565 112.01 127.906 111.669 128.224C111.334 128.537 110.911 128.79 110.399 128.983C109.893 129.17 109.3 129.264 108.618 129.264ZM109.419 126.997C110.038 126.997 110.575 126.875 111.03 126.631C111.484 126.381 111.834 126.051 112.078 125.642C112.328 125.233 112.453 124.787 112.453 124.304V122.761C112.357 122.841 112.192 122.915 111.959 122.983C111.732 123.051 111.476 123.111 111.192 123.162C110.908 123.213 110.626 123.259 110.348 123.298C110.07 123.338 109.828 123.372 109.624 123.401C109.163 123.463 108.751 123.565 108.388 123.707C108.024 123.849 107.737 124.048 107.527 124.304C107.317 124.554 107.212 124.878 107.212 125.276C107.212 125.844 107.419 126.273 107.834 126.562C108.249 126.852 108.777 126.997 109.419 126.997ZM129.857 115.909L125.195 129H121.786L117.124 115.909H120.413L123.422 125.634H123.558L126.575 115.909H129.857ZM137.342 129.256C136.029 129.256 134.896 128.983 133.941 128.438C132.992 127.886 132.262 127.108 131.751 126.102C131.239 125.091 130.984 123.901 130.984 122.531C130.984 121.185 131.239 120.003 131.751 118.986C132.268 117.963 132.989 117.168 133.915 116.599C134.842 116.026 135.93 115.739 137.18 115.739C137.987 115.739 138.748 115.869 139.464 116.131C140.185 116.386 140.822 116.784 141.373 117.324C141.93 117.864 142.367 118.551 142.685 119.386C143.004 120.216 143.163 121.205 143.163 122.352V123.298H132.433V121.219H140.205C140.2 120.628 140.072 120.102 139.822 119.642C139.572 119.176 139.222 118.81 138.773 118.543C138.33 118.276 137.813 118.142 137.222 118.142C136.592 118.142 136.038 118.295 135.56 118.602C135.083 118.903 134.711 119.301 134.444 119.795C134.183 120.284 134.049 120.821 134.043 121.406V123.222C134.043 123.983 134.183 124.636 134.461 125.182C134.739 125.722 135.129 126.136 135.629 126.426C136.129 126.71 136.714 126.852 137.384 126.852C137.833 126.852 138.239 126.79 138.603 126.665C138.967 126.534 139.282 126.344 139.549 126.094C139.816 125.844 140.018 125.534 140.154 125.165L143.035 125.489C142.853 126.25 142.506 126.915 141.995 127.483C141.489 128.045 140.842 128.483 140.052 128.795C139.262 129.102 138.359 129.256 137.342 129.256ZM148.858 111.545V129H145.773V111.545H148.858Z" fill="#03060E"/>
<path d="M2.55521 149.865L4.82615 156.008C5.07035 156.695 5.32456 157.51 5.49474 158.129H5.54726C5.73263 157.517 5.96252 156.721 6.21063 155.966L8.26692 149.865H10.2722L7.42816 157.268C6.08169 160.842 5.15568 162.661 3.8689 163.787C2.93421 164.595 2.01297 164.917 1.55126 165L1.08152 163.42C1.55646 163.271 2.17078 162.975 2.73732 162.497C3.24678 162.084 3.87931 161.352 4.31801 160.392C4.41352 160.193 4.4643 160.053 4.4643 159.936C4.4643 159.83 4.43349 159.68 4.33277 159.451L0.5 149.866H2.55521V149.865Z" fill="#666666"/>
<path d="M21.4003 154.962C21.4003 158.81 18.7301 160.494 16.2319 160.494C13.4132 160.494 11.2358 158.44 11.2358 155.141C11.2358 151.663 13.5222 149.629 16.3966 149.629C19.3848 149.629 21.4003 151.796 21.4003 154.962ZM13.1597 155.083C13.1597 157.362 14.466 159.078 16.31 159.078C18.1225 159.078 19.477 157.385 19.477 155.026C19.477 153.268 18.591 151.045 16.3443 151.045C14.1244 151.045 13.1597 153.112 13.1597 155.083Z" fill="#666666"/>
<path d="M32.4809 157.413C32.4809 158.503 32.5165 159.436 32.5668 160.258H30.8969L30.7962 158.558H30.7437C30.2646 159.394 29.166 160.494 27.3034 160.494C25.6773 160.494 23.7241 159.582 23.7241 155.939V149.865H25.6046V155.607C25.6046 157.587 26.2217 158.935 27.9276 158.935C29.1938 158.935 30.079 158.048 30.4285 157.2C30.5262 156.928 30.6002 156.59 30.6002 156.231V149.865H32.4806L32.4809 157.413Z" fill="#666666"/>
<path d="M35.627 153.102C35.627 151.875 35.5964 150.829 35.541 149.865H37.1977L37.2697 151.904H37.337C37.8222 150.509 38.9683 149.629 40.231 149.629C40.4357 149.629 40.5842 149.642 40.7567 149.682V151.46C40.5638 151.419 40.3734 151.405 40.1138 151.405C38.7816 151.405 37.8404 152.409 37.5838 153.823C37.535 154.088 37.5075 154.398 37.5075 154.705V160.258H35.627V153.102Z" fill="#666666"/>
<path d="M49.4821 146.873V149.865H52.1979V151.297H49.4821V156.898C49.4821 158.193 49.8549 158.924 50.9115 158.924C51.4015 158.924 51.7579 158.864 52.0066 158.787L52.093 160.223C51.726 160.368 51.1388 160.483 50.4045 160.483C49.5358 160.483 48.8142 160.197 48.3645 159.683C47.8437 159.109 47.6308 158.193 47.6308 156.972V151.296H46.021V149.865H47.6308V147.361L49.4821 146.873Z" fill="#666666"/>
<path d="M60.0889 160.258L59.9222 158.945H59.8658C59.2949 159.756 58.1743 160.494 56.6861 160.494C54.5866 160.494 53.5117 159.004 53.5117 157.512C53.5117 154.995 55.7428 153.612 59.7574 153.641V153.42C59.7574 152.575 59.52 151.011 57.3912 151.022C56.4241 151.022 55.4128 151.311 54.6837 151.797L54.2548 150.54C55.1157 149.985 56.3736 149.629 57.6851 149.629C60.8617 149.629 61.6364 151.801 61.6364 153.883V157.771C61.6364 158.659 61.6767 159.544 61.7933 160.258H60.0889ZM59.7948 154.951C57.7496 154.908 55.4078 155.275 55.4078 157.285C55.4078 158.525 56.224 159.094 57.1724 159.094C58.5408 159.094 59.4038 158.232 59.7051 157.354C59.7707 157.153 59.7948 156.939 59.7948 156.759V154.951Z" fill="#666666"/>
<path d="M73.6523 149.865C73.6002 150.599 73.5648 151.443 73.5648 152.709V158.744C73.5648 161.149 73.0738 162.591 72.0807 163.502C71.0598 164.438 69.6059 164.749 68.2946 164.749C67.0374 164.749 65.6694 164.455 64.8252 163.894L65.2991 162.44C65.9924 162.873 67.0612 163.272 68.3586 163.272C70.2877 163.272 71.7056 162.262 71.7056 159.63V158.472H71.6626C71.0948 159.448 69.9619 160.222 68.3599 160.222C65.7688 160.222 63.9287 158.019 63.9287 155.139C63.9287 151.615 66.2212 149.629 68.6211 149.629C70.4251 149.629 71.4006 150.557 71.8634 151.422H71.9064L71.9848 149.865L73.6523 149.865ZM71.686 153.953C71.686 153.643 71.6585 153.361 71.5814 153.107C71.233 152.006 70.32 151.096 68.9269 151.096C67.1237 151.096 65.8313 152.621 65.8313 155.036C65.8313 157.07 66.881 158.78 68.908 158.78C70.0813 158.78 71.1326 158.039 71.5374 156.831C71.6379 156.526 71.6863 156.156 71.6863 155.826V153.953H71.686Z" fill="#666666"/>
<path d="M76.6963 145H78.5768V160.257H76.6963V145Z" fill="#666666"/>
<path d="M83.8792 146.926C83.8809 147.569 83.4281 148.101 82.677 148.101C81.9933 148.101 81.5344 147.569 81.5361 146.926C81.5344 146.277 82.0189 145.75 82.7114 145.75C83.4168 145.75 83.8744 146.266 83.8792 146.926ZM81.7673 160.257V149.864H83.6478V160.257H81.7673Z" fill="#666666"/>
<path d="M86.7959 152.672C86.7959 151.588 86.7605 150.727 86.71 149.865H88.3798L88.484 151.574H88.5366C89.0476 150.598 90.2567 149.629 91.973 149.629C93.4007 149.629 95.6356 150.488 95.6356 154.058V160.258H93.7551V154.266C93.7551 152.586 93.1219 151.179 91.3528 151.179C90.1123 151.179 89.145 152.06 88.8062 153.118C88.7278 153.349 88.6761 153.684 88.6761 153.995V160.258H86.7957L86.7959 152.672Z" fill="#666666"/>
<path d="M99.7798 155.403C99.8169 157.958 101.438 159.011 103.336 159.011C104.689 159.011 105.516 158.768 106.215 158.479L106.546 159.821C105.885 160.123 104.73 160.483 103.079 160.483C99.8853 160.483 97.9648 158.356 97.9648 155.238C97.9648 152.089 99.8201 149.629 102.855 149.629C106.245 149.629 107.132 152.604 107.132 154.517C107.132 154.914 107.109 155.198 107.067 155.403L99.7798 155.403ZM105.312 154.043C105.33 152.852 104.824 150.983 102.705 150.983C100.775 150.983 99.9536 152.727 99.803 154.043H105.312Z" fill="#666666"/>
<path d="M114.043 145H115.924V151.488H115.967C116.28 150.957 116.749 150.481 117.326 150.153C117.876 149.827 118.545 149.629 119.261 149.629C120.663 149.629 122.884 150.483 122.884 154.069V160.258H121.003V154.275C121.003 152.598 120.369 151.189 118.601 151.189C117.364 151.189 116.412 152.053 116.051 153.076C115.953 153.34 115.924 153.626 115.924 153.976V160.257H114.044L114.043 145Z" fill="#666666"/>
<path d="M127.028 155.403C127.065 157.958 128.686 159.011 130.584 159.011C131.937 159.011 132.764 158.768 133.463 158.479L133.794 159.821C133.133 160.123 131.978 160.483 130.327 160.483C127.133 160.483 125.213 158.356 125.213 155.238C125.213 152.089 127.068 149.629 130.103 149.629C133.493 149.629 134.38 152.604 134.38 154.517C134.38 154.914 134.357 155.198 134.315 155.403L127.028 155.403ZM132.56 154.043C132.578 152.852 132.072 150.983 129.953 150.983C128.023 150.983 127.201 152.727 127.051 154.043H132.56Z" fill="#666666"/>
<path d="M136.732 153.102C136.732 151.875 136.701 150.829 136.646 149.865H138.303L138.375 151.904H138.442C138.927 150.509 140.073 149.629 141.336 149.629C141.541 149.629 141.689 149.642 141.862 149.682V151.46C141.669 151.419 141.478 151.405 141.219 151.405C139.887 151.405 138.945 152.409 138.689 153.823C138.64 154.088 138.612 154.398 138.612 154.705V160.258H136.732V153.102Z" fill="#666666"/>
<path d="M144.82 155.403C144.857 157.958 146.479 159.011 148.377 159.011C149.729 159.011 150.557 158.768 151.255 158.479L151.587 159.821C150.926 160.123 149.77 160.483 148.119 160.483C144.926 160.483 143.005 158.356 143.005 155.238C143.005 152.089 144.861 149.629 147.895 149.629C151.286 149.629 152.172 152.604 152.172 154.517C152.172 154.914 152.15 155.198 152.108 155.403L144.82 155.403ZM150.352 154.043C150.371 152.852 149.864 150.983 147.745 150.983C145.816 150.983 144.994 152.727 144.843 154.043H150.352Z" fill="#666666"/>
</svg>
