<svg width="153" height="165" viewBox="0 0 153 165" fill="none" xmlns="http://www.w3.org/2000/svg">
<path d="M109.164 37.8876L107.025 69.6078C107.025 69.6078 107.151 70.2371 103.123 71.6217C99.0945 73.0063 79.71 79.5517 79.71 79.5517C79.71 79.5517 76.8149 80.5587 73.4162 79.5517C70.0177 78.5447 50.3813 71.7475 47.4863 71.244C47.4863 71.244 45.5981 70.3629 45.724 67.7196C45.8499 65.0763 43.8359 38.1392 43.8359 38.1392C43.8359 38.1392 47.3604 37.5099 47.7381 41.412C48.1156 45.3141 49.5003 66.5867 49.5003 66.5867C49.5003 66.5867 49.2485 68.2231 52.2695 69.4817C55.2905 70.7404 73.7939 78.4188 73.7939 78.4188C73.7939 78.4188 76.8149 79.8034 79.8359 78.4188C82.8568 77.0342 101.99 68.8524 101.99 68.8524C101.99 68.8524 103.248 68.349 103.374 66.8385C103.5 65.328 105.137 41.9154 105.137 41.9154C105.137 41.9154 105.766 37.7617 109.164 37.8876Z" fill="#374868"/>
<path d="M102.368 43.8038L101.109 66.0834C101.109 66.0834 100.731 67.0904 97.9621 68.0973C95.1929 69.1043 78.0741 76.405 78.0741 76.405C78.0741 76.405 76.1859 77.2861 73.7944 76.0274C71.4029 74.7687 53.2769 67.3422 53.2769 67.3422C53.2769 67.3422 52.0182 67.7199 51.7664 63.566C51.5146 59.4121 50.3818 42.7969 50.3818 42.7969C50.3818 42.7969 53.2769 46.1954 53.6546 49.72C54.0323 53.2444 54.1581 64.3214 55.4169 65.3283C56.6756 66.3353 74.1721 75.1464 74.1721 75.1464C74.1721 75.1464 75.5567 76.531 78.7036 75.1464C81.8504 73.7618 96.9553 65.8317 96.9553 65.8317C96.9553 65.8317 98.3399 65.3283 98.4658 62.8108C98.5917 60.2932 99.347 47.8318 99.347 47.8318C99.347 47.8318 100.48 45.5659 102.368 43.8038Z" fill="#B3CA58"/>
<path d="M104.963 26.9371H100.656H93.6819C93.8078 29.3287 97.2063 30.7133 99.2204 30.4615C99.9439 30.3711 100.374 30.4435 100.63 30.5729C101.085 30.8037 100.983 31.2168 100.983 31.2168C101.864 33.1048 98.3394 39.2727 98.3394 39.2727L98.3191 39.096L97.9619 35.9999L80.7172 42.5453C80.7172 42.5453 81.2206 45.4403 79.4585 46.3215C77.6962 47.2026 74.0459 46.6992 73.039 46.0697C72.0319 45.4404 72.1578 42.5453 72.1578 42.5453C72.1578 42.5453 56.8011 36.5033 55.9201 36.2515C55.039 35.9997 54.7873 36.1256 54.7873 36.1256L54.5793 39.1427C53.0314 35.9475 52.163 32.3618 52.163 28.5732C52.163 15.1666 63.0312 4.29856 76.4376 4.29856C85.8343 4.29856 93.983 9.63804 98.0175 17.448C98.7964 18.9559 99.421 20.5563 99.8727 22.2277C100.836 23.2649 102.027 23.7623 103.087 23.4267C103.602 23.264 104.027 22.9229 104.352 22.456C103.659 19.2754 102.436 16.2927 100.78 13.6051C95.7494 5.44216 86.7295 0 76.4376 0C60.657 0 47.8643 12.7927 47.8643 28.5734C47.8643 35.2712 50.1696 41.4301 54.0291 46.3017C55.1985 48.2235 55.9201 49.5943 55.9201 49.5943C55.9201 49.5943 56.2978 56.8949 56.4236 60.4195C56.5495 63.9439 57.9341 64.1957 57.9341 64.1957C57.9341 64.1957 69.1368 69.9858 72.7872 72.1257C76.4375 74.2655 76.9409 73.5102 76.9409 73.5102C76.9409 73.5102 87.5144 67.9717 91.5424 65.9578C95.5704 63.9439 96.0738 62.6851 96.0738 62.6851L97.4489 47.9348L97.4584 47.8318C97.8593 47.4309 98.239 47.0224 98.5993 46.608C102.607 41.6894 105.011 35.4124 105.011 28.5732C105.011 28.0242 104.993 27.4788 104.963 26.9371Z" fill="#296038"/>
<path d="M76.9118 62.9316C77.2239 61.1844 76.2578 59.0117 77.7553 57.1398C78.1406 56.6582 77.7703 56.1202 77.357 55.7668C76.9373 55.4078 76.4169 55.2343 75.9163 55.5998C75.4156 55.9655 75.0679 56.5158 75.3627 57.1113C76.9291 60.2744 75.8645 63.629 76.1157 66.8846C76.1449 67.2627 75.9624 67.6766 75.8063 68.0433C75.6906 68.3147 75.4032 68.5273 75.1055 68.3691C74.9594 68.2914 74.8334 67.966 74.8693 67.7869C75.5406 64.4373 73.7493 61.842 72.2155 59.1895C71.2718 57.5576 70.9308 56.0181 72.0168 54.2884C72.6666 53.2533 72.8668 51.9959 73.025 50.7891C73.1856 49.5646 73.7772 49.1103 74.9165 49.5068C76.1271 49.928 77.3221 49.9197 78.5048 49.5159C79.399 49.2106 79.7887 49.5323 79.9734 50.3896C80.3667 52.2144 80.9416 53.9856 81.7904 55.6507C82.2274 56.5076 81.9647 57.1822 81.5011 57.9191C80.2909 59.8431 79.3372 61.9006 78.512 64.0158C78.0873 65.1043 77.6956 66.2019 78.2057 67.3888C78.4009 67.843 78.4735 68.3746 77.8369 68.5047C77.1489 68.6451 76.9196 68.1528 76.9151 67.5575C76.9044 66.1034 76.9118 64.649 76.9118 62.9316Z" fill="#EAF1F6"/>
<path d="M77.2861 13.7269L77.8846 13.2921L78.4832 13.7269L78.2545 13.0233L78.8531 12.5884H78.1133L77.8846 11.8848L77.656 12.5884H76.916L77.5146 13.0233L77.2861 13.7269Z" fill="#374868"/>
<path d="M93.1938 35.3976C93.0917 33.6137 92.4504 32.0119 91.5725 30.4851C89.7984 27.3994 86.9359 25.5199 84.0372 23.6797C82.557 23.014 81.0161 22.4556 79.6093 21.6599C77.7311 20.5975 77.1104 18.7902 77.741 17.2359C78.9255 17.1619 80.0084 16.6154 80.7958 15.7229C80.7958 15.7229 74.2649 17.189 74.2649 10.125C74.2649 10.1936 74.1418 10.3407 74.1105 10.4012C73.9829 10.6475 73.8728 10.9032 73.7789 11.1641C73.4986 11.9422 73.3601 12.7854 73.4696 13.6102C73.5717 14.3794 73.8979 15.0969 74.3959 15.6906C74.7909 16.1615 75.232 16.5402 75.7249 16.8068C76.2898 18.7675 75.4104 20.8908 73.3056 21.876C71.9934 22.4903 70.6685 23.0773 69.3496 23.6768C67.7208 24.8804 65.9313 25.8511 64.4042 27.2069C61.945 29.3901 60.7823 32.2817 59.9391 35.3243C59.5627 36.6821 60.4998 37.7294 62.1848 37.9813C63.6888 38.2063 63.6615 37.036 63.7724 36.0571C64.0252 33.8238 65.0964 31.9958 66.5935 30.3917C69.1651 27.6361 72.5563 26.2196 75.9189 24.7713C76.5269 24.5094 77.1816 24.6056 77.786 24.8799C80.1661 25.9603 82.5573 27.0324 84.6568 28.6164C87.2991 30.6099 89.1857 33.1074 89.5583 36.5134C89.7351 38.128 90.3226 38.4904 91.7717 37.7739C92.7487 37.291 93.2579 36.5183 93.1938 35.3976Z" fill="#374868"/>
<path d="M17.6942 129V111.545H20.8562V118.935H28.9442V111.545H32.1147V129H28.9442V121.585H20.8562V129H17.6942ZM39.1843 129.264C38.3548 129.264 37.6076 129.116 36.9428 128.821C36.2837 128.52 35.761 128.077 35.3746 127.491C34.994 126.906 34.8036 126.185 34.8036 125.327C34.8036 124.588 34.94 123.977 35.2127 123.494C35.4854 123.011 35.8576 122.625 36.3292 122.335C36.8008 122.045 37.332 121.827 37.9229 121.679C38.5195 121.526 39.136 121.415 39.7724 121.347C40.5394 121.267 41.1616 121.196 41.6388 121.134C42.1161 121.065 42.4627 120.963 42.6786 120.827C42.9002 120.685 43.011 120.466 43.011 120.17V120.119C43.011 119.477 42.8207 118.98 42.44 118.628C42.0593 118.276 41.511 118.099 40.7951 118.099C40.0394 118.099 39.44 118.264 38.9968 118.594C38.5593 118.923 38.2638 119.312 38.1104 119.761L35.2298 119.352C35.457 118.557 35.832 117.892 36.3548 117.358C36.8775 116.818 37.5167 116.415 38.2724 116.148C39.0281 115.875 39.8633 115.739 40.7781 115.739C41.4087 115.739 42.0366 115.812 42.6616 115.96C43.2866 116.108 43.8576 116.352 44.3746 116.693C44.8917 117.028 45.3065 117.486 45.619 118.065C45.9371 118.645 46.0962 119.369 46.0962 120.239V129H43.1303V127.202H43.0281C42.8406 127.565 42.5763 127.906 42.2354 128.224C41.9002 128.537 41.4769 128.79 40.9656 128.983C40.4599 129.17 39.8661 129.264 39.1843 129.264ZM39.9854 126.997C40.6048 126.997 41.1417 126.875 41.5962 126.631C42.0508 126.381 42.4002 126.051 42.6445 125.642C42.8945 125.233 43.0195 124.787 43.0195 124.304V122.761C42.9229 122.841 42.7582 122.915 42.5252 122.983C42.2979 123.051 42.0423 123.111 41.7582 123.162C41.4741 123.213 41.1928 123.259 40.9144 123.298C40.636 123.338 40.3945 123.372 40.19 123.401C39.7298 123.463 39.3178 123.565 38.9542 123.707C38.5906 123.849 38.3036 124.048 38.0934 124.304C37.8832 124.554 37.7781 124.878 37.7781 125.276C37.7781 125.844 37.9854 126.273 38.4002 126.562C38.815 126.852 39.3434 126.997 39.9854 126.997ZM49.1985 115.909H52.2837V129.75C52.2837 130.693 52.1048 131.472 51.7468 132.085C51.3888 132.699 50.8718 133.156 50.1957 133.457C49.5195 133.759 48.6985 133.909 47.7326 133.909C47.619 133.909 47.5138 133.906 47.4173 133.901C47.3207 133.901 47.2156 133.898 47.1019 133.892V131.378C47.1871 131.384 47.2638 131.386 47.332 131.386C47.4002 131.392 47.4712 131.395 47.5451 131.395C48.136 131.395 48.5593 131.25 48.815 130.96C49.0707 130.676 49.1985 130.259 49.1985 129.707V115.909ZM50.7326 114.051C50.2383 114.051 49.815 113.889 49.4627 113.565C49.1161 113.236 48.9428 112.841 48.9428 112.381C48.9428 111.915 49.1161 111.52 49.4627 111.196C49.815 110.866 50.2383 110.702 50.7326 110.702C51.2212 110.702 51.6388 110.866 51.9854 111.196C52.3377 111.52 52.5138 111.915 52.5138 112.381C52.5138 112.841 52.3377 113.236 51.9854 113.565C51.6388 113.889 51.2212 114.051 50.7326 114.051ZM55.4563 115.909H58.5415V129.75C58.5415 130.693 58.3626 131.472 58.0046 132.085C57.6467 132.699 57.1296 133.156 56.4535 133.457C55.7773 133.759 54.9563 133.909 53.9904 133.909C53.8768 133.909 53.7717 133.906 53.6751 133.901C53.5785 133.901 53.4734 133.898 53.3597 133.892V131.378C53.445 131.384 53.5217 131.386 53.5898 131.386C53.658 131.392 53.729 131.395 53.8029 131.395C54.3938 131.395 54.8171 131.25 55.0728 130.96C55.3285 130.676 55.4563 130.259 55.4563 129.707V115.909ZM56.9904 114.051C56.4961 114.051 56.0728 113.889 55.7205 113.565C55.3739 113.236 55.2006 112.841 55.2006 112.381C55.2006 111.915 55.3739 111.52 55.7205 111.196C56.0728 110.866 56.4961 110.702 56.9904 110.702C57.479 110.702 57.8967 110.866 58.2433 111.196C58.5955 111.52 58.7717 111.915 58.7717 112.381C58.7717 112.841 58.5955 113.236 58.2433 113.565C57.8967 113.889 57.479 114.051 56.9904 114.051ZM67.0366 114.196V111.545H80.9627V114.196H75.5678V129H72.4315V114.196H67.0366ZM82.1516 129V115.909H85.1431V118.091H85.2795C85.5181 117.335 85.9272 116.753 86.5067 116.344C87.092 115.929 87.7596 115.722 88.5096 115.722C88.68 115.722 88.8704 115.73 89.0806 115.747C89.2965 115.759 89.4755 115.778 89.6175 115.807V118.645C89.4869 118.599 89.2795 118.56 88.9954 118.526C88.717 118.486 88.4471 118.466 88.1857 118.466C87.6232 118.466 87.1175 118.588 86.6687 118.832C86.2255 119.071 85.8761 119.403 85.6204 119.83C85.3647 120.256 85.2369 120.747 85.2369 121.304V129H82.1516ZM95.1999 129.264C94.3704 129.264 93.6232 129.116 92.9585 128.821C92.2994 128.52 91.7766 128.077 91.3903 127.491C91.0096 126.906 90.8192 126.185 90.8192 125.327C90.8192 124.588 90.9556 123.977 91.2283 123.494C91.5011 123.011 91.8732 122.625 92.3448 122.335C92.8164 122.045 93.3477 121.827 93.9386 121.679C94.5352 121.526 95.1516 121.415 95.788 121.347C96.555 121.267 97.1772 121.196 97.6545 121.134C98.1317 121.065 98.4783 120.963 98.6942 120.827C98.9158 120.685 99.0266 120.466 99.0266 120.17V120.119C99.0266 119.477 98.8363 118.98 98.4556 118.628C98.0749 118.276 97.5266 118.099 96.8107 118.099C96.055 118.099 95.4556 118.264 95.0124 118.594C94.5749 118.923 94.2795 119.312 94.1261 119.761L91.2454 119.352C91.4727 118.557 91.8477 117.892 92.3704 117.358C92.8931 116.818 93.5323 116.415 94.288 116.148C95.0437 115.875 95.8789 115.739 96.7937 115.739C97.4244 115.739 98.0522 115.812 98.6772 115.96C99.3022 116.108 99.8732 116.352 100.39 116.693C100.907 117.028 101.322 117.486 101.635 118.065C101.953 118.645 102.112 119.369 102.112 120.239V129H99.146V127.202H99.0437C98.8562 127.565 98.592 127.906 98.2511 128.224C97.9158 128.537 97.4925 128.79 96.9812 128.983C96.4755 129.17 95.8817 129.264 95.1999 129.264ZM96.0011 126.997C96.6204 126.997 97.1573 126.875 97.6119 126.631C98.0664 126.381 98.4158 126.051 98.6602 125.642C98.9102 125.233 99.0352 124.787 99.0352 124.304V122.761C98.9386 122.841 98.7738 122.915 98.5408 122.983C98.3136 123.051 98.0579 123.111 97.7738 123.162C97.4897 123.213 97.2085 123.259 96.93 123.298C96.6516 123.338 96.4102 123.372 96.2056 123.401C95.7454 123.463 95.3335 123.565 94.9698 123.707C94.6062 123.849 94.3192 124.048 94.109 124.304C93.8988 124.554 93.7937 124.878 93.7937 125.276C93.7937 125.844 94.0011 126.273 94.4158 126.562C94.8306 126.852 95.359 126.997 96.0011 126.997ZM116.439 115.909L111.777 129H108.368L103.706 115.909H106.995L110.004 125.634H110.14L113.157 115.909H116.439ZM123.924 129.256C122.611 129.256 121.478 128.983 120.523 128.438C119.574 127.886 118.844 127.108 118.333 126.102C117.821 125.091 117.566 123.901 117.566 122.531C117.566 121.185 117.821 120.003 118.333 118.986C118.85 117.963 119.571 117.168 120.498 116.599C121.424 116.026 122.512 115.739 123.762 115.739C124.569 115.739 125.33 115.869 126.046 116.131C126.767 116.386 127.404 116.784 127.955 117.324C128.512 117.864 128.949 118.551 129.267 119.386C129.586 120.216 129.745 121.205 129.745 122.352V123.298H119.015V121.219H126.787C126.782 120.628 126.654 120.102 126.404 119.642C126.154 119.176 125.804 118.81 125.355 118.543C124.912 118.276 124.395 118.142 123.804 118.142C123.174 118.142 122.62 118.295 122.142 118.602C121.665 118.903 121.293 119.301 121.026 119.795C120.765 120.284 120.631 120.821 120.625 121.406V123.222C120.625 123.983 120.765 124.636 121.043 125.182C121.321 125.722 121.711 126.136 122.211 126.426C122.711 126.71 123.296 126.852 123.966 126.852C124.415 126.852 124.821 126.79 125.185 126.665C125.549 126.534 125.864 126.344 126.131 126.094C126.398 125.844 126.6 125.534 126.736 125.165L129.617 125.489C129.435 126.25 129.088 126.915 128.577 127.483C128.071 128.045 127.424 128.483 126.634 128.795C125.844 129.102 124.941 129.256 123.924 129.256ZM135.44 111.545V129H132.355V111.545H135.44Z" fill="#03060E"/>
<path d="M2.71927 149.865L4.99022 156.008C5.23442 156.695 5.48862 157.51 5.6588 158.129H5.71132C5.8967 157.517 6.12658 156.721 6.37469 155.966L8.43098 149.865H10.4362L7.59223 157.268C6.24575 160.842 5.31974 162.661 4.03296 163.787C3.09827 164.595 2.17703 164.917 1.71533 165L1.24558 163.42C1.72052 163.271 2.33484 162.975 2.90139 162.497C3.41084 162.084 4.04338 161.352 4.48207 160.392C4.57758 160.193 4.62837 160.053 4.62837 159.936C4.62837 159.83 4.59755 159.68 4.49683 159.451L0.664062 149.866H2.71927V149.865Z" fill="#666666"/>
<path d="M21.5643 154.962C21.5643 158.81 18.8942 160.494 16.3959 160.494C13.5773 160.494 11.3999 158.44 11.3999 155.141C11.3999 151.663 13.6863 149.629 16.5607 149.629C19.5489 149.629 21.5643 151.796 21.5643 154.962ZM13.3238 155.083C13.3238 157.362 14.6301 159.078 16.4741 159.078C18.2866 159.078 19.6411 157.385 19.6411 155.026C19.6411 153.268 18.755 151.045 16.5084 151.045C14.2884 151.045 13.3238 153.112 13.3238 155.083Z" fill="#666666"/>
<path d="M32.6449 157.413C32.6449 158.503 32.6805 159.436 32.7309 160.258H31.061L30.9603 158.558H30.9077C30.4287 159.394 29.3301 160.494 27.4674 160.494C25.8414 160.494 23.8882 159.582 23.8882 155.939V149.865H25.7686V155.607C25.7686 157.587 26.3858 158.935 28.0917 158.935C29.3579 158.935 30.2431 158.048 30.5925 157.2C30.6902 156.928 30.7643 156.59 30.7643 156.231V149.865H32.6447L32.6449 157.413Z" fill="#666666"/>
<path d="M35.791 153.102C35.791 151.875 35.7604 150.829 35.7051 149.865H37.3618L37.4338 151.904H37.5011C37.9863 150.509 39.1324 149.629 40.3951 149.629C40.5998 149.629 40.7482 149.642 40.9208 149.682V151.46C40.7278 151.419 40.5375 151.405 40.2778 151.405C38.9457 151.405 38.0045 152.409 37.7479 153.823C37.6991 154.088 37.6715 154.398 37.6715 154.705V160.258H35.791V153.102Z" fill="#666666"/>
<path d="M49.6462 146.873V149.865H52.3619V151.297H49.6462V156.898C49.6462 158.193 50.0189 158.924 51.0756 158.924C51.5655 158.924 51.9219 158.864 52.1707 158.787L52.2571 160.223C51.89 160.368 51.3029 160.483 50.5685 160.483C49.6998 160.483 48.9783 160.197 48.5285 159.683C48.0078 159.109 47.7948 158.193 47.7948 156.972V151.296H46.1851V149.865H47.7948V147.361L49.6462 146.873Z" fill="#666666"/>
<path d="M60.253 160.258L60.0862 158.945H60.0298C59.4589 159.756 58.3384 160.494 56.8502 160.494C54.7507 160.494 53.6758 159.004 53.6758 157.512C53.6758 154.995 55.9068 153.612 59.9215 153.641V153.42C59.9215 152.575 59.684 151.011 57.5552 151.022C56.5882 151.022 55.5769 151.311 54.8477 151.797L54.4188 150.54C55.2797 149.985 56.5376 149.629 57.8491 149.629C61.0257 149.629 61.8004 151.801 61.8004 153.883V157.771C61.8004 158.659 61.8408 159.544 61.9574 160.258H60.253ZM59.9588 154.951C57.9136 154.908 55.5719 155.275 55.5719 157.285C55.5719 158.525 56.3881 159.094 57.3364 159.094C58.7048 159.094 59.5679 158.232 59.8692 157.354C59.9347 157.153 59.9588 156.939 59.9588 156.759V154.951Z" fill="#666666"/>
<path d="M73.8163 149.865C73.7642 150.599 73.7288 151.443 73.7288 152.709V158.744C73.7288 161.149 73.2378 162.591 72.2448 163.502C71.2239 164.438 69.77 164.749 68.4587 164.749C67.2014 164.749 65.8334 164.455 64.9892 163.894L65.4631 162.44C66.1564 162.873 67.2253 163.272 68.5227 163.272C70.4518 163.272 71.8697 162.262 71.8697 159.63V158.472H71.8267C71.2588 159.448 70.1259 160.222 68.524 160.222C65.9328 160.222 64.0928 158.019 64.0928 155.139C64.0928 151.615 66.3852 149.629 68.7851 149.629C70.5892 149.629 71.5647 150.557 72.0275 151.422H72.0705L72.1488 149.865L73.8163 149.865ZM71.8501 153.953C71.8501 153.643 71.8225 153.361 71.7455 153.107C71.3971 152.006 70.4841 151.096 69.091 151.096C67.2878 151.096 65.9954 152.621 65.9954 155.036C65.9954 157.07 67.0451 158.78 69.0721 158.78C70.2453 158.78 71.2966 158.039 71.7014 156.831C71.8019 156.526 71.8504 156.156 71.8504 155.826V153.953H71.8501Z" fill="#666666"/>
<path d="M76.8604 145H78.7408V160.257H76.8604V145Z" fill="#666666"/>
<path d="M84.0432 146.926C84.045 147.569 83.5921 148.101 82.8411 148.101C82.1573 148.101 81.6985 147.569 81.7002 146.926C81.6985 146.277 82.183 145.75 82.8754 145.75C83.5809 145.75 84.0384 146.266 84.0432 146.926ZM81.9314 160.257V149.864H83.8118V160.257H81.9314Z" fill="#666666"/>
<path d="M86.96 152.672C86.96 151.588 86.9246 150.727 86.874 149.865H88.5439L88.6481 151.574H88.7007C89.2116 150.598 90.4207 149.629 92.1371 149.629C93.5647 149.629 95.7996 150.488 95.7996 154.058V160.258H93.9192V154.266C93.9192 152.586 93.286 151.179 91.5169 151.179C90.2763 151.179 89.3091 152.06 88.9702 153.118C88.8919 153.349 88.8402 153.684 88.8402 153.995V160.258H86.9598L86.96 152.672Z" fill="#666666"/>
<path d="M99.9438 155.403C99.981 157.958 101.602 159.011 103.5 159.011C104.853 159.011 105.68 158.768 106.379 158.479L106.71 159.821C106.049 160.123 104.894 160.483 103.243 160.483C100.049 160.483 98.1289 158.356 98.1289 155.238C98.1289 152.089 99.9842 149.629 103.019 149.629C106.409 149.629 107.296 152.604 107.296 154.517C107.296 154.914 107.273 155.198 107.231 155.403L99.9438 155.403ZM105.476 154.043C105.495 152.852 104.988 150.983 102.869 150.983C100.939 150.983 100.118 152.727 99.967 154.043H105.476Z" fill="#666666"/>
<path d="M114.208 145H116.088V151.488H116.131C116.444 150.957 116.913 150.481 117.49 150.153C118.041 149.827 118.709 149.629 119.425 149.629C120.827 149.629 123.048 150.483 123.048 154.069V160.258H121.167V154.275C121.167 152.598 120.534 151.189 118.765 151.189C117.528 151.189 116.576 152.053 116.215 153.076C116.117 153.34 116.088 153.626 116.088 153.976V160.257H114.208L114.208 145Z" fill="#666666"/>
<path d="M127.192 155.403C127.229 157.958 128.85 159.011 130.749 159.011C132.101 159.011 132.928 158.768 133.627 158.479L133.958 159.821C133.297 160.123 132.142 160.483 130.491 160.483C127.297 160.483 125.377 158.356 125.377 155.238C125.377 152.089 127.232 149.629 130.267 149.629C133.657 149.629 134.544 152.604 134.544 154.517C134.544 154.914 134.521 155.198 134.48 155.403L127.192 155.403ZM132.724 154.043C132.742 152.852 132.236 150.983 130.117 150.983C128.187 150.983 127.366 152.727 127.215 154.043H132.724Z" fill="#666666"/>
<path d="M136.896 153.102C136.896 151.875 136.865 150.829 136.81 149.865H138.467L138.539 151.904H138.606C139.091 150.509 140.237 149.629 141.5 149.629C141.705 149.629 141.853 149.642 142.026 149.682V151.46C141.833 151.419 141.642 151.405 141.383 151.405C140.051 151.405 139.109 152.409 138.853 153.823C138.804 154.088 138.776 154.398 138.776 154.705V160.258H136.896V153.102Z" fill="#666666"/>
<path d="M144.984 155.403C145.021 157.958 146.643 159.011 148.541 159.011C149.893 159.011 150.721 158.768 151.42 158.479L151.751 159.821C151.09 160.123 149.934 160.483 148.283 160.483C145.09 160.483 143.169 158.356 143.169 155.238C143.169 152.089 145.025 149.629 148.059 149.629C151.45 149.629 152.336 152.604 152.336 154.517C152.336 154.914 152.314 155.198 152.272 155.403L144.984 155.403ZM150.516 154.043C150.535 152.852 150.029 150.983 147.909 150.983C145.98 150.983 145.158 152.727 145.007 154.043H150.516Z" fill="#666666"/>
</svg>
